<?xml version="1.0" encoding="UTF-8"?>
<svg xmlns="http://www.w3.org/2000/svg" xmlns:xlink="http://www.w3.org/1999/xlink" viewBox="0 0 415.26 256.9">
  <defs>
    <style>
      .cls-1, .cls-2, .cls-3 {
        opacity: .2;
      }

      .cls-1, .cls-4 {
        fill: #99b6ca;
      }

      .cls-5, .cls-6, .cls-4 {
        opacity: .7;
      }

      .cls-5, .cls-7, .cls-8 {
        fill: #e4f2fb;
      }

      .cls-9 {
        fill: #9dd8f1;
      }

      .cls-10 {
        fill: #fbb85d;
      }

      .cls-6 {
        fill: url(#linear-gradient);
        mix-blend-mode: screen;
      }

      .cls-11 {
        fill: #005d92;
      }

      .cls-12 {
        fill: #1a2c3d;
      }

      .cls-12, .cls-13, .cls-14, .cls-15 {
        opacity: .1;
      }

      .cls-16, .cls-17 {
        fill: #3d95d1;
      }

      .cls-7, .cls-18 {
        opacity: .3;
      }

      .cls-8 {
        opacity: .5;
      }

      .cls-19, .cls-13 {
        fill: #005687;
      }

      .cls-20, .cls-18, .cls-21 {
        fill: #fff;
      }

      .cls-22 {
        fill: #005984;
      }

      .cls-23 {
        fill: #004165;
      }

      .cls-24 {
        fill: none;
      }

      .cls-2 {
        fill: #003e65;
      }

      .cls-25 {
        fill: #c8e5f7;
      }

      .cls-26 {
        fill: #00466e;
      }

      .cls-14, .cls-27 {
        fill: #0a9edb;
      }

      .cls-28 {
        isolation: isolate;
      }

      .cls-29 {
        fill: #003553;
      }

      .cls-30 {
        fill: #4596d1;
        opacity: .4;
      }

      .cls-17 {
        opacity: .8;
      }

      .cls-31, .cls-32 {
        fill: #76beea;
      }

      .cls-32 {
        opacity: .15;
      }

      .cls-33 {
        fill: #002f49;
      }

      .cls-34 {
        fill: #fbcda6;
      }

      .cls-35 {
        fill: #146491;
      }

      .cls-36 {
        fill: #f8c0ae;
      }

      .cls-37 {
        fill: #6cc5e9;
      }

      .cls-38 {
        fill: #65b2e3;
      }

      .cls-39 {
        fill: #54656f;
      }

      .cls-21 {
        opacity: .6;
      }

      .cls-3 {
        fill: #002a43;
      }

      .cls-40 {
        fill: #2a2a3b;
      }

      .cls-41 {
        fill: #faa634;
      }

      .cls-42 {
        fill: #3bb1e2;
      }
    </style>
    <linearGradient id="linear-gradient" x1="158.01" y1="40.92" x2="213.92" y2="137.76" gradientUnits="userSpaceOnUse">
      <stop offset=".24" stop-color="#fff"/>
      <stop offset="1" stop-color="#000"/>
    </linearGradient>
  </defs>
  <g class="cls-28">
    <g id="_レイヤー_2" data-name="レイヤー 2">
      <g id="Layer_1" data-name="Layer 1">
        <g>
          <g>
            <path class="cls-7" d="M224.35,239.33c35.59,15.98,128.63,34.33,158.41-28.38,46.27-97.44-22.66-194.35-72.22-180.22-35.58,10.14-57.16,23.29-89.39-2.42C184.69-.78,74.93-12.68,32.34,40.34c-37.52,46.71,2.63,85.11-13.51,121.49-59.28,133.62,105.95,80.06,138.14,66.56,32.19-13.5,50.08,3.17,67.37,10.93Z"/>
            <path class="cls-8" d="M208.06,242.66c57.16-1.4,219.47,38.62,206.46-101.94C401.51.16,277.4,98.89,221.15,51.86,164.91,4.83,106.88-30.41,49.35,39.03-8.17,108.46-9.49,117.29,15.34,166.5c24.83,49.21,25.51,99.66,104.55,88.94,79.04-10.71,65.92-12.24,88.17-12.78Z"/>
          </g>
          <path class="cls-13" d="M190.7,242.62c-20.35-.03-57.84.64-53.21-2.77,4.63-3.42,29.05-.07,49.07-1.21s38.15-2.46,58.62-.77c20.48,1.69,14.91,3.63,5.92,4.18-16.52,1.01-19.45,1.44-29.02.89-28.03-1.62-23.46-.3-31.38-.31Z"/>
          <path class="cls-31" d="M89.21,50.63l-.15-1.19c.34-.04.67-.13.98-.27l.48,1.1c-.42.18-.86.31-1.32.36ZM87.85,50.6c-.45-.07-.89-.21-1.3-.41l.52-1.08c.31.15.64.26.97.31l-.19,1.18ZM91.69,49.54l-.78-.91c.26-.22.49-.48.68-.77l1,.66c-.25.38-.55.73-.9,1.02ZM85.41,49.42c-.34-.31-.63-.66-.86-1.06l1.03-.62c.18.29.39.56.65.79l-.81.88ZM93.16,47.27l-1.15-.34c.1-.33.15-.66.15-1.01h1.2c0,.46-.07.91-.2,1.35ZM84.02,47.1c-.1-.38-.15-.78-.15-1.18v-.18s1.2.04,1.2.04v.14c0,.3.03.6.11.88l-1.16.3ZM92.08,45.17c-.07-.33-.19-.66-.36-.95l1.05-.58c.22.4.38.83.48,1.28l-1.17.25ZM85.26,44.78l-1.13-.39c.15-.43.35-.84.62-1.22l.98.69c-.2.28-.36.59-.46.91ZM91.11,43.4c-.24-.24-.52-.45-.82-.61l.56-1.06c.4.22.77.49,1.1.81l-.84.85ZM86.43,43.13l-.74-.94c.36-.28.76-.51,1.18-.68l.44,1.11c-.32.13-.62.3-.88.51ZM89.33,42.45c-.33-.07-.68-.09-1.02-.06l-.11-1.19c.45-.04.92-.01,1.36.08l-.24,1.17Z"/>
          <path class="cls-31" d="M263.32,21.81l-.09-.71c.2-.03.4-.08.59-.16l.29.66c-.25.11-.52.18-.79.22ZM262.5,21.8c-.27-.04-.53-.13-.78-.25l.31-.65c.19.09.38.15.58.19l-.12.71ZM264.81,21.16l-.47-.55c.16-.13.29-.29.41-.46l.6.39c-.15.23-.33.44-.54.61ZM261.04,21.09c-.2-.19-.38-.4-.52-.63l.62-.37c.11.18.24.34.39.48l-.49.53ZM265.69,19.8l-.69-.2c.06-.2.09-.4.09-.61h.72c0,.28-.04.55-.12.81ZM260.21,19.7c-.06-.23-.09-.47-.09-.71v-.11s.72.02.72.02v.08c0,.18.02.36.06.53l-.7.18ZM265.04,18.54c-.04-.2-.12-.39-.21-.57l.63-.35c.13.24.23.5.29.77l-.7.15ZM260.95,18.3l-.68-.23c.09-.26.21-.5.37-.73l.59.41c-.12.17-.21.35-.28.55ZM264.46,17.48c-.15-.14-.31-.27-.49-.36l.34-.63c.24.13.46.29.66.49l-.51.51ZM261.65,17.31l-.44-.56c.22-.17.46-.31.71-.41l.26.67c-.19.08-.37.18-.53.31ZM263.39,16.9c-.2-.04-.41-.05-.61-.03l-.06-.72c.27-.02.55,0,.82.05l-.14.7Z"/>
          <g>
            <g>
              <g>
                <rect class="cls-19" x="171.44" y="192.68" width="54.74" height="39.03"/>
                <path class="cls-35" d="M153.03,231.71h91.57c2.9,0,5.25,2.35,5.25,5.25v3.16h-102.07v-3.16c0-2.9,2.35-5.25,5.25-5.25Z"/>
              </g>
              <path class="cls-3" d="M171.44,192.68v21.37c20.41-14.9,54.74-7.86,54.74-7.86v-13.51h-54.74Z"/>
            </g>
            <g>
              <path class="cls-16" d="M100.82,173.27h195.99v19.59c0,3.62-2.94,6.56-6.56,6.56H107.37c-3.62,0-6.56-2.94-6.56-6.56v-19.59h0Z"/>
              <rect class="cls-25" x="105.77" y="71.08" width="186.08" height="102.19"/>
              <path class="cls-6" d="M105.77,71.08v81.03c36.26-28.36,90.04-68.5,186.08-59.35v-21.68H105.77Z"/>
              <path class="cls-19" d="M296.81,178.23H100.82v-105.55c0-3.62,2.94-6.56,6.56-6.56h182.88c3.62,0,6.56,2.94,6.56,6.56v105.55ZM110.73,168.32h176.17v-92.28H110.73v92.28Z"/>
            </g>
          </g>
          <g>
            <path class="cls-31" d="M332.79,110.19c-.24-.02-.48-.07-.7-.14l.19-.62c.18.06.38.09.57.11l-.06.65ZM333.5,110.18l-.08-.65c.19-.02.38-.07.57-.13l.21.62c-.23.08-.46.13-.7.16ZM331.42,109.77c-.21-.12-.41-.25-.59-.41l.42-.49c.15.13.31.24.48.33l-.31.57ZM334.85,109.72l-.33-.56c.17-.1.32-.22.47-.35l.44.48c-.18.16-.37.31-.58.43ZM330.34,108.84c-.15-.19-.27-.4-.37-.61l.59-.28c.08.17.19.34.3.5l-.52.4ZM335.9,108.76l-.53-.38c.11-.16.21-.33.29-.51l.59.26c-.1.22-.22.43-.36.62ZM329.73,107.56c-.06-.23-.09-.47-.1-.71l.65-.02c0,.19.03.39.08.58l-.63.15ZM336.48,107.45l-.64-.13c.04-.19.06-.38.06-.58,0-.06,0-.12,0-.17l.65-.04c0,.07,0,.14,0,.21,0,.24-.02.48-.07.71ZM330.32,106.24l-.64-.11c.04-.24.11-.47.2-.69l.6.24c-.07.18-.13.37-.16.56ZM335.8,105.99c-.05-.19-.12-.37-.21-.54l.58-.3c.11.21.2.44.26.67l-.63.17ZM330.76,105.17l-.54-.36c.13-.2.29-.38.46-.55l.45.47c-.14.14-.26.29-.37.45ZM335.27,104.96c-.12-.15-.26-.29-.41-.41l.41-.5c.19.15.36.32.51.5l-.5.41ZM331.59,104.36l-.35-.55c.2-.13.42-.24.64-.32l.23.61c-.18.07-.36.15-.52.26ZM334.37,104.24c-.17-.09-.35-.16-.54-.21l.17-.63c.23.06.46.15.67.26l-.3.58ZM332.67,103.96l-.1-.64c.23-.03.48-.05.72-.03l-.04.65c-.2-.01-.39,0-.58.03Z"/>
            <circle class="cls-31" cx="333.09" cy="106.74" r="1.52"/>
          </g>
          <path class="cls-13" d="M358.96,249.82c-13.33-.03-37.9.64-34.87-2.77s19.04-.07,32.16-1.21c13.12-1.14,25-2.46,38.41-.77,13.42,1.69,9.77,3.63,3.88,4.18-10.82,1.01-12.74,1.44-19.02.89-18.36-1.62-15.37-.3-20.56-.31Z"/>
          <path class="cls-31" d="M87.37,85.63v3.02h2.9v1.3h-2.9v3.05h-1.36v-3.05h-2.9v-1.3h2.9v-3.02h1.36Z"/>
          <path class="cls-31" d="M301.62,47.44v2.82h2.71v.72h-2.71v2.84h-.77v-2.84h-2.71v-.72h2.71v-2.82h.77Z"/>
          <g>
            <g>
              <rect class="cls-20" x="113.06" y="34.62" width="171.5" height="133.7"/>
              <rect class="cls-16" x="113.06" y="34.62" width="171.51" height="11.28"/>
            </g>
            <g>
              <rect class="cls-5" x="119.35" y="38.1" width="23.77" height="4.32"/>
              <g>
                <rect class="cls-5" x="261.39" y="38.1" width="4.32" height="4.32"/>
                <rect class="cls-5" x="267.37" y="38.1" width="4.32" height="4.32"/>
                <rect class="cls-5" x="273.35" y="38.1" width="4.32" height="4.32"/>
              </g>
            </g>
            <g>
              <rect class="cls-1" x="118.24" y="56.71" width="53.1" height="2.32"/>
              <rect class="cls-1" x="118.24" y="61.7" width="71.54" height="2.32"/>
            </g>
            <g>
              <rect class="cls-32" x="118.24" y="74.38" width="30.93" height="22.95"/>
              <g>
                <g>
                  <path class="cls-16" d="M127.71,87.45v-6.34c-3.5,0-6.34,2.84-6.34,6.34s2.84,6.34,6.34,6.34,6.34-2.84,6.34-6.34c0-.04,0-.08,0-.13l-6.33.13Z"/>
                  <path class="cls-41" d="M134.93,86.53c-.07-3.44-2.87-6.21-6.33-6.21v6.34l6.33-.13Z"/>
                </g>
                <g>
                  <g>
                    <rect class="cls-41" x="138.72" y="81.11" width="2.2" height="2.2"/>
                    <rect class="cls-4" x="141.9" y="81.11" width="5.04" height=".5"/>
                    <rect class="cls-4" x="141.9" y="81.96" width="2.99" height=".5"/>
                  </g>
                  <g>
                    <rect class="cls-16" x="138.72" y="85.25" width="2.2" height="2.2"/>
                    <rect class="cls-4" x="141.9" y="85.25" width="5.04" height=".5"/>
                    <rect class="cls-4" x="141.9" y="86.1" width="2.99" height=".5"/>
                  </g>
                </g>
              </g>
            </g>
            <g>
              <rect class="cls-32" x="152.42" y="74.5" width="30.93" height="22.95"/>
              <g>
                <g>
                  <g>
                    <rect class="cls-16" x="172.43" y="79.76" width="2.2" height="2.2"/>
                    <rect class="cls-4" x="175.61" y="79.76" width="5.04" height=".5"/>
                    <rect class="cls-4" x="175.61" y="80.61" width="2.99" height=".5"/>
                  </g>
                  <g>
                    <rect class="cls-11" x="172.43" y="83.25" width="2.2" height="2.2"/>
                    <rect class="cls-4" x="175.61" y="83.25" width="5.04" height=".5"/>
                    <rect class="cls-4" x="175.61" y="84.1" width="2.99" height=".5"/>
                  </g>
                  <g>
                    <rect class="cls-41" x="172.43" y="86.74" width="2.2" height="2.2"/>
                    <rect class="cls-4" x="175.61" y="86.74" width="5.04" height=".5"/>
                    <rect class="cls-4" x="175.61" y="87.59" width="2.99" height=".5"/>
                  </g>
                  <g>
                    <rect class="cls-31" x="172.43" y="90.23" width="2.2" height="2.2"/>
                    <rect class="cls-4" x="175.61" y="90.23" width="5.04" height=".5"/>
                    <rect class="cls-4" x="175.61" y="91.08" width="2.99" height=".5"/>
                  </g>
                </g>
                <g>
                  <g>
                    <path class="cls-11" d="M162.13,79.95v6.01l2-5.66c-.66-.22-1.33-.34-2-.35Z"/>
                    <path class="cls-31" d="M164.36,80.38l-2.15,6.07,6.02-2.29c-.7-1.75-2.11-3.12-3.87-3.78Z"/>
                    <path class="cls-41" d="M162.73,86.51l5.97-.22c-.04-.65-.16-1.29-.38-1.9l-5.58,2.12Z"/>
                    <path class="cls-16" d="M161.84,79.95c-3.63.09-6.54,3.05-6.54,6.7s3,6.71,6.71,6.71,6.71-3.01,6.71-6.71c0-.02,0-.04,0-.06l-6.88.21v-6.85Z"/>
                  </g>
                  <path class="cls-20" d="M166.19,86.64c0,2.31-1.87,4.18-4.18,4.18s-4.18-1.87-4.18-4.18,1.87-4.18,4.18-4.18,4.18,1.87,4.18,4.18Z"/>
                </g>
              </g>
            </g>
            <g>
              <rect class="cls-32" x="186.43" y="74.38" width="30.93" height="22.95"/>
              <g>
                <g>
                  <g>
                    <rect class="cls-33" x="207" y="79.76" width="1.65" height="1.65"/>
                    <rect class="cls-9" x="209.38" y="79.76" width="3.78" height=".38"/>
                    <rect class="cls-9" x="209.38" y="80.4" width="2.24" height=".38"/>
                  </g>
                  <g>
                    <rect class="cls-27" x="207" y="82.51" width="1.65" height="1.65"/>
                    <rect class="cls-9" x="209.38" y="82.51" width="3.78" height=".38"/>
                    <rect class="cls-9" x="209.38" y="83.15" width="2.24" height=".38"/>
                  </g>
                  <g>
                    <rect class="cls-42" x="207" y="85.26" width="1.65" height="1.65"/>
                    <rect class="cls-9" x="209.38" y="85.26" width="3.78" height=".38"/>
                    <rect class="cls-9" x="209.38" y="85.9" width="2.24" height=".38"/>
                  </g>
                  <g>
                    <rect class="cls-37" x="207" y="88.01" width="1.65" height="1.65"/>
                    <rect class="cls-9" x="209.38" y="88.01" width="3.78" height=".38"/>
                    <rect class="cls-9" x="209.38" y="88.65" width="2.24" height=".38"/>
                  </g>
                  <g>
                    <rect class="cls-9" x="207" y="90.76" width="1.65" height="1.65"/>
                    <rect class="cls-9" x="209.38" y="90.76" width="3.78" height=".38"/>
                    <rect class="cls-9" x="209.38" y="91.39" width="2.24" height=".38"/>
                  </g>
                </g>
                <g>
                  <path class="cls-11" d="M202.83,89.37c.42-.88.66-1.87.66-2.91,0-.65-.1-1.28-.27-1.88l-6.57,1.88,6.18,2.91Z"/>
                  <path class="cls-16" d="M189.87,87.33c.43,3.36,3.29,5.96,6.77,5.96,2.73,0,5.08-1.61,6.18-3.93l-6.18-2.91-6.77.87Z"/>
                  <path class="cls-41" d="M195.7,79.7c-3.33.46-5.89,3.31-5.89,6.76,0,.3.03.59.06.87l6.77-.87-.94-6.76Z"/>
                  <path class="cls-31" d="M200.51,80.82c-1.1-.75-2.43-1.2-3.86-1.2-.32,0-.63.03-.94.07l.94,6.76,3.86-5.64Z"/>
                  <path class="cls-38" d="M200.51,80.82l-3.86,5.64,6.57-1.88c-.44-1.55-1.41-2.87-2.71-3.76Z"/>
                </g>
              </g>
            </g>
            <g>
              <rect class="cls-32" x="222.98" y="56.71" width="54.69" height="40.62"/>
              <g>
                <g class="cls-15">
                  <g>
                    <rect class="cls-27" x="225.94" y="88.2" width="47.69" height="4.47"/>
                    <rect class="cls-27" x="225.94" y="79.76" width="47.69" height="4.47"/>
                    <rect class="cls-27" x="225.94" y="70.68" width="47.69" height="4.47"/>
                    <rect class="cls-27" x="225.94" y="61.79" width="47.69" height="4.47"/>
                  </g>
                </g>
                <g>
                  <polygon class="cls-17" points="228.42 92.55 230.42 87.72 233.65 84.91 237.08 77.44 240.11 74.15 243.34 76.99 246.57 84.32 249.85 80.67 253.02 71.05 256.44 67.67 259.33 71.33 262.71 76.99 265.94 83.2 269.17 81.81 271.31 92.66 228.42 92.55"/>
                  <polygon class="cls-41" points="228.42 92.59 230.42 89.57 233.65 87.81 237.08 83.13 240.11 81.07 243.34 82.85 246.57 87.44 249.85 85.16 253.02 79.13 256.44 77.02 259.33 79.31 262.71 82.85 265.94 86.74 269.17 85.87 271.31 92.66 228.42 92.59"/>
                </g>
              </g>
            </g>
            <g>
              <rect class="cls-32" x="118.24" y="101.47" width="99.12" height="62.4"/>
              <g>
                <g>
                  <rect class="cls-14" x="125.67" y="151.86" width="84.79" height="5.57"/>
                  <rect class="cls-14" x="125.67" y="140.71" width="84.79" height="5.57"/>
                  <rect class="cls-14" x="125.67" y="129.57" width="84.79" height="5.57"/>
                  <rect class="cls-14" x="125.67" y="118.42" width="84.79" height="5.57"/>
                  <rect class="cls-14" x="125.67" y="107.28" width="84.79" height="5.57"/>
                </g>
                <g>
                  <g>
                    <g>
                      <rect class="cls-22" x="127.3" y="145.15" width="4.47" height="8.49"/>
                      <rect class="cls-22" x="165.91" y="135.15" width="4.47" height="18.5"/>
                      <rect class="cls-22" x="178.78" y="108.64" width="4.47" height="45.01"/>
                      <rect class="cls-22" x="191.66" y="128.23" width="4.47" height="25.42"/>
                      <rect class="cls-22" x="204.53" y="137.28" width="4.47" height="16.37"/>
                      <rect class="cls-22" x="140.17" y="129.09" width="4.47" height="24.56"/>
                      <rect class="cls-22" x="153.04" y="128.23" width="4.47" height="25.42"/>
                    </g>
                    <rect class="cls-16" x="127.3" y="148.95" width="4.47" height="8.48"/>
                    <rect class="cls-16" x="165.91" y="138.97" width="4.47" height="18.46"/>
                    <rect class="cls-16" x="178.78" y="114.62" width="4.47" height="42.81"/>
                    <rect class="cls-16" x="191.66" y="132.06" width="4.47" height="25.37"/>
                    <rect class="cls-16" x="204.53" y="141.09" width="4.47" height="16.34"/>
                    <rect class="cls-16" x="140.17" y="132.92" width="4.47" height="24.51"/>
                    <rect class="cls-16" x="153.04" y="132.06" width="4.47" height="25.37"/>
                  </g>
                  <polygon class="cls-22" points="181.02 105.4 177.26 109.16 184.78 109.16 181.02 105.4"/>
                </g>
              </g>
            </g>
            <g>
              <rect class="cls-32" x="222.98" y="101.47" width="54.69" height="29.67"/>
              <g>
                <g class="cls-15">
                  <rect class="cls-27" x="229.64" y="112.92" width="43.55" height="4.3"/>
                  <rect class="cls-27" x="229.64" y="107.14" width="43.55" height="4.3"/>
                  <rect class="cls-27" x="229.64" y="118.69" width="43.55" height="4.3"/>
                </g>
                <g>
                  <rect class="cls-27" x="229.64" y="112.92" width="29.94" height="4.3"/>
                  <rect class="cls-31" x="229.64" y="107.14" width="15.34" height="4.3"/>
                  <rect class="cls-41" x="229.64" y="118.69" width="23.79" height="4.3"/>
                </g>
                <polygon class="cls-39" points="273.19 125.72 226.99 125.72 226.99 107.38 227.48 107.38 227.48 125.22 273.19 125.22 273.19 125.72"/>
              </g>
            </g>
            <g>
              <rect class="cls-32" x="222.98" y="135.05" width="54.69" height="28.82"/>
              <g>
                <g class="cls-15">
                  <rect class="cls-27" x="229.64" y="146.07" width="43.55" height="4.3"/>
                  <rect class="cls-27" x="229.64" y="140.3" width="43.55" height="4.3"/>
                  <rect class="cls-27" x="229.64" y="151.85" width="43.55" height="4.3"/>
                </g>
                <g>
                  <rect class="cls-27" x="229.64" y="146.07" width="35.89" height="4.3"/>
                  <rect class="cls-31" x="229.64" y="140.3" width="15.34" height="4.3"/>
                  <rect class="cls-41" x="229.64" y="151.85" width="30.95" height="4.3"/>
                </g>
                <polygon class="cls-39" points="273.19 158.87 226.99 158.87 226.99 140.54 227.48 140.54 227.48 158.38 273.19 158.38 273.19 158.87"/>
              </g>
            </g>
          </g>
          <g>
            <g>
              <g>
                <g>
                  <g>
                    <path class="cls-36" d="M387.82,175.01l-.44,2.08c-.85.44-2.13.24-2.13.24-.94-.14-1.24-.5-1.29-.56l.18-1.11-.17.16h0s-.29.36-.29.36h0s-.02.06-.02.06l-.11.23c-.16.49-.32.72-.52.71-.09,0-.15-.05-.19-.11,0,0,0,0-.01-.01,0,0,0,0,0,0,0,0,0,0,0,0-.04-.06-.05-.14-.04-.22.02-.19.16-.77.16-.77,0,0,0,0,0,0,0,0,0,0,0,0l.53-1.21,1.25-1.89-.56-5.37,3.02-.17.35,4.45.3,3.12Z"/>
                    <path class="cls-36" d="M385.46,180.07v.08c-.03.17.1.32.26.33.17.02.31-.1.33-.27v-.11s.44-3.03.44-3.03h-.72s-.31,2.99-.31,2.99h0Z"/>
                    <path class="cls-36" d="M386.49,179.37c-.02.17.11.31.27.33.17.02.31-.11.33-.27l.02-.19.29-2.31-.78.14-.12,2.16v.14Z"/>
                    <path class="cls-36" d="M384.4,180.43c-.02.17.09.32.25.34.17.02.32-.09.34-.26v-.03s.62-3.44.62-3.44l-.77-.1-.45,3.43v.04Z"/>
                    <path class="cls-36" d="M383.43,179.7l-.04.21c-.03.16.08.32.24.36.16.03.32-.08.36-.24l.02-.1.7-3.01-.72-.25-.55,3.04h0Z"/>
                  </g>
                  <polygon class="cls-12" points="384.14 175.66 385.05 175.24 385.67 174.19 385.08 175.36 384.1 175.83 384.14 175.66"/>
                </g>
                <polygon class="cls-20" points="384.3 170.98 387.6 170.48 387.71 171.75 384.44 172.16 384.3 170.98"/>
                <path class="cls-16" d="M372.07,140.38c.28,1.25,1.01,2.92,1.01,2.92l8.72,13.09,2.32,15.37,3.7-.56-.57-15.18-.6-1.92s-6.57-13.23-9.33-16.64c-.51-.63-1.92-1.32-2.96-.87-1.34.58-2.8,1.52-2.29,3.79Z"/>
              </g>
              <path class="cls-2" d="M378.58,146.11l-.66,4.45.34.52s.37-3.73.32-4.96Z"/>
            </g>
            <g>
              <g>
                <path class="cls-29" d="M390.6,185.83l-74.45-28.88,3.37-8.71,74.45,28.88c.14.06.22.22.16.36l-3.16,8.18c-.06.15-.22.22-.37.16Z"/>
                <g>
                  <path class="cls-41" d="M387.64,186.87l-54.7-21.25c-1.38-.53-2.06-2.08-1.53-3.45l2.91-7.54c.53-1.38,2.08-2.06,3.45-1.53l54.7,21.25c1.38.53,2.06,2.08,1.53,3.45l-2.91,7.54c-.53,1.38-2.08,2.06-3.45,1.53Z"/>
                  <path class="cls-10" d="M392.35,177.97c.51-1.31-.15-2.78-1.46-3.29l-52.58-20.42c-1.31-.51-2.78.15-3.29,1.46l-.25.66,57.33,22.25.26-.66Z"/>
                </g>
              </g>
              <g>
                <g>
                  <path class="cls-24" d="M276.76,109.54c-.84.29-1.67.62-2.49.98-16.38,7.25-23.82,26.48-16.57,42.86,7.25,16.39,26.49,23.81,42.86,16.57,16.38-7.25,23.82-26.48,16.56-42.86-6.88-15.56-24.57-23.04-40.37-17.55Z"/>
                  <path class="cls-23" d="M274.39,102.69c-1.03.36-2.04.76-3.05,1.2-20.04,8.87-29.12,32.38-20.26,52.41,8.87,20.04,32.39,29.11,52.42,20.26,20.04-8.87,29.12-32.38,20.26-52.41-8.42-19.03-30.05-28.18-49.36-21.46ZM300.56,169.95c-16.38,7.24-35.61-.18-42.86-16.57-7.25-16.38.18-35.61,16.57-42.86.82-.37,1.66-.69,2.49-.98,15.79-5.49,33.48,1.99,40.37,17.55,7.25,16.38-.18,35.61-16.56,42.86Z"/>
                </g>
                <path class="cls-18" d="M276.76,109.54c-.84.29-1.67.62-2.49.98-16.38,7.25-23.82,26.48-16.57,42.86,7.25,16.39,26.49,23.81,42.86,16.57,16.38-7.25,23.82-26.48,16.56-42.86-6.88-15.56-24.57-23.04-40.37-17.55Z"/>
                <path class="cls-26" d="M276.07,107.63c-18.01,6.27-27.53,25.94-21.26,43.95,6.27,18.01,25.94,27.53,43.95,21.26,18.01-6.26,27.53-25.94,21.26-43.95-6.26-18.01-25.94-27.53-43.95-21.26ZM300.56,169.95c-16.38,7.24-35.61-.18-42.86-16.57-7.25-16.38.18-35.61,16.57-42.86.82-.37,1.66-.69,2.49-.98,15.79-5.49,33.48,1.99,40.37,17.55,7.25,16.38-.18,35.61-16.56,42.86Z"/>
                <path class="cls-29" d="M276.07,107.63c-18.01,6.27-27.53,25.94-21.26,43.95,6.27,18.01,25.94,27.53,43.95,21.26,18.01-6.26,27.53-25.94,21.26-43.95-6.26-18.01-25.94-27.53-43.95-21.26ZM300.56,169.95c-16.38,7.24-35.61-.18-42.86-16.57-7.25-16.38.18-35.61,16.57-42.86.82-.37,1.66-.69,2.49-.98,15.79-5.49,33.48,1.99,40.37,17.55,7.25,16.38-.18,35.61-16.56,42.86Z"/>
                <path class="cls-30" d="M318.02,129.58c5.88,16.91-3.06,35.38-19.96,41.26-16.91,5.88-35.38-3.06-41.26-19.96-5.88-16.91,3.06-35.38,19.96-41.26,16.91-5.88,35.38,3.06,41.26,19.96Z"/>
                <path class="cls-18" d="M314.77,130.72c5.26,15.11-2.73,31.61-17.84,36.87-15.11,5.26-31.61-2.73-36.87-17.84-5.26-15.11,2.73-31.61,17.84-36.87,15.11-5.26,31.61,2.73,36.87,17.84Z"/>
                <path class="cls-21" d="M288.51,125.52c10.37-.77,19.89,1.53,26.59,5.79-.07-.21-.13-.43-.21-.64-5.28-15.17-21.86-23.2-37.03-17.92-12.13,4.22-19.68,15.66-19.53,27.83,5.06-7.96,16.5-14.04,30.18-15.06Z"/>
              </g>
            </g>
            <g>
              <rect class="cls-34" x="363.97" y="131.34" width="7.51" height="4.69" transform="translate(207.02 490.44) rotate(-85.73)"/>
              <path class="cls-34" d="M363.13,125.8c-.64,2.8-.13,5.09,3.56,5.55,2.43.31,4.46-.77,5.1-3.57.09-.4,1.47-5.45,1.48-5.84l-1.5-1.93-3.34-1.78-3.04.16c-.05.1-1.29.81-1.63,2.6-.32,1.66-.57,4.52-.64,4.81Z"/>
              <path class="cls-11" d="M365.95,127.02l.4-1.92.15-1.12-.49-.23-.93.93-.5-.3c.12-.36-.04-1.19.17-1.98.03-.13-.27-.38-.24-.51.17-.66.37-1.32.5-1.75-.43-.22-.8-.57-1.1-1.4-.61-1.67.06-2.64.67-3.01.31-.19,1.26-.47,3.27.46,2.02.93,2.14-.11,3.36.57,1.91,1.07,3.43,3.98,3.12,6.2-.24,1.68-.92,3.4-1.47,4.23l-1.11,1.99-.95.78-3.51-.24"/>
            </g>
            <g>
              <path class="cls-23" d="M383.72,246.83h.12l.03.61h2.93l-.08-.81h-.1s0,0,0,0l-1.06-2.84h-3.04l-.06.39-1.4,1.03-3.39,1.13s-.35.15-.34.34v.35s.02.21.02.21c0,0,.05.09.42.2h5.1l.31-.41.3-.19h.26Z"/>
              <path class="cls-23" d="M352.91,247.32h.12l.03.61h2.93l-.08-.81h-.1s0,0,0,0l-.67-2.98h-3.04l-.06.39-.74,1.03-4.45,1.27s-.35.15-.34.34v.35s.02.21.02.21c0,0,.05.09.42.2h5.1l.31-.41.3-.19h.26Z"/>
              <g>
                <polygon class="cls-40" points="353.54 249.3 353.4 249.31 353.4 249.3 353.54 249.3"/>
                <polygon class="cls-11" points="381.32 244.48 386.16 243.71 377.75 209.14 376.04 183.38 376.21 179.88 375.02 176.84 375.06 175.16 363.83 175.16 364.12 178.31 370.43 210.49 381.32 244.48"/>
                <polygon class="cls-11" points="351.06 244.49 356 244.73 360.94 210.34 366.4 177.42 366.4 175.16 355.44 175.16 354.97 178.89 353.54 209.55 351.06 244.49"/>
              </g>
            </g>
            <g>
              <path class="cls-16" d="M353.02,177.98s3.38-13.86,3.45-18.39c.05-3.2-.43-6.2-.44-10.39-.02-6.51,1.09-9.52,2.09-13.04.63-2.21,2.82-1.93,3.89-1.9.85.03,2.64.21,2.64.21l7.61.41c5.99.97,7.26,4.53,6.07,13.36l-2.12,11.81.95,18.27s-2.54,1.84-12.08.84c-3.33-.35-12.07-1.2-12.07-1.2Z"/>
              <polygon class="cls-20" points="370.24 133.96 365.14 133.69 364.76 134.53 370.51 134.84 370.24 133.96"/>
            </g>
            <g>
              <g>
                <path class="cls-36" d="M336.33,164.62l1.82.14,2.73-2.55,2.41,2.08-4.33,3.41-1.77.47-2.63-.31c-1.01-.57-2.19-2-2.19-2v-.53s1.73.76,1.73.76l2.13-.16.27-.22-.84-.44-.8-.03-.27-.38.08-.17,1.67-.06Z"/>
                <g>
                  <polygon class="cls-20" points="339.45 163.19 338.46 164.06 341.24 166.74 342.3 165.77 339.45 163.19"/>
                  <path class="cls-16" d="M358.08,135.73c-.78,1.02-1.59,2.65-1.59,2.65l-9.71,17.05-8.04,8.11,3.34,2.77,8.37-6.5.73-.7s11.66-16.93,12.51-21.23c.16-.79-.22-2.32-1.23-2.83-1.3-.65-2.96-1.17-4.38.68Z"/>
                </g>
              </g>
              <path class="cls-2" d="M359.59,146.11l-3.5,5.61.07,1.21s3.19-5.95,3.43-6.81Z"/>
            </g>
          </g>
        </g>
      </g>
    </g>
  </g>
</svg>