<?xml version="1.0" encoding="UTF-8"?>
<svg xmlns="http://www.w3.org/2000/svg" xmlns:xlink="http://www.w3.org/1999/xlink" version="1.1" viewBox="0 0 221.7 55.4">
  <defs>
    <style>
      .cls-1 {
        fill: url(#_名称未設定グラデーション_11-6);
      }

      .cls-2 {
        fill: url(#_名称未設定グラデーション_11-3);
      }

      .cls-3 {
        fill: url(#_名称未設定グラデーション_11-8);
      }

      .cls-4 {
        fill: url(#_名称未設定グラデーション_11-5);
      }

      .cls-5 {
        fill: url(#_名称未設定グラデーション_11-7);
      }

      .cls-6 {
        fill: url(#_名称未設定グラデーション_11-9);
      }

      .cls-7 {
        fill: url(#_名称未設定グラデーション_11-2);
      }

      .cls-8 {
        fill: url(#_名称未設定グラデーション_11-4);
      }

      .cls-9 {
        fill: url(#_名称未設定グラデーション_11-10);
      }

      .cls-10 {
        fill: #3758f9;
      }

      .cls-11 {
        fill: url(#_名称未設定グラデーション_11);
      }
    </style>
    <linearGradient id="_名称未設定グラデーション_11" data-name="名称未設定グラデーション 11" x1="23.1" y1="38.8" x2="215" y2="38.8" gradientUnits="userSpaceOnUse">
      <stop offset="0" stop-color="#3758f9"/>
      <stop offset="1" stop-color="#cc52a9"/>
    </linearGradient>
    <linearGradient id="_名称未設定グラデーション_11-2" data-name="名称未設定グラデーション 11" x1="23.1" y1="39.1" x2="215" y2="39.1" xlink:href="#_名称未設定グラデーション_11"/>
    <linearGradient id="_名称未設定グラデーション_11-3" data-name="名称未設定グラデーション 11" x1="23.1" y1="39.5" x2="215" y2="39.5" xlink:href="#_名称未設定グラデーション_11"/>
    <linearGradient id="_名称未設定グラデーション_11-4" data-name="名称未設定グラデーション 11" x1="23.1" y1="39.1" x2="215" y2="39.1" xlink:href="#_名称未設定グラデーション_11"/>
    <linearGradient id="_名称未設定グラデーション_11-5" data-name="名称未設定グラデーション 11" x1="23.1" y1="39.1" x2="215" y2="39.1" xlink:href="#_名称未設定グラデーション_11"/>
    <linearGradient id="_名称未設定グラデーション_11-6" data-name="名称未設定グラデーション 11" x1="23.1" y1="39.5" x2="215" y2="39.5" xlink:href="#_名称未設定グラデーション_11"/>
    <linearGradient id="_名称未設定グラデーション_11-7" data-name="名称未設定グラデーション 11" x1="23.1" y1="40.5" x2="215" y2="40.5" xlink:href="#_名称未設定グラデーション_11"/>
    <linearGradient id="_名称未設定グラデーション_11-8" data-name="名称未設定グラデーション 11" x1="23.1" y1="31.5" x2="215" y2="31.5" xlink:href="#_名称未設定グラデーション_11"/>
    <linearGradient id="_名称未設定グラデーション_11-9" data-name="名称未設定グラデーション 11" x1="23.1" y1="28.9" x2="215" y2="28.9" xlink:href="#_名称未設定グラデーション_11"/>
    <linearGradient id="_名称未設定グラデーション_11-10" data-name="名称未設定グラデーション 11" x1="23.1" y1="28.8" x2="215" y2="28.8" xlink:href="#_名称未設定グラデーション_11"/>
  </defs>
  <!-- Generator: Adobe Illustrator 28.7.10, SVG Export Plug-In . SVG Version: 1.2.0 Build 236)  -->
  <g>
    <g id="_レイヤー_1" data-name="レイヤー_1">
      <g>
        <g>
          <g>
            <path class="cls-11" d="M15.3,52.6l7.1-16.5h-8.9l-4,7.2H0l8.7-17.7h9.6l-1.2,2.7h11.8l1.6-3.2h2.7l-1.6,3.2h1.2l1.6-3.2h2.7l-1.5,3.2-10.5,24.3h-9.6Z"/>
            <path class="cls-7" d="M67.1,25.6l-11.9,26.9h-28c0,.1,12-26.9,12-26.9h27.9ZM49,44.7l5-11.3h-8.8l-5,11.3h8.8Z"/>
            <path class="cls-2" d="M61.3,43.4l3.5-7.8h27.9l-3.5,7.8h-27.9Z"/>
            <path class="cls-8" d="M99.1,25.6h9.6l-7.6,17.1,20.1-4-3.5,7.8-30.6,6.1,11.9-27Z"/>
            <path class="cls-4" d="M117.4,52.6l5.9-13.3h7.8l-5.9,13.3h-7.8ZM155.1,26.6c.6.7.7,1.5.6,2.4l-3.5,7.8h-9.1l-6.9,15.7h-9.6l6.9-15.7h-9.2l3.5-7.8h9.2l1.5-3.4h9.6l-1.5,3.4h2.2c.2-1,.7-1.8,1.5-2.4.8-.7,1.7-1,2.6-1s1.7.3,2.3,1ZM145.2,52.6h-7.8l5.9-13.3h7.8l-5.9,13.3ZM153.4,28c-.2-.3-.6-.4-1-.4s-.8.1-1.1.4-.5.6-.6,1h3c0-.4,0-.7-.3-1Z"/>
            <path class="cls-1" d="M151.3,43.4l3.5-7.8h27.9l-3.5,7.8h-27.9Z"/>
            <path class="cls-5" d="M200.3,44h-8.9l-1.3,2.6h-9.6l9.3-21h9.6l-1.2,2.7h18.4l-11.7,27.1h-9.6l5-11.4ZM193.7,38.1h8.9l1-2h-8.8l-1.1,2Z"/>
          </g>
          <path class="cls-3" d="M214.1,28.3h7.6s-5.3.8-7.9,6.5l.3-6.5Z"/>
          <path class="cls-6" d="M106.1,25.6h7.6s-5.3.8-7.9,6.5l.3-6.5Z"/>
          <path class="cls-9" d="M64.5,25.6h7.6s-5.3.8-7.9,6.5l.3-6.5Z"/>
        </g>
        <g>
          <path class="cls-10" d="M11.3,7.6c-.6.5-1.4,1-2.3,1.6-.9.6-1.8,1-2.5,1.3l-.6-1.5c.6-.2,1.5-.6,2.6-1.2,1.1-.6,2-1.1,2.6-1.6l.3,1.4ZM11.2,3c-.5.3-.9.7-1.3,1.3-.3-.3-.6-.7-1.1-1.2s-.9-.8-1.2-1l1.2-1.2c.3.2.8.5,1.3,1,.5.4.8.8,1.1,1.1ZM18.5,11.2c-.4.3-.8.8-1.2,1.4-2-1-3.2-2.3-3.6-4.1-1.1,1.7-2.8,3.1-5.1,4.1-.2-.6-.5-1.1-.7-1.4,1.5-.5,2.7-1.3,3.7-2.3,1-1,1.6-2.1,1.8-3.3l.2-1.3h1.6l-.2,1.3c-.2,1.2,0,2.3.6,3.3.6,1,1.6,1.7,2.9,2.2ZM19.6,2.8c-.8,1.5-1.7,2.9-2.7,4.1-.4-.3-.9-.5-1.3-.6.5-.6,1.1-1.4,1.7-2.4h-4c-.7.8-1.3,1.5-2,2.1-.4-.4-.8-.7-1.2-.9.7-.6,1.5-1.4,2.3-2.4.7-1,1.3-1.8,1.6-2.7l1.5.5c-.3.6-.7,1.3-1.1,1.9h4.6l.7.5Z"/>
          <path class="cls-10" d="M33.7,6.9c-.3,1.3-.9,2.3-1.9,3.2-1,.9-2.2,1.4-3.6,1.8,0-.2,0-.5-.2-.8-.1-.3-.3-.6-.4-.8,1.3-.2,2.3-.6,3.1-1.2.8-.6,1.2-1.4,1.4-2.2.2-1,0-1.8-.4-2.5-.5-.7-1.2-1.1-2.1-1.2-.4,1.4-.9,2.7-1.5,3.9-.7,1.4-1.4,2.4-2.3,3.2-.5.5-1,.7-1.5.7s-.5,0-.8-.2c-.5-.2-.9-.7-1.2-1.4-.2-.7-.3-1.4,0-2.3.4-1.7,1.3-3,2.7-4.1,1.4-1.1,3-1.6,4.7-1.5,1.4,0,2.5.6,3.3,1.6.8,1,1.1,2.3.7,3.8ZM27.9,3.1c-1,.2-1.9.7-2.6,1.4s-1.2,1.6-1.4,2.6c-.2.9,0,1.5.4,1.8,0,0,.2.1.3.1s.2,0,.4-.2c.6-.5,1.2-1.3,1.7-2.4.6-1.1,1-2.2,1.3-3.4Z"/>
          <path class="cls-10" d="M42.9,7.1c-.2.1-.8.3-1.8.7l-.6,3.5c-.2.9-.8,1.4-1.9,1.4h-1c0-.7,0-1.3,0-1.6h.9c.3,0,.5-.1.6-.4l.4-2.3c-1,.3-1.6.5-1.9.6v-1.7c.4-.1,1.1-.3,2.2-.6l.4-2.5h-2.1l.3-1.5h2.1l.4-2.5h1.6l-.4,2.5h1.5l-.3,1.5h-1.5l-.4,2c.9-.3,1.5-.5,1.7-.6l-.3,1.5ZM50.9,2.7h-2.4l-1.5,8.6c-.2.9-.8,1.4-2,1.4h-1.4c0-.8,0-1.3,0-1.7h1.3c.3,0,.5-.1.6-.4l1.4-7.8h-3.1l.3-1.5h7.1l-.3,1.5Z"/>
          <path class="cls-10" d="M63.9,8.8c-.2,1.2-.9,2.2-2,2.8-1.1.6-2.7.9-4.6.9,0-.7-.1-1.2-.4-1.7.4,0,.8,0,1.1,0,1.2,0,2.2-.2,2.9-.5.7-.4,1.2-.9,1.3-1.5,0-.4,0-.7-.3-1-.3-.2-.7-.4-1.2-.4-1.4,0-2.7.5-3.8,1.5,0,0-.2.2-.3.3l-1.2-1c1-.8,1.8-2.2,2.6-4.1-1.3,0-2.4,0-3.3,0l.2-1.6c.8.1,2,.1,3.6,0,.3-.9.4-1.7.5-2.4h1.7c-.1.7-.3,1.4-.6,2.3,2.3-.2,3.8-.4,4.8-.6l-.4,1.6c-1.1.2-2.8.4-4.9.6-.4.9-.7,1.7-1.2,2.5.9-.4,1.7-.7,2.5-.7s1.8.3,2.3.8c.5.5.7,1.2.6,2.1Z"/>
          <path class="cls-10" d="M81,8.4h-5.3l-.5,2.8c-.2,1-.9,1.5-2,1.5h-1.5c0-.7,0-1.3,0-1.7h1.3c.4,0,.6-.2.6-.5l.4-2.1h-5.6l.3-1.6h5.6l.2-1.3h-4.5l.3-1.5h4.5l.2-1.4c-1.4.1-2.9.2-4.5.2,0-.6,0-1.2-.1-1.5.4,0,.8,0,1.2,0,1.5,0,3.1,0,4.6-.3,1.7-.2,3-.5,4-.8l.8,1.4c-1.1.4-2.5.6-4.2.9l-.3,1.6h4.2l-.3,1.5h-4.2l-.2,1.3h5.3l-.3,1.6Z"/>
          <path class="cls-10" d="M91.8,8c-.5,1.5-1.1,2.5-1.6,3-.5.5-1.2.8-2,.8s-1-.1-1.4-.3c.1-.7.2-1.2.2-1.6.4.2.9.3,1.3.3s.6-.2.9-.5c.3-.4.6-1.1,1-2.1.2-.6.3-1,.4-1.3.1-.6-.1-1-.6-1s-.6,0-.9,0c-1.5,2.9-3,5.1-4.4,6.6-.1-.1-.3-.3-.6-.5-.3-.2-.5-.3-.7-.4,1.3-1.2,2.7-3.1,4-5.6-1.1.1-2,.3-2.5.4,0-.6,0-1.1,0-1.5.7,0,1.7-.2,3.3-.3.6-1.2,1-2.3,1.2-3.3l1.6.3c-.2.8-.6,1.8-1.1,2.8.4,0,.7,0,.9,0,1.3,0,1.9.8,1.6,2.2,0,.5-.2,1-.5,1.7ZM96.9,7.3l-1.5,1.1c-.2-.5-.6-1.1-1.1-1.9-.5-.8-1-1.3-1.4-1.6l1.4-1c.4.3.9.9,1.4,1.6.6.7.9,1.3,1.2,1.8ZM96.6,3.3l-.7.8c-.4-.5-1-.9-1.6-1.3l.7-.8c.6.3,1.2.7,1.7,1.2ZM97.8,1.9l-.7.8c-.4-.5-1-.9-1.7-1.2l.7-.8c.6.3,1.2.7,1.7,1.2Z"/>
          <path class="cls-10" d="M111.8,9.9c-.4,1.1-.7,1.8-1,2.1-.3.3-.9.5-1.6.5h-2.4c-.6,0-1,0-1.2-.3-.2-.2-.3-.5-.2-.9l.6-3.2h-1c-.3,1.2-1,2.2-1.9,2.9-1,.8-2.4,1.4-4.1,1.7,0-.6-.3-1.1-.5-1.5,1.2,0,2.2-.4,3.1-1,.9-.6,1.5-1.3,1.8-2.1h-2.1l1.4-7.8h8.5l-1.4,7.8h-2l-.4,2.3c0,.3.1.4.4.4h1.3c.4,0,.6-.1.8-.3.2-.2.3-.6.5-1.3.3.2.8.4,1.5.6ZM108.1,6.8l.2-.9h-5l-.2.9h5ZM108.5,4.8l.2-.9h-5l-.2.9h5ZM108.9,2.7l.2-.9h-5l-.2.9h5Z"/>
          <path class="cls-10" d="M126.2,10.4c-.2.4-.4,1-.4,1.7-.9.1-1.7.2-2.7.2s-1.4-.2-1.7-.5c-.3-.3-.3-1-.1-1.9.1-.6.2-1,.2-1.2,0-.2,0-.4-.2-.4,0,0-.2,0-.3,0-.2,0-.4.1-.6.3-1.7,1.7-3,2.9-3.8,3.7l-1.2-1c.6-.5,1.6-1.4,3.1-2.7,1.4-1.3,2.4-2.3,3.1-3.1-1.5.3-2.8.4-4.1.5v-1.5c.6,0,1.6,0,2.9-.2,1.4-.2,2.4-.3,3.1-.5l1,1c-.2.1-1.1,1-2.7,2.5,0,0,.1,0,.2,0,.3,0,.5,0,.7.2.2.1.3.3.3.6,0,.3,0,.7-.1,1.3-.1.7-.1,1.1,0,1.3,0,.2.3.2.8.2.9,0,1.8,0,2.5-.3ZM124.4,1.6l-.8,1.5c-.4-.1-1-.3-1.8-.6-.8-.3-1.4-.6-1.7-.7l1-1.4c.2.2.7.4,1.5.7.8.3,1.3.5,1.8.6Z"/>
          <path class="cls-10" d="M139.6,8.4c-.2,1.1-.7,1.9-1.6,2.6-.9.7-2,1.1-3.2,1.1s-1.8-.2-2.3-.6c-.5-.4-.6-.9-.5-1.5.1-.6.4-1,.9-1.4.4-.3,1-.5,1.5-.5s1.2.2,1.5.6c.3.4.5.9.5,1.6.8-.4,1.3-1,1.5-1.9.1-.6,0-1.1-.4-1.4-.3-.4-.8-.6-1.5-.6-1.2,0-2.2.3-3,.9-.6.5-1.2.9-1.6,1.2l-.9-1.2c.9-.5,1.9-1.2,3.1-2.1s2.2-1.9,3-2.8c-1.5.3-2.8.5-3.8.6v-1.6c.6,0,1.5,0,2.8-.2,1.3-.2,2.1-.3,2.5-.5l1.1.8c-.8,1.1-2,2.4-3.7,3.9.4-.2.8-.2,1.1-.2,1.1,0,1.9.3,2.4.9.5.6.7,1.4.6,2.4ZM134.9,10.6c0-.8-.2-1.2-.8-1.2s-.5.1-.6.4c0,.5.4.7,1.4.7Z"/>
          <path class="cls-10" d="M147.7,10.5c-.1.6-.4,1.1-.8,1.4-.5.4-1,.6-1.5.6s-1-.2-1.3-.6c-.3-.4-.4-.9-.3-1.4,0-.6.4-1,.8-1.4s1-.6,1.5-.6,1,.2,1.3.6c.3.4.4.9.3,1.4ZM146.9,10.5c0-.3,0-.6-.2-.9-.2-.2-.5-.4-.8-.4s-.7.1-.9.4c-.3.2-.5.5-.5.9,0,.3,0,.6.2.9.2.2.5.4.8.4s.7-.1.9-.4c.3-.2.5-.5.5-.9Z"/>
        </g>
      </g>
    </g>
  </g>
</svg>