<svg width="1182" height="338" viewBox="0 0 1182 338" fill="none" xmlns="http://www.w3.org/2000/svg">
<g clip-path="url(#clip0_52608_980)">
<path d="M109.53 228.47C85.63 204.57 79.14 169.88 90.02 140.1C79.56 127 70.34 112.86 62.54 97.87L6.07 154.34C-2.03 162.44 -2.03 175.57 6.07 183.67L154.33 331.93C158.38 335.98 163.69 338 168.99 338C174.29 338 179.6 335.98 183.65 331.93L278.19 237.39C260.75 236.42 243.76 233.72 227.4 229.47C194.48 261.29 142.01 260.97 109.52 228.47H109.53Z" fill="#3056D3"/>
<path d="M109.53 109.53C142.37 76.69 195.62 76.69 228.47 109.53L245.46 126.52C253.56 134.62 266.69 134.62 274.79 126.52C282.89 118.42 282.89 105.29 274.79 97.19L183.66 6.07C179.77 2.18 174.5 0 169 0C163.5 0 158.23 2.18 154.34 6.07L62.55 97.86C70.35 112.85 79.57 126.99 90.03 140.09C94.1 128.94 100.59 118.47 109.54 109.53H109.53Z" fill="#98AAE9"/>
<path d="M335.07 158.37C331.28 151.98 324.2 148.26 316.77 148.26H169C157.3 148.26 147.86 157.96 148.28 169.75C148.68 180.99 158.26 189.73 169.5 189.73H267.2L228.47 228.46C228.13 228.8 227.77 229.12 227.42 229.46C243.78 233.71 260.76 236.4 278.21 237.38L331.93 183.66C338.56 177.03 340 166.66 335.08 158.37H335.07Z" fill="#98AAE9"/>
</g>
<path d="M451.348 33.508C471.544 33.508 489.232 46.18 491.08 66.772H471.28C468.772 56.212 461.38 50.932 451.348 50.932C434.188 50.932 425.74 64.792 425.74 83.272C425.74 99.772 433.264 114.82 451.348 114.82C464.548 114.82 472.468 108.088 473.788 94.492H452.932V79.048H492.532V130H479.332L477.22 119.308C470.356 128.152 461.38 132.244 451.348 132.244C422.572 132.244 405.016 110.728 405.016 83.272C405.016 55.288 422.176 33.508 451.348 33.508ZM517.188 35.752H568.008C584.64 35.752 595.596 47.236 595.596 61.756C595.596 73.636 590.58 81.424 580.68 85.384V85.648C593.88 89.344 594.276 103.864 594.672 112.708C595.068 121.684 595.992 126.7 598.368 130H577.644C576.06 126.04 575.532 120.364 575.004 113.632C573.948 100.432 571.836 93.172 558.768 93.172H537.912V130H517.188V35.752ZM537.912 78.388H560.748C569.46 78.388 574.872 74.824 574.872 64.924C574.872 55.552 569.724 51.856 560.616 51.856H537.912V78.388ZM662.61 33.508C691.122 33.508 708.942 54.76 708.942 83.272C708.942 110.728 691.386 132.244 662.61 132.244C633.834 132.244 616.278 110.728 616.278 83.272C616.278 55.288 633.702 33.508 662.61 33.508ZM637.002 83.272C637.002 100.828 645.318 114.82 662.61 114.82C680.166 114.82 688.218 100.432 688.218 83.272C688.218 65.188 680.166 50.932 662.478 50.932C645.186 50.932 637.002 65.056 637.002 83.272ZM722.316 35.752H743.04L757.956 99.904H758.22L774.588 35.752H793.992L810.096 100.696H810.36L825.804 35.752H846.132L820.788 130H800.196L784.224 65.848H783.96L768.252 130H747.264L722.316 35.752ZM409.108 170.752H459.928C476.56 170.752 487.516 182.236 487.516 196.756C487.516 208.636 482.5 216.424 472.6 220.384V220.648C485.8 224.344 486.196 238.864 486.592 247.708C486.988 256.684 487.912 261.7 490.288 265H469.564C467.98 261.04 467.452 255.364 466.924 248.632C465.868 235.432 463.756 228.172 450.688 228.172H429.832V265H409.108V170.752ZM429.832 213.388H452.668C461.38 213.388 466.792 209.824 466.792 199.924C466.792 190.552 461.644 186.856 452.536 186.856H429.832V213.388ZM512.29 170.752H582.778V188.176H533.014V208.372H578.686V224.476H533.014V247.576H583.834V265H512.29V170.752ZM605.803 170.752H648.439C670.483 170.752 680.911 184.216 680.911 200.98C680.911 218.008 670.219 231.208 648.571 231.208H626.527V265H605.803V170.752ZM626.527 215.104H643.027C654.907 215.104 660.847 211.012 660.847 200.98C660.847 191.344 655.303 186.856 643.159 186.856H626.527V215.104ZM744.006 168.508C772.518 168.508 790.338 189.76 790.338 218.272C790.338 245.728 772.782 267.244 744.006 267.244C715.23 267.244 697.674 245.728 697.674 218.272C697.674 190.288 715.098 168.508 744.006 168.508ZM718.398 218.272C718.398 235.828 726.714 249.82 744.006 249.82C761.562 249.82 769.614 235.432 769.614 218.272C769.614 200.188 761.562 185.932 743.874 185.932C726.582 185.932 718.398 200.056 718.398 218.272ZM812.425 170.752H863.245C879.877 170.752 890.833 182.236 890.833 196.756C890.833 208.636 885.817 216.424 875.917 220.384V220.648C889.117 224.344 889.513 238.864 889.909 247.708C890.305 256.684 891.229 261.7 893.605 265H872.881C871.297 261.04 870.769 255.364 870.241 248.632C869.185 235.432 867.073 228.172 854.005 228.172H833.149V265H812.425V170.752ZM833.149 213.388H855.985C864.697 213.388 870.109 209.824 870.109 199.924C870.109 190.552 864.961 186.856 855.853 186.856H833.149V213.388ZM905.894 170.752H983.114V188.176H954.866V265H934.142V188.176H905.894V170.752ZM1001.9 170.752H1072.39V188.176H1022.63V208.372H1068.3V224.476H1022.63V247.576H1073.45V265H1001.9V170.752ZM1095.42 170.752H1146.24C1162.87 170.752 1173.82 182.236 1173.82 196.756C1173.82 208.636 1168.81 216.424 1158.91 220.384V220.648C1172.11 224.344 1172.5 238.864 1172.9 247.708C1173.3 256.684 1174.22 261.7 1176.6 265H1155.87C1154.29 261.04 1153.76 255.364 1153.23 248.632C1152.18 235.432 1150.06 228.172 1137 228.172H1116.14V265H1095.42V170.752ZM1116.14 213.388H1138.98C1147.69 213.388 1153.1 209.824 1153.1 199.924C1153.1 190.552 1147.95 186.856 1138.84 186.856H1116.14V213.388Z" fill="#3859A7"/>
<defs>
<clipPath id="clip0_52608_980">
<rect width="338" height="338" fill="white"/>
</clipPath>
</defs>
</svg>
