<svg width="173" height="37" viewBox="0 0 173 37" fill="none" xmlns="http://www.w3.org/2000/svg">
<g clip-path="url(#clip0_11228_3063)">
<path fill-rule="evenodd" clip-rule="evenodd" d="M18.6147 0.5C28.5559 0.5 36.6147 8.55887 36.6147 18.5C36.6147 28.4411 28.5559 36.5 18.6147 36.5C8.67362 36.5 0.614746 28.4411 0.614746 18.5C0.614746 8.55887 8.67362 0.5 18.6147 0.5ZM19.3618 26.5352C19.2067 26.5353 19.0806 26.6612 19.0806 26.8164V29.4688C19.0806 29.6239 19.2067 29.7498 19.3618 29.75H22.0161C22.1715 29.75 22.2973 29.624 22.2974 29.4688V26.8164C22.2974 26.6611 22.1715 26.5352 22.0161 26.5352H19.3618ZM22.9351 26.5352C22.7798 26.5353 22.6538 26.6612 22.6538 26.8164V29.4688C22.6539 29.6239 22.7798 29.7498 22.9351 29.75H25.5894C25.7446 29.75 25.8705 29.624 25.8706 29.4688V26.8164C25.8706 26.6611 25.7447 26.5352 25.5894 26.5352H22.9351ZM26.5073 26.5352C26.352 26.5352 26.2261 26.6611 26.2261 26.8164V29.4688C26.2262 29.624 26.3521 29.75 26.5073 29.75H29.1616C29.3167 29.7498 29.4428 29.6239 29.4429 29.4688V26.8164C29.4429 26.6612 29.3167 26.5354 29.1616 26.5352H26.5073ZM18.9009 7.25C12.6959 7.2502 7.646 12.2968 7.646 18.5C7.646 24.5475 12.4446 29.4967 18.436 29.7422C18.5928 29.7483 18.7222 29.6207 18.7222 29.4639V23.2314C18.7221 23.0806 18.6026 22.9576 18.4526 22.9424C16.1998 22.7161 14.4351 20.8097 14.4351 18.5C14.4351 16.0392 16.4384 14.0355 18.9028 14.0371C19.9439 14.0371 20.932 14.3913 21.728 15.043C21.8448 15.1384 22.016 15.135 22.1226 15.0283L26.5308 10.6211C26.6414 10.5101 26.6402 10.329 26.5249 10.2227C24.4426 8.30277 21.7512 7.25 18.9009 7.25ZM19.3618 22.9648C19.2067 22.965 19.0806 23.091 19.0806 23.2461V25.8984C19.0806 26.0536 19.2067 26.1795 19.3618 26.1797H22.0161C22.1715 26.1797 22.2974 26.0537 22.2974 25.8984V23.2461C22.2973 23.0908 22.1715 22.9648 22.0161 22.9648H19.3618ZM22.9351 22.9648C22.7798 22.965 22.6539 23.0909 22.6538 23.2461V25.8984C22.6538 26.0536 22.7798 26.1795 22.9351 26.1797H25.5894C25.7447 26.1797 25.8706 26.0537 25.8706 25.8984V23.2461C25.8705 23.0908 25.7446 22.9648 25.5894 22.9648H22.9351ZM26.5073 22.9648C26.3521 22.9648 26.2261 23.0908 26.2261 23.2461V25.8984C26.2261 26.0537 26.352 26.1797 26.5073 26.1797H29.1616C29.3167 26.1795 29.4429 26.0536 29.4429 25.8984V23.2461C29.4428 23.091 29.3167 22.965 29.1616 22.9648H26.5073ZM22.9351 19.3926C22.7799 19.3927 22.654 19.5188 22.6538 19.6738V22.3271C22.6541 22.4822 22.7799 22.6082 22.9351 22.6084H25.5894C25.7445 22.6084 25.8704 22.4823 25.8706 22.3271V19.6738C25.8704 19.5187 25.7445 19.3926 25.5894 19.3926H22.9351ZM26.5073 19.3926C26.3521 19.3926 26.2263 19.5187 26.2261 19.6738V22.3271C26.2263 22.4823 26.3522 22.6084 26.5073 22.6084H29.1616C29.3166 22.6082 29.4426 22.4822 29.4429 22.3271V19.6738C29.4427 19.5188 29.3166 19.3928 29.1616 19.3926H26.5073Z" fill="white"/>
<path d="M57.5566 10.625H60.3916V26.879C60.3916 27.9185 60.1497 28.8845 59.6659 29.777C59.1934 30.68 58.5522 31.4622 57.7422 32.1238C56.9322 32.7957 56.0097 33.3155 54.9747 33.683C53.9397 34.061 52.8597 34.25 51.7347 34.25C50.5647 34.25 49.4341 34.0033 48.3428 33.5098C47.2516 33.0268 46.2953 32.3757 45.4741 31.5567C44.6641 30.7482 44.0791 29.84 43.7191 28.832L46.3178 27.7295C46.5316 28.454 46.9141 29.105 47.4653 29.6825C48.0278 30.2705 48.6803 30.7325 49.4228 31.0685C50.1766 31.415 50.9472 31.5882 51.7347 31.5882C52.4772 31.5882 53.1916 31.4675 53.8778 31.226C54.5753 30.9845 55.1997 30.6485 55.7509 30.218C56.3134 29.798 56.7522 29.2993 57.0672 28.7218C57.3934 28.1548 57.5566 27.5405 57.5566 26.879V23.7447C56.9828 24.6477 56.2234 25.3827 55.2784 25.9497C54.3447 26.5063 53.2534 26.7845 52.0047 26.7845C50.8122 26.7845 49.6928 26.5693 48.6466 26.1388C47.6003 25.7083 46.6834 25.115 45.8959 24.359C45.1084 23.5925 44.4897 22.7105 44.0397 21.713C43.5897 20.7155 43.3647 19.6445 43.3647 18.5C43.3647 17.3555 43.5897 16.2845 44.0397 15.287C44.4897 14.279 45.1084 13.397 45.8959 12.641C46.6834 11.8745 47.6003 11.276 48.6466 10.8455C49.6928 10.415 50.8122 10.1997 52.0047 10.1997C53.2534 10.1997 54.3447 10.478 55.2784 11.0345C56.2234 11.591 56.9828 12.326 57.5566 13.2395V10.625ZM52.0216 24.2173C53.1128 24.2173 54.0578 23.9548 54.8566 23.4298C55.6666 22.9048 56.2909 22.2065 56.7297 21.335C57.1684 20.4635 57.3878 19.5185 57.3878 18.5C57.3878 17.45 57.1628 16.4945 56.7128 15.6335C56.2741 14.762 55.6497 14.069 54.8397 13.5545C54.0409 13.0295 53.1016 12.767 52.0216 12.767C50.9641 12.767 49.9966 13.0243 49.1191 13.5388C48.2416 14.0533 47.5441 14.7463 47.0266 15.6178C46.5203 16.4788 46.2672 17.4395 46.2672 18.5C46.2672 19.5605 46.5259 20.5265 47.0435 21.398C47.5722 22.259 48.2697 22.9468 49.1359 23.4613C50.0134 23.9653 50.9753 24.2173 52.0216 24.2173Z" fill="white"/>
<path d="M63.0991 26.375V10.625H65.9341V12.5938C66.5304 11.8588 67.2841 11.276 68.1954 10.8455C69.1066 10.4045 70.0966 10.184 71.1654 10.184C71.8179 10.184 72.4479 10.2627 73.0554 10.4202L71.9079 13.0663C71.4466 12.9298 70.9966 12.8615 70.5579 12.8615C69.7141 12.8615 68.9379 13.0558 68.2291 13.4443C67.5316 13.8223 66.9747 14.3368 66.5585 14.9878C66.1422 15.6388 65.9341 16.3633 65.9341 17.1613V26.375H63.0991Z" fill="white"/>
<path d="M86.4897 10.625H89.3247V26.375H86.4897L86.3716 23.7133C85.8428 24.6268 85.1116 25.367 84.1778 25.934C83.2553 26.501 82.1528 26.7845 80.8703 26.7845C79.6328 26.7845 78.4741 26.5693 77.3941 26.1388C76.3141 25.6978 75.3578 25.094 74.5253 24.3275C73.7041 23.5505 73.0628 22.658 72.6016 21.65C72.1403 20.642 71.9097 19.5553 71.9097 18.3898C71.9097 17.2663 72.1347 16.2058 72.5847 15.2083C73.0347 14.2108 73.6591 13.3393 74.4578 12.5938C75.2678 11.8378 76.2016 11.2498 77.2591 10.8298C78.3166 10.3992 79.4528 10.184 80.6678 10.184C81.9953 10.184 83.1597 10.478 84.161 11.066C85.1622 11.6435 85.9722 12.3943 86.591 13.3183L86.4897 10.625ZM80.8197 24.2173C81.9335 24.2173 82.8953 23.9653 83.7053 23.4613C84.5266 22.9468 85.1566 22.2538 85.5953 21.3823C86.0453 20.5108 86.2703 19.55 86.2703 18.5C86.2703 17.429 86.0453 16.463 85.5953 15.602C85.1453 14.7305 84.5097 14.0428 83.6885 13.5388C82.8785 13.0243 81.9222 12.767 80.8197 12.767C79.706 12.767 78.6935 13.0243 77.7822 13.5388C76.871 14.0533 76.1453 14.7463 75.6053 15.6178C75.0766 16.4788 74.8122 17.4395 74.8122 18.5C74.8122 19.5605 75.0878 20.5265 75.6391 21.398C76.1903 22.259 76.9216 22.9468 77.8328 23.4613C78.7441 23.9653 79.7397 24.2173 80.8197 24.2173Z" fill="white"/>
<path d="M102.379 10.625H105.383L96.1525 34.25H93.1487L96.2031 26.375L90.145 10.625H93.25L97.6206 22.7367L102.379 10.625Z" fill="white"/>
<path d="M119.723 10.625H122.558V26.879C122.558 27.9185 122.316 28.8845 121.832 29.777C121.36 30.68 120.718 31.4622 119.908 32.1238C119.098 32.7957 118.176 33.3155 117.141 33.683C116.106 34.061 115.026 34.25 113.901 34.25C112.731 34.25 111.6 34.0033 110.509 33.5098C109.418 33.0268 108.462 32.3757 107.64 31.5567C106.83 30.7482 106.245 29.84 105.885 28.832L108.484 27.7295C108.698 28.454 109.08 29.105 109.632 29.6825C110.194 30.2705 110.847 30.7325 111.589 31.0685C112.343 31.415 113.113 31.5882 113.901 31.5882C114.643 31.5882 115.358 31.4675 116.044 31.226C116.742 30.9845 117.366 30.6485 117.917 30.218C118.48 29.798 118.918 29.2993 119.233 28.7218C119.56 28.1548 119.723 27.5405 119.723 26.879V23.7447C119.149 24.6477 118.39 25.3827 117.445 25.9497C116.511 26.5063 115.42 26.7845 114.171 26.7845C112.978 26.7845 111.859 26.5693 110.813 26.1388C109.767 25.7083 108.85 25.115 108.062 24.359C107.275 23.5925 106.656 22.7105 106.206 21.713C105.756 20.7155 105.531 19.6445 105.531 18.5C105.531 17.3555 105.756 16.2845 106.206 15.287C106.656 14.279 107.275 13.397 108.062 12.641C108.85 11.8745 109.767 11.276 110.813 10.8455C111.859 10.415 112.978 10.1997 114.171 10.1997C115.42 10.1997 116.511 10.478 117.445 11.0345C118.39 11.591 119.149 12.326 119.723 13.2395V10.625ZM114.188 24.2173C115.279 24.2173 116.224 23.9548 117.023 23.4298C117.833 22.9048 118.457 22.2065 118.896 21.335C119.335 20.4635 119.554 19.5185 119.554 18.5C119.554 17.45 119.329 16.4945 118.879 15.6335C118.44 14.762 117.816 14.069 117.006 13.5545C116.207 13.0295 115.268 12.767 114.188 12.767C113.13 12.767 112.163 13.0243 111.285 13.5388C110.408 14.0533 109.71 14.7463 109.193 15.6178C108.687 16.4788 108.433 17.4395 108.433 18.5C108.433 19.5605 108.692 20.5265 109.21 21.398C109.738 22.259 110.436 22.9468 111.302 23.4613C112.18 23.9653 113.142 24.2173 114.188 24.2173Z" fill="white"/>
<path d="M125.265 26.375V10.625H128.1V12.5938C128.697 11.8588 129.45 11.276 130.362 10.8455C131.273 10.4045 132.263 10.184 133.332 10.184C133.984 10.184 134.614 10.2627 135.222 10.4202L134.074 13.0663C133.613 12.9298 133.163 12.8615 132.724 12.8615C131.88 12.8615 131.104 13.0558 130.395 13.4443C129.698 13.8223 129.141 14.3368 128.725 14.9878C128.309 15.6388 128.1 16.3633 128.1 17.1613V26.375H125.265Z" fill="white"/>
<path d="M135.945 10.625H138.78V26.375H135.945V10.625ZM137.397 8.05778C136.947 8.05778 136.57 7.92128 136.266 7.64828C135.962 7.37528 135.81 7.03403 135.81 6.62453C135.81 6.21503 135.962 5.87378 136.266 5.60078C136.57 5.32778 136.941 5.19128 137.38 5.19128C137.819 5.19128 138.19 5.32778 138.494 5.60078C138.797 5.87378 138.949 6.21503 138.949 6.62453C138.949 7.03403 138.797 7.37528 138.494 7.64828C138.201 7.92128 137.835 8.05778 137.397 8.05778Z" fill="white"/>
<path d="M154.838 2.75H157.673V26.375H154.838V23.6975C154.264 24.6215 153.493 25.367 152.526 25.934C151.558 26.501 150.422 26.7845 149.117 26.7845C147.891 26.7845 146.743 26.5693 145.674 26.1388C144.606 25.7083 143.661 25.115 142.839 24.359C142.029 23.5925 141.394 22.7105 140.933 21.713C140.471 20.7155 140.241 19.6445 140.241 18.5C140.241 17.3555 140.471 16.2845 140.933 15.287C141.394 14.279 142.029 13.397 142.839 12.641C143.661 11.8745 144.606 11.276 145.674 10.8455C146.743 10.415 147.891 10.1997 149.117 10.1997C150.422 10.1997 151.558 10.4832 152.526 11.0503C153.493 11.6173 154.264 12.3628 154.838 13.2868V2.75ZM149.151 24.2173C150.264 24.2173 151.226 23.9653 152.036 23.4613C152.858 22.9468 153.488 22.2538 153.926 21.3823C154.376 20.5108 154.601 19.55 154.601 18.5C154.601 17.429 154.376 16.463 153.926 15.602C153.476 14.7305 152.841 14.0428 152.019 13.5388C151.209 13.0243 150.253 12.767 149.151 12.767C148.037 12.767 147.024 13.0243 146.113 13.5388C145.213 14.0533 144.493 14.7463 143.953 15.6178C143.413 16.4788 143.143 17.4395 143.143 18.5C143.143 19.5605 143.419 20.5265 143.97 21.398C144.521 22.259 145.253 22.9468 146.164 23.4613C147.075 23.9653 148.071 24.2173 149.151 24.2173Z" fill="white"/>
<path d="M165.518 26.6742C164.606 26.6427 163.718 26.4853 162.851 26.2017C161.996 25.9078 161.243 25.514 160.59 25.0205C159.949 24.5165 159.482 23.939 159.189 23.288L161.619 22.3115C161.788 22.6685 162.092 23.0045 162.531 23.3195C162.969 23.6345 163.476 23.8865 164.049 24.0755C164.623 24.2645 165.203 24.359 165.788 24.359C166.406 24.359 166.986 24.2698 167.526 24.0913C168.066 23.9128 168.504 23.6503 168.842 23.3038C169.191 22.9468 169.365 22.5215 169.365 22.028C169.365 21.503 169.174 21.0935 168.791 20.7995C168.42 20.495 167.948 20.2587 167.374 20.0907C166.811 19.9123 166.238 19.7442 165.653 19.5868C164.494 19.3137 163.459 18.9883 162.548 18.6103C161.636 18.2218 160.916 17.7335 160.388 17.1455C159.87 16.547 159.611 15.7858 159.611 14.8618C159.611 13.8853 159.898 13.04 160.472 12.326C161.057 11.612 161.822 11.0608 162.767 10.6723C163.712 10.2837 164.724 10.0895 165.804 10.0895C167.166 10.0895 168.409 10.3625 169.534 10.9085C170.659 11.4545 171.497 12.1948 172.048 13.1293L169.77 14.3735C169.579 13.9955 169.286 13.6648 168.893 13.3813C168.499 13.0873 168.049 12.8563 167.543 12.6883C167.036 12.5203 166.519 12.431 165.99 12.4205C165.338 12.3995 164.724 12.4783 164.151 12.6568C163.588 12.8353 163.133 13.1083 162.784 13.4757C162.446 13.8328 162.278 14.279 162.278 14.8145C162.278 15.3395 162.458 15.7385 162.818 16.0115C163.189 16.2845 163.667 16.505 164.252 16.673C164.848 16.8305 165.495 17.0143 166.193 17.2243C167.216 17.5288 168.173 17.8805 169.061 18.2795C169.95 18.6785 170.664 19.1773 171.204 19.7758C171.756 20.3743 172.026 21.1145 172.014 21.9965C172.014 22.9625 171.705 23.8078 171.086 24.5323C170.468 25.2463 169.663 25.7922 168.673 26.1702C167.694 26.5483 166.643 26.7162 165.518 26.6742Z" fill="white"/>
</g>
<defs>
<clipPath id="clip0_11228_3063">
<rect width="172" height="36" fill="white" transform="translate(0.614746 0.5)"/>
</clipPath>
</defs>
</svg>
