<svg width="174" height="35" viewBox="0 0 174 35" fill="none" xmlns="http://www.w3.org/2000/svg">
<g clip-path="url(#clip0_11228_3047)">
<path d="M48.6992 28.2967C48.6992 29.286 49.5011 30.0879 50.4902 30.0879C51.4795 30.0879 52.2814 29.286 52.2814 28.2967V9.65653C52.2814 8.66737 51.4795 7.86548 50.4902 7.86548C49.5011 7.86548 48.6992 8.66737 48.6992 9.65653V28.2967Z" fill="white"/>
<path d="M59.1759 28.2967C59.1759 29.2859 58.374 30.0878 57.3849 30.0878C56.3956 30.0878 55.5938 29.2859 55.5938 28.2967V15.2949C55.5938 14.3058 56.3956 13.5039 57.3849 13.5039C58.374 13.5039 59.1759 14.3058 59.1759 15.2949V28.2967Z" fill="white"/>
<path d="M98.7061 28.2967C98.7061 29.2859 99.5079 30.0878 100.497 30.0878C101.486 30.0878 102.288 29.2859 102.288 28.2967V15.2949C102.288 14.3058 101.486 13.5039 100.497 13.5039C99.5079 13.5039 98.7061 14.3058 98.7061 15.2949V28.2967Z" fill="white"/>
<path d="M112.812 30.4525C111.087 30.4525 109.628 30.0877 108.433 29.358C107.239 28.6283 106.322 27.6223 105.681 26.3398C105.061 25.0573 104.752 23.5648 104.752 21.8622C104.752 20.1596 105.072 18.667 105.714 17.3845C106.377 16.08 107.317 15.0738 108.533 14.3662C109.749 13.6365 111.22 13.2717 112.944 13.2717C114.404 13.2717 115.686 13.5481 116.792 14.1009C117.897 14.6537 118.749 15.4277 119.346 16.4227C119.74 17.056 119.981 17.7345 120.119 18.4389C120.307 19.4007 119.48 20.2038 118.5 20.2038C117.52 20.2038 116.81 19.3778 116.48 18.455C116.331 18.0367 116.095 17.6556 115.73 17.3513C115.089 16.7764 114.083 16.489 112.712 16.489C111.12 16.489 109.981 16.9422 109.296 17.8489C108.633 18.7334 108.301 20.06 108.301 21.829C108.301 23.6201 108.633 24.9689 109.296 25.8755C109.981 26.7599 111.12 27.2021 112.712 27.2021C114.083 27.2021 115.089 26.9258 115.73 26.3729C116.088 26.063 116.322 25.6831 116.473 25.2679C116.808 24.3468 117.52 23.5206 118.5 23.5206C119.48 23.5206 120.306 24.3242 120.11 25.2844C119.969 25.9755 119.728 26.6413 119.346 27.2684C118.727 28.2635 117.853 29.0485 116.725 29.6235C115.62 30.1762 114.315 30.4525 112.812 30.4525Z" fill="white"/>
<path fill-rule="evenodd" clip-rule="evenodd" d="M126.316 29.358C127.554 30.0656 129.014 30.4195 130.694 30.4195C132.375 30.4195 133.812 30.0656 135.006 29.358C136.222 28.6283 137.152 27.6223 137.792 26.3398C138.455 25.0352 138.788 23.5316 138.788 21.829C138.788 20.1264 138.455 18.6339 137.792 17.3513C137.152 16.0688 136.222 15.0738 135.006 14.3662C133.812 13.6365 132.375 13.2717 130.694 13.2717C129.014 13.2717 127.554 13.6365 126.316 14.3662C125.078 15.0738 124.127 16.0688 123.464 17.3513C122.801 18.6339 122.469 20.1264 122.469 21.829C122.469 23.5316 122.801 25.0352 123.464 26.3398C124.127 27.6223 125.078 28.6283 126.316 29.358ZM134.31 25.9418C133.625 26.8042 132.419 27.2354 130.694 27.2354C128.948 27.2354 127.731 26.8042 127.046 25.9418C126.36 25.0573 126.018 23.6864 126.018 21.829C126.018 19.9717 126.36 18.6118 127.046 17.7494C127.731 16.8871 128.948 16.4558 130.694 16.4558C132.419 16.4558 133.625 16.8871 134.31 17.7494C134.995 18.6118 135.338 19.9717 135.338 21.829C135.338 23.6864 134.995 25.0573 134.31 25.9418Z" fill="white"/>
<path d="M156.822 28.2967C156.822 29.2858 156.02 30.0877 155.031 30.0877C154.042 30.0877 153.24 29.2858 153.24 28.2967V20.5023C153.24 19.0429 152.963 17.9926 152.41 17.3513C151.858 16.688 150.818 16.3563 149.292 16.3563C148.319 16.3563 147.524 16.5 146.905 16.7876C146.286 17.0529 145.822 17.4951 145.512 18.1142C145.202 18.7113 145.048 19.5294 145.048 20.5686V28.2967C145.048 29.2858 144.246 30.0877 143.256 30.0877C142.267 30.0877 141.466 29.2858 141.466 28.2967V15.2453C141.466 14.3385 142.201 13.6035 143.107 13.6035C144.013 13.6035 144.749 14.3385 144.749 15.2453V16.688H144.914C145.157 16.0909 145.522 15.5382 146.009 15.0296C146.495 14.5211 147.115 14.1009 147.867 13.7693C148.641 13.4376 149.558 13.2717 150.62 13.2717C152.057 13.2717 153.229 13.5481 154.135 14.1009C155.042 14.6537 155.716 15.4166 156.159 16.3895C156.601 17.3624 156.822 18.479 156.822 19.7394V28.2967Z" fill="white"/>
<path d="M167.086 30.4195C164.676 30.4195 162.852 29.944 161.614 28.9932C160.687 28.2648 160.173 27.2569 159.932 26.1617C159.727 25.2316 160.528 24.4492 161.482 24.4492C162.434 24.4492 163.052 25.2626 163.387 26.1543C163.428 26.2628 163.477 26.369 163.537 26.4724C163.781 26.8263 164.179 27.0916 164.731 27.2684C165.307 27.4233 166.114 27.5007 167.153 27.5007C168.037 27.5007 168.701 27.4344 169.143 27.3017C169.608 27.1468 169.918 26.9368 170.072 26.6715C170.226 26.4062 170.305 26.0745 170.305 25.6765C170.305 25.0131 170.072 24.5487 169.608 24.2834C169.143 23.9959 168.314 23.7417 167.12 23.5206L164.533 23.0893C163.56 22.8904 162.708 22.614 161.979 22.2602C161.271 21.8843 160.718 21.3757 160.32 20.7344C159.945 20.0712 159.757 19.242 159.757 18.2469C159.757 16.7655 160.343 15.5714 161.514 14.6648C162.686 13.7361 164.346 13.2717 166.49 13.2717C167.794 13.2717 168.955 13.4818 169.973 13.9019C170.99 14.322 171.797 14.9522 172.393 15.7925C172.776 16.3316 173.005 16.9243 173.136 17.5438C173.329 18.467 172.524 19.242 171.581 19.242C170.638 19.242 170.012 18.4301 169.643 17.5618C169.631 17.5358 169.619 17.5099 169.608 17.484C169.431 17.086 169.099 16.7764 168.613 16.5553C168.126 16.3342 167.386 16.2237 166.391 16.2237C165.086 16.2237 164.224 16.3895 163.803 16.7211C163.383 17.0529 163.173 17.5393 163.173 18.1805C163.173 18.8218 163.361 19.275 163.737 19.5404C164.135 19.7836 164.909 20.0268 166.059 20.2701L168.878 20.8009C169.94 20.9998 170.824 21.2983 171.531 21.6964C172.239 22.0943 172.77 22.614 173.123 23.2553C173.499 23.8964 173.688 24.6593 173.688 25.5437C173.688 27.0916 173.102 28.2967 171.929 29.1591C170.779 29.9993 169.166 30.4195 167.086 30.4195Z" fill="white"/>
<path fill-rule="evenodd" clip-rule="evenodd" d="M88.5168 30.4195C86.7258 30.4195 85.2332 30.0656 84.0392 29.358C82.8451 28.6283 81.9607 27.6223 81.3857 26.3398C80.8109 25.0352 80.5234 23.5316 80.5234 21.829C80.5234 20.1264 80.8441 18.6339 81.4852 17.3513C82.1486 16.0688 83.0774 15.0738 84.2714 14.3662C85.4653 13.6365 86.8805 13.2717 88.5168 13.2717C89.9983 13.2717 91.3029 13.5592 92.4306 14.1341C93.5805 14.6869 94.4649 15.494 95.0841 16.5553C95.7252 17.6168 96.0459 18.8992 96.0459 20.4028C96.0459 20.697 96.0396 20.9957 96.0247 21.2948C95.9842 22.1044 95.2858 22.6914 94.4752 22.6914H83.8841C83.9204 23.5702 84.0495 24.3329 84.2714 24.98C84.5588 25.7318 85.0453 26.2955 85.7308 26.6715C86.4162 27.0474 87.356 27.2354 88.55 27.2354C89.943 27.2354 90.927 27.0142 91.5019 26.572C91.6451 26.4619 91.7666 26.3427 91.869 26.2158C92.4842 25.4528 93.1588 24.5487 94.1387 24.5487C95.1187 24.5487 95.9601 25.36 95.7009 26.3051C95.5564 26.8315 95.3279 27.3332 94.9845 27.7992C94.3654 28.6173 93.5031 29.2586 92.3974 29.7229C91.314 30.1872 90.0204 30.4195 88.5168 30.4195ZM84.8352 17.5835C84.3202 18.2761 84.012 19.1827 83.9106 20.3033H92.6185C92.6579 19.4362 92.54 18.7174 92.2648 18.1474C91.9774 17.5061 91.5019 17.0308 90.8385 16.7211C90.1973 16.4116 89.3902 16.2569 88.4173 16.2569C86.6705 16.2569 85.4765 16.699 84.8352 17.5835Z" fill="white"/>
<path d="M74.2403 28.2967C74.2403 29.2858 75.0422 30.0877 76.0313 30.0877C77.0206 30.0877 77.8224 29.2858 77.8224 28.2967V19.7394C77.8224 18.479 77.6013 17.3624 77.1591 16.3895C76.7168 15.4166 76.0424 14.6537 75.1358 14.1009C74.2293 13.5481 73.0573 13.2717 71.6201 13.2717C70.5587 13.2717 69.641 13.4376 68.8671 13.7693C68.1153 14.1009 67.4963 14.5211 67.0098 15.0296C66.5233 15.5382 66.1585 16.0909 65.9153 16.688H65.7494V15.2453C65.7494 14.3385 65.0143 13.6035 64.1076 13.6035C63.2009 13.6035 62.4658 14.3385 62.4658 15.2453V28.2967C62.4658 29.2858 63.2677 30.0877 64.2568 30.0877C65.246 30.0877 66.0479 29.2858 66.0479 28.2967V20.5686C66.0479 19.5294 66.2027 18.7113 66.5122 18.1142C66.8217 17.4951 67.2861 17.0529 67.9053 16.7876C68.5244 16.5 69.3205 16.3563 70.2934 16.3563C71.8191 16.3563 72.8583 16.688 73.4111 17.3513C73.964 17.9926 74.2403 19.0429 74.2403 20.5023V28.2967Z" fill="white"/>
<path d="M59.4464 9.73839C59.4464 10.8897 58.5131 11.823 57.3618 11.823C56.218 11.823 55.2877 10.9012 55.2774 9.75734L55.2765 9.66029C55.2659 8.50137 56.2024 7.55627 57.3614 7.55627C58.513 7.55627 59.4464 8.48978 59.4464 9.64132V9.73839Z" fill="white"/>
<path d="M102.545 9.73839C102.545 10.8897 101.612 11.823 100.461 11.823C99.3166 11.823 98.3865 10.9012 98.376 9.75734L98.3751 9.66029C98.3646 8.50137 99.3012 7.55627 100.46 7.55627C101.612 7.55627 102.545 8.48978 102.545 9.64132V9.73839Z" fill="white"/>
<path d="M10.0501 9.37542C9.63547 8.96083 9.02187 8.77841 8.44144 8.92767C7.861 9.06034 7.39665 9.49152 7.21424 10.072L0.0831771 32.2777C-0.115829 32.8914 0.0500094 33.5546 0.497773 34.0024C0.82945 34.3341 1.26063 34.5 1.7084 34.5C1.87424 34.5 2.05666 34.4667 2.22249 34.4171L24.4448 27.2859C25.0087 27.1035 25.4398 26.6392 25.5892 26.0588C25.7384 25.4783 25.556 24.8648 25.1414 24.4501L10.0501 9.37542ZM4.34523 30.1716L9.60231 13.7702L20.7467 24.9144L4.34523 30.1716Z" fill="white"/>
<path d="M19.2046 13.0565C19.3206 13.9189 20.0503 14.5491 20.8961 14.5491C21.6399 14.5491 22.3982 14.3804 23.1349 14.2837C25.2743 14.0018 26.8995 12.161 26.8828 10.0051V9.4744C26.8828 9.22564 26.9824 9.01005 27.1482 8.84421C27.314 8.67837 27.5462 8.57887 27.7784 8.57887H30.5976C31.5429 8.57887 32.3059 7.81601 32.3059 6.87073C32.3059 5.92545 31.5429 5.1626 30.5976 5.1626H27.7784C26.6341 5.1626 25.5562 5.61036 24.7436 6.42296C23.931 7.23558 23.4832 8.33012 23.4832 9.4744V10.0051C23.4832 10.4528 23.1515 10.8343 22.7037 10.884L20.6805 11.1494C19.7519 11.2655 19.0885 12.1278 19.2046 13.0565Z" fill="white"/>
<path d="M35.9037 15.4453C31.5919 12.145 26.9318 15.0638 25.0579 17.0705C24.4111 17.7503 24.4609 18.8284 25.1408 19.475C25.8307 20.1305 26.9067 20.0795 27.5455 19.4087C27.6781 19.2595 30.912 15.9096 33.8308 18.1484C34.577 18.7289 35.655 18.5795 36.2188 17.8334C36.7992 17.0871 36.65 16.0091 35.9037 15.4453Z" fill="white"/>
<path d="M17.2303 9.47504C19.1374 8.01567 21.0612 4.59939 18.557 1.19971C17.9931 0.43685 16.9318 0.271012 16.1688 0.834863C15.4061 1.39871 15.2402 2.46007 15.804 3.22294C17.1142 4.9974 15.6216 6.40703 15.1407 6.78847C14.3944 7.3689 14.2617 8.43026 14.8256 9.17654C15.4091 9.93499 16.4814 10.0269 17.2303 9.47504Z" fill="white"/>
</g>
<defs>
<clipPath id="clip0_11228_3047">
<rect width="173.923" height="34" fill="white" transform="translate(0 0.5)"/>
</clipPath>
</defs>
</svg>
