<svg width="173" height="37" viewBox="0 0 173 37" fill="none" xmlns="http://www.w3.org/2000/svg">
<g clip-path="url(#clip0_8814_10767)">
<path d="M36.6147 18.5C36.6147 8.55887 28.5559 0.5 18.6147 0.5C8.67362 0.5 0.614746 8.55887 0.614746 18.5C0.614746 28.4411 8.67362 36.5 18.6147 36.5C28.5559 36.5 36.6147 28.4411 36.6147 18.5Z" fill="url(#paint0_linear_8814_10767)"/>
<path d="M36.6147 18.5C36.6147 8.55887 28.5559 0.5 18.6147 0.5C8.67362 0.5 0.614746 8.55887 0.614746 18.5C0.614746 28.4411 8.67362 36.5 18.6147 36.5C28.5559 36.5 36.6147 28.4411 36.6147 18.5Z" fill="url(#paint1_linear_8814_10767)" fill-opacity="0.56"/>
<path d="M18.9012 7.25C21.7516 7.25 24.4424 8.30311 26.5247 10.2231C26.6401 10.3295 26.6413 10.5103 26.5303 10.6213L22.1228 15.0288C22.0161 15.1356 21.8446 15.1382 21.7278 15.0425C20.9318 14.3908 19.9441 14.0369 18.903 14.0369C16.4385 14.0352 14.4346 16.0391 14.4346 18.5H7.646C7.646 12.2967 12.6961 7.25 18.9012 7.25Z" fill="white"/>
<path d="M14.4346 18.5C14.4346 20.8097 16.1994 22.7161 18.4522 22.9424C18.6024 22.9575 18.7219 23.0806 18.7219 23.2316V29.4643C18.7219 29.6213 18.5925 29.7483 18.4355 29.7419C12.4441 29.4964 7.646 24.5475 7.646 18.5H14.4346Z" fill="white"/>
<path opacity="0.56" d="M25.5894 19.3931H22.9351C22.7797 19.3931 22.6538 19.5191 22.6538 19.6744V22.3269C22.6538 22.4823 22.7797 22.6082 22.9351 22.6082H25.5894C25.7447 22.6082 25.8706 22.4823 25.8706 22.3269V19.6744C25.8706 19.5191 25.7447 19.3931 25.5894 19.3931Z" fill="white"/>
<path opacity="0.4" d="M29.1616 19.3931H26.5073C26.352 19.3931 26.2261 19.5191 26.2261 19.6744V22.3269C26.2261 22.4823 26.352 22.6082 26.5073 22.6082H29.1616C29.3169 22.6082 29.4429 22.4823 29.4429 22.3269V19.6744C29.4429 19.5191 29.3169 19.3931 29.1616 19.3931Z" fill="white"/>
<path opacity="0.72" d="M25.5894 22.9648H22.9351C22.7797 22.9648 22.6538 23.0907 22.6538 23.246V25.8986C22.6538 26.0539 22.7797 26.1798 22.9351 26.1798H25.5894C25.7447 26.1798 25.8706 26.0539 25.8706 25.8986V23.246C25.8706 23.0907 25.7447 22.9648 25.5894 22.9648Z" fill="white"/>
<path opacity="0.88" d="M22.0161 22.9648H19.3618C19.2065 22.9648 19.0806 23.0907 19.0806 23.246V25.8986C19.0806 26.0539 19.2065 26.1798 19.3618 26.1798H22.0161C22.1715 26.1798 22.2974 26.0539 22.2974 25.8986V23.246C22.2974 23.0907 22.1715 22.9648 22.0161 22.9648Z" fill="white"/>
<path opacity="0.56" d="M29.1616 22.9648H26.5073C26.352 22.9648 26.2261 23.0907 26.2261 23.246V25.8986C26.2261 26.0539 26.352 26.1798 26.5073 26.1798H29.1616C29.3169 26.1798 29.4429 26.0539 29.4429 25.8986V23.246C29.4429 23.0907 29.3169 22.9648 29.1616 22.9648Z" fill="white"/>
<path opacity="0.88" d="M25.5894 26.5347H22.9351C22.7797 26.5347 22.6538 26.6606 22.6538 26.8159V29.4685C22.6538 29.6238 22.7797 29.7497 22.9351 29.7497H25.5894C25.7447 29.7497 25.8706 29.6238 25.8706 29.4685V26.8159C25.8706 26.6606 25.7447 26.5347 25.5894 26.5347Z" fill="white"/>
<path opacity="0.96" d="M22.0161 26.5347H19.3618C19.2065 26.5347 19.0806 26.6606 19.0806 26.8159V29.4685C19.0806 29.6238 19.2065 29.7497 19.3618 29.7497H22.0161C22.1715 29.7497 22.2974 29.6238 22.2974 29.4685V26.8159C22.2974 26.6606 22.1715 26.5347 22.0161 26.5347Z" fill="white"/>
<path opacity="0.72" d="M29.1616 26.5347H26.5073C26.352 26.5347 26.2261 26.6606 26.2261 26.8159V29.4685C26.2261 29.6238 26.352 29.7497 26.5073 29.7497H29.1616C29.3169 29.7497 29.4429 29.6238 29.4429 29.4685V26.8159C29.4429 26.6606 29.3169 26.5347 29.1616 26.5347Z" fill="white"/>
<path d="M57.5566 10.625H60.3916V26.879C60.3916 27.9185 60.1497 28.8845 59.6659 29.777C59.1934 30.68 58.5522 31.4622 57.7422 32.1238C56.9322 32.7957 56.0097 33.3155 54.9747 33.683C53.9397 34.061 52.8597 34.25 51.7347 34.25C50.5647 34.25 49.4341 34.0033 48.3428 33.5098C47.2516 33.0268 46.2953 32.3757 45.4741 31.5567C44.6641 30.7482 44.0791 29.84 43.7191 28.832L46.3178 27.7295C46.5316 28.454 46.9141 29.105 47.4653 29.6825C48.0278 30.2705 48.6803 30.7325 49.4228 31.0685C50.1766 31.415 50.9472 31.5882 51.7347 31.5882C52.4772 31.5882 53.1916 31.4675 53.8778 31.226C54.5753 30.9845 55.1997 30.6485 55.7509 30.218C56.3134 29.798 56.7522 29.2993 57.0672 28.7218C57.3934 28.1548 57.5566 27.5405 57.5566 26.879V23.7447C56.9828 24.6477 56.2234 25.3827 55.2784 25.9497C54.3447 26.5063 53.2534 26.7845 52.0047 26.7845C50.8122 26.7845 49.6928 26.5693 48.6466 26.1388C47.6003 25.7083 46.6834 25.115 45.8959 24.359C45.1084 23.5925 44.4897 22.7105 44.0397 21.713C43.5897 20.7155 43.3647 19.6445 43.3647 18.5C43.3647 17.3555 43.5897 16.2845 44.0397 15.287C44.4897 14.279 45.1084 13.397 45.8959 12.641C46.6834 11.8745 47.6003 11.276 48.6466 10.8455C49.6928 10.415 50.8122 10.1997 52.0047 10.1997C53.2534 10.1997 54.3447 10.478 55.2784 11.0345C56.2234 11.591 56.9828 12.326 57.5566 13.2395V10.625ZM52.0216 24.2173C53.1128 24.2173 54.0578 23.9548 54.8566 23.4298C55.6666 22.9048 56.2909 22.2065 56.7297 21.335C57.1684 20.4635 57.3878 19.5185 57.3878 18.5C57.3878 17.45 57.1628 16.4945 56.7128 15.6335C56.2741 14.762 55.6497 14.069 54.8397 13.5545C54.0409 13.0295 53.1016 12.767 52.0216 12.767C50.9641 12.767 49.9966 13.0243 49.1191 13.5388C48.2416 14.0533 47.5441 14.7463 47.0266 15.6178C46.5203 16.4788 46.2672 17.4395 46.2672 18.5C46.2672 19.5605 46.5259 20.5265 47.0435 21.398C47.5722 22.259 48.2697 22.9468 49.1359 23.4613C50.0134 23.9653 50.9753 24.2173 52.0216 24.2173Z" fill="#1E1983"/>
<path d="M63.0991 26.3751V10.6251H65.9341V12.5939C66.5304 11.8589 67.2841 11.2761 68.1954 10.8456C69.1066 10.4046 70.0966 10.1841 71.1654 10.1841C71.8179 10.1841 72.4479 10.2628 73.0554 10.4203L71.9079 13.0664C71.4466 12.9299 70.9966 12.8616 70.5579 12.8616C69.7141 12.8616 68.9379 13.0559 68.2291 13.4444C67.5316 13.8224 66.9747 14.3369 66.5585 14.9879C66.1422 15.6389 65.9341 16.3634 65.9341 17.1614V26.3751H63.0991Z" fill="#1E1983"/>
<path d="M86.4899 10.6251H89.3249V26.3751H86.4899L86.3718 23.7134C85.843 24.6269 85.1118 25.3671 84.178 25.9341C83.2555 26.5011 82.153 26.7846 80.8705 26.7846C79.633 26.7846 78.4743 26.5694 77.3943 26.1389C76.3143 25.6979 75.358 25.0941 74.5255 24.3276C73.7043 23.5506 73.063 22.6581 72.6018 21.6501C72.1405 20.6421 71.9099 19.5554 71.9099 18.3899C71.9099 17.2664 72.1349 16.2059 72.5849 15.2084C73.0349 14.2109 73.6593 13.3394 74.458 12.5939C75.268 11.8379 76.2018 11.2499 77.2593 10.8299C78.3168 10.3993 79.453 10.1841 80.668 10.1841C81.9955 10.1841 83.1599 10.4781 84.1612 11.0661C85.1624 11.6436 85.9724 12.3944 86.5912 13.3184L86.4899 10.6251ZM80.8199 24.2174C81.9337 24.2174 82.8955 23.9654 83.7055 23.4614C84.5268 22.9469 85.1568 22.2539 85.5955 21.3824C86.0455 20.5109 86.2705 19.5501 86.2705 18.5001C86.2705 17.4291 86.0455 16.4631 85.5955 15.6021C85.1455 14.7306 84.5099 14.0429 83.6887 13.5389C82.8787 13.0244 81.9224 12.7671 80.8199 12.7671C79.7062 12.7671 78.6937 13.0244 77.7824 13.5389C76.8712 14.0534 76.1455 14.7464 75.6055 15.6179C75.0768 16.4789 74.8124 17.4396 74.8124 18.5001C74.8124 19.5606 75.088 20.5266 75.6393 21.3981C76.1905 22.2591 76.9218 22.9469 77.833 23.4614C78.7443 23.9654 79.7399 24.2174 80.8199 24.2174Z" fill="#1E1983"/>
<path d="M102.379 10.625H105.383L96.1525 34.25H93.1487L96.2031 26.375L90.145 10.625H93.25L97.6206 22.7367L102.379 10.625Z" fill="#1E1983"/>
<path d="M119.723 10.625H122.558V26.879C122.558 27.9185 122.316 28.8845 121.832 29.777C121.36 30.68 120.718 31.4622 119.908 32.1238C119.098 32.7957 118.176 33.3155 117.141 33.683C116.106 34.061 115.026 34.25 113.901 34.25C112.731 34.25 111.6 34.0033 110.509 33.5098C109.418 33.0268 108.462 32.3757 107.64 31.5567C106.83 30.7482 106.245 29.84 105.885 28.832L108.484 27.7295C108.698 28.454 109.08 29.105 109.632 29.6825C110.194 30.2705 110.847 30.7325 111.589 31.0685C112.343 31.415 113.113 31.5882 113.901 31.5882C114.643 31.5882 115.358 31.4675 116.044 31.226C116.742 30.9845 117.366 30.6485 117.917 30.218C118.48 29.798 118.918 29.2993 119.233 28.7218C119.56 28.1548 119.723 27.5405 119.723 26.879V23.7447C119.149 24.6477 118.39 25.3827 117.445 25.9497C116.511 26.5063 115.42 26.7845 114.171 26.7845C112.978 26.7845 111.859 26.5693 110.813 26.1388C109.767 25.7083 108.85 25.115 108.062 24.359C107.275 23.5925 106.656 22.7105 106.206 21.713C105.756 20.7155 105.531 19.6445 105.531 18.5C105.531 17.3555 105.756 16.2845 106.206 15.287C106.656 14.279 107.275 13.397 108.062 12.641C108.85 11.8745 109.767 11.276 110.813 10.8455C111.859 10.415 112.978 10.1997 114.171 10.1997C115.42 10.1997 116.511 10.478 117.445 11.0345C118.39 11.591 119.149 12.326 119.723 13.2395V10.625ZM114.188 24.2173C115.279 24.2173 116.224 23.9548 117.023 23.4298C117.833 22.9048 118.457 22.2065 118.896 21.335C119.335 20.4635 119.554 19.5185 119.554 18.5C119.554 17.45 119.329 16.4945 118.879 15.6335C118.44 14.762 117.816 14.069 117.006 13.5545C116.207 13.0295 115.268 12.767 114.188 12.767C113.13 12.767 112.163 13.0243 111.285 13.5388C110.408 14.0533 109.71 14.7463 109.193 15.6178C108.687 16.4788 108.433 17.4395 108.433 18.5C108.433 19.5605 108.692 20.5265 109.21 21.398C109.738 22.259 110.436 22.9468 111.302 23.4613C112.18 23.9653 113.142 24.2173 114.188 24.2173Z" fill="#1E1983"/>
<path d="M125.265 26.3751V10.6251H128.1V12.5939C128.697 11.8589 129.45 11.2761 130.362 10.8456C131.273 10.4046 132.263 10.1841 133.332 10.1841C133.984 10.1841 134.614 10.2628 135.222 10.4203L134.074 13.0664C133.613 12.9299 133.163 12.8616 132.724 12.8616C131.88 12.8616 131.104 13.0559 130.395 13.4444C129.698 13.8224 129.141 14.3369 128.725 14.9879C128.309 15.6389 128.1 16.3634 128.1 17.1614V26.3751H125.265Z" fill="#1E1983"/>
<path d="M135.945 10.6252H138.78V26.3752H135.945V10.6252ZM137.397 8.05791C136.947 8.05791 136.57 7.92141 136.266 7.64841C135.962 7.37541 135.81 7.03416 135.81 6.62466C135.81 6.21516 135.962 5.87391 136.266 5.60091C136.57 5.32791 136.941 5.19141 137.38 5.19141C137.819 5.19141 138.19 5.32791 138.494 5.60091C138.797 5.87391 138.949 6.21516 138.949 6.62466C138.949 7.03416 138.797 7.37541 138.494 7.64841C138.201 7.92141 137.835 8.05791 137.397 8.05791Z" fill="#1E1983"/>
<path d="M154.838 2.75H157.673V26.375H154.838V23.6975C154.264 24.6215 153.493 25.367 152.526 25.934C151.558 26.501 150.422 26.7845 149.117 26.7845C147.891 26.7845 146.743 26.5693 145.674 26.1388C144.606 25.7083 143.661 25.115 142.839 24.359C142.029 23.5925 141.394 22.7105 140.933 21.713C140.471 20.7155 140.241 19.6445 140.241 18.5C140.241 17.3555 140.471 16.2845 140.933 15.287C141.394 14.279 142.029 13.397 142.839 12.641C143.661 11.8745 144.606 11.276 145.674 10.8455C146.743 10.415 147.891 10.1997 149.117 10.1997C150.422 10.1997 151.558 10.4832 152.526 11.0503C153.493 11.6173 154.264 12.3628 154.838 13.2868V2.75ZM149.151 24.2173C150.264 24.2173 151.226 23.9653 152.036 23.4613C152.858 22.9468 153.488 22.2538 153.926 21.3823C154.376 20.5108 154.601 19.55 154.601 18.5C154.601 17.429 154.376 16.463 153.926 15.602C153.476 14.7305 152.841 14.0428 152.019 13.5388C151.209 13.0243 150.253 12.767 149.151 12.767C148.037 12.767 147.024 13.0243 146.113 13.5388C145.213 14.0533 144.493 14.7463 143.953 15.6178C143.413 16.4788 143.143 17.4395 143.143 18.5C143.143 19.5605 143.419 20.5265 143.97 21.398C144.521 22.259 145.253 22.9468 146.164 23.4613C147.075 23.9653 148.071 24.2173 149.151 24.2173Z" fill="#1E1983"/>
<path d="M165.518 26.6741C164.606 26.6426 163.718 26.4852 162.851 26.2016C161.996 25.9077 161.243 25.5139 160.59 25.0204C159.949 24.5164 159.482 23.9389 159.189 23.2879L161.619 22.3114C161.788 22.6684 162.092 23.0044 162.531 23.3194C162.969 23.6344 163.476 23.8864 164.049 24.0754C164.623 24.2644 165.203 24.3589 165.788 24.3589C166.406 24.3589 166.986 24.2697 167.526 24.0912C168.066 23.9127 168.504 23.6502 168.842 23.3037C169.191 22.9467 169.365 22.5214 169.365 22.0279C169.365 21.5029 169.174 21.0934 168.791 20.7994C168.42 20.4949 167.948 20.2586 167.374 20.0906C166.811 19.9122 166.238 19.7441 165.653 19.5867C164.494 19.3136 163.459 18.9882 162.548 18.6102C161.636 18.2217 160.916 17.7334 160.388 17.1454C159.87 16.5469 159.611 15.7857 159.611 14.8617C159.611 13.8852 159.898 13.0399 160.472 12.3259C161.057 11.6119 161.822 11.0607 162.767 10.6722C163.712 10.2836 164.724 10.0894 165.804 10.0894C167.166 10.0894 168.409 10.3624 169.534 10.9084C170.659 11.4544 171.497 12.1947 172.048 13.1292L169.77 14.3734C169.579 13.9954 169.286 13.6647 168.893 13.3812C168.499 13.0872 168.049 12.8562 167.543 12.6882C167.036 12.5202 166.519 12.4309 165.99 12.4204C165.338 12.3994 164.724 12.4782 164.151 12.6567C163.588 12.8352 163.133 13.1082 162.784 13.4756C162.446 13.8327 162.278 14.2789 162.278 14.8144C162.278 15.3394 162.458 15.7384 162.818 16.0114C163.189 16.2844 163.667 16.5049 164.252 16.6729C164.848 16.8304 165.495 17.0142 166.193 17.2242C167.216 17.5287 168.173 17.8804 169.061 18.2794C169.95 18.6784 170.664 19.1772 171.204 19.7757C171.756 20.3742 172.026 21.1144 172.014 21.9964C172.014 22.9624 171.705 23.8077 171.086 24.5322C170.468 25.2462 169.663 25.7921 168.673 26.1701C167.694 26.5482 166.643 26.7161 165.518 26.6741Z" fill="#1E1983"/>
</g>
<defs>
<linearGradient id="paint0_linear_8814_10767" x1="18.6147" y1="0.5" x2="18.6147" y2="36.5" gradientUnits="userSpaceOnUse">
<stop stop-color="#3558EA"/>
<stop offset="1" stop-color="#0000FF"/>
</linearGradient>
<linearGradient id="paint1_linear_8814_10767" x1="23.404" y1="5.72943" x2="7.54766" y2="52.9749" gradientUnits="userSpaceOnUse">
<stop offset="0.215628" stop-color="#1E1983" stop-opacity="0"/>
<stop offset="0.447191" stop-color="#1E1983" stop-opacity="0.19"/>
<stop offset="0.619792" stop-color="#1E1983"/>
</linearGradient>
<clipPath id="clip0_8814_10767">
<rect width="172" height="36" fill="white" transform="translate(0.614746 0.5)"/>
</clipPath>
</defs>
</svg>
