<svg width="187" height="35" viewBox="0 0 187 35" fill="none" xmlns="http://www.w3.org/2000/svg">
<path d="M47.4392 10.2481H54.1089V29.3538H58.0982V10.2481H64.7679V6.57034H47.4392V10.2481Z" fill="white"/>
<path d="M69.2203 29.759C71.6201 29.759 73.7083 28.6682 74.3628 27.0786L74.6433 29.3538H77.9781V20.0036C77.9781 15.7336 75.4225 13.4895 71.2773 13.4895C67.101 13.4895 64.3583 15.6713 64.3583 19.0062H67.5996C67.5996 17.3855 68.8463 16.4505 71.0903 16.4505C73.0226 16.4505 74.2693 17.292 74.2693 19.3802V19.7231L69.6566 20.0659C66.0101 20.3464 63.9531 22.123 63.9531 24.9592C63.9531 27.8578 65.9478 29.759 69.2203 29.759ZM70.467 26.8916C68.7528 26.8916 67.8178 26.2059 67.8178 24.8034C67.8178 23.5567 68.7216 22.7775 71.0903 22.5593L74.3005 22.31V23.1203C74.3005 25.4891 72.8045 26.8916 70.467 26.8916Z" fill="white"/>
<path d="M83.6147 10.8715C84.8613 10.8715 85.8898 9.84293 85.8898 8.56506C85.8898 7.28719 84.8613 6.28983 83.6147 6.28983C82.3057 6.28983 81.2772 7.28719 81.2772 8.56506C81.2772 9.84293 82.3057 10.8715 83.6147 10.8715ZM81.7135 29.3538H85.5158V13.9571H81.7135V29.3538Z" fill="white"/>
<path d="M93.2778 29.3538V6.16516H89.5066V29.3538H93.2778Z" fill="white"/>
<path d="M99.7909 29.3538L101.63 24.0865H110.138L111.977 29.3538H116.185L107.957 6.57034H103.874L95.6457 29.3538H99.7909ZM105.401 13.3649C105.619 12.7415 105.806 12.0558 105.9 11.6195C105.962 12.087 106.18 12.7727 106.367 13.3649L108.985 20.7204H102.814L105.401 13.3649Z" fill="white"/>
<path d="M124.107 29.759C126.445 29.759 128.439 28.7305 129.374 26.9539L129.624 29.3538H133.114V6.16516H129.343V15.9206C128.377 14.3934 126.476 13.4895 124.325 13.4895C119.682 13.4895 116.877 16.918 116.877 21.7178C116.877 26.4864 119.65 29.759 124.107 29.759ZM124.949 26.2682C122.3 26.2682 120.679 24.3359 120.679 21.5931C120.679 18.8504 122.3 16.8868 124.949 16.8868C127.598 16.8868 129.312 18.8192 129.312 21.5931C129.312 24.367 127.598 26.2682 124.949 26.2682Z" fill="white"/>
<path d="M140.879 29.3538V20.6269C140.879 18.1335 142.344 16.9491 144.152 16.9491C145.959 16.9491 147.113 18.1023 147.113 20.2529V29.3538H150.915V20.6269C150.915 18.1023 152.317 16.918 154.156 16.918C155.964 16.918 157.148 18.0712 157.148 20.2841V29.3538H160.919V19.2867C160.919 15.7336 158.862 13.4895 155.122 13.4895C152.785 13.4895 150.977 14.6427 150.198 16.4193C149.388 14.6427 147.767 13.4895 145.43 13.4895C143.217 13.4895 141.658 14.4869 140.879 15.7648L140.568 13.9571H137.077V29.3538H140.879Z" fill="white"/>
<path d="M166.553 10.8715C167.8 10.8715 168.828 9.84293 168.828 8.56506C168.828 7.28719 167.8 6.28983 166.553 6.28983C165.244 6.28983 164.216 7.28719 164.216 8.56506C164.216 9.84293 165.244 10.8715 166.553 10.8715ZM164.652 29.3538H168.454V13.9571H164.652V29.3538Z" fill="white"/>
<path d="M176.185 29.3538V21.0633C176.185 18.5699 177.619 16.9491 179.956 16.9491C181.92 16.9491 183.198 18.1958 183.198 20.7828V29.3538H187V19.8789C187 15.8894 185.005 13.4895 181.141 13.4895C179.053 13.4895 177.183 14.3934 176.216 15.9518L175.905 13.9571H172.383V29.3538H176.185Z" fill="white"/>
<path fill-rule="evenodd" clip-rule="evenodd" d="M25.7417 0.5C30.6831 0.50003 34.6889 4.5059 34.6889 9.44752V25.5525C34.6889 30.4941 30.6831 34.5 25.7417 34.5H9.63622C4.69479 34.4999 0.688965 30.4941 0.688965 25.5525V9.44752C0.688965 4.50593 4.69479 0.500075 9.63622 0.5H25.7417ZM11.4253 7.65939C10.4373 7.65961 9.63644 8.4605 9.63622 9.4485V25.5544C9.63622 26.5426 10.4372 27.3443 11.4253 27.3445C12.4136 27.3445 13.2153 26.5428 13.2153 25.5544V9.4485C13.2151 8.46036 12.4134 7.65939 11.4253 7.65939ZM18.1372 14.8149C17.1489 14.8149 16.3472 15.6166 16.3472 16.605V25.5525C16.3473 26.5406 17.149 27.3416 18.1372 27.3416C19.1252 27.3413 19.9261 26.5405 19.9263 25.5525V16.605C19.9263 15.6168 19.1253 14.8151 18.1372 14.8149ZM24.8462 10.3401C23.8579 10.3401 23.0561 11.1419 23.0561 12.1302V25.5515C23.0562 26.5398 23.8579 27.3406 24.8462 27.3406C25.8344 27.3406 26.6352 26.5398 26.6352 25.5515V12.1302C26.6352 11.1419 25.8344 10.3402 24.8462 10.3401Z" fill="white"/>
</svg>
