<svg width="162" height="39" viewBox="0 0 162 39" fill="none" xmlns="http://www.w3.org/2000/svg">
<g clip-path="url(#clip0_11228_3074)">
<path d="M32.7637 14.4978V26.4412C32.7637 28.868 31.5165 31.1227 29.4645 32.4129L19.8618 38.4522C19.6591 38.5812 19.3887 38.4337 19.3887 38.1941V33.9673C19.3887 33.273 19.7328 32.6279 20.3103 32.2409L26.4356 28.1553C27.2896 27.5839 27.8057 26.6255 27.8057 25.5995V17.3669C27.8057 16.7095 28.1559 16.1013 28.7272 15.7695L31.8421 13.9755C32.2537 13.7421 32.7637 14.037 32.7637 14.51V14.4978Z" fill="white"/>
<path d="M32.0202 10.9228L18.4548 18.7561C17.5025 19.3029 16.9189 20.3166 16.9189 21.4164V37.9184C16.9189 38.158 16.6608 38.3055 16.4581 38.1826L3.88795 30.8716C1.67006 29.5814 0.306152 27.216 0.306152 24.648V14.6582C0.306152 11.6478 1.90967 8.8647 4.52075 7.35948L15.9604 0.748821C16.5318 0.41706 17.2322 0.41706 17.8036 0.748821L20.6665 2.40149C21.2809 2.75782 21.2809 3.64252 20.6665 3.99886L7.00897 11.8813C6.05669 12.4281 5.47303 13.4418 5.47303 14.5415V24.0397C5.47303 25.1395 6.05669 26.1532 7.00897 26.7L11.537 29.3111C11.6353 29.3663 11.752 29.2988 11.752 29.1882V19.7514C11.752 17.8346 12.7718 16.0713 14.4307 15.1129L27.5537 7.53765C28.168 7.18131 28.9299 7.21203 29.5135 7.61138L32.0755 9.36234C32.6345 9.74325 32.6038 10.5788 32.014 10.9228H32.0202Z" fill="white"/>
<path d="M47.5386 9.21692H51.9196V21.116C51.9196 22.0926 52.0532 22.9633 52.3204 23.728C52.5876 24.4835 52.9838 25.1239 53.5089 25.649C54.0433 26.1742 54.7021 26.575 55.4852 26.8514C56.2684 27.1186 57.1805 27.2522 58.2216 27.2522C59.2535 27.2522 60.161 27.1186 60.9442 26.8514C61.7365 26.575 62.3953 26.1742 62.9205 25.649C63.4548 25.1239 63.8556 24.4835 64.1228 23.728C64.39 22.9633 64.5236 22.0926 64.5236 21.116V9.21692H68.9046V21.6412C68.9046 23.0601 68.665 24.3499 68.1859 25.5108C67.7068 26.6717 67.0112 27.6668 66.0991 28.496C65.187 29.3252 64.0675 29.9655 62.7408 30.417C61.4233 30.8685 59.9169 31.0942 58.2216 31.0942C56.5263 31.0942 55.0153 30.8685 53.6886 30.417C52.3711 29.9655 51.2562 29.3252 50.3441 28.496C49.432 27.6668 48.7364 26.6717 48.2573 25.5108C47.7782 24.3499 47.5386 23.0601 47.5386 21.6412V9.21692Z" fill="white"/>
<path d="M71.9312 9.21692H76.3398V30.8178H71.9312V9.21692Z" fill="white"/>
<path d="M78.3989 22.733C78.3989 21.4339 78.6431 20.2638 79.1314 19.2227C79.6197 18.1723 80.2923 17.2786 81.1491 16.5416C82.0152 15.7953 83.0379 15.224 84.2172 14.8279C85.4057 14.4225 86.691 14.2198 88.073 14.2198C88.6627 14.2198 89.2431 14.2566 89.8144 14.3303C90.3948 14.404 90.9476 14.5054 91.4728 14.6344C92.0072 14.7634 92.5047 14.92 92.9654 15.1043C93.4353 15.2793 93.8499 15.4728 94.2092 15.6847V7.89014H98.2999V30.8178H94.2092V29.2837C93.8499 29.5325 93.426 29.7674 92.9377 29.9886C92.4494 30.2097 91.9242 30.4032 91.3622 30.569C90.8002 30.7348 90.2152 30.8638 89.6071 30.956C89.0082 31.0573 88.4139 31.108 87.8243 31.108C86.4423 31.108 85.1708 30.9053 84.0099 30.4999C82.8582 30.0945 81.8678 29.5233 81.0386 28.7862C80.2094 28.0491 79.5598 27.1692 79.0899 26.1466C78.6293 25.1147 78.3989 23.9768 78.3989 22.733ZM82.697 22.733C82.697 23.3871 82.826 24.0044 83.084 24.5849C83.3511 25.1653 83.7289 25.6767 84.2172 26.1189C84.7147 26.5519 85.309 26.8975 86 27.1554C86.7002 27.4042 87.4834 27.5286 88.3494 27.5286C88.9022 27.5286 89.455 27.4779 90.0079 27.3766C90.5607 27.266 91.0904 27.114 91.5972 26.9205C92.1131 26.727 92.5922 26.4921 93.0345 26.2157C93.4859 25.9393 93.8775 25.6306 94.2092 25.2897V19.6373C93.7946 19.3056 93.3569 19.0246 92.8963 18.7942C92.4356 18.5639 91.9657 18.375 91.4866 18.2276C91.0075 18.0802 90.5238 17.9742 90.0355 17.9097C89.5472 17.836 89.0727 17.7992 88.612 17.7992C87.6722 17.7992 86.8338 17.9282 86.0967 18.1861C85.3689 18.4349 84.7516 18.7804 84.2448 19.2227C83.7473 19.6649 83.365 20.1855 83.0978 20.7843C82.8306 21.3832 82.697 22.0328 82.697 22.733Z" fill="white"/>
<path d="M100.774 22.6086C100.774 21.503 100.999 20.448 101.451 19.4438C101.902 18.4303 102.552 17.5366 103.399 16.7627C104.247 15.9887 105.284 15.3714 106.509 14.9108C107.744 14.4501 109.144 14.2198 110.71 14.2198C112.267 14.2198 113.668 14.4547 114.912 14.9246C116.165 15.3853 117.224 16.021 118.09 16.8318C118.966 17.6426 119.634 18.5961 120.094 19.6925C120.564 20.7889 120.799 21.9637 120.799 23.2167C120.799 23.3733 120.794 23.5438 120.785 23.728C120.785 23.9031 120.776 24.0643 120.758 24.2117H105.334C105.509 24.7 105.79 25.1469 106.177 25.5523C106.574 25.9577 107.066 26.3078 107.656 26.6026C108.246 26.8975 108.928 27.1278 109.701 27.2936C110.475 27.4503 111.332 27.5286 112.272 27.5286C113.212 27.5286 114.147 27.4318 115.078 27.2383C116.008 27.0357 116.897 26.7823 117.745 26.4782L119.127 29.6016C118.592 29.8504 118.049 30.0715 117.496 30.265C116.952 30.4492 116.381 30.6059 115.782 30.7348C115.193 30.8546 114.571 30.9468 113.917 31.0113C113.272 31.0757 112.59 31.108 111.871 31.108C110.038 31.108 108.43 30.8869 107.048 30.4446C105.666 30.0024 104.51 29.3989 103.579 28.6342C102.649 27.8695 101.948 26.9712 101.478 25.9393C101.009 24.9074 100.774 23.7971 100.774 22.6086ZM116.46 21.0193C116.312 20.5678 116.082 20.1486 115.769 19.7616C115.464 19.3655 115.082 19.0246 114.621 18.739C114.161 18.4441 113.626 18.2138 113.018 18.0479C112.41 17.8821 111.742 17.7992 111.014 17.7992C110.24 17.7992 109.536 17.8867 108.9 18.0618C108.264 18.2368 107.707 18.4718 107.228 18.7666C106.749 19.0614 106.348 19.4023 106.025 19.7893C105.712 20.1763 105.482 20.5862 105.334 21.0193H116.46Z" fill="white"/>
<path d="M122.457 22.7053C122.457 21.5076 122.674 20.3928 123.107 19.3609C123.549 18.3197 124.19 17.4214 125.028 16.6659C125.876 15.9012 126.908 15.3023 128.124 14.8693C129.349 14.4363 130.745 14.2198 132.311 14.2198C132.993 14.2198 133.679 14.2612 134.37 14.3441C135.061 14.4271 135.725 14.5468 136.361 14.7035C137.005 14.8509 137.609 15.0305 138.171 15.2425C138.733 15.4452 139.221 15.6709 139.636 15.9196L137.743 19.0015C136.849 18.5869 136.001 18.2829 135.2 18.0894C134.407 17.8959 133.601 17.7992 132.781 17.7992C131.841 17.7992 130.998 17.9236 130.252 18.1723C129.506 18.4119 128.87 18.7528 128.345 19.195C127.829 19.6281 127.433 20.144 127.156 20.7429C126.889 21.3325 126.756 21.9775 126.756 22.6777C126.756 23.3779 126.898 24.0275 127.184 24.6263C127.479 25.216 127.889 25.7273 128.414 26.1604C128.948 26.5842 129.589 26.9205 130.335 27.1692C131.09 27.4088 131.929 27.5286 132.85 27.5286C133.864 27.5286 134.817 27.3858 135.711 27.1001C136.614 26.8145 137.452 26.4322 138.226 25.9531L140.12 29.035C139.631 29.3298 139.102 29.6062 138.53 29.8642C137.959 30.1129 137.346 30.3295 136.692 30.5137C136.047 30.698 135.365 30.8408 134.647 30.9422C133.937 31.0527 133.2 31.108 132.436 31.108C130.879 31.108 129.483 30.8961 128.248 30.4723C127.014 30.0484 125.968 29.4634 125.111 28.7171C124.254 27.9616 123.595 27.0725 123.135 26.0498C122.683 25.0271 122.457 23.9123 122.457 22.7053Z" fill="white"/>
<path d="M142.773 7.89014H146.864V21.4339L154.493 14.51H160.753L152.226 22.1387L161.292 30.8178H155.156L149.089 24.9442L146.864 26.9343V30.8178H142.773V7.89014Z" fill="white"/>
</g>
<defs>
<clipPath id="clip0_11228_3074">
<rect width="161" height="38" fill="white" transform="translate(0.306152 0.5)"/>
</clipPath>
</defs>
</svg>
