<svg width="174" height="35" viewBox="0 0 174 35" fill="none" xmlns="http://www.w3.org/2000/svg">
<g clip-path="url(#clip0_8814_10664)">
<path d="M48.6992 28.2965C48.6992 29.2858 49.5011 30.0876 50.4902 30.0876C51.4795 30.0876 52.2814 29.2858 52.2814 28.2965V9.65629C52.2814 8.66712 51.4795 7.86523 50.4902 7.86523C49.5011 7.86523 48.6992 8.66712 48.6992 9.65629V28.2965Z" fill="#343C54"/>
<path d="M59.1759 28.2967C59.1759 29.2859 58.374 30.0878 57.3849 30.0878C56.3956 30.0878 55.5938 29.2859 55.5938 28.2967V15.2949C55.5938 14.3058 56.3956 13.5039 57.3849 13.5039C58.374 13.5039 59.1759 14.3058 59.1759 15.2949V28.2967Z" fill="#343C54"/>
<path d="M98.7061 28.2967C98.7061 29.2859 99.5079 30.0878 100.497 30.0878C101.486 30.0878 102.288 29.2859 102.288 28.2967V15.2949C102.288 14.3058 101.486 13.5039 100.497 13.5039C99.5079 13.5039 98.7061 14.3058 98.7061 15.2949V28.2967Z" fill="#343C54"/>
<path d="M112.812 30.4528C111.087 30.4528 109.628 30.0879 108.433 29.3582C107.239 28.6286 106.322 27.6225 105.681 26.3401C105.061 25.0575 104.752 23.565 104.752 21.8624C104.752 20.1598 105.072 18.6672 105.714 17.3848C106.377 16.0802 107.317 15.0741 108.533 14.3665C109.749 13.6368 111.22 13.272 112.944 13.272C114.404 13.272 115.686 13.5484 116.792 14.1011C117.897 14.6539 118.749 15.4279 119.346 16.4229C119.74 17.0563 119.981 17.7347 120.119 18.4391C120.307 19.401 119.48 20.204 118.5 20.204C117.52 20.204 116.81 19.3781 116.48 18.4552C116.331 18.0369 116.095 17.6558 115.73 17.3515C115.089 16.7767 114.083 16.4892 112.712 16.4892C111.12 16.4892 109.981 16.9425 109.296 17.8491C108.633 18.7336 108.301 20.0603 108.301 21.8292C108.301 23.6204 108.633 24.9691 109.296 25.8757C109.981 26.7601 111.12 27.2024 112.712 27.2024C114.083 27.2024 115.089 26.9261 115.73 26.3732C116.088 26.0633 116.322 25.6834 116.473 25.2682C116.808 24.347 117.52 23.5208 118.5 23.5208C119.48 23.5208 120.306 24.3244 120.11 25.2847C119.969 25.9758 119.728 26.6415 119.346 27.2687C118.727 28.2637 117.853 29.0487 116.725 29.6237C115.62 30.1765 114.315 30.4528 112.812 30.4528Z" fill="#343C54"/>
<path fill-rule="evenodd" clip-rule="evenodd" d="M126.316 29.3578C127.554 30.0654 129.014 30.4192 130.694 30.4192C132.375 30.4192 133.812 30.0654 135.006 29.3578C136.222 28.6281 137.152 27.6221 137.792 26.3396C138.455 25.0349 138.788 23.5313 138.788 21.8287C138.788 20.1261 138.455 18.6336 137.792 17.3511C137.152 16.0686 136.222 15.0736 135.006 14.366C133.812 13.6363 132.375 13.2715 130.694 13.2715C129.014 13.2715 127.554 13.6363 126.316 14.366C125.078 15.0736 124.127 16.0686 123.464 17.3511C122.801 18.6336 122.469 20.1261 122.469 21.8287C122.469 23.5313 122.801 25.0349 123.464 26.3396C124.127 27.6221 125.078 28.6281 126.316 29.3578ZM134.31 25.9415C133.625 26.804 132.419 27.2351 130.694 27.2351C128.948 27.2351 127.731 26.804 127.046 25.9415C126.36 25.057 126.018 23.6862 126.018 21.8287C126.018 19.9714 126.36 18.6115 127.046 17.7491C127.731 16.8868 128.948 16.4555 130.694 16.4555C132.419 16.4555 133.625 16.8868 134.31 17.7491C134.995 18.6115 135.338 19.9714 135.338 21.8287C135.338 23.6862 134.995 25.057 134.31 25.9415Z" fill="#343C54"/>
<path d="M156.822 28.2964C156.822 29.2856 156.02 30.0875 155.031 30.0875C154.042 30.0875 153.24 29.2856 153.24 28.2964V20.5021C153.24 19.0427 152.963 17.9923 152.41 17.3511C151.858 16.6878 150.818 16.356 149.292 16.356C148.319 16.356 147.524 16.4997 146.905 16.7873C146.286 17.0526 145.822 17.4949 145.512 18.114C145.202 18.7111 145.048 19.5291 145.048 20.5684V28.2964C145.048 29.2856 144.246 30.0875 143.256 30.0875C142.267 30.0875 141.466 29.2856 141.466 28.2964V15.245C141.466 14.3383 142.201 13.6032 143.107 13.6032C144.013 13.6032 144.749 14.3383 144.749 15.245V16.6878H144.914C145.157 16.0907 145.522 15.5379 146.009 15.0294C146.495 14.5208 147.115 14.1007 147.867 13.769C148.641 13.4373 149.558 13.2715 150.62 13.2715C152.057 13.2715 153.229 13.5479 154.135 14.1007C155.042 14.6534 155.716 15.4163 156.159 16.3892C156.601 17.3622 156.822 18.4788 156.822 19.7392V28.2964Z" fill="#343C54"/>
<path d="M167.086 30.4197C164.676 30.4197 162.852 29.9442 161.614 28.9934C160.687 28.265 160.173 27.2572 159.932 26.162C159.727 25.2318 160.528 24.4494 161.482 24.4494C162.434 24.4494 163.052 25.2628 163.387 26.1545C163.428 26.2631 163.477 26.3693 163.537 26.4727C163.781 26.8266 164.179 27.0919 164.731 27.2687C165.307 27.4235 166.114 27.5009 167.153 27.5009C168.037 27.5009 168.701 27.4346 169.143 27.3019C169.608 27.1471 169.918 26.9371 170.072 26.6717C170.226 26.4064 170.305 26.0748 170.305 25.6767C170.305 25.0133 170.072 24.5489 169.608 24.2836C169.143 23.9962 168.314 23.742 167.12 23.5208L164.533 23.0896C163.56 22.8907 162.708 22.6142 161.979 22.2605C161.271 21.8845 160.718 21.376 160.32 20.7347C159.945 20.0714 159.757 19.2422 159.757 18.2472C159.757 16.7657 160.343 15.5716 161.514 14.665C162.686 13.7363 164.346 13.272 166.49 13.272C167.794 13.272 168.955 13.482 169.973 13.9021C170.99 14.3223 171.797 14.9524 172.393 15.7928C172.776 16.3318 173.005 16.9246 173.136 17.544C173.329 18.4673 172.524 19.2422 171.581 19.2422C170.638 19.2422 170.012 18.4304 169.643 17.5621C169.631 17.5361 169.619 17.5102 169.608 17.4843C169.431 17.0862 169.099 16.7767 168.613 16.5555C168.126 16.3344 167.386 16.2239 166.391 16.2239C165.086 16.2239 164.224 16.3897 163.803 16.7214C163.383 17.0531 163.173 17.5396 163.173 18.1807C163.173 18.822 163.361 19.2753 163.737 19.5406C164.135 19.7838 164.909 20.0271 166.059 20.2703L168.878 20.8011C169.94 21 170.824 21.2985 171.531 21.6966C172.239 22.0945 172.77 22.6142 173.123 23.2555C173.499 23.8967 173.688 24.6596 173.688 25.544C173.688 27.0919 173.102 28.2969 171.929 29.1593C170.779 29.9995 169.166 30.4197 167.086 30.4197Z" fill="#343C54"/>
<path fill-rule="evenodd" clip-rule="evenodd" d="M88.5168 30.4192C86.7258 30.4192 85.2332 30.0654 84.0392 29.3578C82.8451 28.6281 81.9607 27.6221 81.3857 26.3396C80.8109 25.0349 80.5234 23.5313 80.5234 21.8287C80.5234 20.1261 80.8441 18.6336 81.4852 17.3511C82.1486 16.0686 83.0774 15.0736 84.2714 14.366C85.4653 13.6363 86.8805 13.2715 88.5168 13.2715C89.9983 13.2715 91.3029 13.5589 92.4306 14.1339C93.5805 14.6866 94.4649 15.4937 95.0841 16.5551C95.7252 17.6165 96.0459 18.899 96.0459 20.4026C96.0459 20.6968 96.0396 20.9955 96.0247 21.2945C95.9842 22.1041 95.2858 22.6911 94.4752 22.6911H83.8841C83.9204 23.5699 84.0495 24.3327 84.2714 24.9797C84.5588 25.7315 85.0453 26.2953 85.7308 26.6712C86.4162 27.0472 87.356 27.2351 88.55 27.2351C89.943 27.2351 90.927 27.014 91.5019 26.5717C91.6451 26.4616 91.7666 26.3425 91.869 26.2155C92.4842 25.4526 93.1588 24.5485 94.1387 24.5485C95.1187 24.5485 95.9601 25.3598 95.7009 26.3048C95.5564 26.8313 95.3279 27.3329 94.9845 27.799C94.3654 28.6171 93.5031 29.2584 92.3974 29.7226C91.314 30.187 90.0204 30.4192 88.5168 30.4192ZM84.8352 17.5833C84.3202 18.2759 84.012 19.1825 83.9106 20.303H92.6185C92.6579 19.4359 92.54 18.7172 92.2648 18.1472C91.9774 17.5059 91.5019 17.0305 90.8385 16.7209C90.1973 16.4113 89.3902 16.2566 88.4173 16.2566C86.6705 16.2566 85.4765 16.6988 84.8352 17.5833Z" fill="#343C54"/>
<path d="M74.2403 28.2969C74.2403 29.2861 75.0422 30.0879 76.0313 30.0879C77.0206 30.0879 77.8224 29.2861 77.8224 28.2969V19.7396C77.8224 18.4793 77.6013 17.3627 77.1591 16.3897C76.7168 15.4168 76.0424 14.6539 75.1358 14.1011C74.2293 13.5484 73.0573 13.272 71.6201 13.272C70.5587 13.272 69.641 13.4378 68.8671 13.7695C68.1153 14.1011 67.4963 14.5213 67.0098 15.0299C66.5233 15.5384 66.1585 16.0912 65.9153 16.6883H65.7494V15.2455C65.7494 14.3387 65.0143 13.6037 64.1076 13.6037C63.2009 13.6037 62.4658 14.3387 62.4658 15.2455V28.2969C62.4658 29.2861 63.2677 30.0879 64.2568 30.0879C65.246 30.0879 66.0479 29.2861 66.0479 28.2969V20.5689C66.0479 19.5296 66.2027 18.7115 66.5122 18.1144C66.8217 17.4954 67.2861 17.0531 67.9053 16.7878C68.5244 16.5002 69.3205 16.3565 70.2934 16.3565C71.8191 16.3565 72.8583 16.6883 73.4111 17.3515C73.964 17.9928 74.2403 19.0432 74.2403 20.5026V28.2969Z" fill="#343C54"/>
<path d="M59.4464 9.73827C59.4464 10.8896 58.5131 11.8229 57.3618 11.8229C56.218 11.8229 55.2877 10.9011 55.2774 9.75722L55.2765 9.66016C55.2659 8.50125 56.2024 7.55615 57.3614 7.55615C58.513 7.55615 59.4464 8.48966 59.4464 9.6412V9.73827Z" fill="#343C54"/>
<path d="M102.545 9.73827C102.545 10.8896 101.612 11.8229 100.461 11.8229C99.3166 11.8229 98.3865 10.9011 98.376 9.75722L98.3751 9.66016C98.3646 8.50125 99.3012 7.55615 100.46 7.55615C101.612 7.55615 102.545 8.48966 102.545 9.6412V9.73827Z" fill="#343C54"/>
<path d="M10.0501 9.3753C9.63547 8.96071 9.02187 8.77829 8.44144 8.92755C7.861 9.06021 7.39665 9.4914 7.21424 10.0718L0.0831771 32.2775C-0.115829 32.8912 0.0500094 33.5545 0.497773 34.0023C0.82945 34.334 1.26063 34.4998 1.7084 34.4998C1.87424 34.4998 2.05666 34.4666 2.22249 34.4169L24.4448 27.2858C25.0087 27.1034 25.4398 26.639 25.5892 26.0587C25.7384 25.4782 25.556 24.8646 25.1414 24.45L10.0501 9.3753ZM4.34523 30.1715L9.60231 13.77L20.7467 24.9143L4.34523 30.1715Z" fill="#725CFF"/>
<path d="M19.2046 13.0565C19.3206 13.9189 20.0503 14.5491 20.8961 14.5491C21.6399 14.5491 22.3982 14.3804 23.1349 14.2837C25.2743 14.0018 26.8995 12.161 26.8828 10.0051V9.4744C26.8828 9.22564 26.9824 9.01005 27.1482 8.84421C27.314 8.67837 27.5462 8.57887 27.7784 8.57887H30.5976C31.5429 8.57887 32.3059 7.81601 32.3059 6.87073C32.3059 5.92545 31.5429 5.1626 30.5976 5.1626H27.7784C26.6341 5.1626 25.5562 5.61036 24.7436 6.42296C23.931 7.23558 23.4832 8.33012 23.4832 9.4744V10.0051C23.4832 10.4528 23.1515 10.8343 22.7037 10.884L20.6805 11.1494C19.7519 11.2655 19.0885 12.1278 19.2046 13.0565Z" fill="#725CFF"/>
<path d="M35.9037 15.445C31.5919 12.1448 26.9318 15.0636 25.0579 17.0702C24.4111 17.7501 24.4609 18.8281 25.1408 19.4748C25.8307 20.1302 26.9067 20.0792 27.5455 19.4085C27.6781 19.2593 30.912 15.9094 33.8308 18.1481C34.577 18.7286 35.655 18.5793 36.2188 17.8331C36.7992 17.0868 36.65 16.0089 35.9037 15.445Z" fill="#725CFF"/>
<path d="M17.2303 9.47504C19.1374 8.01567 21.0612 4.59939 18.557 1.19971C17.9931 0.43685 16.9318 0.271012 16.1688 0.834863C15.4061 1.39871 15.2402 2.46007 15.804 3.22294C17.1142 4.9974 15.6216 6.40703 15.1407 6.78847C14.3944 7.3689 14.2617 8.43026 14.8256 9.17654C15.4091 9.93499 16.4814 10.0269 17.2303 9.47504Z" fill="#725CFF"/>
</g>
<defs>
<clipPath id="clip0_8814_10664">
<rect width="173.923" height="34" fill="white" transform="translate(0 0.5)"/>
</clipPath>
</defs>
</svg>
