<svg width="187" height="35" viewBox="0 0 187 35" fill="none" xmlns="http://www.w3.org/2000/svg">
<path d="M47.439 10.2484H54.1086V29.3535H58.098V10.2484H64.7676V6.57069H47.439V10.2484Z" fill="#101828"/>
<path d="M69.2201 29.7587C71.6199 29.7587 73.7081 28.6679 74.3626 27.0784L74.6431 29.3535H77.9779V20.0035C77.9779 15.7337 75.4222 13.4897 71.2771 13.4897C67.1007 13.4897 64.3581 15.6714 64.3581 19.0062H67.5994C67.5994 17.3855 68.8461 16.4505 71.0901 16.4505C73.0224 16.4505 74.2691 17.292 74.2691 19.3802V19.723L69.6564 20.0659C66.0099 20.3464 63.9529 22.1229 63.9529 24.959C63.9529 27.8575 65.9476 29.7587 69.2201 29.7587ZM70.4667 26.8914C68.7526 26.8914 67.8176 26.2057 67.8176 24.8032C67.8176 23.5565 68.7214 22.7774 71.0901 22.5592L74.3002 22.3099V23.1202C74.3002 25.4889 72.8042 26.8914 70.4667 26.8914Z" fill="#101828"/>
<path d="M83.6145 10.8717C84.8611 10.8717 85.8896 9.84319 85.8896 8.56536C85.8896 7.28753 84.8611 6.29019 83.6145 6.29019C82.3055 6.29019 81.277 7.28753 81.277 8.56536C81.277 9.84319 82.3055 10.8717 83.6145 10.8717ZM81.7133 29.3535H85.5156V13.9572H81.7133V29.3535Z" fill="#101828"/>
<path d="M93.2776 29.3535V6.16553H89.5064V29.3535H93.2776Z" fill="#101828"/>
<path d="M99.7907 29.3535L101.63 24.0864H110.138L111.977 29.3535H116.184L107.956 6.57069H103.874L95.6455 29.3535H99.7907ZM105.401 13.365C105.619 12.7417 105.806 12.056 105.899 11.6197C105.962 12.0872 106.18 12.7729 106.367 13.365L108.985 20.7204H102.814L105.401 13.365Z" fill="#101828"/>
<path d="M124.107 29.7587C126.445 29.7587 128.439 28.7302 129.374 26.9537L129.624 29.3535H133.114V6.16553H129.343V15.9207C128.377 14.3935 126.476 13.4897 124.325 13.4897C119.681 13.4897 116.876 16.918 116.876 21.7177C116.876 26.4862 119.65 29.7587 124.107 29.7587ZM124.949 26.268C122.299 26.268 120.679 24.3357 120.679 21.593C120.679 18.8504 122.299 16.8869 124.949 16.8869C127.598 16.8869 129.312 18.8192 129.312 21.593C129.312 24.3669 127.598 26.268 124.949 26.268Z" fill="#101828"/>
<path d="M140.879 29.3535V20.6269C140.879 18.1335 142.344 16.9492 144.152 16.9492C145.959 16.9492 147.112 18.1024 147.112 20.2529V29.3535H150.915V20.6269C150.915 18.1024 152.317 16.918 154.156 16.918C155.964 16.918 157.148 18.0712 157.148 20.284V29.3535H160.919V19.2867C160.919 15.7337 158.862 13.4897 155.122 13.4897C152.785 13.4897 150.977 14.6429 150.198 16.4194C149.388 14.6429 147.767 13.4897 145.429 13.4897C143.217 13.4897 141.658 14.487 140.879 15.7649L140.567 13.9572H137.077V29.3535H140.879Z" fill="#101828"/>
<path d="M166.553 10.8717C167.8 10.8717 168.828 9.84319 168.828 8.56536C168.828 7.28753 167.8 6.29019 166.553 6.29019C165.244 6.29019 164.216 7.28753 164.216 8.56536C164.216 9.84319 165.244 10.8717 166.553 10.8717ZM164.652 29.3535H168.454V13.9572H164.652V29.3535Z" fill="#101828"/>
<path d="M176.185 29.3535V21.0632C176.185 18.5699 177.619 16.9492 179.956 16.9492C181.92 16.9492 183.198 18.1959 183.198 20.7827V29.3535H187V19.8789C187 15.8895 185.005 13.4897 181.141 13.4897C179.052 13.4897 177.182 14.3935 176.216 15.9519L175.905 13.9572H172.383V29.3535H176.185Z" fill="#101828"/>
<path d="M0.688965 9.44737C0.688965 4.50587 4.69484 0.5 9.63634 0.5H25.7416C30.6831 0.5 34.689 4.50587 34.689 9.44737V25.5526C34.689 30.4941 30.6831 34.5 25.7416 34.5H9.63634C4.69484 34.5 0.688965 30.4941 0.688965 25.5526V9.44737Z" fill="#465FFF"/>
<g filter="url(#filter0_d_8814_10819)">
<path d="M9.63623 9.44914C9.63623 8.46084 10.4374 7.65967 11.4257 7.65967C12.414 7.65967 13.2152 8.46084 13.2152 9.44914V25.5544C13.2152 26.5427 12.414 27.3439 11.4257 27.3439C10.4374 27.3439 9.63623 26.5427 9.63623 25.5544V9.44914Z" fill="white"/>
</g>
<g opacity="0.9" filter="url(#filter1_d_8814_10819)">
<path d="M16.3472 16.6044C16.3472 15.6161 17.1483 14.8149 18.1366 14.8149C19.1249 14.8149 19.9261 15.6161 19.9261 16.6044V25.5518C19.9261 26.5401 19.1249 27.3413 18.1366 27.3413C17.1483 27.3413 16.3472 26.5401 16.3472 25.5518V16.6044Z" fill="white"/>
</g>
<g opacity="0.7" filter="url(#filter2_d_8814_10819)">
<path d="M23.0562 12.1303C23.0562 11.142 23.8573 10.3408 24.8456 10.3408C25.8339 10.3408 26.6351 11.142 26.6351 12.1303V25.5513C26.6351 26.5396 25.8339 27.3408 24.8456 27.3408C23.8573 27.3408 23.0562 26.5396 23.0562 25.5513V12.1303Z" fill="white"/>
</g>
<defs>
<filter id="filter0_d_8814_10819" x="8.45752" y="7.07031" width="5.93628" height="22.0415" filterUnits="userSpaceOnUse" color-interpolation-filters="sRGB">
<feFlood flood-opacity="0" result="BackgroundImageFix"/>
<feColorMatrix in="SourceAlpha" type="matrix" values="0 0 0 0 0 0 0 0 0 0 0 0 0 0 0 0 0 0 127 0" result="hardAlpha"/>
<feOffset dy="0.589356"/>
<feGaussianBlur stdDeviation="0.589356"/>
<feComposite in2="hardAlpha" operator="out"/>
<feColorMatrix type="matrix" values="0 0 0 0 0 0 0 0 0 0 0 0 0 0 0 0 0 0 0.12 0"/>
<feBlend mode="normal" in2="BackgroundImageFix" result="effect1_dropShadow_8814_10819"/>
<feBlend mode="normal" in="SourceGraphic" in2="effect1_dropShadow_8814_10819" result="shape"/>
</filter>
<filter id="filter1_d_8814_10819" x="15.1685" y="14.2256" width="5.93628" height="14.8838" filterUnits="userSpaceOnUse" color-interpolation-filters="sRGB">
<feFlood flood-opacity="0" result="BackgroundImageFix"/>
<feColorMatrix in="SourceAlpha" type="matrix" values="0 0 0 0 0 0 0 0 0 0 0 0 0 0 0 0 0 0 127 0" result="hardAlpha"/>
<feOffset dy="0.589356"/>
<feGaussianBlur stdDeviation="0.589356"/>
<feComposite in2="hardAlpha" operator="out"/>
<feColorMatrix type="matrix" values="0 0 0 0 0 0 0 0 0 0 0 0 0 0 0 0 0 0 0.12 0"/>
<feBlend mode="normal" in2="BackgroundImageFix" result="effect1_dropShadow_8814_10819"/>
<feBlend mode="normal" in="SourceGraphic" in2="effect1_dropShadow_8814_10819" result="shape"/>
</filter>
<filter id="filter2_d_8814_10819" x="21.8774" y="9.75146" width="5.93628" height="19.3574" filterUnits="userSpaceOnUse" color-interpolation-filters="sRGB">
<feFlood flood-opacity="0" result="BackgroundImageFix"/>
<feColorMatrix in="SourceAlpha" type="matrix" values="0 0 0 0 0 0 0 0 0 0 0 0 0 0 0 0 0 0 127 0" result="hardAlpha"/>
<feOffset dy="0.589356"/>
<feGaussianBlur stdDeviation="0.589356"/>
<feComposite in2="hardAlpha" operator="out"/>
<feColorMatrix type="matrix" values="0 0 0 0 0 0 0 0 0 0 0 0 0 0 0 0 0 0 0.12 0"/>
<feBlend mode="normal" in2="BackgroundImageFix" result="effect1_dropShadow_8814_10819"/>
<feBlend mode="normal" in="SourceGraphic" in2="effect1_dropShadow_8814_10819" result="shape"/>
</filter>
</defs>
</svg>
