<svg width="160" height="41" viewBox="0 0 160 41" fill="none" xmlns="http://www.w3.org/2000/svg">
<g clip-path="url(#clip0_8814_10814)">
<path opacity="0.56" d="M15.4812 3.41667C15.4812 1.52896 17.021 0 18.9221 0H20.6425C32.0447 0 41.2877 9.17802 41.2877 20.5V37.5833C41.2877 39.471 39.7479 41 37.8469 41H36.1264C24.7243 41 15.4812 31.822 15.4812 20.5V3.41667Z" fill="#4A6CF7"/>
<path opacity="0.88" d="M17.2019 41.0002C26.7036 41.0002 34.4062 33.3517 34.4062 23.9169C34.4062 14.482 26.7036 6.8335 17.2019 6.8335C7.70019 6.8335 -0.00244141 14.482 -0.00244141 23.9169C-0.00244141 33.3517 7.70019 41.0002 17.2019 41.0002Z" fill="#4A6CF7"/>
<path d="M64.8158 32.5732H70.5561L62.4971 10.25H56.2219L48.1694 32.5732H53.8438L55.178 28.63H63.4812L64.8158 32.5732ZM62.0877 24.4325H56.6051L59.3264 16.2601L62.0877 24.4325ZM81.1518 25.9271L77.0627 14.8291H71.0055L78.2055 31.969L74.1432 41H79.9823L91.0799 14.8291H85.2141L81.1518 25.9271ZM98.4584 24.3371C98.4584 21.2844 99.9513 20.394 102.522 20.394H104.008V14.6383C101.63 14.6383 99.6937 15.9103 98.4584 17.7864V14.8291H93.0352V32.5732H98.4584V24.3371ZM123.911 23.7011C123.911 18.0726 119.921 14.5747 114.716 14.5747C109.55 14.5747 105.52 18.0726 105.52 23.7011C105.52 29.3296 109.458 32.8275 114.656 32.8275C119.855 32.8275 123.911 29.3296 123.911 23.7011ZM111.043 23.7011C111.043 20.6802 112.754 19.281 114.716 19.281C116.618 19.281 118.395 20.6802 118.395 23.7011C118.395 26.6903 116.592 28.1213 114.656 28.1213C112.688 28.1213 111.043 26.6903 111.043 23.7011ZM135.656 24.4007C135.656 30.1564 139.395 32.7958 143.966 32.7958C148.53 32.7958 152.302 30.1564 152.302 24.4007V10.409H149.416V24.4325C149.416 28.5029 147.262 30.2518 143.992 30.2518C140.729 30.2518 138.542 28.5029 138.542 24.4325V10.409H135.656V24.4007ZM157.118 32.5732H159.998V10.409H157.118V32.5732Z" fill="#2D2D2D"/>
</g>
<defs>
<clipPath id="clip0_8814_10814">
<rect width="160" height="41" fill="white" transform="translate(-0.00244141)"/>
</clipPath>
</defs>
</svg>
