<svg width="162" height="39" viewBox="0 0 162 39" fill="none" xmlns="http://www.w3.org/2000/svg">
<g clip-path="url(#clip0_8814_10800)">
<path d="M32.7637 14.4979V26.4413C32.7637 28.8681 31.5165 31.1228 29.4645 32.413L19.8618 38.4523C19.6591 38.5813 19.3887 38.4338 19.3887 38.1942V33.9674C19.3887 33.2731 19.7328 32.628 20.3103 32.241L26.4356 28.1554C27.2896 27.584 27.8057 26.6256 27.8057 25.5996V17.367C27.8057 16.7096 28.1559 16.1014 28.7272 15.7696L31.8421 13.9756C32.2537 13.7422 32.7637 14.0371 32.7637 14.5101V14.4979Z" fill="#625DF5"/>
<path d="M32.0202 10.9228L18.4548 18.7561C17.5025 19.3029 16.9189 20.3166 16.9189 21.4164V37.9184C16.9189 38.158 16.6608 38.3055 16.4581 38.1826L3.88795 30.8716C1.67006 29.5814 0.306152 27.216 0.306152 24.648V14.6582C0.306152 11.6478 1.90967 8.8647 4.52075 7.35948L15.9604 0.748821C16.5318 0.41706 17.2322 0.41706 17.8036 0.748821L20.6665 2.40149C21.2809 2.75782 21.2809 3.64252 20.6665 3.99886L7.00897 11.8813C6.05669 12.4281 5.47303 13.4418 5.47303 14.5415V24.0397C5.47303 25.1395 6.05669 26.1532 7.00897 26.7L11.537 29.3111C11.6353 29.3663 11.752 29.2988 11.752 29.1882V19.7514C11.752 17.8346 12.7718 16.0713 14.4307 15.1129L27.5537 7.53765C28.168 7.18131 28.9299 7.21203 29.5135 7.61138L32.0755 9.36234C32.6345 9.74325 32.6038 10.5788 32.014 10.9228H32.0202Z" fill="#625DF5"/>
<path d="M47.5386 9.2168H51.9196V21.1159C51.9196 22.0925 52.0532 22.9632 52.3204 23.7279C52.5876 24.4834 52.9838 25.1238 53.5089 25.6489C54.0433 26.1741 54.7021 26.5749 55.4852 26.8513C56.2684 27.1185 57.1805 27.2521 58.2216 27.2521C59.2535 27.2521 60.161 27.1185 60.9442 26.8513C61.7365 26.5749 62.3953 26.1741 62.9205 25.6489C63.4548 25.1238 63.8556 24.4834 64.1228 23.7279C64.39 22.9632 64.5236 22.0925 64.5236 21.1159V9.2168H68.9046V21.6411C68.9046 23.06 68.665 24.3498 68.1859 25.5107C67.7068 26.6716 67.0112 27.6667 66.0991 28.4959C65.187 29.3251 64.0675 29.9654 62.7408 30.4169C61.4233 30.8683 59.9169 31.0941 58.2216 31.0941C56.5263 31.0941 55.0153 30.8683 53.6886 30.4169C52.3711 29.9654 51.2562 29.3251 50.3441 28.4959C49.432 27.6667 48.7364 26.6716 48.2573 25.5107C47.7782 24.3498 47.5386 23.06 47.5386 21.6411V9.2168Z" fill="#101828"/>
<path d="M71.9312 9.2168H76.3398V30.8177H71.9312V9.2168Z" fill="#101828"/>
<path d="M78.3989 22.733C78.3989 21.4339 78.6431 20.2638 79.1314 19.2227C79.6197 18.1723 80.2923 17.2786 81.1491 16.5416C82.0152 15.7953 83.0379 15.224 84.2172 14.8279C85.4057 14.4225 86.691 14.2198 88.073 14.2198C88.6627 14.2198 89.2431 14.2566 89.8144 14.3303C90.3948 14.404 90.9476 14.5054 91.4728 14.6344C92.0072 14.7634 92.5047 14.92 92.9654 15.1043C93.4353 15.2793 93.8499 15.4728 94.2092 15.6847V7.89014H98.2999V30.8178H94.2092V29.2837C93.8499 29.5325 93.426 29.7674 92.9377 29.9886C92.4494 30.2097 91.9242 30.4032 91.3622 30.569C90.8002 30.7348 90.2152 30.8638 89.6071 30.956C89.0082 31.0573 88.4139 31.108 87.8243 31.108C86.4423 31.108 85.1708 30.9053 84.0099 30.4999C82.8582 30.0945 81.8678 29.5233 81.0386 28.7862C80.2094 28.0491 79.5598 27.1692 79.0899 26.1466C78.6293 25.1147 78.3989 23.9768 78.3989 22.733ZM82.697 22.733C82.697 23.3871 82.826 24.0044 83.084 24.5849C83.3511 25.1653 83.7289 25.6767 84.2172 26.1189C84.7147 26.5519 85.309 26.8975 86 27.1554C86.7002 27.4042 87.4834 27.5286 88.3494 27.5286C88.9022 27.5286 89.455 27.4779 90.0079 27.3766C90.5607 27.266 91.0904 27.114 91.5972 26.9205C92.1131 26.727 92.5922 26.4921 93.0345 26.2157C93.4859 25.9393 93.8775 25.6306 94.2092 25.2897V19.6373C93.7946 19.3056 93.3569 19.0246 92.8963 18.7942C92.4356 18.5639 91.9657 18.375 91.4866 18.2276C91.0075 18.0802 90.5238 17.9742 90.0355 17.9097C89.5472 17.836 89.0727 17.7992 88.612 17.7992C87.6722 17.7992 86.8338 17.9282 86.0967 18.1861C85.3689 18.4349 84.7516 18.7804 84.2448 19.2227C83.7473 19.6649 83.365 20.1855 83.0978 20.7843C82.8306 21.3832 82.697 22.0328 82.697 22.733Z" fill="#101828"/>
<path d="M100.774 22.6085C100.774 21.5029 100.999 20.4479 101.451 19.4437C101.902 18.4302 102.552 17.5365 103.399 16.7626C104.247 15.9886 105.284 15.3713 106.509 14.9107C107.744 14.45 109.144 14.2197 110.71 14.2197C112.267 14.2197 113.668 14.4546 114.912 14.9245C116.165 15.3852 117.224 16.0209 118.09 16.8317C118.966 17.6425 119.634 18.596 120.094 19.6924C120.564 20.7888 120.799 21.9636 120.799 23.2166C120.799 23.3732 120.794 23.5437 120.785 23.7279C120.785 23.903 120.776 24.0642 120.758 24.2116H105.334C105.509 24.6999 105.79 25.1468 106.177 25.5522C106.574 25.9576 107.066 26.3077 107.656 26.6025C108.246 26.8974 108.928 27.1277 109.701 27.2935C110.475 27.4502 111.332 27.5285 112.272 27.5285C113.212 27.5285 114.147 27.4317 115.078 27.2382C116.008 27.0356 116.897 26.7822 117.745 26.4781L119.127 29.6015C118.592 29.8503 118.049 30.0714 117.496 30.2649C116.952 30.4491 116.381 30.6058 115.782 30.7347C115.193 30.8545 114.571 30.9467 113.917 31.0112C113.272 31.0756 112.59 31.1079 111.871 31.1079C110.038 31.1079 108.43 30.8868 107.048 30.4445C105.666 30.0023 104.51 29.3988 103.579 28.6341C102.649 27.8694 101.948 26.9711 101.478 25.9392C101.009 24.9073 100.774 23.797 100.774 22.6085ZM116.46 21.0192C116.312 20.5677 116.082 20.1485 115.769 19.7615C115.464 19.3654 115.082 19.0245 114.621 18.7389C114.161 18.444 113.626 18.2137 113.018 18.0478C112.41 17.882 111.742 17.7991 111.014 17.7991C110.24 17.7991 109.536 17.8866 108.9 18.0617C108.264 18.2367 107.707 18.4717 107.228 18.7665C106.749 19.0613 106.348 19.4022 106.025 19.7892C105.712 20.1762 105.482 20.5861 105.334 21.0192H116.46Z" fill="#101828"/>
<path d="M122.457 22.7052C122.457 21.5075 122.674 20.3927 123.107 19.3608C123.549 18.3196 124.19 17.4213 125.028 16.6658C125.876 15.9011 126.908 15.3022 128.124 14.8692C129.349 14.4362 130.745 14.2197 132.311 14.2197C132.993 14.2197 133.679 14.2611 134.37 14.344C135.061 14.427 135.725 14.5467 136.361 14.7034C137.005 14.8508 137.609 15.0304 138.171 15.2424C138.733 15.4451 139.221 15.6708 139.636 15.9195L137.743 19.0014C136.849 18.5868 136.001 18.2828 135.2 18.0893C134.407 17.8958 133.601 17.7991 132.781 17.7991C131.841 17.7991 130.998 17.9235 130.252 18.1722C129.506 18.4118 128.87 18.7527 128.345 19.1949C127.829 19.628 127.433 20.1439 127.156 20.7428C126.889 21.3324 126.756 21.9774 126.756 22.6776C126.756 23.3778 126.898 24.0274 127.184 24.6262C127.479 25.2159 127.889 25.7272 128.414 26.1603C128.948 26.5841 129.589 26.9204 130.335 27.1691C131.09 27.4087 131.929 27.5285 132.85 27.5285C133.864 27.5285 134.817 27.3857 135.711 27.1C136.614 26.8144 137.452 26.4321 138.226 25.953L140.12 29.0349C139.631 29.3297 139.102 29.6061 138.53 29.8641C137.959 30.1128 137.346 30.3294 136.692 30.5136C136.047 30.6979 135.365 30.8407 134.647 30.9421C133.937 31.0526 133.2 31.1079 132.436 31.1079C130.879 31.1079 129.483 30.896 128.248 30.4722C127.014 30.0483 125.968 29.4633 125.111 28.717C124.254 27.9615 123.595 27.0724 123.135 26.0497C122.683 25.027 122.457 23.9122 122.457 22.7052Z" fill="#101828"/>
<path d="M142.773 7.89014H146.864V21.4339L154.493 14.51H160.753L152.226 22.1387L161.292 30.8178H155.156L149.089 24.9442L146.864 26.9343V30.8178H142.773V7.89014Z" fill="#101828"/>
</g>
<defs>
<clipPath id="clip0_8814_10800">
<rect width="161" height="38" fill="white" transform="translate(0.306152 0.5)"/>
</clipPath>
</defs>
</svg>
