<?xml version="1.0" encoding="UTF-8"?>
<svg xmlns="http://www.w3.org/2000/svg" xmlns:xlink="http://www.w3.org/1999/xlink" version="1.1" viewBox="0 0 221.7 53.2">
  <defs>
    <style>
      .cls-1 {
        fill: url(#_名称未設定グラデーション_11-6);
      }

      .cls-2 {
        fill: url(#_名称未設定グラデーション_11-3);
      }

      .cls-3 {
        fill: url(#_名称未設定グラデーション_11-8);
      }

      .cls-4 {
        fill: url(#_名称未設定グラデーション_11-5);
      }

      .cls-5 {
        fill: url(#_名称未設定グラデーション_11-7);
      }

      .cls-6 {
        fill: url(#_名称未設定グラデーション_11-9);
      }

      .cls-7 {
        fill: url(#_名称未設定グラデーション_11-2);
      }

      .cls-8 {
        fill: url(#_名称未設定グラデーション_11-4);
      }

      .cls-9 {
        fill: url(#_名称未設定グラデーション_11-10);
      }

      .cls-10 {
        fill: #3758f9;
      }

      .cls-11 {
        fill: url(#_名称未設定グラデーション_11);
      }
    </style>
    <linearGradient id="_名称未設定グラデーション_11" data-name="名称未設定グラデーション 11" x1="23.1" y1="36.6" x2="215" y2="36.6" gradientUnits="userSpaceOnUse">
      <stop offset="0" stop-color="#3758f9"/>
      <stop offset="1" stop-color="#cc52a9"/>
    </linearGradient>
    <linearGradient id="_名称未設定グラデーション_11-2" data-name="名称未設定グラデーション 11" x1="23.1" y1="36.9" x2="215" y2="36.9" xlink:href="#_名称未設定グラデーション_11"/>
    <linearGradient id="_名称未設定グラデーション_11-3" data-name="名称未設定グラデーション 11" x1="23.1" y1="37.2" x2="215" y2="37.2" xlink:href="#_名称未設定グラデーション_11"/>
    <linearGradient id="_名称未設定グラデーション_11-4" data-name="名称未設定グラデーション 11" x1="23.1" y1="36.9" x2="215" y2="36.9" xlink:href="#_名称未設定グラデーション_11"/>
    <linearGradient id="_名称未設定グラデーション_11-5" data-name="名称未設定グラデーション 11" x1="23.1" y1="36.9" x2="215" y2="36.9" xlink:href="#_名称未設定グラデーション_11"/>
    <linearGradient id="_名称未設定グラデーション_11-6" data-name="名称未設定グラデーション 11" x1="23.1" y1="37.2" x2="215" y2="37.2" xlink:href="#_名称未設定グラデーション_11"/>
    <linearGradient id="_名称未設定グラデーション_11-7" data-name="名称未設定グラデーション 11" x1="23.1" y1="38.3" x2="215" y2="38.3" xlink:href="#_名称未設定グラデーション_11"/>
    <linearGradient id="_名称未設定グラデーション_11-8" data-name="名称未設定グラデーション 11" x1="23.1" y1="29.3" x2="215" y2="29.3" xlink:href="#_名称未設定グラデーション_11"/>
    <linearGradient id="_名称未設定グラデーション_11-9" data-name="名称未設定グラデーション 11" x1="23.1" y1="26.7" x2="215" y2="26.7" xlink:href="#_名称未設定グラデーション_11"/>
    <linearGradient id="_名称未設定グラデーション_11-10" data-name="名称未設定グラデーション 11" x1="23.1" y1="26.6" x2="215" y2="26.6" xlink:href="#_名称未設定グラデーション_11"/>
  </defs>
  <!-- Generator: Adobe Illustrator 28.7.10, SVG Export Plug-In . SVG Version: 1.2.0 Build 236)  -->
  <g>
    <g id="_レイヤー_1" data-name="レイヤー_1">
      <g>
        <g>
          <g>
            <path class="cls-11" d="M15.3,50.4l7.1-16.5h-8.9l-4,7.2H0l8.7-17.7h9.6l-1.2,2.7h11.8l1.6-3.2h2.7l-1.6,3.2h1.2l1.6-3.2h2.7l-1.5,3.2-10.5,24.3h-9.6Z"/>
            <path class="cls-7" d="M67.1,23.4l-11.9,26.9h-28c0,.1,12-26.9,12-26.9h27.9ZM49,42.5l5-11.3h-8.8l-5,11.3h8.8Z"/>
            <path class="cls-2" d="M61.3,41.1l3.5-7.8h27.9l-3.5,7.8h-27.9Z"/>
            <path class="cls-8" d="M99.1,23.4h9.6l-7.6,17.1,20.1-4-3.5,7.8-30.6,6.1,11.9-27Z"/>
            <path class="cls-4" d="M117.4,50.4l5.9-13.3h7.8l-5.9,13.3h-7.8ZM155.1,24.4c.6.7.7,1.5.6,2.4l-3.5,7.8h-9.1l-6.9,15.7h-9.6l6.9-15.7h-9.2l3.5-7.8h9.2l1.5-3.4h9.6l-1.5,3.4h2.2c.2-1,.7-1.8,1.5-2.4.8-.7,1.7-1,2.6-1s1.7.3,2.3,1ZM145.2,50.4h-7.8l5.9-13.3h7.8l-5.9,13.3ZM153.4,25.8c-.2-.3-.6-.4-1-.4s-.8.1-1.1.4-.5.6-.6,1h3c0-.4,0-.7-.3-1Z"/>
            <path class="cls-1" d="M151.3,41.1l3.5-7.8h27.9l-3.5,7.8h-27.9Z"/>
            <path class="cls-5" d="M200.3,41.8h-8.9l-1.3,2.6h-9.6l9.3-21h9.6l-1.2,2.7h18.4l-11.7,27.1h-9.6l5-11.4ZM193.7,35.9h8.9l1-2h-8.8l-1.1,2Z"/>
          </g>
          <path class="cls-3" d="M214.1,26.1h7.6s-5.3.8-7.9,6.5l.3-6.5Z"/>
          <path class="cls-6" d="M106.1,23.4h7.6s-5.3.8-7.9,6.5l.3-6.5Z"/>
          <path class="cls-9" d="M64.5,23.4h7.6s-5.3.8-7.9,6.5l.3-6.5Z"/>
        </g>
        <g>
          <path class="cls-10" d="M18,11.8h-1.9l-.4-2.5h-4.3l-1.4,2.5h-1.9L14.2.9h1.5l2.3,11ZM15.4,7.7l-.8-4.4-2.4,4.4h3.2Z"/>
          <path class="cls-10" d="M24.3,11.8h-1.7l1.9-11h1.7l-1.9,11Z"/>
          <path class="cls-10" d="M43.2,6.3c-.5.3-.9.8-1.3,1.3-.5-.3-.9-.7-1.4-1.1l-.2.9h-4.6v-.8c-.4.3-.9.6-1.4.8,0-.2-.2-.5-.4-.8-.2,0-.5.2-.8.4l-.7,3.8c-.2.9-.8,1.3-1.8,1.3h-1c0-.7,0-1.2,0-1.6h.9c.3,0,.5-.1.6-.4l.4-2.5c-.7.3-1.2.4-1.5.5v-1.6c.3,0,.9-.3,1.7-.5l.4-2.4h-1.5l.2-1.4h1.5l.4-2.2h1.5l-.4,2.2h1l.2-1.1h1.7l.2-1.1h1.5l-.2,1.1h1.8l.2-1.1h1.5l-.2,1.1h1.7l-.2,1.3h-1.7l-.2,1.2h-1.5l.2-1.2h-1.8l-.2,1.1c.2-.2.4-.4.5-.6l1.1.3c.2.5.7,1,1.5,1.7.7.6,1.4,1,2,1.3ZM37.9,3.8h-1.4l.2-1.2h-1.5l-.2,1.2h-1.2l-.3,1.9c.6-.2,1.1-.4,1.3-.5l-.2.9c1.3-.7,2.4-1.4,3.3-2.2ZM40.6,12.2h-6.4l.7-4h6.4l-.7,4ZM39.2,11l.3-1.5h-3.2l-.3,1.5h3.2ZM40.1,6.2c-.6-.6-1.1-1.1-1.4-1.6-.5.5-1.2,1.1-2,1.6h3.4Z"/>
          <path class="cls-10" d="M59.2,9.8c-.4.9-.7,1.6-1.1,2.1-.2.4-.5.6-.9.6s-.6-.1-.8-.4c-.4-.5-.7-1-.9-1.6-.9.8-1.8,1.5-2.8,2.1-.2-.4-.5-.8-.8-1,.3-.1.5-.3.8-.5h-1.9l-.2,1.3h-1.4l.2-1.3h-2.9l.2-1.2h2.9v-.4c0,0-2.3,0-2.3,0l.6-3.4h2.3v-.5c0,0-2.6,0-2.6,0l.2-1.1h2.7v-.5c0,0-2.9,0-2.9,0l.2-1.3h3v-.6c.1,0-2.2,0-2.2,0l.2-1.2h2.3V.1h1.6v.8c-.1,0,2.2,0,2.2,0l-.2,1.2h-2.3v.6c-.1,0,3,0,3,0,.1-.8.3-1.7.4-2.6h1.5c-.2.9-.3,1.8-.4,2.6h1.8c-.4-.7-.7-1.2-1.1-1.6l1.2-.8c.5.5.8,1,1.2,1.5-.4.2-.8.5-1.3.9h1.5l-.2,1.3h-3.3c-.1,1.3-.2,2.4-.1,3.3.5-.8,1-1.6,1.3-2.5l1.4.5c-.7,1.5-1.5,2.8-2.4,3.9.2.6.4,1.1.6,1.5.3-.5.5-1,.6-1.4.1.1.5.3,1.2.7ZM49.7,8.6v-.5c0,0-1,0-1,0v.5c0,0,1,0,1,0ZM50,7.3v-.5c0,0-1,0-1,0v.5c0,0,1,0,1,0ZM55.1,9c-.2-1.3-.2-2.9,0-5h-3.2v.5c0,0,2.5,0,2.5,0l-.2,1.1h-2.6v.5c0,0,2.3,0,2.3,0l-.6,3.4h-2.3v.4c0,0,2.6,0,2.6,0v.6c.5-.4,1-.9,1.5-1.5ZM52.3,8.6v-.5c0,0-1,0-1,0v.5c0,0,1,0,1,0ZM52.5,7.3v-.5c0,0-1,0-1,0v.5c0,0,1,0,1,0Z"/>
          <path class="cls-10" d="M75.2,6.7c-.3,1.2-.9,2.3-1.8,3.1-.9.8-2.1,1.4-3.6,1.7,0-.2,0-.5-.2-.8-.1-.3-.3-.6-.4-.7,1.2-.2,2.2-.6,3-1.2.7-.6,1.2-1.3,1.4-2.2.2-1,0-1.8-.4-2.5-.5-.7-1.2-1-2-1.1-.4,1.4-.8,2.7-1.4,3.8-.7,1.3-1.4,2.4-2.2,3.1-.5.5-1,.7-1.5.7s-.5,0-.8-.2c-.5-.2-.9-.7-1.2-1.3-.2-.7-.3-1.4,0-2.2.4-1.6,1.3-3,2.7-4,1.4-1,2.9-1.5,4.6-1.4,1.4,0,2.5.6,3.2,1.6.8,1,1,2.2.7,3.7ZM69.5,3.1c-1,.2-1.8.7-2.5,1.4-.7.7-1.2,1.5-1.4,2.5-.2.8,0,1.4.4,1.8,0,0,.2.1.3.1s.2,0,.4-.2c.6-.5,1.1-1.2,1.7-2.3.5-1.1,1-2.2,1.3-3.4Z"/>
          <path class="cls-10" d="M86.5,4c-.6,3.7-2.4,6.3-5.2,8-.3-.5-.6-1-1-1.2,2.5-1.3,4-3.5,4.5-6.8h1.7ZM91.7,2.2c-.5.7-1.2,1.5-2.1,2.4-.9.9-1.6,1.5-2.3,2-.3-.5-.7-.8-1.1-1.1.9-.6,1.9-1.5,2.9-2.5-4,.1-6.8.2-8.5.3l.2-1.7c.4,0,1.1,0,2,0,3.9,0,6.5,0,7.8-.3l.9.8Z"/>
          <path class="cls-10" d="M105.3,3.1c-1,1.9-2.3,3.6-4.1,5.2-1.8,1.5-3.7,2.7-5.9,3.6-.2-.6-.4-1-.8-1.4,1.7-.6,3.4-1.5,4.8-2.6,1.5-1.1,2.7-2.4,3.6-3.8-1.5,0-2.6.1-3.2.1-1.1,1.2-2.3,2.1-3.6,3-.3-.5-.7-.9-1-1.1,1.1-.6,2.1-1.4,3.1-2.4,1-1,1.8-2,2.3-3l1.5.6c-.3.5-.6,1-1,1.5,1.8,0,2.9,0,3.3-.2l.9.6Z"/>
          <path class="cls-10" d="M121.3,4.1c-.4.5-1,1.1-1.7,2-.8.9-1.5,1.5-2,1.9l-1.1-1.1c.5-.3,1.2-1,2.1-1.9l-3.4.7-.6,3.2c0,.3,0,.5.1.6.1.1.4.2.7.2,1.8,0,3.3-.2,4.4-.5-.3.5-.5,1.1-.6,1.7-1.1.3-2.5.4-4.2.4s-1.5-.1-1.9-.4c-.4-.3-.5-.7-.4-1.4l.6-3.5-3.3.6v-1.6c.6,0,1.8-.2,3.6-.5l.6-3.3h1.7l-.5,3c2.8-.4,4.4-.8,4.9-.9l.9.8Z"/>
          <path class="cls-10" d="M136.2,9.7c-.5.3-1,.7-1.6,1.2-.6-1.1-1.5-2.3-2.7-3.5-1.8,1.6-3.7,2.9-5.7,3.8-.3-.7-.6-1.1-.8-1.4,1.5-.6,2.9-1.5,4.4-2.6,1.5-1.1,2.7-2.4,3.6-3.6-2.8.2-4.7.3-5.5.4v-1.7c.8,0,1.9,0,3.5,0,1.7,0,2.9-.2,3.4-.3l1,.7c-.6,1.2-1.5,2.4-2.6,3.6,1.4,1.3,2.5,2.5,3.1,3.5Z"/>
          <path class="cls-10" d="M153.3,9.6h-2.1l-.5,2.8h-1.4l.5-2.8h-2.4l.2-1.3h2.4l.2-1.2h-1.2c-.3.4-.5.7-.8,1-.2-.2-.5-.3-.9-.5l-.6,3.6c-.1.8-.7,1.1-1.6,1.1h-.9c0-.6,0-1,0-1.3h.9c.3,0,.5-.1.5-.4l.3-1.8h-2.7c-.4,1.4-1,2.6-1.9,3.6-.3-.3-.7-.5-1-.6.5-.5.9-1.1,1.2-1.7.3-.6.5-1.4.7-2.4l.6-3.2c-.4-.4-.8-.6-1.1-.8.5-.4,1.1-1,1.6-1.7.5-.7.9-1.3,1.2-1.8l1.5.3c-.1.2-.2.4-.4.6h2.2l.3.5c-.4.5-.8,1.1-1.3,1.8h1.4v.6c.9-.5,1.6-1.2,2-2.2h-1.5l.2-1.2h5.9c-.4,1.7-.7,2.8-1.1,3.3-.4.5-.9.8-1.6.8h-.9c0-.6,0-1,0-1.4h.7c.3,0,.6,0,.7-.2.2-.2.3-.6.5-1.3h-1.3c-.6,1.4-1.6,2.5-3.1,3.3-.1-.3-.4-.6-.6-.8l-.5,3.1c.6-.7,1.1-1.5,1.5-2.4l1.2.4c-.1.2-.3.5-.4.8h.6l.2-1.1h1.4l-.2,1.1h1.8l-.2,1.3h-1.8l-.2,1.2h2.1l-.2,1.3ZM144.1,7.6l.2-1h-.8l-.2,1h.8ZM144.4,5.5l.2-1h-.8l-.2,1h.8ZM145.8,2.2h-1.2c-.3.4-.5.7-.8,1h1.3c.4-.5.6-.8.7-1ZM146,7.6l.2-1h-.8l-.2,1h.8ZM146.4,5.5l.2-1h-.8l-.2,1h.8Z"/>
          <path class="cls-10" d="M164,7.2c-.5.3-.9.7-1.3,1.1-.2-.3-.5-.7-.8-1.2l-.9,5.4h-1.5l.9-5c-.5.8-1,1.4-1.4,1.8-.4-.3-.8-.6-1.2-.8.6-.5,1.1-1.2,1.7-2.1.6-.8,1-1.6,1.4-2.3h-1.9l.2-1.4h1.9l.4-2.5h1.5l-.4,2.5h1.6l-.2,1.4h-1.6v.8c0,.4.3.8.6,1.3.4.5.7.9.9,1.2ZM170.9,5.7h-1.8l-1.2,6.7h-1.6l1.2-6.7h-1.6c-.3,1.5-.7,2.8-1.2,3.8-.5,1.1-1.2,2-2.1,2.8-.4-.4-.8-.7-1.3-.9,1.5-1.2,2.5-3.3,3-6.1l.7-4.2c.9,0,1.8-.1,2.8-.3,1.1-.2,2-.5,2.8-.8l.7,1.4c-.7.2-1.5.5-2.5.7-.9.2-1.8.3-2.5.4l-.3,1.7h4.9l-.3,1.5Z"/>
          <path class="cls-10" d="M186.6,2.3c-.8,2.5-2.1,4.5-3.8,6-1.5,1.3-3.5,2.4-6,3.1-.1-.6-.4-1.2-.7-1.6,4.5-1,7.4-3.6,8.8-7.7l1.6.3ZM178.5,5.3l-1.7.6c0-.4,0-.9-.2-1.5-.1-.6-.2-1.1-.4-1.4l1.7-.6c.1.3.2.8.4,1.4.1.6.2,1.1.2,1.5ZM181.7,4.6l-1.7.5c0-.4,0-.9-.1-1.5,0-.6-.2-1.1-.3-1.4l1.7-.5c.1.3.2.8.3,1.4,0,.6.2,1.1.2,1.5Z"/>
          <path class="cls-10" d="M202,7.1c-.6,0-2.4,0-5.6,0s-5.1,0-5.6,0l.3-1.6c.6,0,2.4,0,5.6,0s4.5,0,5.6,0l-.3,1.6Z"/>
          <path class="cls-10" d="M211.2,2.4c0,.8-.1,1.5-.2,2.2-.3,1.4-.7,2.7-1.5,3.7-.8,1-1.8,1.9-3.2,2.7-.2-.5-.5-.9-.9-1.3,1.2-.6,2.2-1.3,2.8-2.1.6-.8,1-1.8,1.2-2.9.1-.6.2-1.3.2-2h1.6ZM218.4,7.5c-.7.5-1.7,1.1-3,1.7-1.3.6-2.3,1.1-3.2,1.4l-.8-.7c.1-.4.4-1.9.8-4.4.3-1.6.5-2.7.6-3.4h1.7c-.1.4-.3,1.6-.7,3.4l-.5,2.9c.9-.4,1.8-.8,2.8-1.3,1.1-.6,1.8-1.1,2.3-1.5-.1.7-.2,1.3,0,1.8Z"/>
        </g>
      </g>
    </g>
  </g>
</svg>