<?xml version="1.0" encoding="UTF-8"?>
<svg id="_レイヤー_2" data-name="レイヤー 2" xmlns="http://www.w3.org/2000/svg" viewBox="0 0 212.5 189.39">
  <defs>
    <style>
      .cls-1 {
        fill: #fff;
      }

      .cls-2 {
        fill: #78c8e6;
      }

      .cls-3 {
        fill: #323232;
      }
    </style>
  </defs>
  <g id="_レイヤー_1-2" data-name="レイヤー 1">
    <g>
      <path class="cls-2" d="M99.55,160.5s-.07,0-.11.01c.04,0,.08,0,.11-.01Z"/>
      <path class="cls-1" d="M106.3,133.65c-6.93,2.58-14.83,2.4-21.74-.15-4.64-1.72-8.85-4.4-12.34-7.84-.11,2.22-.34,4.43-.69,6.61.42.26.84.53,1.26.79,2.63,1.65,5.26,3.29,7.88,4.94,1.33.84,2.91,1.57,3.91,2.8,3.98,4.9,7.69,10.02,11.69,14.91,2.31-3.27,4.61-6.55,6.88-9.85.99-1.44,1.98-2.89,2.96-4.33.44-.65.88-1.48,1.5-1.98,1.06-.85,2.69-1.34,3.91-1.96,1.03-.52,2.04-1.05,3.05-1.61,1.64-.91,3.26-1.88,4.81-2.94.15-.1.28-.22.42-.32-.33-2.65-.52-5.33-.64-8.01-3.51,3.95-7.85,7.09-12.87,8.97Z"/>
      <path class="cls-1" d="M132.46,81.4c-.72-.11-1.43,0-2.12.18-.3.08-.59.19-.88.29-2.1.93-3.95-1.47-3.1-3.06-.19-.56-.37-1.13-.55-1.69-.24.03-.48.02-.71-.06-.2-.03-.39-.07-.59-.1-.8-.13-1.6-.27-2.39-.4-.15,5.09-3.95,10.01-8.9,11.32-4.78,1.26-9.48-1.2-12.14-5.15-.8-1.19-1.39-2.57-1.71-3.98h-5.56c-1.04,4.3-4.62,8-8.9,9.12-4.95,1.29-9.89-1.12-12.74-5.18-1.21-1.72-1.94-3.83-2.02-5.92-1.59.17-3.17.34-4.76.51-.22.59-.41,1.19-.64,1.78-.35.89-1.02,1.5-1.88,1.62-.63.63-1.58.9-2.57.28-1.99-1.25-4.08-.35-4.98,1.7-.97,2.18-.86,4.93-.35,7.21.55,2.46,1.51,4.4,3.78,5.65,1.49.82,3.21,1.34,4.9,1.58.69.1,1.47.89,1.57,1.57,1.1,7.04,2.81,14.14,6.94,20.07,3.95,5.67,10.01,9.64,16.61,11.33v-2.64c0-.61.26-1.15.66-1.59.41-.44,1.01-.63,1.59-.66.56-.03,1.2.27,1.59.66.41.41.66,1.01.66,1.59v3.44c.3.03.6.03.9.04v-3.48c0-.61.25-1.15.66-1.59.41-.44,1.01-.63,1.59-.66.56-.03,1.2.27,1.59.66.41.41.66,1.01.66,1.59v3.39c.3-.03.6-.08.9-.12v-3.27c0-.61.25-1.15.66-1.59.41-.44,1.01-.63,1.59-.66.56-.03,1.2.27,1.59.66s.66,1.01.66,1.59v2.23c1.28-.42,2.55-.93,3.77-1.57,10.77-5.67,15.42-17.07,17.22-28.47.12-.75.88-1.38,1.57-1.57,1.91-.53,4.34-.86,6.05-1.88,2.35-1.4,3.43-5.49,3.52-8.02.08-2.35-.98-6.3-3.73-6.73ZM97.43,93.09c2.9,0,2.9,4.5,0,4.5s-2.9-4.5,0-4.5ZM103.86,114.75c-1.09.35-2.26-.34-2.68-1.35-.04-.04-.07-.07-.09-.11-.05-.05-.09-.09-.12-.13-.11-.07-.23-.13-.34-.19-.04-.02-.13-.05-.2-.09-.02,0-.03-.01-.05-.02-.56-.2-1.15-.34-1.74-.43-.01,0-.01,0-.02,0-.13-.01-.27-.03-.4-.04-.33-.03-.66-.04-.99-.05-.64,0-1.27.07-1.91.1.14,0,.22-.01.28-.01.04,0,.07,0,.07,0,0,0-.03,0-.07,0-.09,0-.24.02-.32.03-.17.03-.33.06-.49.1-.28.06-.55.14-.82.23-.02,0-.11.04-.2.08-.05.04-.13.07-.19.08-.2.11-.4.23-.6.35-.06.06-.12.11-.17.17-.05.09-.1.17-.15.26-.55,1.13-2.07,1.34-3.08.81-1.13-.6-1.32-2.02-.81-3.08.63-1.3,1.89-2.14,3.18-2.69,2.45-1.04,5.23-1.09,7.83-.69,2.3.36,4.96,1.47,5.66,3.91.35,1.21-.42,2.4-1.57,2.77Z"/>
      <path class="cls-2" d="M86.35,62.48c.09-.02.18-.04.27-.07,0,0-.02,0-.03,0-.16,0-.34.08-.24.07Z"/>
      <path class="cls-1" d="M117.58,75.78c-.02-.11-.04-.22-.07-.33-.04-.16-.09-.31-.15-.47-.03-.05-.15-.33-.17-.36-.09-.15-.18-.3-.28-.44-.03-.04-.07-.08-.08-.1-.16-.18-.34-.35-.52-.51-.03-.03-.11-.09-.17-.13-1.25-.87-2.76-1.28-4.21-1.4-1.83-.15-3.29-.06-4.95.44-.75.23-1.06.36-1.83.86-.06.04-.09.06-.12.08-.14.11-.28.24-.41.36-.1.1-.19.2-.29.3-.03.03-.05.05-.07.07,0,.01-.01.02-.02.04-.14.2-.25.41-.37.62,0,.02-.02.05-.04.08-.11.3-.2.62-.26.94,0,.05-.01.1-.01.13,0,.23-.02.47-.01.7,0,.12.01.23.02.35,0,.05.03.26.04.32.31,1.48.92,2.75,1.82,3.79,1.06,1.21,2.18,2.01,3.59,2.41,1.36.38,2.87.24,4.08-.36,1.36-.68,2.46-1.69,3.24-2.89.8-1.25,1.24-2.59,1.26-3.84,0-.08-.06-.72-.04-.65ZM110.93,78.28c-2.9,0-2.9-4.5,0-4.5s2.9,4.5,0,4.5Z"/>
      <path class="cls-2" d="M60.83,27.59s.02.02.03.02c0,0,0,0,0,0,0,0-.01-.01-.02-.02,0,0,0,0-.01,0Z"/>
      <path class="cls-2" d="M87.01,62.42s.09.01.13.02c-.04-.01-.11-.03-.18-.03.02,0,.04,0,.05.01Z"/>
      <path class="cls-2" d="M86.63,62.41s.07-.02.12-.03c-.04.01-.09.02-.13.03,0,0,0,0,.01,0Z"/>
      <path class="cls-2" d="M86.9,62.41s.02,0,.02,0c.01,0,.02,0,.03,0-.08-.02-.16-.03-.24-.05.07.02.13.03.18.05Z"/>
      <path class="cls-2" d="M60.9,27.65s-.03-.02-.04-.03c-.05.01-.03.02.04.03Z"/>
      <path class="cls-2" d="M84.66,62.99c.18-.07.11-.05,0,0h0Z"/>
      <path class="cls-2" d="M60.9,27.65s0,0,.01.01c0,0,0,0-.01-.01,0,0,0,0,0,0Z"/>
      <path class="cls-2" d="M60.83,27.59c-.09-.08-.18-.15-.27-.22,0,.02.14.17.27.22Z"/>
      <path class="cls-2" d="M100.97,113.16s.09.1.11.12c-.01-.02-.02-.04-.02-.05-.03-.02-.05-.05-.09-.07Z"/>
      <path class="cls-2" d="M101.07,113.24s.07.07.08.09c0,0,0,0,0-.01-.05-.08-.08-.1-.08-.08Z"/>
      <path class="cls-2" d="M101.15,113.32s0,.01,0,.02c0,0,0,0,0-.02Z"/>
      <path class="cls-2" d="M93.56,112.94s.03-.02.05-.03c-.05.02-.1.03-.1.03,0,0,.03,0,.05,0Z"/>
      <path class="cls-2" d="M93.61,112.91s.09-.03.14-.05c.06-.04.07-.06-.12.04,0,0-.02.01-.03.02Z"/>
      <path class="cls-2" d="M101.22,113.42s.06.05.1.07c-.02,0-.06-.04-.1-.07,0,0,0,0,0,0Z"/>
      <path class="cls-2" d="M101.17,113.37s0,.02.01.03c.01,0,.02.02.04.02,0,0,0-.01,0-.01-.01-.01-.03-.03-.04-.04Z"/>
      <path class="cls-2" d="M101.09,113.29s0,0,0,0c.03.03.05.05.08.08,0-.01,0-.02-.01-.03,0,0-.03-.01-.07-.05Z"/>
      <path class="cls-2" d="M106.21,63.24c.05-.01.08-.02.14-.04-.06.02-.12.03-.18.04.01,0,.02,0,.04,0Z"/>
      <path class="cls-2" d="M105.96,63.28s.06,0,.09-.01c.04-.01.08-.02.13-.03,0,0,0,0,0,0-.1,0-.17.02-.21.04Z"/>
      <path class="cls-2" d="M123.52,33.89c-.03-.06-.04-.09,0,0h0Z"/>
      <path class="cls-3" d="M130.64,40.64c-1.15-2.64-2.82-4.47-5.51-5.08-.94-.21-1.43-.84-1.56-1.55-.05-.11-.11-.24-.13-.28-.27-.56-.56-1.11-.87-1.64-.98-1.68-2.15-3.21-3.51-4.6-3.56-3.61-8.64-6.33-13.77-6.64-4.56-.28-9.36.81-13.82,1.61-4.8.86-9.58,1.84-14.33,2.93-2.42.56-5.3,1.07-7.92.67.15.12.3.24.44.36,1.11.9.74,2.91-.46,3.53-1.51.78-3.54,1.71-5.59,2.12.2.19.39.36.06.27,1.8.51,2.28,3.19.54,4.11-3.27,1.72-4.33,6.87-5.08,10.13-.84,3.6-1.59,7.49-1.48,11.2.18,6.03,1.82,12.19,3.41,18.04.03,0,.06.01.09.02.68-1.88,1.33-3.78,1.91-5.69,1.19-3.87,2.37-7.92,2.6-11.98.11-1.95-.45-3.56,1.13-5.01,1.3-1.19,2.66-2.33,4-3.49,4.75-4.13,9.51-8.24,14.27-12.35,1.99-1.72,4.6.41,3.53,2.73-1,2.17-2.01,4.35-3.01,6.52,5.44-1.47,10.93-3.5,15.37-6.75,2.08-1.52,4.6,1.86,2.73,3.53-.98.87-2.08,1.81-3.05,2.84,2.78.04,5.78-.86,8.23-1.56,2.58-.74,5.15-1.6,7.63-2.63.97-.41,2,.31,2.54,1.03,2.03,2.69,3.49,5.96,4.51,9.16.43,1.36.77,2.75.99,4.16.09.53.14,1.07.21,1.61.02.12.07.35.08.42.31,1.24.62,2.47.97,3.7,1.33,4.61,2.8,9.18,4.31,13.73.04-.02.08-.04.12-.06.27-1.25.51-2.51.73-3.77,1.23-7.01,2.02-14.21,1.64-21.34-.18-3.36-.6-6.9-1.95-10.01Z"/>
      <path class="cls-1" d="M119.37,53.95c-.73-2.44-1.79-4.87-3.16-7.05-2.28.88-4.61,1.67-6.97,2.3-3.96,1.07-9.09,2.38-13.06.73-.83-.34-1.36-.92-1.54-1.62-4.06,1.63-8.37,2.8-12.45,3.73-2.02.46-3.36-1.53-2.54-3.31.21-.46.42-.92.63-1.37-3.4,2.93-6.79,5.88-10.16,8.84.25,4.53-.99,9.16-2.23,13.47-.29.99-.61,1.97-.92,2.95,1.41-.15,2.82-.3,4.23-.45.03,0,.05,0,.08,0,.34-.55.74-1.07,1.24-1.54,3.42-3.22,8.9-3.61,13.3-2.79,3.7.69,6.94,2.92,7.94,6.42h5.58c.34-1.35,1.01-2.61,2.09-3.66,3.22-3.14,8.42-3.57,12.62-2.78,2.76.52,5.2,1.95,6.65,4.1,0,0,.01,0,.02,0,.3-.07.6-.05.9.04.2.03.39.07.59.1.68.11,1.35.23,2.03.34-.94-2.92-1.85-5.85-2.7-8.79-.93-3.19-1.25-6.49-2.19-9.66ZM89.78,60.85c-.26,1.15-1.53,1.81-2.64,1.59.08.02.05.04-.24-.03-.09,0-.18,0-.27,0-.15.04-.24.06-.28.07-.38.09-.76.17-1.13.3-.21.07-.41.15-.61.23-.06.03-.13.05-.17.07-.14.06-.27.13-.41.19-.53.25-1.04.52-1.55.81-1.27.71-2.52,1.5-3.7,2.36-1.01.75-2.47.13-3.08-.81-.31-.48-.38-1.19-.23-1.73.17-.6.55-.99,1.03-1.34.31-.23.63-.44.94-.66,1.44-.97,2.93-1.88,4.51-2.61,1.9-.89,4.12-1.77,6.25-1.21,1.22.32,1.84,1.59,1.57,2.77ZM116.89,65.64c-.55,1.04-2.09,1.46-3.08.81-1.11-.73-2.27-1.37-3.46-1.95-.24-.12-.49-.23-.74-.35-.12-.05-.24-.1-.35-.16.03.01.05.02.07.03.18.08.52.24,0,0-.02,0-.03-.01-.05-.02-.5-.2-1.02-.38-1.54-.53-.23-.07-.46-.12-.7-.17-.09-.02-.18-.03-.27-.05-.19-.01-.38-.02-.57-.01-.27.08-.32.07-.25.04-1.19.26-2.31-.44-2.68-1.59-.37-1.15.43-2.47,1.57-2.77,2.52-.66,5.23.48,7.48,1.54,1.29.61,2.56,1.31,3.75,2.09,1.05.69,1.4,1.95.81,3.08Z"/>
      <path class="cls-1" d="M89.47,75.39s-.13-.37-.13-.4c-.05-.09-.09-.19-.14-.27-.32-.56-.74-.98-1.14-1.25-1.39-.92-3.07-1.34-4.78-1.44-1.77-.11-3.36-.02-5.02.47-.81.24-1.18.38-1.93.85-.1.07-.21.14-.31.21-.05.04-.19.16-.23.19-.07.07-.49.52-.49.5-.11.15-.22.31-.31.48.01-.03-.14.31-.18.37-.03.11-.12.43-.17.65,0,.06-.04.26-.04.32,0,.2-.01.4,0,.6,0,.13.01.26.03.38.01.06.04.28.06.33.34,1.46.98,2.73,2.02,3.83,2.12,2.25,5.23,3.21,8,2.01,1.44-.62,2.72-1.71,3.53-2.9.44-.64.87-1.45,1.03-1.98.27-.88.33-1.13.34-1.91,0-.1-.03-.49-.04-.62-.03-.1-.11-.45-.1-.41ZM82.49,78.28c-2.9,0-2.9-4.5,0-4.5s2.9,4.5,0,4.5Z"/>
      <path class="cls-1" d="M164.88,164.68c-4.12-2.32-8.52-4.21-12.81-6.18-5.94-2.72-11.91-5.37-17.9-7.97-5.23,3.22-10.47,6.44-15.71,9.66-.96.59-2.57.28-3.08-.81-1.69-3.6-3.39-7.2-5.08-10.8-1.23-2.61,2.65-4.89,3.89-2.27,1.37,2.9,2.73,5.8,4.1,8.71,4.2-2.58,8.39-5.17,12.59-7.75-2.18-4.15-4.37-8.38-6.12-12.74-.82.69-1.66,1.35-2.53,1.98-1.37.98-2.81,1.87-4.27,2.72-1.01.58-2.03,1.14-3.07,1.68-1.07.56-2.29,1.41-3.46,1.73,0,0-.63.26-.76.2-.31.33-.56.83-.82,1.2-.98,1.44-1.96,2.87-2.94,4.3-1.7,2.48-3.44,4.94-5.17,7.4.09-.02.19-.03.28-.05.41-.09.82-.2,1.21-.33.22-.07.44-.15.65-.23.1-.04.2-.09.31-.12-.02,0-.04,0-.06.02-.17.07-.45.12,0,0,0,0,.02,0,.02,0,1.11-.51,2.15-1.16,3.14-1.88,1.02-.74,2.47-.14,3.08.81.7,1.09.14,2.39-.81,3.08-1.87,1.35-3.98,2.47-6.25,2.98-.89.2-1.8.31-2.7.4-.32.03-.64.06-.96.1-.08,0-.17.02-.25.03-.01,0-.02,0-.03,0-.05.01-.1.02-.15.03-.28.05-.55.05-.81.02.12.27.19.57.2.87.11,3.81-.11,7.62,0,11.42.04,1.26-1.06,2.2-2.25,2.25-1.24.06-2.22-1.07-2.25-2.25-.11-3.81.11-7.62,0-11.42,0-.33.06-.64.2-.92-.09-.14-.17-.28-.22-.44-2.98-3.54-5.85-7.19-8.68-10.85-1.1-1.42-2.19-2.85-3.28-4.28-.3-.39-.92-.98-1.26-1.51-.2-.12-.4-.26-.58-.38-.97-.61-1.94-1.22-2.91-1.83-3.37-2.11-6.73-4.22-10.1-6.33-1.64,4.19-3.28,8.38-4.93,12.56,2.3,3.33,4.59,6.67,6.89,10,2.04-4.67,4.08-9.34,6.12-14.02,1.16-2.65,5.03-.36,3.89,2.27-.87,1.98-1.73,3.97-2.6,5.95.23.16.44.36.61.58,0,0,0,0,.01,0,.08.07.15.17.22.25.13.13.27.25.4.37.05.03.09.06.14.1.18.12.36.23.55.33.19.11.39.21.59.3.07.03.14.06.21.09.01,0,.01,0,.03,0,.43.16.85.31,1.29.45,2.01.62,4.08,1.03,6.1,1.6,1.21.34,1.84,1.57,1.57,2.77-.27,1.18-1.64,1.89-2.77,1.57-3.62-1.03-7.96-1.51-10.85-4.07-1.04,2.39-2.08,4.78-3.13,7.16-.73,1.68-3.04,1.23-3.89,0-1.4-2.04-2.81-4.07-4.21-6.11-1.67-2.43-3.35-4.86-5.02-7.29-.1-.15-.19-.28-.29-.42-4.41,2.03-8.96,3.79-13.5,5.49-5.1,1.91-10.22,3.74-15.29,5.73-4.02,1.58-8.6,3.1-12.11,5.69-3.7,2.73-6.31,7.02-8.39,11.04-1.96,3.8-3.54,7.86-4.38,12.07h176.07c-.76-4.63-2.02-9.2-4.31-13.32-2.68-4.82-6.63-8.69-11.43-11.39Z"/>
      <g>
        <path class="cls-1" d="M167.22,66.54c-.8-.26-1.71-.02-2.57.13.51.98.12,2.42-.88,2.93-.12.06-.23.14-.35.22-.11.1-.22.21-.32.32-.11.17-.22.34-.31.53-.07.19-.12.39-.16.59-.01.2-.01.4,0,.6.03.13.06.26.1.39.06.12.13.24.2.35.09.1.19.19.29.29.15.1.3.18.46.26.2.07.4.12.6.16.2.01.4.01.6,0,.16-.03.33-.08.49-.13.1-.05.19-.11.29-.16.1-.09.2-.19.29-.29.09-.14.18-.29.25-.44.07-.19.12-.39.16-.6.01-.2.01-.4,0-.6-.04-.19-.09-.38-.15-.57-.1-.18-.19-.37-.31-.53.07.09.14.19.22.28-.38-.47-.61-.94-.64-1.56-.03-.6.27-1.16.66-1.59.27-.29.67-.49,1.08-.59Z"/>
        <path class="cls-1" d="M204.11,14.32c-2.07-1.16-4.35-1.85-6.6-2.58-1.52-.49-1.83-2.02-1.35-3.16-1.36-.46-2.72-1.09-4.08-1.76-.31,1.7-2.98,2.7-4.22.79-1.71-2.62-5.47-3.64-8.44-3.18-2.68.42-5.83,2.39-5.95,5.37-.05,1.29-1,2.16-2.25,2.25-2.27.16-12.68,1.09-9.32,5.53,2.32,3.07,5.81,5.65,3.76,9.94-.73,1.53-2,2.76-3.2,3.92-.9.87-2.16,1.83-2.6,3.05-.61,1.7,1.57,2.99,2.87,3.51,2.1.85,4.5.81,6.72.68,5.15-.31,10.33-1.54,15.39.12,2.24.73,4.32,1.89,6.6,2.51,2.12.57,4.41.67,6.58.32,2.08-.33,4.33-1.05,5.98-2.4,1.74-1.43,1.5-2.48.13-3.94-2.34-2.49-4.85-5.36-2.78-8.89.93-1.59,2.47-2.65,3.88-3.77,1.04-.82,2.59-1.83,2.78-3.26.3-2.29-2.2-4.11-3.91-5.06Z"/>
        <path class="cls-2" d="M175.82,53.12s-.03-.03-.05-.05c0,.01.02.03.03.04.02.04.04.07.06.11,0,0,0,0,.01,0,0-.02-.02-.05-.02-.07,0-.01,0-.02-.02-.03Z"/>
        <path class="cls-2" d="M175.64,52.94s0,0,0,0c0,0,0,0,.01,0,.01,0,.02,0,.04,0,0,0,0,0,0,0-.02,0-.03,0-.05-.01Z"/>
        <path class="cls-2" d="M175.51,52.87c-.09-.05-.11-.04-.1-.01.04.01.07.03.11.04.02,0,.06.02.1.03,0,0,0,0,0,0-.04-.02-.08-.04-.11-.06Z"/>
        <path class="cls-2" d="M175.62,52.93s0,0,.01,0c0,0,0,0,0,0-.04-.04-.09-.08-.13-.12.05.06.08.08.11.12Z"/>
        <path class="cls-2" d="M172.93,55.47s.07,0,.11,0c-.07-.02-.14-.04-.22-.05-.03.01,0,.03.1.04Z"/>
        <path class="cls-2" d="M170.5,54.09s.03.02.04.03c0,0,0,0,0,0-.01,0-.02-.02-.04-.02Z"/>
        <path class="cls-2" d="M173.04,55.48s.06,0,.08.02c-.02-.01-.03-.01-.05-.02-.01,0-.02,0-.03,0Z"/>
        <path class="cls-2" d="M175.98,53.6s0,.02,0,.02c0-.05,0-.11,0-.16,0,.06,0,.09,0,.13Z"/>
        <path class="cls-2" d="M175.99,53.63c0,.07,0,.13,0,.2.02.08.04.02.02-.1,0-.03-.02-.07-.02-.1Z"/>
        <path class="cls-2" d="M170.54,54.12s.04.07.06.1c.12.18.07.05,0-.04-.03-.03-.05-.04-.07-.05Z"/>
        <path class="cls-2" d="M175.7,52.95s.02,0,.04,0c-.01,0-.03,0-.04-.01,0,0,0,0,0,0Z"/>
        <path class="cls-2" d="M175.76,53.05c.05.03.03-.02-.04-.06.01.02.03.04.04.06Z"/>
        <path class="cls-2" d="M175.69,52.95s0,.01.01.02c0,0,0,0,.02.01,0-.01-.02-.02-.02-.04,0,0,0,0,0,0Z"/>
        <path class="cls-2" d="M175.75,53.05s.01.01.02.02c0,0,0,0,0-.01,0,0,0,0-.01,0Z"/>
        <path class="cls-2" d="M175.7,52.97s-.03-.02-.05-.03c0,0,0,0,0,0,.03.03.05.05.08.08,0-.02-.02-.03-.02-.05,0,0,0,0,0,0Z"/>
        <path class="cls-2" d="M170.34,53.79s.03.09.03.12c0-.03,0-.05,0-.08,0-.01-.02-.03-.02-.04Z"/>
        <path class="cls-2" d="M170.16,53.17s.02-.07.03-.1c0-.03,0-.06.01-.09-.01.06-.02.12-.04.18,0,0,0,0,0,0Z"/>
        <path class="cls-2" d="M170.76,51.95s.04-.03.06-.05t0,0s-.04.04-.06.05Z"/>
        <path class="cls-2" d="M170.32,53.75s.01.03.02.04c-.01-.05-.02-.09-.04-.15-.03-.03-.05,0,.02.11Z"/>
        <path class="cls-2" d="M170.75,51.96c-.19.11-.1.07,0,0h0Z"/>
        <path class="cls-2" d="M170.15,53.21s0-.02.01-.04c0,0,0,0,0,0,0,.01,0,.03,0,.04Z"/>
        <path class="cls-2" d="M170.19,53.32c0,.2,0,.12,0,0h0Z"/>
        <path class="cls-2" d="M175.69,52.95s0,0,0,0c0-.01-.02-.02-.02-.03,0,.01,0,.02.01.03Z"/>
        <path class="cls-3" d="M198.71,7.41c-1.24-.4-2.16.26-2.55,1.18,1.3.44,2.6.73,3.9.73-1.3,0-2.6-.29-3.9-.73-.48,1.13-.16,2.67,1.35,3.16,2.25.72,4.53,1.42,6.6,2.58,1.71.96,4.21,2.77,3.91,5.06-.19,1.43-1.74,2.44-2.78,3.26-1.41,1.11-2.95,2.18-3.88,3.77-2.08,3.53.44,6.4,2.78,8.89,1.37,1.46,1.62,2.52-.13,3.94-1.65,1.35-3.9,2.07-5.98,2.4-2.17.35-4.46.25-6.58-.32-2.28-.62-4.36-1.77-6.6-2.51-5.06-1.66-10.24-.43-15.39-.12-2.22.13-4.62.17-6.72-.68-1.29-.52-3.48-1.81-2.87-3.51.43-1.22,1.7-2.18,2.6-3.05,1.2-1.17,2.47-2.39,3.2-3.92,2.05-4.29-1.43-6.87-3.76-9.94-3.36-4.44,7.05-5.37,9.32-5.53,1.25-.09,2.2-.96,2.25-2.25.11-2.99,3.26-4.95,5.95-5.37,2.97-.47,6.72.56,8.44,3.18,1.24,1.9,3.92.9,4.22-.79-.34-.17-.68-.34-1.02-.51.34.17.68.34,1.02.51.08-.46,0-.96-.34-1.48-5.12-7.84-20.19-7.08-22.48,2.37-4.57.41-9.88,1.4-11.98,5.85-.94,2-.66,4.2.54,6.03,1.05,1.59,3.14,2.91,3.82,4.7.55,1.45-1.14,2.77-2.06,3.67-1.32,1.29-2.77,2.59-3.61,4.26-2.4,4.75,1.75,8.95,6.1,10.31,5.83,1.81,11.87-.37,17.78-.09,3.12.15,5.73,1.55,8.59,2.62,2.56.96,5.34,1.38,8.07,1.23,4.69-.27,11.12-2.18,12.97-7.05.87-2.3.09-4.46-1.4-6.27-.8-.97-3.24-2.59-3-3.98.14-.81,1.25-1.54,1.84-2.02.91-.75,1.88-1.42,2.75-2.21,1.94-1.76,3.13-4.05,2.74-6.72-.95-6.51-8.36-8.93-13.72-10.65Z"/>
        <path class="cls-3" d="M175.98,53.6c0,.11,0,.19.01.22,0-.07,0-.13,0-.2,0,0,0-.02,0-.02Z"/>
        <path class="cls-3" d="M172.82,55.43c.08,0,.15.03.22.05.01,0,.02,0,.03,0-.12-.06-.22-.06-.25-.05Z"/>
        <path class="cls-3" d="M175.65,52.95s.03.02.05.03c0,0,0,0,0,0,0,0,0-.01-.01-.02-.01,0-.03,0-.04,0Z"/>
        <path class="cls-3" d="M176.72,48.56c-1.13-.31-2.5.38-2.77,1.57-.26,1.15.32,2.35,1.46,2.72-.01-.03.01-.04.1.01.04.02.07.04.11.06-.04-.04-.06-.06-.11-.12.04.04.08.08.13.12.02,0,.04,0,.05.01,0-.01,0-.02-.01-.03,0,.01.01.02.02.03.01,0,.03.01.04.01-.02,0-.03,0-.04,0,0,.01.02.02.02.04.08.05.09.09.04.06,0,0,0,0,0,.01.02.02.04.03.05.05.01.01.01.02.02.03,0,.02.02.05.02.07,0,0,0,0-.01,0,0,.01.01.02.02.04.03.08.06.17.08.25,0,.03.02.07.02.1,0-.05,0-.07,0-.13,0,.05,0,.11,0,.16,0,.03.01.07.02.1.03.12,0,.17-.02.1,0,.05,0,.11,0,.16,0,.02,0,.03,0,.05-.02.11-.05.22-.08.31,0,0,0,0,0,0-.03.05-.06.11-.09.16,0,0-.07.1-.11.15-.06.06-.12.13-.19.19-.03.03-.06.05-.09.08-.12.07-.24.16-.37.22-.06.03-.13.07-.19.1t0,0c-.3.09-.6.17-.91.23-.05,0-.11,0-.16.01-.2.01-.41.01-.62,0-.04,0-.09,0-.13,0,.02,0,.03,0,.05.02-.02-.01-.06-.01-.08-.02-.04,0-.07,0-.11,0-.11,0-.13-.03-.1-.04-.06,0-.13-.01-.18-.03-.18-.04-.36-.1-.54-.16-.06-.02-.11-.04-.17-.06,0,0,0,0-.01,0-.3-.16-.58-.36-.87-.53-.04-.04-.08-.07-.12-.11-.04-.04-.21-.25-.32-.37.07.1.12.23,0,.04-.02-.03-.04-.07-.06-.1-.01,0-.03-.03-.04-.03.01,0,.02.02.04.02-.03-.04-.06-.08-.08-.13-.03-.05-.06-.1-.09-.16,0,.03.01.05,0,.08,0-.03-.02-.08-.03-.12,0-.01-.01-.03-.02-.04-.07-.11-.05-.14-.02-.11-.04-.09-.08-.19-.1-.26,0-.02,0-.05-.01-.09,0-.06,0-.12,0-.19,0-.02,0-.02,0-.04,0,.03-.02.06-.03.1,0,0,0,0,0,0,.02-.06.03-.12.04-.18,0,.03,0,.05-.01.09.05-.17.05-.21.03-.16.02-.09.03-.18.06-.26.01-.04.02-.07.04-.11.08-.13.15-.25.23-.38.05-.05.1-.11.15-.16.02-.02.04-.03.07-.05,0,0,0,0,0,0,.04-.02.09-.05.13-.07.05-.01.11-.03.16-.05,0,0,0,0,0,0,1.13-.13,2.19-1.01,2.13-2.23-.02-.45-.18-.9-.43-1.28h-1.21,1.21c-.4-.6-1.05-1.02-1.82-.97-2.55.16-4.65,2.08-5.13,4.6-.52,2.72.85,5.19,3.09,6.69,1.94,1.3,4.53,1.68,6.78,1.07,2.23-.61,4.31-2.36,4.7-4.72.44-2.71-.86-5.66-3.67-6.43ZM170.82,51.9s0,0,0,0c-.02.02-.04.04-.06.05.02-.02.04-.03.06-.05ZM170.75,51.96c-.1.07-.19.11,0,0h0ZM170.15,53.21s0-.03,0-.04c0,0,0,0,0,0,0,.02,0,.02-.01.04ZM170.19,53.32c0,.12,0,.2,0,0h0Z"/>
        <polygon class="cls-3" points="175.69 52.95 175.69 52.95 175.7 52.95 175.7 52.95 175.69 52.95"/>
        <path class="cls-3" d="M170.54,54.12s.04.03.07.05c-.02-.03-.04-.04-.07-.06,0,0,0,0,0,0Z"/>
        <path class="cls-3" d="M170.34,53.79s.02.03.02.04c0-.09-.04-.17-.06-.19.02.05.03.1.04.15Z"/>
        <path class="cls-3" d="M175.77,53.07s-.01-.01-.02-.02c0,0,0,0,.01,0-.02-.02-.03-.04-.04-.06,0,0,0,0-.02-.01,0,.02.02.03.02.05-.03-.03-.05-.05-.08-.08,0,0,0,0,0,0,0,0,0,0-.01,0,0,0,0,0,0,0,0,0,0,0,0,0,0,0,0,0-.01,0,0,0,0,0,0,0-.04-.01-.08-.03-.1-.03-.04-.01-.07-.03-.11-.04.02.03.09.07.22.09.04.04.08.07.1.09.05.1.1.16.12.18-.02-.04-.04-.07-.06-.11,0-.01-.02-.03-.03-.04Z"/>
        <path class="cls-3" d="M169.32,67.13c-.35-.42-1.07-.66-1.59-.66-.16,0-.34.03-.51.07.51.17.97.54,1.34,1.28-.37-.74-.83-1.11-1.34-1.28-.41.1-.82.3-1.08.59-.39.43-.69.99-.66,1.59.03.61.26,1.09.64,1.56-.07-.09-.14-.19-.22-.28.12.17.21.35.31.53.06.19.11.38.15.57.01.2.01.4,0,.6-.04.2-.09.4-.16.6-.08.15-.16.3-.25.44-.09.1-.19.2-.29.29-.09.06-.19.11-.29.16-.16.05-.32.1-.49.13-.2.01-.4,0-.6,0-.2-.04-.41-.1-.6-.16-.16-.08-.31-.16-.46-.26-.1-.09-.2-.19-.29-.29-.07-.11-.14-.23-.2-.35-.04-.13-.07-.26-.1-.39-.01-.2-.01-.4,0-.6.04-.2.1-.4.16-.59.09-.18.19-.36.31-.53.1-.11.21-.22.32-.32.12-.07.23-.16.35-.22,1-.51,1.39-1.95.88-2.93-.8.14-1.55.19-2.09-.35.55.55,1.29.49,2.09.35-.03-.05-.04-.1-.07-.15-.69-1.07-1.95-1.38-3.08-.81-3.71,1.89-4.66,7.61-1.45,10.4,1.67,1.45,3.83,2,5.99,1.57,2.13-.42,3.71-2.05,4.46-4.02.43-1.12.45-2.3.28-3.47-.17-1.17-.73-2.18-1.47-3.08Z"/>
      </g>
      <path class="cls-3" d="M110.93,73.78c-2.9,0-2.9,4.5,0,4.5s2.9-4.5,0-4.5Z"/>
      <path class="cls-3" d="M82.49,73.78c-2.9,0-2.9,4.5,0,4.5s2.9-4.5,0-4.5Z"/>
      <path class="cls-3" d="M97.43,93.09c-2.9,0-2.9,4.5,0,4.5s2.9-4.5,0-4.5Z"/>
      <path class="cls-3" d="M101.09,113.29s.05.07.09.11c0,0,0-.02-.01-.03-.03-.03-.05-.05-.08-.08Z"/>
      <path class="cls-3" d="M93.56,112.94c.06,0,.14-.04.19-.08-.05.02-.1.04-.14.05-.02,0-.03.02-.05.03Z"/>
      <path class="cls-3" d="M99.77,108.08c-2.6-.41-5.37-.35-7.83.69-1.29.54-2.55,1.39-3.18,2.69-.52,1.06-.32,2.48.81,3.08,1.01.53,2.53.32,3.08-.81.04-.09.1-.18.15-.26.06-.06.12-.11.17-.17.2-.12.4-.24.6-.35-.02,0-.04.01-.05,0,0,0,.04-.01.1-.03,0,0,.02-.01.03-.02.18-.1.17-.08.12-.04.09-.04.19-.07.2-.08.27-.09.55-.16.82-.23.16-.04.33-.07.49-.1.08-.01.23-.03.32-.03-.05,0-.14,0-.28.01.64-.03,1.27-.11,1.91-.1.33,0,.66.02.99.05.13.01.27.03.4.04,0,0,.01,0,.02,0,.59.1,1.18.23,1.74.43.02,0,.03.01.05.02.07.03.16.07.2.09.12.06.23.12.34.19.04.04.08.09.12.13,0,0,0,0,0,0-.03-.02-.07-.08-.11-.12.04.02.06.05.09.07,0-.03.03,0,.08.08,0,0,0,0,0,.01,0,0,0,.01,0,.02,0,.01,0,.02.01.03.01.01.03.03.04.04,0,0,0,.01,0,.01-.01,0-.03-.02-.04-.02.42,1.01,1.59,1.71,2.68,1.35,1.15-.37,1.92-1.56,1.57-2.77-.71-2.44-3.36-3.55-5.66-3.91ZM101.22,113.42s0,0,0,0c.04.04.08.06.1.07-.04-.02-.07-.04-.1-.07Z"/>
      <path class="cls-3" d="M101.07,113.24s0,.02.02.05c.04.04.07.06.07.05,0,0,0-.01,0-.02-.01-.02-.04-.05-.08-.09Z"/>
      <path class="cls-3" d="M95.59,112.42c.1,0,.08,0,0,0h0Z"/>
      <path class="cls-3" d="M116.08,62.56c-1.19-.79-2.46-1.48-3.75-2.09-2.24-1.06-4.95-2.2-7.48-1.54-1.14.3-1.94,1.62-1.57,2.77.37,1.14,1.49,1.85,2.68,1.59.04-.02.11-.04.21-.04,0,0,0,0,0,0,.06-.01.12-.02.18-.04-.07.02-.09.03-.14.04.19,0,.38,0,.57.01.09.02.18.03.27.05.23.05.47.11.7.17.52.15,1.03.33,1.54.53.01,0,.03.01.05.02-.03-.01-.04-.02-.07-.03.12.05.24.1.35.16.25.11.49.23.74.35,1.19.58,2.36,1.22,3.46,1.95.99.65,2.53.23,3.08-.81.6-1.13.24-2.39-.81-3.08Z"/>
      <path class="cls-3" d="M106.05,63.27s-.06,0-.09.01c-.07.03-.02.04.25-.04-.01,0-.02,0-.04,0-.04,0-.08.02-.13.03Z"/>
      <path class="cls-3" d="M109.33,64.03c.52.24.18.08,0,0h0Z"/>
      <path class="cls-3" d="M87.01,62.42s-.04,0-.05-.01c-.01,0-.02,0-.03,0,0,0-.02,0-.02,0,.29.07.32.06.24.03-.04,0-.09,0-.13-.02Z"/>
      <path class="cls-3" d="M88.21,58.08c-2.13-.56-4.35.33-6.25,1.21-1.57.73-3.07,1.64-4.51,2.61-.32.21-.63.43-.94.66-.49.36-.87.74-1.03,1.34-.15.54-.08,1.26.23,1.73.6.94,2.06,1.55,3.08.81,1.18-.87,2.42-1.65,3.7-2.36.51-.28,1.02-.56,1.55-.81.14-.07.27-.13.41-.19.04-.02.11-.05.17-.07.2-.08.4-.16.61-.23.37-.13.75-.21,1.13-.3-.1.01.08-.06.24-.07,0,0,.02,0,.03,0,.04-.01.09-.02.13-.03-.05.01-.08.02-.12.03.09,0,.18,0,.27,0-.05-.01-.11-.03-.18-.05.08.02.16.03.24.05.08,0,.14.02.18.03,1.11.22,2.38-.44,2.64-1.59.27-1.18-.35-2.45-1.57-2.77ZM84.66,62.99c.11-.05.18-.07,0,0h0Z"/>
      <path class="cls-3" d="M86.35,62.48s.13-.02.28-.07c0,0,0,0-.01,0-.09.02-.18.04-.27.07Z"/>
      <path class="cls-3" d="M60.86,27.62s.02,0,.05,0c-.02,0-.05,0-.07-.01,0,0,.01.01.02.02Z"/>
      <path class="cls-3" d="M60.86,27.62s.03.02.04.03c0,0,0,0,0,0-.02-.01-.02-.02-.04-.03,0,0,0,0,0,0Z"/>
      <path class="cls-3" d="M60.83,27.59s0,0,.01,0c-.2-.18-.28-.23-.28-.22.09.06.18.14.27.22Z"/>
      <path class="cls-3" d="M170.82,163.18c-4.11-3.06-8.98-5.09-13.61-7.24-4.64-2.15-9.3-4.25-13.97-6.31-2.62-1.16-5.24-2.31-7.86-3.45-2.73-5.19-5.59-10.49-7.48-16.03-.57-1.67-2.44-2.13-3.76-.99-.06.05-.12.1-.18.15-.28-3.25-.4-6.53-.42-9.78,0-.23-.05-.45-.12-.67,3.08-5.22,4.75-10.91,5.77-16.85,2.6-.66,5.43-1.33,7.32-3.19,2.99-2.95,4.59-8.25,4.11-12.36-.44-3.7-2.42-7.78-6.11-9.1.07-.32.12-.64.18-.94.65-3.2,1.16-6.42,1.58-9.66,1.12-8.59,2.05-18.47-1.06-26.76-1.43-3.8-3.94-7.13-7.82-8.45-3.01-6.67-9.39-11.85-16.25-14.04-4.94-1.58-9.54-1.13-14.58-.41-5.45.78-10.86,1.84-16.24,2.99-2.29.49-4.6,1.19-6.92,1.52-1.45.21-3.03.23-4.43-.28-.3-.11-.54-.26-.86-.41-.04-.02-.06-.03-.09-.04,0,0,0,0,0,0-1.14-1.05-2.68-.75-3.53.46-1.33,1.87-1.04,4.06,0,5.88-.99.37-2.03.6-3.05.49-.06,0-.36-.03-.5-.05,0,0,0,0,.01.01,0,0,0,0-.01-.01-.07-.01-.09-.02-.04-.03,0,0-.02-.02-.03-.02-.13-.05-.27-.19-.27-.22-1.87-1.26-4.2.88-3.18,3.01.57,1.2,1.28,2.73,2.22,4-2.3,2.45-3.51,6.09-4.35,9.15-1.17,4.26-2,8.86-2.11,13.28-.12,4.38.97,8.92,1.91,13.17.45,2.06.95,4.1,1.47,6.14-1.44.37-2.78,1.13-3.81,2.32-2.39,2.76-2.86,6.8-2.45,10.31.41,3.52,1.56,7.13,4.42,9.41,1.82,1.45,4.11,2.44,6.42,2.97,1.11,6.54,2.85,13.08,6.43,18.72.14.23.31.43.46.66-.09.24-.15.5-.15.78.01,1.3-.03,2.61-.09,3.91-.06,1.26-.15,2.52-.27,3.77-.02.23-.05.46-.07.69-.02-.02-.05-.03-.07-.05-1.34-.84-2.8.05-3.31,1.34-1.72,4.4-3.45,8.79-5.17,13.19-.08.03-.16.05-.24.09-9.84,4.88-20.43,8.09-30.63,12.11-4.26,1.68-8.98,3.29-12.76,5.92-4.04,2.81-7.02,7.06-9.39,11.3-2.72,4.87-4.92,10.27-5.83,15.8h4.55c.84-4.2,2.41-8.27,4.38-12.07,2.08-4.01,4.69-8.31,8.39-11.04,3.51-2.59,8.09-4.11,12.11-5.69,5.06-1.99,10.19-3.82,15.29-5.73,4.55-1.7,9.09-3.46,13.5-5.49.09.14.19.28.29.42,1.67,2.43,3.35,4.86,5.02,7.29,1.4,2.04,2.81,4.07,4.21,6.11.85,1.23,3.15,1.68,3.89,0,1.04-2.39,2.08-4.78,3.13-7.16,2.89,2.56,7.23,3.04,10.85,4.07,1.13.32,2.5-.39,2.77-1.57.27-1.2-.36-2.42-1.57-2.77-2.02-.57-4.09-.98-6.1-1.6-.43-.13-.86-.29-1.29-.45-.01,0-.02,0-.03,0-.07-.03-.14-.06-.21-.09-.2-.09-.4-.19-.59-.3-.19-.1-.37-.21-.55-.33-.05-.03-.09-.06-.14-.1-.13-.13-.28-.24-.4-.37-.08-.08-.14-.17-.22-.25,0,0,0,0-.01,0-.17-.22-.38-.42-.61-.58.87-1.98,1.73-3.97,2.6-5.95,1.15-2.63-2.73-4.92-3.89-2.27-2.04,4.67-4.08,9.35-6.12,14.02-2.3-3.33-4.59-6.67-6.89-10,1.64-4.19,3.28-8.38,4.93-12.56,3.37,2.11,6.73,4.22,10.1,6.33.97.61,1.94,1.22,2.91,1.83.19.12.38.26.58.38.34.54.96,1.12,1.26,1.51,1.09,1.43,2.18,2.86,3.28,4.28,2.83,3.66,5.69,7.31,8.68,10.85.05.16.13.3.22.44-.13.28-.21.59-.2.92.11,3.81-.11,7.62,0,11.42.03,1.18,1.01,2.31,2.25,2.25,1.19-.05,2.29-.99,2.25-2.25-.11-3.81.11-7.62,0-11.42,0-.3-.08-.59-.2-.87.26.03.53.03.81-.02.05,0,.1-.02.15-.03.01,0,.01,0,.03,0,.08,0,.17-.02.25-.03.32-.03.64-.06.96-.1.9-.09,1.81-.2,2.7-.4,2.27-.51,4.38-1.63,6.25-2.98.95-.69,1.51-1.99.81-3.08-.61-.94-2.06-1.54-3.08-.81-.99.72-2.03,1.37-3.14,1.88,0,0-.02,0-.02,0,.02,0,.03,0,.06-.02-.1.03-.21.08-.31.12-.22.08-.43.16-.65.23-.4.13-.8.24-1.21.33-.09.02-.19.04-.28.05,1.73-2.46,3.46-4.92,5.17-7.4.98-1.43,1.96-2.87,2.94-4.3.25-.37.5-.87.82-1.2.14.06.76-.2.76-.2,1.17-.31,2.39-1.17,3.46-1.73,1.03-.54,2.06-1.09,3.07-1.68,1.46-.84,2.9-1.74,4.27-2.72.88-.63,1.71-1.3,2.53-1.98,1.75,4.36,3.94,8.59,6.12,12.74-4.2,2.58-8.39,5.17-12.59,7.75-1.37-2.9-2.73-5.8-4.1-8.71-1.23-2.62-5.11-.34-3.89,2.27,1.69,3.6,3.39,7.2,5.08,10.8.51,1.08,2.11,1.4,3.08.81,5.24-3.22,10.47-6.44,15.71-9.66,5.99,2.6,11.97,5.25,17.9,7.97,4.29,1.97,8.69,3.86,12.81,6.18,4.8,2.7,8.75,6.57,11.43,11.39,2.29,4.12,3.55,8.69,4.31,13.32h4.52c-1.52-10.29-5.79-19.86-14.32-26.21ZM123.52,33.89s-.03-.06-.02-.06c0,0,0,.01.02.06ZM59.12,46.57c.76-3.26,1.82-8.41,5.08-10.13,1.75-.92,1.27-3.61-.54-4.11.33.09.15-.07-.06-.27,2.05-.41,4.09-1.33,5.59-2.12,1.19-.62,1.56-2.64.46-3.53-.14-.11-.29-.23-.44-.36,2.62.4,5.5-.11,7.92-.67,4.75-1.09,9.53-2.07,14.33-2.93,4.46-.8,9.26-1.89,13.82-1.61,5.12.32,10.21,3.03,13.77,6.64,1.36,1.38,2.53,2.92,3.51,4.6.31.54.6,1.09.87,1.64.02.04.08.16.13.28.14.71.62,1.34,1.56,1.55,2.69.61,4.36,2.44,5.51,5.08,1.35,3.11,1.78,6.65,1.95,10.01.37,7.13-.41,14.33-1.64,21.34-.22,1.26-.46,2.52-.73,3.77-.04.02-.08.04-.12.06-1.5-4.56-2.98-9.12-4.31-13.73-.35-1.23-.67-2.46-.97-3.7-.02-.07-.06-.3-.08-.42-.08-.54-.13-1.08-.21-1.61-.23-1.41-.56-2.8-.99-4.16-1.02-3.19-2.48-6.46-4.51-9.16-.54-.72-1.57-1.44-2.54-1.03-2.48,1.03-5.05,1.89-7.63,2.63-2.44.7-5.44,1.59-8.23,1.56.97-1.03,2.07-1.97,3.05-2.84,1.87-1.67-.65-5.06-2.73-3.53-4.44,3.25-9.93,5.28-15.37,6.75,1-2.17,2.01-4.35,3.01-6.52,1.07-2.31-1.54-4.45-3.53-2.73-4.77,4.11-9.53,8.22-14.27,12.35-1.33,1.16-2.69,2.29-4,3.49-1.58,1.45-1.02,3.07-1.13,5.01-.23,4.06-1.41,8.11-2.6,11.98-.59,1.91-1.23,3.81-1.91,5.69-.03,0-.06-.01-.09-.02-1.6-5.85-3.24-12.01-3.41-18.04-.11-3.71.65-7.61,1.48-11.2ZM117.62,76.42c-.02,1.25-.46,2.58-1.26,3.84-.77,1.21-1.88,2.21-3.24,2.89-1.21.61-2.72.75-4.08.36-1.41-.4-2.54-1.2-3.59-2.41-.91-1.03-1.52-2.31-1.82-3.79-.01-.06-.04-.27-.04-.32,0-.12-.02-.23-.02-.35,0-.23,0-.47.01-.7,0-.02,0-.08.01-.13.06-.32.14-.63.26-.94.01-.03.03-.07.04-.08.12-.21.23-.42.37-.62.01-.02.02-.02.02-.04.02-.02.04-.04.07-.07.09-.1.19-.2.29-.3.13-.13.27-.25.41-.36.03-.02.06-.04.12-.08.77-.49,1.08-.63,1.83-.86,1.65-.51,3.12-.59,4.95-.44,1.45.12,2.96.53,4.21,1.4.06.05.14.1.17.13.18.17.35.33.52.51.02.02.05.06.08.1.1.14.2.29.28.44.02.03.14.3.17.36.05.15.11.31.15.47.03.11.05.22.07.33-.03-.07.04.57.04.65ZM114.07,67.82c-4.2-.79-9.41-.36-12.62,2.78-1.08,1.05-1.75,2.31-2.09,3.66h-5.58c-1.01-3.5-4.25-5.73-7.94-6.42-4.4-.82-9.88-.43-13.3,2.79-.5.47-.9.99-1.24,1.54-.03,0-.05,0-.08,0-1.41.15-2.82.3-4.23.45.31-.98.63-1.96.92-2.95,1.24-4.3,2.48-8.93,2.23-13.47,3.37-2.96,6.76-5.91,10.16-8.84-.21.46-.42.92-.63,1.37-.82,1.78.53,3.76,2.54,3.31,4.08-.92,8.38-2.1,12.45-3.73.18.7.71,1.28,1.54,1.62,3.98,1.64,9.1.34,13.06-.73,2.36-.64,4.69-1.42,6.97-2.3,1.37,2.19,2.43,4.62,3.16,7.05.94,3.17,1.26,6.47,2.19,9.66.86,2.94,1.77,5.87,2.7,8.79-.68-.11-1.35-.23-2.03-.34-.2-.03-.39-.07-.59-.1-.3-.09-.6-.11-.9-.04,0,0-.01,0-.02,0-1.45-2.15-3.89-3.58-6.65-4.1ZM89.61,76.42c-.01.77-.08,1.03-.34,1.91-.16.54-.59,1.34-1.03,1.98-.81,1.19-2.09,2.28-3.53,2.9-2.78,1.2-5.89.24-8-2.01-1.04-1.1-1.68-2.37-2.02-3.83-.01-.05-.05-.28-.06-.33-.01-.13-.02-.26-.03-.38,0-.2,0-.4,0-.6,0-.06.03-.26.04-.32.05-.22.14-.54.17-.65.04-.07.2-.4.18-.37.09-.16.2-.33.31-.48,0,.02.42-.43.49-.5.04-.04.18-.15.23-.19.1-.07.2-.14.31-.21.75-.47,1.11-.61,1.93-.85,1.65-.48,3.25-.58,5.02-.47,1.71.11,3.39.52,4.78,1.44.41.27.83.69,1.14,1.25.05.09.1.18.14.27,0,.03.13.39.13.4,0-.04.07.31.1.41,0,.13.04.52.04.62ZM99.44,160.51s.07,0,.11-.01c-.04,0-.07,0-.11.01ZM119.39,133.02c-1.55,1.07-3.17,2.03-4.81,2.94-1.01.56-2.02,1.09-3.05,1.61-1.23.62-2.85,1.11-3.91,1.96-.62.5-1.05,1.33-1.5,1.98-.98,1.45-1.97,2.89-2.96,4.33-2.27,3.3-4.57,6.58-6.88,9.85-4.01-4.89-7.71-10-11.69-14.91-1-1.23-2.58-1.96-3.91-2.8-2.63-1.65-5.26-3.29-7.88-4.94-.42-.26-.84-.53-1.26-.79.35-2.18.57-4.39.69-6.61,3.49,3.44,7.7,6.12,12.34,7.84,6.91,2.55,14.81,2.74,21.74.15,5.02-1.87,9.36-5.02,12.87-8.97.11,2.68.31,5.36.64,8.01-.14.1-.27.22-.42.32ZM107.84,128.08c-1.22.64-2.49,1.15-3.77,1.57v-2.23c0-.58-.25-1.18-.66-1.59s-1.03-.68-1.59-.66c-.58.03-1.19.22-1.59.66-.4.44-.66.98-.66,1.59v3.27c-.3.04-.6.09-.9.12v-3.39c0-.58-.25-1.18-.66-1.59-.39-.39-1.03-.68-1.59-.66-.58.03-1.19.22-1.59.66-.4.44-.66.98-.66,1.59v3.48c-.3-.02-.6-.02-.9-.04v-3.44c0-.58-.25-1.18-.66-1.59-.39-.39-1.03-.68-1.59-.66-.58.03-1.19.22-1.59.66-.4.44-.66.98-.66,1.59v2.64c-6.6-1.69-12.66-5.66-16.61-11.33-4.13-5.93-5.84-13.03-6.94-20.07-.11-.68-.89-1.47-1.57-1.57-1.68-.24-3.4-.76-4.9-1.58-2.27-1.25-3.24-3.19-3.78-5.65-.51-2.28-.62-5.03.35-7.21.91-2.04,2.99-2.95,4.98-1.7.99.62,1.94.36,2.57-.28.86-.12,1.53-.73,1.88-1.62.23-.59.42-1.19.64-1.78,1.59-.17,3.17-.34,4.76-.51.07,2.08.81,4.2,2.02,5.92,2.85,4.07,7.79,6.47,12.74,5.18,4.28-1.12,7.86-4.81,8.9-9.12h5.56c.32,1.42.91,2.79,1.71,3.98,2.66,3.95,7.36,6.42,12.14,5.15,4.95-1.31,8.75-6.23,8.9-11.32.8.13,1.6.27,2.39.4.2.03.39.07.59.1.24.07.48.08.71.06.19.56.37,1.13.55,1.69-.84,1.59,1,3.99,3.1,3.06.29-.1.58-.21.88-.29.69-.19,1.4-.3,2.12-.18,2.76.44,3.81,4.39,3.73,6.73-.09,2.52-1.17,6.62-3.52,8.02-1.71,1.01-4.14,1.34-6.05,1.88-.69.19-1.45.82-1.57,1.57-1.79,11.41-6.45,22.8-17.22,28.47Z"/>
      <path class="cls-3" d="M104.13,155.02c-.45.12-.17.07,0,0h0Z"/>
    </g>
  </g>
</svg>