<?xml version="1.0" encoding="UTF-8"?>
<svg id="_レイヤー_2" data-name="レイヤー 2" xmlns="http://www.w3.org/2000/svg" viewBox="0 0 159.75 168.61">
  <defs>
    <style>
      .cls-1 {
        fill: #fff;
      }

      .cls-2 {
        fill: #78c8e6;
      }

      .cls-3 {
        fill: #323232;
      }
    </style>
  </defs>
  <g id="_レイヤー_1-2" data-name="レイヤー 1">
    <g>
      <path class="cls-2" d="M10.96,40.41c.09.02.13.02.15.02-.02,0-.09,0-.16-.02,0,0,0,0,0,0Z"/>
      <path class="cls-2" d="M15.78,14.3s0-.09,0-.16c-.03-.11-.07-.16,0,.16Z"/>
      <path class="cls-2" d="M15.78,14.3s0,.04,0,.05c0,0,0-.02.01-.03,0,0,0,0,0,0,0,0,0,0,0-.01Z"/>
      <path class="cls-2" d="M95.84,46.52s.04.02.07.02c0,0,0,0,0,0-.02,0-.05-.02-.07-.02Z"/>
      <path class="cls-1" d="M117.06,85.75c-1.13.2-2.19.11-3.23-.27-1.72,6.44-5.04,12.48-9.63,17.31.01.06.03.12.04.19.64,6.54,1.58,13.67,5.32,19.25,2.85,4.26,7.26,6.13,11.65,8.41,2.73,1.42,5.43,2.93,8.06,4.53-2.65-16.76-8.88-32.85-11.5-49.61-.23.08-.47.16-.71.2Z"/>
      <path class="cls-1" d="M41.23,107.97c-.69-3.61-.55-7.07-.44-10.71.06-2.04-.41-4.91-.25-7.5-1.99,15.91-5.35,31.79-10.8,46.87,1.43-.61,2.87-1.21,4.31-1.8,2.97-1.23,5.95-2.44,8.89-3.74,2.51-1.11,5.17-2.23,7.41-3.86-1.25-3.17-2.73-6.07-4.67-8.96-2.13-3.18-3.73-6.52-4.45-10.3Z"/>
      <path class="cls-1" d="M51.99,131.53c-1.08.7-2.2,1.34-3.35,1.94.19.23.34.51.44.86,1.57,5.69,3.02,11.42,4.44,17.16.19,0,.37.02.55.07,1.06.29,2.12.57,3.17.84.08-.62.15-1.25.19-1.88.25-3.75-.65-7.22-2-10.69-1.09-2.79-2.32-5.51-3.43-8.29Z"/>
      <path class="cls-2" d="M54.71,156.38c.32,1.31.64,2.62.96,3.93.07-.29.15-.59.23-.88.21-.87.41-1.74.59-2.62-.07-.01-.15,0-.23-.01-.52-.14-1.03-.27-1.55-.41Z"/>
      <path class="cls-1" d="M100.13,106.48c-7.08,5.47-15.84,7.72-24.53,6.01,3.33,8.28,8.32,15.99,9.59,24.95.96,6.76-.05,13.92-2.26,20.43.06.02.11.04.17.06.42.14.53.13,1.22.09.98-.07,2.01-.27,3.3-.54,3.44-.72,6.84-1.66,10.22-2.63,4.5-1.29,8.97-2.68,13.41-4.14,1.62-5.54,3.23-11.08,4.85-16.61.09-.3.22-.54.38-.75-.82-.43-1.64-.86-2.45-1.3-9.65-5.22-12.59-15.42-13.89-25.57Z"/>
      <path class="cls-2" d="M10.84,40.4s.07,0,.12,0c-.02,0-.03-.01-.05-.02-.02,0-.04,0-.07.01Z"/>
      <path class="cls-2" d="M95.9,46.54s.06.03.09.04c.21.09.07.03-.05-.02-.01,0-.03-.01-.04-.01Z"/>
      <path class="cls-1" d="M82.56,90.43c-.03-.06-.07-.12-.11-.18-.03-.03-.07-.07-.1-.1-.06-.04-.12-.07-.18-.11-.06-.02-.13-.04-.19-.05-.07,0-.14,0-.21,0-.06.02-.13.03-.19.05-.06.03-.12.07-.18.11-.03.03-.07.07-.1.1-.04.06-.07.12-.11.18-.02.06-.04.13-.05.19,0,.07,0,.14,0,.21.02.06.03.13.05.19.03.06.07.12.11.18.03.03.07.07.1.1.06.04.12.07.18.11.06.02.13.04.19.05.07,0,.14,0,.21,0,.06-.02.13-.03.19-.05.06-.03.12-.07.18-.11.03-.03.07-.07.1-.1.04-.06.07-.12.11-.18.03-.1.06-.19.08-.29,0,0,0,0,0,0s0,0,0,0c-.02-.1-.05-.2-.08-.29Z"/>
      <path class="cls-2" d="M42.6,58.74s0,0,0,0c.02-.1.02-.07-.03.01,0,0,.01,0,.03,0Z"/>
      <path class="cls-2" d="M10.17,37.65c.1-.08.26-.23.03-.02,0,0-.02.02-.03.02Z"/>
      <path class="cls-2" d="M42.55,58.8s.02-.02.02-.03c-.02.01-.02.02-.02.03Z"/>
      <path class="cls-1" d="M118.66,59.08c-1.34-.94-3.65-.03-4.94.65-.31.16-.61.24-.91.27-1.16.5-2.6.17-2.84-1.41-.68-4.44-1.68-9.07-3.16-13.56-.12.02-.25.04-.39.04-8.25-.03-16.35-2.92-23.31-7.24-6.15-3.81-12.05-8.99-15.41-15.51-.46.53-.89,1.06-1.31,1.59.02.26,0,.54-.08.85-3.4,11.68-6.53,24.57-15.64,33.26-.25,1.55-2.32,2.8-3.85,1.38-.24-.22-.69-.45-1.13-.57-.67-.18-1.03-.24-1.71-.25-.69,0-.7,0-1.33.16-.04.01-.03,0-.05.01,0,0,0,0-.01,0-.02.08-.05.07-.05.05-.01.02-.03.05-.05.07-.06.08-.13.15-.19.22.25-.31-.11.19-.17.3-.11.18-.21.37-.31.57-.04.07-.07.14-.1.21,0,.02-.01.03-.03.07-.09.26-.18.52-.26.78-.31,1.05-.43,1.83-.5,2.78-.16,2.27,0,4.33.51,6.44.26,1.03.53,1.86.87,2.53.11.21.22.42.35.62.03.05.15.22.21.31.07.07.19.22.23.26.15.15.3.3.45.44.21.19.46.34.69.52,1.28-.52,2.75-.61,4.02-.13,1.21.45,2.15,1.18,2.9,2.23.11.15.19.31.27.47.41.4.64.96.68,1.53.39-.03.78-.03,1.17.04.4-1.21,1.11-2.29,2.27-2.98,1.77-1.07,4.19-.71,5.9.33,2.53,1.54,2.89,4.54,3.32,7.29,4.64.06,6.11,4.93,6.88,8.69.92,4.5.66,9.13,1.76,13.61.12.47.25.94.39,1.41,8.92,2.65,18.07.55,25.07-5.74,5.91-5.32,10.01-12.74,11.31-20.61-.07-.41-.1-.82-.06-1.22.06-.63.2-1.21.41-1.75,0-.07.02-.14.02-.21.07-1.07.69-1.78,1.6-2.09,1.11-.94,2.64-1.41,4.1-1.3.53-.28,1.04-.61,1.49-1.02,1.75-1.59,2.5-4.3,2.81-6.56.31-2.31.26-6.3-1.92-7.83ZM68.8,61.56c-2.9,0-2.9-4.5,0-4.5s2.9,4.5,0,4.5ZM74.13,47.37c-.17.6-.55.99-1.03,1.34-1.74,1.27-3.61,2.3-5.65,2.99-1.25.42-2.55.67-3.77,1.18-.54.23-1.24.04-1.73-.23-.52-.27-.86-.8-1.03-1.34-.17-.54-.06-1.25.23-1.73.32-.55.78-.8,1.34-1.03,1.19-.5,2.46-.75,3.68-1.15.35-.12.7-.26,1.04-.39-.75.27,0,0,.18-.09.2-.09.4-.19.6-.3,1-.52,1.94-1.13,2.84-1.79,1.02-.74,2.47-.13,3.08.81.31.48.37,1.2.23,1.73ZM82.02,75.28c2.9,0,2.9,4.5,0,4.5s-2.9-4.5,0-4.5ZM87.09,91.21c-.12,1.13-.56,2.16-1.31,3.04-.67.8-1.74,1.43-2.77,1.62-1.23.22-2.36.09-3.5-.44-.9-.41-1.67-1.18-2.17-2.02-.51-.86-.81-1.97-.72-2.97.05-.52.12-1.02.31-1.5.27-.66.55-1.15,1.01-1.7,1.3-1.56,3.71-2.21,5.61-1.5,1.13.42,2,1.09,2.7,2.08.59.83.87,1.9.88,2.91,0,.17-.02.33-.05.48ZM94.85,61.56c-2.9,0-2.9-4.5,0-4.5s2.9,4.5,0,4.5ZM102.92,51.32c-.12.54-.57,1.07-1.03,1.34-.44.26-1.23.44-1.73.23-3.18-1.33-6.72-2.03-9.51-4.17-.49-.38-.84-.75-1.03-1.34-.19-.58-.05-1.21.23-1.73.26-.49.82-.89,1.34-1.03.49-.14,1.3-.1,1.73.23.68.52,1.42.96,2.19,1.34.19.09.38.18.57.27.08.04.15.07.23.1.01,0,.02,0,.04.01.36.11.71.29,1.06.42,1.44.54,2.93.98,4.35,1.57.57.24,1.01.51,1.34,1.03.33.51.36,1.16.23,1.73Z"/>
      <path class="cls-1" d="M69.9,109.95c-1.37-4.24-1.83-8.61-2.1-13.04-.11-1.8-.44-3.54-.89-5.29-.22-.84-.71-3.62-2.13-3.46-1.59.18-.68,5.95-.59,7.05.36,4.44.76,8.88,1.1,13.32.22,2.89-4.28,2.87-4.5,0-.39-5.08-.89-10.15-1.25-15.23-.16-2.33-.14-5.46,1.14-7.51-.23-1.94-.37-4.91-1.8-5.69-1.59-.87-1.51,1.34-1.53,2.33-.04,1.9-.06,3.8-.08,5.7-.08,7.61.09,15.2.82,22.77.28,2.89-4.22,2.86-4.5,0-.48-5.02-.76-10.05-.83-15.09-.06-4.02-.15-8.12.01-12.16-1.48-.91-1.83,2.61-1.88,3.4-.16,2.46-.18,4.93-.13,7.39.1,5.41.61,10.8,1.41,16.15.18,1.21-.28,2.41-1.57,2.77-1.07.3-2.59-.37-2.77-1.57-1.04-6.94-1.69-13.94-1.57-20.97.02-1.04,0-2.16.05-3.28-.17.23-.41.44-.72.61-.04.02-.06.03-.09.04,0,.03,0,.04-.02.08-.06.16-.11.34-.16.5-.14.48-.18.97-.2,1.47-.08,1.4,0,2.8.07,4.2.17,3.16-.23,6.3,0,9.46.27,3.63,1.27,7.14,3.17,10.25,2.02,3.29,4.17,6.3,5.63,9.91,1.4,3.47,2.55,7.01,4.04,10.45,1.52,3.51,3.06,7.06,3.66,10.87.94,6.04-.64,12.41-2.22,18.22-.46,1.68-.94,3.35-1.46,5.01h16.51c.45-1.36.9-2.71,1.35-4.07.44-1.33.88-2.65,1.32-3.98.11-.34.22-.68.34-1.02.02-.06.05-.12.07-.19.03-.46.2-.92.47-1.31,2.21-6.04,3.49-12.64,2.8-19.06-1.12-10.38-7.83-19.27-10.98-29.04Z"/>
      <path class="cls-2" d="M87.96,161.99c-1.32.25-2.68.52-4.02.55-.88.02-1.71-.19-2.52-.44-.44,1.33-.88,2.66-1.33,3.99-.28.84-.56,1.68-.84,2.52h26.77c.26-.87.51-1.75.77-2.62.98-3.35,1.96-6.71,2.94-10.06-3.79,1.21-7.58,2.39-11.41,3.47-3.42.97-6.86,1.92-10.36,2.59Z"/>
      <path class="cls-1" d="M130.03,140.95c-3.13-2.03-6.37-3.79-9.64-5.52-.44,1.5-.88,3-1.31,4.5-2.79,9.56-5.58,19.12-8.37,28.67h44.3c-1.98-5.7-5.44-10.75-9.59-15.14-4.56-4.82-9.83-8.91-15.38-12.51Z"/>
      <path class="cls-1" d="M44.74,135.52c-.02-.08-.02-.15-.04-.22-2.29.98-4.63,1.88-6.87,2.8-5.25,2.16-10.55,4.28-15.49,7.11-4.75,2.73-9.41,6.07-12.09,10.96-2.17,3.96-3.59,8.27-5.34,12.43h48.37c.03-.08.06-.17.09-.25-.29-.26-.52-.62-.64-1.1-2.58-10.59-5.09-21.22-7.98-31.73Z"/>
      <path class="cls-1" d="M80.54,4.5c-1.33,0-2.04-.96-2.15-1.98-1.15,0-2.3.22-3.46.56-.04.82-.54,1.57-1.62,1.75-5.02.85-9.58,3.25-13.51,6.44-7.14,5.81-12.86,13.9-15.99,22.56-2.3,6.39-1.74,13.73.13,20.21,1.24,0,2.49.23,3.64.69,8.43-8.14,11.22-20.3,14.38-31.18.72-2.48,4.23-1.8,4.42.35.41-.53.84-1.06,1.31-1.59-.08-.15-.17-.28-.24-.43-1.28-2.59,2.6-4.87,3.89-2.27,3,6.07,8.36,10.81,14.04,14.33,5.94,3.68,12.73,6.26,19.75,6.57-3.11-7.42-7.77-14.05-14.8-18.12-2.51-1.45-.24-5.34,2.27-3.89,12.79,7.41,18.73,22.27,21.26,36.32,1.16-.38,2.38-.61,3.58-.6.78-3.58,1.02-7.34,1.01-10.99-.05-10.16-3.44-19.78-10.48-27.2-7.2-7.59-17.04-11.46-27.44-11.53Z"/>
      <path class="cls-1" d="M41.54,83.08c-.56-.94-.88-2.15-.78-3.24.06-.57.18-1.1.37-1.6-.39-.32-.76-.67-1.12-1.04-.88,1.58-1.26,3.16-1.46,4.74,1.32-.33,2.84.35,2.66,2.06-.15,1.42-.33,2.85-.5,4.27.28-1.51.91-2.82,2.13-3.69-.51-.43-.97-.94-1.3-1.5Z"/>
      <path class="cls-2" d="M42.57,58.77s.02,0,.03-.01c0,0,0,0,0,0-.01,0-.02,0-.03,0,0,0,0,0,0,.01Z"/>
      <path class="cls-2" d="M9.67,38.12c-.06.06-.11.11-.1.14,0,0,.06-.07.1-.14Z"/>
      <path class="cls-3" d="M26.09,13.79c-1.86-1.84-3.58-3.81-6.07-4.8-2.79-1.11-6.11-.31-7.87,2.19-1.37,1.95-1,4.61.24,6.53,1.67,2.59,4.45,3.83,7.44,4.12,1.18.11,2.3-1.11,2.25-2.25-.06-1.31-.99-2.13-2.25-2.25-.04,0-.17-.02-.21-.02-.06-.01-.12-.02-.19-.03-.24-.05-.48-.1-.71-.17-.21-.06-.41-.14-.61-.21-.12-.06-.24-.12-.36-.18-.18-.1-.36-.21-.53-.32-.05-.03-.1-.07-.15-.11,0,0,0,0,0,0-.11-.14-.29-.26-.42-.39-.09-.09-.2-.24-.25-.29-.15-.24-.3-.48-.44-.73,0,0,0,0,0,0,0-.01,0-.02,0-.03-.05-.17-.11-.33-.15-.51,0,0,0,.02-.01.03,0,0,0-.03,0-.05-.07-.32-.02-.27,0-.16,0-.08-.01-.16-.02-.21.01-.05.03-.09.04-.13.01-.02.01-.02.03-.05.02-.04.03-.06.04-.08.07-.07.14-.15.19-.2.06-.03.33-.22.41-.27.03-.02.08-.04.13-.06.04-.01.08-.03.12-.04.09-.03.18-.06.27-.08.02,0,.25-.03.32-.05.05,0,.09,0,.11,0,.09,0,.19,0,.28,0-.44-.02.22.05.36.09.07.02.43.15.49.16.25.11.49.24.72.38.57.35.51.31,1.01.75.42.37.81.77,1.2,1.18.55.57,1.1,1.13,1.67,1.68.98.96,1.98,1.92,2.98,2.86.86.81,2.34.91,3.18,0,.81-.88.91-2.32,0-3.18-1.09-1.03-2.17-2.07-3.23-3.12Z"/>
      <path class="cls-3" d="M15.78,14.3s0,0,0,.01c0,0,0,0,0,0,.02-.05.01-.12,0-.18,0,.07,0,.12,0,.16Z"/>
      <path class="cls-3" d="M9.44,38.99s0-.04,0,0h0Z"/>
      <path class="cls-3" d="M10.9,40.39s.03.01.05.02c.07,0,.14.02.16.02.04-.02-.06-.07-.21-.03Z"/>
      <path class="cls-3" d="M18.03,31.7c-1.13.04-2.26.11-3.38.21-2.04.18-4.03.42-5.88,1.34-2.18,1.09-4,3.31-3.82,5.86.18,2.62,1.95,4.71,4.42,5.52,1.27.42,2.74.38,3.99-.09,1.57-.58,2.83-1.54,4.14-2.56.93-.73.82-2.43,0-3.18-.99-.91-2.19-.78-3.18,0-.06.05-.12.1-.19.15-.04.03-.08.06-.1.07-.2.15-.4.3-.61.44-.43.29-.87.54-1.33.77,0,0,0,0-.01,0-.09.02-.18.06-.26.09-.09.03-.17.05-.26.07-.14,0-.33.03-.43.02,0,0,0,0,0,0-.02,0-.06,0-.15-.02,0,0,0,0,0,0-.05,0-.1,0-.12,0,.02-.01.04,0,.07-.01-.14-.04-.28-.09-.42-.12-.05-.02-.1-.05-.15-.08-.04-.02-.21-.14-.31-.2-.09-.09-.22-.2-.26-.24-.01-.01-.04-.05-.07-.09-.04-.07-.13-.29-.2-.4-.01-.04-.02-.08-.03-.11-.02-.06-.02-.11-.02-.16,0,.02,0,.05-.01.11-.04.37,0-.03,0-.13,0-.07,0-.14,0-.2.04-.1.09-.29.12-.41.04-.07.08-.13.12-.2.03-.05.03-.05.04-.07.05-.05.1-.09.11-.11.11-.11.23-.22.34-.33.07-.04.15-.11.19-.14.17-.11.35-.22.54-.31.09-.05.18-.09.27-.14.67-.23,1.32-.4,2.02-.51.03,0,.06,0,.09-.01.14-.02.27-.03.41-.05.38-.04.77-.08,1.16-.11,1.06-.09,2.12-.16,3.18-.19,1.17-.04,2.31-1.01,2.25-2.25-.05-1.18-.99-2.29-2.25-2.25ZM9.57,38.26s.04-.08.1-.14c-.04.06-.1.14-.1.14ZM10.17,37.65s.02-.02.03-.02c.23-.21.08-.06-.03.02Z"/>
      <path class="cls-3" d="M42.55,58.8s.03.03.05-.05c0,0-.02,0-.03.01,0,0-.01.02-.02.03Z"/>
      <path class="cls-3" d="M95.9,46.54s.03,0,.04.01c-.02,0-.02,0-.04-.01,0,0,0,0,0,0Z"/>
      <path class="cls-3" d="M101.35,48.55c-1.42-.6-2.9-1.03-4.35-1.57-.35-.13-.7-.31-1.06-.42.12.05.25.12.05.02-.03-.01-.06-.03-.09-.04-.02,0-.04-.02-.07-.02.02,0,.04.01.07.02-.08-.03-.15-.07-.23-.1-.19-.09-.38-.18-.57-.27-.77-.38-1.51-.82-2.19-1.34-.43-.33-1.24-.36-1.73-.23-.52.14-1.09.55-1.34,1.03-.28.52-.41,1.15-.23,1.73.19.6.54.97,1.03,1.34,2.79,2.14,6.32,2.84,9.51,4.17.5.21,1.29.03,1.73-.23.47-.27.91-.81,1.03-1.34.13-.58.1-1.22-.23-1.73-.34-.53-.77-.79-1.34-1.03Z"/>
      <path class="cls-3" d="M70.83,44.83c-.91.66-1.85,1.27-2.84,1.79-.2.1-.4.2-.6.3-.19.09-.93.36-.18.09-.35.13-.69.27-1.04.39-1.22.41-2.49.65-3.68,1.15-.57.24-1.02.48-1.34,1.03-.28.48-.4,1.19-.23,1.73.18.54.51,1.07,1.03,1.34.5.26,1.19.45,1.73.23,1.22-.51,2.52-.76,3.77-1.18,2.04-.69,3.91-1.72,5.65-2.99.49-.36.87-.74,1.03-1.34.15-.54.08-1.26-.23-1.73-.61-.94-2.06-1.55-3.08-.81Z"/>
      <path class="cls-3" d="M94.85,57.06c-2.9,0-2.9,4.5,0,4.5s2.9-4.5,0-4.5Z"/>
      <path class="cls-3" d="M82.02,75.28c-2.9,0-2.9,4.5,0,4.5s2.9-4.5,0-4.5Z"/>
      <path class="cls-3" d="M68.8,57.06c-2.9,0-2.9,4.5,0,4.5s2.9-4.5,0-4.5Z"/>
      <path class="cls-3" d="M137.39,140.57c-1.03-.76-2.09-1.49-3.15-2.21-2.65-20.69-11.44-40.3-12.95-61.17-.02-.26-.08-.5-.17-.71,0,0,0,0,0,0,2.67-2.65,3.78-6.75,4.03-10.4.24-3.45-.64-7.95-3.47-10.32.03-.09.07-.17.09-.27,2.05-9.29,1.79-19.88-1.76-28.74-3.79-9.46-10.84-17.6-19.98-22.21C93.98,1.47,87.31.05,80.54,0c-1.57-.01-2.28,1.31-2.15,2.52.86,0,1.73.12,2.59.41-.86-.29-1.73-.41-2.59-.41.11,1.02.82,1.97,2.15,1.98,10.4.07,20.24,3.93,27.44,11.53,7.04,7.42,10.43,17.04,10.48,27.2.02,3.66-.23,7.41-1.01,10.99-1.2-.01-2.42.22-3.58.6-2.53-14.05-8.47-28.91-21.26-36.32-2.51-1.45-4.78,2.43-2.27,3.89,7.03,4.07,11.69,10.69,14.8,18.12-7.02-.31-13.81-2.88-19.75-6.57-5.68-3.52-11.04-8.26-14.04-14.33-1.28-2.6-5.17-.32-3.89,2.27.07.15.16.28.24.43.4-.46.82-.92,1.28-1.38-.46.46-.88.92-1.28,1.38,3.37,6.52,9.26,11.7,15.41,15.51,6.96,4.32,15.06,7.21,23.31,7.24.14,0,.26-.02.39-.04,1.47,4.48,2.48,9.11,3.16,13.56.24,1.58,1.68,1.91,2.84,1.41.29-.02.6-.11.91-.27,1.29-.67,3.61-1.59,4.94-.65,2.18,1.53,2.23,5.52,1.92,7.83-.31,2.27-1.06,4.97-2.81,6.56-.45.41-.95.74-1.49,1.02-1.46-.11-2.99.36-4.1,1.3-.91.3-1.52,1.01-1.6,2.09,0,.07-.01.14-.02.21-.22.55-.35,1.12-.41,1.75-.04.4,0,.81.06,1.22-1.3,7.86-5.4,15.29-11.31,20.61-6.99,6.29-16.14,8.39-25.07,5.74-.13-.47-.27-.93-.39-1.41-1.1-4.49-.84-9.11-1.76-13.61-.77-3.77-2.25-8.63-6.88-8.69-.43-2.75-.79-5.75-3.32-7.29-1.71-1.04-4.13-1.39-5.9-.33-1.16.7-1.87,1.78-2.27,2.98-.39-.07-.78-.07-1.17-.04-.04-.57-.26-1.13-.68-1.53-.09-.16-.17-.32-.27-.47-.75-1.05-1.69-1.78-2.9-2.23-1.27-.48-2.75-.39-4.02.13-.23-.17-.48-.33-.69-.52-.16-.14-.31-.29-.45-.44-.03-.04-.16-.19-.23-.26-.06-.09-.18-.26-.21-.31-.13-.2-.24-.41-.35-.62-.34-.67-.62-1.5-.87-2.53-.52-2.1-.68-4.16-.51-6.44.07-.95.19-1.73.5-2.78.08-.26.16-.52.26-.78.02-.04.02-.05.03-.07.03-.07.06-.14.1-.21.1-.19.2-.38.31-.57.07-.11.42-.6.17-.3.06-.08.14-.14.19-.22.02-.03.03-.05.05-.07,0-.01,0-.02.02-.03,0,0,0,0,0-.01,0,0,.02,0,.03,0,0,0,0,0,0,0,0,0,0,0,.01,0,.02,0,.02,0,.05-.01.63-.17.64-.17,1.33-.16.68,0,1.04.07,1.71.25.44.12.89.35,1.13.57,1.53,1.42,3.59.17,3.85-1.38,9.11-8.69,12.24-21.58,15.64-33.26.09-.3.11-.59.08-.85-1.56,2.01-2.91,4.02-4.91,6.02,2.01-2.01,3.35-4.02,4.91-6.02-.19-2.15-3.7-2.82-4.42-.35-3.16,10.88-5.95,23.04-14.38,31.18-1.15-.46-2.4-.69-3.64-.69-1.87-6.48-2.44-13.82-.13-20.21,3.13-8.66,8.85-16.75,15.99-22.56,3.93-3.2,8.49-5.59,13.51-6.44,1.08-.18,1.58-.93,1.62-1.75-2.48.73-4.97,2.02-7.45,2.84,2.48-.83,4.97-2.11,7.45-2.84.07-1.34-1.06-2.89-2.82-2.59-10.02,1.7-18.26,8.97-24.23,16.81-6.16,8.1-10.68,17.65-9.95,28.01.24,3.38.76,6.83,1.72,10.1-1.6,1.36-2.45,3.62-2.85,5.6-.58,2.94-.51,5.95-.01,8.89.43,2.52,1.27,5.15,3.01,7.09.06.07.14.13.21.2.14-.26.29-.51.47-.77-.17.26-.32.51-.47.77.35.37.72.72,1.12,1.04-.18.5-.31,1.03-.37,1.6-.11,1.1.22,2.3.78,3.24.33.56.78,1.07,1.3,1.5-1.22.87-1.85,2.18-2.13,3.69.17-1.42.35-2.85.5-4.27.18-1.71-1.34-2.39-2.66-2.06-.34,2.66-.18,5.33-1.07,7.99.89-2.66.73-5.33,1.07-7.99-.9.22-1.72.91-1.84,2.06-1.97,18.67-5.82,37.46-12.61,55.01-.03.08-.04.16-.07.24-1.85.91-3.68,1.86-5.44,2.94-4.68,2.88-9.21,6.41-11.98,11.24-2.75,4.79-4.28,10.18-6.63,15.18h4.9c1.76-4.16,3.17-8.48,5.34-12.43,2.68-4.89,7.34-8.24,12.09-10.96,4.94-2.83,10.24-4.94,15.49-7.11,2.25-.93,4.58-1.82,6.87-2.8.01.07.02.15.04.22,2.9,10.51,5.41,21.14,7.98,31.73.12.49.35.84.64,1.1-.03.08-.06.17-.09.25h4.73c.52-1.66,1.01-3.34,1.46-5.01,1.58-5.81,3.17-12.18,2.22-18.22-.6-3.81-2.14-7.36-3.66-10.87-1.49-3.44-2.64-6.98-4.04-10.45-1.45-3.61-3.61-6.62-5.63-9.91-1.91-3.11-2.9-6.63-3.17-10.25-.24-3.16.17-6.3,0-9.46-.08-1.4-.15-2.8-.07-4.2.03-.49.06-.99.2-1.47.05-.17.1-.34.16-.5.01-.03.01-.05.02-.08.03,0,.05-.02.09-.04.31-.17.54-.38.72-.61-.05,1.12-.04,2.24-.05,3.28-.11,7.02.54,14.03,1.57,20.97.18,1.2,1.7,1.87,2.77,1.57,1.29-.36,1.75-1.56,1.57-2.77-.8-5.35-1.3-10.74-1.41-16.15-.05-2.46-.03-4.93.13-7.39.05-.79.4-4.31,1.88-3.4-.16,4.04-.07,8.14-.01,12.16.07,5.04.34,10.07.83,15.09.27,2.86,4.78,2.89,4.5,0-.73-7.58-.91-15.17-.82-22.77.02-1.9.04-3.8.08-5.7.02-.98-.06-3.2,1.53-2.33,1.43.79,1.57,3.76,1.8,5.69-1.28,2.05-1.3,5.17-1.14,7.51.36,5.08.86,10.15,1.25,15.23.22,2.87,4.72,2.89,4.5,0-.34-4.44-.74-8.88-1.1-13.32-.09-1.1-1-6.87.59-7.05,1.42-.16,1.91,2.61,2.13,3.46.45,1.74.78,3.49.89,5.29.27,4.43.73,8.8,2.1,13.04,3.15,9.77,9.86,18.66,10.98,29.04.69,6.41-.59,13.01-2.8,19.06-.28.39-.44.85-.47,1.31-.02.06-.05.13-.07.19-.12.33-.23.68-.34,1.02-.44,1.33-.88,2.65-1.32,3.98-.45,1.36-.9,2.71-1.35,4.07h4.74c.28-.84.56-1.68.84-2.52.44-1.33.88-2.66,1.33-3.99.82.25,1.64.46,2.52.44,1.34-.03,2.7-.3,4.02-.55,3.49-.67,6.94-1.62,10.36-2.59,3.82-1.09,7.62-2.26,11.41-3.47-.98,3.35-1.96,6.71-2.94,10.06-.26.87-.51,1.75-.77,2.62h4.69c2.79-9.56,5.58-19.12,8.37-28.67.44-1.5.88-3,1.31-4.5,3.27,1.73,6.51,3.49,9.64,5.52,5.55,3.6,10.82,7.69,15.38,12.51,4.16,4.4,7.61,9.45,9.59,15.14h4.75c-3.51-11.75-12.68-20.93-22.36-28.03ZM42.61,58.74s0,0,0,0c-.01,0-.02,0-.03,0,.04-.08.05-.11.03-.01ZM55.89,159.43c-.07.29-.15.59-.23.88-.32-1.31-.64-2.62-.96-3.93.52.14,1.03.28,1.55.41.07.02.15,0,.23.01-.19.88-.38,1.75-.59,2.62ZM55.42,139.82c1.35,3.47,2.26,6.94,2,10.69-.04.63-.11,1.25-.19,1.88-1.06-.28-2.12-.56-3.17-.84-.17-.05-.36-.06-.55-.07-1.41-5.74-2.87-11.46-4.44-17.16-.1-.35-.25-.63-.44-.86,1.15-.59,2.28-1.23,3.35-1.94,1.1,2.78,2.34,5.5,3.43,8.29ZM45.68,118.27c1.94,2.9,3.42,5.8,4.67,8.96-2.24,1.63-4.9,2.75-7.41,3.86-2.94,1.3-5.92,2.51-8.89,3.74-1.44.59-2.88,1.19-4.31,1.8,5.45-15.08,8.81-30.96,10.8-46.87-.16,2.6.32,5.47.25,7.5-.11,3.64-.26,7.1.44,10.71.73,3.78,2.32,7.12,4.45,10.3ZM47.66,80.24c-.03.14-.07.27-.11.41-.05.09-.11.19-.16.28-.06.06-.11.12-.17.17-.09.06-.18.11-.28.16-.1.03-.2.06-.31.09-.11,0-.22,0-.33,0-.1-.02-.21-.05-.31-.09-.09-.05-.19-.11-.28-.16-.06-.06-.12-.11-.17-.17-.06-.09-.11-.18-.16-.28-.03-.1-.06-.2-.08-.31,0-.11,0-.22,0-.33.02-.1.05-.21.08-.31.05-.09.11-.19.16-.28.06-.06.11-.12.17-.17.09-.06.18-.11.28-.16.1-.03.2-.06.31-.09.11,0,.22,0,.33,0,.1.02.21.05.31.09.09.05.19.11.28.16.06.06.12.11.17.17.06.09.11.18.16.28.04.13.09.27.11.41,0,.02,0,.04,0,.07,0,.02,0,.04,0,.07ZM114.67,80.01c.02-.1.05-.2.09-.31.05-.09.11-.19.16-.28.06-.06.11-.12.17-.17.09-.06.18-.11.28-.16.1-.03.2-.06.31-.09.11,0,.22,0,.33,0,.1.02.21.05.31.09.09.05.19.11.28.16.06.06.12.11.17.17.06.09.11.18.16.28.04.13.09.27.11.41,0,.02,0,.04,0,.07,0,.02,0,.04,0,.07-.03.14-.07.27-.11.41-.05.09-.11.19-.16.28-.06.06-.11.12-.17.17-.09.06-.18.11-.28.16-.1.03-.2.06-.31.09-.11,0-.22,0-.33,0-.1-.02-.21-.05-.31-.09-.09-.05-.19-.11-.28-.16-.06-.06-.12-.11-.17-.17-.06-.09-.11-.18-.16-.28-.03-.1-.06-.2-.09-.31,0-.11,0-.22,0-.33ZM116.09,134.1c-1.62,5.54-3.23,11.08-4.85,16.61-4.44,1.46-8.92,2.85-13.41,4.14-3.38.97-6.78,1.91-10.22,2.63-1.29.27-2.32.47-3.3.54-.68.05-.8.05-1.22-.09-.06-.02-.11-.04-.17-.06,2.22-6.51,3.22-13.67,2.26-20.43-1.27-8.97-6.26-16.67-9.59-24.95,8.69,1.7,17.45-.54,24.53-6.01,1.3,10.15,4.24,20.35,13.89,25.57.82.44,1.64.87,2.45,1.3-.16.21-.29.45-.38.75ZM121.2,130.64c-4.39-2.28-8.8-4.15-11.65-8.41-3.74-5.59-4.68-12.72-5.32-19.25,0-.07-.03-.13-.04-.19,4.59-4.83,7.91-10.87,9.63-17.31,1.05.38,2.1.48,3.23.27.24-.04.47-.12.71-.2,2.62,16.76,8.85,32.85,11.5,49.61-2.63-1.6-5.33-3.11-8.06-4.53Z"/>
      <path class="cls-1" d="M47.54,79.71c-.05-.09-.11-.19-.16-.28-.06-.06-.11-.12-.17-.17-.09-.06-.18-.11-.28-.16-.1-.03-.2-.06-.31-.09-.11,0-.22,0-.33,0-.1.02-.2.05-.31.09-.09.05-.19.11-.28.16-.06.06-.12.11-.17.17-.06.09-.11.18-.16.28-.03.1-.06.2-.08.31,0,.11,0,.22,0,.33.02.1.05.2.08.31.05.09.11.19.16.28.06.06.11.12.17.17.09.06.18.11.28.16.1.03.2.06.31.09.11,0,.22,0,.33,0,.1-.02.2-.05.31-.09.09-.05.19-.11.28-.16.06-.06.12-.11.17-.17.06-.09.11-.18.16-.28.04-.13.09-.27.11-.41,0-.02,0-.04,0-.07,0-.02,0-.04,0-.07-.03-.14-.07-.27-.11-.41Z"/>
      <path class="cls-1" d="M116.93,79.71c-.05-.09-.11-.19-.16-.28-.06-.06-.11-.12-.17-.17-.09-.06-.18-.11-.28-.16-.1-.03-.2-.06-.31-.09-.11,0-.22,0-.33,0-.1.02-.21.05-.31.09-.09.05-.19.11-.28.16-.06.06-.12.11-.17.17-.06.09-.11.18-.16.28-.03.1-.06.2-.09.31,0,.11,0,.22,0,.33.02.1.05.2.09.31.05.09.11.19.16.28.06.06.11.12.17.17.09.06.18.11.28.16.1.03.2.06.31.09.11,0,.22,0,.33,0,.1-.02.21-.05.31-.09.09-.05.19-.11.28-.16.06-.06.12-.11.17-.17.06-.09.11-.18.16-.28.04-.13.09-.27.11-.41,0-.02,0-.04,0-.07,0-.02,0-.04,0-.07-.03-.14-.07-.27-.11-.41Z"/>
      <path class="cls-3" d="M83.55,85.74c-1.9-.71-4.32-.06-5.61,1.5-.46.55-.74,1.04-1.01,1.7-.19.48-.26.98-.31,1.5-.1,1,.2,2.11.72,2.97.5.84,1.27,1.6,2.17,2.02,1.14.53,2.27.66,3.5.44,1.03-.19,2.1-.82,2.77-1.62.75-.88,1.19-1.91,1.31-3.04.03-.15.05-.31.05-.48-.01-1.01-.29-2.08-.88-2.91-.7-.98-1.57-1.65-2.7-2.08ZM82.64,90.73c-.02.1-.05.2-.08.29-.03.06-.07.12-.11.18-.03.03-.07.07-.1.1-.06.04-.12.07-.18.11-.06.02-.13.04-.19.05-.07,0-.14,0-.21,0-.06-.02-.13-.03-.19-.05-.06-.03-.12-.07-.18-.11-.03-.03-.07-.07-.1-.1-.04-.06-.07-.12-.11-.18-.02-.06-.04-.13-.05-.19,0-.07,0-.14,0-.21.02-.06.03-.13.05-.19.03-.06.07-.12.11-.18.03-.03.07-.07.1-.1.06-.04.12-.07.18-.11.06-.02.13-.04.19-.05.07,0,.14,0,.21,0,.06.02.13.03.19.05.06.03.12.07.18.11.03.03.07.07.1.1.04.06.07.12.11.18.03.1.06.19.08.29,0,0,0,0,0,0s0,0,0,0Z"/>
    </g>
  </g>
</svg>