<?xml version="1.0" encoding="UTF-8"?>
<svg id="_レイヤー_2" data-name="レイヤー 2" xmlns="http://www.w3.org/2000/svg" viewBox="0 0 179.43 170.04">
  <defs>
    <style>
      .cls-1 {
        fill: #fff;
      }

      .cls-2 {
        fill: #78c8e6;
      }

      .cls-3 {
        fill: #323232;
      }
    </style>
  </defs>
  <g id="_レイヤー_1-2" data-name="レイヤー 1">
    <g>
      <path class="cls-2" d="M110.12,52.71s-.08,0-.13-.01c.05,0,.1.01.13.01Z"/>
      <path class="cls-2" d="M97.62,25.33c.03-.08.02-.09,0,0h0Z"/>
      <path class="cls-2" d="M101.06,28.08c.22-.17.26-.27,0,0h0Z"/>
      <path class="cls-1" d="M119.18,118.79c-.45.43-1.08.71-1.65.73-.14,0-.26,0-.39-.03-2.68.93-5.37,1.86-8.05,2.79-3.5,1.21-7,2.42-10.49,3.64.04.09.09.17.12.27,1.5,4.56,2.99,9.13,4.48,13.69.37-.15.74-.3,1.1-.45,7.1-2.92,14.2-5.83,21.3-8.75-1.71-4.11-3.42-8.23-5.13-12.34-.43.15-.86.3-1.29.45Z"/>
      <path class="cls-3" d="M126.36,24.3c-.98-.02-1.91-.68-2.17-1.65-.93-3.5-2.41-7.39-5.08-9.92-6.15-5.42-14.9-7.81-22.95-8.18-7.45-.34-14.59,1.52-20.95,5.42-3.07,1.89-5.86,4.17-8.37,6.77-2,2.08-4.19,4.37-5.2,7.12-2.23,6.04-2.07,13.16-1.47,19.47.21,2.19.57,4.37,1.02,6.54.54-3.11,1.08-6.22,1.62-9.34.13-.77.87-1.35,1.57-1.57,5.37-1.72,10.73-3.47,16.05-5.32,4.11-1.42,8.23-2.92,12.08-4.98,1.51-.8,3.02-1.68,4.32-2.79.63-.54,1.41-1.71,2.32-1.84,1.36-.19,2.92.55,2.85,2.17-.05,1.08-.79,1.93-1.38,2.77-.91,1.29-1.83,2.57-2.76,3.84-.04.05-.08.1-.11.16.36-.16.72-.31,1.08-.48,4.08-1.9,8.75-4.37,10.9-8.53.91-1.76,3.61-1.25,4.11.54.89,3.18,2.92,5.71,4.75,8.39,1.85,2.71,3.47,5.58,5.01,8.47,1.3,2.44,3.37,5.33,3.5,8.18.13,2.77.25,5.54.38,8.31,1.8-4.42,3.18-9.04,4.11-13.63.85-4.19,1.48-8.78.66-13.04-.63-3.28-2.06-6.84-5.9-6.9Z"/>
      <path class="cls-1" d="M64.02,119.03c-.27-.06-.5-.18-.7-.32-.28-.09-.56-.19-.84-.28-.9,3.47-1.8,6.94-2.71,10.41-.21.82-.4,1.64-.61,2.47.32.11.64.22.96.33,6.96,2.42,13.93,4.84,20.89,7.26,1.47-4.28,2.95-8.55,4.42-12.83-6.99-2.33-13.99-4.66-20.98-6.99-.15,0-.3-.02-.44-.06Z"/>
      <path class="cls-1" d="M100.05,115.79c-7.09,1.98-14.65,1.2-21.35-1.73-4.1-1.8-7.84-4.45-10.93-7.71-.04,2.98-.23,5.96-.65,8.9,2.26.75,4.52,1.51,6.78,2.26,5.11,1.7,10.22,3.4,15.32,5.1.53.18,1.17.3,1.68.56-.35-.15.78.03,1.16.03.46,0,1.06-.13.86-.05.03,0,.05-.02.08-.03.59-.25,1.23-.43,1.83-.63,6.75-2.34,13.5-4.68,20.25-7.01-.32-2.77-.57-5.55-.76-8.34-3.95,4.02-8.76,7.12-14.26,8.66Z"/>
      <path class="cls-1" d="M130.1,66.02c-.53-.09-1.01-.09-1.48-.03-.35.66-.67,1.34-1.03,1.98-1.14,2.01-4.09,1.03-4.19-1.14-.26-5.73-.52-11.46-.78-17.19,0-.08-.02-.21-.04-.34-.03-.07-.06-.15-.09-.21-1.05-2.18-2.15-4.34-3.31-6.47-1.58-2.9-3.26-5.74-5.15-8.45-1.03-1.48-2.02-2.95-2.85-4.51-2.66,2.85-6.28,4.93-9.69,6.55-2.99,1.42-6.11,2.68-9.29,3.58-1.76.5-3.74-1.67-2.54-3.31.55-.74,1.09-1.49,1.64-2.24-3.15,1.41-6.39,2.62-9.65,3.74-4.87,1.69-9.77,3.29-14.68,4.87-1.06,6.11-2.11,12.22-3.17,18.32-.39,2.28-3.78,2-4.34,0-.15-.52-.29-1.04-.43-1.55-.1-.06-.2-.11-.31-.19-5.23-3.97-6.68,4.98-6.27,8.29.29,2.39,1.09,4.46,3.13,5.86,1.41.97,3.05,1.66,4.72,2.04,1,.23,1.59,1.21,1.65,2.17.5,7.25,1.7,14.66,5.59,20.94,7.05,11.36,22.19,16.97,34.67,11.52,5.92-2.59,10.65-7.31,13.94-12.8,2.58-4.3,4.04-8.9,5.23-13.72.18-.71.83-1.43,1.57-1.57,2.02-.38,4.57-.49,6.41-1.4,2.52-1.24,4.01-5.43,4.22-8.02.19-2.38-.67-6.27-3.47-6.73ZM94.29,74.66c2.9,0,2.9,4.5,0,4.5s-2.9-4.5,0-4.5ZM81.84,59.79c-2.9,0-2.9-4.5,0-4.5s2.9,4.5,0,4.5ZM83.68,50.41c-.06-.01-.13-.02-.19-.03-.37-.04-.73-.08-1.1-.1-.78-.05-1.56-.05-2.34.02-.05,0-.18.02-.28.03-.08.01-.17.03-.21.03-.3.06-.6.13-.9.22-1.2.38-2.4-.45-2.77-1.57-.38-1.19.45-2.41,1.57-2.77,1.56-.5,3.3-.57,4.92-.47,1.85.11,3.74.42,5.48,1.07,1.18.44,1.86,1.49,1.57,2.77-.25,1.12-1.66,1.98-2.77,1.57-.76-.28-1.54-.5-2.34-.66-.22-.04-.43-.08-.65-.12ZM99.93,94.94c-.87.95-2.28.75-3.18,0,0,0,0,0-.01,0-.08-.05-.15-.1-.23-.15-.21-.13-.42-.26-.64-.37-.09-.05-.18-.09-.27-.13,0,0-.01,0-.02-.01-.2-.07-.39-.15-.58-.21-.48-.15-.96-.27-1.46-.36-.07-.01-.17-.02-.25-.03-.03,0-.06,0-.09-.02-.22-.02-.44-.04-.66-.05-.51-.03-1.01-.03-1.52,0-.23.01-.45.04-.68.06-.11.02-.23.04-.34.06-.43.08-.86.19-1.28.33-.09.03-.19.07-.28.1-.16.09-.35.16-.49.24-1.11.6-2.4.25-3.08-.81-.64-1-.23-2.52.81-3.08,4.31-2.32,10.48-1.88,14.26,1.27.97.81.76,2.35,0,3.18ZM107.82,62.06c-2.9,0-2.9-4.5,0-4.5s2.9,4.5,0,4.5ZM116.04,52.71c-.59,1.11-2.04,1.35-3.08.81-.1-.05-.21-.1-.32-.15-.03-.01-.07-.03-.1-.04-.33-.12-.67-.22-1-.31-.35-.09-.7-.17-1.05-.23-.17-.03-.35-.06-.52-.09-.05,0-.1-.01-.14-.02-.8-.09-1.61-.13-2.42-.11-.41,0-.83.03-1.24.07-.08,0-.16.02-.25.03-.14.02-.27.04-.41.07-1.24.23-2.36-.33-2.77-1.57-.35-1.08.41-2.56,1.57-2.77,1.87-.34,3.76-.42,5.65-.2,1.83.21,3.61.57,5.26,1.43,1.11.58,1.35,2.04.81,3.08Z"/>
      <path class="cls-2" d="M88.35,94.17c-.08.03-.07.02,0,0h0Z"/>
      <path class="cls-2" d="M109.94,52.69s0,0,0,0c-.2-.03-.11-.02,0,0Z"/>
      <path class="cls-2" d="M93.22,93.64s.05.01.08.02c.11.01.19,0-.02-.01-.02,0-.03,0-.05,0Z"/>
      <path class="cls-2" d="M93.21,93.64s0,0,.01,0c-.02,0-.05,0-.07-.01.01,0,.04,0,.05.01Z"/>
      <path class="cls-2" d="M94.37,127.37c-1.61.49-3.12.39-4.63.04-1.02,2.96-2.04,5.92-3.06,8.87.29.28.52.63.67,1.01.9,2.15,1.79,4.3,2.69,6.44h3.76c.75-2.33,1.5-4.67,2.24-7,.18-.56.53-1,.98-1.28-.88-2.69-1.76-5.37-2.64-8.06,0,0,0-.02,0-.03Z"/>
      <path class="cls-1" d="M84.58,142.37c-.38,1.09-1.57,1.99-2.77,1.57-1.11-.39-2.23-.78-3.34-1.16-7.13-2.48-14.25-4.95-21.38-7.43-.99.61-2.26.96-3.23,1.37-6.12,2.54-12.49,4.47-18.65,6.96-3.59,1.45-7.16,2.96-10.71,4.52-2.87,1.26-5.73,2.46-8.24,4.38-5.67,4.34-9.46,10.71-11.57,17.47h76.59c1.2-7.97,2.61-16.01,5.01-23.7-.56-1.35-1.12-2.69-1.68-4.04,0,.02-.02.04-.02.07Z"/>
      <path class="cls-2" d="M90.42,148.23c-2.15,7.09-3.49,14.47-4.62,21.8h13.19c-1.88-7.25-3.01-14.65-5.27-21.8h-3.3Z"/>
      <path class="cls-1" d="M154.98,148.92c-8.71-5.06-17.79-9.4-27.01-13.46-.35-.15-.61-.36-.8-.59-.99.41-1.97.81-2.96,1.22-7.27,2.99-14.53,5.97-21.8,8.96-1.17.48-2.42-.52-2.77-1.57-.18-.54-.35-1.07-.53-1.61-.45,1.41-.9,2.82-1.35,4.23,2.54,7.67,3.66,15.65,5.74,23.44.05.18.07.34.08.51h71.39c-1.89-3.81-3.75-7.67-6.32-11.06-3.46-4.56-8.81-7.23-13.67-10.05Z"/>
      <path class="cls-3" d="M81.84,55.29c-2.9,0-2.9,4.5,0,4.5s2.9-4.5,0-4.5Z"/>
      <path class="cls-3" d="M94.29,74.66c-2.9,0-2.9,4.5,0,4.5s2.9-4.5,0-4.5Z"/>
      <path class="cls-3" d="M107.82,57.56c-2.9,0-2.9,4.5,0,4.5s2.9-4.5,0-4.5Z"/>
      <path class="cls-3" d="M115.23,49.63c-1.64-.86-3.43-1.22-5.26-1.43-1.89-.22-3.78-.14-5.65.2-1.16.21-1.92,1.68-1.57,2.77.4,1.25,1.52,1.8,2.77,1.57.14-.02.27-.04.41-.07.08,0,.16-.02.25-.03.41-.04.82-.06,1.24-.07.81-.02,1.62.02,2.42.11.05,0,.09.01.14.02.17.03.35.05.52.09.35.06.7.14,1.05.23.34.09.67.19,1,.31.03.01.07.02.1.04.11.05.21.1.32.15,1.04.55,2.49.3,3.08-.81.55-1.04.31-2.5-.81-3.08ZM109.94,52.69s0,0,0,0c-.11-.02-.2-.03,0,0ZM109.99,52.7s.08.01.13.01c-.04,0-.08,0-.13-.01Z"/>
      <path class="cls-3" d="M87.87,46.85c-1.75-.64-3.63-.95-5.48-1.07-1.62-.1-3.36-.03-4.92.47-1.12.36-1.96,1.58-1.57,2.77.36,1.12,1.57,1.95,2.77,1.57.29-.09.59-.17.9-.22.04,0,.13-.02.21-.03.1-.01.23-.03.28-.03.78-.07,1.56-.07,2.34-.02.37.02.74.06,1.1.1.06,0,.13.02.19.03.22.04.44.08.65.12.8.16,1.58.38,2.34.66,1.11.41,2.51-.46,2.77-1.57.29-1.27-.39-2.33-1.57-2.77Z"/>
      <path class="cls-3" d="M172.21,156.28c-3.61-4.73-8.71-7.56-13.77-10.54-8.86-5.22-18.11-9.69-27.51-13.85,0-.01,0-.02-.01-.04-2.35-5.64-4.69-11.27-7.04-16.91-.44-1.06-1.5-2.01-2.77-1.57-.57.2-1.15.4-1.72.6-.39-3.69-.65-7.4-.85-11.1-.01-.23-.07-.46-.14-.67,3.38-4.83,5.45-10.22,6.95-15.88,2.7-.45,5.61-.86,7.7-2.66,3.15-2.72,5.24-7.87,5.03-12-.2-3.95-1.98-8.35-5.97-9.74-.43-.15-.9-.25-1.37-.33,1.57-3.6,2.91-7.32,3.96-11.05,2.11-7.46,3.94-16.64.83-24.12-1.41-3.38-3.96-5.77-7.41-6.42-1.15-3.8-2.97-7.74-5.82-10.44-12.07-10.63-31.63-12.33-45.84-5.39-6.88,3.36-13.4,8.81-17.61,15.26-1.66,2.54-2.38,5.7-2.83,8.66-.57,3.78-.74,7.61-.6,11.43.19,4.98,1.04,9.85,2.19,14.67-2.35-.35-4.84.39-6.56,2.15-2.55,2.61-3.33,6.59-3.2,10.12.12,3.51,1.03,7.27,3.73,9.71,1.68,1.52,3.81,2.66,6,3.38.56,6.74,1.78,13.48,4.95,19.53.39.74.81,1.45,1.25,2.15-.32.38-.53.86-.52,1.41.03,1.66,0,3.33-.05,4.99-.05,1.51-.12,3.02-.24,4.53-.04.55-.11,1.1-.16,1.65-.43-.14-.86-.29-1.3-.43-1.14-.38-2.47.44-2.77,1.57-1.4,5.39-2.8,10.79-4.2,16.18-.13.17-.23.36-.31.57-7.13,2.88-14.44,5.28-21.57,8.19-4.56,1.87-9.1,3.79-13.59,5.82-4.29,1.94-8.02,5-11.01,8.63-3.79,4.61-6.45,9.98-8.05,15.71h4.69c2.12-6.76,5.9-13.13,11.57-17.47,2.5-1.92,5.37-3.13,8.24-4.38,3.55-1.55,7.12-3.06,10.71-4.52,6.16-2.49,12.53-4.42,18.65-6.96.98-.41,2.24-.76,3.23-1.37,7.13,2.48,14.25,4.95,21.38,7.43,1.11.39,2.23.78,3.34,1.16,1.2.42,2.39-.48,2.77-1.57,0-.02.02-.04.02-.07.56,1.35,1.12,2.69,1.68,4.04-2.4,7.69-3.81,15.73-5.01,23.7h4.52c1.13-7.33,2.47-14.71,4.62-21.8h3.3c2.26,7.15,3.39,14.56,5.27,21.8h4.6c0-.16-.04-.33-.08-.51-2.08-7.79-3.2-15.77-5.74-23.44.45-1.41.9-2.82,1.35-4.23.18.54.35,1.07.53,1.61.34,1.05,1.6,2.05,2.77,1.57,7.27-2.99,14.53-5.97,21.8-8.96.99-.41,1.97-.81,2.96-1.22.19.23.45.44.8.59,9.21,4.06,18.29,8.4,27.01,13.46,4.85,2.82,10.21,5.49,13.67,10.05,2.58,3.4,4.44,7.26,6.32,11.06h4.38c.14-.49.12-1.05-.17-1.62-2.08-4.19-4.12-8.4-6.97-12.14ZM61.65,23.87c1.02-2.75,3.2-5.04,5.2-7.12,2.5-2.59,5.29-4.88,8.37-6.77,6.36-3.91,13.5-5.76,20.95-5.42,8.05.37,16.8,2.76,22.95,8.18,2.67,2.53,4.15,6.41,5.08,9.92.26.97,1.19,1.64,2.17,1.65,3.84.06,5.27,3.62,5.9,6.9.82,4.26.19,8.84-.66,13.04-.93,4.6-2.31,9.21-4.11,13.63-.13-2.77-.25-5.54-.38-8.31-.13-2.85-2.2-5.74-3.5-8.18-1.54-2.89-3.16-5.76-5.01-8.47-1.83-2.68-3.86-5.21-4.75-8.39-.5-1.79-3.2-2.29-4.11-.54-2.15,4.16-6.82,6.62-10.9,8.53-.36.17-.72.32-1.08.48.04-.05.08-.1.11-.16.93-1.28,1.85-2.55,2.76-3.84.59-.84,1.33-1.69,1.38-2.77.08-1.61-1.49-2.36-2.85-2.17-.91.13-1.69,1.3-2.32,1.84-1.31,1.11-2.81,1.99-4.32,2.79-3.85,2.05-7.97,3.55-12.08,4.98-5.33,1.84-10.69,3.6-16.05,5.32-.7.22-1.44.8-1.57,1.57-.54,3.11-1.08,6.22-1.62,9.34-.45-2.17-.81-4.35-1.02-6.54-.6-6.31-.76-13.43,1.47-19.47ZM101.06,28.08c.26-.27.22-.17,0,0h0ZM97.64,25.26s0,.02-.02.07c.01-.05.02-.07.02-.07ZM61.94,77.81c-.07-.96-.65-1.94-1.65-2.17-1.66-.39-3.31-1.08-4.72-2.04-2.04-1.4-2.83-3.48-3.13-5.86-.41-3.31,1.04-12.26,6.27-8.29.1.08.2.13.31.19.14.52.28,1.04.43,1.55.56,2,3.94,2.28,4.34,0,1.06-6.11,2.11-12.22,3.17-18.32,4.91-1.58,9.81-3.18,14.68-4.87,3.25-1.13,6.5-2.33,9.65-3.74-.55.75-1.09,1.49-1.64,2.24-1.2,1.63.78,3.8,2.54,3.31,3.19-.9,6.31-2.16,9.29-3.58,3.41-1.62,7.03-3.7,9.69-6.55.84,1.55,1.82,3.03,2.85,4.51,1.9,2.71,3.58,5.54,5.15,8.45,1.16,2.13,2.26,4.29,3.31,6.47.03.07.06.14.09.21.02.13.04.25.04.34.26,5.73.52,11.46.78,17.19.1,2.16,3.05,3.15,4.19,1.14.37-.64.69-1.32,1.03-1.98.47-.06.95-.06,1.48.03,2.8.46,3.67,4.35,3.47,6.73-.21,2.59-1.7,6.78-4.22,8.02-1.84.91-4.39,1.03-6.41,1.4-.74.14-1.4.86-1.57,1.57-1.2,4.83-2.66,9.42-5.23,13.72-3.29,5.49-8.02,10.21-13.94,12.8-12.48,5.45-27.61-.15-34.67-11.52-3.9-6.28-5.1-13.69-5.59-20.94ZM81.02,138.91c-6.96-2.42-13.93-4.84-20.89-7.26-.32-.11-.64-.22-.96-.33.2-.83.39-1.65.61-2.47.9-3.47,1.8-6.94,2.71-10.41.28.09.56.19.84.28.2.15.43.26.7.32.14.03.29.05.44.06,6.99,2.33,13.99,4.66,20.98,6.99-1.47,4.28-2.95,8.55-4.42,12.83ZM96.04,136.73c-.75,2.33-1.5,4.67-2.24,7h-3.76c-.9-2.15-1.79-4.3-2.69-6.44-.16-.37-.39-.72-.67-1.01,1.02-2.96,2.04-5.92,3.06-8.87,1.51.35,3.02.45,4.63-.04,0,0,0,.02,0,.03.88,2.69,1.76,5.37,2.64,8.06-.45.28-.8.72-.98,1.28ZM94.83,122.48c-.6.21-1.24.38-1.83.63-.02.01-.05.02-.08.03.21-.09-.39.05-.86.05-.38,0-1.5-.18-1.16-.03-.51-.25-1.14-.38-1.68-.56-5.11-1.7-10.22-3.4-15.32-5.1-2.26-.75-4.52-1.51-6.78-2.26.42-2.94.62-5.92.65-8.9,3.09,3.26,6.83,5.92,10.93,7.71,6.7,2.93,14.26,3.72,21.35,1.73,5.5-1.54,10.31-4.64,14.26-8.66.19,2.78.44,5.57.76,8.34-6.75,2.34-13.5,4.68-20.25,7.01ZM104.3,139.44c-.37.15-.74.3-1.1.45-1.49-4.56-2.99-9.13-4.48-13.69-.03-.1-.08-.18-.12-.27,3.5-1.21,7-2.42,10.49-3.64,2.68-.93,5.37-1.86,8.05-2.79.13.02.25.03.39.03.57-.03,1.2-.3,1.65-.73.43-.15.86-.3,1.29-.45,1.71,4.11,3.42,8.23,5.13,12.34-7.1,2.92-14.2,5.83-21.3,8.75Z"/>
      <path class="cls-3" d="M93.21,93.64s.06.01.09.02c-.03,0-.05-.01-.08-.02,0,0,0,0-.01,0Z"/>
      <path class="cls-3" d="M85.68,90.49c-1.04.56-1.45,2.08-.81,3.08.68,1.05,1.97,1.4,3.08.81.15-.08.34-.15.49-.24.09-.03.19-.07.28-.1.42-.14.85-.25,1.28-.33.11-.02.23-.04.34-.06.23-.02.45-.04.68-.06.51-.03,1.01-.03,1.52,0,.22.01.44.03.66.05-.02,0-.04,0-.05-.01.02,0,.05,0,.07.01.02,0,.03,0,.05,0,.21.02.13.02.02.01.09.01.18.02.25.03.49.09.98.21,1.46.36.2.06.39.14.58.21,0,0,0,0,.02.01.09.05.18.09.27.13.22.11.43.24.64.37.08.05.15.1.23.15,0,0,0,0,.01,0,.9.75,2.31.95,3.18,0,.76-.83.97-2.38,0-3.18-3.78-3.15-9.94-3.6-14.26-1.27ZM88.3,94.19s.02,0,.06-.02c-.03.01-.05.02-.06.02Z"/>
      <path class="cls-3" d="M25.45,27.75c.03-.15.08-.31.12-.46.11-.36.24-.72.39-1.06.31-.73.69-1.44,1.02-2.16.74-1.61,1.37-3.27,1.39-5.06.03-3.15-1.74-6.1-4.28-7.87-2.67-1.86-6.05-1.99-8.93-.56-3.2,1.58-5.39,5.12-5.25,8.7.12,2.89,4.62,2.9,4.5,0-.1-2.59,2-5.12,4.66-5.2,2.39-.08,4.59,2.19,4.79,4.49.14,1.55-.66,3.02-1.3,4.36-.76,1.59-1.61,3.28-1.62,5.08,0,2.33,1.03,4.79,2.21,6.77,1.48,2.49,5.37.22,3.89-2.27-.85-1.42-1.65-3.06-1.59-4.62,0-.05,0-.08,0-.11,0-.01,0-.01,0-.03Z"/>
      <path class="cls-3" d="M27.74,38.44c-2.9,0-2.9,4.5,0,4.5s2.9-4.5,0-4.5Z"/>
    </g>
  </g>
</svg>