<?xml version="1.0" encoding="UTF-8"?>
<svg id="_レイヤー_2" data-name="レイヤー 2" xmlns="http://www.w3.org/2000/svg" xmlns:xlink="http://www.w3.org/1999/xlink" viewBox="0 0 171.66 175.52">
  <defs>
    <style>
      .cls-1 {
        fill: #fff;
      }

      .cls-2, .cls-3 {
        fill: none;
      }

      .cls-3 {
        stroke: #78c8e6;
        stroke-miterlimit: 10;
        stroke-width: 5px;
      }

      .cls-4 {
        fill: #78c8e6;
      }

      .cls-5 {
        fill: url(#_新規パターンスウォッチ_12);
      }

      .cls-6 {
        fill: #323232;
      }
    </style>
    <pattern id="_新規パターンスウォッチ_12" data-name="新規パターンスウォッチ 12" x="0" y="0" width="25" height="25" patternTransform="translate(-5750.3 -9387.66) rotate(-45) scale(.32)" patternUnits="userSpaceOnUse" viewBox="0 0 25 25">
      <g>
        <rect class="cls-2" width="25" height="25"/>
        <rect class="cls-1" x="24.29" y="24.29" width="26.43" height="26.43"/>
        <rect class="cls-1" x="-.71" y="24.29" width="26.43" height="26.43"/>
        <rect class="cls-1" x="-25.71" y="24.29" width="26.43" height="26.43"/>
        <g>
          <rect class="cls-1" x="24.29" y="-.71" width="26.43" height="26.43"/>
          <line class="cls-3" x1="23.61" y1="12.5" x2="51.39" y2="12.5"/>
        </g>
        <g>
          <rect class="cls-1" x="-.71" y="-.71" width="26.43" height="26.43"/>
          <line class="cls-3" x1="-1.39" y1="12.5" x2="26.39" y2="12.5"/>
        </g>
        <g>
          <rect class="cls-1" x="-25.71" y="-.71" width="26.43" height="26.43"/>
          <line class="cls-3" x1="-26.39" y1="12.5" x2="1.39" y2="12.5"/>
        </g>
        <rect class="cls-1" x="24.29" y="-25.71" width="26.43" height="26.43"/>
        <rect class="cls-1" x="-.71" y="-25.71" width="26.43" height="26.43"/>
        <rect class="cls-1" x="-25.71" y="-25.71" width="26.43" height="26.43"/>
      </g>
    </pattern>
  </defs>
  <g id="_レイヤー_1-2" data-name="レイヤー 1">
    <g>
      <path class="cls-4" d="M162.02,105.76c-.07-.03-.1-.04,0,0h0Z"/>
      <path class="cls-4" d="M161.27,105.55c.14.02.11,0,0,0h0Z"/>
      <path class="cls-4" d="M159.37,105.99c-.06.05-.08.06,0,0h0Z"/>
      <path class="cls-4" d="M159.82,105.73c-.11.04-.16.08,0,0h0Z"/>
      <path class="cls-4" d="M92.23,97.4s.06.04.09.05c-.03-.01-.06-.04-.09-.06,0,0,0,0,0,0Z"/>
      <path class="cls-1" d="M109.68,110.61c-11.02,10.25-28.26,10.91-40.34,2.07-.46-.34-.89-.7-1.33-1.06-1.14,6.1-3.57,11.51-8.23,15.52.15.02.3.04.45.09,9.26,2.82,18.92,4.31,28.6,4.46,9.25.14,18.84-.88,27.45-4.46-.72-.69-1.38-1.43-1.97-2.26-2.93-4.17-3.77-9.36-4.63-14.36Z"/>
      <path class="cls-4" d="M92.19,97.38s.02.01.03.02c0,0-.02-.02-.02-.02-.2-.19-.12-.08,0,0Z"/>
      <path class="cls-1" d="M123.02,63.38c-.18.05-.39.08-.61.08-.24.07-.47.17-.7.34-1.27.94-2.51.21-3-.93-3.35-.89-6.36-2.67-8.98-5.09-.53-.49-1.02-1.03-1.52-1.56-.51.82-1.61,1.35-2.52,1.01-1.51-.55-2.9-1.35-4.29-2.14-.69-.39-1.37-.78-2.07-1.15-.32-.17-.63-.33-.95-.48-.08-.04-.17-.08-.25-.11-.05-.02-.09-.04-.14-.05-1.19-.43-1.86-1.5-1.57-2.77.25-1.12,1.66-1.98,2.77-1.57,1.51.55,2.9,1.35,4.29,2.14.4.23.8.45,1.2.67-3.33-4.92-5.65-10.63-7.31-16.18-1.03-3.46-3.08-6.52-6.59-7.86-3.78-1.45-7.26.19-9.47,3.41-.98,1.43-2.76,1.18-3.69.24-2.9,3.74-3.7,8.11-7.45,10.95-1.61,4.42-3.28,8.83-5.57,12.92-1.92,3.42-4.47,6.66-7.88,8.38-.43.84-1.31,1.42-2.49,1.07-.11-.03-.22-.04-.33-.06-.62.14-1.28.22-1.95.26-.88.42-1.62,1.19-2.18,2.08-.99,1.58-1.04,3.49-.88,5.3.23,2.69,1.34,4.91,3.22,6.34,1.22-.3,2.52-.27,3.68.16.82.3,1.54.76,2.16,1.31.04.04.08.07.13.11,1.27,1.18,2.06,2.82,2.09,4.67,0,.16-.02.32-.05.47-.06.69-.23,1.36-.5,1.99.57,2.67,1.24,5.33,2.09,7.89,4.07,12.22,16.58,20.25,29.36,19.12,6.9-.61,13.64-4.19,17.97-9.6,4-5,5.59-11.33,6.67-17.56-.85-2.2-.35-4.71,1.18-6.55,1.64-1.96,4.63-2.74,7.02-1.86.42.16.81.36,1.19.59,1.1-1.49,1.86-3.24,2.21-5.05.42-2.17.7-4.93-.03-7.06-.53-1.54-2.44-3.83-4.26-3.87ZM75.7,65.6c-2.9,0-2.9-4.5,0-4.5s2.9,4.5,0,4.5ZM79.57,53.93c-3.05.98-6.16,1.92-9.12,3.17-.54.23-1.24.03-1.73-.23-.52-.27-.86-.8-1.03-1.34-.17-.54-.06-1.25.23-1.73.32-.55.78-.8,1.34-1.03,2.96-1.25,6.06-2.19,9.11-3.17,1.2-.39,2.41.45,2.77,1.57.39,1.19-.45,2.41-1.57,2.77ZM89.21,80.75c2.9,0,2.9,4.5,0,4.5s-2.9-4.5,0-4.5ZM95.87,97.85c-.8.87-2.38.87-3.18,0-.15-.16-.3-.3-.46-.45-.01,0-.02-.01-.03-.02-.07-.05-.13-.1-.19-.14-.17-.11-.36-.22-.54-.31-.05-.03-.11-.05-.16-.08-.41-.13-.81-.25-1.23-.33-.3,0-.27-.03-.17-.03-.01,0-.02,0-.04,0-.21-.02-.42-.03-.64-.03-.23,0-.47,0-.7.03-.04,0-.11.01-.17.02-.4.07-.8.17-1.18.31-.01,0-.03.01-.04.02-.3.16-.15.06,0,0,.04-.02.06-.03.13-.07-.09.05-.18.08-.27.13-.18.09-.35.18-.52.28-.07.04-.14.09-.21.14-.12.11-.24.21-.35.33-.88.9-2.29.82-3.18,0-.9-.83-.82-2.34,0-3.18,3.36-3.44,9.88-3.34,13.13.2.85.93.85,2.25,0,3.18ZM102.06,65.6c-2.9,0-2.9-4.5,0-4.5s2.9,4.5,0,4.5Z"/>
      <path class="cls-1" d="M117.49,23.93c-2.38-2.23-4.69-4.52-6.73-7.07-2.21-2.75-4.24-5.67-6.87-8.04-7.95-7.18-22.77-5.19-28.83,3.57-1.23,1.78-3.74.95-4.21-.59-.37.31-.71.63-1.05.97.66,1.18.41,2.85-1.28,3.2-11.57,2.4-17.66,13.38-19.52,24.21-.49,2.85-.36,5.78-.97,8.61-.56,2.62-1.81,4.88-3.22,7.12-1.34,2.13-2.5,4.29-1.58,6.84.44,1.22,1.17,2.31,1.98,3.35.3-.75.69-1.47,1.19-2.14,1.75-2.38,4.33-3.97,7.2-3.87,3.51-1.1,5.91-4.82,7.62-8.06,2.82-5.36,4.64-11.18,6.77-16.82.43-1.14,1.5-1.92,2.77-1.57,1.09.3,2,1.63,1.57,2.77-.74,1.96-1.45,3.94-2.17,5.92,3.75-2.84,4.55-7.21,7.45-10.95-.62-.63-.85-1.56-.2-2.52,2.95-4.32,7.47-6.96,12.78-5.96,4,.75,7.54,3.54,9.64,6.97,2.18,3.57,2.84,8.06,4.53,11.88,3.23,7.31,8.71,16.29,17.5,17.18,1.68-.25,3.45.27,5,1.19,4.16-6.57,5.75-14.48,2.56-21.89-2.51-5.82-7.42-10.05-11.94-14.29ZM128.36,54.16c-5.46,1.55-10.78-.71-15.01-4.12-3.59-2.89-6.74-6.83-8.38-11.17-.43-1.14.48-2.47,1.57-2.77,1.25-.34,2.34.44,2.77,1.57.03.09.06.17.1.25.09.19.17.38.27.57.19.38.39.75.6,1.11.47.82.99,1.61,1.55,2.37,1.1,1.5,2.7,3.19,4.28,4.52,1.48,1.25,3.42,2.46,5.2,3.07,2.05.7,3.86.81,5.86.25,2.8-.79,3.98,3.55,1.2,4.34Z"/>
      <path class="cls-5" d="M36.29,160.61c2.28-1.15,4.63-2.19,6.99-3.19-2.25-.26-4.63-.59-6.51-1.8-3-1.92-1.97-5.28-.93-7.95,1.47-3.78,3.13-7.49,4.88-11.15-2.16.74-4.32,1.46-6.45,2.18-4.18,1.43-8.36,2.93-12.21,5.13-2.73,1.56-5.69,3.52-7.38,6.09-3.25,4.94-5.19,10.83-7.08,16.39-1.04,3.04-2,6.12-2.9,9.21h35.48c-1.64-4.12-3.28-8.24-4.92-12.37-.35-.87.23-2.14,1.03-2.54Z"/>
      <path class="cls-1" d="M100.18,165.36c.18,1.2-.28,2.43-1.57,2.77-1.07.28-2.59-.36-2.77-1.57-1.49-10.1-2.39-20.27-3.85-30.38-.85.01-1.71.03-2.56.02-1.16-.01-2.31-.05-3.47-.09-.16,1.25-.31,2.49-.47,3.74-1.12,8.96-2.24,17.91-3.37,26.87-.15,1.2-.91,2.26-2.25,2.25-1.11-.01-2.4-1.03-2.25-2.25.16-1.27.32-2.54.48-3.81,1.12-8.96,2.24-17.91,3.37-26.87,0-.07.03-.13.04-.19-7.62-.62-15.19-2.04-22.48-4.26-.11-.03-.21-.08-.3-.13.54,6.97,1.2,13.93,2.04,20.87.94,7.76,1.95,15.63,3.97,23.2h47.6c.23-1.32.45-2.64.67-3.95,2.26-13.4,4.86-26.97,5.8-40.54-7.09,3.01-14.68,4.5-22.35,4.99,1.37,9.77,2.27,19.59,3.71,29.35Z"/>
      <path class="cls-5" d="M54.17,130.86c-3.08,1.69-6.35,3.07-9.68,4.3.68.64,1.04,1.65.53,2.72-1.6,3.33-3.14,6.71-4.52,10.15-.45,1.13-1.01,2.31-1.26,3.51,0,.04-.01.08-.01.11.04.13.12.25-.03.2-.05-.02.77.34,1.02.42,3.66,1.19,7.9,1.26,11.7,1.66,1.93.2,3.42,3.2,1.14,4.19-4.24,1.84-8.59,3.55-12.77,5.54,1.57,3.95,3.14,7.89,4.71,11.84h15.1c-1.87-7.41-2.83-15.08-3.76-22.64-.89-7.32-1.59-14.66-2.16-22.01Z"/>
      <path class="cls-5" d="M136.37,148.03c-1.38-3.44-2.91-6.81-4.52-10.15-.53-1.11-.13-2.15.6-2.79-.01,0-.02,0-.03-.01-2.92-1.07-6.14-2.07-9.15-3.41-.25,2.99-.61,5.97-1,8.95-1.52,11.67-3.38,23.3-5.39,34.89h14.45s.01-.06.03-.08c1.72-3.93,3.45-7.86,5.17-11.79-4.16-1.98-8.49-3.68-12.71-5.51-2.29-.99-.79-3.99,1.14-4.19,3.8-.4,8.05-.47,11.7-1.66.05-.02.81-.41.98-.44.02-.08.02-.16.01-.22-.02-.08-.05-.16-.06-.19-.37-1.15-.78-2.28-1.23-3.4Z"/>
      <path class="cls-5" d="M151.64,145.06c-4.8-3.28-10.04-6.17-15.44-8.46,1.73,3.63,3.38,7.32,4.84,11.07,1.04,2.68,2.06,6.04-.93,7.95-1.88,1.2-4.26,1.53-6.51,1.8,2.36,1.01,4.71,2.04,6.99,3.19,1.18.6,1.27,2.02.81,3.08-1.73,3.94-3.46,7.89-5.19,11.83h30.82c-1.45-5.75-3.31-11.43-5.76-16.82-2.24-4.94-5.02-10.49-9.62-13.64Z"/>
      <path class="cls-4" d="M90.03,96.52s.03,0,.04.01c.04,0,.06,0,.12,0-.08,0-.17-.02-.26-.03.03,0,.06,0,.1.01Z"/>
      <path class="cls-4" d="M89.91,96.5s.02,0,.03,0c0,0-.02,0-.03,0Z"/>
      <path class="cls-6" d="M153.9,110.39c-6.83.52-13.5-1.43-18.99-5.51-.98-.73-2.51-.16-3.08.81-.67,1.15-.17,2.35.81,3.08,6.05,4.49,13.75,6.7,21.26,6.12,1.21-.09,2.25-.97,2.25-2.25,0-1.15-1.03-2.34-2.25-2.25Z"/>
      <path class="cls-6" d="M166.5,111.55c1.41-2.16,1.74-5.04.33-7.33-2.27-3.69-7.93-4.25-10.91-1.13-2,2.1,1.18,5.28,3.18,3.18.09-.1.19-.2.29-.29.02-.02.05-.03.07-.05.12-.07.24-.14.36-.21.02,0,.03-.01.06-.02.1-.03.51-.12.56-.15.25-.02.5-.02.75-.02.03,0,.05,0,.07,0,.13.03.27.05.4.09.13.03.26.08.38.12.02.01.05.02.08.04.12.07.68.47.42.25.11.09.21.19.3.3.05.06.07.08.09.09-.02-.02-.04-.03.01.05.01.02.09.16.13.22.02.07.08.21.09.24,0,.02.04.16.06.24,0,.08.02.21.02.24,0,.49-.03.74-.2,1.17-.32.81-.93,1.33-1.68,1.52-2.49.63-1.92,4.37.6,4.42,1.02.02,2.19.57,2.82,1.51.7,1.04.73,2.18.3,3.13-.52,1.17-1.38,1.88-2.5,2.05-1.17.18-2.36-.24-3.24-1.2-1.97-2.13-5.14,1.05-3.18,3.18,3.7,4.01,10.66,3.06,12.9-1.98,1.06-2.39,1.07-5.21-.4-7.44-.59-.89-1.33-1.64-2.17-2.24ZM159.32,106.04s.01,0,.05-.04c-.04.03-.05.04-.05.04ZM159.72,105.78s.02,0,.1-.05c-.08.04-.11.05-.1.05ZM161.27,105.55c.05,0,.09.01.09.01,0,0-.04,0-.09-.01ZM161.95,105.73s.02,0,.06.03c-.05-.02-.07-.03-.06-.03Z"/>
      <path class="cls-6" d="M92.19,97.38s.02.01.03.02c0,0,0,0,0,0,0,0-.02-.01-.03-.02Z"/>
      <path class="cls-6" d="M87.15,96.85c-.15.06-.3.16,0,0h0Z"/>
      <path class="cls-6" d="M90.08,96.53s-.03,0-.04-.01c-.17-.03-.36,0,.04.01Z"/>
      <path class="cls-6" d="M82.74,94.47c-.82.84-.9,2.35,0,3.18.89.82,2.3.9,3.18,0,.11-.12.23-.22.35-.33.07-.05.14-.09.21-.14.17-.1.34-.2.52-.28.09-.04.18-.08.27-.13-.07.04-.09.05-.13.07.01,0,.03-.01.04-.02.38-.14.78-.24,1.18-.31.06,0,.13-.02.17-.02.23-.02.47-.03.7-.03.21,0,.42,0,.64.03.1,0,.21.03.32.03-.06,0-.07,0-.12,0,.42.09.82.2,1.23.33.05.02.11.05.16.08.18.09.37.2.54.31.05.03.12.09.19.14-.11-.09-.19-.19,0,0,0,0,.02.02.02.02.03.02.06.05.09.06-.03-.01-.06-.03-.09-.05.16.15.31.29.46.45.8.87,2.38.87,3.18,0,.85-.93.85-2.25,0-3.18-3.25-3.54-9.77-3.64-13.13-.2Z"/>
      <path class="cls-6" d="M102.06,61.1c-2.9,0-2.9,4.5,0,4.5s2.9-4.5,0-4.5Z"/>
      <path class="cls-6" d="M89.21,80.75c-2.9,0-2.9,4.5,0,4.5s2.9-4.5,0-4.5Z"/>
      <path class="cls-6" d="M75.7,61.1c-2.9,0-2.9,4.5,0,4.5s2.9-4.5,0-4.5Z"/>
      <path class="cls-6" d="M157.36,144.05c-2.1-2.19-4.73-3.79-7.32-5.34-3.19-1.91-6.49-3.65-9.86-5.23-6.42-3-13.97-4.37-19.74-8.6-5.53-4.05-5.77-12.35-6.99-18.57,3.2-4.57,4.95-9.93,6.11-15.44,1.12.4,2.35.52,3.59.3,2.82-.5,4.85-3.06,5.1-5.83.03-.15.05-.31.05-.47,0-.67-.12-1.32-.32-1.93,2.14-2.69,3.55-6.15,3.93-9.1.47-3.62.47-7.54-1.69-10.65,4.53-6.67,6.64-14.78,4.68-22.73-1.8-7.33-6.86-12.81-12.21-17.83-2.62-2.46-5.29-4.88-7.63-7.61-2.61-3.04-4.8-6.44-7.75-9.17C102.4,1.32,95.76-.55,89.18.14c-7.11.74-13.88,4.01-18.01,9.98-.41.59-.48,1.18-.32,1.68.61-.51,1.26-.98,2-1.35-.74.37-1.4.84-2,1.35.47,1.54,2.98,2.37,4.21.59,6.06-8.76,20.88-10.75,28.83-3.57,2.63,2.37,4.66,5.29,6.87,8.04,2.04,2.55,4.35,4.84,6.73,7.07,4.52,4.24,9.43,8.47,11.94,14.29,3.19,7.4,1.6,15.32-2.56,21.89-1.55-.92-3.32-1.43-5-1.19-8.78-.89-14.27-9.86-17.5-17.18-1.69-3.83-2.35-8.31-4.53-11.88-2.1-3.43-5.63-6.22-9.64-6.97-5.32-1-9.83,1.65-12.78,5.96-.66.96-.42,1.89.2,2.52.38-.48.78-.96,1.23-1.42-.46.46-.86.93-1.23,1.42.93.94,2.71,1.18,3.69-.24,2.2-3.22,5.69-4.86,9.47-3.41,3.51,1.34,5.56,4.4,6.59,7.86,1.65,5.55,3.98,11.26,7.31,16.18-.4-.22-.8-.44-1.2-.67-1.39-.79-2.79-1.59-4.29-2.14-1.11-.41-2.51.45-2.77,1.57-.29,1.27.39,2.33,1.57,2.77.05.02.09.04.14.05.08.04.17.08.25.11.32.15.64.32.95.48.7.37,1.38.76,2.07,1.15,1.39.79,2.79,1.59,4.29,2.14.91.33,2.02-.19,2.52-1.01.5.53.99,1.07,1.52,1.56,2.62,2.43,5.63,4.2,8.98,5.09.5,1.14,1.73,1.87,3,.93.23-.17.46-.27.7-.34.22,0,.42-.03.61-.08,1.82.04,3.74,2.33,4.26,3.87.73,2.13.45,4.9.03,7.06-.35,1.81-1.11,3.56-2.21,5.05-.37-.23-.77-.43-1.19-.59-2.39-.89-5.38-.1-7.02,1.86-1.53,1.83-2.02,4.34-1.18,6.55-1.07,6.23-2.67,12.56-6.67,17.56-4.33,5.41-11.07,8.99-17.97,9.6-12.78,1.14-25.29-6.89-29.36-19.12-.85-2.56-1.52-5.22-2.09-7.89.27-.63.43-1.3.5-1.99.03-.15.05-.31.05-.47-.03-1.85-.81-3.49-2.09-4.67-.04-.04-.08-.08-.13-.11-.62-.55-1.35-1.01-2.16-1.31-1.16-.43-2.46-.46-3.68-.16-1.88-1.42-2.99-3.65-3.22-6.34-.16-1.81-.11-3.72.88-5.3.55-.89,1.3-1.66,2.18-2.08.67-.03,1.32-.12,1.95-.26.11.02.22.03.33.06,1.18.34,2.06-.23,2.49-1.07,3.4-1.72,5.96-4.96,7.88-8.38,2.29-4.09,3.97-8.5,5.57-12.92-.54.41-1.13.79-1.81,1.13.68-.34,1.27-.72,1.81-1.13.72-1.98,1.43-3.96,2.17-5.92.43-1.14-.48-2.47-1.57-2.77-1.26-.35-2.34.43-2.77,1.57-2.14,5.64-3.96,11.47-6.77,16.82-1.7,3.24-4.11,6.96-7.62,8.06-2.86-.11-5.45,1.48-7.2,3.87-.5.68-.89,1.4-1.19,2.14-.81-1.04-1.54-2.13-1.98-3.35-.92-2.54.25-4.71,1.58-6.84,1.41-2.25,2.66-4.5,3.22-7.12.61-2.84.48-5.76.97-8.61,1.86-10.83,7.95-21.81,19.52-24.21,1.68-.35,1.94-2.02,1.28-3.2-1.37,1.34-2.64,2.78-4.45,3.69,1.81-.9,3.07-2.35,4.45-3.69-.45-.8-1.32-1.38-2.47-1.14-13.02,2.7-20.55,15.06-22.66,27.36-.55,3.23-.34,6.62-1.26,9.78-.85,2.93-2.98,5.19-4.15,7.97-2.58,6.12,1.38,10.79,5.06,15.29.02.03.05.05.07.07.03.48.08.95.14,1.42.41,2.92,1.61,5.76,3.72,7.84-1.3,2.04-1.48,4.66-.18,6.8,1.46,2.42,4.22,3.5,6.95,3.02.29-.05.57-.14.84-.24.34,1.36.7,2.72,1.08,4.07,1.36,4.85,3.86,9.24,7.18,12.93-.05.12-.09.24-.11.38-.94,6.8-3.09,12.98-9.06,16.86-7.07,4.6-15.41,6.93-23.3,9.67-7.14,2.48-15.64,5.64-20.29,11.97-3.46,4.71-5.44,10.69-7.37,16.14-1.46,4.14-2.81,8.33-4,12.56h4.69c.9-3.09,1.86-6.16,2.9-9.21,1.89-5.56,3.83-11.45,7.08-16.39,1.69-2.57,4.65-4.53,7.38-6.09,3.85-2.2,8.02-3.71,12.21-5.13,2.13-.73,4.29-1.44,6.45-2.18-1.74,3.66-3.41,7.37-4.88,11.15-1.04,2.68-2.07,6.03.93,7.95,1.88,1.2,4.26,1.53,6.51,1.8-2.36,1.01-4.71,2.04-6.99,3.19-.8.4-1.38,1.67-1.03,2.54,1.64,4.12,3.28,8.24,4.92,12.37h4.82c-1.57-3.95-3.14-7.89-4.71-11.84,4.18-1.99,8.53-3.7,12.77-5.54,2.28-.99.79-3.99-1.14-4.19-3.81-.4-8.05-.48-11.7-1.66-.25-.08-1.06-.44-1.02-.42.15.05.08-.07.03-.2,0-.04,0-.07.01-.11.25-1.2.81-2.38,1.26-3.51,1.38-3.44,2.91-6.81,4.52-10.15.51-1.07.15-2.08-.53-2.72,3.33-1.23,6.59-2.61,9.68-4.3.56,7.35,1.26,14.69,2.16,22.01.93,7.57,1.89,15.23,3.76,22.64h4.64c-2.02-7.57-3.03-15.44-3.97-23.2-.84-6.94-1.5-13.9-2.04-20.87.1.04.19.09.3.13,7.29,2.22,14.86,3.64,22.48,4.26-.01.06-.03.13-.04.19-1.12,8.96-2.24,17.91-3.37,26.87-.16,1.27-.32,2.54-.48,3.81-.15,1.22,1.14,2.24,2.25,2.25,1.34.01,2.1-1.05,2.25-2.25,1.12-8.96,2.24-17.91,3.37-26.87.16-1.25.31-2.49.47-3.74,1.16.05,2.31.08,3.47.09.85,0,1.71-.01,2.56-.02,1.46,10.1,2.36,20.28,3.85,30.38.18,1.21,1.7,1.85,2.77,1.57,1.29-.34,1.75-1.57,1.57-2.77-1.44-9.76-2.34-19.59-3.71-29.35,7.66-.49,15.26-1.98,22.35-4.99-.94,13.58-3.55,27.15-5.8,40.54-.22,1.32-.45,2.64-.67,3.95h4.54c2-11.59,3.87-23.22,5.39-34.89.39-2.97.75-5.96,1-8.95,3.02,1.34,6.23,2.34,9.15,3.41.01,0,.02,0,.03.01-.73.64-1.13,1.68-.6,2.79,1.6,3.33,3.14,6.71,4.52,10.15.45,1.12.87,2.25,1.23,3.4,0,.02.03.1.06.19,0,.05,0,.14-.01.22-.17.03-.94.42-.98.44-3.65,1.19-7.9,1.27-11.7,1.66-1.93.2-3.42,3.2-1.14,4.19,4.22,1.83,8.54,3.54,12.71,5.51-1.72,3.93-3.45,7.86-5.17,11.79-.01.03-.02.05-.03.08h4.87c1.73-3.94,3.46-7.89,5.19-11.83.46-1.06.38-2.48-.81-3.08-2.28-1.15-4.63-2.19-6.99-3.19,2.25-.26,4.63-.59,6.51-1.8,2.99-1.92,1.97-5.28.93-7.95-1.45-3.75-3.11-7.44-4.84-11.07,5.4,2.29,10.64,5.18,15.44,8.46,4.6,3.15,7.38,8.7,9.62,13.64,2.45,5.39,4.31,11.07,5.76,16.82h4.64c-1.31-5.4-3-10.72-5.12-15.86-2.29-5.54-5-11.23-9.19-15.61ZM119.8,84.61c.01-.15.07-.32.05-.17.03-.11.06-.23.1-.34.05-.08.09-.17.14-.25.03-.05.06-.1.09-.14.1-.11.2-.23.32-.33.01-.01.04-.03.06-.05,0,0,0,0,0,0,.09-.06.21-.15.34-.22,0,0,0,0,.02,0,.11-.03.21-.07.32-.1.06-.02.22-.05.33-.07.09,0,.19,0,.28,0,.07,0,.14,0,.21,0,.18.04.36.09.54.15.08.04.16.08.24.13.06.04.13.08.19.12,0,0,0,0,0,0,.11.11.23.21.33.33-.02-.03-.02-.04-.04-.08.02.03.04.07.07.1,0,0,0,0,0,0,.06.06.09.12.1.15,0,0,0,0,0,0,.05.08.09.16.13.24.05.16.09.32.14.48,0-.05,0-.09,0-.17,0,.06,0,.13.01.2,0,.02.01.04.02.06,0,.04,0,.06.01.09,0,.02,0,.03,0,.05,0,0,0,0-.01-.02,0,.03,0,.06,0,.09,0,.12-.01.23-.01.35,0,.01,0,.01,0,.02-.03.1-.07.21-.09.27,0,.02-.02.05-.02.08-.05.09-.11.19-.18.29.06-.06.05.02-.05.12-.02.02-.04.04-.06.06-.02.03-.04.06-.05.09.02-.04.03-.05.04-.08-.04.04-.08.09-.12.13-.05.05-.1.1-.15.14.04-.02.05-.03.11-.06-.05.03-.09.06-.14.09-.07.06-.15.11-.17.11-.05.03-.1.07-.16.1-.05.03-.1.05-.14.08-.16.05-.31.09-.47.13.05,0,.07,0,.14,0-.06,0-.12,0-.18.01,0,0,0,0-.01,0-.11.02-.2.01-.19,0-.13,0-.26,0-.38-.01-.08-.02-.17-.04-.25-.06-.07-.02-.13-.04-.2-.06.04.02.06.03.1.06-.04-.02-.08-.04-.12-.07-.03-.01-.07-.02-.1-.03-.11-.04-.15-.08-.07-.06-.07-.03-.13-.06-.19-.1-.04-.02-.07-.05-.11-.07-.14-.14-.28-.27-.41-.41-.02-.04-.04-.08-.06-.11-.12-.2-.27-.75-.07-.06-.05-.18-.13-.35-.17-.53-.01-.05-.02-.11-.04-.16-.01-.16-.01-.32,0-.48,0,.04-.02.07-.03.12.01-.05.02-.11.03-.16ZM55.68,84.8s0,0-.01-.02c0,.03,0,.06,0,.09,0,.12-.01.23-.01.35,0,.01,0,.01,0,.02-.03.1-.07.21-.09.27,0,.02-.02.05-.02.08-.05.09-.11.19-.18.29.06-.06.05.02-.05.12-.02.02-.04.04-.06.06-.02.03-.04.06-.05.09.02-.04.03-.05.04-.08-.04.04-.08.09-.12.13-.05.05-.1.1-.15.14.04-.02.05-.03.11-.06-.05.03-.09.06-.14.09-.07.06-.15.11-.17.11-.05.03-.1.07-.16.1-.05.03-.1.05-.14.08-.16.05-.31.09-.47.13.05,0,.07,0,.14,0-.06,0-.12,0-.18.01,0,0,0,0-.01,0-.11.02-.2.01-.19,0-.13,0-.26,0-.38-.01-.08-.02-.17-.04-.25-.06-.07-.02-.13-.04-.2-.06.04.02.06.03.1.06-.04-.02-.08-.04-.12-.07-.03-.01-.07-.02-.1-.03-.11-.04-.15-.08-.07-.06-.07-.03-.13-.06-.19-.1-.04-.02-.07-.05-.11-.07-.14-.14-.28-.27-.41-.41-.02-.04-.04-.08-.06-.11-.12-.2-.27-.75-.07-.06-.05-.18-.13-.35-.17-.53-.01-.05-.03-.11-.04-.16-.01-.16-.01-.32,0-.48,0,.04-.02.07-.03.12.01-.05.02-.11.03-.16.01-.15.07-.32.04-.17.03-.11.06-.23.1-.34.05-.08.09-.17.14-.25.03-.05.06-.1.09-.14.1-.11.2-.23.32-.33.01-.01.04-.03.06-.05,0,0,0,0,0,0,.09-.06.21-.15.34-.22,0,0,0,0,.02,0,.11-.03.21-.07.32-.1.06-.02.22-.05.33-.07.09,0,.19,0,.28,0,.07,0,.14,0,.21,0,.18.04.36.09.54.15.08.04.16.08.24.13.06.04.13.08.19.12,0,0,0,0,0,0,.11.11.23.21.33.33-.02-.03-.02-.04-.04-.08.02.03.04.07.07.1,0,0,0,0,0,0,.06.06.09.12.1.15,0,0,0,0,0,0,.05.08.09.16.13.24.05.16.09.32.14.48,0-.05,0-.09,0-.17,0,.06,0,.13.01.2,0,.02.01.04.02.06,0,.04,0,.07.01.09,0,.02,0,.03,0,.05ZM88.82,131.7c-9.68-.15-19.34-1.64-28.6-4.46-.16-.05-.31-.07-.45-.09,4.66-4.02,7.09-9.42,8.23-15.52.44.36.87.72,1.33,1.06,12.09,8.84,29.32,8.18,40.34-2.07.86,5,1.69,10.19,4.63,14.36.58.83,1.25,1.58,1.97,2.26-8.61,3.58-18.2,4.6-27.45,4.46Z"/>
      <path class="cls-6" d="M127.16,49.82c-2,.57-3.81.45-5.86-.25-1.77-.6-3.71-1.82-5.2-3.07-1.58-1.33-3.18-3.02-4.28-4.52-.56-.76-1.08-1.55-1.55-2.37-.21-.36-.41-.74-.6-1.11-.09-.19-.18-.38-.27-.57-.03-.08-.07-.17-.1-.25-.43-1.14-1.52-1.91-2.77-1.57-1.09.3-2,1.62-1.57,2.77,1.64,4.34,4.79,8.27,8.38,11.17,4.23,3.41,9.55,5.67,15.01,4.12,2.78-.79,1.6-5.13-1.2-4.34Z"/>
      <path class="cls-1" d="M123.36,83.65s.02.02.03.03c-.02-.03-.05-.07-.07-.1.02.04.03.05.04.08Z"/>
      <path class="cls-1" d="M121.87,86.81s.08.02.19,0c0,0,0,0,.01,0-.04,0-.07,0-.11,0-.03,0-.06,0-.1,0Z"/>
      <path class="cls-1" d="M123.38,83.68c.04.06.08.11.11.16-.01-.04-.04-.09-.1-.15,0,0,0,0,0,0Z"/>
      <path class="cls-1" d="M123.37,86.07s.04-.04.06-.06c.1-.1.11-.18.05-.12-.04.06-.08.12-.11.19Z"/>
      <path class="cls-1" d="M119.76,84.77s.02-.08.03-.12c0,0,0-.01,0-.02,0,0,0-.01,0-.02,0,.05-.02.11-.03.16Z"/>
      <path class="cls-1" d="M123.78,84.6c0,.06,0,.12.01.18,0,.02,0,.03.01.02,0-.02,0-.03,0-.05,0-.03,0-.06-.01-.09,0-.02-.01-.04-.02-.06Z"/>
      <path class="cls-1" d="M119.81,84.55s.02-.07.03-.11c.03-.15-.03.02-.05.17,0-.02,0-.04.01-.06Z"/>
      <path class="cls-1" d="M123.77,84.57s0,.02,0,.02c0-.07-.01-.13-.01-.2,0,.08,0,.12,0,.17Z"/>
      <path class="cls-1" d="M121.02,86.67s.08.04.12.07c-.05-.03-.07-.04-.1-.06,0,0-.01,0-.02,0Z"/>
      <path class="cls-1" d="M123.08,86.36s-.02.01-.02.02c.05-.03.09-.06.14-.09-.05.03-.07.04-.11.06,0,0,0,0,0,0Z"/>
      <path class="cls-1" d="M122.08,86.81c.06,0,.12-.02.18-.01-.07,0-.09,0-.14,0-.02,0-.03,0-.05.01Z"/>
      <path class="cls-1" d="M123.77,84.57c-.04-.16-.09-.32-.14-.48-.04-.08-.09-.16-.13-.24,0,0,0,0,0,0,.02.06-.02.03-.13-.19-.11-.12-.22-.22-.33-.33,0,0,0,0,0,0-.06-.04-.12-.08-.19-.12-.08-.05-.16-.08-.24-.13-.18-.05-.36-.1-.54-.15-.07,0-.14,0-.21,0-.09,0-.19,0-.28,0-.11.02-.27.05-.33.07-.11.03-.21.07-.32.1,0,0-.01,0-.02,0-.13.07-.25.16-.34.22,0,0,0,0,0,0-.02.02-.05.04-.06.05-.11.1-.22.22-.32.33-.03.05-.06.1-.09.14-.05.08-.09.17-.14.25-.04.11-.07.23-.1.34,0,.04-.02.11-.05.21,0,.16,0,.32,0,.48.01.06.02.11.04.16.05.18.12.35.17.53-.2-.69-.05-.15.07.06.01.02.04.07.06.11.13.14.27.28.41.41.03.02.07.05.11.07.06.04.13.07.19.1.03.01.1.04.2.1.07.02.13.05.2.06.08.02.16.04.25.06.13,0,.26.01.38.01,0,0,.1-.02.25-.02.16-.04.31-.08.47-.13.05-.02.1-.05.14-.08.05-.03.1-.07.16-.1-.02,0,.05-.04.2-.13.05-.05.1-.1.15-.14.04-.04.08-.08.12-.13.06-.11.1-.17.12-.2.06-.1.12-.19.18-.29,0-.03.02-.06.02-.08.02-.07.06-.17.09-.27,0,0,0-.01,0-.02,0-.12.01-.23.01-.35,0-.03,0-.06,0-.09,0-.03-.01-.1-.02-.2Z"/>
      <path class="cls-1" d="M120.91,86.64s.07.02.1.03c-.06-.03-.12-.07-.18-.09-.08-.02-.04.03.07.06Z"/>
      <path class="cls-1" d="M123.06,86.38c-.06.04-.11.07-.17.11.02,0,.1-.05.17-.11Z"/>
      <path class="cls-1" d="M123.32,86.16s.04-.06.05-.09c0,0,0,0,0,.01-.02.03-.03.04-.04.08Z"/>
      <path class="cls-6" d="M123.37,86.07c.04-.06.07-.12.11-.19-.03.03-.07.09-.12.2,0,0,0,0,0-.01Z"/>
      <path class="cls-6" d="M121.02,86.67s.01,0,.02,0c-.1-.06-.16-.09-.2-.1.06.03.12.06.18.09Z"/>
      <path class="cls-6" d="M123.36,83.65c.11.22.16.25.13.19-.03-.05-.07-.11-.11-.16,0,0-.02-.02-.03-.03Z"/>
      <path class="cls-6" d="M121.97,86.81s.07,0,.11,0c.02,0,.03,0,.05-.01-.15,0-.24,0-.25.02.03,0,.06,0,.1,0Z"/>
      <path class="cls-6" d="M123.06,86.38s.02-.01.02-.02c0,0,0,0,0,0-.16.09-.22.14-.2.13.06-.04.11-.07.17-.11Z"/>
      <path class="cls-6" d="M123.77,84.57c0,.11,0,.18.02.2,0-.06,0-.12-.01-.18,0,0,0-.02,0-.02Z"/>
      <path class="cls-6" d="M119.8,84.61s0,.01,0,.02c0,0,0,.01,0,.02.02-.1.04-.17.05-.21,0,.04-.02.07-.03.11,0,.02,0,.04-.01.06Z"/>
      <path class="cls-1" d="M52.8,86.64s.07.02.1.03c-.06-.03-.12-.07-.18-.09-.08-.02-.04.03.07.06Z"/>
      <path class="cls-1" d="M52.9,86.67s.08.04.12.07c-.05-.03-.07-.04-.1-.06,0,0-.01,0-.02,0Z"/>
      <path class="cls-1" d="M54.94,86.38c-.06.04-.11.07-.17.11.02,0,.1-.05.17-.11Z"/>
      <path class="cls-1" d="M51.65,84.77s.02-.08.03-.12c0,0,0-.01,0-.02,0,0,0-.01,0-.02,0,.05-.02.11-.03.16Z"/>
      <path class="cls-1" d="M51.69,84.55s.02-.07.03-.11c.03-.15-.03.02-.04.17,0-.02,0-.04.01-.06Z"/>
      <path class="cls-1" d="M53.75,86.81s.08.02.19,0c0,0,0,0,.01,0-.04,0-.07,0-.11,0-.03,0-.06,0-.1,0Z"/>
      <path class="cls-1" d="M53.96,86.81c.06,0,.12-.02.18-.01-.07,0-.09,0-.14,0-.02,0-.03,0-.05.01Z"/>
      <path class="cls-1" d="M55.27,83.68c.04.06.08.11.11.16-.01-.04-.04-.09-.1-.15,0,0,0,0,0,0Z"/>
      <path class="cls-1" d="M55.24,83.65s.02.02.03.03c-.02-.03-.05-.07-.07-.1.02.04.03.05.04.08Z"/>
      <path class="cls-1" d="M55.25,86.07s.04-.04.06-.06c.1-.1.11-.18.05-.12-.04.06-.08.12-.11.19Z"/>
      <path class="cls-1" d="M55.65,84.57s0,.02,0,.03c0-.07-.01-.13-.01-.2,0,.08,0,.12,0,.17Z"/>
      <path class="cls-1" d="M55.2,86.16s.04-.06.05-.09c0,0,0,0,0,.01-.02.03-.03.04-.04.08Z"/>
      <path class="cls-1" d="M55.65,84.57c-.04-.16-.09-.32-.14-.48-.04-.08-.09-.16-.13-.24,0,0,0,0,0,0,.02.06-.02.03-.13-.19-.11-.12-.22-.22-.33-.33,0,0,0,0,0,0-.06-.04-.12-.08-.19-.12-.08-.05-.16-.08-.24-.13-.18-.05-.36-.1-.54-.15-.07,0-.14,0-.21,0-.09,0-.19,0-.28,0-.11.02-.27.05-.33.07-.11.03-.22.07-.32.1,0,0-.01,0-.02,0-.13.07-.25.16-.34.22,0,0,0,0,0,0-.02.02-.05.04-.06.05-.11.1-.22.22-.32.33-.03.05-.07.1-.09.14-.05.08-.09.17-.14.25-.04.11-.07.23-.1.34,0,.04-.02.11-.05.21,0,.16,0,.32,0,.48.01.05.02.11.04.16.05.18.12.35.17.53-.2-.69-.05-.15.07.06.01.02.04.07.06.11.13.14.27.28.41.41.03.02.07.05.11.07.06.04.13.07.19.1.03.01.1.04.2.1.07.02.13.05.2.06.08.02.16.04.25.06.13,0,.26.01.38.01,0,0,.1-.02.25-.02.16-.04.31-.08.47-.13.05-.02.1-.05.14-.08.05-.03.1-.07.16-.1-.02,0,.05-.04.2-.13.05-.05.1-.1.15-.14.04-.04.08-.08.12-.13.06-.11.1-.17.12-.2.06-.1.12-.19.18-.29,0-.03.02-.06.02-.08.02-.07.06-.17.09-.27,0,0,0-.01,0-.02,0-.12.01-.23.01-.35,0-.03,0-.06,0-.09,0-.03-.01-.1-.02-.2Z"/>
      <path class="cls-1" d="M55.66,84.6c0,.06,0,.12.01.18,0,.02,0,.03.01.02,0-.02,0-.03,0-.05,0-.03,0-.06-.01-.09,0-.02-.01-.04-.02-.06Z"/>
      <path class="cls-1" d="M54.97,86.36s-.02.01-.02.02c.05-.03.09-.06.14-.09-.05.03-.07.04-.11.06,0,0,0,0,0,0Z"/>
      <path class="cls-6" d="M51.68,84.61s0,.01,0,.02c0,0,0,.01,0,.02.02-.1.04-.17.05-.21,0,.04-.02.07-.03.11,0,.02,0,.04-.01.06Z"/>
      <path class="cls-6" d="M54.94,86.38s.02-.01.02-.02c0,0,0,0,0,0-.16.09-.22.14-.2.13.06-.04.11-.07.17-.11Z"/>
      <path class="cls-6" d="M53.85,86.81s.07,0,.11,0c.02,0,.03,0,.05-.01-.15,0-.24,0-.25.02.03,0,.06,0,.1,0Z"/>
      <path class="cls-6" d="M52.9,86.67s.01,0,.02,0c-.1-.06-.16-.09-.2-.1.06.03.12.06.18.09Z"/>
      <path class="cls-6" d="M55.25,86.07c.04-.06.07-.12.11-.19-.03.03-.07.09-.12.2,0,0,0,0,0-.01Z"/>
      <path class="cls-6" d="M55.65,84.57c0,.11,0,.18.02.2,0-.06,0-.12-.01-.18,0,0,0-.02,0-.03Z"/>
      <path class="cls-6" d="M55.24,83.65c.11.22.16.25.13.19-.03-.05-.07-.11-.11-.16,0,0-.02-.02-.03-.03Z"/>
      <path class="cls-6" d="M78.38,49.59c-3.05.98-6.16,1.92-9.11,3.17-.57.24-1.02.48-1.34,1.03-.28.48-.4,1.19-.23,1.73.18.54.51,1.07,1.03,1.34.5.26,1.19.46,1.73.23,2.96-1.25,6.06-2.19,9.12-3.17,1.12-.36,1.96-1.58,1.57-2.77-.36-1.12-1.57-1.96-2.77-1.57Z"/>
    </g>
  </g>
</svg>