<?xml version="1.0" encoding="UTF-8"?>
<svg id="_レイヤー_2" data-name="レイヤー 2" xmlns="http://www.w3.org/2000/svg" xmlns:xlink="http://www.w3.org/1999/xlink" viewBox="0 0 187.13 174.58">
  <defs>
    <style>
      .cls-1 {
        fill: #fff;
      }

      .cls-2, .cls-3 {
        fill: none;
      }

      .cls-3 {
        stroke: #78c8e6;
        stroke-miterlimit: 10;
        stroke-width: 5px;
      }

      .cls-4 {
        fill: #78c8e6;
      }

      .cls-5 {
        fill: url(#_新規パターンスウォッチ_12);
      }

      .cls-6 {
        fill: #323232;
      }
    </style>
    <pattern id="_新規パターンスウォッチ_12" data-name="新規パターンスウォッチ 12" x="0" y="0" width="25" height="25" patternTransform="translate(-6049.02 -11922.7) rotate(-90) scale(.32)" patternUnits="userSpaceOnUse" viewBox="0 0 25 25">
      <g>
        <rect class="cls-2" width="25" height="25"/>
        <rect class="cls-1" x="24.29" y="24.29" width="26.43" height="26.43"/>
        <rect class="cls-1" x="-.71" y="24.29" width="26.43" height="26.43"/>
        <rect class="cls-1" x="-25.71" y="24.29" width="26.43" height="26.43"/>
        <g>
          <rect class="cls-1" x="24.29" y="-.71" width="26.43" height="26.43"/>
          <line class="cls-3" x1="23.61" y1="12.5" x2="51.39" y2="12.5"/>
        </g>
        <g>
          <rect class="cls-1" x="-.71" y="-.71" width="26.43" height="26.43"/>
          <line class="cls-3" x1="-1.39" y1="12.5" x2="26.39" y2="12.5"/>
        </g>
        <g>
          <rect class="cls-1" x="-25.71" y="-.71" width="26.43" height="26.43"/>
          <line class="cls-3" x1="-26.39" y1="12.5" x2="1.39" y2="12.5"/>
        </g>
        <rect class="cls-1" x="24.29" y="-25.71" width="26.43" height="26.43"/>
        <rect class="cls-1" x="-.71" y="-25.71" width="26.43" height="26.43"/>
        <rect class="cls-1" x="-25.71" y="-25.71" width="26.43" height="26.43"/>
      </g>
    </pattern>
  </defs>
  <g id="_レイヤー_1-2" data-name="レイヤー 1">
    <g>
      <path class="cls-4" d="M82.35,45.74s0-.01.02-.02c0,0-.01.02-.02.03,0,0,0,0,0,0Z"/>
      <path class="cls-4" d="M88.65,158.56c0,.46.02.96,0,1.46.41-1.41.74-2.85.97-4.33-.38-.03-.76-.06-1.14-.09.09.98.15,1.97.16,2.95Z"/>
      <path class="cls-4" d="M84.06,161.01s.01-.05.02-.11c-.05.07-.08.12-.02.11Z"/>
      <path class="cls-5" d="M79.73,123.31c-5.24-2.17-10.61-4.26-15.72-6.76-.29,2.5-.58,4.99-.87,7.49-.04.37-.15.71-.31,1.03.23.05.45.13.64.27.65.47,1.31.94,1.97,1.41,4.13,2.96,8.26,5.92,12.39,8.88.25-2.53,1.1-5.08,3.19-6.65,3.02-2.26,6.98-.96,10.33-.33.98.18,1.96.37,2.94.55,0-.04,0-.09.01-.13-.23.01-.46-.01-.69-.1-4.64-1.85-9.27-3.74-13.88-5.65Z"/>
      <path class="cls-1" d="M103.38,122.7c-.05-.14-.1-.28-.15-.42-.04-.08-.09-.21-.11-.25-.13-.23-.27-.45-.4-.68-.03-.06-.06-.1-.07-.13-.03-.02-.08-.07-.18-.16-.15-.14-.29-.28-.44-.42-.03-.03-.05-.05-.07-.07,0,0,0,0,0,0-.4-.29-.79-.59-1.17-.89-1.98-1.56-4.05-2.99-6.19-4.33-2.41-1.51-4.92-2.83-7.39-4.23-1.37-.78-4.67-3.17-5.32-.43-.41,1.73,1.88,2.99,3.05,3.78,2.22,1.5,4.41,3.03,6.66,4.48,1.26.81,2.53,1.6,3.82,2.36,1.13.67,2.32,1.28,3.05,2.43,1.29,2.04.34,4.12.27,6.28,1.12.21,2.25.42,3.37.63.64.12,1.27.26,1.9.42.12-2.44.18-4.98-.33-7.28-.08-.37-.18-.73-.29-1.09Z"/>
      <path class="cls-1" d="M110.46,112.59c-2.09,1.35-4.38,2.69-6.75,3.7.05.04.1.07.14.11.01.01.02.02.04.03,1,.73,1.88,1.44,2.6,2.46.07.11.12.23.19.33,4.14-2.01,8.3-4.01,12.4-6.11-.08-2.74-.27-5.46-.45-8.19-2.3,3.02-4.92,5.56-8.17,7.66Z"/>
      <path class="cls-5" d="M108.26,123.45c.52,2.83.34,5.91.2,8.53-.01.25-.07.46-.14.67.88.47,1.72,1.02,2.48,1.73.57.53,1.05,1.12,1.44,1.74.43-.37.86-.74,1.28-1.11,3.74-3.24,7.49-6.49,11.23-9.73-.51-3.08-1.03-6.15-1.54-9.23-4.93,2.57-9.95,4.98-14.95,7.42Z"/>
      <path class="cls-1" d="M77.72,113.19c-3.31-1.94-6.21-4.59-8.6-7.63-.04,2.69-.09,5.38-.14,8.06,0,.11-.02.21-.04.31,4.06,1.84,8.24,3.49,12.33,5.19,2.1.87,4.21,1.71,6.31,2.57-1.51-1.01-3.02-2.03-4.52-3.05-2.11-1.44-4.43-2.93-5.34-5.44Z"/>
      <path class="cls-4" d="M82.29,45.81s.03-.05.05-.07c0,.01-.02.02-.03.03-.01.02-.01.02-.02.04Z"/>
      <path class="cls-4" d="M77.65,49.21s-.04.02-.05.03c.04-.02.08-.04.12-.06-.02,0-.03.01-.06.02h0Z"/>
      <path class="cls-4" d="M77.84,49.13s-.08.04-.12.06c.09-.04.13-.06.12-.06Z"/>
      <path class="cls-4" d="M145.51,150.63c-1.59-.7-3.41-1-5.08-1.44-2.29-.61-4.59-1.23-6.88-1.84-2.8-.74-1.61-5.08,1.2-4.34,1.34.35,2.69.71,4.03,1.07-1.03-3.41-2.07-6.81-3.1-10.22-1.99-1.16-3.98-2.33-5.98-3.5-.13,2.3-.27,4.6-.39,6.9-.64,12.43-1.21,24.87-1.75,37.31h10.61c.03-.1.06-.2.1-.29,2.86-6.45,5.29-13.1,8-19.61.71-1.7,1.19-3.19-.76-4.05Z"/>
      <path class="cls-5" d="M113.58,140.22c.08.85.08,1.72-.02,2.61-.38,3.34-1.02,6.67-1.52,9.99-.93,6.24-1.87,12.47-2.95,18.68-.18,1.02-.34,2.05-.45,3.08h14.41c.06-1.3.12-2.6.17-3.9.59-13.28,1.13-26.56,1.93-39.83-3.36,2.92-6.73,5.83-10.09,8.75-.45.39-.96.59-1.48.63Z"/>
      <path class="cls-4" d="M58.22,130.37c-2,1.17-3.99,2.33-5.99,3.5-1.03,3.41-2.07,6.81-3.1,10.22,1.34-.36,2.68-.72,4.03-1.07,2.81-.74,3.99,3.6,1.2,4.34-2.25.59-4.49,1.2-6.74,1.8-1.68.45-3.46.77-5.07,1.42-1.9.77-1.74,1.99-1.08,3.73,1.3,3.36,2.56,6.69,3.65,10.13,1.05,3.3,2,6.69,3.4,9.87.04.09.07.19.1.29h11.73c-.06-1.3-.12-2.6-.17-3.9-.6-13.44-1.14-26.89-1.96-40.31Z"/>
      <path class="cls-1" d="M126.68,61.55c-1.33,1.5-3.25.44-3.68-1.06-.26-.38-.43-.83-.5-1.33-.81-6.12-.7-12.29-.94-18.45-.17-4.42-2.03-9.54-6.73-10.76-1.35-.35-1.76-1.53-1.53-2.58-.81-.51-1.64-.95-2.47-1.33-.2.06-.4.11-.6.11-.8.04-1.47-.42-1.87-1.05-2.16-.67-4.38-1.01-6.65-1.1-.49,1.63-3.01,2.49-4.12.58-.1-.17-.2-.33-.29-.5-1.91.13-3.84.38-5.78.67.34,1.85-2.11,3.71-3.81,2.03-.4-.4-.8-.81-1.19-1.22-2.36.39-4.72.78-7.04,1.03.09,1.03-.53,2.29-1.62,2.44-4.07.55-6.24,2.97-7.41,6.8-.81,2.65-.7,5.41-.76,8.44-.09,4.98.02,13.44-5.26,15.99-.29,1.63-2.33,2.87-3.73,1.3-1.31-1.48-3.08.02-3.84,1.46-.98,1.86-1.11,4.19-.79,6.24.65,4.08,3.81,6.61,7.62,7.83,1,.32,1.57,1.14,1.65,2.17.48,6.05,1.05,12.35,3.78,17.87,2.11,4.27,5.15,8.17,9.02,10.97.58-1.11,1.45-2.07,2.58-2.64,3.12-1.58,6.43.5,9.12,2,2.75,1.54,5.51,3.03,8.16,4.75.44.28.87.58,1.31.87,3.16-.87,6.16-2.6,8.88-4.35,3.18-2.06,5.69-4.61,7.82-7.74,4.43-6.52,5.43-14.03,6.04-21.72.08-1.03.64-1.85,1.65-2.17,3.81-1.22,6.97-3.75,7.62-7.83.33-2.1.19-4.54-.89-6.41-.79-1.37-2.48-2.7-3.74-1.28ZM94.97,77.08c2.9,0,2.9,4.5,0,4.5s-2.9-4.5,0-4.5ZM82.09,61.94c-2.9,0-2.9-4.5,0-4.5s2.9,4.5,0,4.5ZM82.11,51.9c-1.94,1.3-4.53,2.52-6.92,2.25-1.26-.14-2.19-.92-2.25-2.25-.05-1.12,1.08-2.38,2.25-2.25.22.02.43.03.65.03.08,0,.15,0,.23-.01.42-.1.83-.18,1.24-.32.12-.04.23-.08.35-.13.1-.05.17-.08.18-.08.16-.07.32-.15.48-.23.48-.25.95-.52,1.41-.82.23-.15.45-.31.68-.47.01,0,.03-.03.05-.04.28-.25.12-.1,0,0-.03.03-.03.03-.07.06.1-.09.21-.17.32-.26.41-.34.79-.7,1.16-1.08.16-.17.32-.35.47-.53.23-.4.16-.21.04-.06.05-.06.09-.13.13-.19.13-.18.24-.38.35-.57.05-.09.1-.19.14-.28.03-.07.04-.08.04-.07.5-1.03,1.46-1.61,2.66-1.34,1.1.25,2,1.67,1.57,2.77-.97,2.5-2.96,4.4-5.16,5.87ZM103.58,95.36c-.54,1.02-2.11,1.48-3.08.81-.53-.37-1.07-.71-1.64-1.01-.24-.13-.49-.25-.75-.36-.07-.02-.35-.13-.38-.14-1.22-.43-1.73-.52-2.79-.53-1.19-.01-1.63.07-2.88.48-.94.31-2,.88-3.04,1.56-1.05.69-2.45.17-3.08-.81-.68-1.06-.18-2.43.81-3.08,2.43-1.59,5.26-2.69,8.2-2.66,2.82.03,5.53,1.07,7.83,2.66,1.04.72,1.41,1.93.81,3.08ZM107.77,61.94c-2.9,0-2.9-4.5,0-4.5s2.9,4.5,0,4.5ZM115.29,53.03c-.56,1.06-1.88,1.29-2.91.86.05.02.09.04.1.05-.04-.04-.18-.07-.23-.09-.15-.05-.29-.1-.44-.14-.37-.1-.74-.18-1.12-.24-.08-.01-.17-.03-.25-.04-.19-.02-.39-.04-.58-.06-.47-.04-.95-.07-1.42-.09-.97-.03-1.95,0-2.91.1-.03,0-.07,0-.12.01,0,0-.02,0-.03,0-.19.03-.39.07-.58.11-.37.08-.74.19-1.1.33-1.17.46-2.43-.51-2.77-1.57-.4-1.24.48-2.34,1.57-2.77.96-.38,2-.5,3.02-.61,1.01-.11,2.03-.13,3.05-.09,1.98.07,4.13.25,5.92,1.16,1.12.57,1.35,2.06.81,3.08Z"/>
      <path class="cls-1" d="M120.13,19.24c-1.21.18-2.41-.3-2.77-1.57-1.15-4.1-3.54-7.52-7.23-9.72-6.82-4.04-15.6-3.85-23.22-3.05-3.87.4-7.88.95-11.64,1.98-4.24,1.15-8.15,5.46-8.08,9.99.04,2.32-2.82,2.77-4,1.39-.6.86-.98,1.79-1.39,2.62.32-.1.63-.21.97-.28,2.83-.62,4.02,3.72,1.2,4.34-5.1,1.11-6.26,8.34-6.56,12.67-.18,2.63.15,5.17.41,7.79.37,3.71.71,7.41,1.15,11.11.72-.07,1.44-.02,2.14.17.17-.09.35-.16.56-.21,1.06-.24,1.48-.6,2.06-1.71.62-1.21.92-2.74,1.1-4.12.43-3.21.32-6.48.41-9.71.2-7.3,3.27-15.14,11.41-16.24,1.2-.16,2.42.27,2.77,1.57.03.1.04.22.05.33,2.33-.25,4.68-.64,7.04-1.03-.77-.8-1.54-1.6-2.33-2.38-.67-.67-1.35-1.33-2.06-1.96-.34-.31-.69-.61-1.04-.91-.21-.18-.43-.36-.65-.53-.04-.03-.07-.06-.09-.08-.02-.02-.06-.04-.11-.08-.75-.53-1.5-1.05-2.32-1.47-.16-.08-.33-.16-.5-.24-.03-.02-.05-.02-.07-.03-.03,0-.07-.02-.13-.04-.35-.11-.7-.19-1.05-.29-.01,0-.01,0-.02,0-.06,0-.11-.01-.17-.01-.14,0-.33.02-.47,0-.03,0-.04,0-.06,0-.03,0-.06.01-.1.02-.15.04-.3.09-.44.13,0,0,0,0-.01,0-.01,0-.01.01-.03.02-.12.1-.26.17-.4.25-.06.05-.2.17-.24.21-.06.06-.57.65-.28.27-.75.96-1.92,1.49-3.08.81-.95-.56-1.55-2.12-.81-3.08,6.62-8.57,15.95,2.61,20.81,7.42.36.36.56.76.63,1.15,1.94-.29,3.87-.53,5.78-.67-.8-1.37-1.6-2.74-2.47-4.06-.28-.42-.56-.84-.85-1.25-.13-.18-.25-.35-.38-.53,0,0-.14-.18-.21-.27-.56-.72-1.16-1.41-1.8-2.05-.32-.32-.65-.63-1-.93-.05-.04-.34-.27-.37-.31-.13-.1-.26-.19-.4-.29-.36-.25-.74-.48-1.13-.69-.17-.09-.35-.18-.52-.26-.04-.02-.24-.1-.32-.13-1.76-.64-3.06-.64-4.77-.21-2.81.71-4-3.63-1.2-4.34,4.64-1.17,9,.31,12.43,3.53,3.01,2.82,5.11,6.48,7.17,10.01.35.6.38,1.18.23,1.69,2.26.09,4.48.43,6.65,1.1-.22-.36-.36-.77-.38-1.2-.01-.25-.04-.51-.06-.76,0-.04,0-.05,0-.08,0-.03,0-.04-.02-.08-.07-.38-.14-.76-.24-1.13-.09-.38-.21-.75-.33-1.11-.07-.21-.15-.43-.23-.64-.02-.05-.04-.09-.06-.14,0-.02,0,0-.02-.04-.37-.72-.71-1.44-1.15-2.13-.18-.28-.38-.55-.57-.83-.06-.08-.22-.29-.26-.33-.12-.14-.24-.29-.37-.43-.5-.55-1.04-1.04-1.6-1.52-.06-.05-.14-.11-.17-.13-.17-.12-.34-.23-.51-.34-.31-.2-.63-.38-.97-.54-.06-.03-.23-.1-.29-.13-.08-.03-.16-.06-.24-.09-.3-.1-.61-.19-.92-.26-.1-.02-.21-.04-.31-.06.1.01.19.02.29.04-.09-.07-.43-.04-.54-.04-.34-.01-.67,0-1,.04-1.25.14-2.2-1.14-2.25-2.25-.06-1.31,1.08-2.12,2.25-2.25,3.6-.4,7.12,1.77,9.44,4.34,2.7,2.99,4.43,6.83,4.63,10.87.05,1.04-.72,1.85-1.65,2.14.84.38,1.66.82,2.47,1.33.25-1.14,1.27-2.14,2.73-1.76,5.99,1.55,9.11,7.26,9.86,13.05.42,3.22.26,6.54.37,9.78.09,2.71.2,5.42.46,8.12.48-.09.98-.11,1.47-.08.5-2.88.88-5.77,1.13-8.68.57-6.52.85-13.39-.61-19.82-1.04-4.57-3.32-9.52-8.57-8.73Z"/>
      <path class="cls-4" d="M174.98,152.79c-1.28-1.26-3.64-2.16-5.4-3.04-2.5-1.26-5.03-2.47-7.57-3.66-6.84-3.21-13.75-6.29-20.69-9.3.87,2.88,1.69,5.78,2.56,8.66,1.85.47,3.74.98,5.26,2.15,1.93,1.5,2.57,3.74,2.14,6.09-.36,1.99-1.41,3.85-2.18,5.71-.8,1.93-1.57,3.87-2.33,5.82-1.24,3.13-2.47,6.27-3.79,9.37h39.61c-.53-3.12-1.23-6.22-2.06-9.27-1.12-4.11-2.39-9.43-5.55-12.53Z"/>
      <path class="cls-4" d="M24.22,147.11c-2.5,1.2-4.98,2.42-7.44,3.69-1.76.91-3.47,1.6-4.68,3.09-2.99,3.67-4.41,8.82-5.68,13.29-.69,2.44-1.3,4.91-1.81,7.4h39.23c-1.27-3.23-2.28-6.56-3.34-9.87-.64-2-1.28-4.01-2.03-5.97-.7-1.84-1.68-3.6-1.93-5.58-.64-4.93,3.57-6.6,7.47-7.7.87-2.87,1.68-5.77,2.55-8.64-2.16.96-4.32,1.92-6.47,2.9-5.32,2.41-10.62,4.86-15.87,7.39Z"/>
      <path class="cls-5" d="M83.8,166.09c-2.6.68-5.27-.43-6.53-2.83-1.2-2.29-1.3-4.95-1.69-7.45-.44-2.83-1.43-6.18-.42-8.99.28-.77.71-1.38,1.22-1.92-.35-1.55-.39-3.29-.08-4.86-.47-.34-.94-.68-1.42-1.02-4.06-2.91-8.12-5.82-12.18-8.73.13,2.33.27,4.65.39,6.98.64,12.43,1.21,24.87,1.75,37.31h20.14c-.06-2.76.37-5.47,1.43-8.18.35-.9.69-1.79,1.02-2.69-.97,1.11-2.21,2.01-3.64,2.38Z"/>
      <path class="cls-1" d="M103.34,135.52c-2.95-.77-6-1.2-9-1.76-1.63-.31-3.27-.61-4.9-.92-1.38-.26-2.89-.73-4.31-.68-1.68.05-2.39,1.35-2.69,2.81.24,0,.49,0,.74,0,5.84.06,11.52,1.2,17.2,2.48,2.83.64,1.62,4.97-1.2,4.34-4.58-1.03-9.17-2.03-13.87-2.26-.59-.03-1.18-.05-1.76-.06-.54,0-1.37-.16-1.88,0-.26.09-.47.38-.67.55-.04.03-.06.05-.08.06,0,.02-.01.02-.02.05-.03.05-.03.06-.05.08,0,0,0,.02-.01.08-.21.74-.28,1.59-.23,2.41,3.23-.73,6.8-.41,10.02-.02,2.38.28,4.76.63,7.09,1.15,1.19.26,1.88,1.64,1.57,2.77-.33,1.21-1.58,1.83-2.77,1.57-.61-.14-1.22-.25-1.84-.37-.69-.13-1.39-.25-2.09-.35-.35-.05-.7-.11-1.06-.16-.06,0-.12-.02-.18-.02-.03,0-.07,0-.16-.02-.19-.02-.39-.05-.58-.07-1.63-.19-3.27-.33-4.91-.36-.8-.01-1.6,0-2.4.05-.32.02-.64.05-.96.09-.02.01-.66.11-.79.14-.37.08-.73.19-1.1.3-.07.02-.12.04-.16.04-.03.02-.06.04-.12.07-.22.13-.79.63-.33.16-.08.09-.21.15-.28.26-.03.04-.05.06-.06.07,0,.01,0,.02,0,.03-.06.21-.21.66-.23.99-.02.48,0,.96.03,1.44.09,1.22.33,2.43.53,3.63.35,2.17.44,4.49,1.18,6.57.03.08.04.1.05.14.06.12.12.24.19.36.05.08.1.16.16.25.02.01.11.1.18.18.03.01.13.07.22.13.03,0,.09.02.16.04.07,0,.3.03.37.02.06,0,.09,0,.12,0,.03-.01.06-.03.12-.05-.01,0,.39-.15.42-.15.43-.22.61-.46.99-.75.03-.03.05-.04.08-.06.02-.21.03-.5.03-.53.06-1.05.04-2.1-.02-3.15-.05-.9-.13-1.8-.24-2.69-.02-.15-.04-.3-.06-.46,0-.07-.02-.14-.03-.2-.2-1.32.56-2.97,2.17-2.85,1.86.14,3.72.28,5.59.43.21.02.42.06.62.13,1.18-.07,2.35.64,2.23,2.15-.36,4.44-1.42,8.6-3.1,12.72-.79,1.92-1.6,3.87-1.8,5.96-.07.76-.07,1.53-.04,2.29h14.72c.03-.37.04-.73.09-1.1.69-5.29,1.76-10.54,2.55-15.82.41-2.72.8-5.44,1.21-8.15.43-2.84,1.4-6.04,1.14-8.91-.27-3.03-3.21-4.39-5.82-5.07Z"/>
      <path class="cls-6" d="M107.77,57.44c-2.9,0-2.9,4.5,0,4.5s2.9-4.5,0-4.5Z"/>
      <path class="cls-6" d="M82.09,57.44c-2.9,0-2.9,4.5,0,4.5s2.9-4.5,0-4.5Z"/>
      <path class="cls-6" d="M85.69,43.26c-1.2-.27-2.16.31-2.66,1.34,0,0,0,0-.04.07-.05.09-.09.19-.14.28-.11.2-.22.39-.35.57-.04.06-.09.13-.13.19,0,0,0,.01-.02.02,0,0,0,0,0,0-.02.02-.04.05-.05.07.01-.02.01-.02.02-.04-.15.18-.31.36-.47.53-.36.38-.75.74-1.16,1.08-.1.09-.21.17-.32.26.04-.03.04-.04.07-.06-.02.01-.04.03-.05.04-.22.16-.45.32-.68.47-.45.3-.92.57-1.41.82-.15.08-.32.15-.48.23,0,0-.03.02-.12.06-.04.02-.08.03-.12.06.02-.01.04-.02.05-.03-.11.04-.23.09-.35.13-.41.14-.82.22-1.24.32-.08,0-.15.01-.23.01-.22,0-.43,0-.65-.03-1.17-.13-2.3,1.13-2.25,2.25.06,1.33.99,2.11,2.25,2.25,2.4.26,4.99-.96,6.92-2.25,2.2-1.47,4.19-3.36,5.16-5.87.43-1.1-.47-2.52-1.57-2.77Z"/>
      <path class="cls-6" d="M77.66,49.21s.03-.01.06-.02c.04-.02.08-.04.12-.06-.01,0-.09.03-.18.08h0Z"/>
      <path class="cls-6" d="M82.34,45.74s.01-.02.02-.03c.12-.16.18-.35-.04.06,0-.01.02-.02.03-.03Z"/>
      <path class="cls-6" d="M80.45,47.57c.12-.1.28-.25,0,0h0Z"/>
      <path class="cls-6" d="M114.48,49.96c-1.8-.91-3.94-1.09-5.92-1.16-1.02-.04-2.04-.02-3.05.09-1.01.11-2.06.24-3.02.61-1.09.43-1.97,1.53-1.57,2.77.34,1.06,1.6,2.03,2.77,1.57.36-.14.72-.24,1.1-.33.19-.04.39-.08.58-.11,0,0,.02,0,.03,0,.05,0,.1-.01.12-.01.97-.1,1.94-.13,2.91-.1.47.01.95.04,1.42.09.19.02.39.04.58.06.08.01.17.03.25.04.38.06.75.14,1.12.24.15.04.3.09.44.14.05.02.19.05.23.09,0,0-.05-.03-.1-.05,1.03.43,2.35.2,2.91-.86.54-1.02.31-2.51-.81-3.08Z"/>
      <path class="cls-6" d="M94.97,77.08c-2.9,0-2.9,4.5,0,4.5s2.9-4.5,0-4.5Z"/>
      <path class="cls-6" d="M179.57,151.3c-2.84-3.92-8.14-5.69-12.37-7.72-5.5-2.64-11.06-5.15-16.64-7.63-3.26-1.45-6.53-2.89-9.81-4.3-.42-.18-.83-.22-1.21-.18-.9-1.53-3.06-2.34-4.52-3.19-1.97-1.15-3.94-2.3-5.91-3.45,0-.21.02-.42-.01-.63-.68-4.06-1.35-8.13-2.03-12.19-.25-1.49-2.15-1.97-3.31-1.34-.09.05-.19.1-.29.15-.2-3.89-.56-7.77-.65-11.67,0-.31-.09-.62-.21-.9,2.38-5.45,3.25-11.37,3.79-17.39,2.15-.88,4.22-2.13,5.86-3.73,2.53-2.47,3.59-5.96,3.68-9.43.08-3.32-.84-7-3.36-9.31-.05-.04-.1-.07-.15-.12,1.24-6.9,1.93-13.98,1.77-21-.14-6.46-.74-14.66-5.55-19.55-2.08-2.12-4.72-2.98-7.52-2.98-3.09-8.32-10.61-12.93-19.35-14.21-4.78-.7-9.62-.65-14.42-.18-4.58.45-9.66.91-14.03,2.41-5.78,1.99-10.74,7.8-10.64,14.1,0,.58.21,1.04.5,1.39.5-.71,1.14-1.36,2.12-1.85-.98.49-1.62,1.15-2.12,1.85,1.18,1.38,4.03.92,4-1.39-.07-4.53,3.84-8.83,8.08-9.99,3.76-1.02,7.77-1.57,11.64-1.98,7.61-.79,16.4-.99,23.22,3.05,3.69,2.19,6.08,5.61,7.23,9.72.36,1.27,1.56,1.75,2.77,1.57,5.25-.79,7.53,4.17,8.57,8.73,1.47,6.43,1.19,13.3.61,19.82-.26,2.91-.63,5.81-1.13,8.68-.5-.03-.99-.01-1.47.08-.25-2.7-.37-5.41-.46-8.12-.1-3.24.05-6.56-.37-9.78-.75-5.78-3.86-11.49-9.86-13.05-1.46-.38-2.48.62-2.73,1.76.51.32,1.02.66,1.52,1.03-.5-.38-1.01-.71-1.52-1.03-.23,1.05.19,2.23,1.53,2.58,4.71,1.22,6.56,6.34,6.73,10.76.24,6.16.13,12.33.94,18.45.07.5.24.95.5,1.33.44,1.51,2.36,2.56,3.68,1.06,1.26-1.42,2.94-.09,3.74,1.28,1.08,1.87,1.22,4.31.89,6.41-.65,4.08-3.81,6.61-7.62,7.83-1.01.32-1.57,1.14-1.65,2.17-.61,7.69-1.61,15.2-6.04,21.72-2.13,3.13-4.64,5.69-7.82,7.74-2.71,1.75-5.72,3.49-8.88,4.35-.43-.29-.87-.59-1.31-.87-2.65-1.71-5.41-3.21-8.16-4.75-2.69-1.51-6-3.58-9.12-2-1.13.57-2,1.53-2.58,2.64-3.87-2.79-6.91-6.7-9.02-10.97-2.73-5.52-3.3-11.82-3.78-17.87-.08-1.03-.65-1.85-1.65-2.17-3.81-1.22-6.97-3.75-7.62-7.83-.32-2.04-.19-4.38.79-6.24.76-1.43,2.52-2.94,3.84-1.46,1.4,1.57,3.44.33,3.73-1.3,5.28-2.55,5.17-11.01,5.26-15.99.05-3.03-.06-5.78.76-8.44,1.17-3.82,3.34-6.25,7.41-6.8,1.09-.15,1.71-1.41,1.62-2.44-1.74.19-3.46.31-5.15.31,1.7,0,3.42-.12,5.15-.31-.01-.11-.02-.22-.05-.33-.34-1.3-1.57-1.73-2.77-1.57-8.13,1.1-11.2,8.94-11.41,16.24-.09,3.23.02,6.5-.41,9.71-.18,1.39-.48,2.92-1.1,4.12-.57,1.11-.99,1.47-2.06,1.71-.21.05-.4.12-.56.21-.7-.19-1.42-.24-2.14-.17-.44-3.7-.78-7.41-1.15-11.11-.26-2.61-.58-5.16-.41-7.79.29-4.33,1.45-11.56,6.56-12.67,2.83-.62,1.63-4.96-1.2-4.34-.34.07-.66.18-.97.28-.28.58-.58,1.11-.99,1.52.41-.41.71-.94.99-1.52-6.01,1.99-8.06,9.35-8.73,15.02-.32,2.71-.18,5.29.1,7.99.46,4.57.86,9.15,1.42,13.7.03.28.11.55.21.81-2.52,2.3-3.45,5.98-3.37,9.29.08,3.38,1.1,6.79,3.49,9.25,1.65,1.69,3.81,3,6.04,3.9.52,6.05,1.33,12.1,3.87,17.66-.06.2-.1.41-.11.63-.09,4.21-.14,8.43-.22,12.64-.4-.21-.82-.4-1.22-.61-1.62-.88-3.19.26-3.39,1.94-.42,3.64-.85,7.28-1.27,10.92-.03.28.02.56.12.81l-5.88,3.44c-1.46.85-3.6,1.66-4.51,3.18-.38-.04-.79,0-1.22.19-8.11,3.57-16.17,7.25-24.16,11.07-2.61,1.25-5.22,2.52-7.8,3.84-1.96,1-4.11,1.91-5.68,3.49-3.55,3.55-5.3,8.99-6.76,13.66-1.11,3.56-2.05,7.21-2.75,10.87h4.6c.51-2.49,1.12-4.96,1.81-7.4,1.27-4.47,2.69-9.62,5.68-13.29,1.21-1.48,2.92-2.18,4.68-3.09,2.46-1.27,4.95-2.49,7.44-3.69,5.26-2.53,10.56-4.98,15.87-7.39,2.15-.98,4.31-1.94,6.47-2.9-.87,2.88-1.68,5.77-2.55,8.64-3.9,1.1-8.11,2.77-7.47,7.7.26,1.98,1.23,3.73,1.93,5.58.74,1.97,1.39,3.97,2.03,5.97,1.05,3.31,2.07,6.64,3.34,9.87h4.79c-.03-.1-.06-.2-.1-.29-1.4-3.18-2.35-6.56-3.4-9.87-1.09-3.44-2.35-6.76-3.65-10.13-.67-1.73-.82-2.96,1.08-3.73,1.61-.65,3.39-.97,5.07-1.42,2.25-.6,4.49-1.2,6.74-1.8,2.8-.74,1.61-5.08-1.2-4.34-1.34.35-2.69.71-4.03,1.07,1.03-3.41,2.07-6.81,3.1-10.22,2-1.17,3.99-2.33,5.99-3.5.81,13.43,1.36,26.88,1.96,40.31.06,1.3.12,2.6.17,3.9h4.5c-.55-12.44-1.11-24.88-1.75-37.31-.12-2.33-.26-4.65-.39-6.98,4.06,2.91,8.12,5.82,12.18,8.73.47.34.94.68,1.42,1.02-.31,1.57-.27,3.3.08,4.86-.5.54-.94,1.15-1.22,1.92-1.01,2.81-.02,6.16.42,8.99.39,2.51.49,5.16,1.69,7.45,1.25,2.4,3.93,3.51,6.53,2.83,1.44-.38,2.68-1.27,3.64-2.38-.33.89-.67,1.78-1.02,2.69-1.06,2.71-1.49,5.42-1.43,8.18h4.44c-.03-.76-.04-1.53.04-2.29.2-2.08,1.01-4.04,1.8-5.96,1.69-4.12,2.75-8.28,3.1-12.72.12-1.51-1.05-2.22-2.23-2.15-.2-.06-.4-.11-.62-.13-1.86-.14-3.72-.28-5.59-.43-1.61-.12-2.37,1.53-2.17,2.85.01.07.02.14.03.2.02.15.04.3.06.46.1.89.19,1.79.24,2.69.06,1.05.09,2.1.02,3.15,0,.03-.02.32-.03.53-.03.02-.04.03-.08.06-.38.29-.56.53-.99.75-.03,0-.43.16-.42.15-.06.02-.09.04-.12.05-.03,0-.06,0-.12,0-.07,0-.31-.02-.37-.02-.07-.02-.13-.03-.16-.04-.09-.06-.19-.12-.22-.13-.07-.08-.16-.17-.18-.18-.05-.08-.11-.17-.16-.25-.07-.12-.13-.24-.19-.36-.01-.04-.02-.06-.05-.14-.75-2.09-.83-4.4-1.18-6.57-.2-1.21-.44-2.41-.53-3.63-.04-.48-.05-.96-.03-1.44.02-.33.17-.79.23-.99,0-.01,0-.02,0-.03.01,0,.03-.03.06-.07.07-.1.19-.17.28-.26-.46.48.11-.03.33-.16.06-.03.09-.05.12-.07.04,0,.09-.02.16-.04.36-.11.72-.22,1.1-.3.13-.03.77-.13.79-.14.32-.04.64-.07.96-.09.8-.05,1.6-.06,2.4-.05,1.64.03,3.28.17,4.91.36.19.02.39.05.58.07.08.01.13.02.16.02.06,0,.12.02.18.02.35.05.7.1,1.06.16.7.11,1.39.23,2.09.35.61.11,1.23.23,1.84.37,1.19.26,2.43-.36,2.77-1.57.31-1.13-.38-2.5-1.57-2.77-2.34-.52-4.72-.87-7.09-1.15-3.22-.38-6.79-.7-10.02.02-.04-.82.02-1.67.23-2.41.02-.06.02-.08.01-.08.01-.02.02-.03.05-.08.01-.02.01-.03.02-.05.02-.01.04-.03.08-.06.2-.17.41-.46.67-.55.51-.17,1.34-.01,1.88,0,.59,0,1.18.03,1.76.06,4.7.22,9.29,1.23,13.87,2.26,2.82.63,4.03-3.7,1.2-4.34-5.67-1.27-11.36-2.42-17.2-2.48-.25,0-.5,0-.74,0,.3-1.46,1.01-2.76,2.69-2.81,1.42-.04,2.93.43,4.31.68,1.63.31,3.27.61,4.9.92,2.99.56,6.05.99,9,1.76,2.6.68,5.54,2.04,5.82,5.07.26,2.88-.71,6.08-1.14,8.91-.41,2.72-.8,5.43-1.21,8.15-.79,5.28-1.86,10.53-2.55,15.82-.05.37-.06.74-.09,1.1h4.48c.11-1.03.27-2.06.45-3.08,1.08-6.21,2.02-12.44,2.95-18.68.49-3.33,1.14-6.65,1.52-9.99.1-.88.11-1.75.02-2.61.52-.03,1.04-.24,1.48-.63,3.36-2.92,6.73-5.83,10.09-8.75-.8,13.27-1.33,26.56-1.93,39.83-.06,1.3-.12,2.6-.17,3.9h4.5c.55-12.44,1.11-24.88,1.75-37.31.12-2.3.26-4.6.39-6.9,1.99,1.17,3.98,2.33,5.98,3.5,1.03,3.41,2.07,6.81,3.1,10.22-1.34-.36-2.68-.72-4.03-1.07-2.8-.74-4,3.6-1.2,4.34,2.29.61,4.59,1.22,6.88,1.84,1.67.45,3.49.74,5.08,1.44,1.95.86,1.47,2.36.76,4.05-2.71,6.51-5.14,13.16-8,19.61-.04.1-.07.19-.1.29h4.82c1.32-3.1,2.56-6.24,3.79-9.37.77-1.94,1.53-3.89,2.33-5.82.77-1.86,1.82-3.71,2.18-5.71.43-2.35-.21-4.59-2.14-6.09-1.52-1.17-3.41-1.68-5.26-2.15-.87-2.88-1.69-5.78-2.56-8.66,6.94,3.01,13.85,6.09,20.69,9.3,2.54,1.19,5.06,2.4,7.57,3.66,1.75.88,4.12,1.79,5.4,3.04,3.16,3.09,4.43,8.41,5.55,12.53.83,3.05,1.52,6.15,2.06,9.27h4.54c-.47-3.01-1.11-5.99-1.86-8.94-1.23-4.87-2.71-10.22-5.7-14.34ZM89.63,155.69c-.23,1.48-.56,2.92-.97,4.33.01-.5,0-1,0-1.46-.01-.98-.07-1.97-.16-2.95.38.03.76.06,1.14.09ZM84.08,160.9c0,.07-.01.11-.02.11-.06,0-.03-.05.02-.11ZM68.98,113.62c.05-2.69.1-5.38.14-8.06,2.39,3.05,5.29,5.69,8.6,7.63.91,2.51,3.23,4.01,5.34,5.44,1.51,1.02,3.01,2.05,4.52,3.05-2.1-.86-4.22-1.7-6.31-2.57-4.09-1.69-8.27-3.34-12.33-5.19.02-.1.03-.2.04-.31ZM94.28,129.19c-.98-.18-1.96-.37-2.94-.55-3.35-.63-7.31-1.93-10.33.33-2.1,1.57-2.94,4.12-3.19,6.65-4.13-2.96-8.26-5.92-12.39-8.88-.65-.47-1.31-.94-1.97-1.41-.2-.14-.42-.22-.64-.27.16-.31.27-.66.31-1.03.29-2.5.58-4.99.87-7.49,5.12,2.5,10.49,4.59,15.72,6.76,4.61,1.91,9.24,3.8,13.88,5.65.23.09.46.11.69.1,0,.04-.01.09-.01.13ZM104,131.07c-.63-.15-1.26-.29-1.9-.42-1.12-.22-2.24-.42-3.37-.63.07-2.15,1.02-4.23-.27-6.28-.73-1.15-1.91-1.76-3.05-2.43-1.29-.76-2.56-1.55-3.82-2.36-2.26-1.44-4.44-2.98-6.66-4.48-1.18-.8-3.46-2.05-3.05-3.78.65-2.74,3.95-.35,5.32.43,2.47,1.41,4.98,2.72,7.39,4.23,2.14,1.34,4.21,2.77,6.19,4.33.39.3.78.6,1.17.89,0,0,0,0,0,0,.02.02.04.04.07.07.15.14.3.28.44.42.09.09.14.13.18.16.01.03.03.07.07.13.13.23.27.45.4.68.02.04.08.17.11.25.05.14.11.28.15.42.12.36.21.72.29,1.09.51,2.3.45,4.85.33,7.28ZM106.67,119.23c-.07-.11-.12-.23-.19-.33-.72-1.02-1.6-1.73-2.6-2.46-.02-.01-.02-.02-.04-.03-.05-.04-.1-.07-.14-.11,2.38-1.01,4.66-2.35,6.75-3.7,3.25-2.1,5.86-4.64,8.17-7.66.18,2.73.38,5.46.45,8.19-4.1,2.1-8.26,4.1-12.4,6.11ZM113.52,135c-.43.37-.86.74-1.28,1.11-.39-.62-.86-1.2-1.44-1.74-.76-.7-1.59-1.26-2.48-1.73.07-.2.13-.42.14-.67.14-2.62.32-5.7-.2-8.53,5-2.43,10.02-4.84,14.95-7.42.51,3.08,1.03,6.15,1.54,9.23-3.74,3.24-7.49,6.49-11.23,9.73Z"/>
      <path class="cls-6" d="M98.4,8.69c-1.17.13-2.31.94-2.25,2.25.05,1.11,1,2.39,2.25,2.25.33-.04.66-.05,1-.04.11,0,.45-.03.54.04-.1-.01-.19-.02-.29-.04.1.02.21.04.31.06.31.07.62.15.92.26.08.03.16.06.24.09.06.03.22.1.29.13.33.16.65.35.97.54.17.11.34.22.51.34.04.03.11.08.17.13.57.47,1.11.97,1.6,1.52.13.14.25.28.37.43.04.05.2.26.26.33.2.27.39.54.57.83.44.68.79,1.4,1.15,2.13.02.03.01.03.02.04.02.05.04.09.06.14.08.21.16.42.23.64.12.37.24.74.33,1.11.09.37.16.75.24,1.13,0,.04.01.06.02.08,0,.02,0,.04,0,.08.02.25.04.51.06.76.02.42.16.84.38,1.2.83.26,1.66.57,2.47.94.93-.28,1.7-1.1,1.65-2.14-.2-4.04-1.93-7.88-4.63-10.87-2.33-2.57-5.84-4.75-9.44-4.34Z"/>
      <path class="cls-6" d="M110.22,26.15c.2,0,.4-.05.6-.11-.81-.37-1.64-.68-2.47-.94.4.64,1.06,1.09,1.87,1.05Z"/>
      <path class="cls-6" d="M94.31,12.3c-3.43-3.21-7.79-4.7-12.43-3.53-2.81.71-1.62,5.05,1.2,4.34,1.71-.43,3.01-.43,4.77.21.08.03.28.12.32.13.18.08.35.17.52.26.39.21.76.44,1.13.69.13.09.27.19.4.29.04.03.33.27.37.31.35.3.68.61,1,.93.64.65,1.24,1.34,1.8,2.05.07.09.2.27.21.27.13.17.26.35.38.53.29.41.58.83.85,1.25.87,1.32,1.67,2.69,2.47,4.06,1.48-.1,2.96-.14,4.41-.08.15-.51.12-1.09-.23-1.69-2.05-3.53-4.15-7.2-7.17-10.01Z"/>
      <path class="cls-6" d="M97.3,24.08c.1.17.2.33.29.5,1.11,1.91,3.62,1.05,4.12-.58-1.46-.06-2.93-.02-4.41.08Z"/>
      <path class="cls-6" d="M70.08,16.17c-.74.96-.15,2.52.81,3.08,1.16.68,2.33.16,3.08-.81-.29.38.22-.21.28-.27.04-.04.18-.15.24-.21.14-.08.28-.16.4-.25.01-.01.02-.02.03-.02,0,0,0,0,.01,0,.15-.04.3-.08.44-.13.03,0,.06-.01.1-.02.02,0,.03,0,.06,0,.14.02.32,0,.47,0,.06,0,.11,0,.17.01,0,0,.01,0,.02,0,.35.11.7.19,1.05.29.06.02.1.03.13.04.02.01.03.02.07.03.17.08.33.16.5.24.82.42,1.57.94,2.32,1.47.05.04.08.06.11.08.02.02.05.04.09.08.22.17.44.35.65.53.35.3.7.6,1.04.91.7.63,1.38,1.29,2.06,1.96.79.78,1.56,1.58,2.33,2.38,1.67-.28,3.34-.56,5-.81-.07-.4-.27-.79-.63-1.15-4.86-4.82-14.2-15.99-20.81-7.42Z"/>
      <path class="cls-6" d="M86.51,25.56c.4.41.79.82,1.19,1.22,1.7,1.68,4.15-.18,3.81-2.03-1.67.25-3.34.53-5,.81Z"/>
      <path class="cls-6" d="M102.78,92.28c-2.3-1.59-5.01-2.64-7.83-2.66-2.94-.03-5.77,1.07-8.2,2.66-.98.64-1.49,2.02-.81,3.08.63.98,2.03,1.5,3.08.81,1.04-.69,2.1-1.25,3.04-1.56,1.26-.42,1.69-.5,2.88-.48,1.06,0,1.57.1,2.79.53.03.01.31.12.38.14.25.11.5.23.75.36.57.3,1.11.64,1.64,1.01.97.67,2.54.21,3.08-.81.61-1.15.23-2.36-.81-3.08Z"/>
    </g>
  </g>
</svg>