<?xml version="1.0" encoding="UTF-8"?>
<svg id="_レイヤー_2" data-name="レイヤー 2" xmlns="http://www.w3.org/2000/svg" viewBox="0 0 185.89 171.74">
  <defs>
    <style>
      .cls-1 {
        fill: #fff;
      }

      .cls-2 {
        fill: #c8c8c8;
      }

      .cls-3 {
        fill: #78c8e6;
      }

      .cls-4 {
        fill: #323232;
      }
    </style>
  </defs>
  <g id="_レイヤー_1-2" data-name="レイヤー 1">
    <g>
      <path class="cls-3" d="M22.32,27.83c-.01-.11-.03-.16,0,0h0Z"/>
      <path class="cls-3" d="M77.76,52.04c.12-.05.24-.1.31-.15-.1.06-.21.11-.31.15Z"/>
      <path class="cls-1" d="M103.87,118.43c-7.7,2.62-16.15,1.55-23.31-2.15-3.43-1.77-6.57-4.13-9.3-6.9-.06,2.41-.23,4.81-.55,7.19,2.43.85,4.85,1.69,7.28,2.54,4.91,1.71,9.82,3.43,14.73,5.14.56.2,1.26.33,1.78.62.08.04.18.06.27.09-.91-.34-.06-.08.49-.08.34,0,.7-.02,1.04,0,.05-.02.1-.03.14-.05.54-.28,1.17-.45,1.74-.67,6.82-2.62,13.64-5.23,20.46-7.85-.3-2.46-.54-4.92-.74-7.39-3.83,4.25-8.59,7.66-14.03,9.51Z"/>
      <path class="cls-3" d="M113.1,52.74s.01,0,.02,0c.06,0,.12,0,.16,0-.02,0-.06,0-.09,0-.03,0-.06,0-.09,0Z"/>
      <path class="cls-1" d="M132.32,64.65c-.92-.99-2.45-1.22-3.09-.63-1.53,1.41-3.6.16-3.85-1.39-.49-.25-.88-.68-1.03-1.33-1.36-6.02-2.95-11.99-4.74-17.9-.62-2.04-1.26-4.07-1.96-6.09-.33-.97-.68-1.93-1.04-2.88-.21-.56-.66-1.31-.82-1.95,0-.01-.01-.03-.02-.04-.1-.09-.2-.19-.3-.28-.43-.39-.87-.78-1.3-1.17-.97-.87-1.94-1.75-2.91-2.62-.57-.52-1.21-1.12-1.8-1.49-1.62-1.03-3.77-1.63-5.68-1.74-3.91-.22-7.26,1.77-9.9,4.51-2.49,2.59-4.19,5.79-6.26,8.7-2.35,3.3-4.88,6.5-7.51,9.59-.03.04-.07.08-.1.12,2.33.33,4.65.7,6.96,1.1,1.24.21,1.82,1.68,1.57,2.77-.12.54-.57,1.07-1.03,1.34-.55.32-1.12.33-1.73.23-.38-.06-.75-.13-1.13-.19-1.62-.27-3.24-.53-4.86-.78-.42-.06-.84-.12-1.26-.18-.06,0-.11-.02-.17-.02-.11-.01-.22-.03-.32-.04-.25-.03-.5-.06-.75-.08-.02,0-.03,0-.05,0-.05,0-.08,0-.12,0-.23.01-.45,0-.67-.06-3.97,4.39-8.32,8.6-13.34,11.58-.94.56-2.14.3-2.84-.49-1.58-.65-3.33-.8-4.48.67-1.08,1.38-1.39,3.35-1.43,5.05-.11,4.9,2.91,10.91,8.13,11.84.7.12,1.45.87,1.57,1.57.54,3.05.95,6.16,1.77,9.15,1.52,5.49,4.52,10.52,8.49,14.58,6.85,7,16.89,11.12,26.64,8.52,10.65-2.84,18.63-12.64,21.44-23.01.7-2.6,1.1-5.27,1.72-7.89.24-1.03.69-1.66,1.62-2.2,1.52-.89,3.03-1.76,4.38-2.91,2.87-2.46,4.03-5.69,3.79-9.46-.1-1.56-.51-3.3-1.6-4.48ZM81.92,63.82c-2.9,0-2.9-4.5,0-4.5s2.9,4.5,0,4.5ZM95.28,78.29c2.9,0,2.9,4.5,0,4.5s-2.9-4.5,0-4.5ZM103.36,96.5c-.54,1.01-2.11,1.48-3.08.81-.46-.32-.93-.61-1.42-.86-.07-.03-.55-.23-.52-.23-.2-.07-.4-.15-.6-.21-.25-.07-.49-.14-.74-.19-.06-.01-.37-.06-.49-.08-.42-.04-.83-.07-1.25-.06-.22,0-.44.03-.65.04-.08,0-.12.01-.15.02-.06,0-.12.02-.18.03-.49.09-.98.21-1.46.37-.19.06-.37.13-.55.2-.04.02-.43.19-.49.23-.46.23-.91.5-1.34.78-1.05.69-2.45.17-3.08-.81-.68-1.06-.17-2.43.81-3.08,4.36-2.88,10.06-3.06,14.39-.02,1.03.72,1.42,1.93.81,3.08ZM109.53,63.82c-2.9,0-2.9-4.5,0-4.5s2.9,4.5,0,4.5ZM115.3,51.64c-.4.76-1.33,1.17-2.18,1.1-.01,0-.02,0-.04,0-.05,0-.1,0-.16,0-.27.02-.53.05-.79.08-.32.04-.64.08-.96.12,0,0,0,0,0,0-.02,0-.04,0-.05,0-.19.03-.38.05-.57.08-.77.11-1.54.22-2.32.34-.89.14-1.78.27-2.68.42-1.25.2-2.36-.31-2.77-1.57-.18-.54-.06-1.25.23-1.73.26-.44.82-.95,1.34-1.03.36-.06.71-.11,1.07-.17,1.51-.24,3.02-.47,4.53-.67.85-.12,1.7-.24,2.55-.32.67-.07,1.39-.1,1.99.28,1.06.68,1.4,1.96.81,3.08Z"/>
      <path class="cls-3" d="M112.22,52.45c.06.04.16.09.27.13-.09-.04-.18-.08-.27-.13Z"/>
      <path class="cls-1" d="M67.55,120.74c-.3-.07-.55-.2-.77-.37-.72,3.44-1.44,6.89-2.16,10.33.54.18,1.07.35,1.61.53,6.63,2.16,13.26,4.32,19.89,6.49.97-3.33,1.94-6.66,2.91-9.98-6.73-2.35-13.46-4.7-20.19-7.05-.42.13-.88.15-1.3.06Z"/>
      <path class="cls-2" d="M125.97,148.97c.35-.09.74-.1,1.18.03,2.69.79,5.37,1.59,8.06,2.39.53-4.14,1.06-8.29,1.59-12.43.03-.21.09-.39.15-.58-2.07-.96-4.14-1.9-6.22-2.83-1.95,4.34-3.43,8.85-4.76,13.42Z"/>
      <path class="cls-3" d="M97.9,129.06c-1.58.56-3.08.45-4.58.08-.75,2.57-1.5,5.14-2.25,7.71.05.09.1.19.14.28.9,2.15,1.79,4.3,2.69,6.44h3.76c.75-2.33,1.5-4.67,2.24-7,.08-.25.2-.47.34-.67-.78-2.27-1.56-4.53-2.34-6.8,0-.01,0-.03-.01-.04Z"/>
      <path class="cls-1" d="M111.69,123.78c-3.21,1.23-6.42,2.47-9.64,3.7.07.13.14.27.2.43,1.16,3.37,2.31,6.74,3.47,10.11.35-.13.71-.26,1.06-.39,6.47-2.35,12.93-4.7,19.4-7.05-1.26-3.63-2.52-7.27-3.77-10.9-3.57,1.37-7.15,2.74-10.72,4.11Z"/>
      <path class="cls-3" d="M113.08,52.74s.01,0,.02,0c-.13-.01-.25-.04-.38-.08.13.04.25.06.36.08Z"/>
      <path class="cls-3" d="M76.99,52.19s.09,0,.13,0c.02,0,.05,0,.07,0-.04,0-.08,0-.13,0-.02,0-.05,0-.08,0Z"/>
      <path class="cls-4" d="M129.32,26.05c-1.18-3.42-2.86-8.21-6.3-10.02-1.18-.62-2.5-.46-3.59-1.21-1.27-.87-2.49-1.85-3.72-2.77-1.36-1.02-2.32-2.41-3.78-3.35-2.04-1.31-4.3-2.15-6.63-2.77-10.32-2.72-21.22-1.44-29.93,4.92-4.28,3.13-7.91,7.21-10.95,11.53-3.31,4.69-6.29,9.84-7.25,15.58-.92,5.55.46,11.7,3.11,16.62.74,1.37,1.56,2.7,2.39,4.03,2.93-2.04,5.56-4.52,8.06-7.05,3.51-3.57,6.8-7.37,9.89-11.3,4.72-6.01,8.19-14.03,15.2-17.75,3.76-1.99,8.07-2.39,12.13-1.12,1.73.54,3.64,1.28,5.02,2.48.85.73,1.67,1.51,2.51,2.26,1.84,1.66,3.82,2.98,4.76,5.31,1.62,4.02,2.94,8.17,4.16,12.32,1.35,4.57,2.56,9.19,3.66,13.83.14-.07.29-.13.43-.2,1.79-.92,2.93-2.84,3.84-4.56,2.52-4.78,1.99-9.09.56-14.08-1.21-4.23-2.14-8.53-3.58-12.69Z"/>
      <path class="cls-3" d="M121.57,11c-.18-.09-.2-.03,0,0h0Z"/>
      <path class="cls-3" d="M77.25,52.19c.11-.01.22-.05.34-.08-.13.04-.26.07-.39.08.02,0,.03,0,.05,0Z"/>
      <path class="cls-1" d="M87.04,142.74c-1.06-.35-2.13-.69-3.19-1.04-6.64-2.17-13.28-4.33-19.91-6.5,4.83,12.03,8.24,24.6,13.3,36.54h7.33c1.32-8.59,2.98-17.28,5.58-25.56-.5-1.2-1-2.41-1.5-3.61-.48.26-1.05.35-1.6.17Z"/>
      <path class="cls-3" d="M94.28,148.07c-2.35,7.69-3.93,15.71-5.18,23.67h12.71c-1.67-7.84-1.94-15.96-4.25-23.67h-3.27Z"/>
      <path class="cls-2" d="M56.52,137.55c-.04.41-.07.82-.11,1.23-.38,4.35-.75,8.71-1.13,13.06,2.35-.72,4.69-1.42,7.08-2,2.82-.68,4.01,3.66,1.2,4.34-2.65.64-5.25,1.42-7.85,2.23-1.26.39-2.52.76-3.79,1.09-.83.22-1.68.4-2.51.63-.04.01-.12.04-.2.06.19.41.34.97.51,1.33.29.58.59,1.14.9,1.71.74,1.35,1.53,2.67,2.32,3.98,1.28,2.14,2.61,4.28,3.68,6.54h15.78c-4.76-11.76-8.13-24.04-12.98-35.76-.97.54-1.94,1.06-2.92,1.58Z"/>
      <path class="cls-2" d="M51.83,139.73c-1.69.67-3.41,1.28-5.08,1.93-3.95,1.55-7.91,3.07-11.86,4.62-3.65,1.42-7.29,2.85-10.91,4.33-2.78,1.13-5.62,2.22-8.13,3.9-5.89,3.97-9.23,10.55-11.19,17.24h46.92c-.99-1.79-2.08-3.53-3.12-5.28-.84-1.41-1.68-2.83-2.42-4.29-.82-1.6-1.87-3.48-1.38-5.33.54-2.01,2.41-2.77,4.24-3.22.63-.16,1.26-.32,1.89-.49-.05-.19-.08-.38-.06-.58.06-.66.11-1.32.17-1.98.31-3.62.62-7.23.93-10.85Z"/>
      <path class="cls-1" d="M102.75,142.43c-.38,1.17-.75,2.35-1.13,3.52,2.71,8.38,2.82,17.26,4.8,25.79h7.58c5.27-11.61,7.08-24.52,11.91-36.3-6.99,2.54-13.98,5.09-20.98,7.63-.82.3-1.63-.05-2.19-.64Z"/>
      <path class="cls-2" d="M138.51,157.06c-.84-.26-1.68-.5-2.52-.75-3.35-.99-6.69-1.98-10.04-2.97-.45-.13-.79-.37-1.04-.65-1.79,6.43-3.5,12.89-6.04,19.05h14.59c1.99-3.87,3.85-7.81,5.85-11.68.28-.54.6-1.08.74-1.67.03-.14.06-.54.08-.57-.03-.03-.12-.13-.16-.17-.4-.33-.98-.44-1.46-.59Z"/>
      <path class="cls-2" d="M173.45,157.92c-2.06-1.51-4.34-2.78-6.53-4.07-4.77-2.82-9.65-5.46-14.58-7.98-3.71-1.9-7.46-3.74-11.23-5.53-.5,3.89-1,7.78-1.49,11.68-.03.23-.1.44-.17.64,1.4.42,2.82.9,3.86,1.97,1.38,1.42,1.58,3.52.97,5.33-.92,2.71-2.55,5.3-3.82,7.86-.65,1.31-1.3,2.63-1.95,3.94h42.52c-1.21-3.11-2.23-6.3-3.87-9.23-.96-1.72-2.1-3.42-3.71-4.59Z"/>
      <path class="cls-3" d="M115.79,32.46s0,.02,0,.03c.15.39.49.29.11.06-.04-.02-.08-.06-.12-.1Z"/>
      <path class="cls-3" d="M115.78,32.45s0,0,.01,0c-.02-.09-.05-.18-.06-.27,0,.1.03.18.05.26Z"/>
      <path class="cls-4" d="M102.55,93.42c-4.34-3.03-10.03-2.85-14.39.02-.98.65-1.49,2.02-.81,3.08.63.98,2.03,1.5,3.08.81.43-.28.87-.55,1.34-.78.06-.03.45-.2.49-.23.18-.07.37-.14.55-.2.48-.16.96-.28,1.46-.37.06-.01.12-.02.18-.03.03,0,.07,0,.15-.02.22,0,.44-.03.65-.04.42,0,.83.02,1.25.06.12.02.43.07.49.08.25.05.5.12.74.19.2.06.4.13.6.21-.03,0,.45.2.52.23.5.25.97.54,1.42.86.97.68,2.54.21,3.08-.81.61-1.15.23-2.36-.81-3.08Z"/>
      <path class="cls-4" d="M77.12,52.19s.08,0,.12,0c-.02,0-.03,0-.05,0-.02,0-.05,0-.07,0Z"/>
      <path class="cls-4" d="M113.28,52.73s-.06,0-.08,0c-.03,0-.05,0-.08,0,.06,0,.12,0,.16,0Z"/>
      <path class="cls-4" d="M114.49,48.56c-.6-.38-1.32-.35-1.99-.28-.85.09-1.7.21-2.55.32-1.51.21-3.02.44-4.53.67-.36.06-.71.11-1.07.17-.52.08-1.09.6-1.34,1.03-.28.48-.4,1.19-.23,1.73.41,1.26,1.52,1.77,2.77,1.57.89-.14,1.78-.28,2.68-.42.77-.12,1.54-.23,2.32-.34.19-.03.38-.05.57-.08.02,0,.04,0,.05,0,0,0,0,0,0,0,.32-.04.64-.08.96-.12.26-.03.53-.06.79-.08.05,0,.1,0,.16,0-.11-.01-.23-.04-.36-.08.12.04.25.06.38.08.03,0,.06,0,.09,0,0,0,0,0,0,0,.83.04,1.71-.36,2.1-1.09.59-1.12.25-2.4-.81-3.08ZM112.22,52.45c.06.04.16.09.27.13-.11-.04-.21-.09-.27-.13Z"/>
      <path class="cls-4" d="M113.08,52.74s.02,0,.04,0c0,0-.01,0-.02,0,0,0-.01,0-.02,0Z"/>
      <path class="cls-4" d="M109.53,59.32c-2.9,0-2.9,4.5,0,4.5s2.9-4.5,0-4.5Z"/>
      <path class="cls-4" d="M95.28,78.29c-2.9,0-2.9,4.5,0,4.5s2.9-4.5,0-4.5Z"/>
      <path class="cls-4" d="M81.92,59.32c-2.9,0-2.9,4.5,0,4.5s2.9-4.5,0-4.5Z"/>
      <path class="cls-4" d="M178,155.97c-1.64-1.74-3.78-2.94-5.79-4.19-9.3-5.76-19.1-10.72-28.98-15.41-3.95-1.88-7.93-3.7-11.93-5.46-.1-.04-.2-.07-.3-.1-.02-.07-.03-.15-.05-.22-1.67-4.81-3.33-9.62-5-14.44-.37-1.06-1.57-2.03-2.77-1.57-.07.03-.15.06-.22.08-.38-3.36-.68-6.72-.88-10.09-.02-.3-.09-.59-.21-.86.29-.45.59-.89.86-1.35,3.15-5.4,4.44-11.19,5.69-17.19,2.43-1.3,4.82-3.01,6.61-5.06,2.28-2.62,3.27-5.99,3.41-9.43.13-3.34-.69-7.11-3.21-9.48-.69-.64-1.47-1.13-2.3-1.47,1.49-1.42,2.65-3.3,3.52-5.05,1.32-2.64,2.24-5.49,2.31-8.46.07-2.95-.72-5.86-1.52-8.67-1.15-4.01-2.04-8.09-3.37-12.06-1.36-4.08-3.08-8.51-6.24-11.56-1.39-1.34-3.1-2.4-5.01-2.77-.25-.05-.58-.1-.82-.12-.04-.04-.07-.08-.09-.09-.64-.58-1.42-1.06-2.11-1.57-.56-.42-1.27-.82-1.77-1.32-.32-.33-1.01-1.24-1.7-1.82-1.97-1.65-4.24-2.8-6.63-3.7-10.64-3.98-23.66-3.37-33.46,2.47-4.96,2.96-9.23,7.02-12.81,11.52-3.92,4.92-7.48,10.36-9.43,16.38-2.11,6.51-1.63,13.36.79,19.72.77,2.02,1.73,3.89,2.76,5.72-1.36.11-2.68.57-3.87,1.56-2.34,1.94-3.27,5.03-3.53,7.95-.6,6.64,3.33,14.85,10.02,16.94.9,5.11,1.85,10.05,4.23,14.77.77,1.53,1.67,2.99,2.64,4.41-.02.11-.03.23-.03.35.03,1.66,0,3.33-.05,4.99-.05,1.51-.12,3.02-.24,4.53-.03.4-.08.8-.12,1.21-.2-.07-.39-.14-.59-.21-1.1-.38-2.53.44-2.77,1.57-.97,4.66-1.95,9.33-2.92,13.99-.38.12-.74.35-1.04.65-2.05,1.14-4.1,2.29-6.19,3.34-4.26,2.13-10.14,4.02-15.01,5.91-5.5,2.14-11.02,4.26-16.47,6.52-4.62,1.91-8.9,3.96-12.4,7.65-4.54,4.79-7.29,10.93-8.99,17.25h4.66c1.97-6.69,5.3-13.27,11.19-17.24,2.5-1.68,5.35-2.77,8.13-3.9,3.62-1.48,7.27-2.9,10.91-4.33,3.95-1.54,7.91-3.07,11.86-4.62,1.67-.65,3.39-1.26,5.08-1.93-.31,3.62-.62,7.23-.93,10.85-.06.66-.11,1.32-.17,1.98-.02.2.01.39.06.58-.63.17-1.25.33-1.89.49-1.83.45-3.7,1.21-4.24,3.22-.5,1.85.56,3.73,1.38,5.33.75,1.46,1.58,2.88,2.42,4.29,1.04,1.75,2.13,3.49,3.12,5.28h5.06c-1.08-2.26-2.4-4.4-3.68-6.54-.79-1.32-1.58-2.64-2.32-3.98-.31-.56-.61-1.13-.9-1.71-.18-.36-.32-.91-.51-1.33.08-.03.16-.05.2-.06.83-.23,1.68-.41,2.51-.63,1.27-.33,2.54-.7,3.79-1.09,2.6-.81,5.2-1.59,7.85-2.23,2.81-.68,1.62-5.02-1.2-4.34-2.39.58-4.74,1.29-7.08,2,.38-4.35.75-8.71,1.13-13.06.04-.41.07-.82.11-1.23.98-.52,1.95-1.04,2.92-1.58,4.85,11.72,8.22,24.01,12.98,35.76h4.82c-5.06-11.94-8.47-24.51-13.3-36.54,6.64,2.17,13.28,4.33,19.91,6.5,1.06.35,2.13.69,3.19,1.04.55.18,1.11.08,1.6-.17.5,1.2,1,2.41,1.5,3.61-2.59,8.28-4.26,16.97-5.58,25.56h4.52c1.25-7.96,2.83-15.98,5.18-23.67h3.27c2.31,7.71,2.59,15.83,4.25,23.67h4.62c-1.98-8.52-2.09-17.41-4.8-25.79.38-1.17.75-2.35,1.13-3.52.55.59,1.37.94,2.19.64,6.99-2.54,13.98-5.09,20.98-7.63-4.83,11.78-6.64,24.7-11.91,36.3h4.87c2.54-6.16,4.24-12.62,6.04-19.05.25.28.59.52,1.04.65,3.35.99,6.69,1.98,10.04,2.97.84.25,1.68.49,2.52.75.48.15,1.06.26,1.46.59.04.04.13.14.16.17-.02.03-.05.43-.08.57-.14.6-.46,1.14-.74,1.67-2,3.87-3.86,7.8-5.85,11.68h5.04c.65-1.31,1.3-2.63,1.95-3.94,1.26-2.56,2.9-5.15,3.82-7.86.62-1.81.42-3.91-.97-5.33-1.04-1.07-2.46-1.55-3.86-1.97.07-.21.14-.41.17-.64.5-3.89.99-7.78,1.49-11.68,3.77,1.79,7.51,3.63,11.23,5.53,4.93,2.53,9.81,5.16,14.58,7.98,2.19,1.3,4.47,2.57,6.53,4.07,1.61,1.18,2.75,2.87,3.71,4.59,1.64,2.93,2.65,6.12,3.87,9.23h4.86c-1.49-3.35-2.52-6.91-4.16-10.2-1-2-2.2-3.94-3.73-5.57ZM121.57,11c-.1-.02-.14-.04-.14-.05,0,0,.04.03.14.05ZM57.17,37.95c.96-5.74,3.94-10.88,7.25-15.58,3.04-4.32,6.67-8.41,10.95-11.53,8.71-6.36,19.61-7.64,29.93-4.92,2.33.61,4.6,1.46,6.63,2.77,1.46.94,2.42,2.33,3.78,3.35,1.23.93,2.45,1.9,3.72,2.77,1.09.75,2.41.59,3.59,1.21,3.44,1.81,5.11,6.6,6.3,10.02,1.44,4.16,2.37,8.46,3.58,12.69,1.44,5,1.96,9.31-.56,14.08-.91,1.73-2.06,3.64-3.84,4.56-.14.07-.29.13-.43.2-1.1-4.64-2.32-9.26-3.66-13.83-1.22-4.16-2.54-8.3-4.16-12.32-.94-2.32-2.92-3.65-4.76-5.31-.84-.75-1.66-1.53-2.51-2.26-1.39-1.19-3.29-1.93-5.02-2.48-4.06-1.28-8.38-.88-12.13,1.12-7.01,3.72-10.49,11.74-15.2,17.75-3.09,3.94-6.37,7.74-9.89,11.3-2.49,2.53-5.13,5.01-8.06,7.05-.83-1.33-1.65-2.66-2.39-4.03-2.65-4.92-4.04-11.07-3.11-16.62ZM78.07,51.9c-.07.05-.19.1-.31.15.12-.05.24-.1.31-.15ZM65.85,91.5c-.83-2.99-1.24-6.1-1.77-9.15-.12-.7-.87-1.45-1.57-1.57-5.22-.93-8.24-6.94-8.13-11.84.04-1.7.35-3.66,1.43-5.05,1.14-1.47,2.9-1.31,4.48-.67.69.79,1.9,1.04,2.84.49,5.02-2.98,9.37-7.19,13.34-11.58.2.05.4.06.6.05,0,0,.01,0,.02,0,.04,0,.08,0,.13,0,.13-.01.26-.04.39-.08-.11.04-.23.07-.34.08.02,0,.03,0,.05,0,.25.02.5.05.75.08.11.01.22.03.32.04.06,0,.11.02.17.02.42.06.84.12,1.26.18,1.62.24,3.24.51,4.86.78.38.06.75.13,1.13.19.61.1,1.18.1,1.73-.23.47-.27.91-.81,1.03-1.34.25-1.09-.33-2.56-1.57-2.77-2.31-.39-4.64-.77-6.96-1.1.03-.04.07-.08.1-.12,2.63-3.09,5.15-6.28,7.51-9.59,2.07-2.91,3.77-6.11,6.26-8.7,2.64-2.74,5.99-4.73,9.9-4.51,1.91.11,4.06.72,5.68,1.74.59.37,1.23.97,1.8,1.49.97.87,1.94,1.75,2.91,2.62.43.39.87.78,1.3,1.17.09.08.19.19.3.28-.02-.07-.04-.15-.05-.26,0,.08.04.18.06.27.04.03.08.07.12.1.38.23.05.33-.11-.06.15.64.6,1.39.82,1.95.36.96.7,1.92,1.04,2.88.7,2.02,1.34,4.05,1.96,6.09,1.78,5.9,3.37,11.88,4.74,17.9.15.65.54,1.08,1.03,1.33.25,1.54,2.32,2.8,3.85,1.39.65-.59,2.18-.36,3.09.63,1.09,1.18,1.5,2.92,1.6,4.48.25,3.76-.92,7-3.79,9.46-1.34,1.15-2.86,2.02-4.38,2.91-.93.55-1.38,1.17-1.62,2.2-.62,2.62-1.01,5.29-1.72,7.89-2.81,10.37-10.79,20.17-21.44,23.01-9.75,2.6-19.78-1.52-26.64-8.52-3.98-4.06-6.98-9.09-8.49-14.58ZM86.13,137.71c-6.63-2.16-13.26-4.32-19.89-6.49-.54-.18-1.08-.35-1.61-.53.72-3.44,1.44-6.89,2.16-10.33.22.17.47.3.77.37.42.09.87.07,1.3-.06,6.73,2.35,13.46,4.7,20.19,7.05-.97,3.33-1.94,6.66-2.91,9.98ZM99.9,136.57c-.75,2.33-1.5,4.67-2.24,7h-3.76c-.9-2.15-1.79-4.3-2.69-6.44-.04-.1-.09-.19-.14-.28.75-2.57,1.5-5.14,2.25-7.71,1.49.37,3,.48,4.58-.08,0,.02,0,.03.01.04.78,2.27,1.56,4.53,2.34,6.8-.14.2-.26.42-.34.67ZM98.18,124.16c-.57.22-1.2.39-1.74.67-.04.02-.09.04-.14.05-.34-.02-.7,0-1.04,0-.54,0-1.4-.26-.49.08-.08-.03-.19-.05-.27-.09-.52-.29-1.22-.43-1.78-.62-4.91-1.71-9.82-3.43-14.73-5.14-2.43-.85-4.85-1.69-7.28-2.54.32-2.38.49-4.78.55-7.19,2.73,2.77,5.87,5.13,9.3,6.9,7.16,3.7,15.6,4.77,23.31,2.15,5.44-1.85,10.19-5.26,14.03-9.51.2,2.47.44,4.93.74,7.39-6.82,2.62-13.64,5.23-20.46,7.85ZM106.78,137.62c-.35.13-.71.26-1.06.39-1.16-3.37-2.31-6.74-3.47-10.11-.05-.16-.12-.3-.2-.43,3.21-1.23,6.42-2.47,9.64-3.7,3.57-1.37,7.15-2.74,10.72-4.11,1.26,3.63,2.52,7.27,3.77,10.9-6.47,2.35-12.93,4.7-19.4,7.05ZM136.79,138.95c-.53,4.14-1.06,8.29-1.59,12.43-2.69-.8-5.37-1.59-8.06-2.39-.44-.13-.83-.12-1.18-.03,1.33-4.57,2.81-9.08,4.76-13.42,2.08.93,4.15,1.87,6.22,2.83-.06.19-.12.37-.15.58Z"/>
      <path class="cls-4" d="M76.99,52.19s.09,0,.13,0c-.02,0-.05,0-.07,0-.02,0-.04,0-.06,0Z"/>
      <path class="cls-4" d="M115.78,32.45s.01.03.02.04c0-.01,0-.02,0-.03,0,0,0,0-.01,0Z"/>
      <path class="cls-4" d="M34.34,43.7c.68.09.2.03.04,0-.17-.04-.34-.07-.51-.12-.33-.09-.66-.2-.98-.32-.07-.02-.23-.09-.29-.12-.09-.04-.18-.08-.27-.12-.33-.15-.65-.32-.97-.49-.71-.39-1.39-.81-2.06-1.26-.36-.25-.72-.5-1.07-.76-.05-.04-.26-.2-.3-.23-.13-.1-.25-.2-.38-.3-1.29-1.05-2.51-2.19-3.63-3.41-.25-.27-.49-.55-.73-.83-.11-.14-.22-.27-.34-.41-.02-.02-.02-.02-.03-.04-.01-.02-.02-.02-.03-.05-.39-.54-.76-1.08-1.07-1.66-.58-1.07-2.05-1.41-3.08-.81-1.08.63-1.39,2.01-.81,3.08,1.61,2.96,4.24,5.49,6.86,7.57,2.82,2.24,5.98,4.33,9.63,4.79,1.17.15,2.3-1.14,2.25-2.25-.06-1.34-.99-2.09-2.25-2.25Z"/>
      <path class="cls-4" d="M20.52,20.51c-3.9-.64-7.85,2.23-8.71,5.99-3.6.51-6.78,3.55-6.79,7.38-.01,4.8,4.9,8.37,9.45,7.34,1.19-.27,1.88-1.64,1.57-2.77-.34-1.22-1.58-1.84-2.77-1.57-.06.01-.14.03-.17.04-.16.01-.31.02-.47.01-.03,0-.18-.01-.26-.02-.08-.02-.23-.05-.26-.06-.48-.14-.92-.32-1.34-.64-.04-.04-.21-.19-.23-.21-.14-.13-.27-.27-.4-.41.17.19-.23-.35-.3-.47-.06-.1-.11-.21-.16-.31,0-.04-.08-.25-.09-.29,0-.02-.04-.16-.06-.25,0-.1-.03-.39-.03-.39,0-.12,0-.25.02-.37.01-.04.03-.1.05-.16.01-.03.1-.29.12-.38.04-.07.1-.21.11-.23.28-.49.43-.71.95-1.13,0,0,.21-.14.27-.18.13-.08.26-.16.4-.23.02-.01.17-.08.24-.11.09-.03.35-.11.38-.12.13-.03.26-.06.39-.09.04,0,.08,0,.13,0,.18,0,.36,0,.55.01.04.01.1.03.2.05,1.27.3,3.03-.65,2.85-2.17-.14-1.18.15-2.05.93-2.85.11-.11.23-.23.35-.33.04-.03.06-.05.07-.07.04-.02.08-.05.14-.09.13-.09.27-.16.41-.24.04-.02.14-.07.17-.09.13-.05.26-.09.39-.13,0,0,.32-.06.41-.09.1.01.58.04.57.01.24.05.48.11.7.2.02.03.49.29.59.36.02.02.02,0,.03.02.01.01,0,.01.04.04.14.13.27.25.4.39.08.09.17.18.24.28.02.04.07.1.09.15.41.75.43.67.59,1.5,0,.02,0,.05,0,.07,0,.15,0,.3,0,.44,0,.08,0,.1.01.12,0,0,0,0-.02.05-.04.18-.08.36-.14.54-.82,2.78,3.52,3.97,4.34,1.2,1.23-4.15-1.67-9.04-6.01-9.75ZM22.3,27.73s0,.02.02.1c-.02-.08-.02-.11-.02-.1Z"/>
    </g>
  </g>
</svg>