<?xml version="1.0" encoding="UTF-8"?>
<svg id="_レイヤー_2" data-name="レイヤー 2" xmlns="http://www.w3.org/2000/svg" viewBox="0 0 186.86 175.18">
  <defs>
    <style>
      .cls-1 {
        fill: #fff;
      }

      .cls-2 {
        fill: #c8c8c8;
      }

      .cls-3 {
        fill: #78c8e6;
      }

      .cls-4 {
        fill: #ebebeb;
      }

      .cls-5 {
        fill: #323232;
      }
    </style>
  </defs>
  <g id="_レイヤー_1-2" data-name="レイヤー 1">
    <g>
      <path class="cls-3" d="M104.47,162.34c-.01-.07-.09-.63-.11-.78-.06-.35-.12-.69-.18-1.04-.71-3.84-1.88-7.6-3.4-11.2-1.92-.02-3.85-.05-5.77-.07-1.42,3.02-2.36,6.66-2.99,10.11-.14.75-.26,1.51-.37,2.27-.02.13-.04.26-.05.38,0,.03,0,.05-.01.1-.03.26-.06.52-.09.78-.05.4-.08.8-.12,1.21.12.12.23.24.35.36,2.09,2.02,4.25,4.03,6.64,5.7,2.19-1.82,4.28-3.78,6.3-5.78-.01-.25-.02-.49-.04-.74-.04-.44-.09-.87-.14-1.3Z"/>
      <path class="cls-1" d="M107.54,145.13c-.68.27-1.41.04-1.96-.41-.29.81-.58,1.63-.86,2.45,1.67,3.92,3.02,7.96,3.8,12.16.06.31.11.62.16.93,7.48-7.74,14.59-15.87,21.45-24.16-.53.21-1.07.43-1.6.64-7,2.8-13.99,5.6-20.99,8.4Z"/>
      <path class="cls-1" d="M88.18,145.14c-1.1-.5-2.2-1-3.3-1.49-6.33-2.86-12.66-5.72-18.99-8.59.05.07.11.14.16.2,5.23,6.54,10.59,12.99,16.19,19.23,1.67,1.86,3.36,3.69,5.09,5.5.64-4.39,1.82-8.75,3.66-12.73-.23-.69-.46-1.39-.69-2.08-.63.28-1.39.28-2.11-.05Z"/>
      <path class="cls-1" d="M65.72,126.28c-.32.95-.58,2.2-1,3.33.9.41,1.8.82,2.7,1.22,6.84,3.09,13.67,6.18,20.51,9.27,1.21-3.84,2.43-7.69,3.64-11.53-7.99-2.66-15.97-5.32-23.96-7.98-.63,1.89-1.26,3.78-1.89,5.68Z"/>
      <path class="cls-1" d="M121.96,116.28c-.15-1.35-.3-2.71-.45-4.06-4.21,4.05-9.89,6.77-15.38,8.18-7.55,1.93-15.38,1.41-22.57-1.58-4.42-1.84-8.64-3.9-12.11-6.91-.07,1.72-.14,3.44-.21,5.17,2.8.93,5.6,1.86,8.4,2.8,5.24,1.75,10.49,3.49,15.73,5.24.56.19,1.22.32,1.75.58.02,0,.04.01.06.02.04,0,.05,0,.1,0,.38-.03.78,0,1.16,0h.58c.07-.02.14-.04.2-.07.64-.27,1.33-.46,1.98-.69,6.97-2.42,13.95-4.83,20.92-7.25,0-.05-.02-.1-.02-.15-.05-.42-.09-.85-.14-1.27Z"/>
      <path class="cls-1" d="M132.77,63.48c-.54.06-1.08.24-1.6.41-.05.01-.07.02-.1.03-.01.01-.02.03-.03.04-.28.34-.56.68-.84,1.02-1.73,2.09-3.46,4.18-5.19,6.27,0,.01,0,.02,0,.03,0,.2-.01.38-.05.55-.48,4.69-5.4,7.24-9.65,7.84-4.35.61-9.79-.23-12.84-3.71-1.01-1.15-1.57-2.45-1.76-3.77-.33-.08-.67-.15-1-.21-.03,0-.05,0-.07-.01-.17-.02-.34-.04-.51-.05-.33-.02-.66-.04-1-.04-.66,0-1.32.05-1.98.13-.13.02-.26.04-.39.06-.61,4.54-5.44,7.02-9.63,7.61-4.35.61-9.79-.23-12.84-3.71-1.31-1.49-1.88-3.25-1.8-4.97-.32-.11-.63-.28-.88-.5-.32-.29-.64-.57-.96-.86-2.09-1.86-4.19-3.73-6.28-5.59-.59.32-1.32.36-2.07-.12-2.08-1.34-4.24-.36-5.24,1.74-.98,2.07-.98,4.66-.57,6.87.83,4.51,4.01,7.45,8.31,8.86.68.22,1.46.8,1.57,1.57,1.5,10.08,2.06,21.88,11.77,27.79,8.15,4.96,17.48,7.69,26.95,5.51,4.92-1.13,9.67-3.34,13.53-6.62,3.89-3.3,5.75-7.86,6.99-12.7,1.07-4.21,1.6-8.54,2.63-12.75.33-1.33,1.2-1.75,2.3-2.36,1.61-.9,3.35-1.83,4.65-3.15,3.24-3.27,4.77-9.42,2.15-13.49-.82-1.28-2.07-1.87-3.58-1.71ZM98.63,77.17c2.9,0,2.9,4.5,0,4.5s-2.9-4.5,0-4.5ZM79.68,103.02c-1.1-.58-1.37-2.04-.81-3.08,2.1-3.88,4.25-7.79,6.76-11.43.71-1.04,1.93-1.41,3.08-.81,1.02.54,1.48,2.11.81,3.08-2.5,3.64-4.65,7.55-6.76,11.43-.6,1.1-2.03,1.36-3.08.81ZM105.88,99.45c-.88.96-2.27.74-3.18,0,0,0,0,0-.01-.01-.11-.08-.22-.15-.33-.22-.23-.15-.47-.29-.71-.42-.05-.03-.5-.24-.53-.26-.17-.07-.33-.13-.5-.19-.53-.18-1.08-.31-1.63-.4-.11,0-.38-.04-.39-.04-.3-.02-.59-.03-.89-.02-.28,0-.57.02-.85.05-.06,0-.23.03-.32.04-.53.09-1.05.21-1.56.38-.06.02-.4.15-.51.18-.1.05-.42.21-.47.23-.24.13-.47.27-.7.42-.07.04-.13.09-.2.14,0,0-.05.05-.14.12-.95.82-2.23.87-3.18,0-.85-.78-.89-2.41,0-3.18,4.53-3.91,11.55-3.72,16.12,0,.97.79.76,2.36,0,3.18ZM115.18,102.41c-.94.6-2.61.28-3.08-.81-1.06-2.44-2.49-4.7-4.03-6.86-.31-.44-.63-.87-.96-1.31-.07-.09-.14-.18-.21-.27,0-.01-.03-.04-.05-.06-.08-.1-.22-.28-.26-.33-.23-.29-.46-.58-.7-.86-.81-.96-.88-2.22,0-3.18.77-.84,2.42-.9,3.18,0,2.7,3.19,5.23,6.77,6.91,10.61.5,1.16.32,2.35-.81,3.08Z"/>
      <path class="cls-3" d="M46.91,158.59s0,0,0,.01c0,0,0,0,0-.01,0,0,0,0,0,0Z"/>
      <path class="cls-1" d="M120.46,70.82c-.01-.05-.03-.11-.04-.16-.02-.06-.03-.1-.03-.13-.01-.02-.03-.06-.06-.11-.07-.13-.14-.25-.22-.37-.04-.07-.07-.11-.09-.15-.02-.03-.05-.06-.1-.11-.1-.12-.21-.23-.32-.34-.29-.29-.49-.44-.68-.57-1.35-.9-2.86-1.41-4.52-1.61-2.92-.35-6.5.26-8.43,2.17-.15.15-.29.3-.42.47-.02.03-.04.06-.08.12-.07.11-.26.52-.27.51-.04.15-.1.4-.12.45-.02.19-.02.38,0,.57.03-.03.18.51.14.49.11.23.23.45.38.65-.16-.23.27.3.38.41.06.06.62.54.47.42,2.44,1.83,6.06,2.22,9.05,1.56,1.37-.3,2.89-.91,3.76-1.66.26-.23.52-.48.74-.74.01-.02,0,0,.02-.02,0-.01,0-.01.03-.06.08-.12.15-.24.22-.37.22-.38.24-.51.25-.96,0-.05-.01-.13-.02-.21-.02-.09-.03-.17-.04-.26Z"/>
      <path class="cls-3" d="M97.07,125.71c-.11,0-.13,0,0,0h0Z"/>
      <path class="cls-1" d="M124.94,58.81c-2.25-4.42-4-9.23-4.9-14.11-.51-2.81-.61-5.55-.43-8.39.08-1.24.19-2.48.22-3.72.01-.57.18-1.85-.2-2.36-.35-.47-2.01-.71-2.62-.89-1.35-.39-2.73-.7-4.11-.97-2.56-.49-5.15-.77-7.75-.92-2.64-.16-5.31-.22-7.96-.05-6.16,1.01-12.51,1.85-18.48-.18-3.9,1.29-5.46,4.65-5.82,8.57-.4,4.35.28,8.53-1.47,12.69-1.28,3.04-3.88,5.56-4.78,8.74-.27.97-.42,2.11-.98,2.87.1.06.19.13.28.21.32.29.64.57.97.86,2.09,1.86,4.19,3.73,6.28,5.59.31-.37.66-.72,1.06-1.04,3.65-2.98,8.92-3.6,13.41-2.55,2.73.64,5.56,2.17,7.07,4.53,1.13-.18,2.27-.32,3.41-.32,1.17,0,2.35.15,3.5.41.45-.75,1.03-1.46,1.78-2.07,3.65-2.98,8.92-3.6,13.41-2.55,2.28.53,4.62,1.69,6.22,3.43,1.42-1.72,2.84-3.44,4.27-5.16-1.27-.37-1.77-1.43-2.38-2.63ZM84.12,61.14c-2.9,0-2.9-4.5,0-4.5s2.9,4.5,0,4.5ZM90.25,49.58c-.13.49-.55,1.13-1.03,1.34-.36.16-.72.32-1.08.48-2.53,1.12-5.05,2.25-7.58,3.37-.58.26-1.11.37-1.73.23-.57-.13-1.03-.55-1.34-1.03-.31-.48-.38-1.19-.23-1.73.13-.49.55-1.13,1.03-1.34.36-.16.72-.32,1.08-.48,2.53-1.12,5.05-2.25,7.58-3.37.58-.26,1.11-.37,1.73-.23.57.13,1.03.55,1.34,1.03.31.48.38,1.19.23,1.73ZM110.98,61.14c-2.9,0-2.9-4.5,0-4.5s2.9,4.5,0,4.5ZM118.62,53.97c-.26.49-.82.89-1.34,1.03-.62.17-1.17.03-1.73-.23-.39-.17-.77-.35-1.16-.52-2.7-1.22-5.39-2.43-8.09-3.64-1.15-.52-1.33-2.1-.81-3.08.26-.49.82-.89,1.34-1.03.62-.17,1.17-.03,1.73.23.39.17.77.35,1.16.52,2.7,1.22,5.39,2.43,8.09,3.64,1.15.52,1.33,2.1.81,3.08Z"/>
      <path class="cls-1" d="M115.93,124.6c-3.67,1.27-7.34,2.54-11.01,3.82.05.11.1.22.14.34,1.11,3.74,2.23,7.48,3.34,11.21.33-.13.67-.27,1-.4,7-2.8,13.99-5.6,20.99-8.4.47-.19.98-.13,1.43.08-1.43-3.56-2.86-7.12-4.28-10.68-3.87,1.34-7.74,2.68-11.6,4.02Z"/>
      <path class="cls-3" d="M100.7,129.86c-1.69.52-3.26.42-4.84.05-.99,3.15-1.99,6.3-2.98,9.45.21.24.37.52.47.82.51,1.52,1.02,3.04,1.53,4.56,1.97.02,3.94.05,5.91.07.72-2.04,1.44-4.08,2.16-6.12.06-.18.15-.34.24-.49-.82-2.75-1.64-5.5-2.46-8.25-.01-.03-.01-.07-.02-.1Z"/>
      <path class="cls-2" d="M70.39,21.42c-.29-.24-.58-.47-.87-.71-2.18.82-3.58,2.43-4.75,4.57-1.58,2.9-2.75,6.05-3.14,9.34-.46,3.8.15,7.48.43,11.26.22,2.91.29,5.78.82,8.61,1.39-3.18,3.92-5.76,4.9-9.14,1.26-4.36.07-9.06,1.24-13.5.8-3.03,2.47-5.46,4.83-7.14-1.28-.94-2.42-2.05-3.47-3.29Z"/>
      <path class="cls-1" d="M91.24,70.66c-.02-.06-.03-.1-.03-.13-.01-.02-.03-.05-.06-.11-.07-.13-.14-.25-.22-.37-.04-.07-.07-.11-.09-.15-.03-.03-.05-.06-.1-.11-.1-.12-.21-.23-.32-.34-.29-.29-.49-.44-.68-.57-1.35-.9-2.86-1.41-4.52-1.61-2.92-.35-6.5.26-8.43,2.17-.15.15-.29.3-.42.47-.02.03-.04.06-.08.12-.07.11-.26.52-.27.51-.04.15-.1.4-.12.45-.02.19-.02.38,0,.57.03-.03.18.51.14.49.11.23.23.45.38.65-.16-.23.27.3.38.41.06.06.62.54.47.42,2.44,1.83,6.06,2.22,9.05,1.56,1.37-.3,2.89-.91,3.76-1.66.26-.23.52-.48.74-.74.01-.02,0,0,.02-.02,0-.01,0-.01.03-.06.08-.12.15-.24.22-.37.22-.38.24-.51.25-.96,0-.11-.04-.35-.04-.36-.02-.09-.04-.18-.07-.26Z"/>
      <path class="cls-3" d="M129.63,57.92c.06.06.08.07,0,0h0Z"/>
      <path class="cls-2" d="M129.88,22.31c-1.57-4.26-4.98-7.65-8.86-9.87-4.38-2.51-9.02-3.23-14.02-3.2-3.02.02-5.98-.06-8.94-.73-2.38-.54-4.68-1.36-6.99-2.13-4.41-1.48-8.45-2.57-13.04-1.3-3.2.89-8.14,3.28-7.64,7.33.24,1.99,1.52,3.95,2.88,5.6,1.79,1.46,3.58,2.92,5.36,4.39.36.17.72.34,1.1.48,2.51.93,5.12,1.21,7.75,1.15-.96-.87-1.86-1.81-2.69-2.8-1.77-2.1-3.28-4.34-4.31-6.89-.47-1.17.52-2.43,1.57-2.77.54-.17,1.25-.06,1.73.23.52.31.78.74,1,1.27,0,.02.02.03.03.07.06.14.13.27.19.41.11.23.23.46.35.69.27.5.56.98.87,1.46.32.5.66.98,1.02,1.45.03.04.18.23.2.26.04.05.08.1.08.11.18.22.36.45.55.66.77.9,1.59,1.76,2.47,2.56.4.37.82.72,1.25,1.06.1.07.19.14.29.21.21.15.43.3.65.44.4.26.7.61.88.99.95-.14,1.89-.29,2.82-.45.07-.01.13,0,.2-.01.13-.03.26-.06.4-.07.4-.03.8-.04,1.2-.05-1.98-2.11-3.53-4.59-4.64-7.32-.47-1.17.52-2.43,1.57-2.77.54-.17,1.25-.06,1.73.23.55.32.81.78,1.03,1.34.01.03.01.04.02.05.04.1.09.2.14.3.1.23.21.45.32.67.22.44.46.88.72,1.31.24.4.5.8.76,1.18.14.2.29.4.43.6,0,0,0,0,.01.02.06.08.12.15.19.23.62.76,1.3,1.47,2.03,2.12.18.16.36.32.55.48.09.08.19.15.28.23.15.12.15.13.12.12.16.11.37.24.41.27.2.14.4.27.6.4.27.18.5.39.67.63.15,0,.3.01.45.02,4.81.32,9.69,1.01,14.28,2.56,1.94.65,3.43,1.48,4.05,3.56.56,1.85.35,3.92.22,5.81-.16,2.43-.36,4.88-.04,7.3.35,2.61,1.06,5.19,1.89,7.68.67,2.01,1.46,3.97,2.38,5.88.22.45.45.89.69,1.34.38.01.75.03,1.13.04,1.52-8.27,1.81-16.97,1.26-25.32-.21-3.18-.51-6.51-1.63-9.53Z"/>
      <path class="cls-3" d="M46.91,158.59s0,0,0,0h0s0,0,0,0c-.01-.04-.03-.09-.04-.15,0,.05.02.1.03.15Z"/>
      <path class="cls-3" d="M46.84,158.7s0,0,0,0c0,0,0,0,0,0Z"/>
      <path class="cls-4" d="M100.06,174.55c-.33.26-.71.45-1.11.55h21.68c2.72-6.53,4.66-13.48,6.56-20.21,1.12-3.96,2.33-8.17,3.35-12.36-4.32,5.09-8.69,10.13-13.19,15.06-5.41,5.92-10.94,12.02-17.3,16.96Z"/>
      <path class="cls-3" d="M145.9,158.93c.12.05.24.09-.11-.1.11.06-.54-.38-.47-.34-1.24-.79-3.04-.92-4.46-1.14-1.76-.28-3.53-.53-5.22-1.13-2.72-.95-1.54-5.3,1.2-4.34,1.37.48,2.86.7,4.36.92,0-.05,0-.09,0-.14.06-.31.11-.62.16-.94,0-.03,0-.04.01-.07,0-.02,0-.02,0-.05.02-.18.04-.36.06-.54.08-.75.14-1.49.19-2.24.1-1.62.15-3.24.16-4.87.03-2.52-.03-5.03-.14-7.55-1.66-.58-3.3-1.19-4.93-1.84-1.11,7.27-3.19,14.48-5.19,21.52-1.79,6.33-3.64,12.82-6.07,19.02h14.53c1.9-4.02,3.79-8.05,5.13-12.28.21-.66.41-1.33.56-2.01.05-.24.1-.48.15-.72.07-.36.04.09.06-.47,0-.19,0-.37.01-.56,0-.02,0-.03,0-.04,0-.04-.02-.07-.03-.11-.08-.04-.14-.07,0-.02,0,0,0,.01,0,.02,0,0,.01,0,.02,0,0-.03,0-.02,0,0Z"/>
      <path class="cls-3" d="M177.49,157.42c-.66-1.75-1.41-3.5-2.43-5.08-.34-.53-.8-1.12-1.15-1.41-.94-.8-2.87-1.83-4.18-2.6-6.43-3.74-13.28-6.66-20.26-9.19-1.08-.39-2.17-.77-3.25-1.15.07,2.08.1,4.16.08,6.23-.04,3.16-.14,6.36-.72,9.47.89.29,1.74.68,2.51,1.24,2.7,1.95,2.55,4.81,1.79,7.72-1.13,4.29-2.95,8.4-4.88,12.45h37.29c-.29-1.4-.6-2.8-.92-4.19-1.05-4.56-2.24-9.12-3.88-13.5Z"/>
      <path class="cls-4" d="M87.84,166.96c-8.56-8.41-16.4-17.65-23.88-27.09,1.12,4.84,2.3,9.67,3.58,14.46,1.86,6.97,3.76,14.05,6.45,20.77h23.87c-.17-.05-.35-.1-.52-.2-3.5-2.17-6.57-5.07-9.5-7.95Z"/>
      <path class="cls-3" d="M58.02,133.97c-.94.31-1.89.62-2.83.92-1.06,5.85-2.34,11.5-2.44,17.43,1.72-.27,3.44-.52,5.11-.97,2.81-.75,3.99,3.59,1.2,4.34-2.9.78-5.94.95-8.86,1.67-1.21.29-2.19.56-3.09,1.15.01,0-.09.04-.19.11.08.14.04.14,0,0,0,0,0,0,0,0,.36,1.94.96,3.83,1.56,5.7,1.14,3.58,2.29,7.31,3.84,10.78h16.89c-2.34-6.21-4.15-12.64-5.87-19.04-1.96-7.32-3.72-14.69-5.32-22.1Z"/>
      <path class="cls-3" d="M49.75,136.63c-7.12,2.4-14.24,4.83-21.32,7.36-2.69.96-5.38,1.93-8.03,2.98-1.25.5-1.3.41-2.53,1.13-1.44.84-2.52,2.19-3.39,3.6-2.39,3.84-3.64,8.34-4.77,12.69-.92,3.55-1.68,7.15-2.47,10.73h40.31c-.36-.93-.71-1.85-1.05-2.77-1.08-2.9-2.09-5.83-2.97-8.79-.55-1.84-1.47-4.15-.96-6.09.66-2.48,3.35-3.6,5.7-4.24-.01-.11-.03-.22-.03-.33.02-5.57,1.08-11,2.11-16.44-.2.07-.4.13-.6.19Z"/>
      <path class="cls-5" d="M8.41,16.18C3.99,20.71-.76,26.16.1,32.98c.62,4.92,4.89,9.23,9.84,8.85,2.01,3.31,5.41,5.41,9.41,5.79.71.07,1.44.05,2.17-.02.19.3.38.59.59.87,3.33,4.37,9.06,5.42,13.97,3.32,1.12-.48,1.37-2.14.81-3.08-.68-1.13-1.95-1.29-3.08-.81-2.65,1.13-5.71.37-7.64-1.63,1.98-1.05,3.62-2.68,4.4-4.86.75-2.07.6-4.63-1.1-6.21-1.82-1.7-4.62-1.71-6.65-.37-2.76,1.83-3.47,5.16-2.95,8.33-1.57-.1-3.12-.62-4.36-1.57-.48-.37-.89-.81-1.26-1.28,3.55-2.22,6.58-6.48,7.03-10.35.29-2.5-.95-5.25-3.5-6.03-2.4-.73-4.9.54-6.5,2.3-2.6,2.87-3.63,7.09-3.04,10.94-.51-.13-1.03-.36-1.52-.74-2.61-2.03-2.61-5.62-1.56-8.47,1.24-3.4,3.95-6.05,6.42-8.59,2.02-2.08-1.16-5.26-3.18-3.18ZM24.29,40.53c.12-.66,1.01-2.92,2.06-2.1.66.52-.3,2.16-.64,2.58-.38.48-.89.87-1.44,1.18-.06-.56-.08-1.12.02-1.66ZM12.59,34.5c.07-1.42.48-2.83,1.19-4.06.38-.66,1.6-2.51,2.59-2.23,2.11.6-2.08,6.12-2.78,6.85-.3.31-.63.6-.96.87-.04-.48-.07-.95-.04-1.43Z"/>
      <path class="cls-5" d="M89.76,96.26c-.89.77-.85,2.4,0,3.18.95.87,2.23.82,3.18,0,.09-.08.13-.11.14-.12.07-.05.13-.09.2-.14.22-.15.46-.29.7-.42.05-.03.37-.18.47-.23.11-.04.45-.17.51-.18.51-.17,1.03-.28,1.56-.38.1-.01.26-.04.32-.04.28-.03.57-.04.85-.05.3,0,.59,0,.89.02.01,0,.28.03.39.04.55.09,1.1.22,1.63.4.17.06.34.12.5.19.04.03.48.23.53.26.24.13.48.27.71.42.11.07.22.15.33.22,0,0,0,0,.01.01.91.74,2.3.96,3.18,0,.76-.82.97-2.39,0-3.18-4.57-3.72-11.59-3.91-16.12,0Z"/>
      <path class="cls-5" d="M117.81,50.89c-2.7-1.21-5.39-2.43-8.09-3.64-.39-.17-.77-.35-1.16-.52-.57-.26-1.11-.4-1.73-.23-.52.14-1.09.55-1.34,1.03-.52.98-.34,2.56.81,3.08,2.7,1.21,5.39,2.43,8.09,3.64.39.17.77.35,1.16.52.57.26,1.11.4,1.73.23.52-.14,1.09-.55,1.34-1.03.52-.98.34-2.56-.81-3.08Z"/>
      <path class="cls-5" d="M88.67,46.81c-.63-.14-1.15-.03-1.73.23-2.53,1.12-5.05,2.25-7.58,3.37-.36.16-.72.32-1.08.48-.48.21-.9.86-1.03,1.34-.15.54-.08,1.26.23,1.73.31.48.77.9,1.34,1.03.63.14,1.15.03,1.73-.23,2.53-1.12,5.05-2.25,7.58-3.37.36-.16.72-.32,1.08-.48.48-.21.9-.86,1.03-1.34.15-.54.08-1.26-.23-1.73-.31-.48-.77-.9-1.34-1.03Z"/>
      <path class="cls-5" d="M109.09,88.72c-.76-.9-2.41-.84-3.18,0-.88.96-.81,2.22,0,3.18.24.28.47.57.7.86.04.05.18.24.26.33.02.02.04.05.05.06.07.09.14.18.21.27.32.43.64.87.96,1.31,1.54,2.16,2.97,4.42,4.03,6.86.47,1.08,2.14,1.41,3.08.81,1.12-.72,1.31-1.92.81-3.08-1.67-3.84-4.21-7.42-6.91-10.61Z"/>
      <path class="cls-5" d="M88.7,87.7c-1.14-.6-2.36-.23-3.08.81-2.5,3.64-4.65,7.55-6.76,11.43-.56,1.03-.29,2.5.81,3.08,1.05.55,2.48.3,3.08-.81,2.1-3.88,4.25-7.79,6.76-11.43.67-.97.21-2.54-.81-3.08Z"/>
      <path class="cls-5" d="M84.12,56.64c-2.9,0-2.9,4.5,0,4.5s2.9-4.5,0-4.5Z"/>
      <path class="cls-5" d="M98.63,77.17c-2.9,0-2.9,4.5,0,4.5s2.9-4.5,0-4.5Z"/>
      <path class="cls-5" d="M110.98,56.64c-2.9,0-2.9,4.5,0,4.5s2.9-4.5,0-4.5Z"/>
      <path class="cls-5" d="M98.96,175.11h-1.1c.37.11.74.1,1.1,0Z"/>
      <path class="cls-5" d="M176.09,146.98c-6.4-4.5-13.85-7.72-21.11-10.55-6.19-2.41-12.65-4.2-18.74-6.85-.11-.05-.22-.07-.33-.11-1.65-4.1-3.29-8.2-4.94-12.3-.43-1.07-1.51-2.01-2.77-1.57-.59.2-1.18.41-1.76.61-.28-2.49-.55-4.99-.83-7.48-.05-.42-.09-.85-.14-1.27,0-.08-.02-.15-.03-.22,3.72-6.36,4.73-14.15,6.05-21.33,2.38-1.26,4.85-2.73,6.55-4.79,2.93-3.56,4.53-8.23,3.96-12.85-.48-3.88-2.54-8.05-6.64-9.05-.3-.07-.6-.13-.9-.16,1.7-8.79,2.12-18.06,1.56-26.96-.25-3.94-.61-8.1-2.12-11.78-2-4.85-5.66-8.78-10.13-11.47-5.04-3.03-10.59-4.13-16.41-4.1-3.33.02-6.48-.08-9.7-.97-3-.83-5.89-1.99-8.88-2.83-4.8-1.36-9.63-1.29-14.28.61-4.26,1.74-8.64,5.24-8.64,10.28,0,1.77.54,3.44,1.34,5-5.61,2.6-8.63,9.46-9.71,15.27-.8,4.33-.42,8.45-.02,12.78.41,4.46.33,8.91,1.66,13.24.08.26.22.49.39.69-2.18-.05-4.35.81-5.91,2.5-2.43,2.66-3.09,6.61-2.78,10.09.31,3.49,1.37,6.98,3.85,9.56,1.77,1.84,4.09,3.24,6.49,4.22.99,6.99,1.59,14.29,5.13,20.54.26.46.56.86.84,1.28,0,0,0,.01,0,.02-.12,2.86-.23,5.72-.35,8.58,0,0,0,0,0,0-1.2-.4-2.4.47-2.77,1.57-1.24,3.73-2.49,7.47-3.73,11.2-7.9,2.62-15.79,5.28-23.65,7.99-5.31,1.83-10.62,3.67-15.86,5.66-1.78.68-3.7,1.28-5.33,2.28-2.73,1.66-4.63,4.43-6.02,7.25-3.62,7.34-5.06,15.58-6.8,23.56h4.61c.79-3.59,1.55-7.18,2.47-10.73,1.12-4.35,2.38-8.84,4.77-12.69.87-1.4,1.94-2.75,3.39-3.6,1.22-.71,1.27-.63,2.53-1.13,2.66-1.05,5.35-2.02,8.03-2.98,7.08-2.53,14.19-4.95,21.32-7.36.2-.07.4-.13.6-.19-1.03,5.44-2.09,10.87-2.11,16.44,0,.12.02.23.03.33-2.35.64-5.04,1.76-5.7,4.24-.51,1.94.41,4.25.96,6.09.88,2.96,1.89,5.89,2.97,8.79.34.92.69,1.85,1.05,2.77h4.77c-1.55-3.47-2.7-7.2-3.84-10.78-.6-1.87-1.2-3.77-1.56-5.7,0,0,0,0,0,0,.05.14.08.14,0,0,.09-.07.2-.12.19-.11.9-.59,1.88-.85,3.09-1.15,2.92-.71,5.96-.89,8.86-1.67,2.79-.75,1.61-5.09-1.2-4.34-1.68.45-3.4.7-5.11.97.09-5.93,1.37-11.58,2.44-17.43.95-.3,1.89-.61,2.83-.92,1.6,7.41,3.36,14.78,5.32,22.1,1.72,6.4,3.53,12.82,5.87,19.04h4.77c-2.68-6.72-4.59-13.81-6.45-20.77-1.28-4.8-2.45-9.63-3.58-14.46,7.47,9.43,15.32,18.67,23.88,27.09,2.93,2.88,6,5.78,9.5,7.95.17.11.35.15.52.2h1.1c.39-.11.77-.29,1.11-.55,6.36-4.94,11.88-11.03,17.3-16.96,4.5-4.93,8.88-9.97,13.19-15.06-1.02,4.19-2.23,8.4-3.35,12.36-1.91,6.74-3.84,13.69-6.56,20.21h4.83c2.43-6.19,4.27-12.68,6.07-19.02,1.99-7.03,4.08-14.25,5.19-21.52,1.63.64,3.27,1.26,4.93,1.84.11,2.51.16,5.03.14,7.55-.02,1.62-.06,3.25-.16,4.87-.05.75-.11,1.5-.19,2.24-.02.18-.04.36-.06.54,0,.03,0,.04,0,.05,0,.02,0,.04-.01.07-.05.31-.1.62-.16.94,0,.05,0,.09,0,.14-1.5-.22-2.99-.44-4.36-.92-2.74-.96-3.92,3.39-1.2,4.34,1.69.59,3.46.85,5.22,1.13,1.42.22,3.22.35,4.46,1.14-.07-.05.58.4.47.34.35.19.23.15.11.1,0-.03,0-.03,0,0,0,0-.01,0-.02,0,.01.04.02.07.03.11,0,.02,0,.02,0,.04,0,.19,0,.37-.01.56-.02.56.01.11-.06.47-.04.24-.09.48-.15.72-.15.68-.35,1.35-.56,2.01-1.34,4.23-3.22,8.26-5.13,12.28h4.99c1.93-4.05,3.75-8.16,4.88-12.45.77-2.92.92-5.77-1.79-7.72-.77-.56-1.62-.94-2.51-1.24.58-3.11.68-6.32.72-9.47.03-2.08,0-4.16-.08-6.23,1.09.38,2.17.75,3.25,1.15,6.98,2.54,13.83,5.45,20.26,9.19,1.32.77,3.24,1.8,4.18,2.6.34.29.8.88,1.15,1.41,1.02,1.58,1.77,3.32,2.43,5.08,1.65,4.38,2.83,8.94,3.88,13.5.32,1.39.63,2.79.92,4.19h4.58c-1.17-6.15-2.66-12.3-4.77-18.17-1.28-3.54-2.79-7.71-6-9.96ZM46.84,158.7s0,0,0,0c0,0,0,0,0,0ZM46.91,158.59s0,0,0,0c0,0,0,0,0,0h0s0,0,0,0c0-.05-.02-.1-.03-.15.01.06.03.11.04.15,0,0,0,0,0,.01,0,0,0,0,0-.01ZM78.04,5.07c4.59-1.27,8.63-.18,13.04,1.3,2.31.77,4.61,1.6,6.99,2.13,2.96.67,5.92.74,8.94.73,4.99-.02,9.63.7,14.02,3.2,3.88,2.22,7.29,5.61,8.86,9.87,1.12,3.02,1.42,6.34,1.63,9.53.55,8.34.26,17.05-1.26,25.32-.38-.02-.75-.03-1.13-.04-.23-.44-.47-.89-.69-1.34-.92-1.91-1.71-3.87-2.38-5.88-.84-2.49-1.54-5.07-1.89-7.68-.33-2.42-.12-4.87.04-7.3.13-1.9.33-3.96-.22-5.81-.62-2.08-2.11-2.91-4.05-3.56-4.58-1.55-9.46-2.24-14.28-2.56-.15-.01-.3-.02-.45-.02-.17-.24-.4-.46-.67-.63-.2-.13-.4-.26-.6-.4-.05-.03-.26-.16-.41-.27.03.02.03,0-.12-.12-.09-.08-.19-.15-.28-.23-.19-.16-.37-.32-.55-.48-.73-.65-1.4-1.36-2.03-2.12-.06-.08-.12-.15-.19-.23,0,0,0,0-.01-.02-.15-.2-.29-.39-.43-.6-.27-.39-.52-.78-.76-1.18-.25-.43-.49-.86-.72-1.31-.11-.22-.22-.45-.32-.67-.05-.1-.09-.2-.14-.3,0-.02-.01-.03-.02-.05-.23-.57-.49-1.03-1.03-1.34-.48-.28-1.19-.4-1.73-.23-1.05.34-2.04,1.6-1.57,2.77,1.1,2.73,2.66,5.21,4.64,7.32-.4.02-.8.03-1.2.05-.14,0-.27.04-.4.07-.07,0-.13,0-.2.01-.93.15-1.87.3-2.82.45-.18-.39-.48-.73-.88-.99-.22-.14-.43-.29-.65-.44-.1-.07-.19-.14-.29-.21-.42-.35-.84-.69-1.25-1.06-.88-.8-1.7-1.66-2.47-2.56-.19-.22-.37-.44-.55-.66,0,0-.04-.05-.08-.11-.02-.03-.17-.22-.2-.26-.35-.47-.69-.96-1.02-1.45-.31-.48-.6-.96-.87-1.46-.12-.23-.24-.46-.35-.69-.07-.13-.13-.27-.19-.41-.02-.04-.03-.05-.03-.07-.22-.53-.48-.97-1-1.27-.48-.28-1.19-.4-1.73-.23-1.05.34-2.05,1.6-1.57,2.77,1.04,2.55,2.54,4.79,4.31,6.89.83.98,1.73,1.93,2.69,2.8-2.63.05-5.25-.22-7.75-1.15-.38-.14-.74-.31-1.1-.48-1.79-1.46-3.58-2.92-5.36-4.39-1.36-1.65-2.64-3.61-2.88-5.6-.49-4.05,4.44-6.44,7.64-7.33ZM129.68,57.97s-.01-.02-.05-.05c.04.03.05.05.05.05ZM105.98,73.11c-.11-.11-.54-.64-.38-.41-.14-.2-.27-.43-.38-.65.04.02-.11-.51-.14-.49-.02-.19-.02-.38,0-.57.02-.05.08-.3.12-.45.01.02.21-.4.27-.51.04-.06.06-.09.08-.12.13-.16.28-.32.42-.47,1.93-1.91,5.51-2.52,8.43-2.17,1.66.2,3.17.71,4.52,1.61.19.12.39.28.68.57.11.11.22.22.32.34.04.05.07.08.1.11.02.03.04.08.09.15.08.12.15.24.22.37.03.05.05.09.06.11,0,.03.02.07.03.13.01.05.03.11.04.16.01.09.02.17.04.26.01.08.02.16.02.21-.01.45-.03.58-.25.96-.07.12-.15.25-.22.37-.03.04-.03.04-.03.06,0,.01,0,0-.02.02-.22.27-.47.52-.74.74-.87.75-2.39,1.35-3.76,1.66-2.99.66-6.61.27-9.05-1.56.15.12-.41-.36-.47-.42ZM116.84,63.17c-4.49-1.05-9.76-.42-13.41,2.55-.75.61-1.33,1.31-1.78,2.07-1.15-.26-2.33-.41-3.5-.41-1.14,0-2.28.14-3.41.32-1.51-2.36-4.34-3.89-7.07-4.53-4.49-1.05-9.76-.42-13.41,2.55-.4.32-.75.67-1.06,1.04-2.09-1.86-4.19-3.73-6.28-5.59-.32-.29-.64-.57-.97-.86-.09-.08-.18-.14-.28-.21.56-.76.7-1.89.98-2.87.89-3.18,3.49-5.7,4.78-8.74,1.75-4.16,1.07-8.34,1.47-12.69.36-3.92,1.91-7.29,5.82-8.57,5.97,2.02,12.32,1.18,18.48.18,2.64-.17,5.32-.11,7.96.05,2.6.15,5.19.44,7.75.92,1.38.26,2.76.58,4.11.97.61.17,2.26.42,2.62.89.39.51.21,1.79.2,2.36-.02,1.24-.14,2.48-.22,3.72-.18,2.84-.08,5.59.43,8.39.9,4.88,2.65,9.69,4.9,14.11.61,1.2,1.12,2.26,2.38,2.63-1.42,1.72-2.84,3.44-4.27,5.16-1.59-1.74-3.93-2.89-6.22-3.43ZM76.8,73.11c-.11-.11-.54-.64-.38-.41-.14-.2-.27-.43-.38-.65.04.02-.11-.51-.14-.49-.02-.19-.02-.38,0-.57.02-.05.08-.3.12-.45.01.02.21-.4.27-.51.04-.06.06-.09.08-.12.13-.16.28-.32.42-.47,1.93-1.91,5.51-2.52,8.43-2.17,1.66.2,3.17.71,4.52,1.61.19.12.39.28.68.57.11.11.22.22.32.34.04.05.07.08.1.11.02.03.04.08.09.15.08.12.15.24.22.37.03.05.05.09.06.11,0,.03.02.07.03.13.02.09.05.18.07.26,0,.02.04.26.04.36-.01.45-.03.58-.25.96-.07.12-.15.25-.22.37-.03.04-.03.04-.03.06,0,.01,0,0-.02.02-.22.27-.47.52-.74.74-.87.75-2.39,1.35-3.76,1.66-2.99.66-6.61.27-9.05-1.56.15.12-.41-.36-.47-.42ZM61.63,34.62c.4-3.29,1.56-6.44,3.14-9.34,1.16-2.14,2.57-3.75,4.75-4.57.29.24.58.47.87.71,1.05,1.24,2.19,2.34,3.47,3.29-2.36,1.68-4.03,4.11-4.83,7.14-1.18,4.44.02,9.14-1.24,13.5-.97,3.38-3.51,5.95-4.9,9.14-.54-2.83-.61-5.7-.82-8.61-.28-3.78-.89-7.46-.43-11.26ZM65.37,82.95c-.12-.77-.89-1.35-1.57-1.57-4.31-1.41-7.48-4.35-8.31-8.86-.41-2.21-.41-4.8.57-6.87.99-2.1,3.16-3.08,5.24-1.74.75.48,1.49.45,2.07.12,2.09,1.86,4.19,3.73,6.28,5.59.32.29.64.57.96.86.26.23.56.39.88.5-.08,1.72.49,3.47,1.8,4.97,3.06,3.48,8.49,4.32,12.84,3.71,4.19-.59,9.02-3.06,9.63-7.61.13-.02.26-.04.39-.06.66-.07,1.32-.13,1.98-.13.33,0,.66.01,1,.04.17.01.34.03.51.05.02,0,.04,0,.07.01.34.06.67.13,1,.21.18,1.32.75,2.63,1.76,3.77,3.06,3.48,8.49,4.32,12.84,3.71,4.25-.6,9.17-3.15,9.65-7.84.03-.17.05-.35.05-.55,0-.01,0-.02,0-.03,1.73-2.09,3.46-4.18,5.19-6.27.28-.34.56-.68.84-1.02.01-.01.02-.03.03-.04.03,0,.05-.02.1-.03.52-.17,1.05-.35,1.6-.41,1.51-.16,2.75.43,3.58,1.71,2.62,4.07,1.09,10.22-2.15,13.49-1.3,1.32-3.05,2.25-4.65,3.15-1.09.61-1.97,1.04-2.3,2.36-1.04,4.21-1.56,8.54-2.63,12.75-1.24,4.84-3.1,9.39-6.99,12.7-3.86,3.28-8.61,5.48-13.53,6.62-9.48,2.18-18.81-.56-26.95-5.51-9.71-5.91-10.27-17.71-11.77-27.79ZM100.7,129.86s0,.07.02.1c.82,2.75,1.64,5.5,2.46,8.25-.09.15-.17.32-.24.49-.72,2.04-1.44,4.08-2.16,6.12-1.97-.02-3.94-.05-5.91-.07-.51-1.52-1.02-3.04-1.53-4.56-.1-.3-.27-.58-.47-.82.99-3.15,1.99-6.3,2.98-9.45,1.58.37,3.15.46,4.84-.05ZM96.97,125.71s.03,0,.09,0c-.07,0-.09,0-.09,0ZM101.2,124.95c-.65.23-1.34.41-1.98.69-.07.03-.14.05-.2.07h-.58c-.38,0-.78-.03-1.16,0-.05,0-.06,0-.1,0-.02,0-.04-.01-.06-.02-.53-.26-1.19-.39-1.75-.58-5.24-1.75-10.49-3.49-15.73-5.24-2.8-.93-5.6-1.86-8.4-2.8.07-1.72.14-3.44.21-5.17,3.48,3,7.69,5.07,12.11,6.91,7.19,2.99,15.02,3.51,22.57,1.58,5.5-1.4,11.17-4.13,15.38-8.18.15,1.35.3,2.71.45,4.06.05.42.09.85.14,1.27,0,.05.02.1.02.15-6.97,2.42-13.95,4.83-20.92,7.25ZM65.72,126.28c.63-1.89,1.26-3.78,1.89-5.68,7.99,2.66,15.97,5.32,23.96,7.98-1.21,3.84-2.42,7.69-3.64,11.53-6.84-3.09-13.67-6.18-20.51-9.27-.9-.41-1.8-.82-2.7-1.22.42-1.14.69-2.38,1-3.33ZM87.32,159.99c-1.72-1.81-3.42-3.64-5.09-5.5-5.59-6.24-10.96-12.68-16.19-19.23-.05-.07-.11-.14-.16-.2,6.33,2.86,12.66,5.72,18.99,8.59,1.1.5,2.2,1,3.3,1.49.72.33,1.48.33,2.11.05.23.69.46,1.39.69,2.08-1.84,3.97-3.02,8.34-3.66,12.73ZM98.36,170.16c-2.39-1.67-4.55-3.68-6.64-5.7-.12-.12-.23-.24-.35-.36.03-.4.07-.8.12-1.21.03-.26.06-.52.09-.78,0-.05,0-.07.01-.1.02-.13.04-.26.05-.38.11-.76.23-1.51.37-2.27.63-3.45,1.57-7.09,2.99-10.11,1.92.02,3.85.05,5.77.07,1.52,3.6,2.69,7.36,3.4,11.2.06.35.12.69.18,1.04.02.14.1.71.11.78.05.43.11.87.14,1.3.02.24.03.49.04.74-2.02,2.01-4.11,3.97-6.3,5.78ZM108.68,160.25c-.05-.31-.11-.62-.16-.93-.77-4.19-2.13-8.24-3.8-12.16.29-.82.58-1.63.86-2.45.55.45,1.28.69,1.96.41,7-2.8,13.99-5.6,20.99-8.4.53-.21,1.07-.43,1.6-.64-6.87,8.29-13.97,16.42-21.45,24.16ZM130.39,131.18c-7,2.8-13.99,5.6-20.99,8.4-.33.13-.67.27-1,.4-1.11-3.74-2.23-7.48-3.34-11.21-.04-.13-.09-.23-.14-.34,3.67-1.27,7.34-2.54,11.01-3.82,3.87-1.34,7.74-2.68,11.6-4.02,1.43,3.56,2.86,7.12,4.28,10.68-.45-.21-.96-.27-1.43-.08Z"/>
      <path class="cls-5" d="M145.87,158.92s0-.01,0-.02c-.13-.05-.07-.02,0,.02Z"/>
    </g>
  </g>
</svg>