<?xml version="1.0" encoding="UTF-8"?>
<svg id="_レイヤー_2" data-name="レイヤー 2" xmlns="http://www.w3.org/2000/svg" viewBox="0 0 167.43 167.61">
  <defs>
    <style>
      .cls-1 {
        fill: #fff;
      }

      .cls-2 {
        fill: #78c8e6;
      }

      .cls-3 {
        fill: #323232;
      }
    </style>
  </defs>
  <g id="_レイヤー_1-2" data-name="レイヤー 1">
    <g>
      <path class="cls-2" d="M121.31,124.02s-.03-.06-.03-.07c-.02.02,0,.04.03.07Z"/>
      <path class="cls-1" d="M108.77,118.86c-.69-.92-1.19-1.9-1.63-2.96-1.51-3.63-1.98-7.72-2.36-11.65-5.76,5.05-13.02,7.98-20.8,7.77-.17,5.17-.25,10.35-.34,15.53,1.83-1.19,4.2-1.38,6.21-.34,1.38.71,2.26,1.85,2.79,3.17,1.17-.37,2.53-.34,4.02.26,2.02.82,3.08,2.39,3.53,4.23,3.04-.73,5.82,1.45,7.08,4.16,1.64-5.59,3.47-11.55,4.43-17.29-.42-.08-.81-.27-1.08-.61-.6-.77-1.27-1.49-1.85-2.27Z"/>
      <path class="cls-2" d="M112.47,116.34c.03.05.06.07.09.1,0-.01,0-.02.02-.03-.06-.06-.11-.12-.17-.16.02.03.05.06.07.1Z"/>
      <path class="cls-2" d="M112.35,116.2s.03.03.04.04c0,0,0,0,0,0-.02-.01-.02-.02-.04-.03Z"/>
      <path class="cls-2" d="M67.18,153.48s0-.02,0-.03c0,0,0,0-.01,0,0,0,0,.02,0,.03Z"/>
      <path class="cls-2" d="M84.95,89.69s.05-.02.07-.03c-.01,0-.03,0-.04,0-.34.02-.17.04-.03.02Z"/>
      <path class="cls-2" d="M16.04,135.51c.17.02.32.03,0,0h0Z"/>
      <path class="cls-2" d="M58.46,118.72s.04.01.04.01c-.6-.26-.2-.05-.04-.01Z"/>
      <path class="cls-2" d="M58.03,118.67s0,.01,0,.02c.32.03.64.11.94.24-.2-.09-.35-.15-.46-.2,0,0-.31-.03-.48-.06Z"/>
      <path class="cls-2" d="M88.4,90.1s.02,0,.03,0c0,0,0,0,.02,0-.04-.02-.08-.03-.09-.05,0,.01.03.02.04.03Z"/>
      <path class="cls-2" d="M88.45,90.11s.08.04.13.06c.02,0,0-.02-.13-.06Z"/>
      <path class="cls-2" d="M86.74,89.68s.04,0,.05,0c.13.01.28.01.04,0-.03,0-.06,0-.09,0Z"/>
      <path class="cls-2" d="M85.04,89.66s.02,0,.02-.02c0,0-.03.01-.04.02,0,0,.01,0,.02,0Z"/>
      <path class="cls-2" d="M86.74,89.68h0s-.06-.02-.07-.02c0,0,.04.02.07.02Z"/>
      <path class="cls-1" d="M64.26,105.65c.71.54.98,1.53.83,2.42-.44,2.62-.94,5.24-1.68,7.8-.63,2.19-2.03,6.57-4.66,7.2.38,1.8.83,3.62,1.26,5.38,1.71,6.89,3.65,13.72,5.75,20.52.64,0,1.29,0,1.93-.01.37-2.93.79-5.87,1.25-8.82,1.39-8.8.81-17.78,1.17-26.64.06-1.42.08-3.23.22-5.12-2.07-1.08-4.02-2.39-5.84-3.86-.04.37-.12.75-.24,1.13Z"/>
      <path class="cls-1" d="M54.54,92.05c-.45-.03-.9-.08-1.34-.14.73,1.34.11,3.44-1.87,3.41-4.74-.07-9.19,1.8-12.8,4.81-3.01,2.52-5.5,5.65-7.22,9.17-1.52,3.1-1.67,6.35-2.39,9.66-.8,3.68-2.13,7.7-4.85,10.44-3.13,3.15-8.19,3.55-11.76.88-.73-.54-1-1.3-.95-2.03-2.69-.51-3.11-4.68-5.61-4.68v2.51c.46-.18.98-.23,1.46-.12,1.23.28,1.82,1.62,1.57,2.77,0,.03,0,.05-.02.08,0,.11-.02.21-.02.32,0,.12,0,.25.02.37,0,0,0,.01,0,.02.05.26.12.51.21.76,0,.03.01.03.02.05.06.12.12.25.18.37.13.25.28.49.44.72.09.13.2.26.29.4-.05-.09-.09-.14-.12-.19-.03-.05-.05-.08-.06-.09,0,0,.03.04.06.09.05.07.11.17.16.22.42.49.88.94,1.37,1.36.13.11.29.21.4.33-.09-.09-.12-.12-.16-.16-.03-.03-.05-.05-.05-.05,0,0,.02.02.05.05.06.06.16.15.22.2.25.18.5.35.76.51.54.34,1.1.63,1.67.9.01,0,.02,0,.03.01.15.06.3.11.45.16.25.09.51.16.77.23.14.04.28.07.43.1.02,0,.05,0,.08.01.21.02.42.04.63.04.35,0,.67.08.96.23.23-.12.47-.24.7-.36,8.25-4.27,16.89-7.89,25.57-11.22.18-.4.35-.81.53-1.21.51-1.1.91-2.02,1.95-2.68.96-.61,1.97-1.16,2.96-1.75,1.74-1.03,3.49-2.06,5.23-3.09,1.56-.92,3.26.29,3.39,1.94,0,.12.03.25.04.37.11-.22.22-.43.32-.65,0-.01.01-.03.02-.04.06-.14.11-.28.16-.43.1-.28.2-.55.29-.83.26-.77.48-1.56.68-2.35.56-2.18.99-4.4,1.36-6.62.21-1.24,1.68-1.82,2.77-1.57.29.07.53.19.74.35.11-.39.19-.76.24-1.13-4.17-3.37-7.61-7.67-9.96-12.46Z"/>
      <path class="cls-1" d="M107.63,14.55c-6.17-7.69-15-10.49-24.64-9.98-1.6.08-2.31-1.25-2.14-2.49h-3.96c.46,1.3-.22,3.11-2.03,3.2-5.12.28-9.9,2.35-13.92,5.48-7.1,5.54-12.16,13.9-14.84,22.43-2.37,7.52-1.36,15.5,1.49,22.78.12.31.16.6.16.86.45-.06.91-.09,1.36-.08,2.18.04,2.72,2.59,1.62,3.83.5.5.99.99,1.49,1.49-.88-3.51.3-5.99,2.03-8.05-.35-.26-.65-.61-.79-1.12-.29-1.06.37-2.6,1.57-2.77,12.59-1.79,22.16-12.21,23.14-24.88.22-2.87,4.72-2.89,4.5,0-.57,7.38-3.63,14.27-8.41,19.54,4.42-.29,8.51-2.24,11.81-5.31,3.89-3.62,8.04-9.39,7.27-15.01-.17-1.21.27-2.41,1.57-2.77,1.06-.29,2.6.37,2.77,1.57.03.22.04.45.06.67.12.17.22.36.3.58,1.81,5.18,3.9,10.29,6.53,15.11,2.24,4.11,5.46,9.73,10,11.36.27.1.48.23.68.39.79-.24,1.61-.37,2.42-.38.34-3.24.3-6.55.07-9.79-.66-9.45-4.14-19.22-10.11-26.67Z"/>
      <path class="cls-1" d="M114.58,56.65c-1.77,1.17-3.44-.59-3.28-2.25-4.57-2.54-7.75-7.39-10.24-11.82-1.79-3.18-3.32-6.51-4.71-9.89-1.35,3.3-3.5,6.34-5.98,8.88.11-.1.22-.18.34-.25.45-.27,1.22-.43,1.73-.23.33.13.66.26.99.39,2.28.89,4.56,1.78,6.84,2.67.57.22,1.01.51,1.34,1.03.33.51.36,1.16.23,1.73-.12.54-.57,1.07-1.03,1.34-.45.27-1.22.43-1.73.23-.33-.13-.66-.26-.99-.39-2.28-.89-4.56-1.78-6.84-2.67-.58-.22-1.01-.51-1.34-1.03-.33-.51-.36-1.16-.23-1.73.09-.4.36-.79.68-1.08-.28.29-.57.57-.86.85-4.74,4.52-11.03,7.36-17.65,6.87-.65-.05-1.24-.32-1.66-.76-3.97,3.06-8.7,5.18-13.96,5.93-.73.1-1.43-.05-1.97-.45-1.73,2.06-2.91,4.54-2.03,8.05-.5-.5-.99-.99-1.49-1.49-.36.41-.9.68-1.62.67-5.47-.1-5.46,6.08-4.4,9.96,1.06,3.85,4.54,7.86,8.84,7.7,1.32-.05,2.12,1.08,2.25,2.25.77,6.99,4.59,13.44,9.65,18.21,1.74,1.64,3.65,3.05,5.67,4.22.85-2.99,2.5-5.41,5.82-5.72,2.58-.24,4.67,1.13,5.89,3.38,1.05,1.93,1.27,4.07,1.27,6.22,4.91.21,9.87-.97,14.32-3.85,9.5-6.15,14.98-17.95,14.75-29.11-.02-.93.71-1.99,1.65-2.17,4.39-.83,6.78-3.98,6.96-8.34.11-2.65-.4-5.56-2.23-7.6-1.41-1.58-3.44-.78-4.99.25ZM70.43,61.4c-2.9,0-2.9-4.5,0-4.5s2.9,4.5,0,4.5ZM85.09,74.42c2.9,0,2.9,4.5,0,4.5s-2.9-4.5,0-4.5ZM92.76,90.7c-.38.41-1.04.66-1.59.66-.65,0-1.1-.28-1.59-.66.55.43-.14-.07-.28-.16-.2-.12-.41-.23-.62-.33-.02,0-.06-.02-.1-.04-.02,0-.12-.03-.18-.08-.22-.07-.43-.15-.66-.21-.21-.06-.42-.11-.64-.15-.02,0-.19-.03-.31-.05-.02,0-.04,0-.05,0-.46-.04-.92-.06-1.39-.04-.1,0-.21.01-.31.02-.02.01-.05.02-.09.03-.19.04-.56.08-.62.1-.24.06-.48.12-.71.2-.11.04-.23.09-.34.12-.25.12-1.23.56-1.21.71,0-.04.4-.35.05-.03-.09.08-.19.16-.28.25-.18.17-.35.36-.51.55-.81.96-2.34.77-3.18,0-.94-.87-.76-2.29,0-3.18,1.78-2.09,4.5-3.12,7.19-3.26,2.7-.14,5.29.73,7.41,2.38.99.77.74,2.38,0,3.18ZM96.11,59.15c-2.9,0-2.9-4.5,0-4.5s2.9,4.5,0,4.5Z"/>
      <path class="cls-2" d="M153.57,144.12c-1.43-1.47-3.2-2.4-4.97-3.41-2.1-1.2-4.21-2.39-6.33-3.58-4.51-2.52-9.04-4.99-13.58-7.45.54,1.29,1.08,2.58,1.59,3.89.8,2.03,2.18,4.54,2.19,6.79.01,2.9-4.49,2.89-4.5,0,0,.53-.02-.02-.15-.45-.13-.46-.29-.91-.45-1.36-.5-1.42-1.04-2.82-1.6-4.22-1.24-3.12-2.55-6.21-3.96-9.26-.01-.03-.32-.66-.46-.96-.12-.08-.23-.17-.31-.22-.97-.57-1.94-1.15-2.91-1.72-.61-.36-1.22-.72-1.83-1.08-.44,2.75-1.08,5.49-1.74,8.18-3.18,12.94-7.24,25.71-11.51,38.34h13.85c1.85-2.45,3.88-5.38,5.69-7.98,1.13-1.62,2.26-3.25,3.38-4.88.93-1.35,2.29-2.81,2.95-4.32.21-.49.22-1-.06-1.47-.16-.26-.35-.39-.58-.56-.04-.03-.06-.05-.09-.07-.55-.25-1.14-.44-1.7-.66-3.8-1.49-7.6-2.98-11.4-4.47-1.13-.44-1.94-1.5-1.57-2.77.31-1.08,1.63-2.02,2.77-1.57,2.11.83,4.22,1.66,6.34,2.48,2.19.86,4.39,1.71,6.58,2.58,3.46,1.38,5.52,5.05,3.68,8.62-.87,1.69-2.18,3.26-3.26,4.83-1.29,1.87-2.58,3.73-3.88,5.59-1.09,1.56-2.18,3.11-3.3,4.66h40.37c-.89-3.97-1.79-7.94-3.06-11.81-1.35-4.13-3.11-8.51-6.19-11.68Z"/>
      <path class="cls-2" d="M58.73,140.91c-1.86-6.44-3.95-13.1-4.92-19.81-.65.39-1.3.77-1.96,1.16-.95.56-1.9,1.12-2.85,1.68-.04.03-.14.09-.24.17,0,0,0,0,0,.02.02.24-.32.69-.44.93-1.44,3.12-2.78,6.28-4.05,9.48-.53,1.32-1.04,2.65-1.52,4-.17.48-.33.97-.48,1.46-.16.52-.12.65-.12.34-.01,2.9-4.51,2.9-4.5,0,0-2.32,1.44-4.91,2.27-7,.45-1.12.91-2.24,1.38-3.36-1.91.77-3.81,1.55-5.7,2.34-5.54,2.34-11.05,4.79-16.35,7.62-1.99,1.06-4.02,1.94-5.34,3.49-1.28,1.5-2.19,3.36-3.02,5.14-2.82,6-4.76,12.54-6.31,19.02h43.11c-1.49-2.06-2.96-4.15-4.41-6.24-1.24-1.78-2.47-3.56-3.7-5.34-1.08-1.56-2.51-3.17-2.9-5.07-.73-3.55,1.63-6.02,4.68-7.22,4.16-1.63,8.31-3.26,12.47-4.89,1.14-.45,2.47.5,2.77,1.57.35,1.26-.45,2.33-1.57,2.77-1.8.7-3.59,1.41-5.39,2.11-2.24.88-4.48,1.75-6.71,2.63-.28.11-.57.21-.85.34-.07.03-.14.05-.21.08.18-.08.02-.07-.18.13-1.08,1.1-.46,2,.3,3.11,2.16,3.15,4.33,6.3,6.53,9.43,1.06,1.52,2.13,3.03,3.21,4.53.45.62,1,1.38,1.5,2.05h13.13c0-.71,0-1.42.02-2.12-.03-.1-.07-.21-.1-.31-2.65-8.04-5.21-16.12-7.56-24.26Z"/>
      <path class="cls-3" d="M88.43,90.11s-.02,0-.03,0c.07.05.16.08.18.08-.05-.02-.09-.04-.13-.06,0,0,0,0-.02,0Z"/>
      <path class="cls-3" d="M84.95,89.69s.07-.01.09-.03c0,0-.01,0-.02,0-.02,0-.03.02-.07.03Z"/>
      <path class="cls-3" d="M86.74,89.68s.03,0,.05,0c-.02,0-.04,0-.05,0h0Z"/>
      <path class="cls-3" d="M85.35,85.14c-2.69.14-5.41,1.17-7.19,3.26-.76.9-.94,2.32,0,3.18.84.77,2.37.96,3.18,0,.16-.19.33-.37.51-.55.09-.09.18-.17.28-.25.35-.32-.06,0-.05.03-.02-.15.96-.59,1.21-.71.11-.03.23-.08.34-.12.23-.08.47-.14.71-.2.06-.01.43-.05.62-.1-.14.02-.32,0,.03-.02.01,0,.03,0,.04,0,.01,0,.04-.01.04-.02,0,0-.01.01-.02.02.1,0,.21-.02.31-.02.47-.02.93,0,1.39.04-.03,0-.06-.01-.07-.02,0,0,.03.01.07.02.03,0,.06,0,.09,0,.24.02.09.02-.04,0,.12.02.29.04.31.05.21.04.43.09.64.15.22.06.44.14.66.21-.01-.01-.03-.02-.04-.03,0,.01.05.03.09.05.13.04.15.06.13.06.04.01.08.03.1.04.21.1.42.21.62.33.14.09.83.59.28.16.49.38.94.66,1.59.66.55,0,1.21-.25,1.59-.66.74-.81.99-2.41,0-3.18-2.11-1.65-4.71-2.52-7.41-2.38Z"/>
      <path class="cls-3" d="M96.11,54.65c-2.9,0-2.9,4.5,0,4.5s2.9-4.5,0-4.5Z"/>
      <path class="cls-3" d="M85.09,74.42c-2.9,0-2.9,4.5,0,4.5s2.9-4.5,0-4.5Z"/>
      <path class="cls-3" d="M70.43,56.9c-2.9,0-2.9,4.5,0,4.5s2.9-4.5,0-4.5Z"/>
      <path class="cls-3" d="M147.46,134.88c-4.44-2.5-8.9-4.97-13.38-7.42-2.53-1.39-5.06-2.77-7.6-4.14-.22-.12-.43-.19-.65-.23-.02-.04-.03-.07-.05-.11-.51-1.11-.91-2.02-1.95-2.68-.91-.58-1.87-1.1-2.8-1.65-1.8-1.06-3.59-2.12-5.39-3.18-1.2-.71-2.48-.15-3.07.91-.04-.04-.1-.09-.19-.15,0,0,0,0,0,0,.06.05.12.1.17.16,0,.01,0,.02-.02.03-.03-.02-.05-.05-.09-.1-.02-.03-.05-.07-.07-.1-.01-.01-.03-.03-.04-.04.02.01.02.02.04.03-.04-.05-.08-.11-.12-.16-.12-.17-.23-.34-.33-.52-.12-.21-.24-.42-.35-.64-.06-.11-.11-.22-.16-.33-.03-.07-.06-.13-.09-.2-.09-.21-.06-.14.09.22-.13-.06-.26-.68-.31-.82-.13-.36-.24-.72-.35-1.09-.25-.84-.44-1.7-.62-2.56-.52-2.6-.78-4.83-1.03-7.47-.07-.74-.41-1.41-.96-1.82,1.36-1.56,2.61-3.25,3.71-5.06,3.55-5.87,5.6-12.68,5.78-19.54,2.17-.71,4.27-2,5.72-3.68,2.32-2.69,3.07-6.48,2.92-9.95-.15-3.73-1.45-7.83-4.46-10.23.16-.27.27-.59.31-.95,1.04-9.07-.25-18.72-3.83-27.1-3.57-8.36-8.66-16.56-17-20.84C95.65.59,89.29-.26,82.99.07c-1.29.07-2,1-2.14,2.01h4.37-4.37c-.17,1.24.53,2.58,2.14,2.49,9.65-.51,18.47,2.3,24.64,9.98,5.98,7.45,9.46,17.22,10.11,26.67.23,3.24.26,6.55-.07,9.79-.81.01-1.62.15-2.42.38-.19-.15-.41-.29-.68-.39-4.53-1.64-7.75-7.25-10-11.36-2.63-4.82-4.73-9.93-6.53-15.11-.08-.22-.18-.41-.3-.58-.02-.22-.03-.45-.06-.67-.17-1.21-1.71-1.86-2.77-1.57-1.3.36-1.74,1.56-1.57,2.77.77,5.62-3.38,11.39-7.27,15.01-3.3,3.07-7.38,5.02-11.81,5.31,4.79-5.27,7.84-12.16,8.41-19.54.22-2.89-4.28-2.87-4.5,0-.98,12.67-10.54,23.08-23.14,24.88-1.2.17-1.86,1.7-1.57,2.77.14.51.44.86.79,1.12,1.23-1.46,2.72-2.71,3.97-3.95-1.24,1.24-2.74,2.49-3.97,3.95.54.4,1.24.56,1.97.45,5.25-.75,9.98-2.87,13.96-5.93.42.44,1.01.72,1.66.76,6.62.49,12.92-2.36,17.65-6.87.29-.28.57-.56.86-.85-.32.29-.59.68-.68,1.08-.13.58-.1,1.22.23,1.73.34.52.77.81,1.34,1.03,2.28.89,4.56,1.78,6.84,2.67.33.13.66.26.99.39.51.2,1.28.04,1.73-.23.47-.27.91-.81,1.03-1.34.13-.58.1-1.22-.23-1.73-.34-.52-.77-.81-1.34-1.03-2.28-.89-4.56-1.78-6.84-2.67-.33-.13-.66-.26-.99-.39-.51-.2-1.28-.04-1.73.23-.12.07-.23.15-.34.25,2.48-2.55,4.63-5.58,5.98-8.88,1.39,3.39,2.92,6.71,4.71,9.89,2.49,4.43,5.67,9.28,10.24,11.82-.16,1.66,1.51,3.42,3.28,2.25,1.55-1.02,3.57-1.83,4.99-.25,1.83,2.04,2.33,4.94,2.23,7.6-.18,4.36-2.56,7.51-6.96,8.34-.94.18-1.67,1.24-1.65,2.17.23,11.16-5.25,22.96-14.75,29.11-4.46,2.88-9.41,4.06-14.32,3.85,0-2.15-.22-4.29-1.27-6.22-1.22-2.24-3.31-3.61-5.89-3.38-3.32.31-4.97,2.73-5.82,5.72-2.03-1.18-3.94-2.59-5.67-4.22-5.06-4.77-8.88-11.21-9.65-18.21-.13-1.17-.93-2.3-2.25-2.25-4.29.17-7.78-3.84-8.84-7.7-1.07-3.88-1.08-10.06,4.4-9.96.72.01,1.26-.26,1.62-.67-1-1-2.01-2.01-3.01-3.01,1,1,2.01,2.01,3.01,3.01,1.09-1.24.55-3.79-1.62-3.83-.46,0-.91.02-1.36.08,0-.27-.03-.55-.16-.86-2.85-7.28-3.85-15.26-1.49-22.78,2.68-8.52,7.74-16.88,14.84-22.43,4.02-3.14,8.8-5.2,13.92-5.48,1.81-.1,2.49-1.91,2.03-3.2h-3.67,3.67c-.27-.77-.95-1.35-2.03-1.3-10.53.57-19.09,7.1-25.14,15.37-5.88,8.04-10.38,18.45-9.36,28.56.42,4.21,1.34,8.49,2.89,12.45.16.42.42.74.71.98-1.36.82-2.49,1.98-3.17,3.47-1.41,3.06-1.35,6.65-.64,9.88,1.2,5.51,5.71,10.98,11.48,11.81.55,3.03,1.55,5.98,2.91,8.76.23.01.46.03.69.03-.23,0-.46-.01-.69-.03,2.35,4.8,5.79,9.09,9.96,12.46.08-.69.02-1.34-.27-1.94.3.59.35,1.25.27,1.94,1.82,1.47,3.77,2.78,5.84,3.86-.15,1.89-.17,3.7-.22,5.12-.36,8.87.22,17.84-1.17,26.64-.47,2.95-.89,5.88-1.25,8.82-.64,0-1.29,0-1.93.01-2.09-6.79-4.04-13.63-5.75-20.52-.44-1.76-.88-3.58-1.26-5.38,2.63-.63,4.03-5.01,4.66-7.2.74-2.56,1.24-5.18,1.68-7.8.15-.89-.12-1.88-.83-2.42-.72,2.53-2.58,5.34-1.54,7.43-1.04-2.09.81-4.9,1.54-7.43-.21-.16-.45-.28-.74-.35-1.09-.25-2.56.33-2.77,1.57-.37,2.22-.79,4.44-1.36,6.62-.2.79-.43,1.57-.68,2.35-.09.28-.19.56-.29.83-.05.14-.11.28-.16.43,0,.01-.01.03-.02.04-.1.22-.22.43-.32.65-.01-.12-.03-.25-.04-.37-.13-1.65-1.83-2.86-3.39-1.94-1.74,1.03-3.49,2.06-5.23,3.09-.98.58-1.99,1.13-2.96,1.75-1.04.66-1.45,1.58-1.95,2.68-.18.4-.35.81-.53,1.21-8.68,3.32-17.32,6.95-25.57,11.22-.23.12-.47.24-.7.36-.29-.14-.61-.23-.96-.23-.21,0-.42-.02-.63-.04-.03,0-.06,0-.08-.01-.14-.03-.29-.06-.43-.1-.26-.07-.52-.14-.77-.23-.15-.05-.3-.11-.45-.16-.01,0-.02,0-.03-.01-.57-.27-1.14-.56-1.67-.9-.26-.16-.51-.33-.76-.51-.07-.05-.16-.14-.22-.2.03.03.07.07.16.16-.12-.12-.27-.22-.4-.33-.49-.42-.95-.87-1.37-1.36-.04-.05-.11-.15-.16-.22.03.04.06.1.12.19-.08-.14-.2-.27-.29-.4-.16-.23-.3-.47-.44-.72-.06-.12-.12-.24-.18-.37,0-.02,0-.03-.02-.05-.09-.25-.16-.5-.21-.76,0-.01,0-.01,0-.02,0-.12-.02-.25-.02-.37,0-.11.01-.21.02-.32,0-.03,0-.05.02-.08.25-1.15-.34-2.49-1.57-2.77-.48-.11-1-.06-1.46.12v4.99-4.99c-.63.25-1.16.74-1.31,1.45-1.11,5.18,3.37,9.43,7.74,11.43-.16.13-.34.24-.49.37-1.54,1.35-2.68,3.2-3.64,4.98-2.46,4.56-4.14,9.57-5.65,14.51-.88,2.9-1.68,5.83-2.38,8.78h4.6c1.56-6.48,3.49-13.02,6.31-19.02.83-1.77,1.75-3.64,3.02-5.14,1.32-1.55,3.34-2.43,5.34-3.49,5.3-2.83,10.81-5.28,16.35-7.62,1.89-.8,3.79-1.58,5.7-2.34-.46,1.12-.93,2.23-1.38,3.36-.83,2.09-2.26,4.68-2.27,7-.01,2.9,4.49,2.9,4.5,0,0,.31-.05.17.12-.34.16-.49.31-.98.48-1.46.47-1.35.99-2.67,1.52-4,1.27-3.19,2.61-6.36,4.05-9.48.11-.24.45-.69.44-.93,0,0,0-.01,0-.02.1-.07.2-.14.24-.17.95-.56,1.9-1.12,2.85-1.68.65-.39,1.3-.77,1.96-1.16.97,6.71,3.06,13.37,4.92,19.81,2.35,8.14,4.91,16.22,7.56,24.26.03.1.07.21.1.31-.02.7,0,1.41-.02,2.12h4.48c0-7.05.41-14.13,1.54-21.08.62-3.8,1.31-7.56,1.62-11.4.31-3.89.38-7.79.42-11.7.04-3.9.05-7.81.27-11.71.14-2.56-.15-6.67,1.58-8.81.62-.76,1.5-.94,2.28-.04,1.7,1.96,1.04,5.53.95,7.9-.3,8.09-.31,16.18-.55,24.27-.07,2.41,2.98,2.82,4.19,1.14.94-1.3,2.28-6.54,4.73-4.91.97.65,1.03,2.2.88,3.48-.18.64-.3,1.32-.33,2.02-.1,2.53,3.82,3.07,4.42.6.13-.52.22-1.08.29-1.65.06-.23.13-.43.17-.51.35-.69,1.16-.97,2.05-.22,1.03.87.78,2.84.35,4.49-.25.63-.44,1.26-.58,1.87-.65,2.85,3.36,3.9,4.34,1.2.19-.54.37-1.11.51-1.71.38-.93.96-1.74,1.83-1.42,3.23,1.17,1.36,6.64.93,8.97-1.26,6.74-1.98,13.88-6.25,19.23h6.56c4.27-12.63,8.33-25.4,11.51-38.34.66-2.69,1.3-5.43,1.74-8.18.61.36,1.22.72,1.83,1.08.97.57,1.94,1.15,2.91,1.72.08.05.2.13.31.22.14.3.44.93.46.96,1.41,3.05,2.72,6.14,3.96,9.26.56,1.4,1.1,2.8,1.6,4.22.16.45.32.9.45,1.36.13.43.15.98.15.45.01,2.89,4.51,2.9,4.5,0,0-2.25-1.38-4.75-2.19-6.79-.51-1.3-1.05-2.59-1.59-3.89,4.54,2.47,9.07,4.94,13.58,7.45,2.12,1.18,4.23,2.37,6.33,3.58,1.77,1.01,3.53,1.93,4.97,3.41,3.08,3.17,4.84,7.55,6.19,11.68,1.27,3.87,2.17,7.84,3.06,11.81h4.61c-1.9-8.53-3.68-17.77-9.1-24.81-2.84-3.7-6.89-5.67-10.87-7.91ZM16.04,135.51c.32.03.17.02,0,0h0ZM58.51,118.73s-.01,0-.04-.01c-.15-.04-.56-.24.04.01ZM58.03,118.69s0-.01,0-.02c.17.03.47.07.48.06.12.05.26.11.46.2-.3-.13-.62-.21-.94-.24ZM67.18,153.48s0-.02,0-.03c0,0,0,0,.01,0,0,0,0,.02,0,.03ZM107.27,139.04c-1.26-2.71-4.04-4.88-7.08-4.16-.45-1.84-1.51-3.42-3.53-4.23-1.49-.6-2.85-.64-4.02-.26-.53-1.32-1.41-2.46-2.79-3.17-2.01-1.04-4.38-.86-6.21.34.1-5.18.17-10.35.34-15.53,7.78.21,15.03-2.72,20.8-7.77.38,3.93.86,8.01,2.36,11.65.44,1.06.94,2.04,1.63,2.96.59.78,1.25,1.5,1.85,2.27.27.34.66.54,1.08.61-.96,5.74-2.79,11.7-4.43,17.29ZM121.29,123.95s0,.04.03.07c-.03-.03-.05-.05-.03-.07Z"/>
      <path class="cls-3" d="M47.73,93.57c1.16-2.32,3.22-1.95,5.48-1.66-.34-.62-.96-1.07-1.87-1.09-10.42-.16-19.81,7.45-24.1,16.61-1.87,3.99-1.98,8.18-3.16,12.36-1.18,4.2-4.34,10.46-9.51,6.6-1.59-1.19-3.14.27-3.23,1.85.53.1,1.14.07,1.89-.18-.74.25-1.35.28-1.89.18-.04.73.23,1.49.95,2.03,3.58,2.67,8.63,2.27,11.76-.88,2.72-2.74,4.05-6.75,4.85-10.44.72-3.31.87-6.56,2.39-9.66,1.73-3.53,4.21-6.66,7.22-9.17,3.61-3.02,8.06-4.89,12.8-4.81,1.98.03,2.61-2.07,1.87-3.41-2.26-.29-4.32-.66-5.48,1.66Z"/>
      <path class="cls-3" d="M11.55,133.38c-.07-.07-.06-.06,0,0h0Z"/>
      <path class="cls-3" d="M9.77,131.63c-.09-.14-.06-.1,0,0h0Z"/>
      <path class="cls-3" d="M53.86,138.86c-4.16,1.63-8.31,3.26-12.47,4.89-3.05,1.2-5.41,3.67-4.68,7.22.39,1.9,1.82,3.51,2.9,5.07,1.23,1.78,2.46,3.56,3.7,5.34,1.46,2.09,2.92,4.17,4.41,6.24h5.53c-.5-.67-1.05-1.43-1.5-2.05-1.08-1.5-2.15-3.01-3.21-4.53-2.2-3.13-4.37-6.27-6.53-9.43-.76-1.11-1.38-2.01-.3-3.11.2-.2.36-.22.18-.13.07-.03.14-.05.21-.08.28-.12.57-.22.85-.34,2.24-.88,4.48-1.75,6.71-2.63,1.8-.7,3.59-1.41,5.39-2.11,1.13-.44,1.92-1.51,1.57-2.77-.3-1.08-1.63-2.02-2.77-1.57Z"/>
      <path class="cls-3" d="M129.2,143.92c-2.19-.87-4.39-1.72-6.58-2.58-2.11-.83-4.22-1.66-6.34-2.48-1.14-.45-2.46.49-2.77,1.57-.36,1.27.45,2.33,1.57,2.77,3.8,1.49,7.6,2.98,11.4,4.47.56.22,1.15.41,1.7.66.02.02.05.04.09.07.23.18.43.3.58.56.27.47.27.98.06,1.47-.65,1.51-2.01,2.97-2.95,4.32-1.12,1.63-2.25,3.25-3.38,4.88-1.81,2.6-3.84,5.53-5.69,7.98h5.55c1.11-1.54,2.21-3.1,3.3-4.66,1.3-1.86,2.59-3.72,3.88-5.59,1.08-1.57,2.39-3.13,3.26-4.83,1.84-3.57-.22-7.23-3.68-8.62Z"/>
      <path class="cls-1" d="M101.82,139.41c-.87-.32-1.45.49-1.83,1.42-.15.59-.32,1.17-.51,1.71-.98,2.71-4.99,1.65-4.34-1.2.14-.6.33-1.24.58-1.87.43-1.64.68-3.62-.35-4.49-.89-.75-1.69-.47-2.05.22-.04.08-.1.28-.17.51-.07.57-.16,1.12-.29,1.65-.6,2.47-4.52,1.93-4.42-.6.03-.71.15-1.38.33-2.02.15-1.28.09-2.83-.88-3.48-2.45-1.63-3.8,3.61-4.73,4.91-1.21,1.69-4.27,1.27-4.19-1.14.25-8.09.26-16.18.55-24.27.09-2.36.74-5.93-.95-7.9-.78-.9-1.66-.72-2.28.04-1.73,2.13-1.44,6.24-1.58,8.81-.22,3.9-.23,7.81-.27,11.71-.04,3.9-.1,7.8-.42,11.7-.31,3.84-1,7.6-1.62,11.4-1.13,6.95-1.53,14.03-1.54,21.08h25.63c4.27-5.34,5-12.49,6.25-19.23.43-2.32,2.3-7.8-.93-8.97Z"/>
    </g>
  </g>
</svg>