<?xml version="1.0" encoding="UTF-8"?>
<svg id="_レイヤー_2" data-name="レイヤー 2" xmlns="http://www.w3.org/2000/svg" viewBox="0 0 164.67 172.73">
  <defs>
    <style>
      .cls-1 {
        fill: #fff;
      }

      .cls-2 {
        fill: #c8c8c8;
      }

      .cls-3 {
        fill: #323232;
      }
    </style>
  </defs>
  <g id="_レイヤー_1-2" data-name="レイヤー 1">
    <g>
      <path class="cls-1" d="M49.42,101.14c2.57.59,5.31.52,7.95-.38.64-.22,1.19-.14,1.63.1-1.65-1.89-3.25-4.01-4.53-6.28-1.13,2.61-2.88,4.82-5.05,6.55Z"/>
      <path class="cls-1" d="M123.16,76.97s-.05.05-.08.07c.49.87.79,1.87.8,2.94,0,.16-.02.32-.05.47-.24,2.58-2.11,4.98-4.74,5.45-1.19.21-2.32.11-3.42-.29-.66,2.85-1.53,5.61-2.9,8.38-1.63,3.28-3.74,6.29-6.21,8.92.76.07,1.52.09,2.27,0,.12-.02.42-.07.49-.09.18-.04.36-.09.54-.14.24-.07.47-.14.71-.22.05-.02.17-.07.25-.1.35-.16.69-.34,1.02-.54.16-.09.31-.19.46-.3.05-.04.31-.24.4-.3.59-.51,1.14-1.05,1.63-1.65.06-.08.12-.16.17-.24.13-.18.25-.37.37-.56.22-.35.43-.72.62-1.09.09-.18.18-.37.27-.56.02-.05.14-.32.15-.35.17-.44.32-.89.45-1.34.13-.46.24-.93.33-1.4.04-.2.07-.41.11-.62,0-.02,0-.03,0-.05.02-.13.03-.27.04-.4.09-1,.09-2.01.02-3.02-.09-1.22,1.1-2.25,2.25-2.25,1.28,0,2.17,1.04,2.25,2.25.23,3.28-.37,6.6-1.8,9.54,1.99-.51,3.87-1.39,5.25-2.92,1.67-1.86,2.29-4.39,2.44-6.83.32-5.42-1.01-10.81-2.02-16.1-.5,1.22-1.18,2.35-2.09,3.32Z"/>
      <path class="cls-1" d="M103.52,115.96c-.91-2.88-1.27-5.92-1.57-8.94-6.54,4.89-14.69,7.36-23.21,5.8-4.64-.85-9.03-2.85-12.87-5.6-.43,3.42-1.26,6.79-2.55,9.99-1.1,2.71-2.42,5.82-4.9,7.56-.19.14-.41.21-.63.26.2,1.43.41,2.85.62,4.27.32,2.14.68,4.27,1.03,6.41.21.09.42.21.62.39,1.09.95,2.18,1.89,3.28,2.84,7.19,6.24,14.38,12.48,21.58,18.72.55-.49,1.11-.99,1.66-1.48,7.32-6.56,14.65-13.11,21.97-19.67.59-3.59,1.07-7.21,1.31-10.84-.31-.1-.59-.27-.81-.52-2.44-2.7-4.41-5.68-5.52-9.17Z"/>
      <path class="cls-1" d="M118.93,60.15c-.66-.27-1.38-.35-2.1-.29-.16.01-.68.16-.8.14-.07-.01-.11-.03-.14-.04-1.89.94-4.56-.99-3.04-2.96.1-.13.21-.24.32-.35-3.33-3.78-5.8-8.09-7.66-12.78-1.75-4.39-2.93-8.96-4.44-13.43-.1-.3-.13-.58-.12-.84-1.1-1.4-2.47-2.53-4.09-3.41-.79.81-2.11,1.11-3.15.07-2.84-2.84-7.38-3.11-11.16-2.85-3.95.27-8.01,1.34-11.38,3.46-13.14,8.29-14.66,26.09-15.07,40.13-.1,3.49-.14,6.97-.17,10.46-.02,2.09.07,4.18.09,6.27.14.29.22.64.2,1.05-.17,3.59,1.57,6.57,3.51,9.46,1.96,2.93,4.16,5.61,6.86,7.9,9.6,8.16,23.55,9,33.45.86,4.88-4.01,8.56-9.44,10.57-15.42.66-1.95,1.04-3.96,1.37-5.99-.18-.65-.26-1.32-.2-1.96.13-1.38.61-2.55,1.49-3.62,1.46-1.77,4.12-2.51,6.3-1.8,1.39-1.32,1.98-3.14,2.26-5.06.32-2.22.23-4.76-.74-6.81-.47-.99-1.12-1.76-2.15-2.17ZM84.64,76.25c2.9,0,2.9,4.5,0,4.5s-2.9-4.5,0-4.5ZM71.72,62.94c-2.9,0-2.9-4.5,0-4.5s2.9,4.5,0,4.5ZM76.72,49.11c-.12.54-.57,1.07-1.03,1.34-.56.33-1.12.33-1.73.23-.12-.02-.25-.04-.37-.06-.53-.02-.17-.03-.03,0,0,0,.02,0,.03,0,.01,0,.02,0,.03,0-.2,0-.4-.05-.59-.07-.39-.04-.78-.06-1.18-.07-.36-.01-.72,0-1.08,0-.18,0-.36.02-.54.04-.05,0-.16.02-.25.03-.09.01-.18.03-.22.04-.16.03-.32.06-.48.1-.3.07-.59.14-.88.23-.58.18-1.16.39-1.72.63-.54.23-1.24.03-1.73-.23-.52-.27-.86-.8-1.03-1.34-.18-.54-.06-1.25.23-1.73.32-.55.78-.8,1.34-1.03,1.39-.59,2.79-.95,4.3-1.13,1.8-.22,3.6-.02,5.38.26,1.24.2,1.82,1.69,1.57,2.77ZM90.19,93.88c-.38.41-1.04.66-1.59.66-.65,0-1.1-.28-1.59-.66.52.4-.02,0-.13-.08-.16-.1-.31-.2-.48-.3-.16-.09-.32-.17-.48-.25,0,0,0,0-.01,0-.29-.11-.6-.2-.91-.26-.01,0-.02,0-.03,0-.14,0-.28-.02-.42-.02-.14,0-.27.01-.41.02-.02,0-.03,0-.05,0-.34.07-.66.17-.98.29,0,0,0,0,0,0-.17.09-.35.17-.51.27-.36.2-.7.44-1.04.68-1.01.75-2.48.13-3.08-.81-.31-.48-.38-1.2-.23-1.73.17-.61.55-.99,1.03-1.34,1.55-1.14,3.45-1.92,5.4-1.88,2.1.05,3.89.97,5.51,2.23.46.36.63,1.04.66,1.59.03.6-.27,1.16-.66,1.59ZM97.19,62.94c-2.9,0-2.9-4.5,0-4.5s2.9,4.5,0,4.5ZM105.91,49.98c-.12.54-.57,1.07-1.03,1.34-.44.26-1.24.44-1.73.23-.58-.24-1.17-.47-1.77-.65-.29-.09-.59-.16-.89-.23-.16-.04-.32-.07-.49-.1-.03,0-.08-.01-.14-.02-.11-.01-.28-.03-.34-.04-.18-.01-.36-.03-.54-.03-.36-.02-.72-.02-1.08,0-.4.01-.79.04-1.18.08-.1,0-.2.02-.29.03-.03,0-.13.02-.18.02-.02,0-.05,0-.06,0-.11.02-.21.03-.32.05-1.25.2-2.36-.31-2.77-1.57-.17-.54-.06-1.25.23-1.73.26-.44.82-.95,1.34-1.03,1.78-.29,3.58-.49,5.38-.26,1.5.18,2.9.55,4.3,1.13.57.24,1,.51,1.34,1.03.33.51.36,1.16.23,1.73Z"/>
      <path class="cls-1" d="M115.15,25.38c-2.05-5.61-4.87-13.94-11.92-14.42-2.18-.15-2.71-2.75-1.59-3.93-.7-.54-1.49-1-2.48-1.25-.24,1.35-1.75,2.6-3.38,1.78-10.33-5.18-21.68-3.52-31.03,2.91-7.32,5.04-12.65,12.58-15.81,20.82-3.44,8.96-4.86,18.54-6.99,27.86-2.2,9.57-5.47,19.69-4.12,29.62.6,4.41,3.18,8.04,6.66,10.28,2.13-1.07,3.98-2.63,5.22-4.76,2.42-4.18,1.82-9.43,1.73-14.05-.15-7.63,0-15.4.73-23,.75-7.73,2.24-15.56,5.92-22.48,3.59-6.74,9.44-12.19,16.8-14.48,6.86-2.13,16.48-2.74,21.99,2.77,1.02,1.02.75,2.31-.04,3.11,1.62.88,2.99,2.01,4.09,3.41.11-2.11,3.63-2.78,4.46-.35,1.43,4.21,2.56,8.52,4.15,12.68,1.7,4.45,4.07,8.61,7.3,12.13.36.39.54.81.59,1.24,1.64.11,3.33.68,4.61,1.49-.38-2.11-.76-4.22-1.11-6.34-1.39-8.43-2.85-16.98-5.8-25.03Z"/>
      <path class="cls-1" d="M83.35,162.24c-1.09-.95-2.18-1.89-3.28-2.84-6.5-5.64-13-11.28-19.5-16.91,1.64,9.44,3.46,18.85,5.34,28.23.17.84-.1,1.53-.56,2.02h36.39c.16-.51.36-1.01.56-1.52-.66-.48-1.06-1.28-.78-2.3.39-1.44.76-2.89,1.12-4.34,1.74-6.92,3.3-13.88,4.62-20.89-6.91,6.19-13.82,12.37-20.73,18.56-.96.86-2.22.83-3.18,0Z"/>
      <path class="cls-2" d="M156.76,157.96c-1.38-4.62-3.09-9.31-5.93-13.26-2.65-3.68-6.92-5.71-10.76-7.92-5.08-2.91-10.24-5.67-15.44-8.37,1.37,3.45,2.68,6.91,3.92,10.41.71,2.01,1.99,4.49,1.99,6.68,0,2.9-4.5,2.9-4.5,0,0,.69.02.11-.11-.32-.14-.44-.26-.88-.4-1.32-.43-1.35-.9-2.7-1.38-4.04-1.24-3.48-2.54-6.93-3.91-10.36-.59-1.47-1.18-2.95-1.82-4.4-.13-.3-.26-.59-.39-.89-.08-.17-.15-.33-.23-.5-.13-.04-.26-.08-.33-.11-.99-.44-1.99-.88-2.98-1.32-.08,3.22-.4,6.43-.8,9.62-1.63,12.89-4.43,25.71-7.83,38.25-.48,1.78-2.41,1.94-3.56,1.1-.2.51-.4,1.01-.56,1.52h18.91c2.75-6.14,5.5-12.29,8.25-18.43-4.15-1.98-8.48-3.67-12.69-5.5-1.12-.49-1.36-2.13-.81-3.08.66-1.14,1.96-1.29,3.08-.81,4.82,2.09,9.81,3.98,14.49,6.36,1.18.6,1.28,2.02.81,3.08-2.74,6.13-5.48,12.25-8.22,18.38h34.82c-.04-.1-.08-.19-.1-.31-1.1-4.84-2.09-9.7-3.51-14.47Z"/>
      <path class="cls-2" d="M60.52,166.57c-1.63-8.34-3.2-16.7-4.65-25.07-1.1-6.37-2.35-12.84-2.97-19.31-1.48.89-2.95,1.79-4.43,2.68-2.59,6.89-4.91,13.91-6.77,21.03-.73,2.8-5.07,1.61-4.34-1.2,1.52-5.82,3.32-11.62,5.37-17.3-2.96,1.05-5.92,2.14-8.84,3.28-5.63,2.21-11.38,4.51-16.54,7.7-3.61,2.23-5.56,7-7.05,10.94-2.78,7.36-4.66,15.19-5.92,22.95-.03.16-.07.3-.12.43h36.86c-2.89-6.26-5.78-12.52-8.66-18.78-.48-1.05-.35-2.49.81-3.08,4.68-2.38,9.67-4.27,14.49-6.36,1.12-.49,2.4-.34,3.08.81.56.96.31,2.59-.81,3.08-4.2,1.82-8.52,3.51-12.67,5.49,2.63,5.7,5.26,11.4,7.89,17.1.26.57.34,1.19.2,1.75h16.48c-.15-.22-.27-.49-.34-.82-.36-1.78-.71-3.55-1.05-5.33Z"/>
      <path class="cls-3" d="M84.67,88.47c-1.95-.04-3.85.74-5.4,1.88-.49.36-.87.74-1.03,1.34-.15.54-.08,1.26.23,1.73.6.94,2.07,1.55,3.08.81.33-.25.68-.48,1.04-.68.17-.1.34-.18.51-.27,0,0,0,0,0,0,.32-.11.65-.22.98-.29.02,0,.03,0,.05,0,.14,0,.27-.02.41-.02.14,0,.28.01.42.02.01,0,.02,0,.03,0,.31.06.61.15.91.26,0,0,0,0,.01,0,.16.09.32.16.48.25.16.09.32.19.48.3.11.07.65.48.13.08.49.38.94.66,1.59.66.55,0,1.21-.25,1.59-.66.39-.43.69-.99.66-1.59-.02-.55-.2-1.23-.66-1.59-1.62-1.26-3.41-2.18-5.51-2.23Z"/>
      <path class="cls-3" d="M154.96,13.86c-3.39-.9-7.37.09-9.66,2.83-.78.93-.91,2.27,0,3.18.8.8,2.4.94,3.18,0,1.37-1.64,3.36-2.18,5.28-1.68,1.91.51,3.11,2.16,3.2,4.05.1,2.23-.85,3.86-3.06,4.97-2.59,1.3-5.37,1.88-7.12,4.38-1.09,1.56-1.78,3.55-2.16,5.42-.24,1.19.34,2.43,1.57,2.77,1.11.31,2.53-.37,2.77-1.57.12-.61.3-1.22.49-1.81.09-.27.18-.54.29-.81,0-.02.05-.13.07-.18.05-.11.1-.23.16-.34.12-.24.25-.49.39-.72.08-.13.16-.26.25-.39.05-.08.04-.07.02-.05.01-.01.04-.04.1-.11.06-.07.39-.34.42-.39.32-.21.66-.39,1-.56.67-.33,1.37-.6,2.07-.89,1.67-.69,3.33-1.44,4.63-2.73,4.77-4.76,2.74-13.62-3.88-15.38Z"/>
      <path class="cls-3" d="M144.01,42.35c-2.9,0-2.9,4.5,0,4.5s2.9-4.5,0-4.5Z"/>
      <path class="cls-3" d="M104.34,47.21c-1.39-.59-2.8-.95-4.3-1.13-1.8-.22-3.6-.02-5.38.26-.52.09-1.09.6-1.34,1.03-.28.48-.4,1.19-.23,1.73.41,1.26,1.52,1.77,2.77,1.57.11-.02.21-.03.32-.05.01,0,.04,0,.06,0,.06,0,.15-.02.18-.02.1-.01.2-.02.29-.03.39-.04.79-.07,1.18-.08.36-.01.72-.01,1.08,0,.18,0,.36.02.54.03.06,0,.23.02.34.04.06,0,.11.02.14.02.16.03.32.06.49.1.3.07.59.14.89.23.6.18,1.19.4,1.77.65.5.21,1.29.03,1.73-.23.47-.27.91-.81,1.03-1.34.13-.58.1-1.22-.23-1.73-.34-.53-.77-.79-1.34-1.03Z"/>
      <path class="cls-3" d="M73.58,50.62s-.02,0-.03,0c-.15-.02-.51-.02.03,0Z"/>
      <path class="cls-3" d="M75.15,46.34c-1.78-.29-3.58-.49-5.38-.26-1.5.19-2.9.55-4.3,1.13-.57.24-1.02.48-1.34,1.03-.28.48-.4,1.19-.23,1.73.18.54.51,1.07,1.03,1.34.5.26,1.19.46,1.73.23.56-.24,1.13-.45,1.72-.63.29-.09.59-.17.88-.23.16-.04.32-.07.48-.1.04,0,.13-.02.22-.04.09-.01.21-.02.25-.03.18-.02.36-.03.54-.04.36-.02.72-.02,1.08,0,.39.01.79.04,1.18.07.2.02.4.06.59.07-.01,0-.02,0-.03,0,.12.02.25.04.37.06.62.1,1.18.1,1.73-.23.47-.27.91-.81,1.03-1.34.25-1.08-.33-2.57-1.57-2.77Z"/>
      <path class="cls-3" d="M97.19,58.44c-2.9,0-2.9,4.5,0,4.5s2.9-4.5,0-4.5Z"/>
      <path class="cls-3" d="M84.64,76.25c-2.9,0-2.9,4.5,0,4.5s2.9-4.5,0-4.5Z"/>
      <path class="cls-3" d="M71.72,58.44c-2.9,0-2.9,4.5,0,4.5s2.9-4.5,0-4.5Z"/>
      <path class="cls-1" d="M119.29,79.45s0-.03-.02-.07c0,0,0,0,0,0-.07-.13-.15-.26-.23-.38-.04-.04-.08-.09-.12-.13-.04-.04-.09-.08-.13-.12-.12-.08-.25-.15-.38-.23-.02,0-.05-.02-.07-.02-.08-.02-.16-.03-.24-.05-.19-.01-.39-.01-.58,0-.08.02-.16.03-.24.05,0,0-.03,0-.07.02,0,0,0,0,0,0-.13.07-.26.15-.38.23-.04.04-.09.08-.13.12-.04.04-.08.09-.12.13-.08.12-.15.25-.23.38,0,.02-.02.05-.02.07-.02.08-.03.16-.05.24-.01.19-.01.39,0,.58.02.08.03.16.05.24,0,0,0,.03.02.07,0,0,0,0,0,0,.07.13.15.26.23.38.04.04.08.09.12.13.04.04.08.08.13.12.12.08.25.15.38.23.02,0,.05.02.07.02.08.02.16.03.24.05.19.01.39.01.58,0,.08-.02.16-.03.24-.05,0,0,.03,0,.07-.02,0,0,0,0,0,0,.13-.07.26-.15.38-.23.04-.04.09-.08.13-.12.04-.04.08-.09.12-.13.08-.12.15-.25.23-.38,0-.02.02-.05.02-.07.03-.11.05-.23.08-.35,0-.06.01-.12.01-.19,0-.06,0-.12-.01-.19-.02-.12-.04-.23-.08-.35Z"/>
      <path class="cls-1" d="M118.58,81.39s0,0,.02,0c0,0-.01,0-.02,0Z"/>
      <path class="cls-1" d="M119.22,79.22s0,0,0-.02c0,0,0,.01,0,.02Z"/>
      <path class="cls-1" d="M116.41,80.75s0,0,0,.02c0,0,0-.01,0-.02Z"/>
      <path class="cls-1" d="M117.03,78.59s.01,0,.02,0c0,0,0,0-.02,0Z"/>
      <path class="cls-3" d="M155.58,143.71c-2.65-4.22-6.21-6.68-10.42-9.18-4.69-2.78-9.48-5.39-14.29-7.95-2.86-1.52-5.73-3.02-8.62-4.49-.1-.05-.2-.08-.3-.11-.4-.88-.85-1.63-1.8-2.12-2.19-1.13-4.54-2.02-6.79-3.02-1.46-.65-3.46.08-3.39,1.94,0,.11,0,.23,0,.34-.2-.3-.4-.62-.6-.96-.36-.61-.68-1.24-.97-1.89-.02-.05-.03-.06-.03-.06,0-.02-.02-.04-.04-.11-.07-.17-.13-.34-.19-.51-.13-.34-.24-.69-.35-1.04-.75-2.45-1.06-4.75-1.31-7.15,3.34.33,6.63-.74,9.19-2.83.17.02.35.03.55.01,6.69-.65,12.9-3.49,14.85-10.42,1.68-5.95.27-12.5-.87-18.41-1.49-7.74-3.11-15.44-4.38-23.23-1.56-9.53-3.01-19.23-6.34-28.34-2.88-7.87-6.71-17.08-16.26-17.72-.71-.05-1.23.19-1.59.57.59.46,1.12.99,1.65,1.51-.53-.53-1.06-1.05-1.65-1.51-1.12,1.18-.58,3.79,1.59,3.93,7.05.48,9.86,8.81,11.92,14.42,2.95,8.06,4.41,16.6,5.8,25.03.35,2.12.72,4.23,1.11,6.34-1.28-.8-2.97-1.38-4.61-1.49-.05-.42-.24-.85-.59-1.24-3.23-3.52-5.6-7.68-7.3-12.13-1.59-4.16-2.72-8.47-4.15-12.68-.83-2.43-4.35-1.76-4.46.35,1,1.27,1.78,2.76,2.35,4.46-.57-1.7-1.35-3.19-2.35-4.46-.01.26.02.54.12.84,1.52,4.46,2.7,9.04,4.44,13.43,1.87,4.69,4.33,9,7.66,12.78-.11.11-.22.22-.32.35-1.51,1.97,1.16,3.9,3.04,2.96.03.02.07.03.14.04.12.02.64-.12.8-.14.71-.06,1.43.02,2.1.29,1.03.41,1.68,1.18,2.15,2.17.98,2.05,1.06,4.59.74,6.81-.28,1.92-.87,3.74-2.26,5.06-2.18-.71-4.84.03-6.3,1.8-.88,1.07-1.36,2.24-1.49,3.62-.06.64.02,1.32.2,1.96-.33,2.03-.71,4.04-1.37,5.99-2.02,5.98-5.69,11.41-10.57,15.42-9.9,8.14-23.85,7.3-33.45-.86-2.69-2.29-4.89-4.97-6.86-7.9-1.94-2.89-3.68-5.88-3.51-9.46.02-.41-.06-.75-.2-1.05-.03-2.09-.11-4.18-.09-6.27.04-3.49.07-6.98.17-10.46.41-14.03,1.93-31.84,15.07-40.13,3.36-2.12,7.43-3.19,11.38-3.46,3.78-.26,8.32.01,11.16,2.85,1.03,1.03,2.35.74,3.15-.07-.8-.43-1.64-.82-2.56-1.13.92.31,1.76.69,2.56,1.13.78-.8,1.05-2.09.04-3.11-5.51-5.51-15.13-4.9-21.99-2.77-7.36,2.28-13.21,7.74-16.8,14.48-3.69,6.92-5.18,14.75-5.92,22.48-.73,7.6-.88,15.36-.73,23,.09,4.62.69,9.88-1.73,14.05-1.23,2.13-3.09,3.69-5.22,4.76-3.48-2.24-6.06-5.87-6.66-10.28-1.35-9.93,1.92-20.05,4.12-29.62,2.14-9.32,3.55-18.9,6.99-27.86,3.17-8.24,8.49-15.78,15.81-20.82,9.34-6.43,20.7-8.09,31.03-2.91,1.63.82,3.13-.43,3.38-1.78-.56-.14-1.17-.23-1.87-.23.7,0,1.31.09,1.87.23.14-.79-.15-1.63-1.1-2.1-10.31-5.17-21.77-4.82-31.89.65-8.78,4.75-15.63,12.61-19.81,21.62-4.52,9.73-6.14,20.39-8.47,30.77-2.4,10.71-6.02,21.86-4.44,32.96.62,4.32,2.75,8.1,5.77,10.93-1.13.13-2.26.17-3.37.07-2.88-.25-2.87,4.25,0,4.5,2.9.26,5.77-.15,8.39-1.12,4.36,2.12,9.48,2.68,14.33,1.04.46-.15.79-.41,1.04-.72-.78.16-1.69.16-2.82.16,1.12,0,2.04,0,2.82-.16.58-.71.64-1.72.28-2.51.32.35.64.7.96,1.03.18.19.38.37.58.56.48-.44.92-1.04,1.36-1.92-.44.88-.88,1.48-1.36,1.92.22.21.44.43.66.64-.29.38-.47.86-.51,1.37-.28,3.39-1.16,6.83-2.4,10.04-.43,1.11-1.01,2.38-1.71,3.57-.08.14-.18.28-.27.42-.03-.38-.07-.76-.09-1.14-.09-1.65-1.86-2.87-3.39-1.94-1.73,1.05-3.47,2.1-5.2,3.15-1.13.68-2.49,1.27-3.4,2.24-.05.01-.1.02-.16.04-9.69,3.24-19.64,6.8-28.55,11.85-4.45,2.52-7.01,6.31-9.04,10.93-2.31,5.27-3.94,10.81-5.28,16.4-.8,3.32-1.52,6.67-2.07,10.04-.1.64.04,1.18.33,1.63h3.9c.05-.13.09-.28.12-.43,1.26-7.76,3.14-15.59,5.92-22.95,1.49-3.94,3.45-8.72,7.05-10.94,5.16-3.19,10.91-5.5,16.54-7.7,2.93-1.15,5.88-2.23,8.84-3.28-2.06,5.68-3.85,11.48-5.37,17.3-.73,2.8,3.61,4,4.34,1.2,1.86-7.12,4.18-14.14,6.77-21.03,1.48-.89,2.95-1.79,4.43-2.68.62,6.47,1.87,12.93,2.97,19.31,1.45,8.37,3.02,16.73,4.65,25.07.35,1.78.7,3.56,1.05,5.33.07.33.19.6.34.82h3.43c.47-.49.73-1.18.56-2.02-1.88-9.38-3.7-18.79-5.34-28.23,6.5,5.64,13,11.28,19.5,16.91,1.09.95,2.18,1.89,3.28,2.84.96.83,2.22.86,3.18,0,6.91-6.19,13.82-12.37,20.73-18.56-1.32,7.01-2.89,13.97-4.62,20.89-.36,1.45-.73,2.9-1.12,4.34-.28,1.02.13,1.82.78,2.3.49-1.22.99-2.44.99-3.66,0,1.22-.5,2.44-.99,3.66,1.15.84,3.07.68,3.56-1.1,3.39-12.54,6.2-25.36,7.83-38.25.4-3.19.73-6.4.8-9.62.99.44,1.99.88,2.98,1.32.07.03.2.07.33.11.08.17.15.33.23.5.13.29.26.59.39.89.64,1.45,1.23,2.93,1.82,4.4,1.36,3.43,2.67,6.88,3.91,10.36.48,1.34.95,2.68,1.38,4.04.14.44.27.88.4,1.32.13.42.11,1,.11.32,0,2.9,4.5,2.9,4.5,0,0-2.19-1.27-4.67-1.99-6.68-1.24-3.49-2.55-6.96-3.92-10.41,5.2,2.7,10.36,5.46,15.44,8.37,3.84,2.21,8.11,4.24,10.76,7.92,2.84,3.95,4.54,8.64,5.93,13.26,1.42,4.76,2.41,9.62,3.51,14.47.03.11.07.21.1.31h4.07c.21-.42.3-.92.16-1.5-2.12-9.33-3.85-19.29-9.03-27.52ZM119.22,79.22s0,0,0-.02c0,0,0,0,0,.02ZM117.05,78.58s-.01,0-.02,0c0,0,.01,0,.02,0ZM116.29,79.69c.02-.08.03-.16.05-.24,0-.02.02-.05.02-.07.07-.13.15-.25.23-.38.04-.04.08-.09.12-.13.04-.04.08-.08.13-.12.13-.08.25-.16.38-.23,0,0,0,0,0,0,.03,0,.06-.02.07-.02.08-.02.16-.03.24-.05.19-.01.39-.01.58,0,.08.02.16.03.24.05.02,0,.05.02.07.02.13.07.25.15.38.23.04.04.09.08.13.12.04.04.08.08.12.13.08.13.16.25.23.38,0,0,0,0,0,0,0,.03.02.06.02.07.03.11.05.23.08.35,0,.06.01.12.01.19,0,.06,0,.12-.01.19-.02.12-.04.23-.08.35,0,.02-.02.05-.02.07-.07.13-.15.25-.23.38-.04.04-.08.09-.12.13-.04.04-.08.08-.13.12-.13.08-.25.16-.38.23,0,0,0,0,0,0-.03,0-.06.02-.07.02-.08.02-.16.03-.24.05-.19.01-.39.01-.58,0-.08-.02-.16-.03-.24-.05-.02,0-.05-.02-.07-.02-.13-.07-.25-.15-.38-.23-.04-.04-.09-.08-.13-.12-.04-.04-.08-.08-.12-.13-.08-.13-.16-.25-.23-.38,0,0,0,0,0,0,0-.03-.02-.06-.02-.07-.02-.08-.03-.16-.05-.24-.01-.19-.01-.39,0-.58ZM118.6,81.38s0,0-.02,0c0,0,0,0,.02,0ZM116.42,80.76s0-.01,0-.02c0,0,0,.01,0,.02ZM112.77,93.99c1.37-2.76,2.25-5.53,2.9-8.38,1.11.4,2.23.51,3.42.29,2.63-.47,4.5-2.88,4.74-5.45.03-.15.05-.31.05-.47-.01-1.07-.31-2.07-.8-2.94.02-.03.05-.05.08-.07.91-.97,1.59-2.1,2.09-3.32,1.01,5.29,2.34,10.68,2.02,16.1-.14,2.44-.76,4.97-2.44,6.83-1.38,1.53-3.27,2.41-5.25,2.92,1.43-2.94,2.03-6.26,1.8-9.54-.08-1.21-.97-2.25-2.25-2.25-1.15,0-2.34,1.03-2.25,2.25.07,1.01.07,2.01-.02,3.02-.01.13-.03.27-.04.4,0,.02,0,.03,0,.05-.03.21-.07.41-.11.62-.09.47-.2.94-.33,1.4-.13.45-.28.9-.45,1.34-.01.03-.13.3-.15.35-.09.19-.17.37-.27.56-.19.37-.4.74-.62,1.09-.12.19-.24.37-.37.56-.06.08-.11.16-.17.24-.5.6-1.04,1.15-1.63,1.65-.08.06-.34.26-.4.3-.15.1-.31.2-.46.3-.33.2-.68.37-1.02.54-.08.04-.21.09-.25.1-.23.08-.47.16-.71.22-.18.05-.36.1-.54.14-.06.01-.36.06-.49.09-.76.08-1.52.07-2.27,0,2.47-2.63,4.58-5.64,6.21-8.92ZM57.37,100.77c-2.65.89-5.39.96-7.95.38,2.17-1.73,3.92-3.94,5.05-6.55,1.28,2.26,2.89,4.38,4.53,6.28-.44-.24-.99-.32-1.63-.1ZM108.55,136.5c-7.32,6.56-14.65,13.11-21.97,19.67-.55.49-1.11.99-1.66,1.48-7.19-6.24-14.39-12.48-21.58-18.72-1.09-.95-2.18-1.89-3.28-2.84-.2-.17-.41-.29-.62-.39-.35-2.14-.71-4.27-1.03-6.41-.22-1.42-.43-2.84-.62-4.27.22-.05.44-.13.63-.26,2.49-1.73,3.81-4.84,4.9-7.56,1.29-3.2,2.12-6.57,2.55-9.99,3.84,2.75,8.23,4.75,12.87,5.6,8.52,1.56,16.66-.91,23.21-5.8.3,3.02.66,6.06,1.57,8.94,1.11,3.49,3.08,6.47,5.52,9.17.23.25.51.42.81.52-.24,3.63-.72,7.25-1.31,10.84Z"/>
      <path class="cls-3" d="M47.75,144.5c-4.82,2.09-9.81,3.98-14.49,6.36-1.16.59-1.29,2.03-.81,3.08,2.89,6.26,5.78,12.52,8.66,18.78h4.32c.14-.56.06-1.18-.2-1.75-2.63-5.7-5.26-11.4-7.89-17.1,4.14-1.98,8.46-3.66,12.67-5.49,1.11-.48,1.37-2.12.81-3.08-.67-1.15-1.96-1.29-3.08-.81Z"/>
      <path class="cls-3" d="M132.97,151.27c-4.69-2.38-9.67-4.27-14.49-6.36-1.11-.48-2.41-.33-3.08.81-.56.95-.31,2.59.81,3.08,4.21,1.83,8.54,3.52,12.69,5.5-2.75,6.14-5.5,12.29-8.25,18.43h4.9c2.74-6.13,5.48-12.25,8.22-18.38.47-1.06.37-2.48-.81-3.08Z"/>
    </g>
  </g>
</svg>