<svg width="32" height="32" viewBox="0 0 32 32" fill="none" xmlns="http://www.w3.org/2000/svg">
<path fill-rule="evenodd" clip-rule="evenodd" d="M16 16.0002C16 13.4228 18.0893 11.3335 20.6667 11.3335C23.244 11.3335 25.3333 13.4228 25.3333 16.0002C25.3333 18.5775 23.244 20.6668 20.6667 20.6668C18.0893 20.6668 16 18.5775 16 16.0002Z" fill="#1ABCFE"/>
<path fill-rule="evenodd" clip-rule="evenodd" d="M6.66675 25.3332C6.66675 22.7558 8.75609 20.6665 11.3334 20.6665H16.0001V25.3332C16.0001 27.9105 13.9107 29.9998 11.3334 29.9998C8.75609 29.9998 6.66675 27.9105 6.66675 25.3332Z" fill="#0ACF83"/>
<path fill-rule="evenodd" clip-rule="evenodd" d="M16 2V11.3333H20.6667C23.244 11.3333 25.3333 9.244 25.3333 6.66667C25.3333 4.08934 23.244 2 20.6667 2H16Z" fill="#FF7262"/>
<path fill-rule="evenodd" clip-rule="evenodd" d="M6.66675 6.66667C6.66675 9.244 8.75609 11.3333 11.3334 11.3333H16.0001V2H11.3334C8.75609 2 6.66675 4.08934 6.66675 6.66667Z" fill="#F24E1E"/>
<path fill-rule="evenodd" clip-rule="evenodd" d="M6.66675 16.0002C6.66675 18.5775 8.75609 20.6668 11.3334 20.6668H16.0001V11.3335H11.3334C8.75609 11.3335 6.66675 13.4228 6.66675 16.0002Z" fill="#A259FF"/>
</svg>
