<svg width="32" height="32" viewBox="0 0 32 32" fill="none" xmlns="http://www.w3.org/2000/svg">
<path d="M16.0083 29.665L21.5283 12.6763H10.4883L16.0083 29.665Z" fill="#E24329"/>
<path d="M16.0086 29.665L10.4886 12.6763H2.75244L16.0086 29.665Z" fill="#FC6D26"/>
<path d="M2.75225 12.6763L1.07482 17.839C0.921818 18.3098 1.08939 18.8257 1.48996 19.1167L16.0084 29.665L2.75225 12.6763Z" fill="#FCA326"/>
<path d="M2.75269 12.6763H10.4888L7.16411 2.44419C6.99311 1.91762 6.24826 1.91776 6.07726 2.44419L2.75269 12.6763Z" fill="#E24329"/>
<path d="M16.0095 29.665L21.5295 12.6763H29.2657L16.0095 29.665Z" fill="#FC6D26"/>
<path d="M29.2657 12.6763L30.9431 17.839C31.0961 18.3098 30.9285 18.8257 30.528 19.1167L16.0095 29.665L29.2657 12.6763Z" fill="#FCA326"/>
<path d="M29.2652 12.6763H21.5291L24.8538 2.44419C25.0248 1.91762 25.7696 1.91776 25.9406 2.44419L29.2652 12.6763Z" fill="#E24329"/>
</svg>
