<svg width="32" height="33" viewBox="0 0 32 33" fill="none" xmlns="http://www.w3.org/2000/svg">
<path d="M22.6014 8.8894L16.07 13.9866L9.38928 8.8894V8.89078L9.39735 8.89767V16.0351L15.9947 21.2425L22.6014 16.2362V8.8894Z" fill="#EA4335"/>
<path d="M24.3166 7.64905L22.6013 8.88891V16.2357L27.9986 12.0919V9.59562C27.9986 9.59562 27.3435 6.03035 24.3166 7.64905Z" fill="#FBBC05"/>
<path d="M22.6013 16.2359V25.7649H26.7381C26.7381 25.7649 27.9152 25.6437 28 24.3019V12.092L22.6013 16.2359Z" fill="#34A853"/>
<path d="M9.39766 25.7726V16.0342L9.38928 16.0273L9.39766 25.7726Z" fill="#C5221F"/>
<path d="M9.38924 8.89069L7.68341 7.65772C4.6565 6.03902 4 9.60292 4 9.60292V12.0992L9.38924 16.0281V8.89069Z" fill="#C5221F"/>
<path d="M9.38928 8.89062V16.0281L9.39766 16.035V8.89751L9.38928 8.89062Z" fill="#C5221F"/>
<path d="M4 12.1001V24.3099C4.08341 25.6531 5.26188 25.773 5.26188 25.773H9.39865L9.38924 16.0277L4 12.1001Z" fill="#4285F4"/>
</svg>
