<svg width="40" height="40" viewBox="0 0 40 40" fill="none" xmlns="http://www.w3.org/2000/svg">
<path d="M37.5 20C37.5 29.66 29.6687 37.5 20 37.5C10.3312 37.5 2.5 29.66 2.5 20C2.5 10.3312 10.3312 2.5 20 2.5C29.6687 2.5 37.5 10.3312 37.5 20Z" fill="white"/>
<path d="M14.1334 27.3875C13.9768 27.154 13.8397 26.8391 13.7284 26.4624C11.7201 24.1975 13.2716 20.8646 14.8063 18.6013C14.9534 18.3593 15.1137 18.1255 15.2878 17.9019C16.4587 16.4472 16.7616 15.4348 16.8517 14.0651C16.8624 13.8101 16.8413 13.4726 16.8171 13.0848C16.6932 11.1046 16.4874 7.81468 20.0204 7.523C24.4366 7.15836 24.0769 11.2138 24.0442 13.5915C24.0429 13.6899 24.0415 13.7857 24.0406 13.8779C24.0286 15.3112 24.7766 16.2926 25.5574 17.3169C25.8425 17.691 26.132 18.0708 26.3905 18.4804C26.3981 18.4925 26.4058 18.5047 26.4134 18.5169C27.7778 20.4846 29.1247 23.4212 27.2499 26.2066C26.9864 27.1574 26.5874 28.03 26.0548 28.7402C24.1425 31.2565 22.4428 31.001 21.1155 30.8015C20.7151 30.7414 20.3486 30.6863 20.0204 30.7139C19.4751 30.7471 19.0382 30.8353 18.6607 30.9115C17.2015 31.206 16.6313 31.3211 14.1334 27.3875Z" fill="black"/>
<path d="M22.5176 9.74314C22.4767 10.9086 21.2403 11.921 19.7583 12.0146C18.2763 12.1082 17.1137 11.2234 17.1546 10.0579C17.1956 8.89242 18.4319 7.88005 19.9139 7.78647C21.3959 7.70139 22.5585 8.57765 22.5176 9.74314Z" fill="url(#paint0_linear_8696_11916)"/>
<path fill-rule="evenodd" clip-rule="evenodd" d="M19.832 12.5764C19.8439 13.2102 20.1342 13.7505 20.5418 13.9946C19.2119 13.8754 17.564 14.3617 17.564 15.2817C17.5435 16.8382 16.6772 18.7747 16.0537 20.1685C15.9309 20.4431 15.8174 20.6966 15.7218 20.922C15.3357 21.8779 15.1042 22.9002 15.0767 23.9029C14.0543 22.4936 14.7972 20.6858 15.1978 19.9011C15.7308 18.8686 15.7205 18.7397 15.5135 18.9817C14.7199 20.3312 13.2253 23.0418 15.0968 24.6702C15.1563 25.3973 15.3334 26.1019 15.6481 26.7495C18.1535 31.8028 22.8451 29.7271 24.3926 27.1068C24.5985 26.7343 24.765 26.3738 24.8972 26.0256C24.9746 26.0744 25.0576 26.1121 25.1459 26.137C25.9237 26.3667 27.0864 25.4904 27.3648 24.946C27.7005 24.2228 27.3566 23.7294 26.2103 23.1424C26.1519 23.1135 26.0941 23.0863 26.0371 23.0609C26.4767 21.2097 25.2653 19.2847 24.4 18.4681C24.2386 18.4283 24.2159 18.5198 24.4663 18.7697C25.0113 19.2918 26.1964 21.1538 25.5552 22.8866C25.4496 22.8582 25.348 22.8383 25.2511 22.8273C25.0541 21.645 24.5289 20.7253 24.1618 20.0825C24.0786 19.9369 24.0036 19.8055 23.9423 19.6885C23.8187 19.4524 23.671 19.2079 23.5143 18.9486C22.9104 17.9495 22.1737 16.7306 22.1737 14.9244C22.0814 14.527 21.7064 14.262 21.2072 14.1157C21.7866 13.9988 22.2215 13.3219 22.2065 12.5083C22.1901 11.6321 21.6415 10.9345 20.9865 10.9515C20.3315 10.9685 19.8075 11.7001 19.832 12.5764ZM20.3724 12.772C20.3642 13.257 20.5935 13.6483 20.8964 13.6483C21.1912 13.6483 21.445 13.257 21.4532 12.7805C21.4614 12.2956 21.2321 11.9043 20.9292 11.9043C20.6263 11.9043 20.3806 12.2956 20.3724 12.772Z" fill="url(#paint1_linear_8696_11916)"/>
<path fill-rule="evenodd" clip-rule="evenodd" d="M18.1945 13.9375C18.6694 13.912 19.0133 13.274 18.9723 12.5168C18.9314 11.7597 18.5138 11.1727 18.0389 11.1982C17.564 11.2237 17.2201 11.8618 17.2611 12.6189C17.302 13.3761 17.7196 13.9631 18.1945 13.9375ZM18.4811 12.7805C18.522 13.1804 18.3746 13.5207 18.1617 13.5547C17.9488 13.5802 17.7442 13.2825 17.7032 12.8826C17.6623 12.4828 17.8097 12.1425 18.0225 12.1085C18.2354 12.0829 18.4401 12.3807 18.4811 12.7805Z" fill="url(#paint2_linear_8696_11916)"/>
<path d="M20.4953 12.4999C20.4708 12.7721 20.5936 12.9933 20.7655 13.0103C20.9375 13.0274 21.1012 12.8147 21.1258 12.5509C21.1503 12.2787 21.0275 12.0575 20.8556 12.0405C20.6836 12.0235 20.5199 12.2362 20.4953 12.4999Z" fill="url(#paint3_linear_8696_11916)"/>
<path d="M18.301 12.5675C18.3255 12.7887 18.2355 12.9844 18.1045 13.0014C17.9734 13.0184 17.8506 12.8483 17.8261 12.6186C17.8015 12.3974 17.8916 12.2017 18.0226 12.1847C18.1536 12.1677 18.2764 12.3464 18.301 12.5675Z" fill="url(#paint4_linear_8696_11916)"/>
<path d="M23.3365 21.4409C23.3365 22.9382 21.9528 24.8778 19.5783 24.8608C17.1302 24.8778 16.0903 22.9382 16.0903 21.4409C16.0903 19.9436 17.7115 18.7271 19.7093 18.7271C21.7153 18.7356 23.3365 19.9436 23.3365 21.4409Z" fill="url(#paint5_linear_8696_11916)"/>
<path d="M22.0428 16.7364C22.0182 18.2847 21.0439 18.6505 19.8157 18.6505C18.5875 18.6505 17.6951 18.4208 17.5886 16.7364C17.5886 15.6815 18.5875 15.0689 19.8157 15.0689C21.0439 15.0604 22.0428 15.673 22.0428 16.7364Z" fill="url(#paint6_linear_8696_11916)"/>
<path d="M14.6166 19.1184C15.419 17.8508 17.1138 15.9027 14.9359 19.3907C13.1673 22.2661 14.2809 24.1122 14.854 24.6226C16.5079 26.154 16.4424 27.1833 15.1406 26.3751C12.3485 24.6482 12.9299 21.7387 14.6166 19.1184Z" fill="url(#paint7_linear_8696_11916)"/>
<path d="M26.2349 19.6374C25.539 18.1486 23.3283 14.3713 26.3414 18.7611C29.0843 22.734 27.1602 25.4989 26.8163 25.7711C26.4724 26.0433 25.3179 26.5963 25.6536 25.635C25.9975 24.6737 27.7005 22.8531 26.2349 19.6374Z" fill="url(#paint8_linear_8696_11916)"/>
<path d="M14.0106 31.3772C12.1766 30.3649 9.51554 31.5729 10.4817 28.8335C10.6782 28.2125 10.1951 27.2767 10.5063 26.6727C10.8747 25.9326 11.6689 26.0942 12.1438 25.6008C12.6105 25.0903 12.9053 24.2056 13.7814 24.3417C14.6493 24.4778 15.2306 25.5838 15.8365 26.9449C16.2868 27.9148 17.8753 29.2844 17.7688 30.3734C17.6378 32.0408 15.8119 32.3556 14.0106 31.3772Z" fill="url(#paint9_linear_8696_11916)"/>
<path fill-rule="evenodd" clip-rule="evenodd" d="M12.3458 25.8005C11.8998 26.2883 11.0807 26.1714 10.7519 26.8097C10.5408 27.2195 10.7715 27.8495 10.8026 28.2984C10.841 28.853 10.3813 29.6388 10.6154 30.1124C10.8784 30.6443 12.0662 30.5753 12.5884 30.6516C13.8774 30.8399 16.0079 32.5082 17.1735 31.1768C18.313 29.8752 16.1228 28.2281 15.5855 27.0711C15.2361 26.2862 14.7133 24.7812 13.7399 24.6283C13.0539 24.5219 12.7414 25.3679 12.3458 25.8005ZM13.8229 24.0558C15.0347 24.2458 15.6411 25.8169 16.0884 26.8215C16.7672 28.2784 19.0934 29.8443 17.5857 31.5664C16.2164 33.1304 14.0547 31.4505 12.5108 31.2249C11.7396 31.1123 10.5232 31.1932 10.1197 30.3769C9.77276 29.6751 10.2952 29.0395 10.2467 28.34C10.2054 27.744 9.96956 27.1041 10.2596 26.5383C10.6567 25.7431 11.4233 25.9356 11.9443 25.3989C12.4976 24.791 12.8292 23.9014 13.8229 24.0558Z" fill="#E68C3F"/>
<path d="M26.7262 30.9095C28.069 29.2166 31.0576 29.5654 29.0434 27.2429C28.6176 26.741 28.7486 25.669 28.2246 25.2097C27.6105 24.6482 26.9309 25.1076 26.3087 24.8183C25.6864 24.5035 25.0314 23.8995 24.2699 24.3249C23.5084 24.7588 23.4266 25.8817 23.3529 27.362C23.2874 28.4254 22.354 30.2034 22.8534 31.1818C23.574 32.6961 25.449 32.4919 26.7262 30.9095Z" fill="url(#paint10_linear_8696_11916)"/>
<path fill-rule="evenodd" clip-rule="evenodd" d="M27.2626 24.6226C27.6069 24.6135 28.0192 24.6377 28.4065 24.9905C28.8881 25.4151 28.8928 26.1083 29.0744 26.6886C29.2895 27.3759 30.0431 27.7686 29.998 28.5744C29.9243 29.8919 27.6428 30.2093 26.9404 31.0948C26.2657 31.9307 25.4126 32.4285 24.6031 32.4956C23.3755 32.5974 22.3614 31.5651 22.4333 30.3047C22.4915 29.2844 23.0113 28.3574 23.0746 27.3453C23.1111 26.6124 23.1505 25.9329 23.283 25.3811C23.4169 24.8235 23.6581 24.3433 24.1358 24.0711C25.1821 23.4867 26.1928 24.6506 27.2626 24.6226ZM24.4028 24.5795C24.1196 24.7413 23.9395 25.0394 23.8238 25.5213C23.7067 26.009 23.6681 26.634 23.6309 27.3806C23.5684 28.3952 23.0477 29.3214 22.9896 30.339C22.9379 31.2464 23.6349 31.995 24.5588 31.9184C25.186 31.8664 25.9095 31.4703 26.5119 30.7245C27.0501 30.0465 29.3926 29.4169 29.4416 28.5409C29.4736 27.9688 28.7211 27.4322 28.5444 26.8677C28.4062 26.4259 28.3988 25.7414 28.0448 25.4311C27.8186 25.2242 27.5806 25.1935 27.2767 25.2015C26.3958 25.2246 25.2206 24.1238 24.4028 24.5795Z" fill="#E68C3F"/>
<path d="M26.145 28.6466C28.2247 25.4564 26.6772 25.4819 26.1532 25.2352C25.6291 24.98 25.0806 24.478 24.4665 24.8268C23.8524 25.1841 23.8196 26.1029 23.8033 27.311C23.7787 28.1787 23.0827 29.6335 23.5003 30.4416C24.008 31.386 25.2361 30.0163 26.145 28.6466Z" fill="url(#paint11_linear_8696_11916)"/>
<path d="M13.585 29.1061C10.4736 27.0133 11.931 26.2987 12.3977 25.9669C12.9627 25.5415 12.9709 24.7248 13.6668 24.8014C14.3628 24.878 14.7722 25.7712 15.2389 26.8772C15.5828 27.6684 16.7782 28.7233 16.6881 29.6336C16.5735 30.7055 14.9278 29.9994 13.585 29.1061Z" fill="url(#paint12_linear_8696_11916)"/>
<path d="M27.1847 24.9206C26.939 25.3629 25.9401 26.0605 25.2769 25.8734C24.5973 25.6947 24.2862 24.6994 24.4254 23.9507C24.5482 23.1 25.2769 23.0575 26.194 23.4828C27.1683 23.9422 27.4712 24.3336 27.1847 24.9206Z" fill="black"/>
<path d="M26.5132 24.6738C26.3577 24.9801 25.7026 25.465 25.2441 25.3374C24.7856 25.2098 24.5563 24.5207 24.63 24.0018C24.6955 23.4147 25.1868 23.3807 25.8091 23.67C26.4805 23.9932 26.6934 24.2655 26.5132 24.6738Z" fill="url(#paint13_linear_8696_11916)"/>
<path d="M18.0472 13.5719C18.3747 13.2572 19.1689 12.2958 20.6755 13.2997C20.9539 13.4869 21.1831 13.5039 21.7153 13.7421C22.7879 14.2015 22.2803 15.3074 21.134 15.6818C20.6427 15.8434 20.2006 16.4644 19.3163 16.4049C18.5549 16.3623 18.3584 15.8434 17.8917 15.5626C17.0647 15.0777 16.9419 14.4227 17.3922 14.0739C17.8425 13.7251 18.0145 13.5975 18.0472 13.5719Z" fill="url(#paint14_linear_8696_11916)"/>
<path fill-rule="evenodd" clip-rule="evenodd" d="M17.4921 14.213C17.3209 14.3456 17.2664 14.5219 17.323 14.7169C17.4392 15.1174 18.2775 15.6683 18.5985 15.9378C18.781 16.091 18.9897 16.2125 19.3271 16.2313C20.0496 16.28 20.4508 15.7241 21.0838 15.5159C21.5002 15.3799 22.3809 14.8604 22.0892 14.265C21.8402 13.7569 21.0015 13.7255 20.5849 13.4455C19.8678 12.9678 19.3458 12.9712 18.974 13.1053C18.5665 13.2521 17.8612 13.9271 17.4921 14.213ZM18.8644 12.777C19.3481 12.6027 19.977 12.6277 20.7663 13.1537C21.285 13.5024 22.0742 13.4688 22.3871 14.1073C22.7858 14.9208 21.8199 15.6396 21.1843 15.8472C20.5036 16.0713 20.1234 16.6327 19.3064 16.5781C18.8828 16.5542 18.6109 16.3949 18.3883 16.208C17.9265 15.8202 17.1462 15.4518 16.9677 14.8369C16.8687 14.4959 17.0131 14.1506 17.2922 13.9344C17.7434 13.585 18.353 12.9614 18.8644 12.777Z" fill="#E68C3F"/>
<path fill-rule="evenodd" clip-rule="evenodd" d="M21.8429 14.4586C21.8463 14.5225 21.7992 14.5771 21.7377 14.5806C20.8711 14.6297 20.2622 15.6186 19.2835 15.6186C18.7359 15.6186 18.3023 15.3544 17.9924 15.1003C17.93 15.0491 17.3789 14.6242 17.3789 14.516C17.3789 14.452 17.4288 14.4002 17.4904 14.4002C17.6055 14.4002 17.9529 14.7772 18.0822 14.8831C18.3741 15.1224 18.8076 15.387 19.2835 15.387C20.2523 15.387 20.8468 14.3991 21.7256 14.3493C21.787 14.3458 21.8396 14.3948 21.8429 14.4586Z" fill="#E68C3F"/>
<path d="M18.5547 13.4867C18.7185 13.3336 19.2343 12.9167 19.9139 13.3421C20.0613 13.4272 20.2086 13.5208 20.4215 13.6484C20.8555 13.9121 20.6426 14.2949 20.1186 14.5331C19.8811 14.6352 19.4881 14.8564 19.1934 14.8394C18.8658 14.8054 18.6448 14.5842 18.4319 14.4395C18.0307 14.1673 18.0553 13.9376 18.2436 13.759C18.3828 13.6228 18.5383 13.4952 18.5547 13.4867Z" fill="url(#paint15_linear_8696_11916)"/>
<defs>
<linearGradient id="paint0_linear_8696_11916" x1="20.0725" y1="7.88271" x2="19.7957" y2="11.6325" gradientUnits="userSpaceOnUse">
<stop stop-color="white" stop-opacity="0.8"/>
<stop offset="1" stop-color="white" stop-opacity="0"/>
</linearGradient>
<linearGradient id="paint1_linear_8696_11916" x1="16.1208" y1="28.3404" x2="14.0632" y2="21.5897" gradientUnits="userSpaceOnUse">
<stop stop-color="#FFEED7"/>
<stop offset="1" stop-color="#BDBFC2"/>
</linearGradient>
<linearGradient id="paint2_linear_8696_11916" x1="16.1208" y1="28.3404" x2="14.0632" y2="21.5897" gradientUnits="userSpaceOnUse">
<stop stop-color="#FFEED7"/>
<stop offset="1" stop-color="#BDBFC2"/>
</linearGradient>
<linearGradient id="paint3_linear_8696_11916" x1="20.8354" y1="12.0697" x2="20.7187" y2="12.9431" gradientUnits="userSpaceOnUse">
<stop stop-color="white" stop-opacity="0.65"/>
<stop offset="1" stop-color="white" stop-opacity="0"/>
</linearGradient>
<linearGradient id="paint4_linear_8696_11916" x1="18.0422" y1="12.2284" x2="18.1677" y2="12.9352" gradientUnits="userSpaceOnUse">
<stop stop-color="white" stop-opacity="0.65"/>
<stop offset="1" stop-color="white" stop-opacity="0"/>
</linearGradient>
<linearGradient id="paint5_linear_8696_11916" x1="19.7019" y1="19.5385" x2="19.7227" y2="24.5342" gradientUnits="userSpaceOnUse">
<stop stop-color="white" stop-opacity="0.8"/>
<stop offset="1" stop-color="white" stop-opacity="0"/>
</linearGradient>
<linearGradient id="paint6_linear_8696_11916" x1="19.8125" y1="16.4058" x2="19.8355" y2="18.3921" gradientUnits="userSpaceOnUse">
<stop stop-color="white" stop-opacity="0.65"/>
<stop offset="1" stop-color="white" stop-opacity="0"/>
</linearGradient>
<linearGradient id="paint7_linear_8696_11916" x1="14.6495" y1="17.6318" x2="14.6495" y2="24.9215" gradientUnits="userSpaceOnUse">
<stop stop-color="white" stop-opacity="0.65"/>
<stop offset="1" stop-color="white" stop-opacity="0"/>
</linearGradient>
<linearGradient id="paint8_linear_8696_11916" x1="26.2911" y1="16.9198" x2="26.2882" y2="23.5063" gradientUnits="userSpaceOnUse">
<stop stop-color="white" stop-opacity="0.65"/>
<stop offset="1" stop-color="white" stop-opacity="0"/>
</linearGradient>
<linearGradient id="paint9_linear_8696_11916" x1="14.2852" y1="28.0464" x2="13.1688" y2="31.7764" gradientUnits="userSpaceOnUse">
<stop stop-color="#FFA63F"/>
<stop offset="1" stop-color="#FFFF00"/>
</linearGradient>
<linearGradient id="paint10_linear_8696_11916" x1="24.852" y1="26.9122" x2="27.8315" y2="30.9749" gradientUnits="userSpaceOnUse">
<stop stop-color="#FFA63F"/>
<stop offset="1" stop-color="#FFFF00"/>
</linearGradient>
<linearGradient id="paint11_linear_8696_11916" x1="25.6503" y1="23.6666" x2="24.6084" y2="28.5755" gradientUnits="userSpaceOnUse">
<stop stop-color="white" stop-opacity="0.65"/>
<stop offset="1" stop-color="white" stop-opacity="0"/>
</linearGradient>
<linearGradient id="paint12_linear_8696_11916" x1="14.0578" y1="24.8805" x2="14.2643" y2="30.4052" gradientUnits="userSpaceOnUse">
<stop stop-color="white" stop-opacity="0.65"/>
<stop offset="1" stop-color="white" stop-opacity="0"/>
</linearGradient>
<linearGradient id="paint13_linear_8696_11916" x1="25.4691" y1="23.5773" x2="25.7108" y2="25.228" gradientUnits="userSpaceOnUse">
<stop stop-color="white" stop-opacity="0.65"/>
<stop offset="1" stop-color="white" stop-opacity="0"/>
</linearGradient>
<linearGradient id="paint14_linear_8696_11916" x1="19.7059" y1="13.48" x2="19.7261" y2="16.3872" gradientUnits="userSpaceOnUse">
<stop stop-color="#FFA63F"/>
<stop offset="1" stop-color="#FFFF00"/>
</linearGradient>
<linearGradient id="paint15_linear_8696_11916" x1="19.3877" y1="13.2049" x2="19.3823" y2="14.7422" gradientUnits="userSpaceOnUse">
<stop stop-color="white" stop-opacity="0.65"/>
<stop offset="1" stop-color="white" stop-opacity="0"/>
</linearGradient>
</defs>
</svg>
