<svg width="32" height="33" viewBox="0 0 32 33" fill="none" xmlns="http://www.w3.org/2000/svg">
<path d="M32 14.8253H22.2518L30.6938 9.95067L29.0197 7.04933L20.5766 11.924L25.4497 3.48133L22.5493 1.80667L17.6752 10.2472V0.5H14.3248V10.2483L9.45072 1.80667L6.54928 3.48133L11.4223 11.9219L2.98141 7.04933L1.30623 9.95067L9.74822 14.8253H0V18.1757H9.74715L1.30623 23.0504L2.98034 25.9517L11.4234 21.0771L6.54928 29.5197L9.44965 31.1944L14.3248 22.7528V32.5H17.6752V22.5437L22.6389 31.1411L25.359 29.5709L20.3943 20.9715L29.0175 25.9507L30.6927 23.0493L22.2518 18.1747H31.9989V14.8253H32ZM16 21.0547C15.4019 21.0547 14.8097 20.937 14.2571 20.7081C13.7046 20.4792 13.2025 20.1437 12.7795 19.7207C12.3566 19.2977 12.0211 18.7955 11.7921 18.2428C11.5632 17.6901 11.4453 17.0977 11.4453 16.4995C11.4452 15.9012 11.5629 15.3088 11.7917 14.756C12.0205 14.2033 12.3559 13.701 12.7788 13.2779C13.2016 12.8548 13.7036 12.5192 14.2562 12.2902C14.8087 12.0612 15.4009 11.9433 15.9989 11.9432C17.2068 11.9431 18.3652 12.4229 19.2194 13.2772C20.0736 14.1314 20.5535 15.2901 20.5537 16.4984C20.5538 17.7067 20.0741 18.8655 19.2202 19.7199C18.3662 20.5744 17.2079 21.0545 16 21.0547Z" fill="#625DF5"/>
</svg>
