<svg width="32" height="33" viewBox="0 0 32 33" fill="none" xmlns="http://www.w3.org/2000/svg">
<path d="M28.0005 15.3568C29.5784 15.3568 30.8575 14.0776 30.8575 12.4998C30.8575 10.9219 29.5783 9.64281 28.0004 9.64281C26.4224 9.64281 25.143 10.922 25.143 12.5V15.3568H28.0005ZM20 15.3568C21.578 15.3568 22.8573 14.0775 22.8573 12.4995V4.4998C22.8573 2.9218 21.578 1.64258 20 1.64258C18.422 1.64258 17.1428 2.9218 17.1428 4.4998V12.4995C17.1428 14.0775 18.422 15.3568 20 15.3568Z" fill="#2EB67D"/>
<path d="M3.99924 17.6413C2.42137 17.6413 1.14226 18.9204 1.14226 20.4983C1.14226 22.0761 2.4215 23.3552 3.99936 23.3552C5.57736 23.3552 6.85671 22.076 6.85671 20.498V17.6413H3.99924ZM11.9997 17.6413C10.4217 17.6413 9.14249 18.9205 9.14249 20.4985V28.4982C9.14249 30.0762 10.4217 31.3555 11.9997 31.3555C13.5777 31.3555 14.8569 30.0762 14.8569 28.4982V20.4985C14.8569 18.9205 13.5777 17.6413 11.9997 17.6413Z" fill="#E01E5A"/>
<path d="M17.1391 28.5003C17.1391 30.0781 18.4182 31.3572 19.9961 31.3572C21.5739 31.3572 22.853 30.078 22.853 28.5001C22.853 26.9221 21.5738 25.6428 19.9958 25.6428L17.1391 25.6428L17.1391 28.5003ZM17.1391 20.4998C17.1391 22.0778 18.4183 23.357 19.9963 23.357L27.996 23.357C29.574 23.357 30.8533 22.0778 30.8533 20.4998C30.8533 18.9218 29.574 17.6426 27.996 17.6426L19.9963 17.6426C18.4183 17.6426 17.1391 18.9218 17.1391 20.4998Z" fill="#ECB22E"/>
<path d="M14.858 4.49973C14.858 2.92186 13.5789 1.64275 12.001 1.64275C10.4231 1.64275 9.14403 2.92199 9.14403 4.49985C9.14403 6.07785 10.4232 7.3572 12.0013 7.3572L14.858 7.3572L14.858 4.49973ZM14.858 12.5002C14.858 10.9222 13.5788 9.64298 12.0008 9.64298L4.00102 9.64297C2.42302 9.64297 1.1438 10.9222 1.1438 12.5002C1.1438 14.0782 2.42302 15.3574 4.00102 15.3574L12.0008 15.3574C13.5788 15.3574 14.858 14.0782 14.858 12.5002Z" fill="#36C5F0"/>
</svg>
