<svg width="40" height="40" viewBox="0 0 40 40" fill="none" xmlns="http://www.w3.org/2000/svg">
<path d="M0 3C0 1.34315 1.34315 0 3 0H37C38.6569 0 40 1.34315 40 3V37C40 38.6569 38.6569 40 37 40H3C1.34315 40 0 38.6569 0 37V3Z" fill="url(#paint0_linear_14626_25913)"/>
<path d="M30.9805 13.8444C30.9805 14.212 30.6825 14.5099 30.315 14.5099L20.4135 14.5099C20.1487 14.5099 19.8948 14.6151 19.7076 14.8023L14.8021 19.7076C14.6149 19.8948 14.5098 20.1487 14.5098 20.4135L14.5098 30.3148C14.5098 30.6823 14.2118 30.9802 13.8443 30.9802L9.68501 30.9802C9.31748 30.9802 9.01953 30.6823 9.01953 30.3148L9.01953 18.1393C9.01953 17.8746 9.1247 17.6207 9.31191 17.4335L17.4336 9.31214C17.6208 9.12494 17.8747 9.01978 18.1395 9.01978L30.315 9.01978C30.6825 9.01978 30.9805 9.31772 30.9805 9.68524L30.9805 13.8444Z" fill="white"/>
<path d="M30.9805 20L30.9805 28.6171C30.9805 28.8984 30.8619 29.1666 30.6537 29.3557L29.974 29.9737L29.1621 30.7179C28.978 30.8866 28.7374 30.9802 28.4876 30.9802L26.1557 30.9802C25.7882 30.9802 25.4903 30.6823 25.4903 30.3148L25.4903 25.4901L20.6655 25.4901C20.298 25.4901 20 25.1922 20 24.8247L20 22.3421C20 22.0791 20.1038 21.8267 20.2889 21.6398L21.0066 20.915L21.6292 20.2924C21.8164 20.1052 22.0703 20 22.3351 20L30.9805 20Z" fill="white"/>
<defs>
<linearGradient id="paint0_linear_14626_25913" x1="-9.42229" y1="-7.31359" x2="35.3759" y2="35.6419" gradientUnits="userSpaceOnUse">
<stop stop-color="#3758F9"/>
<stop offset="1" stop-color="#8AA7FF"/>
</linearGradient>
</defs>
</svg>
