<svg width="41" height="40" viewBox="0 0 41 40" fill="none" xmlns="http://www.w3.org/2000/svg">
<path d="M38.3335 20C38.3335 29.66 30.5022 37.5 20.8335 37.5C11.1647 37.5 3.3335 29.66 3.3335 20C3.3335 10.3312 11.1647 2.5 20.8335 2.5C30.5022 2.5 38.3335 10.3312 38.3335 20Z" fill="#283544"/>
<path d="M29.0361 15.5717C28.9406 15.6274 26.6673 16.8031 26.6673 19.4098C26.7745 22.3826 29.5361 23.4252 29.5835 23.4252C29.5361 23.4809 29.1666 24.8454 28.0718 26.2757C27.2031 27.5078 26.2388 28.75 24.7745 28.75C23.3816 28.75 22.8816 27.9288 21.2745 27.9288C19.5485 27.9288 19.0602 28.75 17.7387 28.75C16.2745 28.75 15.2387 27.4412 14.3226 26.2207C13.1324 24.6232 12.1207 22.1164 12.085 19.7093C12.0609 18.4338 12.3234 17.18 12.9895 16.1151C13.9297 14.6283 15.6083 13.619 17.4414 13.5858C18.8459 13.5416 20.0959 14.4843 20.953 14.4843C21.7745 14.4843 23.3102 13.5858 25.0478 13.5858C25.7978 13.5865 27.7978 13.797 29.0361 15.5717ZM20.8343 13.3311C20.5842 12.1663 21.2745 11.0015 21.9173 10.2585C22.7388 9.3599 24.0361 8.75 25.1549 8.75C25.2263 9.91481 24.7737 11.0572 23.9647 11.8892C23.2388 12.7878 21.9888 13.4642 20.8343 13.3311Z" fill="white"/>
</svg>
