<svg width="128" height="36" viewBox="0 0 128 36" fill="none" xmlns="http://www.w3.org/2000/svg">
<path fill-rule="evenodd" clip-rule="evenodd" d="M17 35C7.61115 35 0 27.3888 0 18V1C6.39349 1 11.9626 4.52941 14.8654 9.74617C10.9023 10.6925 7.95569 14.2572 7.95569 18.5101V18.8908C7.95569 23.6566 11.8192 27.5201 16.585 27.5201H16.9657L16.9656 18.5101C16.9656 23.4861 20.9996 27.5201 25.9757 27.5201L25.9757 18.51C25.9757 13.5454 21.9604 9.51858 17 9.50012L17 1H17.7183C26.7104 1 34 8.28957 34 17.2817V18C34 27.3888 26.3888 35 17 35Z" fill="#3758F9"/>
<path d="M43.86 28V7H51.63C53.09 7 54.31 7.24 55.29 7.72C56.27 8.18 57 8.82 57.48 9.64C57.98 10.44 58.23 11.35 58.23 12.37C58.23 13.43 58 14.32 57.54 15.04C57.08 15.76 56.47 16.32 55.71 16.72C54.95 17.1 54.15 17.32 53.31 17.38L53.73 17.08C54.65 17.1 55.49 17.35 56.25 17.83C57.01 18.29 57.61 18.91 58.05 19.69C58.49 20.47 58.71 21.33 58.71 22.27C58.71 23.35 58.45 24.33 57.93 25.21C57.41 26.07 56.64 26.75 55.62 27.25C54.6 27.75 53.35 28 51.87 28H43.86ZM46.86 25.51H51.48C52.8 25.51 53.82 25.21 54.54 24.61C55.28 23.99 55.65 23.12 55.65 22C55.65 20.9 55.27 20.02 54.51 19.36C53.77 18.7 52.74 18.37 51.42 18.37H46.86V25.51ZM46.86 16.06H51.3C52.56 16.06 53.52 15.77 54.18 15.19C54.84 14.59 55.17 13.77 55.17 12.73C55.17 11.73 54.84 10.94 54.18 10.36C53.52 9.76 52.53 9.46 51.21 9.46H46.86V16.06ZM68.5404 28.36C67.1004 28.36 65.8204 28.04 64.7004 27.4C63.5804 26.74 62.7004 25.83 62.0604 24.67C61.4204 23.51 61.1004 22.15 61.1004 20.59C61.1004 19.03 61.4104 17.67 62.0304 16.51C62.6704 15.33 63.5504 14.41 64.6704 13.75C65.7904 13.09 67.1004 12.76 68.6004 12.76C70.0604 12.76 71.3204 13.09 72.3804 13.75C73.4604 14.39 74.2904 15.24 74.8704 16.3C75.4504 17.36 75.7404 18.54 75.7404 19.84C75.7404 20.04 75.7404 20.26 75.7404 20.5C75.7404 20.74 75.7304 20.99 75.7104 21.25H63.2904V19.15H72.7404C72.6804 17.91 72.2604 16.94 71.4804 16.24C70.7004 15.54 69.7304 15.19 68.5704 15.19C67.7504 15.19 66.9904 15.37 66.2904 15.73C65.6104 16.09 65.0604 16.62 64.6404 17.32C64.2404 18.02 64.0404 18.91 64.0404 19.99V20.83C64.0404 21.93 64.2404 22.86 64.6404 23.62C65.0604 24.36 65.6104 24.92 66.2904 25.3C66.9904 25.68 67.7404 25.87 68.5404 25.87C69.4804 25.87 70.2704 25.66 70.9104 25.24C71.5504 24.8 72.0204 24.21 72.3204 23.47H75.3204C75.0604 24.41 74.6204 25.25 74.0004 25.99C73.3804 26.71 72.6104 27.29 71.6904 27.73C70.7904 28.15 69.7404 28.36 68.5404 28.36ZM78.4561 28V13.12H81.1261L81.3361 15.64H81.3961C81.8761 14.76 82.5461 14.06 83.4061 13.54C84.2861 13.02 85.3161 12.76 86.4961 12.76C87.6761 12.76 88.6961 13.01 89.5561 13.51C90.4161 13.99 91.0761 14.72 91.5361 15.7C92.0161 16.68 92.2561 17.92 92.2561 19.42V28H89.2561V19.72C89.2561 18.28 88.9461 17.19 88.3261 16.45C87.7261 15.69 86.8361 15.31 85.6561 15.31C84.8361 15.31 84.1161 15.51 83.4961 15.91C82.8761 16.29 82.3761 16.85 81.9961 17.59C81.6361 18.33 81.4561 19.23 81.4561 20.29V28H78.4561ZM101.838 34.75C100.478 34.75 99.2683 34.57 98.2083 34.21C97.1683 33.87 96.3483 33.35 95.7483 32.65C95.1683 31.95 94.8783 31.09 94.8783 30.07C94.8783 29.55 94.9983 29.02 95.2383 28.48C95.4983 27.96 95.8983 27.46 96.4383 26.98C96.9783 26.5 97.6983 26.06 98.5983 25.66L100.218 26.98C99.2383 27.38 98.5783 27.83 98.2383 28.33C97.8983 28.83 97.7283 29.34 97.7283 29.86C97.7283 30.4 97.8983 30.86 98.2383 31.24C98.5783 31.64 99.0583 31.93 99.6783 32.11C100.298 32.31 101.018 32.41 101.838 32.41C102.638 32.41 103.318 32.3 103.878 32.08C104.458 31.86 104.888 31.55 105.168 31.15C105.468 30.77 105.618 30.32 105.618 29.8C105.618 29.2 105.388 28.7 104.928 28.3C104.468 27.9 103.578 27.66 102.258 27.58C101.118 27.5 100.148 27.39 99.3483 27.25C98.5683 27.09 97.9083 26.92 97.3683 26.74C96.8283 26.54 96.3683 26.32 95.9883 26.08C95.6283 25.82 95.3083 25.56 95.0283 25.3V24.61L98.0583 21.55L100.158 22.36L97.2183 25.42L97.7883 24.1C97.9883 24.24 98.1883 24.37 98.3883 24.49C98.6083 24.61 98.8883 24.72 99.2283 24.82C99.5683 24.9 100.028 24.99 100.608 25.09C101.188 25.17 101.948 25.25 102.888 25.33C104.208 25.43 105.278 25.66 106.098 26.02C106.938 26.38 107.548 26.87 107.928 27.49C108.308 28.11 108.498 28.85 108.498 29.71C108.498 30.53 108.258 31.32 107.778 32.08C107.298 32.86 106.568 33.5 105.588 34C104.608 34.5 103.358 34.75 101.838 34.75ZM101.808 23.41C100.548 23.41 99.4683 23.17 98.5683 22.69C97.6883 22.21 97.0183 21.57 96.5583 20.77C96.0983 19.97 95.8683 19.07 95.8683 18.07C95.8683 17.09 96.0983 16.2 96.5583 15.4C97.0183 14.6 97.6883 13.96 98.5683 13.48C99.4683 13 100.548 12.76 101.808 12.76C103.068 12.76 104.138 13 105.018 13.48C105.918 13.96 106.598 14.6 107.058 15.4C107.538 16.2 107.778 17.09 107.778 18.07C107.778 19.07 107.538 19.97 107.058 20.77C106.598 21.57 105.918 22.21 105.018 22.69C104.138 23.17 103.068 23.41 101.808 23.41ZM101.808 21.07C102.788 21.07 103.568 20.82 104.148 20.32C104.728 19.8 105.018 19.06 105.018 18.1C105.018 17.12 104.728 16.38 104.148 15.88C103.568 15.38 102.788 15.13 101.808 15.13C100.848 15.13 100.068 15.38 99.4683 15.88C98.8883 16.38 98.5983 17.12 98.5983 18.1C98.5983 19.06 98.8883 19.8 99.4683 20.32C100.068 20.82 100.848 21.07 101.808 21.07ZM104.238 15.37L103.518 13.12H109.698V15.01L104.238 15.37ZM118.902 28.36C117.482 28.36 116.202 28.04 115.062 27.4C113.942 26.74 113.052 25.83 112.392 24.67C111.752 23.49 111.432 22.12 111.432 20.56C111.432 19 111.762 17.64 112.422 16.48C113.082 15.3 113.982 14.39 115.122 13.75C116.262 13.09 117.532 12.76 118.932 12.76C120.352 12.76 121.622 13.09 122.742 13.75C123.882 14.39 124.782 15.3 125.442 16.48C126.102 17.64 126.432 19 126.432 20.56C126.432 22.12 126.092 23.49 125.412 24.67C124.752 25.83 123.852 26.74 122.712 27.4C121.592 28.04 120.322 28.36 118.902 28.36ZM118.902 25.84C119.702 25.84 120.432 25.65 121.092 25.27C121.772 24.87 122.322 24.28 122.742 23.5C123.162 22.72 123.372 21.74 123.372 20.56C123.372 19.38 123.162 18.4 122.742 17.62C122.342 16.84 121.802 16.26 121.122 15.88C120.442 15.48 119.712 15.28 118.932 15.28C118.172 15.28 117.452 15.48 116.772 15.88C116.092 16.26 115.542 16.84 115.122 17.62C114.702 18.4 114.492 19.38 114.492 20.56C114.492 21.74 114.702 22.72 115.122 23.5C115.542 24.28 116.082 24.87 116.742 25.27C117.402 25.65 118.122 25.84 118.902 25.84Z" fill="#1F2937"/>
</svg>
