<svg width="148" height="36" viewBox="0 0 148 36" fill="none" xmlns="http://www.w3.org/2000/svg">
<path d="M18.5645 35.0014C18.5645 25.9246 25.956 18.5664 35.0328 18.5664V35.0014H18.5645Z" fill="#7C3AED"/>
<path d="M17.4336 35.0014C17.4336 25.9246 10.042 18.5664 0.965235 18.5664V35.0014H17.4336Z" fill="#7C3AED"/>
<path d="M18.5645 1.00059C18.5645 10.0774 25.956 17.4355 35.0328 17.4355C35.0328 8.35877 27.6412 1.00059 18.5645 1.00059Z" fill="#7C3AED"/>
<path d="M17.4336 1.00059C17.4336 10.0774 10.042 17.4355 0.965235 17.4355C0.965235 8.35877 8.35682 1.00059 17.4336 1.00059Z" fill="#7C3AED"/>
<path d="M54.34 28.36C52.26 28.36 50.46 27.91 48.94 27.01C47.44 26.09 46.28 24.82 45.46 23.2C44.66 21.56 44.26 19.66 44.26 17.5C44.26 15.36 44.67 13.47 45.49 11.83C46.31 10.19 47.47 8.92 48.97 8.02C50.47 7.1 52.26 6.64 54.34 6.64C56.8 6.64 58.8 7.23 60.34 8.41C61.88 9.59 62.86 11.25 63.28 13.39H59.95C59.65 12.15 59.03 11.16 58.09 10.42C57.17 9.68 55.92 9.31 54.34 9.31C52.9 9.31 51.65 9.64 50.59 10.3C49.55 10.96 48.74 11.9 48.16 13.12C47.6 14.34 47.32 15.8 47.32 17.5C47.32 19.2 47.6 20.66 48.16 21.88C48.74 23.1 49.55 24.04 50.59 24.7C51.65 25.36 52.9 25.69 54.34 25.69C55.92 25.69 57.18 25.34 58.12 24.64C59.06 23.92 59.68 22.95 59.98 21.73H63.28C62.86 23.81 61.88 25.44 60.34 26.62C58.8 27.78 56.8 28.36 54.34 28.36ZM66.3032 28V6.61H69.3032V28H66.3032ZM79.7364 28.36C78.3164 28.36 77.0364 28.04 75.8964 27.4C74.7764 26.74 73.8864 25.83 73.2264 24.67C72.5864 23.49 72.2664 22.12 72.2664 20.56C72.2664 19 72.5964 17.64 73.2564 16.48C73.9164 15.3 74.8164 14.39 75.9564 13.75C77.0964 13.09 78.3664 12.76 79.7664 12.76C81.1864 12.76 82.4564 13.09 83.5764 13.75C84.7164 14.39 85.6164 15.3 86.2764 16.48C86.9364 17.64 87.2664 19 87.2664 20.56C87.2664 22.12 86.9264 23.49 86.2464 24.67C85.5864 25.83 84.6864 26.74 83.5464 27.4C82.4264 28.04 81.1564 28.36 79.7364 28.36ZM79.7364 25.84C80.5364 25.84 81.2664 25.65 81.9264 25.27C82.6064 24.87 83.1564 24.28 83.5764 23.5C83.9964 22.72 84.2064 21.74 84.2064 20.56C84.2064 19.38 83.9964 18.4 83.5764 17.62C83.1764 16.84 82.6364 16.26 81.9564 15.88C81.2764 15.48 80.5464 15.28 79.7664 15.28C79.0064 15.28 78.2864 15.48 77.6064 15.88C76.9264 16.26 76.3764 16.84 75.9564 17.62C75.5364 18.4 75.3264 19.38 75.3264 20.56C75.3264 21.74 75.5364 22.72 75.9564 23.5C76.3764 24.28 76.9164 24.87 77.5764 25.27C78.2364 25.65 78.9564 25.84 79.7364 25.84ZM95.6988 28.36C94.5188 28.36 93.4988 28.12 92.6388 27.64C91.7788 27.14 91.1088 26.4 90.6288 25.42C90.1688 24.44 89.9388 23.2 89.9388 21.7V13.12H92.9388V21.4C92.9388 22.86 93.2388 23.96 93.8388 24.7C94.4388 25.44 95.3388 25.81 96.5388 25.81C97.3388 25.81 98.0588 25.62 98.6988 25.24C99.3388 24.84 99.8388 24.27 100.199 23.53C100.559 22.79 100.739 21.89 100.739 20.83V13.12H103.739V28H101.069L100.859 25.48H100.799C100.319 26.36 99.6388 27.06 98.7588 27.58C97.8988 28.1 96.8788 28.36 95.6988 28.36ZM113.861 28.36C112.421 28.36 111.161 28.02 110.081 27.34C109.001 26.66 108.161 25.73 107.561 24.55C106.961 23.37 106.661 22.03 106.661 20.53C106.661 19.05 106.961 17.73 107.561 16.57C108.161 15.39 109.011 14.46 110.111 13.78C111.211 13.1 112.501 12.76 113.981 12.76C115.221 12.76 116.291 13.01 117.191 13.51C118.091 14.01 118.781 14.65 119.261 15.43V6.61H122.261V28H119.651L119.381 25.51H119.321C118.981 26.05 118.541 26.54 118.001 26.98C117.481 27.4 116.881 27.74 116.201 28C115.521 28.24 114.741 28.36 113.861 28.36ZM114.461 25.78C115.421 25.78 116.261 25.56 116.981 25.12C117.701 24.68 118.261 24.07 118.661 23.29C119.061 22.51 119.261 21.6 119.261 20.56C119.261 19.52 119.061 18.61 118.661 17.83C118.261 17.05 117.691 16.44 116.951 16C116.231 15.56 115.401 15.34 114.461 15.34C113.521 15.34 112.691 15.56 111.971 16C111.251 16.44 110.691 17.05 110.291 17.83C109.891 18.61 109.691 19.52 109.691 20.56C109.691 21.6 109.891 22.51 110.291 23.29C110.691 24.07 111.251 24.68 111.971 25.12C112.691 25.56 113.521 25.78 114.461 25.78ZM125.893 28V6.61H128.893V28H125.893ZM134.316 34.39L137.946 26.32H137.076L131.076 13.12H134.346L139.116 23.92H139.146L143.886 13.12H147.036L137.496 34.39H134.316Z" fill="#1F2937"/>
</svg>
