<svg
              className="w-28 sm:w-auto"
              xmlns="http://www.w3.org/2000/svg"
              width="152"
              height="38"
              viewBox="0 0 152 38"
              fill="none"
            >
              <g clip-path="url(#clip0_10305_461)">
                <path
                  opacity="0.72"
                  d="M37.9391 17.4381C37.9205 17.2488 37.8327 17.0731 37.6926 16.9445C37.5524 16.8157 37.3696 16.743 37.1791 16.7402H18.24C17.7257 16.7528 17.2236 16.8993 16.7836 17.1655C16.3437 17.4316 15.9811 17.8081 15.732 18.2573C15.5013 18.659 15.38 19.1141 15.38 19.5772C15.38 20.0401 15.5013 20.4952 15.732 20.897C15.7978 21.0233 15.8955 21.1304 16.0155 21.2075C16.1354 21.2846 16.2734 21.3293 16.4159 21.337H37.2248C37.4153 21.3341 37.5981 21.2614 37.7382 21.1327C37.8784 21.004 37.9661 20.8283 37.9848 20.6391C37.9848 20.0475 37.9848 19.5468 37.9848 19.122C37.9848 18.6973 37.9847 18.0146 37.9391 17.4381Z"
                  fill="#3758F9"
                />
                <path
                  d="M37.9238 17.4381C37.9088 17.2502 37.8243 17.0747 37.6865 16.9456C37.5489 16.8166 37.3679 16.7434 37.179 16.7402H34.139C34.0324 16.7414 33.9272 16.765 33.8303 16.8095C33.7334 16.8538 33.647 16.9181 33.5766 16.9981C33.5058 17.075 33.4527 17.1664 33.4212 17.2661C33.3897 17.3657 33.3805 17.471 33.3943 17.5746C33.3943 18.0601 33.3943 18.5456 33.3943 19.0917C33.3904 21.5125 32.7758 23.8933 31.6069 26.0144C30.438 28.1355 28.7525 29.9286 26.7062 31.2283C26.4934 31.3648 26.2536 31.4989 25.9722 31.6485C24.7402 32.3035 23.8747 32.6387 22.5647 32.9896L24.4528 36.5609C24.5203 36.6777 24.618 36.7745 24.7356 36.8411C24.8531 36.9078 24.9364 36.9419 25.0716 36.9401C25.1519 36.9546 25.2367 36.9546 25.3172 36.9401L25.8511 36.7429L26.3036 36.5609C26.976 36.2821 27.6661 35.9713 28.2997 35.6135C31.2632 33.9473 33.7282 31.564 35.4336 28.6267C37.139 25.6894 38.0252 22.3499 37.9999 18.9552C37.9999 18.3938 37.9694 17.9539 37.9238 17.4381Z"
                  fill="#3758F9"
                />
                <path
                  d="M27.1649 31.8378C27.0628 31.6648 26.9004 31.5352 26.7089 31.4737H26.496C26.364 31.4748 26.2341 31.5059 26.116 31.5647C23.9486 32.7957 21.4962 33.439 19.0025 33.4307C15.1752 33.4227 11.5071 31.9017 8.80078 29.2007C6.0945 26.4995 4.57056 22.8384 4.56253 19.0186C4.57056 15.1987 6.0945 11.5375 8.80078 8.83644C11.5071 6.13536 15.1752 4.61438 19.0025 4.60636C21.4951 4.60715 23.9451 5.24986 26.116 6.47234C26.2295 6.54423 26.3617 6.58117 26.496 6.57854H26.6632C26.7674 6.55558 26.8658 6.5114 26.9521 6.44874C27.0384 6.3861 27.1109 6.30633 27.1649 6.21445L28.6849 3.57475C28.7854 3.39919 28.813 3.19134 28.7619 2.9957C28.7108 2.80006 28.5849 2.63217 28.4112 2.52797C25.5502 0.914285 22.3192 0.0675907 19.033 0.0703191C13.9963 0.078343 9.16823 2.07884 5.60679 5.63343C2.04534 9.18801 0.0409983 14.0067 0.032959 19.0337C0.0409983 24.0606 2.04534 28.8794 5.60679 32.434C9.16823 35.9886 13.9963 37.9891 19.033 37.9971C22.3192 37.9998 25.5502 37.1531 28.4112 35.5395C28.4982 35.4907 28.5745 35.4251 28.6356 35.3464C28.6967 35.2677 28.7412 35.1776 28.7668 35.0814C28.7922 34.9852 28.7982 34.8848 28.7842 34.7863C28.7701 34.6878 28.7364 34.5931 28.6849 34.5079L27.1649 31.8378Z"
                  fill="#3758F9"
                />
                <path
                  opacity="0.56"
                  d="M21.1734 21.2768H16.3703C16.2341 21.2671 16.1021 21.2248 15.9858 21.1535C15.8693 21.0822 15.7718 20.984 15.7014 20.8672L24.5327 36.4779C24.6004 36.5948 24.6979 36.6915 24.8155 36.7582C24.933 36.8249 25.0662 36.859 25.2014 36.8571C25.287 36.8715 25.3744 36.8715 25.4599 36.8571C26.4643 36.4963 27.4356 36.0496 28.3632 35.5221C28.4501 35.4734 28.5262 35.4078 28.5873 35.3291C28.6484 35.2505 28.693 35.1603 28.7185 35.064C28.744 34.9679 28.75 34.8675 28.7359 34.769C28.7218 34.6705 28.6881 34.5757 28.6366 34.4905L21.1734 21.2768Z"
                  fill="#3758F9"
                />
                <path
                  d="M59.3963 12.9866V29.059H56.5645V12.9866H52.25V10.3301H63.6986V12.9866H59.3963Z"
                  fill="#3758F9"
                />
                <path
                  d="M73.3849 17.2435H76.1316V29.0583H73.3849V27.821C72.2587 28.8722 71.0474 29.3979 69.7511 29.3979C68.1144 29.3979 66.7613 28.8076 65.6918 27.6269C64.6304 26.422 64.0996 24.9178 64.0996 23.1145C64.0996 21.3435 64.6304 19.8677 65.6918 18.687C66.7532 17.5063 68.0819 16.916 69.6781 16.916C71.0555 16.916 72.2911 17.4821 73.3849 18.6143V17.2435ZM66.895 23.1145C66.895 24.2466 67.1988 25.1685 67.8065 25.8802C68.4304 26.5999 69.2163 26.9598 70.1642 26.9598C71.177 26.9598 71.9953 26.612 72.6193 25.9165C73.2432 25.1969 73.5551 24.283 73.5551 23.1752C73.5551 22.0672 73.2432 21.1535 72.6193 20.4337C71.9953 19.7302 71.1852 19.3784 70.1885 19.3784C69.2487 19.3784 68.4628 19.7343 67.8308 20.4459C67.2069 21.1656 66.895 22.0551 66.895 23.1145Z"
                  fill="#3758F9"
                />
                <path
                  d="M82.3179 17.2438V29.0585H79.5834V17.2438H82.3179ZM79.1702 12.3311C79.1702 11.854 79.3444 11.4415 79.6928 11.0939C80.0411 10.7461 80.4585 10.5723 80.9446 10.5723C81.4388 10.5723 81.8601 10.7461 82.2086 11.0939C82.5569 11.4335 82.7311 11.8499 82.7311 12.3433C82.7311 12.8365 82.5569 13.257 82.2086 13.6048C81.8683 13.9525 81.4509 14.1264 80.9567 14.1264C80.4624 14.1264 80.0411 13.9525 79.6928 13.6048C79.3444 13.257 79.1702 12.8325 79.1702 12.3311Z"
                  fill="#3758F9"
                />
                <path
                  d="M88.5161 8.57031V29.0581H85.7816V8.57031H88.5161Z"
                  fill="#3758F9"
                />
                <path
                  d="M102.152 19.3051H109.906V19.9237C109.906 21.3307 109.74 22.5762 109.408 23.6597C109.084 24.6625 108.536 25.6005 107.767 26.4739C106.026 28.4309 103.809 29.4094 101.119 29.4094C98.494 29.4094 96.2454 28.4633 94.3741 26.571C92.5024 24.6706 91.5665 22.3901 91.5665 19.7296C91.5665 17.0125 92.5186 14.7077 94.4226 12.8154C96.3271 10.915 98.6441 9.96484 101.374 9.96484C102.841 9.96484 104.21 10.2641 105.482 10.8625C106.697 11.4609 107.892 12.4313 109.068 13.7737L107.05 15.7024C105.511 13.6564 103.635 12.6335 101.423 12.6335C99.4383 12.6335 97.773 13.3168 96.4278 14.6835C95.0826 16.0258 94.4104 17.7079 94.4104 19.7296C94.4104 21.8159 95.1595 23.5344 96.6586 24.8849C98.0608 26.1383 99.5799 26.7651 101.217 26.7651C102.61 26.7651 103.862 26.296 104.972 25.358C106.082 24.4118 106.702 23.2797 106.831 21.9616H102.152V19.3051Z"
                  fill="#3758F9"
                />
                <path
                  d="M112.957 17.2435H115.691V18.2988C116.194 17.7733 116.639 17.4133 117.029 17.2192C117.426 17.0171 117.895 16.916 118.439 16.916C119.16 16.916 119.913 17.1505 120.699 17.6196L119.447 20.1184C118.929 19.7464 118.422 19.5604 117.927 19.5604C116.437 19.5604 115.691 20.6844 115.691 22.9325V29.0582H112.957V17.2435Z"
                  fill="#3758F9"
                />
                <path
                  d="M125.39 17.2438V29.0585H122.655V17.2438H125.39ZM122.242 12.3311C122.242 11.854 122.416 11.4415 122.765 11.0939C123.113 10.7461 123.53 10.5723 124.017 10.5723C124.511 10.5723 124.932 10.7461 125.28 11.0939C125.629 11.4335 125.803 11.8499 125.803 12.3433C125.803 12.8365 125.629 13.257 125.28 13.6048C124.94 13.9525 124.523 14.1264 124.029 14.1264C123.534 14.1264 123.113 13.9525 122.765 13.6048C122.416 13.257 122.242 12.8325 122.242 12.3311Z"
                  fill="#3758F9"
                />
                <path
                  d="M137.58 8.57031H140.326V29.0581H137.58V27.8208C136.502 28.8721 135.283 29.3977 133.921 29.3977C132.301 29.3977 130.956 28.8074 129.887 27.6267C128.825 26.4218 128.294 24.9176 128.294 23.1143C128.294 21.3514 128.825 19.8796 129.887 18.699C130.94 17.5102 132.264 16.9158 133.86 16.9158C135.247 16.9158 136.486 17.4819 137.58 18.6141V8.57031ZM131.089 23.1143C131.089 24.2464 131.393 25.1683 132.001 25.88C132.625 26.5997 133.411 26.9596 134.359 26.9596C135.372 26.9596 136.19 26.6118 136.814 25.9163C137.438 25.1967 137.75 24.2828 137.75 23.175C137.75 22.067 137.438 21.1533 136.814 20.4335C136.19 19.73 135.38 19.3782 134.383 19.3782C133.443 19.3782 132.658 19.7341 132.025 20.4457C131.402 21.1654 131.089 22.0549 131.089 23.1143Z"
                  fill="#3758F9"
                />
                <path
                  d="M150.657 19.2571L148.397 20.458C148.04 19.7302 147.599 19.3663 147.071 19.3663C146.82 19.3663 146.606 19.4512 146.427 19.621C146.25 19.7828 146.16 19.993 146.16 20.2518C146.16 20.7046 146.687 21.1535 147.74 21.5983C149.191 22.2209 150.166 22.795 150.669 23.3207C151.171 23.8464 151.422 24.5539 151.422 25.4435C151.422 26.5837 151.001 27.538 150.159 28.3062C149.34 29.034 148.352 29.3979 147.193 29.3979C145.208 29.3979 143.802 28.4315 142.976 26.4988L145.309 25.4192C145.634 25.9853 145.881 26.3452 146.051 26.4988C146.383 26.8061 146.78 26.9598 147.241 26.9598C148.166 26.9598 148.627 26.5393 148.627 25.6982C148.627 25.213 148.271 24.7601 147.558 24.3396C147.282 24.2021 147.007 24.0687 146.731 23.9394C146.456 23.81 146.176 23.6766 145.892 23.5391C145.099 23.1509 144.54 22.7627 144.216 22.3745C143.802 21.8813 143.596 21.2465 143.596 20.4701C143.596 19.4432 143.949 18.594 144.654 17.9228C145.375 17.2517 146.25 16.916 147.278 16.916C148.794 16.916 149.919 17.6964 150.657 19.2571Z"
                  fill="#3758F9"
                />
              </g>
              <defs>
                <clipPath id="clip0_10305_461">
                  <rect
                    width="152"
                    height="37.9268"
                    fill="white"
                    transform="translate(0 0.0371094)"
                  />
                </clipPath>
              </defs>
            </svg>