<svg width="153" height="29" viewBox="0 0 153 29" fill="none" xmlns="http://www.w3.org/2000/svg">
<g clip-path="url(#clip0_8814_11842)">
<path d="M28 0.5V28.5H10.8031V22.8096H22.6864V17.2699H10.8031V11.8055H22.6864V6.34118H5.38896V28.5H0V0.5H28Z" fill="black"/>
<path d="M51.4835 16.163V13.149H44.3547V7.93345H52.8463V4.84082H41V23.9994H44.3547V16.163H51.4835Z" fill="black"/>
<path d="M53.2473 17.4995C53.2473 21.5357 56.1564 24.3138 60.1664 24.3138C64.1763 24.3138 67.0855 21.5357 67.0855 17.4995C67.0855 13.4634 64.1763 10.6853 60.1664 10.6853C56.1564 10.6853 53.2473 13.4634 53.2473 17.4995ZM56.4447 17.4995C56.4447 15.1407 57.9648 13.542 60.1664 13.542C62.3679 13.542 63.888 15.1407 63.888 17.4995C63.888 19.8583 62.3679 21.457 60.1664 21.457C57.9648 21.457 56.4447 19.8583 56.4447 17.4995Z" fill="black"/>
<path d="M77.3515 10.9999C76.8273 10.8688 76.3818 10.8164 75.9362 10.8164C74.2064 10.8164 72.9746 11.6813 72.4242 12.9655L72.2408 11.0785H69.2268V23.9994H72.4242V17.7093C72.4242 15.1933 73.8657 13.9614 76.1721 13.9614H77.3515V10.9999Z" fill="black"/>
<path d="M82.3201 23.9992V16.6607C82.3201 14.564 83.5519 13.5681 85.072 13.5681C86.5921 13.5681 87.5618 14.5378 87.5618 16.3462V23.9992H90.7593V16.6607C90.7593 14.5378 91.9387 13.5419 93.485 13.5419C95.0051 13.5419 96.001 14.5116 96.001 16.3725V23.9992H99.1723V15.5338C99.1723 12.546 97.4425 10.6589 94.2975 10.6589C92.3318 10.6589 90.8117 11.6287 90.1565 13.1226C89.4751 11.6287 88.1122 10.6589 86.1466 10.6589C84.2857 10.6589 82.9753 11.4976 82.3201 12.5722L82.058 11.0521H79.1226V23.9992H82.3201Z" fill="black"/>
<path d="M102.39 23.9994H110.148C114.105 23.9994 116.385 22.0862 116.385 18.8101C116.385 16.5823 115.363 15.0622 113.345 14.407C115.153 13.6469 116.097 12.1268 116.097 10.0039C116.097 6.80648 113.791 4.84082 110.017 4.84082H102.39V23.9994ZM109.728 7.80241C111.615 7.80241 112.664 8.6935 112.664 10.3446C112.664 12.0482 111.642 13.0179 109.807 13.0179H105.745V7.80241H109.728ZM110.017 15.8485C111.877 15.8485 112.952 16.7658 112.952 18.3907C112.952 20.1205 111.904 21.0378 110.017 21.0378H105.745V15.8485H110.017Z" fill="black"/>
<path d="M117.836 17.4995C117.836 21.5357 120.746 24.3138 124.755 24.3138C128.765 24.3138 131.675 21.5357 131.675 17.4995C131.675 13.4634 128.765 10.6853 124.755 10.6853C120.746 10.6853 117.836 13.4634 117.836 17.4995ZM121.034 17.4995C121.034 15.1407 122.554 13.542 124.755 13.542C126.957 13.542 128.477 15.1407 128.477 17.4995C128.477 19.8583 126.957 21.457 124.755 21.457C122.554 21.457 121.034 19.8583 121.034 17.4995Z" fill="black"/>
<path d="M137.04 23.9993V4.5H133.868V23.9993H137.04Z" fill="black"/>
<path d="M145.321 24.34C147.287 24.34 148.964 23.4751 149.75 21.9812L149.96 23.9993H152.895V4.5H149.724V12.7033C148.912 11.4191 147.313 10.659 145.504 10.659C141.599 10.659 139.241 13.542 139.241 17.5782C139.241 21.5881 141.573 24.34 145.321 24.34ZM146.029 21.4046C143.801 21.4046 142.438 19.7797 142.438 17.4733C142.438 15.1669 143.801 13.5158 146.029 13.5158C148.256 13.5158 149.698 15.1407 149.698 17.4733C149.698 19.8059 148.256 21.4046 146.029 21.4046Z" fill="black"/>
</g>
<defs>
<clipPath id="clip0_8814_11842">
<rect width="153" height="28" fill="white" transform="translate(0 0.5)"/>
</clipPath>
</defs>
</svg>
