<svg width="150" height="29" viewBox="0 0 150 29" fill="none" xmlns="http://www.w3.org/2000/svg">
<path d="M64.0743 17.1818C64.1029 16.3408 63.9884 15.5868 63.7306 14.8908C63.4729 14.1948 63.1006 13.6003 62.6138 13.0783C62.1413 12.5563 61.5829 12.1648 60.9243 11.8893C60.2656 11.5993 59.5497 11.4543 58.7765 11.4543C57.9461 11.4543 57.1729 11.6138 56.457 11.9183C55.7554 12.1938 55.1397 12.6143 54.6243 13.1798C54.1088 13.7018 53.7079 14.3543 53.4215 15.0793C53.1352 15.8188 52.992 16.6453 52.992 17.5298C52.992 18.6753 53.2497 19.6758 53.7652 20.5748C54.2806 21.4593 54.9965 22.1408 55.9129 22.6483C56.8293 23.1703 57.9031 23.4168 59.1345 23.4168C59.65 23.4168 60.1797 23.3443 60.7095 23.2138C61.2393 23.0978 61.7547 22.9093 62.2559 22.6483C62.757 22.3873 63.2152 22.0828 63.6304 21.7058L62.17 19.6323C61.6975 20.0238 61.2536 20.2993 60.8384 20.4588C60.4231 20.6183 59.965 20.6908 59.4638 20.6908C58.7336 20.6908 58.0893 20.5603 57.5452 20.2848C57.0154 19.9948 56.6002 19.6033 56.2995 19.0813C56.142 18.7913 56.0275 18.4868 55.9702 18.1388H64.06L64.0743 17.1818ZM61.1963 16.2393H55.9845C56.0275 15.9783 56.1134 15.7608 56.2136 15.5433C56.4427 15.0648 56.772 14.7023 57.2015 14.4558C57.6454 14.2093 58.1895 14.0933 58.8195 14.0933C59.249 14.0933 59.6356 14.1658 59.9793 14.3543C60.3229 14.5283 60.595 14.7748 60.8097 15.0793C61.0388 15.3983 61.1677 15.7608 61.1963 16.1523V16.2393ZM74.083 18.6318C73.9684 18.2983 73.7823 17.9938 73.5389 17.7328C73.2525 17.4283 72.8659 17.1673 72.3791 16.9353C71.9066 16.7033 71.3339 16.5003 70.6466 16.2973C70.1168 16.1668 69.6873 16.0363 69.3723 15.9203C69.0716 15.8043 68.8425 15.6883 68.685 15.6158C68.5418 15.4998 68.4273 15.3838 68.3414 15.2388C68.2698 15.0938 68.2411 14.9488 68.2411 14.7748C68.2411 14.6298 68.2698 14.4703 68.327 14.3543C68.3986 14.2093 68.4989 14.0933 68.6277 13.9918C68.7566 13.9193 68.9141 13.8468 69.1002 13.8033C69.3007 13.7598 69.5155 13.7453 69.7589 13.7453C70.0309 13.7453 70.3459 13.8033 70.6895 13.9193C71.0332 14.0353 71.3625 14.1803 71.6775 14.3978C72.0068 14.5863 72.2932 14.8183 72.5509 15.0648L74.1832 13.2378C73.8252 12.8753 73.41 12.5563 72.9232 12.2953C72.4507 12.0343 71.9352 11.8168 71.3768 11.6718C70.8184 11.5268 70.2457 11.4543 69.6586 11.4543C69.0716 11.4543 68.5132 11.5413 67.9831 11.7153C67.4534 11.8748 66.9809 12.1068 66.5656 12.4113C66.1647 12.7158 65.8497 13.0783 65.6206 13.5133C65.3915 13.9338 65.277 14.4123 65.277 14.9343C65.277 15.3693 65.3343 15.7753 65.4631 16.1233C65.6063 16.4713 65.8068 16.8048 66.0645 17.1093C66.3652 17.4283 66.7661 17.7183 67.2672 17.9793C67.7827 18.2258 68.413 18.4433 69.1432 18.6318C69.6157 18.7623 70.0023 18.8783 70.303 18.9943C70.6036 19.1103 70.8184 19.1828 70.9616 19.2553C71.2193 19.4438 71.3482 19.7048 71.3482 20.0238C71.3482 20.1833 71.3195 20.3283 71.248 20.4733C71.1907 20.6183 71.0905 20.7343 70.9616 20.8213C70.8327 20.9228 70.6752 20.9953 70.4891 21.0533C70.3173 21.0968 70.1311 21.1113 69.9164 21.1113C69.3723 21.1113 68.8282 21.0098 68.2841 20.8068C67.7397 20.5893 67.2386 20.2413 66.7947 19.7628L64.9047 21.4158C65.4059 22.0393 66.0645 22.5323 66.8806 22.8948C67.7111 23.2428 68.6564 23.4168 69.7159 23.4168C70.575 23.4168 71.3482 23.2718 72.0355 22.9673C72.7227 22.6338 73.2668 22.1988 73.6534 21.6623C74.0543 21.0968 74.2548 20.4443 74.2548 19.7338C74.2548 19.3423 74.1975 18.9653 74.083 18.6318ZM86.4961 14.3688C85.9807 13.4698 85.2648 12.7593 84.3484 12.2373C83.4464 11.7153 82.4298 11.4543 81.2843 11.4543C80.1245 11.4543 79.0793 11.7153 78.163 12.2373C77.2609 12.7593 76.545 13.4698 76.0152 14.3688C75.4998 15.2533 75.2427 16.2828 75.2427 17.4283C75.2427 18.5883 75.4998 19.6178 76.0152 20.5168C76.545 21.4158 77.2609 22.1408 78.163 22.6483C79.0793 23.1703 80.1245 23.4168 81.2843 23.4168C82.4298 23.4168 83.4464 23.1703 84.3484 22.6483C85.2648 22.1408 85.9807 21.4158 86.4961 20.5168C87.0116 19.6178 87.2693 18.5883 87.2693 17.4283C87.2693 16.2828 87.0116 15.2533 86.4961 14.3688ZM83.8186 19.1248C83.5752 19.6178 83.2316 20.0238 82.7877 20.3138C82.3439 20.5748 81.8427 20.7198 81.2843 20.7198C80.7116 20.7198 80.1961 20.5748 79.7523 20.3138C79.3084 20.0238 78.9648 19.6178 78.707 19.1248C78.4493 18.6318 78.3205 18.0518 78.3348 17.4283C78.3205 16.8048 78.4493 16.2248 78.707 15.7318C78.9648 15.2533 79.3084 14.8473 79.7523 14.5718C80.1961 14.2818 80.7116 14.1223 81.2843 14.1223C81.8427 14.1223 82.3439 14.2818 82.7877 14.5718C83.2316 14.8328 83.5752 15.2388 83.8186 15.7318C84.0764 16.2248 84.2052 16.8048 84.2052 17.4283C84.2052 18.0518 84.0764 18.6318 83.8186 19.1248ZM96.5475 11.6863V18.5883C96.5475 18.9073 96.4902 19.1973 96.3757 19.4873C96.2611 19.7483 96.1036 19.9948 95.9032 20.1978C95.7027 20.4008 95.4593 20.5603 95.173 20.6763C94.8866 20.7778 94.5859 20.8213 94.2566 20.8213C93.7984 20.8213 93.4118 20.7343 93.0968 20.5168C92.7818 20.3283 92.5384 20.0238 92.3666 19.6613C92.1948 19.2553 92.1089 18.8058 92.1089 18.2838V11.6863H89.0591V18.7768C89.0591 19.7483 89.2166 20.5893 89.5316 21.2853C89.8609 21.9668 90.3191 22.5033 90.9061 22.8658C91.5075 23.2283 92.2234 23.4168 93.0539 23.4168C93.6982 23.4168 94.2995 23.3008 94.858 23.0543C95.4164 22.8078 95.8889 22.4598 96.2898 22.0248C96.4186 21.8798 96.5332 21.7348 96.6334 21.5898L96.705 23.1993H99.5973V11.6863H96.5475ZM109.319 11.5268C109.09 11.4688 108.861 11.4543 108.618 11.4543C108.045 11.4543 107.487 11.5848 106.957 11.8748C106.441 12.1503 105.997 12.5273 105.611 13.0203C105.468 13.1943 105.339 13.3828 105.239 13.5713L105.181 11.6863H102.232V23.1993H105.31V17.2398C105.31 16.8773 105.368 16.5438 105.482 16.2393C105.611 15.9348 105.783 15.6738 105.998 15.4563C106.212 15.2243 106.456 15.0503 106.742 14.9343C107.043 14.8038 107.372 14.7313 107.716 14.7313C107.973 14.7313 108.217 14.7748 108.46 14.8473C108.704 14.9053 108.918 14.9778 109.09 15.0648L109.906 11.6718C109.749 11.6138 109.548 11.5558 109.319 11.5268ZM117.953 20.0673C117.667 20.2848 117.366 20.4443 117.037 20.5748C116.708 20.6763 116.35 20.7198 115.977 20.7198C115.405 20.7198 114.889 20.5748 114.431 20.2848C113.973 19.9803 113.615 19.5888 113.343 19.1103C113.085 18.6173 112.956 18.0518 112.956 17.4283C112.956 16.8048 113.085 16.2248 113.343 15.7318C113.6 15.2533 113.944 14.8618 114.388 14.5863C114.846 14.2963 115.376 14.1513 115.963 14.1513C116.335 14.1513 116.693 14.2238 117.037 14.3543C117.395 14.4703 117.724 14.6588 118.025 14.8908C118.325 15.1083 118.569 15.3548 118.769 15.6303L120.445 13.5858C119.972 12.9188 119.313 12.3968 118.469 12.0198C117.624 11.6428 116.693 11.4543 115.677 11.4543C114.588 11.4543 113.615 11.7153 112.756 12.2373C111.897 12.7593 111.224 13.4843 110.723 14.3978C110.236 15.2968 109.992 16.2973 109.992 17.4283C109.992 18.5738 110.236 19.6033 110.723 20.5023C111.224 21.4013 111.897 22.1118 112.756 22.6338C113.615 23.1558 114.588 23.4168 115.677 23.4168C116.636 23.4168 117.552 23.2283 118.411 22.8513C119.27 22.4598 119.943 21.9523 120.43 21.3288L118.769 19.2843C118.526 19.5888 118.254 19.8498 117.953 20.0673ZM132.286 17.1818C132.314 16.3408 132.2 15.5868 131.942 14.8908C131.684 14.1948 131.312 13.6003 130.825 13.0783C130.353 12.5563 129.78 12.1648 129.121 11.8893C128.463 11.5993 127.747 11.4543 126.974 11.4543C126.143 11.4543 125.37 11.6138 124.654 11.9183C123.953 12.1938 123.351 12.6143 122.836 13.1798C122.32 13.7018 121.919 14.3543 121.633 15.0793C121.347 15.8188 121.203 16.6453 121.203 17.5298C121.203 18.6753 121.461 19.6758 121.977 20.5748C122.492 21.4593 123.208 22.1408 124.124 22.6483C125.041 23.1703 126.115 23.4168 127.346 23.4168C127.861 23.4168 128.377 23.3443 128.907 23.2138C129.436 23.0978 129.952 22.9093 130.453 22.6483C130.954 22.3873 131.412 22.0828 131.828 21.7058L130.367 19.6323C129.895 20.0238 129.451 20.2993 129.035 20.4588C128.62 20.6183 128.162 20.6908 127.661 20.6908C126.931 20.6908 126.301 20.5603 125.757 20.2848C125.227 19.9948 124.812 19.6033 124.511 19.0813C124.353 18.7913 124.239 18.4868 124.182 18.1388H132.257L132.286 17.1818ZM129.408 16.2393H124.196C124.239 15.9783 124.325 15.7608 124.425 15.5433C124.654 15.0648 124.983 14.7023 125.413 14.4558C125.857 14.2093 126.387 14.0933 127.017 14.0933C127.446 14.0933 127.833 14.1658 128.176 14.3543C128.52 14.5283 128.806 14.7748 129.021 15.0793C129.25 15.3983 129.379 15.7608 129.408 16.1523V16.2393Z" fill="white"/>
<path d="M48.8397 17.2544C48.9543 17.2109 49.0688 17.1529 49.1834 17.0804C49.9422 16.6454 50.5293 16.0654 50.9588 15.3259C51.4027 14.5719 51.6318 13.7454 51.6318 12.8319C51.6318 11.8894 51.4027 11.0774 50.9588 10.3524C50.5293 9.62737 49.9422 9.04737 49.1834 8.62687C48.4245 8.19187 47.5797 7.97437 46.649 7.97437H39.9911V23.1994H43.0981V17.7329H45.475L48.5104 23.1994L52.2475 23.2139L48.8397 17.2544ZM43.0981 10.8019H46.0906C46.5631 10.8019 46.9784 10.8889 47.3363 11.0774C47.6943 11.2514 47.9663 11.4979 48.1525 11.8169C48.3386 12.1504 48.4245 12.5274 48.4245 12.9624C48.4245 13.3684 48.3529 13.7309 48.1954 14.0644C48.0379 14.3834 47.8088 14.6444 47.5081 14.8329C47.2218 15.0069 46.8781 15.0794 46.4915 15.0794H43.0981V10.8019Z" fill="white"/>
<path d="M135.324 21.7723C135.707 21.7723 136.018 22.087 136.018 22.475C136.018 22.8631 135.707 23.1777 135.324 23.1777H135.284C134.901 23.1777 134.591 22.8631 134.591 22.475C134.591 22.087 134.901 21.7723 135.284 21.7723H135.324Z" fill="white"/>
<path d="M139.973 15.7603C139.479 15.7381 139.132 15.8199 138.933 16.0058C138.734 16.1842 138.634 16.4929 138.634 16.9316V17.0319H139.973V18.125H138.634V23.1777H137.362V18.125H136.531V17.0319H137.362V16.8311C137.362 16.0801 137.579 15.5187 138.014 15.1469C138.449 14.7677 139.103 14.6003 139.973 14.645V15.7603Z" fill="white"/>
<path d="M141.706 17.0319L143.532 21.5492L145.225 17.0319H146.63L142.945 26.1H141.54L142.857 23.0327L140.29 17.0319H141.706Z" fill="white"/>
<path d="M147.282 15.2473C147.282 15.0317 147.356 14.8532 147.504 14.7119C147.651 14.5706 147.846 14.5 148.09 14.5C148.333 14.5 148.529 14.5706 148.676 14.7119C148.831 14.8532 148.909 15.0317 148.909 15.2473C148.909 15.4629 148.831 15.6377 148.676 15.7716C148.529 15.9053 148.333 15.9723 148.09 15.9723C147.846 15.9723 147.651 15.9053 147.504 15.7716C147.356 15.6377 147.282 15.4629 147.282 15.2473ZM148.721 17.0319V23.1777H147.459V17.0319H148.721Z" fill="white"/>
<path fill-rule="evenodd" clip-rule="evenodd" d="M19.4298 0L5.22614 5.4665V8.7145C2.60591 8.903 0.243409 10.817 0 11.02L1.38886 11.3825C5.58409 12.4845 5.24045 19.749 5.1975 20.5465L16.9527 29L30.7555 24.1715L30.87 7.105C30.87 7.105 23.8398 2.7985 19.4298 0ZM6.74386 19.807C6.82977 18.038 6.74386 12.76 3.33614 10.5995C3.89455 10.411 4.52455 10.295 5.21182 10.2515C7.28795 10.0775 10.9534 10.4835 16.2941 13.253L16.3227 26.6945L6.74386 19.807ZM26.0161 21.721L24.2407 19.9955L22.0214 23.026V15.254L26.0161 13.63V21.721ZM17.1102 11.977L7.66023 6.148L19.2723 1.6675L28.4789 7.3805L17.1102 11.977Z" fill="white"/>
<path d="M12.8075 19.35C12.8541 19.3572 12.8971 19.3609 12.9436 19.3572C13.2371 19.3536 13.4662 19.2376 13.6345 19.0056C13.8098 18.7736 13.8993 18.451 13.9029 18.0269C13.9065 17.5882 13.8206 17.1496 13.6523 16.7001C13.4913 16.2506 13.2657 15.8265 12.9722 15.435C12.6823 15.0326 12.3565 14.7136 11.9986 14.4707L9.42845 12.7307L9.37118 19.7959L10.5704 20.6079L10.5918 18.0704L11.5082 18.6939L12.6608 22.0216L14.1033 23.004L12.8075 19.35ZM12.5713 17.7006C12.5105 17.8057 12.421 17.8674 12.3029 17.8782C12.1919 17.8819 12.0595 17.8275 11.9127 17.726L10.6025 16.8415L10.6169 14.855L11.7731 15.638C11.9556 15.7612 12.1131 15.9099 12.2527 16.0911C12.3888 16.2651 12.4925 16.45 12.5641 16.6457C12.6357 16.8487 12.668 17.0481 12.6644 17.2475C12.6644 17.436 12.6357 17.5846 12.5713 17.7006Z" fill="white"/>
</svg>
