<svg width="150" height="31" viewBox="0 0 150 31" fill="none" xmlns="http://www.w3.org/2000/svg">
<g clip-path="url(#clip0_8814_11889)">
<path fill-rule="evenodd" clip-rule="evenodd" d="M15.6977 0C24.3673 0 31.3953 6.93959 31.3953 15.5C31.3953 24.0604 24.3673 31 15.6977 31C7.02809 31 0 24.0604 0 15.5C0 6.93959 7.02809 0 15.6977 0ZM16.3492 22.4192C16.2139 22.4193 16.1039 22.5277 16.1039 22.6614V24.9453C16.104 25.0789 16.2139 25.1873 16.3492 25.1875H18.664C18.7995 25.1875 18.9092 25.079 18.9093 24.9453V22.6614C18.9093 22.5276 18.7995 22.4192 18.664 22.4192H16.3492ZM19.4654 22.4192C19.33 22.4193 19.2201 22.5277 19.2201 22.6614V24.9453C19.2202 25.0789 19.33 25.1874 19.4654 25.1875H21.7802C21.9156 25.1875 22.0254 25.079 22.0255 24.9453V22.6614C22.0255 22.5276 21.9156 22.4192 21.7802 22.4192H19.4654ZM22.5807 22.4192C22.4453 22.4192 22.3355 22.5276 22.3355 22.6614V24.9453C22.3355 25.079 22.4453 25.1875 22.5807 25.1875H24.8955C25.0308 25.1873 25.1407 25.0789 25.1408 24.9453V22.6614C25.1408 22.5277 25.0308 22.4193 24.8955 22.4192H22.5807ZM15.9472 5.8125C10.5359 5.81267 6.1319 10.1584 6.1319 15.5C6.1319 20.7076 10.3168 24.9694 15.5418 25.1808C15.6785 25.186 15.7914 25.0762 15.7914 24.9411V19.5743C15.7913 19.4444 15.6871 19.3385 15.5563 19.3254C13.5916 19.1305 12.0526 17.4889 12.0526 15.5C12.0526 13.381 13.7997 11.6556 15.9489 11.657C16.8568 11.657 17.7186 11.9619 18.4127 12.5231C18.5146 12.6053 18.6639 12.6024 18.7568 12.5105L22.6012 8.71539C22.6977 8.61978 22.6966 8.46388 22.5961 8.37229C20.7801 6.71906 18.433 5.8125 15.9472 5.8125ZM16.3492 19.3447C16.2139 19.3449 16.104 19.4533 16.1039 19.5869V21.8709C16.1039 22.0045 16.2139 22.1129 16.3492 22.1131H18.664C18.7995 22.1131 18.9093 22.0046 18.9093 21.8709V19.5869C18.9092 19.4532 18.7995 19.3447 18.664 19.3447H16.3492ZM19.4654 19.3447C19.33 19.3449 19.2202 19.4533 19.2201 19.5869V21.8709C19.2201 22.0045 19.33 22.1129 19.4654 22.1131H21.7802C21.9156 22.1131 22.0255 22.0046 22.0255 21.8709V19.5869C22.0254 19.4532 21.9156 19.3447 21.7802 19.3447H19.4654ZM22.5807 19.3447C22.4453 19.3447 22.3355 19.4532 22.3355 19.5869V21.8709C22.3355 22.0046 22.4453 22.1131 22.5807 22.1131H24.8955C25.0308 22.1129 25.1408 22.0045 25.1408 21.8709V19.5869C25.1408 19.4533 25.0308 19.3449 24.8955 19.3447H22.5807ZM19.4654 16.2686C19.3301 16.2687 19.2203 16.3773 19.2201 16.5108V18.7956C19.2203 18.9292 19.3301 19.0377 19.4654 19.0378H21.7802C21.9155 19.0378 22.0252 18.9292 22.0255 18.7956V16.5108C22.0253 16.3772 21.9155 16.2686 21.7802 16.2686H19.4654ZM22.5807 16.2686C22.4454 16.2686 22.3356 16.3772 22.3355 16.5108V18.7956C22.3357 18.9292 22.4454 19.0378 22.5807 19.0378H24.8955C25.0307 19.0376 25.1406 18.9291 25.1408 18.7956V16.5108C25.1406 16.3773 25.0307 16.2688 24.8955 16.2686H22.5807Z" fill="black"/>
<path d="M49.6586 8.71873H52.131V22.7152C52.131 23.6104 51.9201 24.4422 51.4981 25.2107C51.0861 25.9883 50.5269 26.6619 49.8205 27.2316C49.1141 27.8102 48.3096 28.2578 47.407 28.5742C46.5044 28.8997 45.5625 29.0625 44.5814 29.0625C43.5611 29.0625 42.5751 28.85 41.6233 28.4251C40.6717 28.0092 39.8377 27.4485 39.1216 26.7432C38.4152 26.047 37.905 25.265 37.5911 24.397L39.8574 23.4476C40.0438 24.0715 40.3774 24.6321 40.8581 25.1294C41.3486 25.6357 41.9177 26.0335 42.5652 26.3229C43.2226 26.6212 43.8946 26.7704 44.5814 26.7704C45.2289 26.7704 45.852 26.6664 46.4504 26.4585C47.0587 26.2505 47.6032 25.9612 48.0839 25.5905C48.5745 25.2288 48.9571 24.7994 49.2318 24.3021C49.5163 23.8138 49.6586 23.2849 49.6586 22.7152V20.0162C49.1582 20.7938 48.496 21.4267 47.6718 21.915C46.8576 22.3943 45.9058 22.6339 44.8169 22.6339C43.7769 22.6339 42.8007 22.4485 41.8883 22.0778C40.9758 21.7071 40.1762 21.1962 39.4894 20.5452C38.8027 19.8852 38.2631 19.1257 37.8706 18.2667C37.4782 17.4078 37.282 16.4855 37.282 15.5C37.282 14.5144 37.4782 13.5922 37.8706 12.7332C38.2631 11.8652 38.8027 11.1057 39.4894 10.4547C40.1762 9.79468 40.9758 9.27931 41.8883 8.9086C42.8007 8.53789 43.7769 8.35254 44.8169 8.35254C45.9058 8.35254 46.8576 8.59214 47.6718 9.07135C48.496 9.55056 49.1582 10.1835 49.6586 10.9701V8.71873ZM44.8316 20.4232C45.7832 20.4232 46.6074 20.1972 47.304 19.7451C48.0104 19.293 48.5548 18.6917 48.9375 17.9412C49.3201 17.1908 49.5114 16.377 49.5114 15.5C49.5114 14.5958 49.3152 13.773 48.9228 13.0316C48.5402 12.2811 47.9956 11.6844 47.2892 11.2414C46.5926 10.7893 45.7735 10.5632 44.8316 10.5632C43.9094 10.5632 43.0656 10.7848 42.3004 11.2278C41.5351 11.6709 40.9268 12.2676 40.4755 13.0181C40.034 13.7595 39.8132 14.5868 39.8132 15.5C39.8132 16.4132 40.0388 17.245 40.4902 17.9955C40.9513 18.7369 41.5596 19.3292 42.315 19.7722C43.0803 20.2062 43.9191 20.4232 44.8316 20.4232Z" fill="black"/>
<path d="M54.4923 22.2814V8.71886H56.9647V10.4142C57.4847 9.7813 58.142 9.27944 58.9368 8.90874C59.7314 8.52899 60.5948 8.33911 61.5269 8.33911C62.0959 8.33911 62.6453 8.40692 63.1751 8.54255L62.1744 10.8211C61.7721 10.7036 61.3797 10.6447 60.9971 10.6447C60.2612 10.6447 59.5843 10.812 58.9661 11.1466C58.3579 11.4721 57.8722 11.9151 57.5092 12.4757C57.1462 13.0363 56.9647 13.6602 56.9647 14.3473V22.2814H54.4923Z" fill="black"/>
<path d="M74.8911 8.71886H77.3635V22.2814H74.8911L74.7881 19.9893C74.3269 20.776 73.6893 21.4134 72.8749 21.9016C72.0704 22.3899 71.1089 22.634 69.9904 22.634C68.9112 22.634 67.9007 22.4487 66.9589 22.078C66.017 21.6982 65.183 21.1783 64.457 20.5182C63.7408 19.8492 63.1816 19.0806 62.7794 18.2126C62.3771 17.3446 62.176 16.4088 62.176 15.4052C62.176 14.4378 62.3722 13.5245 62.7646 12.6656C63.1571 11.8066 63.7016 11.0562 64.3981 10.4142C65.1045 9.76322 65.9189 9.25688 66.8411 8.89522C67.7634 8.52447 68.7543 8.33911 69.8138 8.33911C70.9715 8.33911 71.987 8.59228 72.8602 9.09861C73.7334 9.5959 74.4398 10.2424 74.9794 11.0381L74.8911 8.71886ZM69.9463 20.4233C70.9177 20.4233 71.7564 20.2063 72.4628 19.7723C73.1791 19.3293 73.7285 18.7325 74.1111 17.9821C74.5035 17.2316 74.6997 16.4043 74.6997 15.5001C74.6997 14.5779 74.5035 13.746 74.1111 13.0046C73.7186 12.2542 73.1643 11.662 72.4482 11.228C71.7418 10.7849 70.9078 10.5634 69.9463 10.5634C68.9751 10.5634 68.0921 10.7849 67.2973 11.228C66.5027 11.671 65.8698 12.2678 65.3989 13.0182C64.9378 13.7596 64.7072 14.5869 64.7072 15.5001C64.7072 16.4133 64.9476 17.2452 65.4283 17.9956C65.909 18.737 66.5468 19.3293 67.3415 19.7723C68.1362 20.2063 69.0045 20.4233 69.9463 20.4233Z" fill="black"/>
<path d="M88.7482 8.71875H91.3679L83.3178 29.0625H80.6982L83.362 22.2812L78.0787 8.71875H80.7866L84.5982 19.1483L88.7482 8.71875Z" fill="black"/>
<path d="M103.873 8.71873H106.346V22.7152C106.346 23.6104 106.135 24.4422 105.713 25.2107C105.301 25.9883 104.741 26.6619 104.035 27.2316C103.328 27.8102 102.524 28.2578 101.622 28.5742C100.719 28.8997 99.777 29.0625 98.7959 29.0625C97.7756 29.0625 96.7893 28.85 95.8378 28.4251C94.8863 28.0092 94.0526 27.4485 93.3358 26.7432C92.6294 26.047 92.1192 25.265 91.8052 24.397L94.0718 23.4476C94.2584 24.0715 94.5916 24.6321 95.073 25.1294C95.5631 25.6357 96.1326 26.0335 96.7797 26.3229C97.4372 26.6212 98.1087 26.7704 98.7959 26.7704C99.443 26.7704 100.067 26.6664 100.665 26.4585C101.274 26.2505 101.818 25.9612 102.298 25.5905C102.789 25.2288 103.171 24.7994 103.446 24.3021C103.731 23.8138 103.873 23.2849 103.873 22.7152V20.0162C103.373 20.7938 102.711 21.4267 101.887 21.915C101.072 22.3943 100.121 22.6339 99.0314 22.6339C97.991 22.6339 97.0151 22.4485 96.1029 22.0778C95.1907 21.7071 94.391 21.1962 93.7038 20.5452C93.0174 19.8852 92.4776 19.1257 92.0852 18.2667C91.6927 17.4078 91.4965 16.4855 91.4965 15.5C91.4965 14.5144 91.6927 13.5922 92.0852 12.7332C92.4776 11.8652 93.0174 11.1057 93.7038 10.4547C94.391 9.79468 95.1907 9.27931 96.1029 8.9086C97.0151 8.53789 97.991 8.35254 99.0314 8.35254C100.121 8.35254 101.072 8.59214 101.887 9.07135C102.711 9.55056 103.373 10.1835 103.873 10.9701V8.71873ZM99.0462 20.4232C99.9977 20.4232 100.822 20.1972 101.519 19.7451C102.225 19.293 102.769 18.6917 103.152 17.9412C103.535 17.1908 103.726 16.377 103.726 15.5C103.726 14.5958 103.53 13.773 103.137 13.0316C102.754 12.2811 102.21 11.6844 101.504 11.2414C100.807 10.7893 99.9881 10.5632 99.0462 10.5632C98.1236 10.5632 97.2802 10.7848 96.5145 11.2278C95.7497 11.6709 95.141 12.2676 94.6901 13.0181C94.2488 13.7595 94.0273 14.5868 94.0273 15.5C94.0273 16.4132 94.2532 17.245 94.705 17.9955C95.1654 18.7369 95.7741 19.3292 96.5294 19.7722C97.2951 20.2062 98.134 20.4232 99.0462 20.4232Z" fill="black"/>
<path d="M108.707 22.2811V8.71862H111.179V10.414C111.7 9.78106 112.356 9.2792 113.152 8.90849C113.946 8.52874 114.81 8.33887 115.742 8.33887C116.311 8.33887 116.86 8.40668 117.39 8.5423L116.389 10.8208C115.987 10.7033 115.595 10.6445 115.212 10.6445C114.476 10.6445 113.799 10.8118 113.181 11.1463C112.573 11.4718 112.087 11.9149 111.724 12.4755C111.361 13.0361 111.179 13.6599 111.179 14.3471V22.2811H108.707Z" fill="black"/>
<path d="M118.021 8.71886H120.493V22.2814H118.021V8.71886ZM119.287 6.50817C118.894 6.50817 118.566 6.39063 118.301 6.15555C118.035 5.92046 117.903 5.62661 117.903 5.27398C117.903 4.92136 118.035 4.6275 118.301 4.39242C118.566 4.15734 118.889 4.03979 119.272 4.03979C119.655 4.03979 119.978 4.15734 120.244 4.39242C120.508 4.6275 120.64 4.92136 120.64 5.27398C120.64 5.62661 120.508 5.92046 120.244 6.15555C119.988 6.39063 119.669 6.50817 119.287 6.50817Z" fill="black"/>
<path d="M134.497 1.9375H136.969V22.2812H134.497V19.9756C133.996 20.7713 133.324 21.4132 132.48 21.9015C131.636 22.3897 130.646 22.6339 129.508 22.6339C128.438 22.6339 127.437 22.4486 126.505 22.0779C125.574 21.7071 124.749 21.1962 124.033 20.5452C123.326 19.8852 122.772 19.1257 122.37 18.2667C121.967 17.4078 121.767 16.4855 121.767 15.5C121.767 14.5145 121.967 13.5922 122.37 12.7332C122.772 11.8652 123.326 11.1058 124.033 10.4548C124.749 9.79471 125.574 9.27933 126.505 8.90863C127.437 8.53792 128.438 8.35256 129.508 8.35256C130.646 8.35256 131.636 8.59669 132.48 9.08498C133.324 9.57323 133.996 10.2152 134.497 11.0109V1.9375ZM129.537 20.4232C130.508 20.4232 131.347 20.2062 132.053 19.7722C132.77 19.3292 133.319 18.7324 133.701 17.982C134.094 17.2315 134.29 16.4042 134.29 15.5C134.29 14.5778 134.094 13.7459 133.701 13.0045C133.309 12.254 132.755 11.6619 132.038 11.2279C131.332 10.7848 130.498 10.5633 129.537 10.5633C128.566 10.5633 127.682 10.7848 126.888 11.2279C126.103 11.6709 125.475 12.2676 125.004 13.0181C124.533 13.7595 124.298 14.5868 124.298 15.5C124.298 16.4132 124.538 17.245 125.019 17.9955C125.499 18.7369 126.138 19.3292 126.932 19.7722C127.727 20.2062 128.595 20.4232 129.537 20.4232Z" fill="black"/>
<path d="M143.811 22.5388C143.015 22.5117 142.241 22.3762 141.485 22.132C140.739 21.8789 140.083 21.5398 139.513 21.1148C138.954 20.6808 138.547 20.1835 138.291 19.6229L140.41 18.7821C140.558 19.0895 140.823 19.3788 141.206 19.6501C141.588 19.9213 142.03 20.1383 142.53 20.3011C143.03 20.4638 143.536 20.5452 144.046 20.5452C144.585 20.5452 145.091 20.4684 145.562 20.3147C146.033 20.161 146.415 19.9349 146.71 19.6365C147.014 19.3291 147.166 18.9629 147.166 18.5379C147.166 18.0859 146.999 17.7332 146.665 17.4801C146.342 17.2179 145.93 17.0144 145.429 16.8697C144.938 16.7161 144.439 16.5713 143.928 16.4358C142.918 16.2006 142.015 15.9204 141.221 15.5949C140.425 15.2604 139.797 14.8399 139.337 14.3336C138.885 13.8182 138.659 13.1627 138.659 12.367C138.659 11.5262 138.91 10.7983 139.41 10.1834C139.92 9.56861 140.587 9.09397 141.412 8.75942C142.236 8.42484 143.118 8.25757 144.06 8.25757C145.248 8.25757 146.332 8.49265 147.313 8.96282C148.294 9.43298 149.025 10.0705 149.505 10.8752L147.519 11.9466C147.352 11.6211 147.097 11.3363 146.754 11.0922C146.41 10.839 146.018 10.6401 145.577 10.4954C145.135 10.3508 144.684 10.2739 144.222 10.2648C143.654 10.2467 143.118 10.3146 142.619 10.4683C142.128 10.622 141.731 10.8571 141.426 11.1735C141.132 11.481 140.985 11.8652 140.985 12.3263C140.985 12.7784 141.142 13.122 141.456 13.3571C141.78 13.5922 142.196 13.782 142.707 13.9267C143.226 14.0623 143.791 14.2206 144.399 14.4014C145.292 14.6636 146.126 14.9665 146.901 15.3101C147.676 15.6537 148.299 16.0832 148.769 16.5985C149.251 17.1139 149.486 17.7513 149.476 18.5108C149.476 19.3427 149.206 20.0705 148.667 20.6944C148.128 21.3093 147.426 21.7793 146.562 22.1048C145.708 22.4304 144.792 22.575 143.811 22.5388Z" fill="black"/>
</g>
<defs>
<clipPath id="clip0_8814_11889">
<rect width="150" height="31" fill="white"/>
</clipPath>
</defs>
</svg>
