<svg width="153" height="29" viewBox="0 0 153 29" fill="none" xmlns="http://www.w3.org/2000/svg">
<g clip-path="url(#clip0_11228_2240)">
<path d="M28 0.5V28.5H10.8031V22.8096H22.6864V17.2699H10.8031V11.8055H22.6864V6.34118H5.38896V28.5H0V0.5H28Z" fill="white"/>
<path d="M51.4835 16.1629V13.1489H44.3547V7.93333H52.8463V4.8407H41V23.9993H44.3547V16.1629H51.4835Z" fill="white"/>
<path d="M53.2473 17.4995C53.2473 21.5357 56.1564 24.3138 60.1664 24.3138C64.1763 24.3138 67.0855 21.5357 67.0855 17.4995C67.0855 13.4634 64.1763 10.6853 60.1664 10.6853C56.1564 10.6853 53.2473 13.4634 53.2473 17.4995ZM56.4447 17.4995C56.4447 15.1407 57.9648 13.542 60.1664 13.542C62.3679 13.542 63.888 15.1407 63.888 17.4995C63.888 19.8583 62.3679 21.457 60.1664 21.457C57.9648 21.457 56.4447 19.8583 56.4447 17.4995Z" fill="white"/>
<path d="M77.3515 10.9998C76.8273 10.8687 76.3818 10.8163 75.9362 10.8163C74.2064 10.8163 72.9746 11.6812 72.4242 12.9654L72.2408 11.0784H69.2268V23.9993H72.4242V17.7092C72.4242 15.1932 73.8657 13.9613 76.1721 13.9613H77.3515V10.9998Z" fill="white"/>
<path d="M82.3201 23.9994V16.6609C82.3201 14.5642 83.5519 13.5683 85.072 13.5683C86.5921 13.5683 87.5618 14.538 87.5618 16.3464V23.9994H90.7593V16.6609C90.7593 14.538 91.9387 13.5421 93.485 13.5421C95.0051 13.5421 96.001 14.5118 96.001 16.3727V23.9994H99.1723V15.534C99.1723 12.5462 97.4425 10.6591 94.2975 10.6591C92.3318 10.6591 90.8117 11.6289 90.1565 13.1228C89.4751 11.6289 88.1122 10.6591 86.1466 10.6591C84.2857 10.6591 82.9753 11.4978 82.3201 12.5724L82.058 11.0523H79.1226V23.9994H82.3201Z" fill="white"/>
<path d="M102.39 23.9993H110.148C114.105 23.9993 116.385 22.0861 116.385 18.81C116.385 16.5822 115.363 15.0621 113.345 14.4069C115.153 13.6468 116.097 12.1267 116.097 10.0038C116.097 6.80636 113.791 4.8407 110.017 4.8407H102.39V23.9993ZM109.728 7.80229C111.615 7.80229 112.664 8.69338 112.664 10.3445C112.664 12.0481 111.642 13.0178 109.807 13.0178H105.745V7.80229H109.728ZM110.017 15.8484C111.877 15.8484 112.952 16.7657 112.952 18.3906C112.952 20.1204 111.904 21.0377 110.017 21.0377H105.745V15.8484H110.017Z" fill="white"/>
<path d="M117.836 17.4995C117.836 21.5357 120.746 24.3138 124.755 24.3138C128.765 24.3138 131.675 21.5357 131.675 17.4995C131.675 13.4634 128.765 10.6853 124.755 10.6853C120.746 10.6853 117.836 13.4634 117.836 17.4995ZM121.034 17.4995C121.034 15.1407 122.554 13.542 124.755 13.542C126.957 13.542 128.477 15.1407 128.477 17.4995C128.477 19.8583 126.957 21.457 124.755 21.457C122.554 21.457 121.034 19.8583 121.034 17.4995Z" fill="white"/>
<path d="M137.04 23.9993V4.5H133.868V23.9993H137.04Z" fill="white"/>
<path d="M145.321 24.34C147.287 24.34 148.964 23.4751 149.75 21.9812L149.96 23.9993H152.895V4.5H149.724V12.7033C148.912 11.4191 147.313 10.659 145.504 10.659C141.599 10.659 139.241 13.542 139.241 17.5782C139.241 21.5881 141.573 24.34 145.321 24.34ZM146.029 21.4046C143.801 21.4046 142.438 19.7797 142.438 17.4733C142.438 15.1669 143.801 13.5158 146.029 13.5158C148.256 13.5158 149.698 15.1407 149.698 17.4733C149.698 19.8059 148.256 21.4046 146.029 21.4046Z" fill="white"/>
</g>
<defs>
<clipPath id="clip0_11228_2240">
<rect width="153" height="28" fill="white" transform="translate(0 0.5)"/>
</clipPath>
</defs>
</svg>
