<svg width="103" height="29" viewBox="0 0 103 29" fill="none" xmlns="http://www.w3.org/2000/svg">
<g clip-path="url(#clip0_11228_2296)">
<path d="M89.2323 16.453C89.2323 16.0398 89.5871 15.6984 89.9948 15.6984C90.4025 15.6984 90.7394 16.0398 90.7394 16.453C90.7394 16.8663 90.3846 17.2077 89.9948 17.2077C89.6042 17.2077 89.2323 16.8663 89.2323 16.453Z" fill="white"/>
<path d="M91.7852 14.5305H92.7951V14.9078C92.7951 15.6625 93.2028 16.2195 94.054 16.2195C94.9052 16.2195 95.295 15.6804 95.295 14.8719V9.30188H96.3229V14.9078C96.3229 16.3093 95.4009 17.1718 94.0361 17.1718C92.5827 17.1718 91.7673 16.2374 91.7673 14.8899V14.5125L91.7852 14.5305Z" fill="white"/>
<path d="M100.24 9.19397C101.695 9.19397 102.634 10.0205 102.722 11.3681H101.677C101.623 10.5955 101.092 10.1463 100.223 10.1463C99.2655 10.1463 98.6454 10.6314 98.6454 11.404C98.6454 12.0329 98.9994 12.3922 99.709 12.5719L100.967 12.8773C102.208 13.1649 102.846 13.8476 102.846 14.9437C102.846 16.3452 101.783 17.2256 100.152 17.2256C98.5209 17.2256 97.5639 16.399 97.493 15.0694H98.5567C98.5745 15.8061 99.1947 16.2733 100.152 16.2733C101.162 16.2733 101.818 15.7881 101.818 15.0155C101.818 14.4046 101.499 14.0273 100.755 13.8476L99.4958 13.5601C98.2555 13.2727 97.5996 12.536 97.5996 11.422C97.5996 10.0924 98.6632 9.19397 100.24 9.19397Z" fill="white"/>
<path d="M48.6219 1.44983V12.6078L41.3362 1.44983H38.6417V17.2076H41.3185V6.03161L48.6219 17.2076H51.2987V1.44983H48.6219Z" fill="white"/>
<path d="M62.963 1.44983V3.98328H56.0318V8.04399H62.2362V10.4697H56.0318V14.6561H62.963V17.2076H53.3019V1.44983H62.963Z" fill="white"/>
<path d="M80.3708 1.44983L78.6691 3.98328H83.5967V17.2076H86.3269V3.98328H89.8017L91.4855 1.44983H80.3708Z" fill="white"/>
<path d="M68.795 10.9907L70.4614 13.4703L67.9442 17.2076H64.6293L68.795 10.9907Z" fill="white"/>
<path d="M78.5625 17.2076H75.23L71.5957 11.7813L69.9296 9.30175L64.6647 1.44983H67.9796L71.5957 6.82219L75.1943 1.44983H78.5096L74.9997 6.67845L73.2444 9.30175L78.5625 17.2076Z" fill="white"/>
<path d="M38.6417 19.3003H43.2862V19.9112H41.283V25.8586H40.6272V19.9112H38.6417V19.3003Z" fill="white"/>
<path d="M43.0735 23.6305C43.0735 22.247 43.9244 21.2947 45.183 21.2947C46.4416 21.2947 47.1684 22.1392 47.1684 23.397V23.7024H43.6762C43.7294 24.7805 44.2789 25.4093 45.2185 25.4093C45.9275 25.4093 46.3884 25.1039 46.5657 24.5109H47.1684C46.9379 25.4452 46.2466 25.9484 45.2185 25.9484C43.9244 25.9484 43.0735 25.0141 43.0735 23.6305ZM43.6939 23.2532H46.5479C46.5479 22.4087 45.9984 21.8337 45.183 21.8337C44.3676 21.8337 43.818 22.3907 43.7117 23.2532H43.6939Z" fill="white"/>
<path d="M48.1611 25.8586V21.4205H48.7106L48.7815 22.0493C48.9942 21.5822 49.4906 21.2947 50.111 21.2947C50.8024 21.2947 51.3165 21.6541 51.5292 22.247C51.7242 21.672 52.256 21.2947 52.965 21.2947C53.9223 21.2947 54.5427 21.9236 54.5427 22.9477V25.8586H53.94V23.0915C53.94 22.3369 53.5146 21.8877 52.8587 21.8877C52.1319 21.8877 51.6887 22.4447 51.6887 23.1274V25.8586H51.0682V23.0735C51.0682 22.3189 50.6428 21.8877 49.9869 21.8877C49.2601 21.8877 48.817 22.4447 48.817 23.1094V25.8586H48.1611Z" fill="white"/>
<path d="M55.7836 21.4205H56.3331L56.404 22.3189C56.7053 21.6361 57.3259 21.2947 58.0703 21.2947C59.3467 21.2947 60.0912 22.2829 60.0912 23.6126C60.0912 24.9422 59.3644 25.9484 58.0703 25.9484C57.3259 25.9484 56.7408 25.625 56.4395 24.9781V27.7631H55.819V21.4025L55.7836 21.4205ZM57.9463 25.3914C58.9035 25.3914 59.453 24.6547 59.453 23.6305C59.453 22.6063 58.9035 21.8697 57.9463 21.8697C56.989 21.8697 56.4217 22.6063 56.4217 23.6305C56.4217 24.6547 56.989 25.3914 57.9463 25.3914Z" fill="white"/>
<path d="M61.1017 25.8586V19.6238L61.7221 19.1746V25.8406H61.1017V25.8586Z" fill="white"/>
<path d="M62.8211 24.6547C62.8211 23.8461 63.4416 23.325 64.4698 23.2532L65.9233 23.1274V22.9837C65.9233 22.1212 65.4093 21.8337 64.7711 21.8337C64.0088 21.8337 63.5656 22.1751 63.5656 22.786H62.9984C62.9984 21.8876 63.7252 21.3126 64.8066 21.3126C65.817 21.3126 66.5615 21.8337 66.5615 23.0016V25.8585H66.0297L65.9411 25.0859C65.6751 25.6429 65.0724 25.9842 64.3279 25.9842C63.3884 25.9842 62.8388 25.4452 62.8388 24.6726L62.8211 24.6547ZM65.9056 23.8461V23.6125L64.6115 23.7203C63.7784 23.7922 63.4593 24.1516 63.4593 24.6547C63.4593 25.1937 63.8493 25.4632 64.452 25.4632C65.3738 25.4632 65.9056 24.8163 65.9056 23.8461Z" fill="white"/>
<path d="M68.086 25.8586V21.9596H67.1997V21.4205H68.086V20.4503L68.7064 20.019V21.4205H69.5928V21.9596H68.7064V25.8586H68.086Z" fill="white"/>
<path d="M70.036 23.6305C70.036 22.247 70.8869 21.2947 72.1458 21.2947C73.404 21.2947 74.1307 22.1392 74.1307 23.397V23.7024H70.6387C70.6919 24.7805 71.2414 25.4093 72.1808 25.4093C72.8897 25.4093 73.351 25.1039 73.5284 24.5109H74.1307C73.9004 25.4452 73.2094 25.9484 72.1808 25.9484C70.8869 25.9484 70.036 25.0141 70.036 23.6305ZM70.6564 23.2532H73.5105C73.5105 22.4087 72.9612 21.8337 72.1458 21.8337C71.33 21.8337 70.7805 22.3907 70.6742 23.2532H70.6564Z" fill="white"/>
<path d="M75.3538 24.6007C75.3538 25.1218 75.7264 25.4273 76.3466 25.4273C77.0204 25.4273 77.4281 25.1398 77.4281 24.6547C77.4281 24.2953 77.2507 24.0797 76.7364 23.9539L75.9925 23.7562C75.23 23.5586 74.8574 23.1633 74.8574 22.5524C74.8574 21.7798 75.4961 21.2767 76.4353 21.2767C77.3752 21.2767 77.9595 21.7978 77.9774 22.6063H77.3752C77.3752 22.0853 77.0025 21.7978 76.4174 21.7978C75.8323 21.7978 75.4604 22.0673 75.4604 22.5345C75.4604 22.8759 75.6907 23.1094 76.1692 23.2352L76.9138 23.4328C77.6763 23.6305 78.0132 23.9898 78.0132 24.6187C78.0132 25.4093 77.3394 25.9304 76.3466 25.9304C75.3538 25.9304 74.7515 25.3913 74.7515 24.5828H75.3538V24.6007Z" fill="white"/>
<path d="M102.088 23.7339H81.1354L81.9329 22.7996H102.868L102.088 23.7339Z" fill="white"/>
<path d="M28.6289 14.482C28.6289 16.4764 28.2388 18.3811 27.5298 20.088C25.3671 25.3345 20.2795 29 14.3233 29C6.41711 29 0 22.5136 0 14.5C0 6.48637 6.41711 0 14.3233 0C18.9145 0 23.0094 2.19207 25.633 5.60595H14.0574L16.0782 8.67847H18.6663V18.2013L15.7769 13.7633L10.4411 5.60595H7.39211V23.2H10.4234V10.7807L18.6663 23.3941H21.6799V8.67847H27.4411C28.2034 10.4573 28.6289 12.4158 28.6289 14.482Z" fill="white"/>
</g>
<defs>
<clipPath id="clip0_11228_2296">
<rect width="103" height="29" fill="white"/>
</clipPath>
</defs>
</svg>
