<svg width="103" height="29" viewBox="0 0 103 29" fill="none" xmlns="http://www.w3.org/2000/svg">
<g clip-path="url(#clip0_8814_11901)">
<path d="M89.2323 16.4529C89.2323 16.0396 89.5871 15.6982 89.9948 15.6982C90.4025 15.6982 90.7394 16.0396 90.7394 16.4529C90.7394 16.8661 90.3846 17.2075 89.9948 17.2075C89.6042 17.2075 89.2323 16.8661 89.2323 16.4529Z" fill="black"/>
<path d="M91.7852 14.5304H92.7951V14.9077C92.7951 15.6623 93.2028 16.2193 94.054 16.2193C94.9052 16.2193 95.295 15.6803 95.295 14.8718V9.30176H96.3229V14.9077C96.3229 16.3092 95.4009 17.1716 94.0361 17.1716C92.5827 17.1716 91.7673 16.2373 91.7673 14.8898V14.5124L91.7852 14.5304Z" fill="black"/>
<path d="M100.24 9.19409C101.695 9.19409 102.634 10.0206 102.722 11.3682H101.677C101.623 10.5956 101.092 10.1464 100.223 10.1464C99.2655 10.1464 98.6454 10.6315 98.6454 11.4041C98.6454 12.033 98.9994 12.3924 99.709 12.572L100.967 12.8775C102.208 13.165 102.846 13.8477 102.846 14.9438C102.846 16.3453 101.783 17.2257 100.152 17.2257C98.5209 17.2257 97.5639 16.3991 97.493 15.0696H98.5567C98.5745 15.8062 99.1947 16.2734 100.152 16.2734C101.162 16.2734 101.818 15.7883 101.818 15.0156C101.818 14.4047 101.499 14.0274 100.755 13.8477L99.4958 13.5603C98.2555 13.2728 97.5996 12.5361 97.5996 11.4221C97.5996 10.0925 98.6632 9.19409 100.24 9.19409Z" fill="black"/>
<path d="M48.6219 1.44995V12.6079L41.3362 1.44995H38.6417V17.2077H41.3185V6.03173L48.6219 17.2077H51.2987V1.44995H48.6219Z" fill="black"/>
<path d="M62.963 1.44995V3.98341H56.0318V8.04411H62.2362V10.4698H56.0318V14.6563H62.963V17.2077H53.3019V1.44995H62.963Z" fill="black"/>
<path d="M80.3708 1.44995L78.6691 3.98341H83.5967V17.2077H86.3269V3.98341H89.8017L91.4855 1.44995H80.3708Z" fill="black"/>
<path d="M68.795 10.9907L70.4614 13.4703L67.9442 17.2076H64.6293L68.795 10.9907Z" fill="black"/>
<path d="M78.5625 17.2075H75.23L71.5957 11.7812L69.9296 9.30163L64.6647 1.44971H67.9796L71.5957 6.82207L75.1943 1.44971H78.5096L74.9997 6.67833L73.2444 9.30163L78.5625 17.2075Z" fill="black"/>
<path d="M38.6417 19.3003H43.2862V19.9112H41.283V25.8586H40.6272V19.9112H38.6417V19.3003Z" fill="black"/>
<path d="M43.0735 23.6305C43.0735 22.247 43.9244 21.2947 45.183 21.2947C46.4416 21.2947 47.1684 22.1392 47.1684 23.397V23.7024H43.6762C43.7294 24.7805 44.2789 25.4093 45.2185 25.4093C45.9275 25.4093 46.3884 25.1039 46.5657 24.5109H47.1684C46.9379 25.4452 46.2466 25.9484 45.2185 25.9484C43.9244 25.9484 43.0735 25.0141 43.0735 23.6305ZM43.6939 23.2532H46.5479C46.5479 22.4087 45.9984 21.8337 45.183 21.8337C44.3676 21.8337 43.818 22.3907 43.7117 23.2532H43.6939Z" fill="black"/>
<path d="M48.1611 25.8586V21.4205H48.7106L48.7815 22.0493C48.9942 21.5822 49.4906 21.2947 50.111 21.2947C50.8024 21.2947 51.3165 21.6541 51.5292 22.247C51.7242 21.672 52.256 21.2947 52.965 21.2947C53.9223 21.2947 54.5427 21.9236 54.5427 22.9477V25.8586H53.94V23.0915C53.94 22.3369 53.5146 21.8877 52.8587 21.8877C52.1319 21.8877 51.6887 22.4447 51.6887 23.1274V25.8586H51.0682V23.0735C51.0682 22.3189 50.6428 21.8877 49.9869 21.8877C49.2601 21.8877 48.817 22.4447 48.817 23.1094V25.8586H48.1611Z" fill="black"/>
<path d="M55.7836 21.4205H56.3331L56.404 22.3189C56.7053 21.6361 57.3259 21.2947 58.0703 21.2947C59.3467 21.2947 60.0912 22.2829 60.0912 23.6126C60.0912 24.9422 59.3644 25.9484 58.0703 25.9484C57.3259 25.9484 56.7408 25.625 56.4395 24.9781V27.7631H55.819V21.4025L55.7836 21.4205ZM57.9463 25.3914C58.9035 25.3914 59.453 24.6547 59.453 23.6305C59.453 22.6063 58.9035 21.8697 57.9463 21.8697C56.989 21.8697 56.4217 22.6063 56.4217 23.6305C56.4217 24.6547 56.989 25.3914 57.9463 25.3914Z" fill="black"/>
<path d="M61.1017 25.8586V19.6238L61.7221 19.1746V25.8406H61.1017V25.8586Z" fill="black"/>
<path d="M62.8211 24.6548C62.8211 23.8462 63.4416 23.3251 64.4698 23.2533L65.9233 23.1275V22.9838C65.9233 22.1213 65.4093 21.8338 64.7711 21.8338C64.0088 21.8338 63.5656 22.1752 63.5656 22.7861H62.9984C62.9984 21.8877 63.7252 21.3127 64.8066 21.3127C65.817 21.3127 66.5615 21.8338 66.5615 23.0017V25.8586H66.0297L65.9411 25.086C65.6751 25.643 65.0724 25.9844 64.3279 25.9844C63.3884 25.9844 62.8388 25.4453 62.8388 24.6728L62.8211 24.6548ZM65.9056 23.8462V23.6127L64.6115 23.7205C63.7784 23.7923 63.4593 24.1517 63.4593 24.6548C63.4593 25.1938 63.8493 25.4633 64.452 25.4633C65.3738 25.4633 65.9056 24.8165 65.9056 23.8462Z" fill="black"/>
<path d="M68.086 25.8586V21.9596H67.1997V21.4205H68.086V20.4503L68.7064 20.019V21.4205H69.5928V21.9596H68.7064V25.8586H68.086Z" fill="black"/>
<path d="M70.036 23.6305C70.036 22.247 70.8869 21.2947 72.1458 21.2947C73.404 21.2947 74.1307 22.1392 74.1307 23.397V23.7024H70.6387C70.6919 24.7805 71.2414 25.4093 72.1808 25.4093C72.8897 25.4093 73.351 25.1039 73.5284 24.5109H74.1307C73.9004 25.4452 73.2094 25.9484 72.1808 25.9484C70.8869 25.9484 70.036 25.0141 70.036 23.6305ZM70.6564 23.2532H73.5105C73.5105 22.4087 72.9612 21.8337 72.1458 21.8337C71.33 21.8337 70.7805 22.3907 70.6742 23.2532H70.6564Z" fill="black"/>
<path d="M75.3538 24.6008C75.3538 25.122 75.7264 25.4274 76.3466 25.4274C77.0204 25.4274 77.4281 25.1399 77.4281 24.6548C77.4281 24.2954 77.2507 24.0798 76.7364 23.954L75.9925 23.7564C75.23 23.5587 74.8574 23.1635 74.8574 22.5526C74.8574 21.7799 75.4961 21.2769 76.4353 21.2769C77.3752 21.2769 77.9595 21.7979 77.9774 22.6064H77.3752C77.3752 22.0854 77.0025 21.7979 76.4174 21.7979C75.8323 21.7979 75.4604 22.0674 75.4604 22.5346C75.4604 22.876 75.6907 23.1095 76.1692 23.2353L76.9138 23.4329C77.6763 23.6306 78.0132 23.99 78.0132 24.6188C78.0132 25.4094 77.3394 25.9305 76.3466 25.9305C75.3538 25.9305 74.7515 25.3914 74.7515 24.5829H75.3538V24.6008Z" fill="black"/>
<path d="M102.088 23.7339H81.1354L81.9329 22.7996H102.868L102.088 23.7339Z" fill="black"/>
<path d="M28.6289 14.482C28.6289 16.4764 28.2388 18.3811 27.5298 20.088C25.3671 25.3345 20.2795 29 14.3233 29C6.41711 29 0 22.5136 0 14.5C0 6.48637 6.41711 0 14.3233 0C18.9145 0 23.0094 2.19207 25.633 5.60595H14.0574L16.0782 8.67847H18.6663V18.2013L15.7769 13.7633L10.4411 5.60595H7.39211V23.2H10.4234V10.7807L18.6663 23.3941H21.6799V8.67847H27.4411C28.2034 10.4573 28.6289 12.4158 28.6289 14.482Z" fill="black"/>
</g>
<defs>
<clipPath id="clip0_8814_11901">
<rect width="103" height="29" fill="white"/>
</clipPath>
</defs>
</svg>
