<svg width="152" height="38" viewBox="0 0 152 38" fill="none" xmlns="http://www.w3.org/2000/svg">
<g clip-path="url(#clip0_11652_16331)">
<path opacity="0.72" d="M37.94 17.4381C37.9213 17.2488 37.8336 17.0731 37.6934 16.9445C37.5532 16.8157 37.3704 16.743 37.18 16.7402H18.2408C17.7265 16.7528 17.2244 16.8993 16.7845 17.1655C16.3445 17.4316 15.9819 17.8081 15.7328 18.2573C15.5022 18.659 15.3809 19.1141 15.3809 19.5772C15.3809 20.0401 15.5022 20.4952 15.7328 20.897C15.7987 21.0233 15.8963 21.1304 16.0163 21.2075C16.1363 21.2846 16.2742 21.3293 16.4167 21.337H37.2257C37.4161 21.3341 37.5989 21.2614 37.739 21.1327C37.8793 21.004 37.9669 20.8283 37.9857 20.6391C37.9857 20.0475 37.9857 19.5468 37.9857 19.122C37.9857 18.6973 37.9856 18.0146 37.94 17.4381Z" fill="#3758F9"/>
<path d="M37.9236 17.4381C37.9086 17.2502 37.824 17.0747 37.6863 16.9456C37.5486 16.8166 37.3676 16.7434 37.1788 16.7402H34.1388C34.0322 16.7414 33.9269 16.765 33.83 16.8095C33.7331 16.8538 33.6468 16.9181 33.5764 16.9981C33.5056 17.075 33.4525 17.1664 33.421 17.2661C33.3894 17.3657 33.3803 17.471 33.3941 17.5746C33.3941 18.0601 33.3941 18.5456 33.3941 19.0917C33.3902 21.5125 32.7755 23.8933 31.6066 26.0144C30.4378 28.1355 28.7523 29.9286 26.706 31.2283C26.4932 31.3648 26.2534 31.4989 25.9719 31.6485C24.7399 32.3035 23.8744 32.6387 22.5645 32.9896L24.4525 36.5609C24.5201 36.6777 24.6177 36.7745 24.7353 36.8411C24.8529 36.9078 24.9361 36.9419 25.0713 36.9401C25.1517 36.9546 25.2365 36.9546 25.317 36.9401L25.8508 36.7429L26.3033 36.5609C26.9757 36.2821 27.6658 35.9713 28.2995 35.6135C31.263 33.9473 33.728 31.564 35.4333 28.6267C37.1388 25.6894 38.0249 22.3499 37.9997 18.9552C37.9997 18.3938 37.9692 17.9539 37.9236 17.4381Z" fill="#3758F9"/>
<path d="M27.1651 31.8378C27.063 31.6648 26.9007 31.5352 26.7091 31.4737H26.4962C26.3643 31.4748 26.2343 31.5059 26.1162 31.5647C23.9488 32.7957 21.4965 33.439 19.0027 33.4307C15.1755 33.4227 11.5073 31.9017 8.80103 29.2007C6.09475 26.4995 4.5708 22.8384 4.56278 19.0186C4.5708 15.1987 6.09475 11.5375 8.80103 8.83644C11.5073 6.13536 15.1755 4.61438 19.0027 4.60636C21.4953 4.60715 23.9454 5.24986 26.1162 6.47234C26.2298 6.54423 26.3619 6.58117 26.4962 6.57854H26.6634C26.7677 6.55558 26.8661 6.5114 26.9523 6.44874C27.0387 6.3861 27.1112 6.30633 27.1651 6.21445L28.6851 3.57475C28.7856 3.39919 28.8133 3.19134 28.7622 2.9957C28.7111 2.80006 28.5851 2.63217 28.4114 2.52797C25.5504 0.914285 22.3195 0.0675907 19.0332 0.0703191C13.9965 0.078343 9.16848 2.07884 5.60703 5.63343C2.04558 9.18801 0.0412424 14.0067 0.0332031 19.0337C0.0412424 24.0606 2.04558 28.8794 5.60703 32.434C9.16848 35.9886 13.9965 37.9891 19.0332 37.9971C22.3195 37.9998 25.5504 37.1531 28.4114 35.5395C28.4985 35.4907 28.5747 35.4251 28.6358 35.3464C28.6969 35.2677 28.7415 35.1776 28.767 35.0814C28.7925 34.9852 28.7985 34.8848 28.7844 34.7863C28.7703 34.6878 28.7366 34.5931 28.6851 34.5079L27.1651 31.8378Z" fill="#3758F9"/>
<path opacity="0.56" d="M21.1732 21.2768H16.3701C16.2338 21.2671 16.1019 21.2248 15.9855 21.1535C15.869 21.0822 15.7716 20.984 15.7012 20.8672L24.5325 36.4779C24.6001 36.5948 24.6977 36.6915 24.8153 36.7582C24.9328 36.8249 25.066 36.859 25.2012 36.8571C25.2868 36.8715 25.3742 36.8715 25.4597 36.8571C26.464 36.4963 27.4354 36.0496 28.363 35.5221C28.4499 35.4734 28.526 35.4078 28.5871 35.3291C28.6482 35.2505 28.6927 35.1603 28.7183 35.064C28.7437 34.9679 28.7497 34.8675 28.7357 34.769C28.7216 34.6705 28.6879 34.5757 28.6364 34.4905L21.1732 21.2768Z" fill="#3758F9"/>
<path d="M59.3963 12.9866V29.059H56.5645V12.9866H52.25V10.3301H63.6986V12.9866H59.3963Z" fill="#3758F9"/>
<path d="M73.3849 17.2435H76.1316V29.0583H73.3849V27.821C72.2587 28.8722 71.0474 29.3979 69.7511 29.3979C68.1144 29.3979 66.7613 28.8076 65.6918 27.6269C64.6304 26.422 64.0996 24.9178 64.0996 23.1145C64.0996 21.3435 64.6304 19.8677 65.6918 18.687C66.7532 17.5063 68.0819 16.916 69.6781 16.916C71.0555 16.916 72.2911 17.4821 73.3849 18.6143V17.2435ZM66.895 23.1145C66.895 24.2466 67.1988 25.1685 67.8065 25.8802C68.4304 26.5999 69.2163 26.9598 70.1642 26.9598C71.177 26.9598 71.9953 26.612 72.6193 25.9165C73.2432 25.1969 73.5551 24.283 73.5551 23.1752C73.5551 22.0672 73.2432 21.1535 72.6193 20.4337C71.9953 19.7302 71.1852 19.3784 70.1885 19.3784C69.2487 19.3784 68.4628 19.7343 67.8308 20.4459C67.2069 21.1656 66.895 22.0551 66.895 23.1145Z" fill="#3758F9"/>
<path d="M82.3176 17.2438V29.0585H79.5832V17.2438H82.3176ZM79.1699 12.3311C79.1699 11.854 79.3442 11.4415 79.6925 11.0939C80.0409 10.7461 80.4582 10.5723 80.9443 10.5723C81.4385 10.5723 81.8598 10.7461 82.2083 11.0939C82.5567 11.4335 82.7309 11.8499 82.7309 12.3433C82.7309 12.8365 82.5567 13.257 82.2083 13.6048C81.868 13.9525 81.4507 14.1264 80.9565 14.1264C80.4622 14.1264 80.0409 13.9525 79.6925 13.6048C79.3442 13.257 79.1699 12.8325 79.1699 12.3311Z" fill="#3758F9"/>
<path d="M88.5157 8.57031V29.0581H85.7812V8.57031H88.5157Z" fill="#3758F9"/>
<path d="M102.152 19.3051H109.906V19.9237C109.906 21.3307 109.74 22.5762 109.407 23.6597C109.084 24.6625 108.536 25.6005 107.767 26.4739C106.025 28.4309 103.809 29.4094 101.119 29.4094C98.4939 29.4094 96.2452 28.4633 94.3739 26.571C92.5023 24.6706 91.5664 22.3901 91.5664 19.7296C91.5664 17.0125 92.5185 14.7077 94.4225 12.8154C96.327 10.915 98.644 9.96484 101.374 9.96484C102.841 9.96484 104.21 10.2641 105.482 10.8625C106.697 11.4609 107.892 12.4313 109.067 13.7737L107.05 15.7024C105.511 13.6564 103.635 12.6335 101.423 12.6335C99.4382 12.6335 97.7728 13.3168 96.4276 14.6835C95.0824 16.0258 94.4103 17.7079 94.4103 19.7296C94.4103 21.8159 95.1594 23.5344 96.6585 24.8849C98.0607 26.1383 99.5797 26.7651 101.217 26.7651C102.61 26.7651 103.861 26.296 104.972 25.358C106.082 24.4118 106.702 23.2797 106.831 21.9616H102.152V19.3051Z" fill="#3758F9"/>
<path d="M112.957 17.2435H115.691V18.2988C116.194 17.7733 116.639 17.4133 117.029 17.2192C117.426 17.0171 117.895 16.916 118.439 16.916C119.16 16.916 119.913 17.1505 120.699 17.6196L119.447 20.1184C118.929 19.7464 118.422 19.5604 117.927 19.5604C116.437 19.5604 115.691 20.6844 115.691 22.9325V29.0582H112.957V17.2435Z" fill="#3758F9"/>
<path d="M125.39 17.2438V29.0585H122.655V17.2438H125.39ZM122.242 12.3311C122.242 11.854 122.416 11.4415 122.765 11.0939C123.113 10.7461 123.53 10.5723 124.017 10.5723C124.511 10.5723 124.932 10.7461 125.28 11.0939C125.629 11.4335 125.803 11.8499 125.803 12.3433C125.803 12.8365 125.629 13.257 125.28 13.6048C124.94 13.9525 124.523 14.1264 124.029 14.1264C123.534 14.1264 123.113 13.9525 122.765 13.6048C122.416 13.257 122.242 12.8325 122.242 12.3311Z" fill="#3758F9"/>
<path d="M137.58 8.57031H140.327V29.0581H137.58V27.8208C136.503 28.8721 135.283 29.3977 133.922 29.3977C132.301 29.3977 130.957 28.8074 129.887 27.6267C128.826 26.4218 128.295 24.9176 128.295 23.1143C128.295 21.3514 128.826 19.8796 129.887 18.699C130.941 17.5102 132.265 16.9158 133.861 16.9158C135.247 16.9158 136.487 17.4819 137.58 18.6141V8.57031ZM131.09 23.1143C131.09 24.2464 131.394 25.1683 132.002 25.88C132.626 26.5997 133.412 26.9596 134.36 26.9596C135.372 26.9596 136.19 26.6118 136.815 25.9163C137.439 25.1967 137.75 24.2828 137.75 23.175C137.75 22.067 137.439 21.1533 136.815 20.4335C136.19 19.73 135.38 19.3782 134.383 19.3782C133.444 19.3782 132.658 19.7341 132.026 20.4457C131.402 21.1654 131.09 22.0549 131.09 23.1143Z" fill="#3758F9"/>
<path d="M150.657 19.2571L148.397 20.458C148.041 19.7302 147.599 19.3663 147.072 19.3663C146.821 19.3663 146.607 19.4512 146.428 19.621C146.25 19.7828 146.161 19.993 146.161 20.2518C146.161 20.7046 146.687 21.1535 147.741 21.5983C149.191 22.2209 150.167 22.795 150.67 23.3207C151.172 23.8464 151.423 24.5539 151.423 25.4435C151.423 26.5837 151.002 27.538 150.16 28.3062C149.341 29.034 148.353 29.3979 147.194 29.3979C145.209 29.3979 143.803 28.4315 142.977 26.4988L145.31 25.4192C145.635 25.9853 145.882 26.3452 146.052 26.4988C146.383 26.8061 146.78 26.9598 147.242 26.9598C148.166 26.9598 148.628 26.5393 148.628 25.6982C148.628 25.213 148.272 24.7601 147.558 24.3396C147.283 24.2021 147.007 24.0687 146.732 23.9394C146.456 23.81 146.177 23.6766 145.893 23.5391C145.1 23.1509 144.54 22.7627 144.216 22.3745C143.803 21.8813 143.597 21.2465 143.597 20.4701C143.597 19.4432 143.949 18.594 144.654 17.9228C145.375 17.2517 146.25 16.916 147.279 16.916C148.794 16.916 149.92 17.6964 150.657 19.2571Z" fill="#3758F9"/>
</g>
<defs>
<clipPath id="clip0_11652_16331">
<rect width="152" height="37.9268" fill="white" transform="translate(0 0.0371094)"/>
</clipPath>
</defs>
</svg>
