<svg width="44" height="44" viewBox="0 0 44 44" fill="none" xmlns="http://www.w3.org/2000/svg">
<path d="M22 2.75C11.3824 2.75 2.75 11.3824 2.75 22C2.75 32.6176 11.3824 41.25 22 41.25C32.6176 41.25 41.25 32.6176 41.25 22C41.25 11.3824 32.6176 2.75 22 2.75Z" fill="#FDDD4C"/>
<path d="M13.5697 27.019C13.1487 26.3817 14.2074 25.4172 13.7768 24.6075C13.5286 24.1404 13.1228 23.8494 12.6356 23.7883C12.1679 23.7296 11.6862 23.9008 11.3791 24.2354C10.8943 24.7629 10.8189 25.4811 10.9127 25.7352C10.947 25.8283 11.001 25.8537 11.0396 25.8592C11.3036 25.8939 11.4522 25.2162 11.5434 25.0751C11.7954 24.6861 12.3678 24.5683 12.7631 24.824C13.5126 25.3088 12.8627 26.0923 12.9187 26.754C12.9733 27.3983 13.3748 27.6572 13.7351 27.6845C14.0857 27.6978 14.3309 27.503 14.3928 27.3608C14.5412 27.0214 13.916 27.5433 13.5697 27.019Z" fill="black"/>
<path d="M29.2293 21.1693C29.0328 21.1421 28.8179 21.1427 28.5944 21.1693C28.4246 20.9551 28.2726 20.6084 28.1868 20.2037C28.0342 19.4838 28.0501 18.9622 28.4761 18.8945C28.9021 18.8267 29.108 19.2623 29.2606 19.9823C29.363 20.4663 29.3433 20.9109 29.2293 21.1693Z" fill="black"/>
<path d="M24.5638 21.5976C24.5807 21.7607 24.5866 21.9256 24.5819 22.0775C24.994 22.1017 25.286 22.2975 25.3637 22.4217C25.4035 22.4858 25.3876 22.5275 25.3747 22.5469C25.3321 22.6133 25.2407 22.603 25.0491 22.5815C24.8818 22.5627 24.7016 22.5462 24.5144 22.5548C24.4125 22.8673 24.1103 22.8966 23.8981 22.6655C23.7498 22.7107 23.4585 22.8967 23.3718 22.6945C23.371 22.5942 23.4759 22.4485 23.6658 22.3197C23.5362 22.0724 23.4493 21.8076 23.3979 21.5334C23.1287 21.5819 22.8864 21.6574 22.6966 21.7165C22.6074 21.7442 22.2547 21.9036 22.2134 21.724C22.1858 21.6 22.3789 21.3955 22.583 21.2479C22.811 21.086 23.064 20.9709 23.3263 20.9045C23.3207 20.514 23.4203 20.2416 23.704 20.1964C24.0558 20.1405 24.2738 20.4113 24.4247 20.9128C24.8498 21.0309 25.2744 21.3238 25.4618 21.6266C25.5347 21.744 25.5488 21.8347 25.5016 21.8825C25.3838 22.0047 24.731 21.6506 24.5638 21.5976Z" fill="black"/>
<path d="M27.3594 23.3527C27.629 23.4834 27.9257 23.432 28.0225 23.2378C28.1194 23.0436 27.979 22.7804 27.7093 22.6497C27.4396 22.519 27.143 22.5704 27.0462 22.7646C26.9493 22.9589 27.0897 23.222 27.3594 23.3527Z" fill="black"/>
<path d="M28.6869 22.3883C28.6918 22.0913 28.8738 21.8541 29.0926 21.8577C29.3114 21.862 29.4849 22.1052 29.48 22.4016C29.475 22.6981 29.293 22.9353 29.0742 22.9316C28.8554 22.928 28.682 22.6848 28.6869 22.3883Z" fill="black"/>
<path fill-rule="evenodd" clip-rule="evenodd" d="M34.6204 26.0262C34.6186 26.02 34.6247 26.0414 34.6204 26.0262C35.0599 26.0262 35.75 26.5247 35.75 27.7293C35.75 28.9278 35.2462 30.2854 35.1273 30.5867C33.3125 34.8797 28.9811 37.2695 23.8217 37.1182C19.0116 36.9773 14.9094 34.472 13.1142 30.3876C12.0288 30.3888 10.9096 29.9175 10.0589 29.1734C9.16222 28.3893 8.60938 27.3747 8.50151 26.3166C8.41754 25.4926 8.5199 24.7261 8.78161 24.0575L7.77338 23.2142C3.15944 19.3688 17.5903 3.53602 22.2054 7.50964C22.2287 7.52961 23.7757 9.02758 23.7794 9.03121C26.0047 8.09855 31.9672 6.3228 31.9739 10.4566C31.9764 11.8293 31.0901 13.4301 29.67 14.8827C31.3112 16.3851 30.8784 18.5192 31.1397 20.4772L31.7097 20.6333C32.7964 20.9339 33.5693 21.3351 33.9475 21.7271C34.3256 22.1185 34.5132 22.4979 34.5812 22.9425C34.6449 23.3013 34.6364 23.9347 34.1571 24.6432C34.3296 25.1002 34.4872 25.5558 34.6204 26.0262ZM13.0327 29.2738C13.1939 29.2775 13.3539 29.2672 13.5108 29.2406C15.1969 28.9568 15.6382 27.1491 15.3605 25.374C15.0467 23.3697 13.6732 22.663 12.741 22.6128C12.4817 22.5995 12.2408 22.6225 12.0423 22.6618C10.3782 22.9927 9.43864 24.3903 9.62374 26.2053C9.79106 27.8479 11.4741 29.2327 13.0327 29.2738ZM9.26396 23.1543C9.82232 22.3539 10.7349 21.7749 11.7707 21.5758C13.0891 18.0826 15.2907 14.864 18.2044 12.6491C20.3667 10.8686 22.6988 9.59144 22.6988 9.59144C22.6988 9.59144 21.443 8.15396 21.0636 8.04809C18.7303 7.42615 13.691 10.8565 10.4732 15.3891C9.17142 17.2229 7.30757 20.4705 8.19874 22.1409C8.30845 22.3478 8.93054 22.8796 9.26396 23.1543ZM28.1812 28.4716C28.1849 28.5091 28.1616 28.5478 28.1279 28.5617C28.1279 28.5617 26.2531 29.4227 23.275 28.5133C23.382 29.406 24.4646 29.7443 25.2209 29.8667C28.9112 30.4935 32.3613 28.4105 33.1378 27.886C33.2712 27.7959 33.1362 28.0274 33.1121 28.0614C32.1614 29.272 29.6056 30.6738 26.2806 30.6732C24.8305 30.6726 23.381 30.1686 22.849 29.3936C22.0234 28.1915 22.8079 26.4364 24.1839 26.6191C26.5097 26.8783 28.8941 26.6836 31.0472 25.6971C32.9245 24.8368 33.6336 23.8906 33.527 23.124C33.3616 21.9361 31.6003 21.7503 30.7101 21.4615C30.3227 21.3351 30.1315 21.234 30.088 20.5147C30.069 20.2007 30.0138 19.105 29.9936 18.6519C29.9581 17.8587 29.8612 16.774 29.1797 16.3263C29.0019 16.2095 28.8046 16.1532 28.5968 16.1424C28.4311 16.1345 28.3329 16.1572 28.2801 16.1694C28.2682 16.1722 28.2586 16.1744 28.2511 16.1756C27.8831 16.2374 27.6576 16.4236 27.3916 16.6431C27.3763 16.6558 27.3609 16.6686 27.3452 16.6814C26.4951 17.3808 25.7774 17.4951 24.9788 17.4613C24.7301 17.4509 24.4738 17.426 24.2033 17.3998C23.9546 17.3757 23.694 17.3504 23.4165 17.3342L23.0776 17.3148C21.7402 17.2471 20.306 18.3869 20.0676 20.0059C19.8013 21.813 20.8113 22.9198 21.4682 23.6397C21.6305 23.8176 21.7713 23.9718 21.8659 24.1072C21.9266 24.1888 21.997 24.3038 21.997 24.4133C21.997 24.544 21.9112 24.6474 21.8273 24.7357C20.4629 26.1206 20.0266 28.321 20.5408 30.1547C20.6051 30.3834 20.6867 30.6024 20.7829 30.8117C21.9891 33.5941 25.7315 34.89 29.3868 33.7115C31.9487 32.8854 34.2122 30.8894 34.6731 28.1358C34.7828 27.4183 34.6216 27.1412 34.4022 27.0075C34.1699 26.8665 33.8917 26.9155 33.8917 26.9155C33.8917 26.9155 33.7648 26.0583 33.4056 25.279C32.3398 26.1091 30.9681 26.6923 29.9237 26.9881C28.2504 27.462 26.4429 27.6465 24.7138 27.423C24.0125 27.3324 23.5413 27.2715 23.3393 27.9192C25.6457 28.7529 28.0869 28.396 28.0869 28.396C28.1341 28.3911 28.1763 28.425 28.1812 28.4716ZM21.5269 12.2934C20.2656 12.9304 18.8571 14.0648 17.7135 15.3698C17.673 15.4164 17.7331 15.4805 17.7827 15.4448C18.7707 14.7351 20.1252 14.0757 21.8996 13.6486C23.8872 13.17 25.8007 13.3709 26.9695 13.6352C27.0284 13.6486 27.0652 13.5487 27.0131 13.5197C26.2408 13.092 25.0554 12.8016 24.2145 12.7955C24.1735 12.7949 24.1502 12.7477 24.1747 12.715C24.32 12.522 24.5191 12.3315 24.7012 12.1935C24.7416 12.1621 24.7171 12.0973 24.6656 12.1004C23.6196 12.1638 21.2303 13.2532 21.2389 13.2136C21.3002 12.9232 21.4932 12.5396 21.5931 12.3605C21.617 12.3182 21.5705 12.2716 21.5269 12.2934Z" fill="black"/>
</svg>
