<svg width="160" height="40" viewBox="0 0 160 40" fill="none" xmlns="http://www.w3.org/2000/svg">
<g clip-path="url(#clip0_912_3461)">
<path opacity="0.72" d="M40.0882 18.3521C40.0685 18.1526 39.9758 17.9672 39.8277 17.8315C39.6796 17.6957 39.4864 17.6191 39.2852 17.6161H19.2732C18.7298 17.6293 18.1993 17.7839 17.7344 18.0646C17.2695 18.3453 16.8864 18.7423 16.6231 19.2161C16.3794 19.6398 16.2512 20.1197 16.2512 20.6081C16.2512 21.0965 16.3794 21.5763 16.6231 22.0001C16.6927 22.1333 16.796 22.2462 16.9227 22.3276C17.0495 22.409 17.1952 22.456 17.3458 22.4641H39.3334C39.5347 22.4611 39.7278 22.3844 39.8759 22.2487C40.024 22.1129 40.1168 21.9276 40.1365 21.7281C40.1365 21.1041 40.1365 20.5761 40.1365 20.1281C40.1365 19.6801 40.1364 18.9601 40.0882 18.3521Z" fill="#3758F9"/>
<path d="M40.0721 18.3521C40.0562 18.1539 39.9669 17.9688 39.8214 17.8327C39.6759 17.6967 39.4847 17.6194 39.2852 17.6161H36.073C35.9603 17.6174 35.8491 17.6422 35.7467 17.6891C35.6443 17.736 35.5531 17.8038 35.4787 17.8881C35.4038 17.9692 35.3477 18.0657 35.3144 18.1707C35.2811 18.2758 35.2714 18.3869 35.286 18.4961C35.286 19.0081 35.286 19.5201 35.286 20.0961C35.2819 22.6492 34.6325 25.1602 33.3974 27.3973C32.1623 29.6343 30.3813 31.5255 28.2191 32.8961C27.9943 33.0401 27.7856 33.2161 27.5447 33.3441C26.3661 34.0127 25.1016 34.5187 23.7863 34.8481L25.8903 38.5761C25.9618 38.6994 26.0649 38.8014 26.1891 38.8717C26.3134 38.942 26.4541 38.9781 26.5969 38.9761C26.6819 38.9914 26.769 38.9914 26.854 38.9761L27.3678 38.7681L27.8337 38.5761C28.5441 38.2821 29.2361 37.9455 29.9056 37.5681C33.037 35.8108 35.6389 33.2502 37.4409 30.1524C39.2428 27.0545 40.1792 23.5324 40.1525 19.9521C40.1525 19.3601 40.1203 18.8961 40.0721 18.3521Z" fill="#3758F9"/>
<path d="M28.7035 33.5387C28.5956 33.3562 28.424 33.2196 28.2216 33.1547H27.9967C27.8573 33.1558 27.72 33.1887 27.5952 33.2507C25.305 34.5489 22.7137 35.2274 20.0788 35.2187C16.0347 35.2103 12.1587 33.6061 9.29915 30.7574C6.43957 27.9087 4.8293 24.0474 4.82081 20.0187C4.8293 15.99 6.43957 12.1288 9.29915 9.28005C12.1587 6.43133 16.0347 4.82719 20.0788 4.81873C22.7125 4.81957 25.3014 5.49741 27.5952 6.78673C27.7151 6.86254 27.8547 6.9015 27.9967 6.89872H28.1734C28.2835 6.87451 28.3874 6.82791 28.4786 6.76184C28.5698 6.69576 28.6465 6.61163 28.7035 6.51473L30.3096 3.73073C30.4158 3.54557 30.445 3.32636 30.391 3.12003C30.3369 2.91369 30.2039 2.73663 30.0204 2.62673C26.9973 0.924837 23.5834 0.0318584 20.1109 0.0347359C14.789 0.0431984 9.68741 2.15305 5.92422 5.90195C2.16104 9.65084 0.0431627 14.733 0.034668 20.0347C0.0431627 25.3365 2.16104 30.4186 5.92422 34.1675C9.68741 37.9164 14.789 40.0263 20.1109 40.0347C23.5834 40.0376 26.9973 39.1446 30.0204 37.4427C30.1123 37.3914 30.1929 37.3221 30.2575 37.2392C30.322 37.1562 30.3691 37.0611 30.3961 36.9597C30.423 36.8582 30.4294 36.7524 30.4145 36.6485C30.3996 36.5445 30.3639 36.4447 30.3096 36.3547L28.7035 33.5387Z" fill="#3758F9"/>
<path opacity="0.56" d="M22.3729 22.4H17.2977C17.1538 22.3897 17.0143 22.3451 16.8913 22.2699C16.7683 22.1947 16.6653 22.0912 16.5909 21.968L25.9225 38.432C25.9939 38.5552 26.097 38.6573 26.2213 38.7276C26.3455 38.7979 26.4862 38.8339 26.6291 38.832C26.7194 38.8472 26.8118 38.8472 26.9022 38.832C27.9634 38.4513 28.9898 37.9802 29.9699 37.4239C30.0618 37.3726 30.1422 37.3033 30.2067 37.2204C30.2712 37.1374 30.3184 37.0423 30.3453 36.9409C30.3723 36.8394 30.3786 36.7336 30.3638 36.6297C30.3489 36.5258 30.3132 36.4259 30.2589 36.3359L22.3729 22.4Z" fill="#3758F9"/>
</g>
<path d="M52.898 29V10.8H55.81V29H52.898ZM54.432 21.902V19.172H60.022C60.9927 19.172 61.738 18.9207 62.258 18.418C62.7953 17.9153 63.064 17.2307 63.064 16.364H66.106C66.106 18.0453 65.5773 19.3887 64.52 20.394C63.48 21.3993 62.0587 21.902 60.256 21.902H54.432ZM63.064 16.364C63.064 15.48 62.7953 14.7867 62.258 14.284C61.738 13.7813 60.9927 13.53 60.022 13.53H54.432V10.8H60.256C62.0587 10.8 63.48 11.3027 64.52 12.308C65.5773 13.3133 66.106 14.6653 66.106 16.364H63.064ZM62.934 29L58.774 21.096L61.634 20.264L66.158 28.792V29H62.934ZM74.2357 29.39C72.901 29.39 71.7223 29.0953 70.6997 28.506C69.6943 27.9167 68.9057 27.102 68.3337 26.062C67.7617 25.022 67.4757 23.8087 67.4757 22.422C67.4757 21.0527 67.753 19.848 68.3077 18.808C68.8797 17.7507 69.6597 16.936 70.6477 16.364C71.653 15.7747 72.8057 15.48 74.1057 15.48C75.4057 15.48 76.5323 15.7833 77.4857 16.39C78.4563 16.9793 79.2103 17.8113 79.7477 18.886C80.3023 19.9607 80.5797 21.2173 80.5797 22.656V23.15L80.1897 23.54H68.8797V21.044H79.2277L77.6417 21.642C77.6243 20.914 77.451 20.29 77.1217 19.77C76.8097 19.2327 76.3937 18.8253 75.8737 18.548C75.371 18.2533 74.799 18.106 74.1577 18.106C73.4643 18.106 72.8317 18.2707 72.2597 18.6C71.6877 18.912 71.2457 19.354 70.9337 19.926C70.6217 20.4807 70.4657 21.1307 70.4657 21.876V22.916C70.4657 23.6267 70.6303 24.2767 70.9597 24.866C71.3063 25.438 71.7657 25.8973 72.3377 26.244C72.9097 26.5907 73.5423 26.764 74.2357 26.764C74.8943 26.764 75.4923 26.5907 76.0297 26.244C76.5843 25.88 77.0177 25.3947 77.3297 24.788H77.6417L80.0597 25.828C79.5397 26.9547 78.7683 27.83 77.7457 28.454C76.7403 29.078 75.5703 29.39 74.2357 29.39ZM90.3595 29.39C89.3889 29.39 88.5222 29.1907 87.7595 28.792C86.9969 28.3933 86.3555 27.8733 85.8355 27.232C85.3329 26.5907 84.9775 25.906 84.7695 25.178V19.666C84.9775 18.9207 85.3329 18.236 85.8355 17.612C86.3555 16.9707 86.9969 16.4593 87.7595 16.078C88.5222 15.6793 89.3889 15.48 90.3595 15.48C91.5555 15.48 92.6215 15.7833 93.5575 16.39C94.5109 16.9793 95.2649 17.794 95.8195 18.834C96.3915 19.874 96.6775 21.07 96.6775 22.422C96.6775 23.774 96.3915 24.9787 95.8195 26.036C95.2649 27.076 94.5109 27.8993 93.5575 28.506C92.6215 29.0953 91.5555 29.39 90.3595 29.39ZM83.1575 34.2V15.87H85.9655V19.926L85.3415 22.422L86.1475 24.944V34.2H83.1575ZM89.9175 26.66C90.6629 26.66 91.3129 26.4867 91.8675 26.14C92.4395 25.776 92.8815 25.2733 93.1935 24.632C93.5229 23.9907 93.6875 23.254 93.6875 22.422C93.6875 21.59 93.5229 20.862 93.1935 20.238C92.8815 19.5967 92.4395 19.094 91.8675 18.73C91.3129 18.366 90.6629 18.184 89.9175 18.184C89.1722 18.184 88.5049 18.366 87.9155 18.73C87.3435 19.094 86.8929 19.5967 86.5635 20.238C86.2515 20.862 86.0955 21.59 86.0955 22.422C86.0955 23.254 86.2515 23.9907 86.5635 24.632C86.8929 25.2733 87.3435 25.776 87.9155 26.14C88.5049 26.4867 89.1722 26.66 89.9175 26.66ZM105.287 29.39C103.97 29.39 102.809 29.0953 101.803 28.506C100.798 27.9167 100.009 27.102 99.4372 26.062C98.8652 25.0047 98.5792 23.7913 98.5792 22.422C98.5792 21.07 98.8652 19.874 99.4372 18.834C100.009 17.7767 100.798 16.9533 101.803 16.364C102.809 15.7747 103.97 15.48 105.287 15.48C106.622 15.48 107.792 15.7747 108.797 16.364C109.803 16.9533 110.591 17.7767 111.163 18.834C111.735 19.874 112.021 21.07 112.021 22.422C112.021 23.7913 111.735 25.0047 111.163 26.062C110.591 27.102 109.803 27.9167 108.797 28.506C107.792 29.0953 106.622 29.39 105.287 29.39ZM105.287 26.686C106.05 26.686 106.709 26.5127 107.263 26.166C107.818 25.8193 108.251 25.3253 108.563 24.684C108.875 24.0427 109.031 23.2973 109.031 22.448C109.031 21.564 108.875 20.81 108.563 20.186C108.251 19.5447 107.818 19.0507 107.263 18.704C106.709 18.3573 106.05 18.184 105.287 18.184C104.542 18.184 103.892 18.3573 103.337 18.704C102.783 19.0507 102.349 19.5447 102.037 20.186C101.725 20.81 101.569 21.5553 101.569 22.422C101.569 23.2887 101.725 24.0427 102.037 24.684C102.349 25.3253 102.783 25.8193 103.337 26.166C103.892 26.5127 104.542 26.686 105.287 26.686ZM114.617 29V15.87H117.425V19.224L116.671 19.172C117.035 18.1493 117.641 17.3433 118.491 16.754C119.34 16.1647 120.311 15.87 121.403 15.87H122.677V18.548H120.961C120.285 18.548 119.695 18.704 119.193 19.016C118.69 19.3107 118.3 19.7353 118.023 20.29C117.745 20.8447 117.607 21.5033 117.607 22.266V29H114.617ZM129.85 29C128.567 29 127.545 28.6013 126.782 27.804C126.019 26.9893 125.638 25.8973 125.638 24.528V12.464H128.628V24.216C128.628 24.9093 128.801 25.4293 129.148 25.776C129.512 26.1227 130.032 26.296 130.708 26.296H132.06L132.19 26.582V29H129.85ZM123.402 18.548V15.87H132.19V18.548H123.402ZM140.505 29.39C139.171 29.39 137.992 29.0953 136.969 28.506C135.964 27.9167 135.175 27.102 134.603 26.062C134.031 25.022 133.745 23.8087 133.745 22.422C133.745 21.0527 134.023 19.848 134.577 18.808C135.149 17.7507 135.929 16.936 136.917 16.364C137.923 15.7747 139.075 15.48 140.375 15.48C141.675 15.48 142.802 15.7833 143.755 16.39C144.726 16.9793 145.48 17.8113 146.017 18.886C146.572 19.9607 146.849 21.2173 146.849 22.656V23.15L146.459 23.54H135.149V21.044H145.497L143.911 21.642C143.894 20.914 143.721 20.29 143.391 19.77C143.079 19.2327 142.663 18.8253 142.143 18.548C141.641 18.2533 141.069 18.106 140.427 18.106C139.734 18.106 139.101 18.2707 138.529 18.6C137.957 18.912 137.515 19.354 137.203 19.926C136.891 20.4807 136.735 21.1307 136.735 21.876V22.916C136.735 23.6267 136.9 24.2767 137.229 24.866C137.576 25.438 138.035 25.8973 138.607 26.244C139.179 26.5907 139.812 26.764 140.505 26.764C141.164 26.764 141.762 26.5907 142.299 26.244C142.854 25.88 143.287 25.3947 143.599 24.788H143.911L146.329 25.828C145.809 26.9547 145.038 27.83 144.015 28.454C143.01 29.078 141.84 29.39 140.505 29.39ZM149.427 29V15.87H152.235V19.224L151.481 19.172C151.845 18.1493 152.452 17.3433 153.301 16.754C154.15 16.1647 155.121 15.87 156.213 15.87H157.487V18.548H155.771C155.095 18.548 154.506 18.704 154.003 19.016C153.5 19.3107 153.11 19.7353 152.833 20.29C152.556 20.8447 152.417 21.5033 152.417 22.266V29H149.427Z" fill="#3758F9"/>
<defs>
<clipPath id="clip0_912_3461">
<rect width="40.1525" height="40" fill="white"/>
</clipPath>
</defs>
</svg>
