<svg width="36" height="36" viewBox="0 0 36 36" fill="none" xmlns="http://www.w3.org/2000/svg">
<rect width="36" height="36" rx="18" fill="#1F2937"/>
<path d="M14.2727 10C13.2481 10 12.3054 10.5648 11.8149 11.4724L8.85693 16.9464H14.0208C14.2852 16.9464 14.54 16.8464 14.735 16.6661L20.5931 11.2501L18.2469 16.1822C18.0785 16.5363 18.3342 16.9464 18.7234 16.9464H22.5878C24.489 16.9464 26.0301 15.3914 26.0301 13.4732C26.0301 11.555 24.489 10 22.5878 10H14.2727Z" fill="white"/>
<path d="M21.7269 26C22.7515 26 23.6942 25.4352 24.1847 24.5276L27.1426 19.0536H21.9788C21.7144 19.0536 21.4596 19.1536 21.2646 19.3339L15.4065 24.7499L17.7527 19.8178C17.9211 19.4637 17.6654 19.0536 17.2762 19.0536H13.4118C11.5106 19.0536 9.96947 20.6086 9.96947 22.5268C9.96947 24.445 11.5106 26 13.4118 26H21.7269Z" fill="white"/>
</svg>
