<svg width="36" height="36" viewBox="0 0 36 36" fill="none" xmlns="http://www.w3.org/2000/svg">
<rect width="36" height="36" rx="18" fill="#1F2937"/>
<path fill-rule="evenodd" clip-rule="evenodd" d="M20.5881 9L11.3859 12.393V14.409C9.68831 14.526 8.1577 15.714 8 15.84L8.89981 16.065C11.6178 16.749 11.3952 21.258 11.3673 21.753L18.9833 27L27.9258 24.003L28 13.41C28 13.41 23.4453 10.737 20.5881 9ZM12.3692 21.294C12.4249 20.196 12.3692 16.92 10.1614 15.579C10.5232 15.462 10.9314 15.39 11.3766 15.363C12.7217 15.255 15.0965 15.507 18.5566 17.226L18.5751 25.569L12.3692 21.294ZM24.8553 22.482L23.705 21.411L22.2672 23.292V18.468L24.8553 17.46V22.482ZM19.0853 16.434L12.9629 12.816L20.4861 10.035L26.4508 13.581L19.0853 16.434Z" fill="white"/>
<path d="M16.2977 21.0103C16.3279 21.0148 16.3557 21.0171 16.3859 21.0148C16.576 21.0126 16.7244 20.9406 16.8335 20.7966C16.9471 20.6526 17.0051 20.4523 17.0074 20.1891C17.0097 19.9168 16.9541 19.6446 16.845 19.3656C16.7407 19.0866 16.5946 18.8233 16.4044 18.5803C16.2166 18.3306 16.0055 18.1326 15.7736 17.9818L14.1085 16.9018L14.0714 21.2871L14.8483 21.7911L14.8622 20.2161L15.4559 20.6031L16.2027 22.6686L17.1372 23.2783L16.2977 21.0103ZM16.1447 19.9866C16.1053 20.0518 16.0473 20.0901 15.9708 20.0968C15.8988 20.0991 15.8131 20.0653 15.718 20.0023L14.8692 19.4533L14.8784 18.2203L15.6275 18.7063C15.7458 18.7828 15.8478 18.8751 15.9383 18.9876C16.0264 19.0956 16.0936 19.2103 16.14 19.3318C16.1864 19.4578 16.2073 19.5816 16.205 19.7053C16.205 19.8223 16.1864 19.9146 16.1447 19.9866Z" fill="white"/>
</svg>
