<svg width="36" height="36" viewBox="0 0 36 36" fill="none" xmlns="http://www.w3.org/2000/svg">
<rect width="36" height="36" rx="18" fill="#1F2937"/>
<path d="M14.9462 13.1767C14.7421 12.9816 14.4402 12.8957 14.1545 12.966C13.8688 13.0284 13.6403 13.2313 13.5505 13.5045L10.0409 23.9542C9.94299 24.243 10.0246 24.5551 10.245 24.7658C10.4082 24.922 10.6204 25 10.8408 25C10.9224 25 11.0122 24.9844 11.0938 24.961L22.0307 21.6052C22.3082 21.5193 22.5204 21.3008 22.5939 21.0277C22.6673 20.7545 22.5775 20.4658 22.3735 20.2706L14.9462 13.1767ZM12.1385 22.9631L14.7258 15.2448L20.2106 20.4892L12.1385 22.9631Z" fill="white"/>
<path d="M19.4516 14.9089C19.5087 15.3148 19.8678 15.6113 20.2841 15.6113C20.6502 15.6113 21.0234 15.5319 21.3859 15.4865C22.4388 15.3538 23.2387 14.4875 23.2305 13.473V13.2232C23.2305 13.1062 23.2795 13.0047 23.3611 12.9267C23.4427 12.8486 23.557 12.8018 23.6712 12.8018H25.0587C25.524 12.8018 25.8995 12.4428 25.8995 11.998C25.8995 11.5532 25.524 11.1942 25.0587 11.1942H23.6712C23.1081 11.1942 22.5776 11.4049 22.1777 11.7873C21.7777 12.1697 21.5574 12.6848 21.5574 13.2232V13.473C21.5574 13.6837 21.3941 13.8632 21.1737 13.8866L20.178 14.0115C19.7209 14.0661 19.3945 14.4719 19.4516 14.9089Z" fill="white"/>
<path d="M27.6702 16.033C25.5481 14.48 23.2546 15.8535 22.3323 16.7978C22.014 17.1178 22.0385 17.6251 22.3731 17.9294C22.7127 18.2378 23.2422 18.2138 23.5566 17.8982C23.6219 17.828 25.2135 16.2516 26.6499 17.3051C27.0172 17.5783 27.5477 17.508 27.8252 17.1569C28.1109 16.8057 28.0375 16.2984 27.6702 16.033Z" fill="white"/>
<path d="M18.48 13.2236C19.4187 12.5368 20.3654 10.9291 19.133 9.32927C18.8554 8.97028 18.3331 8.89224 17.9576 9.15758C17.5822 9.42292 17.5006 9.92239 17.7781 10.2814C18.4229 11.1164 17.6883 11.7798 17.4517 11.9593C17.0844 12.2324 17.019 12.7319 17.2966 13.0831C17.5837 13.44 18.1115 13.4832 18.48 13.2236Z" fill="white"/>
</svg>
