<svg width="31" height="24" viewBox="0 0 31 24" fill="none" xmlns="http://www.w3.org/2000/svg">
<path d="M23.6542 2.71899L15.422 9.14357L7.00146 2.71899V2.72073L7.01164 2.72941V11.7256L15.327 18.289L23.6542 11.9791V2.71899Z" fill="#EA4335"/>
<path d="M25.8157 1.15628L23.6538 2.71902V11.9791L30.4567 6.75608V3.60977C30.4567 3.60977 29.6309 -0.883958 25.8157 1.15628Z" fill="#FBBC05"/>
<path d="M23.6538 11.9794V23.9898H28.8679C28.8679 23.9898 30.3515 23.837 30.4584 22.1458V6.75635L23.6538 11.9794Z" fill="#34A853"/>
<path d="M7.01202 23.9999V11.7255L7.00146 11.7168L7.01202 23.9999Z" fill="#C5221F"/>
<path d="M7.00118 2.72099L4.85113 1.16693C1.03596 -0.873303 0.208496 3.61869 0.208496 3.61869V6.765L7.00118 11.7171V2.72099Z" fill="#C5221F"/>
<path d="M7.00146 2.7207V11.7169L7.01202 11.7255V2.72939L7.00146 2.7207Z" fill="#C5221F"/>
<path d="M0.208496 6.7666V22.1561C0.313625 23.849 1.799 24.0001 1.799 24.0001H7.01305L7.00118 11.717L0.208496 6.7666Z" fill="#4285F4"/>
</svg>
