<svg width="172" height="36" viewBox="0 0 172 36" fill="none" xmlns="http://www.w3.org/2000/svg">
<g clip-path="url(#clip0_11228_2662)">
<path fill-rule="evenodd" clip-rule="evenodd" d="M18 0C27.9411 0 36 8.05887 36 18C36 27.9411 27.9411 36 18 36C8.05887 36 0 27.9411 0 18C0 8.05887 8.05887 0 18 0ZM18.7471 26.0352C18.5919 26.0353 18.4658 26.1612 18.4658 26.3164V28.9688C18.4659 29.1239 18.592 29.2498 18.7471 29.25H21.4014C21.5567 29.25 21.6825 29.124 21.6826 28.9688V26.3164C21.6826 26.1611 21.5568 26.0352 21.4014 26.0352H18.7471ZM22.3203 26.0352C22.165 26.0353 22.0391 26.1612 22.0391 26.3164V28.9688C22.0391 29.1239 22.1651 29.2498 22.3203 29.25H24.9746C25.1299 29.25 25.2558 29.124 25.2559 28.9688V26.3164C25.2559 26.1611 25.1299 26.0352 24.9746 26.0352H22.3203ZM25.8926 26.0352C25.7373 26.0352 25.6113 26.1611 25.6113 26.3164V28.9688C25.6114 29.124 25.7373 29.25 25.8926 29.25H28.5469C28.702 29.2498 28.828 29.1239 28.8281 28.9688V26.3164C28.8281 26.1612 28.702 26.0354 28.5469 26.0352H25.8926ZM18.2861 6.75C12.0812 6.7502 7.03125 11.7968 7.03125 18C7.03125 24.0475 11.8299 28.9967 17.8213 29.2422C17.9781 29.2483 18.1074 29.1207 18.1074 28.9639V22.7314C18.1073 22.5806 17.9879 22.4576 17.8379 22.4424C15.5851 22.2161 13.8203 20.3097 13.8203 18C13.8203 15.5392 15.8237 13.5355 18.2881 13.5371C19.3292 13.5371 20.3173 13.8913 21.1133 14.543C21.2301 14.6384 21.4012 14.635 21.5078 14.5283L25.916 10.1211C26.0267 10.0101 26.0254 9.82903 25.9102 9.72266C23.8279 7.80277 21.1365 6.75 18.2861 6.75ZM18.7471 22.4648C18.592 22.465 18.4659 22.591 18.4658 22.7461V25.3984C18.4658 25.5536 18.5919 25.6795 18.7471 25.6797H21.4014C21.5568 25.6797 21.6826 25.5537 21.6826 25.3984V22.7461C21.6826 22.5908 21.5567 22.4648 21.4014 22.4648H18.7471ZM22.3203 22.4648C22.1651 22.465 22.0391 22.5909 22.0391 22.7461V25.3984C22.0391 25.5536 22.165 25.6795 22.3203 25.6797H24.9746C25.1299 25.6797 25.2559 25.5537 25.2559 25.3984V22.7461C25.2558 22.5908 25.1299 22.4648 24.9746 22.4648H22.3203ZM25.8926 22.4648C25.7373 22.4648 25.6114 22.5908 25.6113 22.7461V25.3984C25.6113 25.5537 25.7373 25.6797 25.8926 25.6797H28.5469C28.702 25.6795 28.8281 25.5536 28.8281 25.3984V22.7461C28.8281 22.591 28.702 22.465 28.5469 22.4648H25.8926ZM22.3203 18.8926C22.1652 18.8927 22.0393 19.0188 22.0391 19.1738V21.8271C22.0393 21.9822 22.1652 22.1082 22.3203 22.1084H24.9746C25.1298 22.1084 25.2556 21.9823 25.2559 21.8271V19.1738C25.2557 19.0187 25.1298 18.8926 24.9746 18.8926H22.3203ZM25.8926 18.8926C25.7374 18.8926 25.6115 19.0187 25.6113 19.1738V21.8271C25.6116 21.9823 25.7374 22.1084 25.8926 22.1084H28.5469C28.7019 22.1082 28.8279 21.9822 28.8281 21.8271V19.1738C28.8279 19.0188 28.7019 18.8928 28.5469 18.8926H25.8926Z" fill="white"/>
<path d="M56.9419 10.125H59.7769V26.379C59.7769 27.4185 59.535 28.3845 59.0512 29.277C58.5787 30.18 57.9375 30.9622 57.1275 31.6238C56.3175 32.2957 55.395 32.8155 54.36 33.183C53.325 33.561 52.245 33.75 51.12 33.75C49.95 33.75 48.8194 33.5033 47.7281 33.0098C46.6369 32.5268 45.6806 31.8757 44.8594 31.0567C44.0494 30.2482 43.4644 29.34 43.1044 28.332L45.7031 27.2295C45.9169 27.954 46.2994 28.605 46.8506 29.1825C47.4131 29.7705 48.0656 30.2325 48.8081 30.5685C49.5619 30.915 50.3325 31.0882 51.12 31.0882C51.8625 31.0882 52.5769 30.9675 53.2631 30.726C53.9606 30.4845 54.585 30.1485 55.1362 29.718C55.6987 29.298 56.1375 28.7993 56.4525 28.2218C56.7787 27.6548 56.9419 27.0405 56.9419 26.379V23.2447C56.3681 24.1477 55.6087 24.8827 54.6637 25.4497C53.73 26.0063 52.6387 26.2845 51.39 26.2845C50.1975 26.2845 49.0781 26.0693 48.0319 25.6388C46.9856 25.2083 46.0687 24.615 45.2812 23.859C44.4937 23.0925 43.875 22.2105 43.425 21.213C42.975 20.2155 42.75 19.1445 42.75 18C42.75 16.8555 42.975 15.7845 43.425 14.787C43.875 13.779 44.4937 12.897 45.2812 12.141C46.0687 11.3745 46.9856 10.776 48.0319 10.3455C49.0781 9.91496 50.1975 9.69971 51.39 9.69971C52.6387 9.69971 53.73 9.97796 54.6637 10.5345C55.6087 11.091 56.3681 11.826 56.9419 12.7395V10.125ZM51.4069 23.7173C52.4981 23.7173 53.4431 23.4548 54.2419 22.9298C55.0519 22.4048 55.6762 21.7065 56.115 20.835C56.5537 19.9635 56.7731 19.0185 56.7731 18C56.7731 16.95 56.5481 15.9945 56.0981 15.1335C55.6594 14.262 55.035 13.569 54.225 13.0545C53.4262 12.5295 52.4869 12.267 51.4069 12.267C50.3494 12.267 49.3819 12.5243 48.5044 13.0388C47.6269 13.5533 46.9294 14.2463 46.4119 15.1178C45.9056 15.9788 45.6525 16.9395 45.6525 18C45.6525 19.0605 45.9112 20.0265 46.4288 20.898C46.9575 21.759 47.655 22.4468 48.5212 22.9613C49.3987 23.4653 50.3606 23.7173 51.4069 23.7173Z" fill="white"/>
<path d="M62.4845 25.875V10.125H65.3195V12.0938C65.9158 11.3588 66.6695 10.776 67.5808 10.3455C68.492 9.90446 69.482 9.68396 70.5508 9.68396C71.2033 9.68396 71.8333 9.76271 72.4408 9.92021L71.2933 12.5663C70.832 12.4298 70.382 12.3615 69.9433 12.3615C69.0995 12.3615 68.3233 12.5558 67.6145 12.9443C66.917 13.3223 66.3601 13.8368 65.9439 14.4878C65.5276 15.1388 65.3195 15.8633 65.3195 16.6613V25.875H62.4845Z" fill="white"/>
<path d="M85.875 10.125H88.71V25.875H85.875L85.757 23.2133C85.2282 24.1268 84.4969 24.867 83.5631 25.434C82.6406 26.001 81.5381 26.2845 80.2556 26.2845C79.0181 26.2845 77.8594 26.0693 76.7794 25.6388C75.6994 25.1978 74.7431 24.594 73.9106 23.8275C73.0894 23.0505 72.4481 22.158 71.9869 21.15C71.5256 20.142 71.295 19.0553 71.295 17.8898C71.295 16.7663 71.52 15.7058 71.97 14.7083C72.42 13.7108 73.0444 12.8393 73.8431 12.0938C74.6531 11.3378 75.5869 10.7498 76.6444 10.3298C77.7019 9.89921 78.8381 9.68396 80.0531 9.68396C81.3806 9.68396 82.545 9.97796 83.5463 10.566C84.5475 11.1435 85.3575 11.8943 85.9763 12.8183L85.875 10.125ZM80.205 23.7173C81.3188 23.7173 82.2806 23.4653 83.0906 22.9613C83.9119 22.4468 84.5419 21.7538 84.9806 20.8823C85.4306 20.0108 85.6556 19.05 85.6556 18C85.6556 16.929 85.4306 15.963 84.9806 15.102C84.5306 14.2305 83.895 13.5428 83.0738 13.0388C82.2638 12.5243 81.3075 12.267 80.205 12.267C79.0913 12.267 78.0788 12.5243 77.1675 13.0388C76.2563 13.5533 75.5306 14.2463 74.9906 15.1178C74.4619 15.9788 74.1975 16.9395 74.1975 18C74.1975 19.0605 74.4731 20.0265 75.0244 20.898C75.5756 21.759 76.3069 22.4468 77.2181 22.9613C78.1294 23.4653 79.125 23.7173 80.205 23.7173Z" fill="white"/>
<path d="M101.765 10.125H104.769L95.5378 33.75H92.534L95.5884 25.875L89.5303 10.125H92.6353L97.0059 22.2367L101.765 10.125Z" fill="white"/>
<path d="M119.108 10.125H121.943V26.379C121.943 27.4185 121.701 28.3845 121.217 29.277C120.745 30.18 120.103 30.9622 119.293 31.6238C118.483 32.2957 117.561 32.8155 116.526 33.183C115.491 33.561 114.411 33.75 113.286 33.75C112.116 33.75 110.985 33.5033 109.894 33.0098C108.803 32.5268 107.847 31.8757 107.025 31.0567C106.215 30.2482 105.63 29.34 105.27 28.332L107.869 27.2295C108.083 27.954 108.465 28.605 109.017 29.1825C109.579 29.7705 110.232 30.2325 110.974 30.5685C111.728 30.915 112.498 31.0882 113.286 31.0882C114.028 31.0882 114.743 30.9675 115.429 30.726C116.127 30.4845 116.751 30.1485 117.302 29.718C117.865 29.298 118.303 28.7993 118.618 28.2218C118.945 27.6548 119.108 27.0405 119.108 26.379V23.2447C118.534 24.1477 117.775 24.8827 116.83 25.4497C115.896 26.0063 114.805 26.2845 113.556 26.2845C112.363 26.2845 111.244 26.0693 110.198 25.6388C109.152 25.2083 108.235 24.615 107.447 23.859C106.66 23.0925 106.041 22.2105 105.591 21.213C105.141 20.2155 104.916 19.1445 104.916 18C104.916 16.8555 105.141 15.7845 105.591 14.787C106.041 13.779 106.66 12.897 107.447 12.141C108.235 11.3745 109.152 10.776 110.198 10.3455C111.244 9.91496 112.363 9.69971 113.556 9.69971C114.805 9.69971 115.896 9.97796 116.83 10.5345C117.775 11.091 118.534 11.826 119.108 12.7395V10.125ZM113.573 23.7173C114.664 23.7173 115.609 23.4548 116.408 22.9298C117.218 22.4048 117.842 21.7065 118.281 20.835C118.72 19.9635 118.939 19.0185 118.939 18C118.939 16.95 118.714 15.9945 118.264 15.1335C117.825 14.262 117.201 13.569 116.391 13.0545C115.592 12.5295 114.653 12.267 113.573 12.267C112.515 12.267 111.548 12.5243 110.67 13.0388C109.793 13.5533 109.095 14.2463 108.578 15.1178C108.072 15.9788 107.818 16.9395 107.818 18C107.818 19.0605 108.077 20.0265 108.595 20.898C109.123 21.759 109.821 22.4468 110.687 22.9613C111.565 23.4653 112.527 23.7173 113.573 23.7173Z" fill="white"/>
<path d="M124.65 25.875V10.125H127.485V12.0938C128.082 11.3588 128.835 10.776 129.747 10.3455C130.658 9.90446 131.648 9.68396 132.717 9.68396C133.369 9.68396 133.999 9.76271 134.607 9.92021L133.459 12.5663C132.998 12.4298 132.548 12.3615 132.109 12.3615C131.265 12.3615 130.489 12.5558 129.78 12.9443C129.083 13.3223 128.526 13.8368 128.11 14.4878C127.694 15.1388 127.485 15.8633 127.485 16.6613V25.875H124.65Z" fill="white"/>
<path d="M135.33 10.125H138.165V25.875H135.33V10.125ZM136.782 7.55778C136.332 7.55778 135.955 7.42128 135.651 7.14828C135.347 6.87528 135.195 6.53403 135.195 6.12453C135.195 5.71503 135.347 5.37378 135.651 5.10078C135.955 4.82778 136.326 4.69128 136.765 4.69128C137.204 4.69128 137.575 4.82778 137.879 5.10078C138.182 5.37378 138.334 5.71503 138.334 6.12453C138.334 6.53403 138.182 6.87528 137.879 7.14828C137.586 7.42128 137.22 7.55778 136.782 7.55778Z" fill="white"/>
<path d="M154.223 2.25H157.058V25.875H154.223V23.1975C153.649 24.1215 152.878 24.867 151.911 25.434C150.943 26.001 149.807 26.2845 148.502 26.2845C147.276 26.2845 146.128 26.0693 145.059 25.6388C143.991 25.2083 143.046 24.615 142.224 23.859C141.414 23.0925 140.779 22.2105 140.318 21.213C139.856 20.2155 139.626 19.1445 139.626 18C139.626 16.8555 139.856 15.7845 140.318 14.787C140.779 13.779 141.414 12.897 142.224 12.141C143.046 11.3745 143.991 10.776 145.059 10.3455C146.128 9.915 147.276 9.69975 148.502 9.69975C149.807 9.69975 150.943 9.98325 151.911 10.5503C152.878 11.1173 153.649 11.8628 154.223 12.7868V2.25ZM148.536 23.7173C149.649 23.7173 150.611 23.4653 151.421 22.9613C152.243 22.4468 152.873 21.7538 153.311 20.8823C153.761 20.0108 153.986 19.05 153.986 18C153.986 16.929 153.761 15.963 153.311 15.102C152.861 14.2305 152.226 13.5428 151.404 13.0388C150.594 12.5243 149.638 12.267 148.536 12.267C147.422 12.267 146.409 12.5243 145.498 13.0388C144.598 13.5533 143.878 14.2463 143.338 15.1178C142.798 15.9788 142.528 16.9395 142.528 18C142.528 19.0605 142.804 20.0265 143.355 20.898C143.906 21.759 144.638 22.4468 145.549 22.9613C146.46 23.4653 147.456 23.7173 148.536 23.7173Z" fill="white"/>
<path d="M164.903 26.1742C163.991 26.1427 163.103 25.9853 162.236 25.7017C161.381 25.4078 160.628 25.014 159.975 24.5205C159.334 24.0165 158.867 23.439 158.574 22.788L161.004 21.8115C161.173 22.1685 161.477 22.5045 161.916 22.8195C162.354 23.1345 162.861 23.3865 163.434 23.5755C164.008 23.7645 164.588 23.859 165.173 23.859C165.791 23.859 166.371 23.7698 166.911 23.5913C167.451 23.4128 167.889 23.1503 168.227 22.8038C168.576 22.4468 168.75 22.0215 168.75 21.528C168.75 21.003 168.559 20.5935 168.176 20.2995C167.805 19.995 167.333 19.7587 166.759 19.5907C166.196 19.4123 165.623 19.2442 165.038 19.0868C163.879 18.8137 162.844 18.4883 161.933 18.1103C161.021 17.7218 160.301 17.2335 159.773 16.6455C159.255 16.047 158.996 15.2858 158.996 14.3618C158.996 13.3853 159.283 12.54 159.857 11.826C160.442 11.112 161.207 10.5608 162.152 10.1723C163.097 9.78373 164.109 9.58948 165.189 9.58948C166.551 9.58948 167.794 9.86248 168.919 10.4085C170.044 10.9545 170.882 11.6948 171.433 12.6293L169.155 13.8735C168.964 13.4955 168.671 13.1648 168.278 12.8813C167.884 12.5873 167.434 12.3563 166.928 12.1883C166.421 12.0203 165.904 11.931 165.375 11.9205C164.723 11.8995 164.109 11.9783 163.536 12.1568C162.973 12.3353 162.518 12.6083 162.169 12.9757C161.831 13.3328 161.663 13.779 161.663 14.3145C161.663 14.8395 161.843 15.2385 162.203 15.5115C162.574 15.7845 163.052 16.005 163.637 16.173C164.233 16.3305 164.88 16.5143 165.578 16.7243C166.601 17.0288 167.558 17.3805 168.446 17.7795C169.335 18.1785 170.049 18.6773 170.589 19.2758C171.141 19.8743 171.411 20.6145 171.399 21.4965C171.399 22.4625 171.09 23.3078 170.471 24.0323C169.853 24.7463 169.048 25.2922 168.058 25.6702C167.079 26.0483 166.028 26.2162 164.903 26.1742Z" fill="white"/>
</g>
<defs>
<clipPath id="clip0_11228_2662">
<rect width="172" height="36" fill="white"/>
</clipPath>
</defs>
</svg>
