<svg width="172" height="40" viewBox="0 0 172 40" fill="none" xmlns="http://www.w3.org/2000/svg">
<g clip-path="url(#clip0_11228_2700)">
<path d="M59.7446 30.2113C55.6206 30.2113 52.8806 27.9798 52.7959 24.3924H57.2589C57.2589 25.5506 57.9651 26.285 59.7446 26.285C61.5242 26.285 62.2303 25.5506 62.2303 24.3924C62.2303 23.1778 60.818 22.8953 59.1232 22.5846C56.4962 22.1044 53.1349 21.483 53.1349 16.9918C53.1349 13.4891 55.7901 11.0034 59.7729 11.0034C63.6427 11.0034 66.2696 13.3479 66.4109 16.8505H62.1174C62.0891 15.7771 61.4112 14.9297 59.8294 14.9297C58.191 14.9297 57.5414 15.8619 57.5414 16.8223C57.5414 18.0369 58.9537 18.3194 60.6768 18.6301C63.332 19.1103 66.6934 19.7317 66.6934 24.2229C66.6934 27.895 63.9252 30.2113 59.7446 30.2113Z" fill="white"/>
<path d="M74.4579 30.2113C71.3508 30.2113 67.7069 27.8951 67.7069 23.0366C67.7069 18.5453 70.8141 15.5229 75.2488 15.5229C79.6271 15.5229 82.6778 18.4324 82.6778 23.0084V29.8442H78.7797V27.5278C78.0453 29.2509 76.4634 30.2113 74.4579 30.2113ZM75.2206 26.2568C77.1414 26.2568 78.4407 24.8726 78.4407 22.8671C78.4407 20.8616 77.1414 19.4776 75.2206 19.4776C73.2998 19.4776 72.0004 20.8616 72.0004 22.8671C72.0004 24.8726 73.2998 26.2568 75.2206 26.2568Z" fill="white"/>
<path d="M90.9433 30.2113C87.8361 30.2113 84.1923 27.8951 84.1923 23.0366C84.1923 18.5453 87.2994 15.5229 91.7342 15.5229C96.1124 15.5229 99.1631 18.4324 99.1631 23.0084V29.8442H95.265V27.5278C94.5306 29.2509 92.9488 30.2113 90.9433 30.2113ZM91.7059 26.2568C93.6267 26.2568 94.9261 24.8726 94.9261 22.8671C94.9261 20.8616 93.6267 19.4776 91.7059 19.4776C89.7851 19.4776 88.4858 20.8616 88.4858 22.8671C88.4858 24.8726 89.7851 26.2568 91.7059 26.2568Z" fill="white"/>
<path d="M107.711 30.2113C103.587 30.2113 100.847 27.9798 100.762 24.3924H105.225C105.225 25.5506 105.932 26.285 107.711 26.285C109.491 26.285 110.197 25.5506 110.197 24.3924C110.197 23.1778 108.784 22.8953 107.09 22.5846C104.463 22.1044 101.101 21.483 101.101 16.9918C101.101 13.4891 103.757 11.0034 107.739 11.0034C111.609 11.0034 114.236 13.3479 114.377 16.8505H110.084C110.056 15.7771 109.378 14.9297 107.796 14.9297C106.158 14.9297 105.508 15.8619 105.508 16.8223C105.508 18.0369 106.92 18.3194 108.643 18.6301C111.298 19.1103 114.66 19.7317 114.66 24.2229C114.66 27.895 111.892 30.2113 107.711 30.2113Z" fill="white"/>
<path d="M118.99 29.8438V11.3704H127.859C131.334 11.3704 133.17 13.3759 133.17 16.1441C133.17 18.0367 132.266 19.4772 130.684 20.2399V20.2964C132.774 20.9461 134.017 22.6409 134.017 24.8724C134.017 27.7253 132.153 29.8438 128.594 29.8438H118.99ZM122.266 18.9688H127.464C129.074 18.9688 129.893 17.9802 129.893 16.6808C129.893 15.3815 129.243 14.4211 127.436 14.4211H122.266V18.9688ZM122.266 26.8214H128.029C129.893 26.8214 130.627 25.7481 130.627 24.4204C130.627 23.0081 129.695 21.9347 128.085 21.9347H122.266V26.8214Z" fill="white"/>
<path d="M142.384 30.2111C137.978 30.2111 134.871 27.1039 134.871 22.8669C134.871 18.6298 137.978 15.5227 142.384 15.5227C146.791 15.5227 149.898 18.6298 149.898 22.8669C149.898 27.1039 146.791 30.2111 142.384 30.2111ZM142.384 27.3864C145.04 27.3864 146.791 25.4938 146.791 22.8669C146.791 20.2399 145.04 18.3474 142.384 18.3474C139.729 18.3474 137.95 20.2399 137.95 22.8669C137.95 25.4938 139.729 27.3864 142.384 27.3864Z" fill="white"/>
<path d="M151.877 29.8438V9.78857H154.928V29.8438H151.877Z" fill="white"/>
<path d="M164.487 30.2111C160.052 30.2111 156.945 27.1604 156.945 22.7539C156.945 18.0367 160.448 15.5227 163.951 15.5227C166.069 15.5227 167.877 16.4548 168.866 18.1214V9.78857H171.916V22.7539C171.916 27.2734 168.837 30.2111 164.487 30.2111ZM164.459 27.3864C167.086 27.3864 168.866 25.4938 168.866 22.8669C168.866 20.2399 167.086 18.3474 164.459 18.3474C161.804 18.3474 160.024 20.2399 160.024 22.8669C160.024 25.4938 161.804 27.3864 164.459 27.3864Z" fill="white"/>
<path d="M20.0098 40H20L20.0049 39.999L20.0098 40Z" fill="white"/>
<path fill-rule="evenodd" clip-rule="evenodd" d="M20 0C31.05 0 40 8.95 40 20C40 31.0484 31.0526 39.9964 20.0049 39.999C18.2067 39.9986 16.4582 39.7699 14.7998 39.3203C10.7498 32.6103 14.7602 25.9998 17.7402 23.0498L8.46973 31.7695L16.6797 22.4512L16.7002 22.4697L18.29 20.8799C18.52 20.6499 18.8901 20.6499 19.1201 20.8799C19.3499 21.0998 19.3498 21.4695 19.1201 21.6895L17.5195 23.2803L17.6299 23.3799C18.6399 24.3699 19.1503 24.8594 19.7803 24.8594C19.92 24.8593 20.0497 24.8399 20.1895 24.79C20.6594 24.62 21.1398 24.1498 21.9297 23.3799L26.4795 18.8896C27.1395 18.2496 27.4696 17.9195 27.6396 17.5195C27.8096 17.1096 27.8096 16.6598 27.8096 15.75V15.3203C27.8096 13.9205 27.8099 13.2201 27.3701 12.79C26.9302 12.3601 26.21 12.3604 24.7803 12.3604H24.3398C23.41 12.3604 22.9402 12.3603 22.5303 12.5303C22.1103 12.7003 21.7799 13.0199 21.1299 13.6699L16.5596 18.1396C15.7898 18.8895 15.31 19.3597 15.1299 19.8096C15.0699 19.9496 15.04 20.0902 15.04 20.2402C15.0402 20.85 15.5499 21.3502 16.5596 22.3398L16.665 22.4365C13.6643 25.4754 7.39995 29.2852 0.790039 25.5703C0.270039 23.8003 0 21.93 0 20C0 8.95 8.95 0 20 0ZM22.7295 24.1895C22.3596 24.5593 22.0101 24.8895 21.7002 25.1494C21.5102 25.3094 21.3098 25.4596 21.0898 25.5996L21.0801 25.6094C21.24 25.7693 21.3495 25.8801 21.4395 26C21.5695 26.16 21.6803 26.33 21.7803 26.5C21.8902 26.6999 21.9805 26.91 22.1504 27.3398C22.2905 27.6897 22.7603 27.7797 23.0303 27.5098L23.0996 27.4502C23.9795 26.5904 25.03 25.5704 25.2402 25.0703C25.4302 24.6304 25.4898 24.1601 25.4199 23.7002C25.3599 23.2802 25.1397 22.8901 24.7197 22.2402L22.7295 24.1895ZM18.2305 22.5703C18.0705 22.7103 17.9004 22.8701 17.7305 23.04L18.2305 22.5703ZM16.1895 14.6797C15.7196 14.6198 15.2399 14.6804 14.79 14.8604C14.29 15.0704 13.2403 16.0903 12.3604 16.9502C12.0504 17.2501 12.1597 17.7501 12.5596 17.9102L12.8604 18.0195C12.9102 18.0395 12.94 18.0596 12.96 18.0596C13.41 18.2396 13.8102 18.5001 14.1602 18.8301L14.25 18.9199C14.3899 18.69 14.5596 18.48 14.7295 18.29C14.9895 18.0001 15.3195 17.6695 15.6895 17.3096L17.6797 15.3701C17.0197 14.9601 16.6194 14.7397 16.1895 14.6797Z" fill="white"/>
<path d="M21.9102 16.0098C22.5001 15.43 23.4596 15.43 24.0596 16.0098C24.6495 16.5897 24.6495 17.5294 24.0596 18.1094C23.4696 18.6894 22.5102 18.6894 21.9102 18.1094C21.3203 17.5294 21.3202 16.5897 21.9102 16.0098Z" fill="white"/>
</g>
<defs>
<clipPath id="clip0_11228_2700">
<rect width="172" height="40" fill="white"/>
</clipPath>
</defs>
</svg>
