<svg width="188" height="34" viewBox="0 0 188 34" fill="none" xmlns="http://www.w3.org/2000/svg">
<path d="M47.5946 9.74811H54.2643V28.8538H58.2536V9.74811H64.9233V6.07034H47.5946V9.74811Z" fill="white"/>
<path d="M69.3757 29.259C71.7755 29.259 73.8637 28.1682 74.5182 26.5786L74.7987 28.8538H78.1335V19.5036C78.1335 15.2336 75.5779 12.9895 71.4327 12.9895C67.2564 12.9895 64.5137 15.1713 64.5137 18.5062H67.755C67.755 16.8855 69.0017 15.9505 71.2457 15.9505C73.178 15.9505 74.4247 16.792 74.4247 18.8802V19.2231L69.812 19.5659C66.1655 19.8464 64.1085 21.623 64.1085 24.4592C64.1085 27.3578 66.1032 29.259 69.3757 29.259ZM70.6224 26.3916C68.9082 26.3916 67.9732 25.7059 67.9732 24.3034C67.9732 23.0567 68.877 22.2775 71.2457 22.0593L74.4559 21.81V22.6203C74.4559 24.9891 72.9599 26.3916 70.6224 26.3916Z" fill="white"/>
<path d="M83.7701 10.3715C85.0167 10.3715 86.0452 9.34293 86.0452 8.06506C86.0452 6.78719 85.0167 5.78983 83.7701 5.78983C82.4611 5.78983 81.4326 6.78719 81.4326 8.06506C81.4326 9.34293 82.4611 10.3715 83.7701 10.3715ZM81.8689 28.8538H85.6712V13.4571H81.8689V28.8538Z" fill="white"/>
<path d="M93.4332 28.8538V5.66516H89.662V28.8538H93.4332Z" fill="white"/>
<path d="M99.9463 28.8538L101.785 23.5865H110.294L112.132 28.8538H116.34L108.112 6.07034H104.029L95.8011 28.8538H99.9463ZM105.556 12.8649C105.774 12.2415 105.961 11.5558 106.055 11.1195C106.117 11.587 106.335 12.2727 106.522 12.8649L109.14 20.2204H102.969L105.556 12.8649Z" fill="white"/>
<path d="M124.263 29.259C126.6 29.259 128.595 28.2305 129.53 26.4539L129.779 28.8538H133.27V5.66516H129.499V15.4206C128.532 13.8934 126.631 12.9895 124.481 12.9895C119.837 12.9895 117.032 16.418 117.032 21.2178C117.032 25.9864 119.806 29.259 124.263 29.259ZM125.104 25.7682C122.455 25.7682 120.834 23.8359 120.834 21.0931C120.834 18.3504 122.455 16.3868 125.104 16.3868C127.753 16.3868 129.467 18.3192 129.467 21.0931C129.467 23.867 127.753 25.7682 125.104 25.7682Z" fill="white"/>
<path d="M141.035 28.8538V20.1269C141.035 17.6335 142.499 16.4491 144.307 16.4491C146.115 16.4491 147.268 17.6023 147.268 19.7529V28.8538H151.07V20.1269C151.07 17.6023 152.473 16.418 154.312 16.418C156.119 16.418 157.304 17.5712 157.304 19.7841V28.8538H161.075V18.7867C161.075 15.2336 159.018 12.9895 155.278 12.9895C152.94 12.9895 151.133 14.1427 150.353 15.9193C149.543 14.1427 147.922 12.9895 145.585 12.9895C143.372 12.9895 141.814 13.9869 141.035 15.2648L140.723 13.4571H137.232V28.8538H141.035Z" fill="white"/>
<path d="M166.709 10.3715C167.955 10.3715 168.984 9.34293 168.984 8.06506C168.984 6.78719 167.955 5.78983 166.709 5.78983C165.4 5.78983 164.371 6.78719 164.371 8.06506C164.371 9.34293 165.4 10.3715 166.709 10.3715ZM164.807 28.8538H168.61V13.4571H164.807V28.8538Z" fill="white"/>
<path d="M176.341 28.8538V20.5633C176.341 18.0699 177.774 16.4491 180.112 16.4491C182.075 16.4491 183.353 17.6958 183.353 20.2828V28.8538H187.155V19.3789C187.155 15.3894 185.161 12.9895 181.296 12.9895C179.208 12.9895 177.338 13.8934 176.372 15.4518L176.06 13.4571H172.538V28.8538H176.341Z" fill="white"/>
<path fill-rule="evenodd" clip-rule="evenodd" d="M25.8972 0C30.8387 3.02823e-05 34.8445 4.0059 34.8445 8.94752V25.0525C34.8445 29.9941 30.8387 34 25.8972 34H9.79174C4.85031 33.9999 0.844482 29.9941 0.844482 25.0525V8.94752C0.844482 4.00593 4.85031 7.51898e-05 9.79174 0H25.8972ZM11.5808 7.15939C10.5928 7.15961 9.79196 7.9605 9.79174 8.9485V25.0544C9.79174 26.0426 10.5927 26.8443 11.5808 26.8445C12.5691 26.8445 13.3708 26.0428 13.3708 25.0544V8.9485C13.3706 7.96036 12.569 7.15939 11.5808 7.15939ZM18.2927 14.3149C17.3044 14.3149 16.5027 15.1166 16.5027 16.105V25.0525C16.5029 26.0406 17.3045 26.8416 18.2927 26.8416C19.2807 26.8413 20.0816 26.0405 20.0818 25.0525V16.105C20.0818 15.1168 19.2808 14.3151 18.2927 14.3149ZM25.0017 9.84013C24.0134 9.84013 23.2117 10.6419 23.2117 11.6302V25.0515C23.2117 26.0398 24.0134 26.8406 25.0017 26.8406C25.9899 26.8406 26.7907 26.0398 26.7908 25.0515V11.6302C26.7908 10.6419 25.9899 9.84019 25.0017 9.84013Z" fill="white"/>
</svg>
