<svg width="154" height="28" viewBox="0 0 154 28" fill="none" xmlns="http://www.w3.org/2000/svg">
<g clip-path="url(#clip0_8814_10946)">
<path d="M28.5 0V28H11.3031V22.3096H23.1864V16.7699H11.3031V11.3055H23.1864V5.84118H5.88896V28H0.5V0H28.5Z" fill="#5750F1"/>
<path d="M51.9835 15.663V12.649H44.8547V7.43345H53.3463V4.34082H41.5V23.4994H44.8547V15.663H51.9835Z" fill="#0E0B3D"/>
<path d="M53.7473 16.9993C53.7473 21.0355 56.6564 23.8136 60.6664 23.8136C64.6763 23.8136 67.5855 21.0355 67.5855 16.9993C67.5855 12.9632 64.6763 10.1851 60.6664 10.1851C56.6564 10.1851 53.7473 12.9632 53.7473 16.9993ZM56.9447 16.9993C56.9447 14.6405 58.4648 13.0418 60.6664 13.0418C62.8679 13.0418 64.388 14.6405 64.388 16.9993C64.388 19.3581 62.8679 20.9568 60.6664 20.9568C58.4648 20.9568 56.9447 19.3581 56.9447 16.9993Z" fill="#0E0B3D"/>
<path d="M77.8515 10.4999C77.3273 10.3688 76.8818 10.3164 76.4362 10.3164C74.7064 10.3164 73.4746 11.1813 72.9242 12.4655L72.7408 10.5785H69.7268V23.4994H72.9242V17.2093C72.9242 14.6933 74.3657 13.4614 76.6721 13.4614H77.8515V10.4999Z" fill="#0E0B3D"/>
<path d="M82.8201 23.4995V16.161C82.8201 14.0643 84.0519 13.0684 85.572 13.0684C87.0921 13.0684 88.0618 14.0381 88.0618 15.8465V23.4995H91.2593V16.161C91.2593 14.0381 92.4387 13.0422 93.985 13.0422C95.5051 13.0422 96.501 14.0119 96.501 15.8728V23.4995H99.6723V15.0341C99.6723 12.0463 97.9425 10.1592 94.7975 10.1592C92.8318 10.1592 91.3117 11.129 90.6565 12.6229C89.9751 11.129 88.6122 10.1592 86.6466 10.1592C84.7857 10.1592 83.4753 10.9979 82.8201 12.0725L82.558 10.5524H79.6226V23.4995H82.8201Z" fill="#0E0B3D"/>
<path d="M102.89 23.4994H110.648C114.605 23.4994 116.885 21.5862 116.885 18.3101C116.885 16.0823 115.863 14.5622 113.845 13.907C115.653 13.1469 116.597 11.6268 116.597 9.50394C116.597 6.30648 114.291 4.34082 110.517 4.34082H102.89V23.4994ZM110.228 7.30241C112.115 7.30241 113.164 8.1935 113.164 9.84465C113.164 11.5482 112.142 12.5179 110.307 12.5179H106.245V7.30241H110.228ZM110.517 15.3485C112.377 15.3485 113.452 16.2658 113.452 17.8907C113.452 19.6205 112.404 20.5378 110.517 20.5378H106.245V15.3485H110.517Z" fill="#0E0B3D"/>
<path d="M118.336 16.9993C118.336 21.0355 121.246 23.8136 125.255 23.8136C129.265 23.8136 132.175 21.0355 132.175 16.9993C132.175 12.9632 129.265 10.1851 125.255 10.1851C121.246 10.1851 118.336 12.9632 118.336 16.9993ZM121.534 16.9993C121.534 14.6405 123.054 13.0418 125.255 13.0418C127.457 13.0418 128.977 14.6405 128.977 16.9993C128.977 19.3581 127.457 20.9568 125.255 20.9568C123.054 20.9568 121.534 19.3581 121.534 16.9993Z" fill="#0E0B3D"/>
<path d="M137.54 23.4993V4H134.368V23.4993H137.54Z" fill="#0E0B3D"/>
<path d="M145.821 23.84C147.787 23.84 149.464 22.9751 150.25 21.4812L150.46 23.4993H153.395V4H150.224V12.2033C149.412 10.9191 147.813 10.159 146.004 10.159C142.099 10.159 139.741 13.042 139.741 17.0782C139.741 21.0881 142.073 23.84 145.821 23.84ZM146.529 20.9046C144.301 20.9046 142.938 19.2797 142.938 16.9733C142.938 14.6669 144.301 13.0158 146.529 13.0158C148.756 13.0158 150.198 14.6407 150.198 16.9733C150.198 19.3059 148.756 20.9046 146.529 20.9046Z" fill="#0E0B3D"/>
</g>
<defs>
<clipPath id="clip0_8814_10946">
<rect width="153" height="28" fill="white" transform="translate(0.5)"/>
</clipPath>
</defs>
</svg>
