<svg width="144" height="40" viewBox="0 0 144 40" fill="none" xmlns="http://www.w3.org/2000/svg">
<g clip-path="url(#clip0_8814_11000)">
<path d="M124.752 22.6937C124.752 22.1237 125.248 21.6528 125.818 21.6528C126.388 21.6528 126.859 22.1237 126.859 22.6937C126.859 23.2637 126.363 23.7346 125.818 23.7346C125.272 23.7346 124.752 23.2637 124.752 22.6937Z" fill="black"/>
<path d="M128.321 20.042H129.733V20.5624C129.733 21.6033 130.303 22.3716 131.493 22.3716C132.683 22.3716 133.228 21.6281 133.228 20.5129V12.8301H134.665V20.5624C134.665 22.4955 133.376 23.6851 131.468 23.6851C129.436 23.6851 128.296 22.3964 128.296 20.5377V20.0172L128.321 20.042Z" fill="black"/>
<path d="M140.142 12.6816C142.175 12.6816 143.488 13.8216 143.612 15.6804H142.15C142.075 14.6147 141.332 13.9951 140.118 13.9951C138.779 13.9951 137.912 14.6642 137.912 15.7299C137.912 16.5973 138.407 17.093 139.399 17.3408L141.158 17.7621C142.893 18.1587 143.785 19.1004 143.785 20.6122C143.785 22.5453 142.298 23.7597 140.018 23.7597C137.738 23.7597 136.4 22.6196 136.301 20.7857H137.788C137.813 21.8018 138.68 22.4462 140.018 22.4462C141.431 22.4462 142.348 21.777 142.348 20.7113C142.348 19.8687 141.902 19.3483 140.861 19.1004L139.101 18.7039C137.367 18.3074 136.45 17.2913 136.45 15.7547C136.45 13.9208 137.937 12.6816 140.142 12.6816Z" fill="black"/>
<path d="M67.9763 2V17.3903L57.7905 2H54.0234V23.7348H57.7657V8.3197L67.9763 23.7348H71.7186V2H67.9763Z" fill="black"/>
<path d="M88.0258 2V5.49442H78.3356V11.0954H87.0098V14.4412H78.3356V20.2156H88.0258V23.7348H74.519V2H88.0258Z" fill="black"/>
<path d="M112.363 2L109.984 5.49442H116.873V23.7348H120.69V5.49442H125.548L127.902 2H112.363Z" fill="black"/>
<path d="M96.1795 15.1597L98.5092 18.5798L94.99 23.7347H90.3555L96.1795 15.1597Z" fill="black"/>
<path d="M109.835 23.7348H105.176L100.095 16.2503L97.7658 12.8302L90.4052 2H95.0396L100.095 9.41016L105.126 2H109.761L104.854 9.21189L102.4 12.8302L109.835 23.7348Z" fill="black"/>
<path d="M54.0234 26.6211H60.5166V27.4637H57.7161V35.667H56.7992V27.4637H54.0234V26.6211Z" fill="#535353"/>
<path d="M60.2192 32.5939C60.2192 30.6856 61.4088 29.3721 63.1684 29.3721C64.928 29.3721 65.9441 30.5369 65.9441 32.2718V32.6931H61.0618C61.1362 34.1801 61.9045 35.0475 63.218 35.0475C64.2093 35.0475 64.8537 34.6262 65.1015 33.8083H65.9441C65.6219 35.097 64.6554 35.791 63.218 35.791C61.4088 35.791 60.2192 34.5023 60.2192 32.5939ZM61.0866 32.0735H65.0767C65.0767 30.9087 64.3084 30.1156 63.1684 30.1156C62.0284 30.1156 61.2601 30.8839 61.1114 32.0735H61.0866Z" fill="#535353"/>
<path d="M67.332 35.6671V29.5456H68.1003L68.1994 30.413C68.4968 29.7687 69.1907 29.3721 70.0581 29.3721C71.0247 29.3721 71.7434 29.8678 72.0408 30.6856C72.3134 29.8926 73.0569 29.3721 74.0482 29.3721C75.3865 29.3721 76.2539 30.2396 76.2539 31.6522V35.6671H75.4113V31.8505C75.4113 30.8096 74.8165 30.19 73.8995 30.19C72.8834 30.19 72.2638 30.9583 72.2638 31.9V35.6671H71.3964V31.8257C71.3964 30.7848 70.8016 30.19 69.8846 30.19C68.8685 30.19 68.249 30.9583 68.249 31.8752V35.6671H67.332Z" fill="#535353"/>
<path d="M77.9886 29.5456H78.757L78.856 30.7848C79.2773 29.843 80.1448 29.3721 81.1856 29.3721C82.97 29.3721 84.0109 30.7352 84.0109 32.5692C84.0109 34.4031 82.9948 35.791 81.1856 35.791C80.1448 35.791 79.3269 35.3449 78.9056 34.4527V38.2941H78.0382V29.5208L77.9886 29.5456ZM81.0122 35.0227C82.3505 35.0227 83.1187 34.0066 83.1187 32.5939C83.1187 31.1813 82.3505 30.1652 81.0122 30.1652C79.6739 30.1652 78.8808 31.1813 78.8808 32.5939C78.8808 34.0066 79.6739 35.0227 81.0122 35.0227Z" fill="#535353"/>
<path d="M85.4237 35.6672V27.0674L86.2911 26.4478V35.6424H85.4237V35.6672Z" fill="#535353"/>
<path d="M87.8276 34.0067C87.8276 32.8914 88.6951 32.1727 90.1325 32.0736L92.1647 31.9001V31.7019C92.1647 30.5123 91.446 30.1157 90.5538 30.1157C89.4881 30.1157 88.8685 30.5866 88.8685 31.4292H88.0755C88.0755 30.1901 89.0916 29.397 90.6034 29.397C92.016 29.397 93.0569 30.1157 93.0569 31.7266V35.6672H92.3134L92.1895 34.6015C91.8177 35.3698 90.9751 35.8406 89.9342 35.8406C88.6207 35.8406 87.8524 35.0971 87.8524 34.0315L87.8276 34.0067ZM92.1399 32.8914V32.5693L90.3307 32.718C89.1659 32.8171 88.7198 33.3128 88.7198 34.0067C88.7198 34.7502 89.2651 35.1219 90.1077 35.1219C91.3964 35.1219 92.1399 34.2297 92.1399 32.8914Z" fill="#535353"/>
<path d="M95.1882 35.6669V30.2889H93.9491V29.5454H95.1882V28.2071L96.0556 27.6123V29.5454H97.2948V30.2889H96.0556V35.6669H95.1882Z" fill="#535353"/>
<path d="M97.9144 32.5939C97.9144 30.6856 99.104 29.3721 100.864 29.3721C102.623 29.3721 103.639 30.5369 103.639 32.2718V32.6931H98.757C98.8314 34.1801 99.5996 35.0475 100.913 35.0475C101.904 35.0475 102.549 34.6262 102.797 33.8083H103.639C103.317 35.097 102.351 35.791 100.913 35.791C99.104 35.791 97.9144 34.5023 97.9144 32.5939ZM98.7818 32.0735H102.772C102.772 30.9087 102.004 30.1156 100.864 30.1156C99.7235 30.1156 98.9553 30.8839 98.8066 32.0735H98.7818Z" fill="#535353"/>
<path d="M105.349 33.932C105.349 34.6508 105.87 35.0721 106.737 35.0721C107.679 35.0721 108.249 34.6755 108.249 34.0064C108.249 33.5107 108.001 33.2133 107.282 33.0398L106.242 32.7672C105.176 32.4946 104.655 31.9494 104.655 31.1068C104.655 30.0411 105.548 29.3472 106.861 29.3472C108.175 29.3472 108.992 30.0659 109.017 31.1811H108.175C108.175 30.4624 107.654 30.0659 106.836 30.0659C106.018 30.0659 105.498 30.4376 105.498 31.082C105.498 31.5529 105.82 31.875 106.489 32.0485L107.53 32.3211C108.596 32.5938 109.067 33.0894 109.067 33.9568C109.067 35.0473 108.125 35.766 106.737 35.766C105.349 35.766 104.507 35.0225 104.507 33.9073H105.349V33.932Z" fill="#535353"/>
<path d="M142.725 32.7363H113.432L114.547 31.4475H143.816L142.725 32.7363Z" fill="#535353"/>
<path d="M40.0248 19.9752C40.0248 22.7261 39.4795 25.3532 38.4882 27.7076C35.4647 34.9442 28.3519 40 20.0248 40C8.9715 40 0 31.0533 0 20C0 8.94672 8.9715 0 20.0248 0C26.4436 0 32.1685 3.02354 35.8364 7.73234H19.653L22.4783 11.9703H26.0966V25.1053L22.057 18.9839L14.5973 7.73234H10.3346V32H14.5725V14.8699L26.0966 32.2677H30.3098V11.9703H38.3643C39.43 14.4238 40.0248 17.1252 40.0248 19.9752Z" fill="black"/>
</g>
<defs>
<clipPath id="clip0_8814_11000">
<rect width="144" height="40" fill="white"/>
</clipPath>
</defs>
</svg>
