<svg width="172" height="40" viewBox="0 0 172 40" fill="none" xmlns="http://www.w3.org/2000/svg">
<g clip-path="url(#clip0_8814_11021)">
<path d="M59.7446 30.2113C55.6206 30.2113 52.8806 27.9798 52.7959 24.3924H57.2589C57.2589 25.5506 57.9651 26.285 59.7446 26.285C61.5242 26.285 62.2303 25.5506 62.2303 24.3924C62.2303 23.1778 60.818 22.8953 59.1232 22.5846C56.4962 22.1044 53.1349 21.483 53.1349 16.9918C53.1349 13.4891 55.7901 11.0034 59.7729 11.0034C63.6427 11.0034 66.2696 13.3479 66.4109 16.8505H62.1174C62.0891 15.7771 61.4112 14.9297 59.8294 14.9297C58.191 14.9297 57.5414 15.8619 57.5414 16.8223C57.5414 18.0369 58.9537 18.3194 60.6768 18.6301C63.332 19.1103 66.6934 19.7317 66.6934 24.2229C66.6934 27.895 63.9252 30.2113 59.7446 30.2113Z" fill="#0E0B3D"/>
<path d="M74.4579 30.2113C71.3508 30.2113 67.7069 27.8951 67.7069 23.0366C67.7069 18.5453 70.8141 15.5229 75.2488 15.5229C79.6271 15.5229 82.6778 18.4324 82.6778 23.0084V29.8442H78.7797V27.5278C78.0453 29.2509 76.4634 30.2113 74.4579 30.2113ZM75.2206 26.2568C77.1414 26.2568 78.4407 24.8726 78.4407 22.8671C78.4407 20.8616 77.1414 19.4776 75.2206 19.4776C73.2998 19.4776 72.0004 20.8616 72.0004 22.8671C72.0004 24.8726 73.2998 26.2568 75.2206 26.2568Z" fill="#0E0B3D"/>
<path d="M90.9433 30.2113C87.8361 30.2113 84.1923 27.8951 84.1923 23.0366C84.1923 18.5453 87.2994 15.5229 91.7342 15.5229C96.1124 15.5229 99.1631 18.4324 99.1631 23.0084V29.8442H95.265V27.5278C94.5306 29.2509 92.9488 30.2113 90.9433 30.2113ZM91.7059 26.2568C93.6267 26.2568 94.9261 24.8726 94.9261 22.8671C94.9261 20.8616 93.6267 19.4776 91.7059 19.4776C89.7851 19.4776 88.4858 20.8616 88.4858 22.8671C88.4858 24.8726 89.7851 26.2568 91.7059 26.2568Z" fill="#0E0B3D"/>
<path d="M107.711 30.2113C103.587 30.2113 100.847 27.9798 100.762 24.3924H105.225C105.225 25.5506 105.932 26.285 107.711 26.285C109.491 26.285 110.197 25.5506 110.197 24.3924C110.197 23.1778 108.784 22.8953 107.09 22.5846C104.463 22.1044 101.101 21.483 101.101 16.9918C101.101 13.4891 103.757 11.0034 107.739 11.0034C111.609 11.0034 114.236 13.3479 114.377 16.8505H110.084C110.056 15.7771 109.378 14.9297 107.796 14.9297C106.158 14.9297 105.508 15.8619 105.508 16.8223C105.508 18.0369 106.92 18.3194 108.643 18.6301C111.298 19.1103 114.66 19.7317 114.66 24.2229C114.66 27.895 111.892 30.2113 107.711 30.2113Z" fill="#0E0B3D"/>
<path d="M118.99 29.844V11.3706H127.859C131.334 11.3706 133.17 13.3761 133.17 16.1443C133.17 18.0369 132.266 19.4774 130.684 20.2401V20.2966C132.774 20.9463 134.017 22.6411 134.017 24.8726C134.017 27.7255 132.153 29.844 128.594 29.844H118.99ZM122.266 18.969H127.464C129.074 18.969 129.893 17.9804 129.893 16.681C129.893 15.3817 129.243 14.4213 127.436 14.4213H122.266V18.969ZM122.266 26.8216H128.029C129.893 26.8216 130.627 25.7483 130.627 24.4206C130.627 23.0083 129.695 21.9349 128.085 21.9349H122.266V26.8216Z" fill="#635BFF"/>
<path d="M142.384 30.2109C137.978 30.2109 134.871 27.1037 134.871 22.8667C134.871 18.6296 137.978 15.5225 142.384 15.5225C146.791 15.5225 149.898 18.6296 149.898 22.8667C149.898 27.1037 146.791 30.2109 142.384 30.2109ZM142.384 27.3862C145.04 27.3862 146.791 25.4936 146.791 22.8667C146.791 20.2397 145.04 18.3472 142.384 18.3472C139.729 18.3472 137.95 20.2397 137.95 22.8667C137.95 25.4936 139.729 27.3862 142.384 27.3862Z" fill="#635BFF"/>
<path d="M151.877 29.8438V9.78857H154.928V29.8438H151.877Z" fill="#635BFF"/>
<path d="M164.487 30.2111C160.052 30.2111 156.945 27.1604 156.945 22.7539C156.945 18.0367 160.448 15.5227 163.951 15.5227C166.069 15.5227 167.877 16.4548 168.866 18.1214V9.78857H171.916V22.7539C171.916 27.2734 168.837 30.2111 164.487 30.2111ZM164.459 27.3864C167.086 27.3864 168.866 25.4938 168.866 22.8669C168.866 20.2399 167.086 18.3474 164.459 18.3474C161.804 18.3474 160.024 20.2399 160.024 22.8669C160.024 25.4938 161.804 27.3864 164.459 27.3864Z" fill="#635BFF"/>
<path fill-rule="evenodd" clip-rule="evenodd" d="M20 40C31.05 40 40 31.05 40 20C40 8.95 31.05 0 20 0C8.95 0 0 8.95 0 20C0 21.93 0.27 23.8 0.79 25.57C7.64 29.42 14.12 25.19 16.98 22.11L8.47 31.77L17.74 23.05C14.76 26 10.75 32.61 14.8 39.32C16.46 39.77 18.21 40 20.01 40H20ZM17.73 23.04L18.23 22.57C18.07 22.71 17.9 22.87 17.73 23.04ZM16.97 22.11L17.42 21.6C17.28 21.77 17.13 21.94 16.97 22.11Z" fill="url(#paint0_radial_8814_11021)"/>
<path d="M17.6799 15.3697L15.6899 17.3097C15.3199 17.6697 14.9899 17.9997 14.7299 18.2897C14.5599 18.4797 14.3899 18.6897 14.2499 18.9197L14.2299 18.8997C14.2299 18.8997 14.1699 18.8497 14.1599 18.8297C13.8099 18.4997 13.4099 18.2397 12.9599 18.0597C12.9399 18.0597 12.9099 18.0397 12.8599 18.0197L12.5599 17.9097C12.1599 17.7497 12.0499 17.2497 12.3599 16.9497C13.2399 16.0897 14.2899 15.0697 14.7899 14.8597C15.2399 14.6797 15.7199 14.6197 16.1899 14.6797C16.6199 14.7397 17.0199 14.9597 17.6799 15.3697Z" fill="white"/>
<path d="M21.08 25.6097C21.24 25.7697 21.35 25.8797 21.44 25.9997C21.57 26.1597 21.68 26.3297 21.78 26.4997C21.89 26.6997 21.98 26.9097 22.15 27.3397C22.29 27.6897 22.76 27.7797 23.03 27.5097L23.1 27.4497C23.98 26.5897 25.03 25.5697 25.24 25.0697C25.43 24.6297 25.49 24.1597 25.42 23.6997C25.36 23.2797 25.14 22.8897 24.72 22.2397L22.73 24.1897C22.36 24.5597 22.01 24.8897 21.7 25.1497C21.51 25.3097 21.31 25.4597 21.09 25.5997L21.08 25.6097Z" fill="white"/>
<path fill-rule="evenodd" clip-rule="evenodd" d="M21.9299 23.3799L26.4799 18.8899C27.1399 18.2499 27.4699 17.9199 27.6399 17.5199C27.8099 17.1099 27.8099 16.6599 27.8099 15.7499V15.3199C27.8099 13.9199 27.8099 13.2199 27.3699 12.7899C26.9299 12.3599 26.2099 12.3599 24.7799 12.3599H24.3399C23.4099 12.3599 22.9399 12.3599 22.5299 12.5299C22.1099 12.6999 21.7799 13.0199 21.1299 13.6699L16.5599 18.1399C15.7899 18.8899 15.3099 19.3599 15.1299 19.8099C15.0699 19.9499 15.0399 20.0899 15.0399 20.2399C15.0399 20.8499 15.5499 21.3499 16.5599 22.3399L16.6999 22.4699L18.2899 20.8799C18.5199 20.6499 18.8899 20.6499 19.1199 20.8799C19.3499 21.0999 19.3499 21.4699 19.1199 21.6899L17.5199 23.2799L17.6299 23.3799C18.6399 24.3699 19.1499 24.8599 19.7799 24.8599C19.9199 24.8599 20.0499 24.8399 20.1899 24.7899C20.6599 24.6199 21.1399 24.1499 21.9299 23.3799ZM24.0599 18.1099C23.4699 18.6899 22.5099 18.6899 21.9099 18.1099C21.3199 17.5299 21.3199 16.5899 21.9099 16.0099C22.4999 15.4299 23.4599 15.4299 24.0599 16.0099C24.6499 16.5899 24.6499 17.5299 24.0599 18.1099Z" fill="white"/>
</g>
<defs>
<radialGradient id="paint0_radial_8814_11021" cx="0" cy="0" r="1" gradientUnits="userSpaceOnUse" gradientTransform="translate(20.09 19.98) rotate(90) scale(20)">
<stop stop-color="#9893FF"/>
<stop offset="1" stop-color="#635BFF"/>
</radialGradient>
<clipPath id="clip0_8814_11021">
<rect width="172" height="40" fill="white"/>
</clipPath>
</defs>
</svg>
