<svg width="162" height="38" viewBox="0 0 162 38" fill="none" xmlns="http://www.w3.org/2000/svg">
<g clip-path="url(#clip0_8814_10957)">
<path d="M32.9574 13.9979V25.9413C32.9574 28.3681 31.7102 30.6228 29.6582 31.913L20.0555 37.9523C19.8528 38.0813 19.5824 37.9338 19.5824 37.6942V33.4674C19.5824 32.7731 19.9265 32.128 20.504 31.741L26.6293 27.6554C27.4833 27.084 27.9994 26.1256 27.9994 25.0996V16.867C27.9994 16.2096 28.3496 15.6014 28.9209 15.2696L32.0358 13.4756C32.4474 13.2422 32.9574 13.5371 32.9574 14.0101V13.9979Z" fill="#625DF5"/>
<path d="M32.214 10.4228L18.6486 18.2561C17.6963 18.8029 17.1127 19.8166 17.1127 20.9164V37.4184C17.1127 37.658 16.8546 37.8055 16.6519 37.6826L4.0818 30.3716C1.86391 29.0814 0.5 26.716 0.5 24.148V14.1582C0.5 11.1478 2.10352 8.3647 4.7146 6.85948L16.1542 0.248821C16.7256 -0.0829404 17.426 -0.0829404 17.9974 0.248821L20.8603 1.90149C21.4747 2.25782 21.4747 3.14252 20.8603 3.49886L7.20282 11.3813C6.25054 11.9281 5.66688 12.9418 5.66688 14.0415V23.5397C5.66688 24.6395 6.25054 25.6532 7.20282 26.2L11.7308 28.8111C11.8291 28.8663 11.9458 28.7988 11.9458 28.6882V19.2514C11.9458 17.3346 12.9656 15.5713 14.6245 14.6129L27.7475 7.03765C28.3618 6.68131 29.1237 6.71203 29.7073 7.11138L32.2693 8.86234C32.8283 9.24325 32.7976 10.0788 32.2078 10.4228H32.214Z" fill="#625DF5"/>
<path d="M47.7324 8.7168H52.1134V20.6159C52.1134 21.5925 52.247 22.4632 52.5142 23.2279C52.7814 23.9834 53.1776 24.6238 53.7027 25.1489C54.2371 25.6741 54.8959 26.0749 55.679 26.3513C56.4622 26.6185 57.3743 26.7521 58.4154 26.7521C59.4473 26.7521 60.3548 26.6185 61.138 26.3513C61.9303 26.0749 62.5891 25.6741 63.1143 25.1489C63.6486 24.6238 64.0494 23.9834 64.3166 23.2279C64.5838 22.4632 64.7174 21.5925 64.7174 20.6159V8.7168H69.0984V21.1411C69.0984 22.56 68.8588 23.8498 68.3797 25.0107C67.9006 26.1716 67.205 27.1667 66.2929 27.9959C65.3808 28.8251 64.2613 29.4654 62.9346 29.9169C61.6171 30.3683 60.1107 30.5941 58.4154 30.5941C56.7201 30.5941 55.2091 30.3683 53.8824 29.9169C52.5649 29.4654 51.45 28.8251 50.5379 27.9959C49.6258 27.1667 48.9302 26.1716 48.4511 25.0107C47.972 23.8498 47.7324 22.56 47.7324 21.1411V8.7168Z" fill="#101828"/>
<path d="M72.125 8.7168H76.5336V30.3177H72.125V8.7168Z" fill="#101828"/>
<path d="M78.5928 22.233C78.5928 20.9339 78.837 19.7638 79.3253 18.7227C79.8136 17.6723 80.4862 16.7786 81.343 16.0416C82.2091 15.2953 83.2318 14.724 84.4111 14.3279C85.5996 13.9225 86.8849 13.7198 88.2669 13.7198C88.8566 13.7198 89.437 13.7566 90.0083 13.8303C90.5887 13.904 91.1415 14.0054 91.6667 14.1344C92.2011 14.2634 92.6986 14.42 93.1593 14.6043C93.6292 14.7793 94.0438 14.9728 94.4031 15.1847V7.39014H98.4938V30.3178H94.4031V28.7837C94.0438 29.0325 93.6199 29.2674 93.1316 29.4886C92.6433 29.7097 92.1181 29.9032 91.5561 30.069C90.9941 30.2348 90.4091 30.3638 89.801 30.456C89.2021 30.5573 88.6078 30.608 88.0182 30.608C86.6362 30.608 85.3647 30.4053 84.2038 29.9999C83.0521 29.5945 82.0617 29.0233 81.2325 28.2862C80.4033 27.5491 79.7537 26.6692 79.2838 25.6466C78.8232 24.6147 78.5928 23.4768 78.5928 22.233ZM82.8909 22.233C82.8909 22.8871 83.0199 23.5044 83.2779 24.0849C83.545 24.6653 83.9228 25.1767 84.4111 25.6189C84.9086 26.0519 85.5029 26.3975 86.1939 26.6554C86.8941 26.9042 87.6773 27.0286 88.5433 27.0286C89.0961 27.0286 89.6489 26.9779 90.2018 26.8766C90.7546 26.766 91.2843 26.614 91.7911 26.4205C92.307 26.227 92.7861 25.9921 93.2284 25.7157C93.6798 25.4393 94.0714 25.1306 94.4031 24.7897V19.1373C93.9885 18.8056 93.5508 18.5246 93.0902 18.2942C92.6295 18.0639 92.1596 17.875 91.6805 17.7276C91.2014 17.5802 90.7177 17.4742 90.2294 17.4097C89.7411 17.336 89.2666 17.2992 88.8059 17.2992C87.8661 17.2992 87.0277 17.4282 86.2906 17.6861C85.5628 17.9349 84.9455 18.2804 84.4387 18.7227C83.9412 19.1649 83.5589 19.6855 83.2917 20.2843C83.0245 20.8832 82.8909 21.5328 82.8909 22.233Z" fill="#101828"/>
<path d="M100.968 22.1085C100.968 21.0029 101.193 19.9479 101.645 18.9437C102.096 17.9302 102.746 17.0365 103.593 16.2626C104.441 15.4886 105.478 14.8713 106.703 14.4107C107.938 13.95 109.338 13.7197 110.904 13.7197C112.461 13.7197 113.862 13.9546 115.106 14.4245C116.359 14.8852 117.418 15.5209 118.284 16.3317C119.16 17.1425 119.828 18.096 120.288 19.1924C120.758 20.2888 120.993 21.4636 120.993 22.7166C120.993 22.8732 120.988 23.0437 120.979 23.2279C120.979 23.403 120.97 23.5642 120.952 23.7116H105.528C105.703 24.1999 105.984 24.6468 106.371 25.0522C106.768 25.4576 107.26 25.8077 107.85 26.1025C108.44 26.3974 109.122 26.6277 109.895 26.7935C110.669 26.9502 111.526 27.0285 112.466 27.0285C113.406 27.0285 114.341 26.9317 115.272 26.7382C116.202 26.5356 117.091 26.2822 117.939 25.9781L119.321 29.1015C118.786 29.3503 118.243 29.5714 117.69 29.7649C117.146 29.9491 116.575 30.1058 115.976 30.2347C115.387 30.3545 114.765 30.4467 114.111 30.5112C113.466 30.5756 112.784 30.6079 112.065 30.6079C110.232 30.6079 108.624 30.3868 107.242 29.9445C105.86 29.5023 104.704 28.8988 103.773 28.1341C102.843 27.3694 102.142 26.4711 101.672 25.4392C101.203 24.4073 100.968 23.297 100.968 22.1085ZM116.654 20.5192C116.506 20.0677 116.276 19.6485 115.963 19.2615C115.658 18.8654 115.276 18.5245 114.815 18.2389C114.355 17.944 113.82 17.7137 113.212 17.5478C112.604 17.382 111.936 17.2991 111.208 17.2991C110.434 17.2991 109.73 17.3866 109.094 17.5617C108.458 17.7367 107.901 17.9717 107.422 18.2665C106.943 18.5613 106.542 18.9022 106.219 19.2892C105.906 19.6762 105.676 20.0861 105.528 20.5192H116.654Z" fill="#101828"/>
<path d="M122.651 22.2052C122.651 21.0075 122.868 19.8927 123.301 18.8608C123.743 17.8196 124.384 16.9213 125.222 16.1658C126.07 15.4011 127.102 14.8022 128.318 14.3692C129.543 13.9362 130.939 13.7197 132.505 13.7197C133.187 13.7197 133.873 13.7611 134.564 13.844C135.255 13.927 135.919 14.0467 136.555 14.2034C137.199 14.3508 137.803 14.5304 138.365 14.7424C138.927 14.9451 139.415 15.1708 139.83 15.4195L137.937 18.5014C137.043 18.0868 136.195 17.7828 135.394 17.5893C134.601 17.3958 133.795 17.2991 132.975 17.2991C132.035 17.2991 131.192 17.4235 130.446 17.6722C129.7 17.9118 129.064 18.2527 128.539 18.6949C128.023 19.128 127.627 19.6439 127.35 20.2428C127.083 20.8324 126.95 21.4774 126.95 22.1776C126.95 22.8778 127.092 23.5274 127.378 24.1262C127.673 24.7159 128.083 25.2272 128.608 25.6603C129.142 26.0841 129.783 26.4204 130.529 26.6691C131.284 26.9087 132.123 27.0285 133.044 27.0285C134.058 27.0285 135.011 26.8857 135.905 26.6C136.808 26.3144 137.646 25.9321 138.42 25.453L140.314 28.5349C139.825 28.8297 139.296 29.1061 138.724 29.3641C138.153 29.6128 137.54 29.8294 136.886 30.0136C136.241 30.1979 135.559 30.3407 134.841 30.4421C134.131 30.5526 133.394 30.6079 132.63 30.6079C131.073 30.6079 129.677 30.396 128.442 29.9722C127.208 29.5483 126.162 28.9633 125.305 28.217C124.448 27.4615 123.789 26.5724 123.329 25.5497C122.877 24.527 122.651 23.4122 122.651 22.2052Z" fill="#101828"/>
<path d="M142.967 7.39014H147.058V20.9339L154.687 14.01H160.947L152.42 21.6387L161.486 30.3178H155.35L149.283 24.4442L147.058 26.4343V30.3178H142.967V7.39014Z" fill="#101828"/>
</g>
<defs>
<clipPath id="clip0_8814_10957">
<rect width="161" height="38" fill="white" transform="translate(0.5)"/>
</clipPath>
</defs>
</svg>
