<svg width="154" height="28" viewBox="0 0 154 28" fill="none" xmlns="http://www.w3.org/2000/svg">
<g clip-path="url(#clip0_11228_2641)">
<path d="M28.5 0V28H11.3031V22.3096H23.1864V16.7699H11.3031V11.3055H23.1864V5.84118H5.88896V28H0.5V0H28.5Z" fill="white"/>
<path d="M51.9835 15.6629V12.6489H44.8547V7.43333H53.3463V4.3407H41.5V23.4993H44.8547V15.6629H51.9835Z" fill="white"/>
<path d="M53.7473 16.9995C53.7473 21.0357 56.6564 23.8138 60.6664 23.8138C64.6763 23.8138 67.5855 21.0357 67.5855 16.9995C67.5855 12.9634 64.6763 10.1853 60.6664 10.1853C56.6564 10.1853 53.7473 12.9634 53.7473 16.9995ZM56.9447 16.9995C56.9447 14.6407 58.4648 13.042 60.6664 13.042C62.8679 13.042 64.388 14.6407 64.388 16.9995C64.388 19.3583 62.8679 20.957 60.6664 20.957C58.4648 20.957 56.9447 19.3583 56.9447 16.9995Z" fill="white"/>
<path d="M77.8515 10.4998C77.3273 10.3687 76.8818 10.3163 76.4362 10.3163C74.7064 10.3163 73.4746 11.1812 72.9242 12.4654L72.7408 10.5784H69.7268V23.4993H72.9242V17.2092C72.9242 14.6932 74.3657 13.4613 76.6721 13.4613H77.8515V10.4998Z" fill="white"/>
<path d="M82.8201 23.4994V16.1609C82.8201 14.0642 84.0519 13.0683 85.572 13.0683C87.0921 13.0683 88.0618 14.038 88.0618 15.8464V23.4994H91.2593V16.1609C91.2593 14.038 92.4387 13.0421 93.985 13.0421C95.5051 13.0421 96.501 14.0118 96.501 15.8727V23.4994H99.6723V15.034C99.6723 12.0462 97.9425 10.1591 94.7975 10.1591C92.8318 10.1591 91.3117 11.1289 90.6565 12.6228C89.9751 11.1289 88.6122 10.1591 86.6466 10.1591C84.7857 10.1591 83.4753 10.9978 82.8201 12.0724L82.558 10.5523H79.6226V23.4994H82.8201Z" fill="white"/>
<path d="M102.89 23.4993H110.648C114.605 23.4993 116.885 21.5861 116.885 18.31C116.885 16.0822 115.863 14.5621 113.845 13.9069C115.653 13.1468 116.597 11.6267 116.597 9.50382C116.597 6.30636 114.291 4.3407 110.517 4.3407H102.89V23.4993ZM110.228 7.30229C112.115 7.30229 113.164 8.19338 113.164 9.84453C113.164 11.5481 112.142 12.5178 110.307 12.5178H106.245V7.30229H110.228ZM110.517 15.3484C112.377 15.3484 113.452 16.2657 113.452 17.8906C113.452 19.6204 112.404 20.5377 110.517 20.5377H106.245V15.3484H110.517Z" fill="white"/>
<path d="M118.336 16.9995C118.336 21.0357 121.246 23.8138 125.255 23.8138C129.265 23.8138 132.175 21.0357 132.175 16.9995C132.175 12.9634 129.265 10.1853 125.255 10.1853C121.246 10.1853 118.336 12.9634 118.336 16.9995ZM121.534 16.9995C121.534 14.6407 123.054 13.042 125.255 13.042C127.457 13.042 128.977 14.6407 128.977 16.9995C128.977 19.3583 127.457 20.957 125.255 20.957C123.054 20.957 121.534 19.3583 121.534 16.9995Z" fill="white"/>
<path d="M137.54 23.4993V4H134.368V23.4993H137.54Z" fill="white"/>
<path d="M145.821 23.84C147.787 23.84 149.464 22.9751 150.25 21.4812L150.46 23.4993H153.395V4H150.224V12.2033C149.412 10.9191 147.813 10.159 146.004 10.159C142.099 10.159 139.741 13.042 139.741 17.0782C139.741 21.0881 142.073 23.84 145.821 23.84ZM146.529 20.9046C144.301 20.9046 142.938 19.2797 142.938 16.9733C142.938 14.6669 144.301 13.0158 146.529 13.0158C148.756 13.0158 150.198 14.6407 150.198 16.9733C150.198 19.3059 148.756 20.9046 146.529 20.9046Z" fill="white"/>
</g>
<defs>
<clipPath id="clip0_11228_2641">
<rect width="153" height="28" fill="white" transform="translate(0.5)"/>
</clipPath>
</defs>
</svg>
