<svg width="188" height="34" viewBox="0 0 188 34" fill="none" xmlns="http://www.w3.org/2000/svg">
<path d="M47.5946 9.74836H54.2643V28.8535H58.2536V9.74836H64.9233V6.07069H47.5946V9.74836Z" fill="#101828"/>
<path d="M69.3757 29.2587C71.7756 29.2587 73.8637 28.1679 74.5182 26.5784L74.7987 28.8535H78.1336V19.5035C78.1336 15.2337 75.5779 12.9897 71.4327 12.9897C67.2564 12.9897 64.5137 15.1714 64.5137 18.5062H67.7551C67.7551 16.8855 69.0017 15.9505 71.2457 15.9505C73.1781 15.9505 74.4247 16.792 74.4247 18.8802V19.223L69.8121 19.5659C66.1656 19.8464 64.1086 21.6229 64.1086 24.459C64.1086 27.3575 66.1032 29.2587 69.3757 29.2587ZM70.6224 26.3914C68.9082 26.3914 67.9732 25.7057 67.9732 24.3032C67.9732 23.0565 68.8771 22.2774 71.2457 22.0592L74.4559 21.8099V22.6202C74.4559 24.9889 72.9599 26.3914 70.6224 26.3914Z" fill="#101828"/>
<path d="M83.7701 10.3717C85.0168 10.3717 86.0453 9.34319 86.0453 8.06536C86.0453 6.78753 85.0168 5.79019 83.7701 5.79019C82.4611 5.79019 81.4326 6.78753 81.4326 8.06536C81.4326 9.34319 82.4611 10.3717 83.7701 10.3717ZM81.8689 28.8535H85.6713V13.4572H81.8689V28.8535Z" fill="#101828"/>
<path d="M93.4332 28.8535V5.66553H89.6621V28.8535H93.4332Z" fill="#101828"/>
<path d="M99.9463 28.8535L101.785 23.5864H110.294L112.132 28.8535H116.34L108.112 6.07069H104.029L95.8012 28.8535H99.9463ZM105.556 12.865C105.774 12.2417 105.961 11.556 106.055 11.1197C106.117 11.5872 106.335 12.2729 106.522 12.865L109.14 20.2204H102.969L105.556 12.865Z" fill="#101828"/>
<path d="M124.263 29.2587C126.6 29.2587 128.595 28.2302 129.53 26.4537L129.779 28.8535H133.27V5.66553H129.499V15.4207C128.532 13.8935 126.631 12.9897 124.481 12.9897C119.837 12.9897 117.032 16.418 117.032 21.2177C117.032 25.9862 119.806 29.2587 124.263 29.2587ZM125.104 25.768C122.455 25.768 120.834 23.8357 120.834 21.093C120.834 18.3504 122.455 16.3869 125.104 16.3869C127.753 16.3869 129.467 18.3192 129.467 21.093C129.467 23.8669 127.753 25.768 125.104 25.768Z" fill="#101828"/>
<path d="M141.035 28.8535V20.1269C141.035 17.6335 142.5 16.4492 144.307 16.4492C146.115 16.4492 147.268 17.6024 147.268 19.7529V28.8535H151.07V20.1269C151.07 17.6024 152.473 16.418 154.312 16.418C156.119 16.418 157.304 17.5712 157.304 19.784V28.8535H161.075V18.7867C161.075 15.2337 159.018 12.9897 155.278 12.9897C152.94 12.9897 151.133 14.1429 150.354 15.9194C149.543 14.1429 147.923 12.9897 145.585 12.9897C143.372 12.9897 141.814 13.987 141.035 15.2649L140.723 13.4572H137.232V28.8535H141.035Z" fill="#101828"/>
<path d="M166.709 10.3717C167.955 10.3717 168.984 9.34319 168.984 8.06536C168.984 6.78753 167.955 5.79019 166.709 5.79019C165.4 5.79019 164.371 6.78753 164.371 8.06536C164.371 9.34319 165.4 10.3717 166.709 10.3717ZM164.808 28.8535H168.61V13.4572H164.808V28.8535Z" fill="#101828"/>
<path d="M176.341 28.8535V20.5632C176.341 18.0699 177.774 16.4492 180.112 16.4492C182.075 16.4492 183.353 17.6959 183.353 20.2827V28.8535H187.156V19.3789C187.156 15.3895 185.161 12.9897 181.296 12.9897C179.208 12.9897 177.338 13.8935 176.372 15.4519L176.06 13.4572H172.538V28.8535H176.341Z" fill="#101828"/>
<path d="M0.844482 8.94737C0.844482 4.00587 4.85036 0 9.79186 0H25.8971C30.8386 0 34.8445 4.00587 34.8445 8.94737V25.0526C34.8445 29.9941 30.8386 34 25.8971 34H9.79186C4.85036 34 0.844482 29.9941 0.844482 25.0526V8.94737Z" fill="#465FFF"/>
<g filter="url(#filter0_d_8814_10990)">
<path d="M9.79175 8.94914C9.79175 7.96084 10.5929 7.15967 11.5812 7.15967C12.5695 7.15967 13.3707 7.96084 13.3707 8.94914V25.0544C13.3707 26.0427 12.5695 26.8439 11.5812 26.8439C10.5929 26.8439 9.79175 26.0427 9.79175 25.0544V8.94914Z" fill="white"/>
</g>
<g opacity="0.9" filter="url(#filter1_d_8814_10990)">
<path d="M16.5028 16.1044C16.5028 15.1161 17.304 14.3149 18.2923 14.3149C19.2806 14.3149 20.0818 15.1161 20.0818 16.1044V25.0518C20.0818 26.0401 19.2806 26.8413 18.2923 26.8413C17.304 26.8413 16.5028 26.0401 16.5028 25.0518V16.1044Z" fill="white"/>
</g>
<g opacity="0.7" filter="url(#filter2_d_8814_10990)">
<path d="M23.2117 11.6303C23.2117 10.642 24.0128 9.84082 25.0011 9.84082C25.9894 9.84082 26.7906 10.642 26.7906 11.6303V25.0513C26.7906 26.0396 25.9894 26.8408 25.0011 26.8408C24.0128 26.8408 23.2117 26.0396 23.2117 25.0513V11.6303Z" fill="white"/>
</g>
<defs>
<filter id="filter0_d_8814_10990" x="8.61304" y="6.57031" width="5.9364" height="22.0415" filterUnits="userSpaceOnUse" color-interpolation-filters="sRGB">
<feFlood flood-opacity="0" result="BackgroundImageFix"/>
<feColorMatrix in="SourceAlpha" type="matrix" values="0 0 0 0 0 0 0 0 0 0 0 0 0 0 0 0 0 0 127 0" result="hardAlpha"/>
<feOffset dy="0.589356"/>
<feGaussianBlur stdDeviation="0.589356"/>
<feComposite in2="hardAlpha" operator="out"/>
<feColorMatrix type="matrix" values="0 0 0 0 0 0 0 0 0 0 0 0 0 0 0 0 0 0 0.12 0"/>
<feBlend mode="normal" in2="BackgroundImageFix" result="effect1_dropShadow_8814_10990"/>
<feBlend mode="normal" in="SourceGraphic" in2="effect1_dropShadow_8814_10990" result="shape"/>
</filter>
<filter id="filter1_d_8814_10990" x="15.3241" y="13.7256" width="5.9364" height="14.8838" filterUnits="userSpaceOnUse" color-interpolation-filters="sRGB">
<feFlood flood-opacity="0" result="BackgroundImageFix"/>
<feColorMatrix in="SourceAlpha" type="matrix" values="0 0 0 0 0 0 0 0 0 0 0 0 0 0 0 0 0 0 127 0" result="hardAlpha"/>
<feOffset dy="0.589356"/>
<feGaussianBlur stdDeviation="0.589356"/>
<feComposite in2="hardAlpha" operator="out"/>
<feColorMatrix type="matrix" values="0 0 0 0 0 0 0 0 0 0 0 0 0 0 0 0 0 0 0.12 0"/>
<feBlend mode="normal" in2="BackgroundImageFix" result="effect1_dropShadow_8814_10990"/>
<feBlend mode="normal" in="SourceGraphic" in2="effect1_dropShadow_8814_10990" result="shape"/>
</filter>
<filter id="filter2_d_8814_10990" x="22.033" y="9.25146" width="5.9364" height="19.3574" filterUnits="userSpaceOnUse" color-interpolation-filters="sRGB">
<feFlood flood-opacity="0" result="BackgroundImageFix"/>
<feColorMatrix in="SourceAlpha" type="matrix" values="0 0 0 0 0 0 0 0 0 0 0 0 0 0 0 0 0 0 127 0" result="hardAlpha"/>
<feOffset dy="0.589356"/>
<feGaussianBlur stdDeviation="0.589356"/>
<feComposite in2="hardAlpha" operator="out"/>
<feColorMatrix type="matrix" values="0 0 0 0 0 0 0 0 0 0 0 0 0 0 0 0 0 0 0.12 0"/>
<feBlend mode="normal" in2="BackgroundImageFix" result="effect1_dropShadow_8814_10990"/>
<feBlend mode="normal" in="SourceGraphic" in2="effect1_dropShadow_8814_10990" result="shape"/>
</filter>
</defs>
</svg>
