<svg width="44" height="44" viewBox="0 0 44 44" fill="none" xmlns="http://www.w3.org/2000/svg">
<rect width="44" height="44" rx="22" fill="#1B4BF1"/>
<path opacity="0.5" d="M31.2692 17.2991C31.5659 15.3647 31.2692 14.0752 30.2308 12.8848C29.0936 11.5456 27.0168 11 24.3466 11H16.6823C16.1384 11 15.6934 11.3968 15.5945 11.9424L12.3804 32.2781C12.3309 32.6749 12.6276 33.022 13.0232 33.022H17.7701L17.424 35.1052C17.3746 35.4524 17.6218 35.75 18.0174 35.75H22.0226C22.5171 35.75 22.9127 35.4028 22.9621 34.9564L23.8027 29.6989C23.8522 29.2525 24.2972 28.9053 24.7422 28.9053H25.3356C29.1925 28.9053 32.2582 27.3181 33.1482 22.755C33.4944 20.8702 33.346 19.2335 32.3571 18.1423C32.0604 17.7951 31.7143 17.5471 31.2692 17.2991Z" fill="white"/>
<path d="M31.2692 17.2991C31.5659 15.3647 31.2692 14.0751 30.2308 12.8848C29.0936 11.5456 27.0168 11 24.3466 11H16.6823C16.1384 11 15.6934 11.3968 15.5945 11.9424L12.3804 32.278C12.3309 32.6748 12.6276 33.022 13.0232 33.022H17.7701L18.9074 25.6814C19.0063 25.1358 19.4513 24.739 19.9953 24.739H22.2698C26.7201 24.739 30.1814 22.9534 31.1703 17.6959C31.2198 17.5967 31.2198 17.4479 31.2692 17.2991Z" fill="white"/>
<path fill-rule="evenodd" clip-rule="evenodd" d="M32.583 17.7056C32.5811 17.7155 32.5777 17.7331 32.5726 17.7613C32.5663 17.7964 32.5525 17.8722 32.5317 17.9535C32.5236 17.9854 32.513 18.024 32.499 18.0675C31.9411 20.9097 30.6819 22.9761 28.8171 24.3079C26.9571 25.6363 24.6614 26.114 22.2697 26.114H20.2317L18.9484 34.397H13.0231C11.766 34.397 10.8685 33.2906 11.0158 32.108L11.0186 32.0857L14.2386 11.7124L14.2414 11.6971C14.4492 10.5506 15.4209 9.625 16.6822 9.625H24.3465C27.0997 9.625 29.7213 10.1673 31.2728 11.9876C31.9176 12.7287 32.3659 13.5447 32.5894 14.4996C32.8092 15.4388 32.793 16.4333 32.6282 17.5075L32.6106 17.6224L32.583 17.7056ZM30.2307 12.8848C29.0934 11.5456 27.0167 11 24.3465 11H16.6822C16.1383 11 15.6932 11.3968 15.5944 11.9424L12.3803 32.278C12.3308 32.6748 12.6275 33.022 13.0231 33.022H17.77L18.9073 25.6814C19.0062 25.1358 19.4512 24.739 19.9952 24.739H22.2697C26.72 24.739 30.1813 22.9534 31.1702 17.6959C31.197 17.6422 31.2093 17.5739 31.2227 17.499C31.2342 17.4356 31.2464 17.3673 31.2691 17.2991C31.5658 15.3647 31.2691 14.0751 30.2307 12.8848Z" fill="#1B4BF1"/>
<path d="M20.2425 17.3487C20.2919 17.0015 20.737 16.5551 21.182 16.5551H27.2146C27.9068 16.5551 28.5991 16.6047 29.1924 16.7039C29.7364 16.8031 30.7253 17.0511 31.2198 17.3487C31.5165 15.4143 31.2198 14.1247 30.1814 12.9344C29.0936 11.5456 27.0168 11 24.3466 11H16.6823C16.1384 11 15.6934 11.3968 15.5945 11.9424L12.3804 32.278C12.3309 32.6748 12.6276 33.022 13.0232 33.022H17.7701L20.2425 17.3487Z" fill="white"/>
</svg>
