<svg width="38" height="38" viewBox="0 0 38 38" fill="none" xmlns="http://www.w3.org/2000/svg">
<path opacity="0.72" d="M37.9068 17.3678C37.8881 17.1785 37.8004 17.0028 37.6602 16.8742C37.52 16.7454 37.3372 16.6727 37.1468 16.6699H18.2076C17.6933 16.6824 17.1912 16.829 16.7513 17.0952C16.3113 17.3613 15.9487 17.7378 15.6996 18.187C15.469 18.5887 15.3477 19.0438 15.3477 19.5068C15.3477 19.9698 15.469 20.4249 15.6996 20.8267C15.7655 20.953 15.8631 21.06 15.9831 21.1372C16.1031 21.2143 16.241 21.259 16.3835 21.2666H37.1924C37.3829 21.2638 37.5657 21.1911 37.7058 21.0624C37.8461 20.9337 37.9337 20.758 37.9525 20.5688C37.9525 19.9771 37.9525 19.4765 37.9525 19.0517C37.9525 18.6269 37.9524 17.9443 37.9068 17.3678Z" fill="#3758F9"/>
<path d="M37.8904 17.3678C37.8754 17.1798 37.7908 17.0043 37.6531 16.8753C37.5154 16.7462 37.3344 16.6731 37.1456 16.6699H34.1056C33.999 16.6711 33.8937 16.6947 33.7968 16.7391C33.6999 16.7835 33.6136 16.8478 33.5432 16.9278C33.4724 17.0047 33.4193 17.0961 33.3878 17.1958C33.3562 17.2954 33.3471 17.4007 33.3609 17.5043C33.3609 17.9898 33.3609 18.4752 33.3609 19.0214C33.357 21.4422 32.7423 23.823 31.5734 25.9441C30.4046 28.0652 28.7191 29.8583 26.6728 31.158C26.46 31.2945 26.2201 31.4285 25.9387 31.5782C24.7067 32.2331 23.8412 32.5684 22.5312 32.9193L24.4193 36.4905C24.4869 36.6074 24.5845 36.7042 24.7021 36.7708C24.8197 36.8375 24.9029 36.8716 25.0381 36.8698C25.1185 36.8843 25.2033 36.8843 25.2837 36.8698L25.8176 36.6726L26.2701 36.4905C26.9425 36.2118 27.6326 35.901 28.2663 35.5432C31.2298 33.8769 33.6948 31.4937 35.4001 28.5564C37.1056 25.6191 37.9917 22.2796 37.9665 18.8848C37.9665 18.3235 37.936 17.8836 37.8904 17.3678Z" fill="#3758F9"/>
<path d="M27.1319 31.7675C27.0298 31.5945 26.8674 31.4648 26.6759 31.4034H26.463C26.3311 31.4044 26.2011 31.4355 26.083 31.4944C23.9156 32.7253 21.4633 33.3687 18.9695 33.3604C15.1423 33.3524 11.4741 31.8314 8.76783 29.1304C6.06154 26.4292 4.5376 22.7681 4.52957 18.9482C4.5376 15.1284 6.06154 11.4672 8.76783 8.76613C11.4741 6.06505 15.1423 4.54406 18.9695 4.53604C21.4621 4.53684 23.9122 5.17955 26.083 6.40203C26.1966 6.47392 26.3287 6.51086 26.463 6.50823H26.6302C26.7344 6.48527 26.8329 6.44109 26.9191 6.37843C27.0055 6.31579 27.078 6.23602 27.1319 6.14414L28.6519 3.50444C28.7524 3.32887 28.7801 3.12102 28.729 2.92539C28.6779 2.72974 28.5519 2.56186 28.3782 2.45766C25.5172 0.843972 22.2863 -0.00272178 19 6.57299e-06C13.9633 0.00803046 9.13528 2.00853 5.57383 5.56312C2.01238 9.1177 0.00803928 13.9364 0 18.9634C0.00803928 23.9903 2.01238 28.8091 5.57383 32.3637C9.13528 35.9183 13.9633 37.9187 19 37.9268C22.2863 37.9295 25.5172 37.0828 28.3782 35.4691C28.4653 35.4204 28.5415 35.3548 28.6026 35.2761C28.6637 35.1974 28.7083 35.1073 28.7338 35.0111C28.7593 34.9148 28.7653 34.8145 28.7512 34.716C28.7371 34.6175 28.7034 34.5228 28.6519 34.4375L27.1319 31.7675Z" fill="#3758F9"/>
<path opacity="0.56" d="M21.14 21.206H16.3369C16.2006 21.1963 16.0687 21.154 15.9523 21.0827C15.8358 21.0114 15.7384 20.9132 15.668 20.7964L24.4993 36.4071C24.5669 36.524 24.6645 36.6207 24.7821 36.6874C24.8996 36.7541 25.0328 36.7882 25.168 36.7863C25.2536 36.8007 25.341 36.8007 25.4265 36.7863C26.4308 36.4255 27.4022 35.9788 28.3298 35.4513C28.4167 35.4026 28.4928 35.337 28.5539 35.2583C28.615 35.1797 28.6595 35.0895 28.6851 34.9932C28.7105 34.8971 28.7165 34.7967 28.7025 34.6982C28.6884 34.5997 28.6547 34.5049 28.6032 34.4197L21.14 21.206Z" fill="#3758F9"/>
</svg>
