<svg width="120" height="30" viewBox="0 0 120 30" fill="none" xmlns="http://www.w3.org/2000/svg">
<g clip-path="url(#clip0_11781_11482)">
<path opacity="0.72" d="M29.9524 13.7663C29.9377 13.6169 29.8684 13.4782 29.7578 13.3766C29.6471 13.2749 29.5028 13.2175 29.3524 13.2153H14.4005C13.9944 13.2252 13.598 13.3409 13.2507 13.5511C12.9034 13.7612 12.6171 14.0584 12.4205 14.413C12.2384 14.7302 12.1426 15.0894 12.1426 15.455C12.1426 15.8205 12.2384 16.1798 12.4205 16.497C12.4724 16.5967 12.5495 16.6812 12.6443 16.7421C12.739 16.803 12.8479 16.8383 12.9604 16.8443H29.3885C29.5388 16.8421 29.6831 16.7847 29.7938 16.6831C29.9045 16.5814 29.9737 16.4427 29.9885 16.2934C29.9885 15.8263 29.9885 15.4311 29.9885 15.0957C29.9885 14.7603 29.9884 14.2214 29.9524 13.7663Z" fill="#3758F9"/>
<path d="M29.9401 13.7663C29.9282 13.6179 29.8615 13.4793 29.7527 13.3775C29.644 13.2756 29.5012 13.2178 29.3521 13.2153H26.9521C26.8679 13.2162 26.7848 13.2349 26.7083 13.27C26.6318 13.305 26.5637 13.3558 26.5081 13.4189C26.4522 13.4796 26.4103 13.5518 26.3854 13.6305C26.3605 13.7092 26.3533 13.7922 26.3642 13.8741C26.3642 14.2573 26.3642 14.6406 26.3642 15.0717C26.3611 16.9829 25.8758 18.8625 24.953 20.537C24.0302 22.2116 22.6996 23.6272 21.0841 24.6533C20.9161 24.761 20.7267 24.8669 20.5046 24.985C19.5319 25.5021 18.8486 25.7668 17.8145 26.0438L19.305 28.8632C19.3584 28.9554 19.4355 29.0318 19.5283 29.0845C19.6211 29.1371 19.6868 29.164 19.7936 29.1626C19.857 29.1741 19.924 29.1741 19.9875 29.1626L20.409 29.0069L20.7662 28.8632C21.297 28.6431 21.8419 28.3978 22.3421 28.1153C24.6817 26.7998 26.6278 24.9183 27.9741 22.5994C29.3205 20.2805 30.0201 17.644 30.0002 14.964C30.0002 14.5208 29.9761 14.1735 29.9401 13.7663Z" fill="#3758F9"/>
<path d="M21.4463 25.1343C21.3657 24.9977 21.2375 24.8953 21.0863 24.8468H20.9182C20.8141 24.8477 20.7115 24.8722 20.6182 24.9187C18.9071 25.8905 16.9711 26.3984 15.0023 26.3919C11.9808 26.3855 9.08489 25.1847 6.94834 23.0523C4.8118 20.9198 3.60868 18.0295 3.60235 15.0138C3.60868 11.9981 4.8118 9.10773 6.94834 6.97532C9.08489 4.84289 11.9808 3.64211 15.0023 3.63577C16.9702 3.6364 18.9044 4.1438 20.6182 5.10892C20.7079 5.16568 20.8122 5.19484 20.9182 5.19276H21.0502C21.1325 5.17464 21.2102 5.13976 21.2783 5.09029C21.3465 5.04083 21.4037 4.97786 21.4463 4.90532L22.6463 2.82135C22.7257 2.68274 22.7475 2.51865 22.7071 2.3642C22.6668 2.20975 22.5673 2.07721 22.4302 1.99494C20.1715 0.720981 17.6208 0.0525387 15.0264 0.0546927C11.05 0.0610273 7.23843 1.64037 4.42676 4.44662C1.61509 7.25287 0.032714 11.0571 0.0263672 15.0258C0.032714 18.9944 1.61509 22.7987 4.42676 25.605C7.23843 28.4112 11.05 29.9905 15.0264 29.9969C17.6208 29.999 20.1715 29.3306 22.4302 28.0566C22.4989 28.0182 22.5592 27.9664 22.6074 27.9042C22.6556 27.8421 22.6908 27.771 22.711 27.695C22.7311 27.619 22.7358 27.5398 22.7247 27.4621C22.7136 27.3843 22.687 27.3095 22.6463 27.2422L21.4463 25.1343Z" fill="#3758F9"/>
<path opacity="0.56" d="M16.7165 16.7963H12.9246C12.817 16.7886 12.7128 16.7553 12.621 16.699C12.529 16.6427 12.4521 16.5651 12.3965 16.4729L19.3686 28.7971C19.422 28.8894 19.499 28.9658 19.5918 29.0185C19.6846 29.0711 19.7898 29.098 19.8965 29.0965C19.9641 29.1079 20.0331 29.1079 20.1006 29.0965C20.8935 28.8116 21.6603 28.459 22.3926 28.0426C22.4613 28.0041 22.5213 27.9523 22.5696 27.8902C22.6178 27.8281 22.653 27.7569 22.6731 27.6809C22.6932 27.605 22.698 27.5258 22.6869 27.448C22.6758 27.3702 22.6491 27.2954 22.6085 27.2281L16.7165 16.7963Z" fill="#3758F9"/>
<path d="M46.8918 10.2515V22.9403H44.6562V10.2515H41.25V8.1543H50.2884V10.2515H46.8918Z" fill="#3758F9"/>
<path d="M57.935 13.6128H60.1035V22.9402H57.935V21.9635C57.0459 22.7934 56.0896 23.2084 55.0662 23.2084C53.7741 23.2084 52.7058 22.7423 51.8615 21.8102C51.0235 20.859 50.6045 19.6715 50.6045 18.2478C50.6045 16.8496 51.0235 15.6845 51.8615 14.7524C52.6994 13.8203 53.7484 13.3542 55.0086 13.3542C56.096 13.3542 57.0714 13.8011 57.935 14.695V13.6128ZM52.8114 18.2478C52.8114 19.1416 53.0512 19.8694 53.531 20.4312C54.0235 20.9994 54.644 21.2835 55.3923 21.2835C56.1919 21.2835 56.838 21.009 57.3306 20.4599C57.8231 19.8918 58.0693 19.1703 58.0693 18.2957C58.0693 17.421 57.8231 16.6996 57.3306 16.1314C56.838 15.576 56.1984 15.2982 55.4115 15.2982C54.6696 15.2982 54.0491 15.5792 53.5502 16.141C53.0576 16.7092 52.8114 17.4114 52.8114 18.2478Z" fill="#3758F9"/>
<path d="M64.988 13.6129V22.9404H62.8292V13.6129H64.988ZM62.5029 9.73452C62.5029 9.35784 62.6405 9.03222 62.9155 8.75773C63.1905 8.48316 63.52 8.34595 63.9038 8.34595C64.2939 8.34595 64.6266 8.48316 64.9017 8.75773C65.1767 9.02586 65.3142 9.35462 65.3142 9.7441C65.3142 10.1335 65.1767 10.4655 64.9017 10.74C64.633 11.0145 64.3035 11.1518 63.9134 11.1518C63.5232 11.1518 63.1905 11.0145 62.9155 10.74C62.6405 10.4655 62.5029 10.1304 62.5029 9.73452Z" fill="#3758F9"/>
<path d="M69.8815 6.76587V22.9404H67.7227V6.76587H69.8815Z" fill="#3758F9"/>
<path d="M80.6464 15.2411H86.7679V15.7294C86.7679 16.8403 86.6366 17.8235 86.3741 18.6789C86.1184 19.4706 85.6864 20.2112 85.0789 20.9006C83.7041 22.4457 81.9544 23.2182 79.8304 23.2182C77.7581 23.2182 75.9829 22.4712 74.5055 20.9773C73.0279 19.477 72.2891 17.6766 72.2891 15.5762C72.2891 13.4311 73.0407 11.6115 74.5439 10.1176C76.0474 8.61731 77.8766 7.86719 80.0321 7.86719C81.1901 7.86719 82.2709 8.10343 83.2751 8.57584C84.2344 9.04826 85.1779 9.8144 86.1056 10.8742L84.5126 12.3968C83.2976 10.7816 81.8171 9.97399 80.0704 9.97399C78.5036 9.97399 77.1889 10.5135 76.1269 11.5924C75.0649 12.6522 74.5343 13.9801 74.5343 15.5762C74.5343 17.2233 75.1256 18.58 76.3091 19.6461C77.4161 20.6357 78.6154 21.1305 79.9076 21.1305C81.0079 21.1305 81.9956 20.7602 82.8724 20.0197C83.7484 19.2727 84.2381 18.3789 84.3401 17.3383H80.6464V15.2411Z" fill="#3758F9"/>
<path d="M89.1768 13.6128H91.3353V14.4459C91.732 14.031 92.0838 13.7469 92.3913 13.5936C92.7048 13.434 93.0753 13.3542 93.5043 13.3542C94.0735 13.3542 94.6683 13.5394 95.2885 13.9097L94.3 15.8824C93.8913 15.5888 93.4915 15.4419 93.1008 15.4419C91.924 15.4419 91.3353 16.3293 91.3353 18.1041V22.9402H89.1768V13.6128Z" fill="#3758F9"/>
<path d="M98.9916 13.6129V22.9404H96.8331V13.6129H98.9916ZM96.5068 9.73452C96.5068 9.35784 96.6441 9.03222 96.9193 8.75773C97.1946 8.48316 97.5238 8.34595 97.9078 8.34595C98.2978 8.34595 98.6301 8.48316 98.9053 8.75773C99.1806 9.02586 99.3178 9.35462 99.3178 9.7441C99.3178 10.1335 99.1806 10.4655 98.9053 10.74C98.6368 11.0145 98.3076 11.1518 97.9176 11.1518C97.5268 11.1518 97.1946 11.0145 96.9193 10.74C96.6441 10.4655 96.5068 10.1304 96.5068 9.73452Z" fill="#3758F9"/>
<path d="M108.616 6.76587H110.784V22.9404H108.616V21.9636C107.765 22.7936 106.802 23.2086 105.727 23.2086C104.448 23.2086 103.387 22.7425 102.542 21.8104C101.704 20.8592 101.285 19.6716 101.285 18.248C101.285 16.8562 101.704 15.6943 102.542 14.7622C103.374 13.8237 104.419 13.3544 105.679 13.3544C106.774 13.3544 107.752 13.8013 108.616 14.6952V6.76587ZM103.492 18.248C103.492 19.1417 103.732 19.8696 104.212 20.4314C104.704 20.9996 105.325 21.2837 106.073 21.2837C106.873 21.2837 107.518 21.0092 108.011 20.4601C108.504 19.8919 108.75 19.1705 108.75 18.2959C108.75 17.4212 108.504 16.6998 108.011 16.1316C107.518 15.5761 106.879 15.2984 106.092 15.2984C105.35 15.2984 104.73 15.5794 104.23 16.1412C103.738 16.7094 103.492 17.4116 103.492 18.248Z" fill="#3758F9"/>
<path d="M118.94 15.2025L117.155 16.1505C116.874 15.576 116.525 15.2887 116.109 15.2887C115.911 15.2887 115.742 15.3557 115.601 15.4898C115.46 15.6175 115.39 15.7835 115.39 15.9877C115.39 16.3452 115.805 16.6996 116.637 17.0508C117.782 17.5423 118.553 17.9956 118.949 18.4106C119.346 18.8256 119.544 19.3842 119.544 20.0865C119.544 20.9867 119.212 21.74 118.547 22.3465C117.9 22.9211 117.12 23.2084 116.205 23.2084C114.638 23.2084 113.528 22.4454 112.876 20.9196L114.718 20.0673C114.974 20.5142 115.169 20.7983 115.304 20.9196C115.565 21.1622 115.879 21.2835 116.243 21.2835C116.973 21.2835 117.338 20.9516 117.338 20.2876C117.338 19.9045 117.056 19.547 116.493 19.215C116.276 19.1064 116.058 19.0011 115.841 18.899C115.623 18.7968 115.403 18.6915 115.178 18.583C114.552 18.2765 114.11 17.9701 113.855 17.6636C113.528 17.2742 113.366 16.773 113.366 16.1601C113.366 15.3494 113.644 14.679 114.2 14.1491C114.77 13.6192 115.46 13.3542 116.273 13.3542C117.469 13.3542 118.358 13.9703 118.94 15.2025Z" fill="#3758F9"/>
</g>
<defs>
<clipPath id="clip0_11781_11482">
<rect width="120" height="29.9422" fill="white" transform="translate(0 0.0288086)"/>
</clipPath>
</defs>
</svg>
