<svg width="120" height="30" viewBox="0 0 120 30" fill="none" xmlns="http://www.w3.org/2000/svg">
<g clip-path="url(#clip0_11893_3085)">
<path opacity="0.72" d="M29.9519 13.7664C29.9372 13.617 29.8679 13.4783 29.7573 13.3767C29.6466 13.275 29.5023 13.2176 29.3519 13.2155H14.4C13.994 13.2253 13.5976 13.3411 13.2503 13.5512C12.9029 13.7613 12.6167 14.0585 12.42 14.4131C12.2379 14.7303 12.1421 15.0895 12.1421 15.4551C12.1421 15.8206 12.2379 16.1799 12.42 16.4971C12.472 16.5968 12.5491 16.6813 12.6438 16.7423C12.7385 16.8031 12.8474 16.8384 12.9599 16.8444H29.388C29.5384 16.8422 29.6827 16.7848 29.7933 16.6832C29.904 16.5816 29.9732 16.4428 29.988 16.2935C29.988 15.8264 29.988 15.4312 29.988 15.0958C29.988 14.7605 29.9879 14.2215 29.9519 13.7664Z" fill="#3758F9"/>
<path d="M29.9399 13.7664C29.928 13.618 29.8613 13.4795 29.7525 13.3776C29.6438 13.2757 29.501 13.2179 29.3519 13.2155H26.9519C26.8677 13.2164 26.7846 13.235 26.7081 13.2701C26.6316 13.3051 26.5634 13.3559 26.5079 13.4191C26.452 13.4798 26.4101 13.5519 26.3852 13.6306C26.3603 13.7093 26.3531 13.7924 26.3639 13.8742C26.3639 14.2574 26.3639 14.6407 26.3639 15.0719C26.3609 16.983 25.8756 18.8626 24.9528 20.5371C24.03 22.2117 22.6994 23.6273 21.0839 24.6534C20.9159 24.7612 20.7265 24.867 20.5044 24.9851C19.5317 25.5022 18.8484 25.7669 17.8142 26.0439L19.3048 28.8633C19.3582 28.9555 19.4353 29.032 19.5281 29.0846C19.6209 29.1372 19.6866 29.1642 19.7934 29.1627C19.8568 29.1742 19.9237 29.1742 19.9873 29.1627L20.4087 29.007L20.766 28.8633C21.2968 28.6432 21.8416 28.3979 22.3419 28.1154C24.6815 26.7999 26.6276 24.9184 27.9739 22.5995C29.3203 20.2806 30.0199 17.6441 29.9999 14.9641C29.9999 14.5209 29.9759 14.1736 29.9399 13.7664Z" fill="#3758F9"/>
<path d="M21.446 25.1345C21.3654 24.9979 21.2372 24.8956 21.086 24.8471H20.9179C20.8138 24.8479 20.7112 24.8725 20.6179 24.9189C18.9068 25.8907 16.9708 26.3986 15.002 26.3921C11.9805 26.3857 9.08458 25.185 6.94803 23.0526C4.81149 20.9201 3.60838 18.0298 3.60204 15.0141C3.60838 11.9984 4.81149 9.10798 6.94803 6.97556C9.08458 4.84313 11.9805 3.64235 15.002 3.63602C16.9699 3.63665 18.9041 4.14405 20.6179 5.10917C20.7076 5.16592 20.8119 5.19509 20.9179 5.19301H21.0499C21.1322 5.17488 21.2099 5.14 21.278 5.09054C21.3462 5.04108 21.4034 4.9781 21.446 4.90557L22.646 2.82159C22.7254 2.68299 22.7472 2.5189 22.7068 2.36445C22.6665 2.20999 22.567 2.07745 22.4299 1.99519C20.1712 0.721225 17.6205 0.0527829 15.0261 0.0549368C11.0497 0.0612715 7.23812 1.64061 4.42646 4.44687C1.61478 7.25312 0.0324088 11.0574 0.026062 15.026C0.0324088 18.9947 1.61478 22.799 4.42646 25.6052C7.23812 28.4115 11.0497 29.9908 15.0261 29.9971C17.6205 29.9992 20.1712 29.3309 22.4299 28.0569C22.4986 28.0184 22.5589 27.9666 22.6071 27.9045C22.6553 27.8424 22.6905 27.7712 22.7107 27.6953C22.7308 27.6193 22.7355 27.5401 22.7244 27.4623C22.7133 27.3845 22.6867 27.3098 22.646 27.2425L21.446 25.1345Z" fill="#3758F9"/>
<path opacity="0.56" d="M16.7159 16.7965H12.9239C12.8164 16.7889 12.7122 16.7555 12.6203 16.6992C12.5284 16.6429 12.4514 16.5654 12.3959 16.4731L19.3679 28.7974C19.4213 28.8897 19.4984 28.966 19.5912 29.0187C19.684 29.0713 19.7891 29.0983 19.8959 29.0968C19.9634 29.1082 20.0324 29.1082 20.0999 29.0968C20.8928 28.8119 21.6597 28.4592 22.392 28.0428C22.4606 28.0043 22.5207 27.9525 22.5689 27.8904C22.6172 27.8284 22.6523 27.7572 22.6725 27.6812C22.6926 27.6053 22.6973 27.526 22.6862 27.4482C22.6751 27.3705 22.6485 27.2957 22.6079 27.2284L16.7159 16.7965Z" fill="#3758F9"/>
<path d="M46.8918 10.2518V22.9405H44.6562V10.2518H41.25V8.15454H50.2884V10.2518H46.8918Z" fill="#3758F9"/>
<path d="M57.9355 13.613H60.1039V22.9405H57.9355V21.9637C57.0463 22.7936 56.0901 23.2086 55.0666 23.2086C53.7745 23.2086 52.7063 22.7426 51.862 21.8105C51.024 20.8592 50.6049 19.6717 50.6049 18.248C50.6049 16.8499 51.024 15.6847 51.862 14.7526C52.6999 13.8205 53.7489 13.3545 55.009 13.3545C56.0965 13.3545 57.0719 13.8014 57.9355 14.6952V13.613ZM52.8118 18.248C52.8118 19.1418 53.0517 19.8696 53.5315 20.4315C54.024 20.9996 54.6445 21.2838 55.3928 21.2838C56.1924 21.2838 56.8384 21.0092 57.331 20.4602C57.8236 19.892 58.0698 19.1705 58.0698 18.2959C58.0698 17.4212 57.8236 16.6999 57.331 16.1316C56.8384 15.5762 56.1988 15.2985 55.412 15.2985C54.67 15.2985 54.0496 15.5794 53.5507 16.1412C53.0581 16.7094 52.8118 17.4117 52.8118 18.248Z" fill="#3758F9"/>
<path d="M64.9878 13.613V22.9405H62.829V13.613H64.9878ZM62.5027 9.73464C62.5027 9.35797 62.6403 9.03234 62.9153 8.75785C63.1903 8.48328 63.5198 8.34607 63.9036 8.34607C64.2937 8.34607 64.6264 8.48328 64.9015 8.75785C65.1765 9.02598 65.314 9.35475 65.314 9.74422C65.314 10.1336 65.1765 10.4656 64.9015 10.7402C64.6328 11.0147 64.3033 11.1519 63.9132 11.1519C63.523 11.1519 63.1903 11.0147 62.9153 10.7402C62.6403 10.4656 62.5027 10.1305 62.5027 9.73464Z" fill="#3758F9"/>
<path d="M69.8812 6.76587V22.9404H67.7224V6.76587H69.8812Z" fill="#3758F9"/>
<path d="M80.6467 15.2411H86.7682V15.7294C86.7682 16.8403 86.637 17.8235 86.3745 18.6789C86.1187 19.4706 85.6868 20.2112 85.0793 20.9006C83.7045 22.4457 81.9548 23.2182 79.8308 23.2182C77.7585 23.2182 75.9833 22.4712 74.5059 20.9773C73.0283 19.477 72.2894 17.6766 72.2894 15.5762C72.2894 13.4311 73.0411 11.6115 74.5442 10.1176C76.0478 8.61731 77.877 7.86719 80.0325 7.86719C81.1905 7.86719 82.2712 8.10343 83.2755 8.57584C84.2347 9.04826 85.1782 9.8144 86.106 10.8742L84.513 12.3968C83.298 10.7816 81.8175 9.97399 80.0708 9.97399C78.504 9.97399 77.1892 10.5135 76.1272 11.5924C75.0652 12.6522 74.5346 13.9801 74.5346 15.5762C74.5346 17.2233 75.126 18.58 76.3095 19.6461C77.4165 20.6357 78.6157 21.1305 79.908 21.1305C81.0082 21.1305 81.996 20.7602 82.8728 20.0197C83.7488 19.2727 84.2385 18.3789 84.3405 17.3383H80.6467V15.2411Z" fill="#3758F9"/>
<path d="M89.1766 13.613H91.3351V14.4462C91.7318 14.0313 92.0836 13.7471 92.3911 13.5939C92.7046 13.4343 93.0751 13.3545 93.5041 13.3545C94.0733 13.3545 94.6681 13.5396 95.2884 13.9099L94.2999 15.8827C93.8911 15.589 93.4914 15.4421 93.1006 15.4421C91.9238 15.4421 91.3351 16.3295 91.3351 18.1044V22.9405H89.1766V13.613Z" fill="#3758F9"/>
<path d="M98.9918 13.613V22.9405H96.8333V13.613H98.9918ZM96.507 9.73464C96.507 9.35797 96.6443 9.03234 96.9195 8.75785C97.1948 8.48328 97.524 8.34607 97.908 8.34607C98.298 8.34607 98.6303 8.48328 98.9055 8.75785C99.1808 9.02598 99.318 9.35475 99.318 9.74422C99.318 10.1336 99.1808 10.4656 98.9055 10.7402C98.637 11.0147 98.3078 11.1519 97.9178 11.1519C97.527 11.1519 97.1948 11.0147 96.9195 10.7402C96.6443 10.4656 96.507 10.1305 96.507 9.73464Z" fill="#3758F9"/>
<path d="M108.616 6.76587H110.784V22.9404H108.616V21.9636C107.765 22.7936 106.802 23.2086 105.727 23.2086C104.448 23.2086 103.387 22.7425 102.542 21.8104C101.704 20.8592 101.285 19.6716 101.285 18.248C101.285 16.8562 101.704 15.6943 102.542 14.7622C103.374 13.8237 104.419 13.3544 105.679 13.3544C106.774 13.3544 107.752 13.8013 108.616 14.6952V6.76587ZM103.492 18.248C103.492 19.1417 103.732 19.8696 104.212 20.4314C104.704 20.9996 105.325 21.2837 106.073 21.2837C106.873 21.2837 107.518 21.0092 108.011 20.4601C108.504 19.8919 108.75 19.1705 108.75 18.2959C108.75 17.4212 108.504 16.6998 108.011 16.1316C107.518 15.5761 106.879 15.2984 106.092 15.2984C105.35 15.2984 104.73 15.5794 104.23 16.1412C103.738 16.7094 103.492 17.4116 103.492 18.248Z" fill="#3758F9"/>
<path d="M118.939 15.2027L117.155 16.1508C116.874 15.5762 116.525 15.2889 116.109 15.2889C115.911 15.2889 115.741 15.356 115.6 15.49C115.46 15.6177 115.39 15.7837 115.39 15.988C115.39 16.3455 115.805 16.6999 116.637 17.051C117.782 17.5426 118.552 17.9958 118.949 18.4108C119.346 18.8258 119.544 19.3844 119.544 20.0867C119.544 20.9869 119.212 21.7403 118.546 22.3467C117.9 22.9213 117.12 23.2086 116.205 23.2086C114.638 23.2086 113.528 22.4457 112.876 20.9198L114.718 20.0675C114.974 20.5144 115.169 20.7986 115.303 20.9198C115.565 21.1624 115.879 21.2838 116.243 21.2838C116.973 21.2838 117.337 20.9518 117.337 20.2878C117.337 19.9047 117.056 19.5472 116.493 19.2152C116.275 19.1067 116.058 19.0014 115.84 18.8993C115.623 18.7971 115.402 18.6918 115.178 18.5832C114.552 18.2768 114.11 17.9703 113.854 17.6638C113.528 17.2744 113.365 16.7733 113.365 16.1604C113.365 15.3496 113.644 14.6792 114.2 14.1493C114.769 13.6195 115.46 13.3545 116.272 13.3545C117.469 13.3545 118.357 13.9706 118.939 15.2027Z" fill="#3758F9"/>
</g>
<defs>
<clipPath id="clip0_11893_3085">
<rect width="120" height="29.9422" fill="white" transform="translate(1.14441e-05 0.0289307)"/>
</clipPath>
</defs>
</svg>
