<svg
    xmlns="http://www.w3.org/2000/svg"
    width="16"
    height="16"
    viewBox="0 0 16 16"
    fill="none"
    >
    <path
        fill-rule="evenodd"
        clip-rule="evenodd"
        d="M2.5179 8C2.5179 4.97228 4.97235 2.51783 8.00007 2.51783C11.0278 2.51783 13.4822 4.97228 13.4822 8C13.4822 11.0277 11.0278 13.4822 8.00007 13.4822C4.97235 13.4822 2.5179 11.0277 2.5179 8ZM8.00007 1.21783C4.25438 1.21783 1.2179 4.25431 1.2179 8C1.2179 11.7457 4.25438 14.7822 8.00007 14.7822C11.7458 14.7822 14.7822 11.7457 14.7822 8C14.7822 4.25431 11.7458 1.21783 8.00007 1.21783ZM10.4485 7.19495C10.7023 6.94111 10.7023 6.52955 10.4485 6.27571C10.1946 6.02187 9.78305 6.02187 9.52921 6.27571L7.4595 8.34543L6.47083 7.35675C6.21699 7.10291 5.80543 7.10291 5.55159 7.35675C5.29775 7.61059 5.29775 8.02215 5.55159 8.27599L6.99988 9.72429C7.12178 9.84618 7.28711 9.91467 7.4595 9.91467C7.63189 9.91467 7.79722 9.84618 7.91912 9.72429L10.4485 7.19495Z"
        fill="currentColor"
    />
</svg>