    <svg
      xmlns="http://www.w3.org/2000/svg"
      width="20"
      height="20"
      viewBox="0 0 20 20"
      fill="none"
    >
      <path
        fill-rule="evenodd"
        clip-rule="evenodd"
        d="M5.09467 6.15614C4.80178 5.86325 4.80178 5.38838 5.09467 5.09548C5.38756 4.80259 5.86244 4.80259 6.15533 5.09548L9.99919 8.93934L13.8429 5.09559C14.1358 4.8027 14.6107 4.8027 14.9036 5.09559C15.1965 5.38849 15.1965 5.86336 14.9036 6.15625L11.0598 10L14.9036 13.8437C15.1965 14.1366 15.1965 14.6115 14.9036 14.9044C14.6107 15.1973 14.1358 15.1973 13.8429 14.9044L9.99919 11.0607L6.15533 14.9045C5.86244 15.1974 5.38756 15.1974 5.09467 14.9045C4.80178 14.6116 4.80178 14.1367 5.09467 13.8439L8.93853 10L5.09467 6.15614Z"
        fill="currentColor"
      />
    </svg>