<svg
            xmlns="http://www.w3.org/2000/svg"
            width="25"
            height="24"
            viewBox="0 0 25 24"
            fill="none"
          >
            <path
              fill-rule="evenodd"
              clip-rule="evenodd"
              d="M12.5 22.5C18.299 22.5 23 17.799 23 12C23 6.20101 18.299 1.5 12.5 1.5C6.70101 1.5 2 6.20101 2 12C2 17.1752 5.74405 21.4759 10.6712 22.3413V15.2112H8V12.2476H10.6712V9.98883C10.6712 7.4197 12.2411 6 14.6452 6C15.7959 6 17 6.20024 17 6.20024V8.7233H15.6726C14.3657 8.7233 13.9589 9.51428 13.9589 10.3252V12.2476H16.8767L16.4103 15.2112H13.9589V22.3759C13.4525 22.4534 12.9351 22.4952 12.4084 22.4996C12.4389 22.4999 12.4694 22.5 12.5 22.5Z"
              fill="#0866FF"
            />
          </svg>