<svg width="39" height="38" viewBox="0 0 39 38" fill="none" xmlns="http://www.w3.org/2000/svg">
<path opacity="0.72" d="M38.44 17.4374C38.4213 17.2481 38.3336 17.0724 38.1934 16.9437C38.0532 16.815 37.8704 16.7423 37.68 16.7395H18.7408C18.2265 16.752 17.7244 16.8986 17.2845 17.1648C16.8445 17.4309 16.4819 17.8073 16.2328 18.2566C16.0022 18.6583 15.8809 19.1133 15.8809 19.5764C15.8809 20.0394 16.0022 20.4944 16.2328 20.8963C16.2987 21.0226 16.3963 21.1296 16.5163 21.2068C16.6363 21.2839 16.7742 21.3285 16.9167 21.3362H37.7257C37.9161 21.3334 38.0989 21.2607 38.239 21.132C38.3793 21.0032 38.4669 20.8275 38.4857 20.6384C38.4857 20.0467 38.4857 19.5461 38.4857 19.1213C38.4857 18.6965 38.4856 18.0138 38.44 17.4374Z" fill="#3758F9"/>
<path d="M38.4236 17.4374C38.4086 17.2494 38.324 17.0739 38.1863 16.9449C38.0486 16.8158 37.8676 16.7426 37.6788 16.7395H34.6388C34.5322 16.7406 34.4269 16.7642 34.33 16.8087C34.2331 16.8531 34.1468 16.9174 34.0764 16.9974C34.0056 17.0743 33.9525 17.1657 33.921 17.2654C33.8894 17.365 33.8803 17.4703 33.8941 17.5739C33.8941 18.0594 33.8941 18.5448 33.8941 19.091C33.8902 21.5117 33.2755 23.8926 32.1066 26.0136C30.9378 28.1348 29.2523 29.9279 27.206 31.2275C26.9932 31.3641 26.7534 31.4981 26.4719 31.6477C25.2399 32.3027 24.3744 32.638 23.0645 32.9889L24.9525 36.5601C25.0201 36.6769 25.1177 36.7738 25.2353 36.8404C25.3529 36.9071 25.4361 36.9412 25.5713 36.9394C25.6517 36.9539 25.7365 36.9539 25.817 36.9394L26.3508 36.7422L26.8033 36.5601C27.4757 36.2814 28.1658 35.9706 28.7995 35.6127C31.763 33.9465 34.228 31.5633 35.9333 28.6259C37.6388 25.6887 38.5249 22.3492 38.4997 18.9544C38.4997 18.3931 38.4692 17.9532 38.4236 17.4374Z" fill="#3758F9"/>
<path d="M27.6651 31.8371C27.563 31.664 27.4007 31.5344 27.2091 31.473H26.9962C26.8643 31.474 26.7343 31.5051 26.6162 31.564C24.4488 32.7949 21.9965 33.4382 19.5027 33.43C15.6755 33.4219 12.0073 31.901 9.30103 29.1999C6.59475 26.4988 5.0708 22.8377 5.06278 19.0178C5.0708 15.1979 6.59475 11.5368 9.30103 8.83571C12.0073 6.13463 15.6755 4.61365 19.5027 4.60562C21.9953 4.60642 24.4454 5.24913 26.6162 6.47161C26.7298 6.5435 26.8619 6.58044 26.9962 6.57781H27.1634C27.2677 6.55485 27.3661 6.51067 27.4523 6.44801C27.5387 6.38537 27.6112 6.3056 27.6651 6.21372L29.1851 3.57402C29.2856 3.39845 29.3133 3.1906 29.2622 2.99497C29.2111 2.79932 29.0851 2.63144 28.9114 2.52724C26.0504 0.913552 22.8195 0.0668583 19.5332 0.0695867C14.4965 0.0776105 9.66848 2.07811 6.10703 5.6327C2.54558 9.18728 0.541242 14.006 0.533203 19.033C0.541242 24.0599 2.54558 28.8787 6.10703 32.4333C9.66848 35.9879 14.4965 37.9883 19.5332 37.9964C22.8195 37.999 26.0504 37.1524 28.9114 35.5387C28.9985 35.49 29.0747 35.4244 29.1358 35.3457C29.1969 35.267 29.2415 35.1769 29.267 35.0807C29.2925 34.9844 29.2985 34.8841 29.2844 34.7856C29.2703 34.6871 29.2366 34.5924 29.1851 34.5071L27.6651 31.8371Z" fill="#3758F9"/>
<path opacity="0.56" d="M21.6732 21.2756H16.8701C16.7338 21.2659 16.6019 21.2236 16.4855 21.1523C16.369 21.081 16.2716 20.9828 16.2012 20.866L25.0325 36.4766C25.1001 36.5936 25.1977 36.6903 25.3153 36.757C25.4328 36.8237 25.566 36.8578 25.7012 36.8559C25.7868 36.8703 25.8742 36.8703 25.9597 36.8559C26.964 36.495 27.9354 36.0484 28.863 35.5209C28.9499 35.4722 29.026 35.4065 29.0871 35.3278C29.1482 35.2492 29.1927 35.1591 29.2183 35.0628C29.2437 34.9667 29.2497 34.8663 29.2357 34.7678C29.2216 34.6692 29.1879 34.5745 29.1364 34.4893L21.6732 21.2756Z" fill="#3758F9"/>
</svg>
