<svg width="32" height="32" viewBox="0 0 32 32" fill="none" xmlns="http://www.w3.org/2000/svg">
<path opacity="0.72" d="M31.9488 14.6843C31.9331 14.525 31.8592 14.377 31.7412 14.2687C31.6231 14.1602 31.4692 14.099 31.3088 14.0967H15.3601C14.9269 14.1072 14.5041 14.2307 14.1337 14.4548C13.7632 14.6789 13.4578 14.9959 13.2481 15.3742C13.0538 15.7125 12.9517 16.0957 12.9517 16.4857C12.9517 16.8756 13.0538 17.2587 13.2481 17.5971C13.3035 17.7035 13.3857 17.7936 13.4868 17.8586C13.5878 17.9235 13.704 17.9611 13.824 17.9676H31.3473C31.5077 17.9652 31.6616 17.904 31.7796 17.7956C31.8977 17.6872 31.9715 17.5392 31.9873 17.3799C31.9873 16.8817 31.9873 16.4601 31.9873 16.1024C31.9873 15.7447 31.9872 15.1698 31.9488 14.6843Z" fill="#3758F9"/>
<path d="M31.936 14.6843C31.9233 14.5261 31.8521 14.3783 31.7361 14.2696C31.6202 14.161 31.4678 14.0993 31.3088 14.0967H28.7488C28.659 14.0976 28.5704 14.1175 28.4888 14.155C28.4072 14.1923 28.3344 14.2465 28.2752 14.3139C28.2156 14.3786 28.1708 14.4556 28.1443 14.5395C28.1177 14.6234 28.11 14.7121 28.1216 14.7993C28.1216 15.2081 28.1216 15.6169 28.1216 16.0769C28.1184 18.1154 27.6008 20.1203 26.6164 21.9065C25.6321 23.6927 24.2128 25.2027 22.4896 26.2971C22.3104 26.4121 22.1084 26.525 21.8714 26.651C20.8339 27.2025 20.1051 27.4849 19.002 27.7804L20.5919 30.7877C20.6488 30.8861 20.731 30.9676 20.8301 31.0238C20.929 31.0799 20.9992 31.1086 21.113 31.1071C21.1807 31.1193 21.2521 31.1193 21.3198 31.1071L21.7694 30.941L22.1505 30.7877C22.7167 30.553 23.2978 30.2913 23.8314 29.9899C26.327 28.5868 28.4028 26.5799 29.8389 24.1063C31.2751 21.6329 32.0213 18.8206 32 15.9619C32 15.4892 31.9743 15.1187 31.936 14.6843Z" fill="#3758F9"/>
<path d="M22.8758 26.8102C22.7898 26.6644 22.6531 26.5553 22.4918 26.5036H22.3125C22.2014 26.5044 22.0919 26.5306 21.9925 26.5802C20.1673 27.6168 18.1022 28.1585 16.0022 28.1516C12.7792 28.1448 9.69026 26.864 7.41126 24.5894C5.13229 22.3148 3.84897 19.2318 3.84221 16.015C3.84897 12.7983 5.13229 9.71517 7.41126 7.4406C9.69026 5.16601 12.7792 3.88517 16.0022 3.87842C18.1012 3.87909 20.1644 4.42032 21.9925 5.44978C22.0881 5.51032 22.1994 5.54143 22.3125 5.53921H22.4533C22.5411 5.51988 22.6239 5.48267 22.6966 5.4299C22.7693 5.37715 22.8303 5.30998 22.8758 5.23261L24.1558 3.0097C24.2404 2.86185 24.2637 2.68682 24.2206 2.52208C24.1776 2.35733 24.0715 2.21595 23.9253 2.1282C21.516 0.769307 18.7952 0.0563017 16.0279 0.0585993C11.7864 0.0653562 7.7207 1.74999 4.72158 4.74333C1.72247 7.73666 0.0346019 11.7945 0.027832 16.0278C0.0346019 20.261 1.72247 24.3189 4.72158 27.3122C7.7207 30.3056 11.7864 31.9902 16.0279 31.997C18.7952 31.9992 21.516 31.2862 23.9253 29.9273C23.9986 29.8863 24.0628 29.8311 24.1143 29.7648C24.1657 29.6985 24.2032 29.6227 24.2247 29.5416C24.2462 29.4606 24.2512 29.3761 24.2394 29.2931C24.2275 29.2102 24.1991 29.1304 24.1558 29.0586L22.8758 26.8102Z" fill="#3758F9"/>
<path opacity="0.56" d="M17.8302 17.9162H13.7854C13.6707 17.9081 13.5596 17.8725 13.4616 17.8124C13.3635 17.7524 13.2814 17.6697 13.2222 17.5713L20.6591 30.7171C20.716 30.8156 20.7982 30.897 20.8972 30.9532C20.9962 31.0094 21.1083 31.0381 21.2222 31.0365C21.2943 31.0486 21.3679 31.0486 21.4399 31.0365C22.2856 30.7326 23.1036 30.3565 23.8847 29.9123C23.9579 29.8712 24.022 29.816 24.0735 29.7497C24.1249 29.6835 24.1624 29.6076 24.1839 29.5265C24.2054 29.4456 24.2104 29.361 24.1986 29.2781C24.1867 29.1951 24.1583 29.1153 24.115 29.0435L17.8302 17.9162Z" fill="#3758F9"/>
</svg>
