<svg width="144" height="36" viewBox="0 0 144 36" fill="none" xmlns="http://www.w3.org/2000/svg">
<g clip-path="url(#clip0_10960_113293)">
<path opacity="0.72" d="M35.9421 16.5195C35.9245 16.3402 35.8413 16.1738 35.7085 16.0519C35.5757 15.9299 35.4025 15.861 35.2221 15.8584H17.2798C16.7925 15.8703 16.3169 16.0091 15.9001 16.2613C15.4833 16.5134 15.1397 16.87 14.9038 17.2956C14.6852 17.6762 14.5703 18.1073 14.5703 18.546C14.5703 18.9846 14.6852 19.4157 14.9038 19.7964C14.9661 19.916 15.0587 20.0175 15.1723 20.0906C15.286 20.1636 15.4167 20.2059 15.5517 20.2132H35.2654C35.4458 20.2105 35.619 20.1416 35.7517 20.0197C35.8846 19.8977 35.9677 19.7313 35.9854 19.5521C35.9854 18.9915 35.9854 18.5173 35.9854 18.1148C35.9854 17.7124 35.9853 17.0657 35.9421 16.5195Z" fill="#3758F9"/>
<path d="M35.9277 16.5195C35.9135 16.3415 35.8334 16.1752 35.7029 16.053C35.5725 15.9307 35.401 15.8614 35.2221 15.8584H32.3421C32.2411 15.8595 32.1414 15.8818 32.0496 15.924C31.9578 15.966 31.876 16.0269 31.8093 16.1027C31.7423 16.1756 31.6919 16.2622 31.6621 16.3566C31.6322 16.451 31.6235 16.5507 31.6366 16.6489C31.6366 17.1088 31.6366 17.5687 31.6366 18.0861C31.6329 20.3795 31.0506 22.635 29.9432 24.6444C28.8359 26.6539 27.2391 28.3527 25.3005 29.5839C25.0989 29.7133 24.8717 29.8402 24.6051 29.982C23.4379 30.6025 22.618 30.9201 21.377 31.2526L23.1657 34.6358C23.2296 34.7465 23.3222 34.8382 23.4336 34.9014C23.5449 34.9645 23.6238 34.9968 23.7519 34.9951C23.828 35.0089 23.9084 35.0089 23.9846 34.9951L24.4904 34.8083L24.919 34.6358C25.5561 34.3717 26.2098 34.0773 26.8101 33.7383C29.6177 32.1598 31.9529 29.902 33.5685 27.1192C35.1842 24.3366 36.0237 21.1728 35.9998 17.9567C35.9998 17.425 35.9709 17.0082 35.9277 16.5195Z" fill="#3758F9"/>
<path d="M25.7352 30.1614C25.6384 29.9975 25.4846 29.8747 25.3032 29.8165H25.1015C24.9765 29.8175 24.8534 29.847 24.7415 29.9027C22.6881 31.0689 20.3649 31.6783 18.0024 31.6705C14.3766 31.6629 10.9015 30.222 8.33761 27.6631C5.77376 25.1041 4.33003 21.6357 4.32242 18.0169C4.33003 14.398 5.77376 10.9296 8.33761 8.37067C10.9015 5.81176 14.3766 4.37082 18.0024 4.36322C20.3638 4.36398 22.6849 4.97286 24.7415 6.131C24.849 6.19911 24.9742 6.2341 25.1015 6.23161H25.2599C25.3586 6.20986 25.4519 6.168 25.5336 6.10864C25.6154 6.04929 25.6841 5.97372 25.7352 5.88668L27.1752 3.38591C27.2704 3.21959 27.2966 3.02268 27.2482 2.83734C27.1998 2.65199 27.0804 2.49294 26.9159 2.39422C24.2055 0.86547 21.1446 0.0633394 18.0313 0.0659242C13.2597 0.0735258 8.68572 1.96873 5.31172 5.33624C1.93771 8.70374 0.0388662 13.2688 0.03125 18.0313C0.0388662 22.7936 1.93771 27.3588 5.31172 30.7263C8.68572 34.0938 13.2597 35.9889 18.0313 35.9966C21.1446 35.9991 24.2055 35.197 26.9159 33.6683C26.9983 33.6221 27.0706 33.5599 27.1285 33.4854C27.1863 33.4108 27.2286 33.3255 27.2528 33.2343C27.2769 33.1431 27.2826 33.0481 27.2692 32.9548C27.2559 32.8614 27.224 32.7717 27.1752 32.691L25.7352 30.1614Z" fill="#3758F9"/>
<path opacity="0.56" d="M20.059 20.1556H15.5087C15.3796 20.1465 15.2546 20.1064 15.1444 20.0389C15.034 19.9713 14.9417 19.8782 14.875 19.7676L23.2415 34.5566C23.3056 34.6674 23.398 34.759 23.5094 34.8223C23.6208 34.8854 23.7469 34.9177 23.875 34.9159C23.9561 34.9296 24.0389 34.9296 24.1199 34.9159C25.0714 34.5741 25.9916 34.1509 26.8704 33.6512C26.9527 33.605 27.0248 33.5429 27.0827 33.4683C27.1406 33.3938 27.1828 33.3084 27.207 33.2172C27.2311 33.1261 27.2368 33.031 27.2235 32.9377C27.2101 32.8444 27.1782 32.7546 27.1294 32.6739L20.059 20.1556Z" fill="#3758F9"/>
<path d="M56.2702 12.3018V27.5283H53.5874V12.3018H49.5V9.78516H60.3461V12.3018H56.2702Z" fill="#3758F9"/>
<path d="M69.5227 16.3357H72.1249V27.5286H69.5227V26.3564C68.4557 27.3523 67.3082 27.8503 66.0801 27.8503C64.5296 27.8503 63.2477 27.2911 62.2345 26.1726C61.2289 25.031 60.7261 23.606 60.7261 21.8976C60.7261 20.2198 61.2289 18.8217 62.2345 17.7032C63.24 16.5847 64.4988 16.0254 66.011 16.0254C67.3159 16.0254 68.4864 16.5617 69.5227 17.6343V16.3357ZM63.3743 21.8976C63.3743 22.9702 63.6621 23.8435 64.2379 24.5178C64.8289 25.1996 65.5735 25.5405 66.4715 25.5405C67.431 25.5405 68.2062 25.2111 68.7974 24.5522C69.3884 23.8704 69.6839 23.0046 69.6839 21.9551C69.6839 20.9055 69.3884 20.0398 68.7974 19.358C68.2062 18.6914 67.4387 18.3582 66.4945 18.3582C65.6042 18.3582 64.8596 18.6953 64.2609 19.3695C63.6698 20.0513 63.3743 20.894 63.3743 21.8976Z" fill="#3758F9"/>
<path d="M77.9855 16.3355V27.5284H75.3949V16.3355H77.9855ZM75.0034 11.6814C75.0034 11.2294 75.1685 10.8387 75.4985 10.5093C75.8285 10.1798 76.2239 10.0151 76.6844 10.0151C77.1526 10.0151 77.5518 10.1798 77.8819 10.5093C78.2119 10.831 78.377 11.2255 78.377 11.6929C78.377 12.1602 78.2119 12.5586 77.8819 12.8881C77.5595 13.2175 77.1641 13.3822 76.696 13.3822C76.2277 13.3822 75.8285 13.2175 75.4985 12.8881C75.1685 12.5586 75.0034 12.1564 75.0034 11.6814Z" fill="#3758F9"/>
<path d="M83.8572 8.11914V27.5286H81.2666V8.11914H83.8572Z" fill="#3758F9"/>
<path d="M96.7759 18.2891H104.122V18.8751C104.122 20.2081 103.964 21.388 103.649 22.4145C103.342 23.3645 102.824 24.2532 102.095 25.0806C100.445 26.9346 98.3455 27.8616 95.7967 27.8616C93.31 27.8616 91.1797 26.9652 89.4068 25.1726C87.6337 23.3722 86.7471 21.2118 86.7471 18.6912C86.7471 16.1171 87.6491 13.9336 89.4528 12.141C91.2571 10.3406 93.4522 9.44043 96.0388 9.44043C97.4284 9.44043 98.7252 9.72392 99.9303 10.2908C101.081 10.8577 102.214 11.7771 103.327 13.0489L101.415 14.876C99.9573 12.9377 98.1808 11.9686 96.0847 11.9686C94.2046 11.9686 92.6269 12.616 91.3525 13.9107C90.0781 15.1824 89.4413 16.7759 89.4413 18.6912C89.4413 20.6678 90.151 22.2958 91.5712 23.5752C92.8996 24.7627 94.3387 25.3564 95.8894 25.3564C97.2097 25.3564 98.395 24.9121 99.4471 24.0234C100.498 23.127 101.086 22.0545 101.208 20.8057H96.7759V18.2891Z" fill="#3758F9"/>
<path d="M107.012 16.3357H109.602V17.3354C110.078 16.8375 110.5 16.4965 110.869 16.3127C111.245 16.1211 111.69 16.0254 112.205 16.0254C112.888 16.0254 113.602 16.2475 114.346 16.6919L113.16 19.0592C112.669 18.7068 112.189 18.5306 111.721 18.5306C110.308 18.5306 109.602 19.5954 109.602 21.7252V27.5286H107.012V16.3357Z" fill="#3758F9"/>
<path d="M118.79 16.3355V27.5284H116.2V16.3355H118.79ZM115.809 11.6814C115.809 11.2294 115.973 10.8387 116.304 10.5093C116.634 10.1798 117.029 10.0151 117.49 10.0151C117.958 10.0151 118.356 10.1798 118.687 10.5093C119.017 10.831 119.182 11.2255 119.182 11.6929C119.182 12.1602 119.017 12.5586 118.687 12.8881C118.365 13.2175 117.97 13.3822 117.502 13.3822C117.033 13.3822 116.634 13.2175 116.304 12.8881C115.973 12.5586 115.809 12.1564 115.809 11.6814Z" fill="#3758F9"/>
<path d="M130.339 8.11914H132.94V27.5286H130.339V26.3565C129.318 27.3524 128.162 27.8504 126.873 27.8504C125.337 27.8504 124.064 27.2911 123.05 26.1726C122.045 25.0311 121.542 23.6061 121.542 21.8977C121.542 20.2275 122.045 18.8332 123.05 17.7147C124.049 16.5885 125.303 16.0254 126.815 16.0254C128.128 16.0254 129.303 16.5617 130.339 17.6343V8.11914ZM124.19 21.8977C124.19 22.9702 124.478 23.8436 125.054 24.5178C125.645 25.1996 126.389 25.5406 127.288 25.5406C128.247 25.5406 129.022 25.2111 129.613 24.5522C130.204 23.8704 130.5 23.0047 130.5 21.9551C130.5 20.9055 130.204 20.0399 129.613 19.358C129.022 18.6915 128.254 18.3582 127.31 18.3582C126.42 18.3582 125.676 18.6953 125.076 19.3695C124.486 20.0514 124.19 20.894 124.19 21.8977Z" fill="#3758F9"/>
<path d="M142.727 18.2433L140.586 19.381C140.249 18.6914 139.83 18.3467 139.331 18.3467C139.093 18.3467 138.89 18.4272 138.72 18.5881C138.552 18.7413 138.467 18.9404 138.467 19.1856C138.467 19.6146 138.966 20.0398 139.964 20.4612C141.338 21.0511 142.263 21.595 142.739 22.093C143.215 22.591 143.453 23.2613 143.453 24.104C143.453 25.1843 143.054 26.0883 142.256 26.8161C141.48 27.5056 140.544 27.8503 139.446 27.8503C137.566 27.8503 136.234 26.9348 135.451 25.1038L137.661 24.081C137.969 24.6173 138.203 24.9583 138.364 25.1038C138.678 25.3949 139.054 25.5405 139.492 25.5405C140.367 25.5405 140.805 25.1422 140.805 24.3454C140.805 23.8857 140.467 23.4567 139.791 23.0583C139.53 22.928 139.269 22.8016 139.008 22.6791C138.747 22.5565 138.483 22.4301 138.214 22.2999C137.462 21.9321 136.932 21.5644 136.625 21.1966C136.234 20.7293 136.038 20.128 136.038 19.3925C136.038 18.4195 136.372 17.6151 137.04 16.9792C137.723 16.3434 138.552 16.0254 139.527 16.0254C140.962 16.0254 142.029 16.7647 142.727 18.2433Z" fill="#3758F9"/>
</g>
<defs>
<clipPath id="clip0_10960_113293">
<rect width="144" height="35.9306" fill="white" transform="translate(0 0.034668)"/>
</clipPath>
</defs>
</svg>
