<svg width="192" height="48" viewBox="0 0 192 48" fill="none" xmlns="http://www.w3.org/2000/svg">
<g clip-path="url(#clip0_12136_30590)">
<mask id="mask0_12136_30590" style="mask-type:luminance" maskUnits="userSpaceOnUse" x="0" y="0" width="49" height="48">
<path d="M48.183 0H0V48H48.183V0Z" fill="white"/>
</mask>
<g mask="url(#mask0_12136_30590)">
<path opacity="0.72" d="M48.1068 22.0224C48.0831 21.783 47.9719 21.5605 47.7942 21.3976C47.6164 21.2347 47.3846 21.1428 47.1431 21.1392H23.1287C22.4767 21.155 21.8401 21.3405 21.2822 21.6774C20.7243 22.0142 20.2646 22.4906 19.9486 23.0592C19.6562 23.5676 19.5023 24.1435 19.5023 24.7296C19.5023 25.3156 19.6562 25.8914 19.9486 26.4C20.0322 26.5598 20.1561 26.6953 20.3082 26.793C20.4603 26.8906 20.6352 26.947 20.8159 26.9568H47.201C47.4426 26.9532 47.6743 26.8611 47.852 26.6983C48.0297 26.5353 48.1411 26.313 48.1647 26.0736C48.1647 25.3248 48.1647 24.6912 48.1647 24.1536C48.1647 23.616 48.1646 22.752 48.1068 22.0224Z" fill="#3758F9"/>
<path d="M48.0864 22.0224C48.0674 21.7845 47.9601 21.5624 47.7856 21.3991C47.611 21.2359 47.3816 21.1431 47.142 21.1392H43.2874C43.1523 21.1407 43.0188 21.1705 42.896 21.2268C42.7731 21.283 42.6635 21.3644 42.5744 21.4656C42.4845 21.5629 42.4172 21.6787 42.3772 21.8047C42.3372 21.9308 42.3256 22.0641 42.3431 22.1952C42.3431 22.8096 42.3431 23.424 42.3431 24.1152C42.3382 27.1789 41.5588 30.1921 40.0767 32.8766C38.5947 35.561 36.4575 37.8304 33.8628 39.4752C33.593 39.648 33.3426 39.8592 33.0534 40.0128C31.6392 40.8151 30.1218 41.4223 28.5434 41.8176L31.0683 46.2912C31.154 46.4391 31.2778 46.5615 31.4268 46.6459C31.5759 46.7302 31.7447 46.7736 31.9162 46.7712C32.0182 46.7895 32.1227 46.7895 32.2246 46.7712L32.8413 46.5216L33.4002 46.2912C34.2528 45.9384 35.0831 45.5344 35.8866 45.0816C39.6443 42.9728 42.7666 39.9001 44.9289 36.1827C47.0913 32.4652 48.215 28.2387 48.1829 23.9424C48.1829 23.232 48.1443 22.6752 48.0864 22.0224Z" fill="#3758F9"/>
<path d="M34.4448 40.2463C34.3153 40.0273 34.1094 39.8633 33.8665 39.7855H33.5966C33.4294 39.7868 33.2646 39.8263 33.1148 39.9007C30.3666 41.4585 27.257 42.2727 24.0951 42.2623C19.2422 42.2522 14.591 40.3271 11.1596 36.9087C7.72807 33.4903 5.79575 28.8567 5.78556 24.0223C5.79575 19.1878 7.72807 14.5544 11.1596 11.1359C14.591 7.71742 19.2422 5.79246 24.0951 5.7823C27.2556 5.78331 30.3623 6.59672 33.1148 8.1439C33.2587 8.23488 33.4262 8.28163 33.5966 8.27829H33.8087C33.9408 8.24924 34.0655 8.19332 34.1749 8.11404C34.2844 8.03474 34.3764 7.93378 34.4448 7.8175L36.3721 4.47671C36.4995 4.25451 36.5346 3.99146 36.4698 3.74386C36.4049 3.49626 36.2453 3.28378 36.0251 3.1519C32.3974 1.10963 28.3007 0.0380592 24.1337 0.0415122C17.7474 0.0516672 11.6255 2.58349 7.10965 7.08217C2.59384 11.5808 0.0523842 17.6794 0.0421906 24.0415C0.0523842 30.4036 2.59384 36.5021 7.10965 41.0008C11.6255 45.4995 17.7474 48.0314 24.1337 48.0415C28.3007 48.0449 32.3974 46.9733 36.0251 44.9311C36.1353 44.8695 36.2321 44.7863 36.3096 44.6869C36.387 44.5873 36.4435 44.4731 36.4759 44.3515C36.5082 44.2297 36.5159 44.1027 36.498 43.978C36.4801 43.8532 36.4373 43.7335 36.3721 43.6255L34.4448 40.2463Z" fill="#3758F9"/>
<path opacity="0.56" d="M26.8473 26.8797H20.7571C20.5845 26.8674 20.4171 26.8138 20.2695 26.7236C20.1219 26.6334 19.9983 26.5092 19.909 26.3613L31.1069 46.1181C31.1926 46.266 31.3163 46.3885 31.4654 46.4728C31.6145 46.5572 31.7834 46.6004 31.9547 46.5981C32.0632 46.6164 32.1741 46.6164 32.2825 46.5981C33.556 46.1413 34.7877 45.576 35.9638 44.9084C36.074 44.8468 36.1706 44.7637 36.248 44.6642C36.3253 44.5646 36.3819 44.4505 36.4143 44.3288C36.4467 44.207 36.4542 44.08 36.4363 43.9554C36.4186 43.8307 36.3757 43.7108 36.3105 43.6028L26.8473 26.8797Z" fill="#3758F9"/>
</g>
<path d="M75.3133 16.3879V36.7291H71.7226V16.3879H66.252V13.0259H80.7685V16.3879H75.3133Z" fill="#1F2937"/>
<path d="M93.0503 21.7763H96.5329V36.729H93.0503V35.1631C91.6222 36.4936 90.0863 37.1589 88.4425 37.1589C86.3672 37.1589 84.6516 36.4117 83.2955 34.9175C81.9497 33.3925 81.2767 31.4889 81.2767 29.2066C81.2767 26.9652 81.9497 25.0974 83.2955 23.6032C84.6413 22.1089 86.3262 21.3618 88.3501 21.3618C90.0966 21.3618 91.6633 22.0782 93.0503 23.5111V21.7763ZM84.8212 29.2066C84.8212 30.6394 85.2064 31.8061 85.9769 32.7069C86.7679 33.6177 87.7645 34.0732 88.9664 34.0732C90.2507 34.0732 91.2883 33.633 92.0794 32.7528C92.8704 31.842 93.266 30.6855 93.266 29.2834C93.266 27.8812 92.8704 26.7247 92.0794 25.8138C91.2883 24.9234 90.261 24.4782 88.9973 24.4782C87.8056 24.4782 86.8091 24.9286 86.0077 25.8292C85.2167 26.7401 84.8212 27.8658 84.8212 29.2066Z" fill="#1F2937"/>
<path d="M104.376 21.7764V36.7292H100.909V21.7764H104.376ZM100.385 15.559C100.385 14.9552 100.606 14.4332 101.048 13.9931C101.49 13.553 102.019 13.333 102.635 13.333C103.262 13.333 103.796 13.553 104.238 13.9931C104.68 14.423 104.9 14.95 104.9 15.5744C104.9 16.1986 104.68 16.7308 104.238 17.171C103.806 17.611 103.277 17.8311 102.651 17.8311C102.024 17.8311 101.49 17.611 101.048 17.171C100.606 16.7308 100.385 16.1936 100.385 15.559Z" fill="#1F2937"/>
<path d="M112.236 10.7998V36.729H108.769V10.7998H112.236Z" fill="#1F2937"/>
<path d="M129.526 24.3864H139.358V25.1693C139.358 26.9501 139.147 28.5263 138.725 29.8976C138.315 31.1667 137.621 32.3539 136.646 33.4592C134.437 35.936 131.627 37.1744 128.216 37.1744C124.887 37.1744 122.037 35.977 119.663 33.5821C117.29 31.177 116.104 28.2908 116.104 24.9236C116.104 21.4849 117.311 18.568 119.725 16.1731C122.139 13.7679 125.078 12.5654 128.54 12.5654C130.399 12.5654 132.135 12.9441 133.748 13.7015C135.29 14.4588 136.804 15.687 138.295 17.386L135.736 19.8269C133.784 17.2375 131.405 15.9428 128.601 15.9428C126.085 15.9428 123.973 16.8077 122.267 18.5373C120.562 20.2362 119.71 22.365 119.71 24.9236C119.71 27.5641 120.659 29.739 122.56 31.4482C124.337 33.0346 126.265 33.8278 128.339 33.8278C130.106 33.8278 131.693 33.2341 133.101 32.047C134.509 30.8495 135.295 29.4167 135.459 27.7484H129.526V24.3864Z" fill="#1F2937"/>
<path d="M143.226 21.7763H146.694V23.1119C147.33 22.4467 147.895 21.9912 148.388 21.7456C148.892 21.4897 149.488 21.3618 150.176 21.3618C151.091 21.3618 152.046 21.6586 153.043 22.2522L151.456 25.4147C150.798 24.9439 150.156 24.7085 149.53 24.7085C147.638 24.7085 146.694 26.1311 146.694 28.9763V36.729H143.226V21.7763Z" fill="#1F2937"/>
<path d="M158.992 21.7764V36.7292H155.524V21.7764H158.992ZM154.999 15.559C154.999 14.9552 155.221 14.4332 155.663 13.9931C156.104 13.553 156.634 13.333 157.249 13.333C157.877 13.333 158.411 13.553 158.852 13.9931C159.294 14.423 159.515 14.95 159.515 15.5744C159.515 16.1986 159.294 16.7308 158.852 17.171C158.42 17.611 157.891 17.8311 157.265 17.8311C156.638 17.8311 156.104 17.611 155.663 17.171C155.221 16.7308 154.999 16.1936 154.999 15.559Z" fill="#1F2937"/>
<path d="M174.448 10.7998H177.93V36.729H174.448V35.1632C173.081 36.4936 171.535 37.1589 169.81 37.1589C167.754 37.1589 166.049 36.4118 164.693 34.9175C163.348 33.3926 162.674 31.4889 162.674 29.2066C162.674 26.9754 163.348 25.1128 164.693 23.6186C166.028 22.1141 167.708 21.3618 169.732 21.3618C171.488 21.3618 173.06 22.0782 174.448 23.5112V10.7998ZM166.218 29.2066C166.218 30.6394 166.603 31.8062 167.375 32.7069C168.166 33.6177 169.162 34.0732 170.364 34.0732C171.648 34.0732 172.686 33.633 173.477 32.7528C174.268 31.842 174.664 30.6855 174.664 29.2834C174.664 27.8812 174.268 26.7248 173.477 25.8138C172.686 24.9234 171.659 24.4782 170.395 24.4782C169.202 24.4782 168.206 24.9286 167.405 25.8292C166.614 26.7401 166.218 27.8658 166.218 29.2066Z" fill="#1F2937"/>
<path d="M191.029 24.3247L188.162 25.8445C187.711 24.9234 187.151 24.4629 186.484 24.4629C186.164 24.4629 185.892 24.5704 185.666 24.7853C185.441 24.99 185.327 25.2561 185.327 25.5835C185.327 26.1567 185.995 26.7247 187.331 27.2877C189.169 28.0757 190.408 28.8023 191.045 29.4676C191.682 30.1329 192 31.0283 192 32.1541C192 33.5973 191.466 34.8049 190.397 35.7772C189.36 36.6983 188.106 37.1589 186.637 37.1589C184.121 37.1589 182.338 35.9358 181.29 33.4897L184.249 32.1234C184.66 32.8398 184.973 33.2953 185.189 33.4897C185.61 33.8787 186.113 34.0732 186.698 34.0732C187.87 34.0732 188.455 33.541 188.455 32.4766C188.455 31.8624 188.004 31.2893 187.099 30.7571C186.75 30.5831 186.401 30.4143 186.052 30.2506C185.702 30.0868 185.348 29.9179 184.988 29.7439C183.982 29.2527 183.272 28.7614 182.862 28.2701C182.338 27.6459 182.076 26.8425 182.076 25.8599C182.076 24.5602 182.522 23.4855 183.416 22.636C184.331 21.7866 185.441 21.3618 186.745 21.3618C188.666 21.3618 190.094 22.3494 191.029 24.3247Z" fill="#1F2937"/>
</g>
<defs>
<clipPath id="clip0_12136_30590">
<rect width="192" height="48" fill="white"/>
</clipPath>
</defs>
</svg>
