<svg width="65" height="18" viewBox="0 0 65 18" fill="none" xmlns="http://www.w3.org/2000/svg">
<g clip-path="url(#clip0_11377_17451)">
<path d="M64.5354 15.6594C64.5354 14.659 63.826 13.9264 62.8488 13.9264C61.8731 13.9264 61.1629 14.659 61.1629 15.6594C61.1629 16.6581 61.8731 17.3894 62.8488 17.3894C63.826 17.3894 64.5354 16.6569 64.5354 15.6594ZM62.4056 15.7482V16.8801H62.0399V14.3842H62.9486C63.481 14.3842 63.7254 14.6168 63.7254 15.0701C63.7254 15.3493 63.5366 15.5705 63.2935 15.6025V15.6131C63.5046 15.6468 63.5821 15.8351 63.6255 16.1796C63.6588 16.4029 63.703 16.79 63.7826 16.8809H63.35C63.2493 16.6464 63.2595 16.3144 63.1819 16.0364C63.1178 15.8249 63.005 15.7478 62.7627 15.7478H62.4076V15.7491L62.4056 15.7482ZM62.8589 15.4256C63.214 15.4256 63.3155 15.2365 63.3155 15.0697C63.3155 14.8724 63.214 14.7166 62.8589 14.7166H62.4056V15.4264H62.8589V15.4256ZM60.7607 15.6594C60.7607 14.4268 61.7392 13.5937 62.8471 13.5937C63.9583 13.5937 64.9355 14.4268 64.9355 15.6594C64.9355 16.8895 63.9587 17.7235 62.8471 17.7235C61.7392 17.7235 60.7607 16.8895 60.7607 15.6594Z" fill="#FF5A00"/>
<path d="M53.5298 17.3635L51.1244 14.6659L48.7401 17.3635H43.7231L48.6264 11.8547L43.7231 6.34421H48.8967L51.3265 9.0211L53.6645 6.34421H58.6571L53.7781 11.8315L58.7249 17.3635H53.5298ZM34.0894 17.3635V0.00463867H43.7231V3.87388H38.17V6.34421H43.7231V10.0673H38.17V13.4845H43.7231V17.3635H34.0894Z" fill="#FF5A00"/>
<path d="M30.0238 0.00463867V7.10881H29.9788C29.079 6.07474 27.9544 5.71435 26.6505 5.71435C23.9785 5.71435 21.9655 7.5321 21.2589 9.93343C20.453 7.28697 18.3747 5.66484 15.2936 5.66484C12.7908 5.66484 10.8151 6.78779 9.7831 8.61811V6.34381H4.61071V3.87429H10.2559V0.00545145H0V17.3635H4.61071V10.0674H9.20641C9.06485 10.6284 8.99408 11.205 8.99578 11.7836C8.99578 15.4029 11.7616 17.9463 15.2927 17.9463C18.261 17.9463 20.2188 16.5514 21.2533 14.0121H17.3016C16.7676 14.7763 16.3617 15.0019 15.2931 15.0019C14.0545 15.0019 12.9856 13.9208 12.9856 12.6408H21.0317C21.3807 15.5161 23.6209 17.9954 26.6955 17.9954C28.0218 17.9954 29.2361 17.3432 29.9783 16.2414H30.023V17.3659H34.0883V0.00545145H30.0238V0.00463867ZM13.1138 10.1193C13.3707 9.01624 14.2258 8.29548 15.2931 8.29548C16.4684 8.29548 17.2801 8.99392 17.4932 10.1193H13.1138ZM27.5567 14.7219C26.0588 14.7219 25.1278 13.3262 25.1278 11.8685C25.1278 10.31 25.9378 8.81292 27.5567 8.81292C29.2365 8.81292 29.9057 10.3109 29.9057 11.8685C29.9057 13.3449 29.1971 14.7219 27.5567 14.7219Z" fill="#29007C"/>
</g>
<defs>
<clipPath id="clip0_11377_17451">
<rect width="64.9351" height="18" fill="white"/>
</clipPath>
</defs>
</svg>
