<svg width="160" height="48" viewBox="0 0 160 48" fill="none" xmlns="http://www.w3.org/2000/svg">
<path d="M0 8C0 3.58172 3.58172 0 8 0H152C156.418 0 160 3.58172 160 8V40C160 44.4183 156.418 48 152 48H8C3.58172 48 0 44.4183 0 40V8Z" fill="black"/>
<path d="M81.2298 25.2228C78.9825 25.2228 77.1509 26.9322 77.1509 29.2865C77.1509 31.6264 78.9825 33.3501 81.2298 33.3501C83.478 33.3501 85.3097 31.6264 85.3097 29.2865C85.3087 26.9322 83.4771 25.2228 81.2298 25.2228ZM81.2298 31.7506C79.9982 31.7506 78.9366 30.735 78.9366 29.2874C78.9366 27.8246 79.9991 26.8242 81.2298 26.8242C82.4614 26.8242 83.5229 27.8246 83.5229 29.2874C83.5229 30.734 82.4614 31.7506 81.2298 31.7506ZM72.3305 25.2228C70.0832 25.2228 68.2516 26.9322 68.2516 29.2865C68.2516 31.6264 70.0832 33.3501 72.3305 33.3501C74.5787 33.3501 76.4104 31.6264 76.4104 29.2865C76.4104 26.9322 74.5787 25.2228 72.3305 25.2228ZM72.3305 31.7506C71.0989 31.7506 70.0374 30.735 70.0374 29.2874C70.0374 27.8246 71.0998 26.8242 72.3305 26.8242C73.5621 26.8242 74.6236 27.8246 74.6236 29.2874C74.6246 30.734 73.5621 31.7506 72.3305 31.7506ZM61.7458 26.4707V28.1944H65.8715C65.7482 29.1642 65.4253 29.8722 64.9323 30.3642C64.3322 30.9643 63.393 31.6264 61.7458 31.6264C59.2061 31.6264 57.2206 29.5788 57.2206 27.0392C57.2206 24.4995 59.2061 22.452 61.7458 22.452C63.1159 22.452 64.1163 22.9908 64.8549 23.6836L66.0712 22.4672C65.0393 21.4822 63.6701 20.7283 61.7458 20.7283C58.2669 20.7283 55.3422 23.5603 55.3422 27.0392C55.3422 30.5181 58.2669 33.3501 61.7458 33.3501C63.6233 33.3501 65.0402 32.7338 66.1476 31.5796C67.2866 30.4407 67.641 28.8393 67.641 27.5465C67.641 27.1472 67.6105 26.7774 67.5484 26.4697L61.7458 26.4707ZM105.036 27.8093C104.698 26.9016 103.666 25.2228 101.557 25.2228C99.464 25.2228 97.7241 26.8701 97.7241 29.2865C97.7241 31.5643 99.4487 33.3501 101.757 33.3501C103.619 33.3501 104.697 32.2112 105.144 31.549L103.759 30.6251C103.297 31.3025 102.666 31.7487 101.757 31.7487C100.849 31.7487 100.203 31.3331 99.787 30.5171L105.221 28.2698L105.036 27.8093ZM99.4946 29.1642C99.4488 27.5934 100.711 26.7936 101.62 26.7936C102.328 26.7936 102.928 27.1481 103.128 27.6555L99.4946 29.1642ZM95.0775 33.1045H96.8623V21.1602H95.0775V33.1045ZM92.1518 26.1315H92.0906C91.6903 25.6538 90.9202 25.2228 89.9513 25.2228C87.919 25.2228 86.0568 27.0086 86.0568 29.3027C86.0568 31.5806 87.919 33.351 89.9513 33.351C90.9211 33.351 91.6903 32.9201 92.0906 32.4281H92.1518V33.0128C92.1518 34.5674 91.3205 35.3986 89.9819 35.3986C88.8888 35.3986 88.2114 34.6142 87.9343 33.952L86.3798 34.5989C86.826 35.6757 88.0108 37 89.9819 37C92.0754 37 93.8458 35.7684 93.8458 32.7663V25.4703H92.1528L92.1518 26.1315ZM90.1052 31.7506C88.8736 31.7506 87.8426 30.7187 87.8426 29.3027C87.8426 27.8705 88.8736 26.8242 90.1052 26.8242C91.3205 26.8242 92.2751 27.8705 92.2751 29.3027C92.2751 30.7187 91.3205 31.7506 90.1052 31.7506ZM113.401 21.1602H109.129V33.1045H110.911V28.5794H113.4C115.376 28.5794 117.319 27.1491 117.319 24.8703C117.319 22.5915 115.376 21.1602 113.401 21.1602ZM113.446 26.9169H110.911V22.8227H113.446C114.779 22.8227 115.536 23.9263 115.536 24.8703C115.536 25.7952 114.779 26.9169 113.446 26.9169ZM124.465 25.2018C123.174 25.2018 121.837 25.7703 121.284 27.0306L122.866 27.6908C123.205 27.0306 123.835 26.8147 124.496 26.8147C125.418 26.8147 126.355 27.3679 126.37 28.3511V28.4743C126.047 28.2899 125.355 28.0138 124.511 28.0138C122.805 28.0138 121.068 28.9511 121.068 30.7025C121.068 32.301 122.467 33.33 124.034 33.33C125.232 33.33 125.893 32.7921 126.308 32.1615H126.369V33.0835H128.091V28.5039C128.092 26.3847 126.508 25.2018 124.465 25.2018ZM124.249 31.7478C123.666 31.7478 122.851 31.4554 122.851 30.7331C122.851 29.811 123.866 29.4575 124.742 29.4575C125.525 29.4575 125.894 29.6266 126.37 29.8569C126.232 30.9643 125.279 31.7478 124.249 31.7478ZM134.361 25.4627L132.317 30.6413H132.256L130.135 25.4627H128.214L131.395 32.7004L129.582 36.7267H131.441L136.343 25.4627H134.361ZM118.303 33.1045H120.085V21.1602H118.303V33.1045Z" fill="white"/>
<path d="M61.4339 14.2275C61.4339 15.0282 61.1969 15.6655 60.722 16.1414C60.1832 16.707 59.4799 16.9898 58.6162 16.9898C57.7887 16.9898 57.0846 16.7032 56.5065 16.1299C55.9275 15.5557 55.638 14.8448 55.638 13.9963C55.638 13.1469 55.9275 12.436 56.5065 11.8627C57.0846 11.2885 57.7887 11.0019 58.6162 11.0019C59.027 11.0019 59.4197 11.0821 59.7924 11.2417C60.166 11.4022 60.465 11.6153 60.6886 11.8819L60.1851 12.3863C59.8057 11.9325 59.2831 11.7061 58.6152 11.7061C58.0114 11.7061 57.4897 11.9182 57.0492 12.3424C56.6087 12.7666 56.389 13.3179 56.389 13.9954C56.389 14.6728 56.6087 15.2241 57.0492 15.6483C57.4897 16.0726 58.0114 16.2847 58.6152 16.2847C59.2554 16.2847 59.7895 16.0716 60.2166 15.6445C60.4937 15.3665 60.6542 14.9795 60.6972 14.4836H58.6152V13.7947H61.3928C61.4214 13.9447 61.4339 14.089 61.4339 14.2275Z" fill="white"/>
<path d="M65.8387 11.8332H63.2283V13.6505H65.5826V14.3394H63.2283V16.1567H65.8387V16.8618H62.4917V11.129H65.8387V11.8332Z" fill="white"/>
<path d="M68.9448 16.8618H68.2082V11.8332H66.6068V11.129H70.5462V11.8332H68.9448V16.8618Z" fill="white"/>
<path d="M73.3963 16.8618V11.129H74.133V16.8618H73.3963Z" fill="white"/>
<path d="M77.3999 16.8618H76.6633V11.8332H75.0619V11.129H79.0013V11.8332H77.3999V16.8618Z" fill="white"/>
<path d="M86.4586 16.1213C85.8948 16.7004 85.1945 16.9899 84.3565 16.9899C83.5186 16.9899 82.8182 16.7004 82.2554 16.1213C81.6917 15.5423 81.4108 14.8334 81.4108 13.9954C81.4108 13.1575 81.6917 12.4485 82.2554 11.8695C82.8182 11.2905 83.5186 11 84.3565 11C85.1897 11 85.8891 11.2914 86.4547 11.8733C87.0204 12.4552 87.3032 13.1622 87.3032 13.9954C87.3032 14.8334 87.0213 15.5423 86.4586 16.1213ZM82.7991 15.6407C83.2233 16.0707 83.7421 16.2847 84.3565 16.2847C84.9709 16.2847 85.4907 16.0697 85.9139 15.6407C86.3382 15.2108 86.5512 14.6623 86.5512 13.9954C86.5512 13.3285 86.3382 12.78 85.9139 12.3501C85.4907 11.9201 84.9709 11.7061 84.3565 11.7061C83.7421 11.7061 83.2233 11.9211 82.7991 12.3501C82.3758 12.78 82.1627 13.3285 82.1627 13.9954C82.1627 14.6623 82.3758 15.2108 82.7991 15.6407Z" fill="white"/>
<path d="M88.337 16.8618V11.129H89.2333L92.0194 15.5882H92.051L92.0194 14.4837V11.129H92.7561V16.8618H91.9869L89.0718 12.1858H89.0403L89.0718 13.2903V16.8618H88.337Z" fill="white"/>
<path d="M24.0986 11.6425C23.8206 11.9368 23.6562 12.3935 23.6562 12.985V34.1162C23.6562 34.7086 23.8206 35.1644 24.0986 35.4587L24.1693 35.5274L36.0067 23.6901V23.4111L24.1693 11.5728L24.0986 11.6425Z" fill="url(#paint0_linear_8795_9371)"/>
<path d="M39.9518 27.6371L36.0067 23.6901V23.4111L39.9528 19.465L40.0417 19.5156L44.7168 22.1718C46.0516 22.9305 46.0516 24.1716 44.7168 24.9312L40.0417 27.5875L39.9518 27.6371Z" fill="url(#paint1_linear_8795_9371)"/>
<path d="M40.0416 27.5858L36.0056 23.5499L24.0986 35.4587C24.5382 35.9249 25.2652 35.9816 26.084 35.5172L40.0416 27.5858Z" fill="url(#paint2_linear_8795_9371)"/>
<path d="M40.0417 19.5156L26.0841 11.5842C25.2653 11.1189 24.5382 11.1763 24.0986 11.6425L36.0067 23.5515L40.0417 19.5156Z" fill="url(#paint3_linear_8795_9371)"/>
<defs>
<linearGradient id="paint0_linear_8795_9371" x1="126.769" y1="12.2901" x2="122.687" y2="46.6121" gradientUnits="userSpaceOnUse">
<stop stop-color="#00A0FF"/>
<stop offset="0.0066" stop-color="#00A1FF"/>
<stop offset="0.2601" stop-color="#00BEFF"/>
<stop offset="0.5122" stop-color="#00D2FF"/>
<stop offset="0.7604" stop-color="#00DFFF"/>
<stop offset="1" stop-color="#00E3FF"/>
</linearGradient>
<linearGradient id="paint1_linear_8795_9371" x1="144.889" y1="23.9985" x2="-123.375" y2="23.9985" gradientUnits="userSpaceOnUse">
<stop stop-color="#FFE000"/>
<stop offset="0.4087" stop-color="#FFBD00"/>
<stop offset="0.7754" stop-color="#FFA500"/>
<stop offset="1" stop-color="#FF9C00"/>
</linearGradient>
<linearGradient id="paint2_linear_8795_9371" x1="120.852" y1="15.6375" x2="95.5706" y2="100.09" gradientUnits="userSpaceOnUse">
<stop stop-color="#FF3A44"/>
<stop offset="1" stop-color="#C31162"/>
</linearGradient>
<linearGradient id="paint3_linear_8795_9371" x1="23.0998" y1="4.60909" x2="32.8096" y2="14.3189" gradientUnits="userSpaceOnUse">
<stop stop-color="#32A071"/>
<stop offset="0.0685" stop-color="#2DA771"/>
<stop offset="0.4762" stop-color="#15CF74"/>
<stop offset="0.8009" stop-color="#06E775"/>
<stop offset="1" stop-color="#00F076"/>
</linearGradient>
</defs>
</svg>
