<svg width="160" height="48" viewBox="0 0 160 48" fill="none" xmlns="http://www.w3.org/2000/svg">
<path d="M0 12C0 8.27247 0 6.4087 0.608964 4.93853C1.42092 2.97831 2.97831 1.42092 4.93853 0.608964C6.4087 0 8.27247 0 12 0H148C151.728 0 153.591 0 155.061 0.608964C157.022 1.42092 158.579 2.97831 159.391 4.93853C160 6.4087 160 8.27247 160 12V36C160 39.7275 160 41.5913 159.391 43.0615C158.579 45.0217 157.022 46.5791 155.061 47.391C153.591 48 151.728 48 148 48H12C8.27247 48 6.4087 48 4.93853 47.391C2.97831 46.5791 1.42092 45.0217 0.608964 43.0615C0 41.5913 0 39.7275 0 36V12Z" fill="black"/>
<path d="M103.576 22.1807V24.5559H102.088V26.1136H103.576V31.4062C103.576 33.2134 104.394 33.9363 106.451 33.9363C106.812 33.9363 107.156 33.8933 107.458 33.8417V32.3012C107.199 32.327 107.036 32.3442 106.752 32.3442C105.831 32.3442 105.427 31.9139 105.427 30.9329V26.1136H107.458V24.5559H105.427V22.1807H103.576Z" fill="white"/>
<path d="M112.697 34.0654C115.434 34.0654 117.112 32.2324 117.112 29.1945C117.112 26.1738 115.425 24.3322 112.697 24.3322C109.961 24.3322 108.274 26.1738 108.274 29.1945C108.274 32.2324 109.952 34.0654 112.697 34.0654ZM112.697 32.4217C111.088 32.4217 110.184 31.2427 110.184 29.1945C110.184 27.1635 111.088 25.9759 112.697 25.9759C114.298 25.9759 115.21 27.1635 115.21 29.1945C115.21 31.2341 114.298 32.4217 112.697 32.4217Z" fill="white"/>
<path d="M118.548 33.8847H120.398V28.3511C120.398 27.0344 121.388 26.148 122.791 26.148C123.118 26.148 123.668 26.2083 123.823 26.2599V24.4354C123.625 24.3838 123.272 24.358 122.997 24.358C121.775 24.358 120.734 25.0293 120.467 25.9501H120.329V24.5129H118.548V33.8847Z" fill="white"/>
<path d="M128.417 25.9071C129.786 25.9071 130.681 26.8623 130.724 28.3339H125.991C126.094 26.8709 127.049 25.9071 128.417 25.9071ZM130.715 31.3546C130.371 32.0861 129.605 32.4905 128.486 32.4905C127.006 32.4905 126.051 31.4492 125.991 29.8055V29.7022H132.608V29.0568C132.608 26.1136 131.034 24.3322 128.426 24.3322C125.784 24.3322 124.106 26.2341 124.106 29.2289C124.106 32.2237 125.75 34.0654 128.435 34.0654C130.577 34.0654 132.075 33.0327 132.497 31.3546H130.715Z" fill="white"/>
<path d="M91.4427 30.4238C91.5854 32.7251 93.5031 34.1969 96.3574 34.1969C99.408 34.1969 101.317 32.6538 101.317 30.1919C101.317 28.2563 100.229 27.186 97.5884 26.5705L96.1701 26.2226C94.4932 25.8302 93.8153 25.3039 93.8153 24.3852C93.8153 23.2256 94.8678 22.4674 96.4466 22.4674C97.9451 22.4674 98.9798 23.2078 99.1671 24.3941H101.112C100.996 22.2266 99.0869 20.7013 96.4734 20.7013C93.6637 20.7013 91.7905 22.2266 91.7905 24.519C91.7905 26.41 92.852 27.5338 95.18 28.0779L96.8391 28.4793C98.5428 28.8807 99.292 29.4694 99.292 30.4506C99.292 31.5923 98.1146 32.4218 96.5091 32.4218C94.7876 32.4218 93.5923 31.6458 93.4228 30.4238H91.4427Z" fill="white"/>
<path d="M72.2759 24.358C71.0022 24.358 69.9007 24.9948 69.3327 26.062H69.195V24.5129H67.4136V37H69.2638V32.4647H69.4101C69.9007 33.4544 70.9592 34.0396 72.2931 34.0396C74.6597 34.0396 76.1657 32.1721 76.1657 29.1945C76.1657 26.2169 74.6597 24.358 72.2759 24.358ZM71.7509 32.3787C70.2019 32.3787 69.2294 31.1566 69.2294 29.2031C69.2294 27.241 70.2019 26.0189 71.7595 26.0189C73.3258 26.0189 74.2638 27.2151 74.2638 29.1945C74.2638 31.1824 73.3258 32.3787 71.7509 32.3787Z" fill="white"/>
<path d="M82.6401 24.358C81.3664 24.358 80.2649 24.9948 79.6969 26.062H79.5592V24.5129H77.7778V37H79.628V32.4647H79.7743C80.2649 33.4544 81.3234 34.0396 82.6573 34.0396C85.0239 34.0396 86.5299 32.1721 86.5299 29.1945C86.5299 26.2169 85.0239 24.358 82.6401 24.358ZM82.1151 32.3787C80.5661 32.3787 79.5936 31.1566 79.5936 29.2031C79.5936 27.241 80.5661 26.0189 82.1237 26.0189C83.69 26.0189 84.628 27.2151 84.628 29.1945C84.628 31.1824 83.69 32.3787 82.1151 32.3787Z" fill="white"/>
<path d="M64.0939 33.8847H66.2168L61.5696 21.0135H59.4199L54.7728 33.8847H56.8243L58.0106 30.4684H62.9165L64.0939 33.8847ZM60.3922 23.3505H60.5438L62.4081 28.7915H58.5191L60.3922 23.3505Z" fill="white"/>
<path d="M56.0161 11.3055V17.5146H58.2579C60.1082 17.5146 61.1796 16.3744 61.1796 14.3907C61.1796 12.4372 60.0995 11.3055 58.2579 11.3055H56.0161ZM56.9799 12.1833H58.1503C59.4369 12.1833 60.1985 13.0009 60.1985 14.4036C60.1985 15.8279 59.4498 16.6368 58.1503 16.6368H56.9799V12.1833Z" fill="white"/>
<path d="M64.461 17.605C65.8293 17.605 66.6684 16.6885 66.6684 15.1695C66.6684 13.6592 65.825 12.7384 64.461 12.7384C63.0927 12.7384 62.2493 13.6592 62.2493 15.1695C62.2493 16.6885 63.0884 17.605 64.461 17.605ZM64.461 16.7831C63.6563 16.7831 63.2045 16.1936 63.2045 15.1695C63.2045 14.154 63.6563 13.5602 64.461 13.5602C65.2613 13.5602 65.7175 14.154 65.7175 15.1695C65.7175 16.1893 65.2613 16.7831 64.461 16.7831Z" fill="white"/>
<path d="M73.8138 12.8287H72.8887L72.0539 16.4045H71.9808L71.0169 12.8287H70.1305L69.1667 16.4045H69.0978L68.2588 12.8287H67.3207L68.6116 17.5146H69.5625L70.5264 14.0637H70.5996L71.5677 17.5146H72.5273L73.8138 12.8287Z" fill="white"/>
<path d="M74.8792 17.5146H75.8044V14.7737C75.8044 14.0422 76.239 13.5861 76.9231 13.5861C77.6073 13.5861 77.9343 13.9604 77.9343 14.7134V17.5146H78.8595V14.4811C78.8595 13.3666 78.2829 12.7384 77.2373 12.7384C76.5316 12.7384 76.0669 13.0525 75.8388 13.5732H75.77V12.8287H74.8792V17.5146Z" fill="white"/>
<path d="M80.3164 17.5146H81.2416V11H80.3164V17.5146Z" fill="white"/>
<path d="M84.7209 17.605C86.0892 17.605 86.9283 16.6885 86.9283 15.1695C86.9283 13.6592 86.0849 12.7384 84.7209 12.7384C83.3526 12.7384 82.5092 13.6592 82.5092 15.1695C82.5092 16.6885 83.3483 17.605 84.7209 17.605ZM84.7209 16.7831C83.9163 16.7831 83.4645 16.1936 83.4645 15.1695C83.4645 14.154 83.9163 13.5602 84.7209 13.5602C85.5213 13.5602 85.9774 14.154 85.9774 15.1695C85.9774 16.1893 85.5213 16.7831 84.7209 16.7831Z" fill="white"/>
<path d="M89.6848 16.8133C89.1813 16.8133 88.8156 16.568 88.8156 16.1463C88.8156 15.7332 89.1082 15.5138 89.7536 15.4707L90.8982 15.3976V15.7892C90.8982 16.3701 90.3818 16.8133 89.6848 16.8133ZM89.4481 17.5921C90.0634 17.5921 90.5755 17.3253 90.8552 16.8563H90.9283V17.5146H91.819V14.3133C91.819 13.3236 91.1564 12.7384 89.9817 12.7384C88.9188 12.7384 88.1615 13.2547 88.0669 14.0594H88.9619C89.0651 13.7281 89.4223 13.5387 89.9386 13.5387C90.5712 13.5387 90.8982 13.8184 90.8982 14.3133V14.7177L89.6288 14.7909C88.5144 14.8597 87.8861 15.346 87.8861 16.1893C87.8861 17.0456 88.5445 17.5921 89.4481 17.5921Z" fill="white"/>
<path d="M94.9584 17.5921C95.6039 17.5921 96.1503 17.2866 96.43 16.7745H96.5032V17.5146H97.3896V11H96.4645V13.5732H96.3956C96.1417 13.0568 95.5996 12.7513 94.9584 12.7513C93.7751 12.7513 93.0135 13.6893 93.0135 15.1695C93.0135 16.654 93.7665 17.5921 94.9584 17.5921ZM95.2209 13.5818C95.9954 13.5818 96.4817 14.1971 96.4817 15.1738C96.4817 16.1549 95.9997 16.7616 95.2209 16.7616C94.4378 16.7616 93.9688 16.1635 93.9688 15.1695C93.9688 14.1842 94.4421 13.5818 95.2209 13.5818Z" fill="white"/>
<path d="M103.389 17.605C104.757 17.605 105.596 16.6885 105.596 15.1695C105.596 13.6592 104.753 12.7384 103.389 12.7384C102.02 12.7384 101.177 13.6592 101.177 15.1695C101.177 16.6885 102.016 17.605 103.389 17.605ZM103.389 16.7831C102.584 16.7831 102.132 16.1936 102.132 15.1695C102.132 14.154 102.584 13.5602 103.389 13.5602C104.189 13.5602 104.645 14.154 104.645 15.1695C104.645 16.1893 104.189 16.7831 103.389 16.7831Z" fill="white"/>
<path d="M106.821 17.5146H107.746V14.7737C107.746 14.0422 108.18 13.5861 108.865 13.5861C109.549 13.5861 109.876 13.9604 109.876 14.7134V17.5146H110.801V14.4811C110.801 13.3666 110.224 12.7384 109.179 12.7384C108.473 12.7384 108.008 13.0525 107.78 13.5732H107.711V12.8287H106.821V17.5146Z" fill="white"/>
<path d="M115.062 11.6627V12.8503H114.317V13.6291H115.062V16.2754C115.062 17.179 115.471 17.5405 116.499 17.5405C116.68 17.5405 116.852 17.5189 117.002 17.4931V16.7229C116.873 16.7358 116.792 16.7444 116.65 16.7444C116.189 16.7444 115.987 16.5293 115.987 16.0387V13.6291H117.002V12.8503H115.987V11.6627H115.062Z" fill="white"/>
<path d="M118.244 17.5146H119.169V14.778C119.169 14.068 119.591 13.5904 120.348 13.5904C121.002 13.5904 121.351 13.969 121.351 14.7177V17.5146H122.276V14.4897C122.276 13.3752 121.661 12.7427 120.662 12.7427C119.957 12.7427 119.462 13.0568 119.234 13.5818H119.161V11H118.244V17.5146Z" fill="white"/>
<path d="M125.613 13.5258C126.298 13.5258 126.745 14.0034 126.767 14.7392H124.4C124.452 14.0077 124.929 13.5258 125.613 13.5258ZM126.762 16.2496C126.59 16.6153 126.207 16.8176 125.648 16.8176C124.908 16.8176 124.43 16.2969 124.4 15.475V15.4234H127.709V15.1007C127.709 13.6291 126.921 12.7384 125.618 12.7384C124.297 12.7384 123.458 13.6893 123.458 15.1868C123.458 16.6842 124.279 17.605 125.622 17.605C126.693 17.605 127.442 17.0886 127.653 16.2496H126.762Z" fill="white"/>
<path d="M42.7337 23.3219C42.7562 21.5791 43.6921 19.93 45.1769 19.0172C44.2402 17.6795 42.6713 16.8313 41.0391 16.7802C39.2981 16.5975 37.6103 17.822 36.7232 17.822C35.8188 17.822 34.4529 16.7984 32.982 16.8286C31.0648 16.8906 29.2775 17.9806 28.3447 19.6567C26.3396 23.1282 27.8353 28.2301 29.756 31.0362C30.7169 32.4103 31.84 33.9452 33.3096 33.8907C34.7476 33.8311 35.2847 32.9737 37.0205 32.9737C38.7402 32.9737 39.2441 33.8907 40.7435 33.8561C42.2866 33.8311 43.2588 32.4759 44.186 31.0889C44.8765 30.1098 45.4078 29.0277 45.7603 27.8827C43.9469 27.1157 42.7359 25.2908 42.7337 23.3219Z" fill="white"/>
<path d="M39.9017 14.9348C40.743 13.9248 41.1575 12.6266 41.0572 11.3159C39.7718 11.4509 38.5844 12.0652 37.7317 13.0365C36.8978 13.9855 36.4639 15.2608 36.5459 16.5214C37.8318 16.5347 39.0959 15.937 39.9017 14.9348Z" fill="white"/>
</svg>
