<svg width="41" height="40" viewBox="0 0 41 40" fill="none" xmlns="http://www.w3.org/2000/svg">
<circle cx="20.8335" cy="20" r="20" fill="#E31937"/>
<path d="M20.834 31.4285L23.7779 14.8726C26.5837 14.8726 27.4688 15.1803 27.5967 16.4362C27.5967 16.4362 29.479 15.7343 30.4283 14.3089C26.7236 12.5922 23.0013 12.5148 23.0013 12.5148L20.8292 15.1604L20.8341 15.16L18.662 12.5144C18.662 12.5144 14.9395 12.5919 11.2354 14.3086C12.1839 15.734 14.0669 16.4358 14.0669 16.4358C14.1955 15.1799 15.0794 14.8722 17.8665 14.8702L20.834 31.4285Z" fill="white"/>
<path d="M20.8331 11.7509C23.8278 11.728 27.2555 12.2141 30.7646 13.7435C31.2336 12.8994 31.3542 12.5263 31.3542 12.5263C27.5182 11.0087 23.926 10.4893 20.8327 10.4763C17.7395 10.4893 14.1474 11.0088 10.312 12.5263C10.312 12.5263 10.4831 12.9859 10.9012 13.7435C14.4095 12.2141 17.838 11.728 20.8328 11.7509H20.8331Z" fill="white"/>
</svg>
