<svg width="208" height="38" viewBox="0 0 208 38" fill="none" xmlns="http://www.w3.org/2000/svg">
<g clip-path="url(#clip0_11228_3163)">
<path d="M38.3824 0V38H15.116V30.2773H31.1934V22.7591H15.116V15.3432H31.1934V7.92732H7.79095V38H0.5V0H38.3824Z" fill="white"/>
<path d="M70.1543 21.2568V17.1664H60.5094V10.0881H71.998V5.89099H55.9707V31.8919H60.5094V21.2568H70.1543Z" fill="white"/>
<path d="M72.5405 23.0707C72.5405 28.5484 76.4764 32.3187 81.9017 32.3187C87.3268 32.3187 91.2628 28.5484 91.2628 23.0707C91.2628 17.5932 87.3268 13.8229 81.9017 13.8229C76.4764 13.8229 72.5405 17.5932 72.5405 23.0707ZM76.8664 23.0707C76.8664 19.8695 78.923 17.6998 81.9017 17.6998C84.8802 17.6998 86.9368 19.8695 86.9368 23.0707C86.9368 26.2719 84.8802 28.4416 81.9017 28.4416C78.923 28.4416 76.8664 26.2719 76.8664 23.0707Z" fill="white"/>
<path d="M105.152 14.2498C104.443 14.0718 103.84 14.0007 103.237 14.0007C100.897 14.0007 99.2302 15.1745 98.4856 16.9174L98.2374 14.3564H94.1597V31.8919H98.4856V23.3554C98.4856 19.9408 100.436 18.2689 103.556 18.2689H105.152V14.2498Z" fill="white"/>
<path d="M111.874 31.8919V21.9325C111.874 19.087 113.541 17.7354 115.598 17.7354C117.654 17.7354 118.966 19.0515 118.966 21.5057V31.8919H123.292V21.9325C123.292 19.0515 124.888 17.6999 126.98 17.6999C129.036 17.6999 130.384 19.0159 130.384 21.5414V31.8919H134.674V20.4032C134.674 16.3483 132.334 13.7872 128.079 13.7872C125.42 13.7872 123.363 15.1034 122.477 17.1308C121.555 15.1034 119.711 13.7872 117.051 13.7872C114.534 13.7872 112.761 14.9255 111.874 16.3839L111.52 14.3209H107.548V31.8919H111.874Z" fill="white"/>
<path d="M139.028 31.8919H149.524C154.878 31.8919 157.962 29.2954 157.962 24.8493C157.962 21.8259 156.58 19.7629 153.849 18.8737C156.295 17.8421 157.573 15.7791 157.573 12.8981C157.573 8.55867 154.453 5.89099 149.347 5.89099H139.028V31.8919ZM148.956 9.91029C151.509 9.91029 152.928 11.1196 152.928 13.3605C152.928 15.6724 151.545 16.9885 149.063 16.9885H143.567V9.91029H148.956ZM149.347 20.83C151.863 20.83 153.318 22.0749 153.318 24.2801C153.318 26.6277 151.9 27.8726 149.347 27.8726H143.567V20.83H149.347Z" fill="white"/>
<path d="M159.925 23.0707C159.925 28.5484 163.862 32.3187 169.286 32.3187C174.712 32.3187 178.649 28.5484 178.649 23.0707C178.649 17.5932 174.712 13.8229 169.286 13.8229C163.862 13.8229 159.925 17.5932 159.925 23.0707ZM164.252 23.0707C164.252 19.8695 166.308 17.6998 169.286 17.6998C172.265 17.6998 174.322 19.8695 174.322 23.0707C174.322 26.2719 172.265 28.4416 169.286 28.4416C166.308 28.4416 164.252 26.2719 164.252 23.0707Z" fill="white"/>
<path d="M185.907 31.8919V5.42859H181.616V31.8919H185.907Z" fill="white"/>
<path d="M197.111 32.3543C199.771 32.3543 202.039 31.1805 203.103 29.1531L203.387 31.8919H207.358V5.42859H203.068V16.5616C201.969 14.8188 199.806 13.7872 197.358 13.7872C192.075 13.7872 188.885 17.6999 188.885 23.1776C188.885 28.6196 192.04 32.3543 197.111 32.3543ZM198.069 28.3705C195.054 28.3705 193.21 26.1653 193.21 23.0352C193.21 19.9051 195.054 17.6643 198.069 17.6643C201.082 17.6643 203.032 19.8695 203.032 23.0352C203.032 26.2009 201.082 28.3705 198.069 28.3705Z" fill="white"/>
</g>
<defs>
<clipPath id="clip0_11228_3163">
<rect width="207" height="38" fill="white" transform="translate(0.5)"/>
</clipPath>
</defs>
</svg>
