<svg width="138" height="38" viewBox="0 0 138 38" fill="none" xmlns="http://www.w3.org/2000/svg">
<g clip-path="url(#clip0_11228_3182)">
<path d="M119.188 21.5592C119.188 21.0177 119.659 20.5703 120.202 20.5703C120.744 20.5703 121.192 21.0177 121.192 21.5592C121.192 22.1007 120.72 22.548 120.202 22.548C119.682 22.548 119.188 22.1007 119.188 21.5592Z" fill="white"/>
<path d="M122.583 19.0399H123.927V19.5343C123.927 20.5231 124.469 21.253 125.601 21.253C126.733 21.253 127.252 20.5467 127.252 19.4873V12.1886H128.619V19.5343C128.619 21.3707 127.393 22.5008 125.577 22.5008C123.644 22.5008 122.56 21.2766 122.56 19.5108V19.0163L122.583 19.0399Z" fill="white"/>
<path d="M133.83 12.0474C135.764 12.0474 137.013 13.1304 137.131 14.8962H135.74C135.669 13.8838 134.962 13.2952 133.807 13.2952C132.533 13.2952 131.708 13.9308 131.708 14.9432C131.708 15.7673 132.179 16.2382 133.123 16.4736L134.796 16.8738C136.447 17.2506 137.296 18.1452 137.296 19.5814C137.296 21.4179 135.881 22.5716 133.712 22.5716C131.542 22.5716 130.269 21.4885 130.175 19.7463H131.59C131.614 20.7116 132.439 21.3237 133.712 21.3237C135.056 21.3237 135.928 20.688 135.928 19.6756C135.928 18.8751 135.504 18.3807 134.514 18.1452L132.839 17.7685C131.189 17.3919 130.317 16.4266 130.317 14.9668C130.317 13.2246 131.732 12.0474 133.83 12.0474Z" fill="white"/>
<path d="M65.1721 1.89978V16.5206L55.4814 1.89978H51.8975V22.5478H55.4578V7.9035L65.1721 22.5478H68.7325V1.89978H65.1721Z" fill="white"/>
<path d="M84.2467 1.89978V5.21948H75.0276V10.5404H83.28V13.7189H75.0276V19.2046H84.2467V22.5478H71.3965V1.89978H84.2467Z" fill="white"/>
<path d="M107.401 1.89978L105.138 5.21948H111.692V22.5478H115.323V5.21948H119.945L122.185 1.89978H107.401Z" fill="white"/>
<path d="M92.0043 14.4016L94.2207 17.6507L90.8726 22.5479H86.4634L92.0043 14.4016Z" fill="white"/>
<path d="M104.996 22.5479H100.563L95.7291 15.4376L93.513 12.1885L86.5103 1.89978H90.9194L95.7291 8.93943L100.516 1.89978H104.925L100.257 8.75108L97.9221 12.1885L104.996 22.5479Z" fill="white"/>
<path d="M51.8975 25.29H58.075V26.0905H55.4107V33.8836H54.5383V26.0905H51.8975V25.29Z" fill="white"/>
<path d="M57.792 30.9642C57.792 29.1513 58.9238 27.9034 60.5978 27.9034C62.2719 27.9034 63.2386 29.01 63.2386 30.6582V31.0584H58.5936C58.6644 32.471 59.3954 33.2951 60.645 33.2951C61.5881 33.2951 62.2012 32.8948 62.437 32.1178H63.2386C62.9321 33.3421 62.0125 34.0014 60.645 34.0014C58.9238 34.0014 57.792 32.7771 57.792 30.9642ZM58.6172 30.4698H62.4134C62.4134 29.3632 61.6824 28.6098 60.5978 28.6098C59.5132 28.6098 58.7823 29.3397 58.6408 30.4698H58.6172Z" fill="white"/>
<path d="M64.5591 33.8837V28.0683H65.29L65.3843 28.8923C65.6673 28.2802 66.3274 27.9034 67.1527 27.9034C68.0723 27.9034 68.756 28.3744 69.039 29.1513C69.2983 28.3979 70.0057 27.9034 70.9488 27.9034C72.222 27.9034 73.0473 28.7276 73.0473 30.0695V33.8837H72.2456V30.2579C72.2456 29.2691 71.6798 28.6804 70.8073 28.6804C69.8406 28.6804 69.2511 29.4103 69.2511 30.3049V33.8837H68.4259V30.2344C68.4259 29.2455 67.86 28.6804 66.9876 28.6804C66.0209 28.6804 65.4315 29.4103 65.4315 30.2814V33.8837H64.5591Z" fill="white"/>
<path d="M74.6978 28.0683H75.4287L75.523 29.2455C75.9238 28.3508 76.7491 27.9034 77.7393 27.9034C79.437 27.9034 80.4273 29.1984 80.4273 30.9407C80.4273 32.6829 79.4606 34.0014 77.7393 34.0014C76.7491 34.0014 75.971 33.5776 75.5702 32.73V36.3793H74.7449V28.0447L74.6978 28.0683ZM77.5744 33.2715C78.8476 33.2715 79.5785 32.3062 79.5785 30.9642C79.5785 29.6222 78.8476 28.6569 77.5744 28.6569C76.3011 28.6569 75.5466 29.6222 75.5466 30.9642C75.5466 32.3062 76.3011 33.2715 77.5744 33.2715Z" fill="white"/>
<path d="M81.771 33.8837V25.7139L82.5962 25.1252V33.8601H81.771V33.8837Z" fill="white"/>
<path d="M84.0581 32.3062C84.0581 31.2467 84.8834 30.5639 86.251 30.4698L88.1844 30.3049V30.1167C88.1844 28.9865 87.5006 28.6098 86.6518 28.6098C85.6379 28.6098 85.0484 29.0571 85.0484 29.8576H84.294C84.294 28.6804 85.2607 27.927 86.699 27.927C88.0429 27.927 89.0332 28.6098 89.0332 30.1401V33.8837H88.3258L88.208 32.8713C87.8542 33.6012 87.0526 34.0484 86.0623 34.0484C84.8126 34.0484 84.0817 33.3421 84.0817 32.3298L84.0581 32.3062ZM88.1608 31.2467V30.9407L86.4395 31.082C85.3314 31.1761 84.9069 31.647 84.9069 32.3062C84.9069 33.0125 85.4257 33.3657 86.2274 33.3657C87.4534 33.3657 88.1608 32.5181 88.1608 31.2467Z" fill="white"/>
<path d="M91.0612 33.8837V28.7746H89.8823V28.0683H91.0612V26.7969L91.8864 26.2318V28.0683H93.0654V28.7746H91.8864V33.8837H91.0612Z" fill="white"/>
<path d="M93.6548 30.9642C93.6548 29.1513 94.7866 27.9034 96.461 27.9034C98.1345 27.9034 99.1011 29.01 99.1011 30.6582V31.0584H94.4564C94.5272 32.471 95.2581 33.2951 96.5076 33.2951C97.4504 33.2951 98.0641 32.8948 98.3 32.1178H99.1011C98.7948 33.3421 97.8757 34.0014 96.5076 34.0014C94.7866 34.0014 93.6548 32.7771 93.6548 30.9642ZM94.48 30.4698H98.2763C98.2763 29.3632 97.5456 28.6098 96.461 28.6098C95.3759 28.6098 94.6451 29.3397 94.5036 30.4698H94.48Z" fill="white"/>
<path d="M100.728 32.2354C100.728 32.9183 101.223 33.3185 102.048 33.3185C102.945 33.3185 103.487 32.9418 103.487 32.3061C103.487 31.8352 103.251 31.5527 102.567 31.3879L101.577 31.1289C100.563 30.8699 100.068 30.352 100.068 29.5515C100.068 28.5391 100.917 27.8799 102.166 27.8799C103.416 27.8799 104.194 28.5626 104.218 29.6221H103.416C103.416 28.9393 102.921 28.5626 102.143 28.5626C101.364 28.5626 100.87 28.9158 100.87 29.5279C100.87 29.9753 101.176 30.2813 101.812 30.4461L102.803 30.7051C103.817 30.9642 104.265 31.435 104.265 32.259C104.265 33.295 103.369 33.9777 102.048 33.9777C100.728 33.9777 99.9268 33.2714 99.9268 32.212H100.728V32.2354Z" fill="white"/>
<path d="M136.287 31.0996H108.418L109.479 29.8752H137.325L136.287 31.0996Z" fill="white"/>
<path d="M38.5792 18.9764C38.5792 21.5898 38.0604 24.0855 37.1172 26.3222C34.2407 33.197 27.4737 38 19.5514 38C9.03539 38 0.5 29.5006 0.5 19C0.5 8.49938 9.03539 0 19.5514 0C25.6581 0 31.1048 2.87236 34.5944 7.34572H19.1976L21.8856 11.3718H25.328V23.85L21.4848 18.0347L14.3877 7.34572H10.3322V30.4H14.3641V14.1264L25.328 30.6543H29.3364V11.3718H36.9994C38.0133 13.7026 38.5792 16.2689 38.5792 18.9764Z" fill="white"/>
</g>
<defs>
<clipPath id="clip0_11228_3182">
<rect width="137" height="38" fill="white" transform="translate(0.5)"/>
</clipPath>
</defs>
</svg>
