<svg width="208" height="38" viewBox="0 0 208 38" fill="none" xmlns="http://www.w3.org/2000/svg">
<g clip-path="url(#clip0_8814_12107)">
<path d="M38.3824 0V38H15.116V30.2773H31.1934V22.7591H15.116V15.3432H31.1934V7.92732H7.79095V38H0.5V0H38.3824Z" fill="black"/>
<path d="M70.1543 21.2569V17.1665H60.5094V10.0883H71.998V5.89111H55.9707V31.8921H60.5094V21.2569H70.1543Z" fill="black"/>
<path d="M72.5405 23.0706C72.5405 28.5483 76.4764 32.3186 81.9017 32.3186C87.3268 32.3186 91.2628 28.5483 91.2628 23.0706C91.2628 17.593 87.3268 13.8228 81.9017 13.8228C76.4764 13.8228 72.5405 17.593 72.5405 23.0706ZM76.8664 23.0706C76.8664 19.8694 78.923 17.6997 81.9017 17.6997C84.8802 17.6997 86.9368 19.8694 86.9368 23.0706C86.9368 26.2718 84.8802 28.4415 81.9017 28.4415C78.923 28.4415 76.8664 26.2718 76.8664 23.0706Z" fill="black"/>
<path d="M105.152 14.2495C104.443 14.0716 103.84 14.0005 103.237 14.0005C100.897 14.0005 99.2302 15.1743 98.4856 16.9171L98.2374 14.3562H94.1597V31.8917H98.4856V23.3551C98.4856 19.9406 100.436 18.2687 103.556 18.2687H105.152V14.2495Z" fill="black"/>
<path d="M111.874 31.8918V21.9324C111.874 19.0869 113.541 17.7353 115.598 17.7353C117.654 17.7353 118.966 19.0513 118.966 21.5056V31.8918H123.292V21.9324C123.292 19.0513 124.888 17.6998 126.98 17.6998C129.036 17.6998 130.384 19.0158 130.384 21.5413V31.8918H134.674V20.403C134.674 16.3482 132.334 13.7871 128.079 13.7871C125.42 13.7871 123.363 15.1033 122.477 17.1307C121.555 15.1033 119.711 13.7871 117.051 13.7871C114.534 13.7871 112.761 14.9253 111.874 16.3837L111.52 14.3207H107.548V31.8918H111.874Z" fill="black"/>
<path d="M139.028 31.8921H149.524C154.878 31.8921 157.962 29.2956 157.962 24.8494C157.962 21.826 156.58 19.763 153.849 18.8738C156.295 17.8422 157.573 15.7792 157.573 12.8982C157.573 8.55879 154.453 5.89111 149.347 5.89111H139.028V31.8921ZM148.956 9.91041C151.509 9.91041 152.928 11.1197 152.928 13.3606C152.928 15.6726 151.545 16.9886 149.063 16.9886H143.567V9.91041H148.956ZM149.347 20.8301C151.863 20.8301 153.318 22.075 153.318 24.2803C153.318 26.6278 151.9 27.8727 149.347 27.8727H143.567V20.8301H149.347Z" fill="black"/>
<path d="M159.925 23.0706C159.925 28.5483 163.862 32.3186 169.286 32.3186C174.712 32.3186 178.649 28.5483 178.649 23.0706C178.649 17.593 174.712 13.8228 169.286 13.8228C163.862 13.8228 159.925 17.593 159.925 23.0706ZM164.252 23.0706C164.252 19.8694 166.308 17.6997 169.286 17.6997C172.265 17.6997 174.322 19.8694 174.322 23.0706C174.322 26.2718 172.265 28.4415 169.286 28.4415C166.308 28.4415 164.252 26.2718 164.252 23.0706Z" fill="black"/>
<path d="M185.907 31.892V5.42871H181.616V31.892H185.907Z" fill="black"/>
<path d="M197.111 32.3544C199.771 32.3544 202.039 31.1806 203.103 29.1532L203.387 31.892H207.358V5.42871H203.068V16.5618C201.969 14.8189 199.806 13.7874 197.358 13.7874C192.075 13.7874 188.885 17.7 188.885 23.1777C188.885 28.6197 192.04 32.3544 197.111 32.3544ZM198.069 28.3707C195.054 28.3707 193.21 26.1654 193.21 23.0353C193.21 19.9052 195.054 17.6644 198.069 17.6644C201.082 17.6644 203.032 19.8697 203.032 23.0353C203.032 26.201 201.082 28.3707 198.069 28.3707Z" fill="black"/>
</g>
<defs>
<clipPath id="clip0_8814_12107">
<rect width="207" height="38" fill="white" transform="translate(0.5)"/>
</clipPath>
</defs>
</svg>
