<svg width="160" height="40" viewBox="0 0 160 40" fill="none" xmlns="http://www.w3.org/2000/svg">
<g clip-path="url(#clip0_8814_12158)">
<mask id="mask0_8814_12158" style="mask-type:luminance" maskUnits="userSpaceOnUse" x="0" y="0" width="41" height="40">
<path d="M40.1525 0H0V40H40.1525V0Z" fill="white"/>
</mask>
<g mask="url(#mask0_8814_12158)">
<path opacity="0.72" d="M40.089 18.3522C40.0693 18.1527 39.9766 17.9673 39.8285 17.8316C39.6804 17.6958 39.4872 17.6192 39.286 17.6162H19.274C18.7306 17.6294 18.2001 17.784 17.7352 18.0647C17.2703 18.3454 16.8872 18.7424 16.6239 19.2162C16.3802 19.6399 16.252 20.1198 16.252 20.6082C16.252 21.0966 16.3802 21.5764 16.6239 22.0002C16.6935 22.1334 16.7968 22.2463 16.9235 22.3277C17.0503 22.4091 17.196 22.4561 17.3466 22.4642H39.3342C39.5355 22.4612 39.7286 22.3845 39.8767 22.2488C40.0248 22.113 40.1176 21.9277 40.1373 21.7282C40.1373 21.1042 40.1373 20.5762 40.1373 20.1282C40.1373 19.6802 40.1372 18.9602 40.089 18.3522Z" fill="black"/>
<path d="M40.072 18.3522C40.0561 18.154 39.9667 17.9689 39.8213 17.8328C39.6758 17.6968 39.4846 17.6195 39.285 17.6162H36.0728C35.9602 17.6175 35.849 17.6423 35.7466 17.6892C35.6442 17.7361 35.5529 17.8039 35.4786 17.8882C35.4037 17.9693 35.3476 18.0658 35.3143 18.1708C35.281 18.2759 35.2713 18.387 35.2859 18.4962C35.2859 19.0082 35.2859 19.5202 35.2859 20.0962C35.2818 22.6493 34.6323 25.1603 33.3972 27.3974C32.1622 29.6344 30.3812 31.5256 28.219 32.8962C27.9941 33.0402 27.7855 33.2162 27.5445 33.3442C26.366 34.0128 25.1015 34.5188 23.7861 34.8482L25.8902 38.5762C25.9616 38.6995 26.0648 38.8015 26.189 38.8718C26.3132 38.9421 26.4539 38.9782 26.5968 38.9762C26.6818 38.9915 26.7689 38.9915 26.8538 38.9762L27.3677 38.7682L27.8335 38.5762C28.544 38.2822 29.2359 37.9456 29.9055 37.5682C33.0369 35.8109 35.6388 33.2503 37.4407 30.1525C39.2427 27.0546 40.1791 23.5325 40.1524 19.9522C40.1524 19.3602 40.1202 18.8962 40.072 18.3522Z" fill="black"/>
<path d="M28.704 33.5386C28.5961 33.3561 28.4245 33.2195 28.2221 33.1546H27.9972C27.8578 33.1557 27.7205 33.1886 27.5957 33.2506C25.3055 34.5488 22.7142 35.2273 20.0793 35.2186C16.0352 35.2102 12.1592 33.606 9.29964 30.7573C6.44006 27.9086 4.82979 24.0473 4.8213 20.0186C4.82979 15.9899 6.44006 12.1287 9.29964 9.27999C12.1592 6.43127 16.0352 4.82713 20.0793 4.81867C22.713 4.81951 25.3019 5.49735 27.5957 6.78667C27.7156 6.86248 27.8552 6.90144 27.9972 6.89866H28.1739C28.284 6.87445 28.3879 6.82785 28.4791 6.76178C28.5703 6.6957 28.647 6.61157 28.704 6.51467L30.3101 3.73067C30.4163 3.54551 30.4455 3.3263 30.3915 3.11997C30.3374 2.91363 30.2044 2.73657 30.0209 2.62667C26.9978 0.924776 23.5839 0.0317974 20.1114 0.0346749C14.7895 0.0431374 9.6879 2.15299 5.92471 5.90189C2.16153 9.65078 0.043651 14.7329 0.0351562 20.0346C0.043651 25.3364 2.16153 30.4185 5.92471 34.1674C9.6879 37.9163 14.7895 40.0262 20.1114 40.0346C23.5839 40.0375 26.9978 39.1445 30.0209 37.4426C30.1128 37.3913 30.1934 37.322 30.258 37.2391C30.3225 37.1561 30.3696 37.061 30.3966 36.9596C30.4235 36.8581 30.4299 36.7523 30.415 36.6484C30.4001 36.5444 30.3644 36.4446 30.3101 36.3546L28.704 33.5386Z" fill="black"/>
<path opacity="0.56" d="M22.3727 22.3998H17.2976C17.1537 22.3895 17.0142 22.3449 16.8912 22.2697C16.7682 22.1945 16.6652 22.091 16.5908 21.9678L25.9224 38.4318C25.9938 38.555 26.0969 38.6571 26.2211 38.7274C26.3454 38.7977 26.4861 38.8337 26.6289 38.8318C26.7193 38.847 26.8117 38.847 26.9021 38.8318C27.9633 38.4511 28.9897 37.98 29.9698 37.4237C30.0616 37.3724 30.1421 37.3031 30.2066 37.2202C30.2711 37.1372 30.3182 37.0421 30.3452 36.9407C30.3722 36.8392 30.3785 36.7334 30.3636 36.6295C30.3488 36.5256 30.3131 36.4257 30.2587 36.3357L22.3727 22.3998Z" fill="black"/>
</g>
<path d="M62.7611 13.6567V30.6077H59.7689V13.6567H55.21V10.855H67.3071V13.6567H62.7611Z" fill="black"/>
<path d="M77.5418 18.1472H80.444V30.6078H77.5418V29.3029C76.3517 30.4116 75.0718 30.966 73.702 30.966C71.9726 30.966 70.5429 30.3434 69.4128 29.0982C68.2913 27.8274 67.7305 26.241 67.7305 24.3391C67.7305 22.4713 68.2913 20.9148 69.4128 19.6696C70.5343 18.4244 71.9384 17.8018 73.625 17.8018C75.0804 17.8018 76.386 18.3988 77.5418 19.5929V18.1472ZM70.6842 24.3391C70.6842 25.5331 71.0052 26.5054 71.6473 27.256C72.3065 28.015 73.137 28.3946 74.1386 28.3946C75.2088 28.3946 76.0735 28.0278 76.7327 27.2943C77.3919 26.5353 77.7216 25.5715 77.7216 24.4031C77.7216 23.2346 77.3919 22.2709 76.7327 21.5118C76.0735 20.7698 75.2174 20.3988 74.1643 20.3988C73.1712 20.3988 72.3408 20.7741 71.673 21.5246C71.0138 22.2837 70.6842 23.2218 70.6842 24.3391Z" fill="black"/>
<path d="M86.9804 18.147V30.6076H84.091V18.147H86.9804ZM83.6543 12.9658C83.6543 12.4626 83.8384 12.0276 84.2065 11.6609C84.5747 11.2941 85.0156 11.1108 85.5293 11.1108C86.0515 11.1108 86.4967 11.2941 86.8648 11.6609C87.233 12.0191 87.417 12.4583 87.417 12.9786C87.417 13.4988 87.233 13.9423 86.8648 14.3091C86.5052 14.6758 86.0643 14.8592 85.5421 14.8592C85.0199 14.8592 84.5747 14.6758 84.2065 14.3091C83.8384 13.9423 83.6543 13.4946 83.6543 12.9658Z" fill="black"/>
<path d="M93.53 9V30.6077H90.6406V9H93.53Z" fill="black"/>
<path d="M107.939 20.322H116.132V20.9744C116.132 22.4584 115.956 23.7719 115.605 24.9147C115.263 25.9723 114.685 26.9616 113.872 27.8827C112.031 29.9467 109.69 30.9787 106.847 30.9787C104.073 30.9787 101.698 29.9808 99.7194 27.9851C97.7417 25.9808 96.7529 23.5757 96.7529 20.7697C96.7529 17.9041 97.7589 15.4733 99.7708 13.4776C101.783 11.4733 104.232 10.4712 107.117 10.4712C108.666 10.4712 110.113 10.7868 111.457 11.4179C112.742 12.049 114.004 13.0725 115.246 14.4883L113.114 16.5224C111.487 14.3646 109.505 13.2857 107.168 13.2857C105.071 13.2857 103.311 14.0064 101.89 15.4478C100.469 16.8635 99.7579 18.6375 99.7579 20.7697C99.7579 22.9701 100.55 24.7825 102.134 26.2068C103.615 27.5288 105.221 28.1898 106.95 28.1898C108.422 28.1898 109.745 27.6951 110.918 26.7058C112.091 25.7079 112.746 24.5139 112.883 23.1237H107.939V20.322Z" fill="black"/>
<path d="M119.355 18.1472H122.245V19.2602C122.775 18.7059 123.246 18.3263 123.657 18.1216C124.077 17.9084 124.573 17.8018 125.147 17.8018C125.909 17.8018 126.705 18.0491 127.536 18.5438L126.213 21.1792C125.665 20.7869 125.13 20.5907 124.608 20.5907C123.032 20.5907 122.245 21.7762 122.245 24.1472V30.6078H119.355V18.1472Z" fill="black"/>
<path d="M132.493 18.147V30.6076H129.603V18.147H132.493ZM129.166 12.9658C129.166 12.4626 129.351 12.0276 129.719 11.6609C130.087 11.2941 130.528 11.1108 131.041 11.1108C131.564 11.1108 132.009 11.2941 132.377 11.6609C132.745 12.0191 132.929 12.4583 132.929 12.9786C132.929 13.4988 132.745 13.9423 132.377 14.3091C132.017 14.6758 131.576 14.8592 131.054 14.8592C130.532 14.8592 130.087 14.6758 129.719 14.3091C129.351 13.9423 129.166 13.4946 129.166 12.9658Z" fill="black"/>
<path d="M145.373 9H148.275V30.6077H145.373V29.3028C144.234 30.4115 142.946 30.9659 141.508 30.9659C139.795 30.9659 138.374 30.3433 137.244 29.0981C136.123 27.8273 135.562 26.2409 135.562 24.339C135.562 22.4797 136.123 20.9275 137.244 19.6823C138.357 18.4286 139.757 17.8017 141.443 17.8017C142.907 17.8017 144.217 18.3987 145.373 19.5928V9ZM138.515 24.339C138.515 25.533 138.836 26.5053 139.479 27.2559C140.138 28.0149 140.968 28.3945 141.97 28.3945C143.04 28.3945 143.905 28.0277 144.564 27.2942C145.223 26.5352 145.553 25.5714 145.553 24.403C145.553 23.2345 145.223 22.2708 144.564 21.5117C143.905 20.7697 143.049 20.3987 141.996 20.3987C141.002 20.3987 140.172 20.774 139.504 21.5245C138.845 22.2836 138.515 23.2217 138.515 24.339Z" fill="black"/>
<path d="M159.191 20.2709L156.802 21.5374C156.426 20.7698 155.959 20.386 155.403 20.386C155.137 20.386 154.91 20.4756 154.722 20.6547C154.534 20.8253 154.439 21.047 154.439 21.3199C154.439 21.7975 154.996 22.2709 156.109 22.74C157.641 23.3967 158.673 24.0022 159.204 24.5566C159.735 25.111 160 25.8572 160 26.7954C160 27.998 159.555 29.0044 158.664 29.8146C157.8 30.5822 156.755 30.966 155.531 30.966C153.434 30.966 151.948 29.9468 151.075 27.9084L153.541 26.7698C153.883 27.3668 154.144 27.7464 154.324 27.9084C154.675 28.2325 155.094 28.3946 155.582 28.3946C156.558 28.3946 157.046 27.9511 157.046 27.0641C157.046 26.5523 156.67 26.0747 155.916 25.6312C155.625 25.4862 155.334 25.3455 155.043 25.2091C154.752 25.0726 154.457 24.9319 154.157 24.7869C153.318 24.3775 152.727 23.9681 152.385 23.5587C151.948 23.0385 151.73 22.369 151.73 21.5502C151.73 20.4671 152.102 19.5715 152.847 18.8636C153.609 18.1558 154.534 17.8018 155.621 17.8018C157.222 17.8018 158.412 18.6248 159.191 20.2709Z" fill="black"/>
</g>
<defs>
<clipPath id="clip0_8814_12158">
<rect width="160" height="40" fill="white"/>
</clipPath>
</defs>
</svg>
