<svg width="162" height="38" viewBox="0 0 162 38" fill="none" xmlns="http://www.w3.org/2000/svg">
<g clip-path="url(#clip0_11228_3173)">
<path d="M32.9575 13.9978V25.9412C32.9575 28.368 31.7103 30.6227 29.6583 31.9129L20.0556 37.9522C19.8529 38.0812 19.5825 37.9337 19.5825 37.6941V33.4673C19.5825 32.773 19.9266 32.1279 20.5041 31.7409L26.6294 27.6553C27.4834 27.0839 27.9995 26.1255 27.9995 25.0995V16.8669C27.9995 16.2095 28.3497 15.6013 28.921 15.2695L32.0359 13.4755C32.4475 13.2421 32.9575 13.537 32.9575 14.01V13.9978Z" fill="white"/>
<path d="M32.214 10.4228L18.6486 18.2561C17.6963 18.8029 17.1127 19.8166 17.1127 20.9164V37.4184C17.1127 37.658 16.8546 37.8055 16.6519 37.6826L4.0818 30.3716C1.86391 29.0814 0.5 26.716 0.5 24.148V14.1582C0.5 11.1478 2.10352 8.3647 4.7146 6.85948L16.1542 0.248821C16.7256 -0.0829404 17.426 -0.0829404 17.9974 0.248821L20.8603 1.90149C21.4747 2.25782 21.4747 3.14252 20.8603 3.49886L7.20282 11.3813C6.25054 11.9281 5.66688 12.9418 5.66688 14.0415V23.5397C5.66688 24.6395 6.25054 25.6532 7.20282 26.2L11.7308 28.8111C11.8291 28.8663 11.9458 28.7988 11.9458 28.6882V19.2514C11.9458 17.3346 12.9656 15.5713 14.6245 14.6129L27.7475 7.03765C28.3618 6.68131 29.1237 6.71203 29.7073 7.11138L32.2693 8.86234C32.8283 9.24325 32.7976 10.0788 32.2078 10.4228H32.214Z" fill="white"/>
<path d="M47.7324 8.71692H52.1134V20.616C52.1134 21.5926 52.247 22.4633 52.5142 23.228C52.7814 23.9835 53.1776 24.6239 53.7027 25.149C54.2371 25.6742 54.8959 26.075 55.679 26.3514C56.4622 26.6186 57.3743 26.7522 58.4154 26.7522C59.4473 26.7522 60.3548 26.6186 61.138 26.3514C61.9303 26.075 62.5891 25.6742 63.1143 25.149C63.6486 24.6239 64.0494 23.9835 64.3166 23.228C64.5838 22.4633 64.7174 21.5926 64.7174 20.616V8.71692H69.0984V21.1412C69.0984 22.5601 68.8588 23.8499 68.3797 25.0108C67.9006 26.1717 67.205 27.1668 66.2929 27.996C65.3808 28.8252 64.2613 29.4655 62.9346 29.917C61.6171 30.3685 60.1107 30.5942 58.4154 30.5942C56.7201 30.5942 55.2091 30.3685 53.8824 29.917C52.5649 29.4655 51.45 28.8252 50.5379 27.996C49.6258 27.1668 48.9302 26.1717 48.4511 25.0108C47.972 23.8499 47.7324 22.5601 47.7324 21.1412V8.71692Z" fill="white"/>
<path d="M72.125 8.71692H76.5336V30.3178H72.125V8.71692Z" fill="white"/>
<path d="M78.5928 22.233C78.5928 20.9339 78.837 19.7638 79.3253 18.7227C79.8136 17.6723 80.4862 16.7786 81.343 16.0416C82.2091 15.2953 83.2318 14.724 84.4111 14.3279C85.5996 13.9225 86.8849 13.7198 88.2669 13.7198C88.8566 13.7198 89.437 13.7566 90.0083 13.8303C90.5887 13.904 91.1415 14.0054 91.6667 14.1344C92.2011 14.2634 92.6986 14.42 93.1593 14.6043C93.6292 14.7793 94.0438 14.9728 94.4031 15.1847V7.39014H98.4938V30.3178H94.4031V28.7837C94.0438 29.0325 93.6199 29.2674 93.1316 29.4886C92.6433 29.7097 92.1181 29.9032 91.5561 30.069C90.9941 30.2348 90.4091 30.3638 89.801 30.456C89.2021 30.5573 88.6078 30.608 88.0182 30.608C86.6362 30.608 85.3647 30.4053 84.2038 29.9999C83.0521 29.5945 82.0617 29.0233 81.2325 28.2862C80.4033 27.5491 79.7537 26.6692 79.2838 25.6466C78.8232 24.6147 78.5928 23.4768 78.5928 22.233ZM82.8909 22.233C82.8909 22.8871 83.0199 23.5044 83.2779 24.0849C83.545 24.6653 83.9228 25.1767 84.4111 25.6189C84.9086 26.0519 85.5029 26.3975 86.1939 26.6554C86.8941 26.9042 87.6773 27.0286 88.5433 27.0286C89.0961 27.0286 89.6489 26.9779 90.2018 26.8766C90.7546 26.766 91.2843 26.614 91.7911 26.4205C92.307 26.227 92.7861 25.9921 93.2284 25.7157C93.6798 25.4393 94.0714 25.1306 94.4031 24.7897V19.1373C93.9885 18.8056 93.5508 18.5246 93.0902 18.2942C92.6295 18.0639 92.1596 17.875 91.6805 17.7276C91.2014 17.5802 90.7177 17.4742 90.2294 17.4097C89.7411 17.336 89.2666 17.2992 88.8059 17.2992C87.8661 17.2992 87.0277 17.4282 86.2906 17.6861C85.5628 17.9349 84.9455 18.2804 84.4387 18.7227C83.9412 19.1649 83.5589 19.6855 83.2917 20.2843C83.0245 20.8832 82.8909 21.5328 82.8909 22.233Z" fill="white"/>
<path d="M100.968 22.1086C100.968 21.003 101.193 19.948 101.645 18.9438C102.096 17.9303 102.746 17.0366 103.593 16.2627C104.441 15.4887 105.478 14.8714 106.703 14.4108C107.938 13.9501 109.338 13.7198 110.904 13.7198C112.461 13.7198 113.862 13.9547 115.106 14.4246C116.359 14.8853 117.418 15.521 118.284 16.3318C119.16 17.1426 119.828 18.0961 120.288 19.1925C120.758 20.2889 120.993 21.4637 120.993 22.7167C120.993 22.8733 120.988 23.0438 120.979 23.228C120.979 23.4031 120.97 23.5643 120.952 23.7117H105.528C105.703 24.2 105.984 24.6469 106.371 25.0523C106.768 25.4577 107.26 25.8078 107.85 26.1026C108.44 26.3975 109.122 26.6278 109.895 26.7936C110.669 26.9503 111.526 27.0286 112.466 27.0286C113.406 27.0286 114.341 26.9318 115.272 26.7383C116.202 26.5357 117.091 26.2823 117.939 25.9782L119.321 29.1016C118.786 29.3504 118.243 29.5715 117.69 29.765C117.146 29.9492 116.575 30.1059 115.976 30.2348C115.387 30.3546 114.765 30.4468 114.111 30.5113C113.466 30.5757 112.784 30.608 112.065 30.608C110.232 30.608 108.624 30.3869 107.242 29.9446C105.86 29.5024 104.704 28.8989 103.773 28.1342C102.843 27.3695 102.142 26.4712 101.672 25.4393C101.203 24.4074 100.968 23.2971 100.968 22.1086ZM116.654 20.5193C116.506 20.0678 116.276 19.6486 115.963 19.2616C115.658 18.8655 115.276 18.5246 114.815 18.239C114.355 17.9441 113.82 17.7138 113.212 17.5479C112.604 17.3821 111.936 17.2992 111.208 17.2992C110.434 17.2992 109.73 17.3867 109.094 17.5618C108.458 17.7368 107.901 17.9718 107.422 18.2666C106.943 18.5614 106.542 18.9023 106.219 19.2893C105.906 19.6763 105.676 20.0862 105.528 20.5193H116.654Z" fill="white"/>
<path d="M122.651 22.2053C122.651 21.0076 122.868 19.8928 123.301 18.8609C123.743 17.8197 124.384 16.9214 125.222 16.1659C126.07 15.4012 127.102 14.8023 128.318 14.3693C129.543 13.9363 130.939 13.7198 132.505 13.7198C133.187 13.7198 133.873 13.7612 134.564 13.8441C135.255 13.9271 135.919 14.0468 136.555 14.2035C137.199 14.3509 137.803 14.5305 138.365 14.7425C138.927 14.9452 139.415 15.1709 139.83 15.4196L137.937 18.5015C137.043 18.0869 136.195 17.7829 135.394 17.5894C134.601 17.3959 133.795 17.2992 132.975 17.2992C132.035 17.2992 131.192 17.4236 130.446 17.6723C129.7 17.9119 129.064 18.2528 128.539 18.695C128.023 19.1281 127.627 19.644 127.35 20.2429C127.083 20.8325 126.95 21.4775 126.95 22.1777C126.95 22.8779 127.092 23.5275 127.378 24.1263C127.673 24.716 128.083 25.2273 128.608 25.6604C129.142 26.0842 129.783 26.4205 130.529 26.6692C131.284 26.9088 132.123 27.0286 133.044 27.0286C134.058 27.0286 135.011 26.8858 135.905 26.6001C136.808 26.3145 137.646 25.9322 138.42 25.4531L140.314 28.535C139.825 28.8298 139.296 29.1062 138.724 29.3642C138.153 29.6129 137.54 29.8295 136.886 30.0137C136.241 30.198 135.559 30.3408 134.841 30.4422C134.131 30.5527 133.394 30.608 132.63 30.608C131.073 30.608 129.677 30.3961 128.442 29.9723C127.208 29.5484 126.162 28.9634 125.305 28.2171C124.448 27.4616 123.789 26.5725 123.329 25.5498C122.877 24.5271 122.651 23.4123 122.651 22.2053Z" fill="white"/>
<path d="M142.967 7.39014H147.058V20.9339L154.687 14.01H160.947L152.42 21.6387L161.486 30.3178H155.35L149.283 24.4442L147.058 26.4343V30.3178H142.967V7.39014Z" fill="white"/>
</g>
<defs>
<clipPath id="clip0_11228_3173">
<rect width="161" height="38" fill="white" transform="translate(0.5)"/>
</clipPath>
</defs>
</svg>
