<svg width="220" height="42" viewBox="0 0 220 42" fill="none" xmlns="http://www.w3.org/2000/svg">
<path d="M93.9757 24.8841C94.0177 23.6661 93.8497 22.5741 93.4717 21.5661C93.0937 20.5581 92.5477 19.6971 91.8337 18.9411C91.1407 18.1851 90.3217 17.6181 89.3557 17.2191C88.3897 16.7991 87.3397 16.5891 86.2057 16.5891C84.9877 16.5891 83.8537 16.8201 82.8037 17.2611C81.7747 17.6601 80.8717 18.2691 80.1157 19.0881C79.3597 19.8441 78.7717 20.7891 78.3517 21.8391C77.9317 22.9101 77.7217 24.1071 77.7217 25.3881C77.7217 27.0471 78.0997 28.4961 78.8557 29.7981C79.6117 31.0791 80.6617 32.0661 82.0057 32.8011C83.3497 33.5571 84.9247 33.9141 86.7307 33.9141C87.4867 33.9141 88.2637 33.8091 89.0407 33.6201C89.8177 33.4521 90.5737 33.1791 91.3087 32.8011C92.0437 32.4231 92.7157 31.9821 93.3247 31.4361L91.1827 28.4331C90.4897 29.0001 89.8387 29.3991 89.2297 29.6301C88.6207 29.8611 87.9487 29.9661 87.2137 29.9661C86.1427 29.9661 85.1977 29.7771 84.3997 29.3781C83.6227 28.9581 83.0137 28.3911 82.5727 27.6351C82.3417 27.2151 82.1737 26.7741 82.0897 26.2701H93.9547L93.9757 24.8841ZM89.7547 23.5191H82.1107C82.1737 23.1411 82.2997 22.8261 82.4467 22.5111C82.7827 21.8181 83.2657 21.2931 83.8957 20.9361C84.5467 20.5791 85.3447 20.4111 86.2687 20.4111C86.8987 20.4111 87.4657 20.5161 87.9697 20.7891C88.4737 21.0411 88.8727 21.3981 89.1877 21.8391C89.5237 22.3011 89.7127 22.8261 89.7547 23.3931V23.5191ZM108.655 26.9841C108.487 26.5011 108.214 26.0601 107.857 25.6821C107.437 25.2411 106.87 24.8631 106.156 24.5271C105.463 24.1911 104.623 23.8971 103.615 23.6031C102.838 23.4141 102.208 23.2251 101.746 23.0571C101.305 22.8891 100.969 22.7211 100.738 22.6161C100.528 22.4481 100.36 22.2801 100.234 22.0701C100.129 21.8601 100.087 21.6501 100.087 21.3981C100.087 21.1881 100.129 20.9571 100.213 20.7891C100.318 20.5791 100.465 20.4111 100.654 20.2641C100.843 20.1591 101.074 20.0541 101.347 19.9911C101.641 19.9281 101.956 19.9071 102.313 19.9071C102.712 19.9071 103.174 19.9911 103.678 20.1591C104.182 20.3271 104.665 20.5371 105.127 20.8521C105.61 21.1251 106.03 21.4611 106.408 21.8181L108.802 19.1721C108.277 18.6471 107.668 18.1851 106.954 17.8071C106.261 17.4291 105.505 17.1141 104.686 16.9041C103.867 16.6941 103.027 16.5891 102.166 16.5891C101.305 16.5891 100.486 16.7151 99.7087 16.9671C98.9317 17.1981 98.2387 17.5341 97.6297 17.9751C97.0417 18.4161 96.5797 18.9411 96.2437 19.5711C95.9077 20.1801 95.7397 20.8731 95.7397 21.6291C95.7397 22.2591 95.8237 22.8471 96.0127 23.3511C96.2227 23.8551 96.5167 24.3381 96.8947 24.7791C97.3357 25.2411 97.9237 25.6611 98.6587 26.0391C99.4147 26.3961 100.339 26.7111 101.41 26.9841C102.103 27.1731 102.67 27.3411 103.111 27.5091C103.552 27.6771 103.867 27.7821 104.077 27.8871C104.455 28.1601 104.644 28.5381 104.644 29.0001C104.644 29.2311 104.602 29.4411 104.497 29.6511C104.413 29.8611 104.266 30.0291 104.077 30.1551C103.888 30.3021 103.657 30.4071 103.384 30.4911C103.132 30.5541 102.859 30.5751 102.544 30.5751C101.746 30.5751 100.948 30.4281 100.15 30.1341C99.3517 29.8191 98.6167 29.3151 97.9657 28.6221L95.1937 31.0161C95.9287 31.9191 96.8947 32.6331 98.0917 33.1581C99.3097 33.6621 100.696 33.9141 102.25 33.9141C103.51 33.9141 104.644 33.7041 105.652 33.2631C106.66 32.7801 107.458 32.1501 108.025 31.3731C108.613 30.5541 108.907 29.6091 108.907 28.5801C108.907 28.0131 108.823 27.4671 108.655 26.9841ZM126.861 20.8101C126.105 19.5081 125.055 18.4791 123.711 17.7231C122.388 16.9671 120.897 16.5891 119.217 16.5891C117.516 16.5891 115.983 16.9671 114.639 17.7231C113.316 18.4791 112.266 19.5081 111.489 20.8101C110.733 22.0911 110.356 23.5821 110.356 25.2411C110.356 26.9211 110.733 28.4121 111.489 29.7141C112.266 31.0161 113.316 32.0661 114.639 32.8011C115.983 33.5571 117.516 33.9141 119.217 33.9141C120.897 33.9141 122.388 33.5571 123.711 32.8011C125.055 32.0661 126.105 31.0161 126.861 29.7141C127.617 28.4121 127.995 26.9211 127.995 25.2411C127.995 23.5821 127.617 22.0911 126.861 20.8101ZM122.934 27.6981C122.577 28.4121 122.073 29.0001 121.422 29.4201C120.771 29.7981 120.036 30.0081 119.217 30.0081C118.377 30.0081 117.621 29.7981 116.97 29.4201C116.319 29.0001 115.815 28.4121 115.437 27.6981C115.059 26.9841 114.87 26.1441 114.891 25.2411C114.87 24.3381 115.059 23.4981 115.437 22.7841C115.815 22.0911 116.319 21.5031 116.97 21.1041C117.621 20.6841 118.377 20.4531 119.217 20.4531C120.036 20.4531 120.771 20.6841 121.422 21.1041C122.073 21.4821 122.577 22.0701 122.934 22.7841C123.312 23.4981 123.501 24.3381 123.501 25.2411C123.501 26.1441 123.312 26.9841 122.934 27.6981ZM141.603 16.9251V26.9211C141.603 27.3831 141.519 27.8031 141.351 28.2231C141.183 28.6011 140.952 28.9581 140.658 29.2521C140.364 29.5461 140.007 29.7771 139.587 29.9451C139.167 30.0921 138.726 30.1551 138.243 30.1551C137.571 30.1551 137.004 30.0291 136.542 29.7141C136.08 29.4411 135.723 29.0001 135.471 28.4751C135.219 27.8871 135.093 27.2361 135.093 26.4801V16.9251H130.62V27.1941C130.62 28.6011 130.851 29.8191 131.313 30.8271C131.796 31.8141 132.468 32.5911 133.329 33.1161C134.211 33.6411 135.261 33.9141 136.479 33.9141C137.424 33.9141 138.306 33.7461 139.125 33.3891C139.944 33.0321 140.637 32.5281 141.225 31.8981C141.414 31.6881 141.582 31.4781 141.729 31.2681L141.834 33.5991H146.076V16.9251H141.603ZM160.335 16.6941C159.999 16.6101 159.663 16.5891 159.306 16.5891C158.466 16.5891 157.647 16.7781 156.87 17.1981C156.114 17.5971 155.463 18.1431 154.896 18.8571C154.686 19.1091 154.497 19.3821 154.35 19.6551L154.266 16.9251H149.94V33.5991H154.455V24.9681C154.455 24.4431 154.539 23.9601 154.707 23.5191C154.896 23.0781 155.148 22.7001 155.463 22.3851C155.778 22.0491 156.135 21.7971 156.555 21.6291C156.996 21.4401 157.479 21.3351 157.983 21.3351C158.361 21.3351 158.718 21.3981 159.075 21.5031C159.432 21.5871 159.747 21.6921 159.999 21.8181L161.196 16.9041C160.965 16.8201 160.671 16.7361 160.335 16.6941ZM172.998 29.0631C172.578 29.3781 172.137 29.6091 171.654 29.7981C171.171 29.9451 170.646 30.0081 170.1 30.0081C169.26 30.0081 168.504 29.7981 167.832 29.3781C167.16 28.9371 166.635 28.3701 166.236 27.6771C165.858 26.9631 165.669 26.1441 165.669 25.2411C165.669 24.3381 165.858 23.4981 166.236 22.7841C166.614 22.0911 167.118 21.5241 167.769 21.1251C168.441 20.7051 169.218 20.4951 170.079 20.4951C170.625 20.4951 171.15 20.6001 171.654 20.7891C172.179 20.9571 172.662 21.2301 173.103 21.5661C173.544 21.8811 173.901 22.2381 174.195 22.6371L176.652 19.6761C175.959 18.7101 174.993 17.9541 173.754 17.4081C172.515 16.8621 171.15 16.5891 169.659 16.5891C168.063 16.5891 166.635 16.9671 165.375 17.7231C164.115 18.4791 163.128 19.5291 162.393 20.8521C161.679 22.1541 161.322 23.6031 161.322 25.2411C161.322 26.9001 161.679 28.3911 162.393 29.6931C163.128 30.9951 164.115 32.0241 165.375 32.7801C166.635 33.5361 168.063 33.9141 169.659 33.9141C171.066 33.9141 172.41 33.6411 173.67 33.0951C174.93 32.5281 175.917 31.7931 176.631 30.8901L174.195 27.9291C173.838 28.3701 173.439 28.7481 172.998 29.0631ZM194.019 24.8841C194.061 23.6661 193.893 22.5741 193.515 21.5661C193.137 20.5581 192.591 19.6971 191.877 18.9411C191.184 18.1851 190.344 17.6181 189.378 17.2191C188.412 16.7991 187.362 16.5891 186.228 16.5891C185.01 16.5891 183.876 16.8201 182.826 17.2611C181.797 17.6601 180.915 18.2691 180.159 19.0881C179.403 19.8441 178.815 20.7891 178.395 21.8391C177.975 22.9101 177.765 24.1071 177.765 25.3881C177.765 27.0471 178.143 28.4961 178.899 29.7981C179.655 31.0791 180.705 32.0661 182.049 32.8011C183.393 33.5571 184.968 33.9141 186.774 33.9141C187.53 33.9141 188.286 33.8091 189.063 33.6201C189.84 33.4521 190.596 33.1791 191.331 32.8011C192.066 32.4231 192.738 31.9821 193.347 31.4361L191.205 28.4331C190.512 29.0001 189.861 29.3991 189.252 29.6301C188.643 29.8611 187.971 29.9661 187.236 29.9661C186.165 29.9661 185.241 29.7771 184.443 29.3781C183.666 28.9581 183.057 28.3911 182.616 27.6351C182.385 27.2151 182.217 26.7741 182.133 26.2701H193.977L194.019 24.8841ZM189.798 23.5191H182.154C182.217 23.1411 182.343 22.8261 182.49 22.5111C182.826 21.8181 183.309 21.2931 183.939 20.9361C184.59 20.5791 185.367 20.4111 186.291 20.4111C186.921 20.4111 187.488 20.5161 187.992 20.7891C188.496 21.0411 188.916 21.3981 189.231 21.8391C189.567 22.3011 189.756 22.8261 189.798 23.3931V23.5191Z" fill="white"/>
<path d="M71.6318 24.9891C71.7998 24.9261 71.9678 24.8421 72.1358 24.7371C73.2488 24.1071 74.1098 23.2671 74.7398 22.1961C75.3908 21.1041 75.7268 19.9071 75.7268 18.5841C75.7268 17.2191 75.3908 16.0431 74.7398 14.9931C74.1098 13.9431 73.2488 13.1031 72.1358 12.4941C71.0228 11.8641 69.7838 11.5491 68.4188 11.5491H58.6538V33.5991H63.2108V25.6821H66.6968L71.1488 33.5991L76.6298 33.6201L71.6318 24.9891ZM63.2108 15.6441H67.5998C68.2928 15.6441 68.9018 15.7701 69.4268 16.0431C69.9518 16.2951 70.3508 16.6521 70.6238 17.1141C70.8968 17.5971 71.0228 18.1431 71.0228 18.7731C71.0228 19.3611 70.9178 19.8861 70.6868 20.3691C70.4558 20.8311 70.1198 21.2091 69.6788 21.4821C69.2588 21.7341 68.7548 21.8391 68.1878 21.8391H63.2108V15.6441Z" fill="white"/>
<path d="M198.475 31.5323C199.037 31.5323 199.493 31.988 199.493 32.55C199.493 33.112 199.037 33.5677 198.475 33.5677H198.417C197.855 33.5677 197.4 33.112 197.4 32.55C197.4 31.988 197.855 31.5323 198.417 31.5323H198.475Z" fill="white"/>
<path d="M205.294 22.8254C204.569 22.7932 204.06 22.9117 203.768 23.1809C203.476 23.4393 203.33 23.8863 203.33 24.5217V24.667H205.294V26.2501H203.33V33.5678H201.464V26.2501H200.246V24.667H201.464V24.3762C201.464 23.2885 201.782 22.4755 202.421 21.937C203.059 21.3878 204.017 21.1454 205.294 21.2101V22.8254Z" fill="white"/>
<path d="M207.836 24.6669L210.513 31.2092L212.996 24.6669H215.058L209.653 37.8H207.592L209.524 33.3577L205.758 24.6669H207.836Z" fill="white"/>
<path d="M216.014 22.0823C216.014 21.77 216.122 21.5115 216.339 21.3069C216.555 21.1023 216.841 21 217.198 21C217.555 21 217.842 21.1023 218.058 21.3069C218.286 21.5115 218.4 21.77 218.4 22.0823C218.4 22.3946 218.286 22.6477 218.058 22.8416C217.842 23.0353 217.555 23.1323 217.198 23.1323C216.841 23.1323 216.555 23.0353 216.339 22.8416C216.122 22.6477 216.014 22.3946 216.014 22.0823ZM218.124 24.6669V33.5677H216.273V24.6669H218.124Z" fill="white"/>
<path fill-rule="evenodd" clip-rule="evenodd" d="M28.497 0L7.665 7.917V12.621C3.822 12.894 0.357 15.666 0 15.96L2.037 16.485C8.19 18.081 7.686 28.602 7.623 29.757L24.864 42L45.108 35.007L45.276 10.29C45.276 10.29 34.965 4.053 28.497 0ZM9.891 28.686C10.017 26.124 9.891 18.48 4.893 15.351C5.712 15.078 6.636 14.91 7.644 14.847C10.689 14.595 16.065 15.183 23.898 19.194L23.94 38.661L9.891 28.686ZM38.157 31.458L35.553 28.959L32.298 33.348V22.092L38.157 19.74V31.458ZM25.095 17.346L11.235 8.904L28.266 2.415L41.769 10.689L25.095 17.346Z" fill="white"/>
<path d="M18.7844 28.0241C18.8527 28.0346 18.9157 28.0399 18.9839 28.0346C19.4144 28.0294 19.7504 27.8614 19.9972 27.5254C20.2544 27.1894 20.3857 26.7221 20.3909 26.1079C20.3962 25.4726 20.2702 24.8374 20.0234 24.1864C19.7872 23.5354 19.4564 22.9211 19.0259 22.3541C18.6007 21.7714 18.1229 21.3094 17.5979 20.9576L13.8284 18.4376L13.7444 28.6699L15.5032 29.8459L15.5347 26.1709L16.8787 27.0739L18.5692 31.8934L20.6849 33.3161L18.7844 28.0241ZM18.4379 25.6354C18.3487 25.7876 18.2174 25.8769 18.0442 25.8926C17.8814 25.8979 17.6872 25.8191 17.4719 25.6721L15.5504 24.3911L15.5714 21.5141L17.2672 22.6481C17.5349 22.8266 17.7659 23.0419 17.9707 23.3044C18.1702 23.5564 18.3224 23.8241 18.4274 24.1076C18.5324 24.4016 18.5797 24.6904 18.5744 24.9791C18.5744 25.2521 18.5324 25.4674 18.4379 25.6354Z" fill="white"/>
</svg>
