<svg width="220" height="42" viewBox="0 0 220 42" fill="none" xmlns="http://www.w3.org/2000/svg">
<path d="M93.9757 24.8839C94.0177 23.6659 93.8497 22.5739 93.4717 21.5659C93.0937 20.5579 92.5477 19.6969 91.8337 18.9409C91.1407 18.1849 90.3217 17.6179 89.3557 17.2189C88.3897 16.7989 87.3397 16.5889 86.2057 16.5889C84.9877 16.5889 83.8537 16.8199 82.8037 17.2609C81.7747 17.6599 80.8717 18.2689 80.1157 19.0879C79.3597 19.8439 78.7717 20.7889 78.3517 21.8389C77.9317 22.9099 77.7217 24.1069 77.7217 25.3879C77.7217 27.0469 78.0997 28.4959 78.8557 29.7979C79.6117 31.0789 80.6617 32.0659 82.0057 32.8009C83.3497 33.5569 84.9247 33.9139 86.7307 33.9139C87.4867 33.9139 88.2637 33.8089 89.0407 33.6199C89.8177 33.4519 90.5737 33.1789 91.3087 32.8009C92.0437 32.4229 92.7157 31.9819 93.3247 31.4359L91.1827 28.4329C90.4897 28.9999 89.8387 29.3989 89.2297 29.6299C88.6207 29.8609 87.9487 29.9659 87.2137 29.9659C86.1427 29.9659 85.1977 29.7769 84.3997 29.3779C83.6227 28.9579 83.0137 28.3909 82.5727 27.6349C82.3417 27.2149 82.1737 26.7739 82.0897 26.2699H93.9547L93.9757 24.8839ZM89.7547 23.5189H82.1107C82.1737 23.1409 82.2997 22.8259 82.4467 22.5109C82.7827 21.8179 83.2657 21.2929 83.8957 20.9359C84.5467 20.5789 85.3447 20.4109 86.2687 20.4109C86.8987 20.4109 87.4657 20.5159 87.9697 20.7889C88.4737 21.0409 88.8727 21.3979 89.1877 21.8389C89.5237 22.3009 89.7127 22.8259 89.7547 23.3929V23.5189ZM108.655 26.9839C108.487 26.5009 108.214 26.0599 107.857 25.6819C107.437 25.2409 106.87 24.8629 106.156 24.5269C105.463 24.1909 104.623 23.8969 103.615 23.6029C102.838 23.4139 102.208 23.2249 101.746 23.0569C101.305 22.8889 100.969 22.7209 100.738 22.6159C100.528 22.4479 100.36 22.2799 100.234 22.0699C100.129 21.8599 100.087 21.6499 100.087 21.3979C100.087 21.1879 100.129 20.9569 100.213 20.7889C100.318 20.5789 100.465 20.4109 100.654 20.2639C100.843 20.1589 101.074 20.0539 101.347 19.9909C101.641 19.9279 101.956 19.9069 102.313 19.9069C102.712 19.9069 103.174 19.9909 103.678 20.1589C104.182 20.3269 104.665 20.5369 105.127 20.8519C105.61 21.1249 106.03 21.4609 106.408 21.8179L108.802 19.1719C108.277 18.6469 107.668 18.1849 106.954 17.8069C106.261 17.4289 105.505 17.1139 104.686 16.9039C103.867 16.6939 103.027 16.5889 102.166 16.5889C101.305 16.5889 100.486 16.7149 99.7087 16.9669C98.9317 17.1979 98.2387 17.5339 97.6297 17.9749C97.0417 18.4159 96.5797 18.9409 96.2437 19.5709C95.9077 20.1799 95.7397 20.8729 95.7397 21.6289C95.7397 22.2589 95.8237 22.8469 96.0127 23.3509C96.2227 23.8549 96.5167 24.3379 96.8947 24.7789C97.3357 25.2409 97.9237 25.6609 98.6587 26.0389C99.4147 26.3959 100.339 26.7109 101.41 26.9839C102.103 27.1729 102.67 27.3409 103.111 27.5089C103.552 27.6769 103.867 27.7819 104.077 27.8869C104.455 28.1599 104.644 28.5379 104.644 28.9999C104.644 29.2309 104.602 29.4409 104.497 29.6509C104.413 29.8609 104.266 30.0289 104.077 30.1549C103.888 30.3019 103.657 30.4069 103.384 30.4909C103.132 30.5539 102.859 30.5749 102.544 30.5749C101.746 30.5749 100.948 30.4279 100.15 30.1339C99.3517 29.8189 98.6167 29.3149 97.9657 28.6219L95.1937 31.0159C95.9287 31.9189 96.8947 32.6329 98.0917 33.1579C99.3097 33.6619 100.696 33.9139 102.25 33.9139C103.51 33.9139 104.644 33.7039 105.652 33.2629C106.66 32.7799 107.458 32.1499 108.025 31.3729C108.613 30.5539 108.907 29.6089 108.907 28.5799C108.907 28.0129 108.823 27.4669 108.655 26.9839ZM126.861 20.8099C126.105 19.5079 125.055 18.4789 123.711 17.7229C122.388 16.9669 120.897 16.5889 119.217 16.5889C117.516 16.5889 115.983 16.9669 114.639 17.7229C113.316 18.4789 112.266 19.5079 111.489 20.8099C110.733 22.0909 110.356 23.5819 110.356 25.2409C110.356 26.9209 110.733 28.4119 111.489 29.7139C112.266 31.0159 113.316 32.0659 114.639 32.8009C115.983 33.5569 117.516 33.9139 119.217 33.9139C120.897 33.9139 122.388 33.5569 123.711 32.8009C125.055 32.0659 126.105 31.0159 126.861 29.7139C127.617 28.4119 127.995 26.9209 127.995 25.2409C127.995 23.5819 127.617 22.0909 126.861 20.8099ZM122.934 27.6979C122.577 28.4119 122.073 28.9999 121.422 29.4199C120.771 29.7979 120.036 30.0079 119.217 30.0079C118.377 30.0079 117.621 29.7979 116.97 29.4199C116.319 28.9999 115.815 28.4119 115.437 27.6979C115.059 26.9839 114.87 26.1439 114.891 25.2409C114.87 24.3379 115.059 23.4979 115.437 22.7839C115.815 22.0909 116.319 21.5029 116.97 21.1039C117.621 20.6839 118.377 20.4529 119.217 20.4529C120.036 20.4529 120.771 20.6839 121.422 21.1039C122.073 21.4819 122.577 22.0699 122.934 22.7839C123.312 23.4979 123.501 24.3379 123.501 25.2409C123.501 26.1439 123.312 26.9839 122.934 27.6979ZM141.603 16.9249V26.9209C141.603 27.3829 141.519 27.8029 141.351 28.2229C141.183 28.6009 140.952 28.9579 140.658 29.2519C140.364 29.5459 140.007 29.7769 139.587 29.9449C139.167 30.0919 138.726 30.1549 138.243 30.1549C137.571 30.1549 137.004 30.0289 136.542 29.7139C136.08 29.4409 135.723 28.9999 135.471 28.4749C135.219 27.8869 135.093 27.2359 135.093 26.4799V16.9249H130.62V27.1939C130.62 28.6009 130.851 29.8189 131.313 30.8269C131.796 31.8139 132.468 32.5909 133.329 33.1159C134.211 33.6409 135.261 33.9139 136.479 33.9139C137.424 33.9139 138.306 33.7459 139.125 33.3889C139.944 33.0319 140.637 32.5279 141.225 31.8979C141.414 31.6879 141.582 31.4779 141.729 31.2679L141.834 33.5989H146.076V16.9249H141.603ZM160.335 16.6939C159.999 16.6099 159.663 16.5889 159.306 16.5889C158.466 16.5889 157.647 16.7779 156.87 17.1979C156.114 17.5969 155.463 18.1429 154.896 18.8569C154.686 19.1089 154.497 19.3819 154.35 19.6549L154.266 16.9249H149.94V33.5989H154.455V24.9679C154.455 24.4429 154.539 23.9599 154.707 23.5189C154.896 23.0779 155.148 22.6999 155.463 22.3849C155.778 22.0489 156.135 21.7969 156.555 21.6289C156.996 21.4399 157.479 21.3349 157.983 21.3349C158.361 21.3349 158.718 21.3979 159.075 21.5029C159.432 21.5869 159.747 21.6919 159.999 21.8179L161.196 16.9039C160.965 16.8199 160.671 16.7359 160.335 16.6939ZM172.998 29.0629C172.578 29.3779 172.137 29.6089 171.654 29.7979C171.171 29.9449 170.646 30.0079 170.1 30.0079C169.26 30.0079 168.504 29.7979 167.832 29.3779C167.16 28.9369 166.635 28.3699 166.236 27.6769C165.858 26.9629 165.669 26.1439 165.669 25.2409C165.669 24.3379 165.858 23.4979 166.236 22.7839C166.614 22.0909 167.118 21.5239 167.769 21.1249C168.441 20.7049 169.218 20.4949 170.079 20.4949C170.625 20.4949 171.15 20.5999 171.654 20.7889C172.179 20.9569 172.662 21.2299 173.103 21.5659C173.544 21.8809 173.901 22.2379 174.195 22.6369L176.652 19.6759C175.959 18.7099 174.993 17.9539 173.754 17.4079C172.515 16.8619 171.15 16.5889 169.659 16.5889C168.063 16.5889 166.635 16.9669 165.375 17.7229C164.115 18.4789 163.128 19.5289 162.393 20.8519C161.679 22.1539 161.322 23.6029 161.322 25.2409C161.322 26.8999 161.679 28.3909 162.393 29.6929C163.128 30.9949 164.115 32.0239 165.375 32.7799C166.635 33.5359 168.063 33.9139 169.659 33.9139C171.066 33.9139 172.41 33.6409 173.67 33.0949C174.93 32.5279 175.917 31.7929 176.631 30.8899L174.195 27.9289C173.838 28.3699 173.439 28.7479 172.998 29.0629ZM194.019 24.8839C194.061 23.6659 193.893 22.5739 193.515 21.5659C193.137 20.5579 192.591 19.6969 191.877 18.9409C191.184 18.1849 190.344 17.6179 189.378 17.2189C188.412 16.7989 187.362 16.5889 186.228 16.5889C185.01 16.5889 183.876 16.8199 182.826 17.2609C181.797 17.6599 180.915 18.2689 180.159 19.0879C179.403 19.8439 178.815 20.7889 178.395 21.8389C177.975 22.9099 177.765 24.1069 177.765 25.3879C177.765 27.0469 178.143 28.4959 178.899 29.7979C179.655 31.0789 180.705 32.0659 182.049 32.8009C183.393 33.5569 184.968 33.9139 186.774 33.9139C187.53 33.9139 188.286 33.8089 189.063 33.6199C189.84 33.4519 190.596 33.1789 191.331 32.8009C192.066 32.4229 192.738 31.9819 193.347 31.4359L191.205 28.4329C190.512 28.9999 189.861 29.3989 189.252 29.6299C188.643 29.8609 187.971 29.9659 187.236 29.9659C186.165 29.9659 185.241 29.7769 184.443 29.3779C183.666 28.9579 183.057 28.3909 182.616 27.6349C182.385 27.2149 182.217 26.7739 182.133 26.2699H193.977L194.019 24.8839ZM189.798 23.5189H182.154C182.217 23.1409 182.343 22.8259 182.49 22.5109C182.826 21.8179 183.309 21.2929 183.939 20.9359C184.59 20.5789 185.367 20.4109 186.291 20.4109C186.921 20.4109 187.488 20.5159 187.992 20.7889C188.496 21.0409 188.916 21.3979 189.231 21.8389C189.567 22.3009 189.756 22.8259 189.798 23.3929V23.5189Z" fill="black"/>
<path d="M71.6318 24.9893C71.7998 24.9263 71.9678 24.8423 72.1358 24.7373C73.2488 24.1073 74.1098 23.2673 74.7398 22.1963C75.3908 21.1043 75.7268 19.9073 75.7268 18.5843C75.7268 17.2193 75.3908 16.0433 74.7398 14.9933C74.1098 13.9433 73.2488 13.1033 72.1358 12.4943C71.0228 11.8643 69.7838 11.5493 68.4188 11.5493H58.6538V33.5993H63.2108V25.6823H66.6968L71.1488 33.5993L76.6298 33.6203L71.6318 24.9893ZM63.2108 15.6443H67.5998C68.2928 15.6443 68.9018 15.7703 69.4268 16.0433C69.9518 16.2953 70.3508 16.6523 70.6238 17.1143C70.8968 17.5973 71.0228 18.1433 71.0228 18.7733C71.0228 19.3613 70.9178 19.8863 70.6868 20.3693C70.4558 20.8313 70.1198 21.2093 69.6788 21.4823C69.2588 21.7343 68.7548 21.8393 68.1878 21.8393H63.2108V15.6443Z" fill="black"/>
<path d="M198.475 31.5322C199.037 31.5322 199.493 31.9879 199.493 32.5499C199.493 33.1119 199.037 33.5676 198.475 33.5676H198.417C197.855 33.5676 197.4 33.1119 197.4 32.5499C197.4 31.9879 197.855 31.5322 198.417 31.5322H198.475Z" fill="black"/>
<path d="M205.294 22.8252C204.569 22.793 204.06 22.9115 203.768 23.1807C203.476 23.4391 203.33 23.8861 203.33 24.5215V24.6668H205.294V26.2499H203.33V33.5676H201.464V26.2499H200.246V24.6668H201.464V24.376C201.464 23.2883 201.782 22.4753 202.421 21.9368C203.059 21.3876 204.017 21.1452 205.294 21.2099V22.8252Z" fill="black"/>
<path d="M207.836 24.667L210.513 31.2093L212.996 24.667H215.058L209.653 37.8001H207.592L209.524 33.3578L205.758 24.667H207.836Z" fill="black"/>
<path d="M216.014 22.0823C216.014 21.77 216.122 21.5115 216.339 21.3069C216.555 21.1023 216.841 21 217.198 21C217.555 21 217.842 21.1023 218.058 21.3069C218.286 21.5115 218.4 21.77 218.4 22.0823C218.4 22.3946 218.286 22.6477 218.058 22.8416C217.842 23.0353 217.555 23.1323 217.198 23.1323C216.841 23.1323 216.555 23.0353 216.339 22.8416C216.122 22.6477 216.014 22.3946 216.014 22.0823ZM218.124 24.6669V33.5677H216.273V24.6669H218.124Z" fill="black"/>
<path fill-rule="evenodd" clip-rule="evenodd" d="M28.497 0L7.665 7.917V12.621C3.822 12.894 0.357 15.666 0 15.96L2.037 16.485C8.19 18.081 7.686 28.602 7.623 29.757L24.864 42L45.108 35.007L45.276 10.29C45.276 10.29 34.965 4.053 28.497 0ZM9.891 28.686C10.017 26.124 9.891 18.48 4.893 15.351C5.712 15.078 6.636 14.91 7.644 14.847C10.689 14.595 16.065 15.183 23.898 19.194L23.94 38.661L9.891 28.686ZM38.157 31.458L35.553 28.959L32.298 33.348V22.092L38.157 19.74V31.458ZM25.095 17.346L11.235 8.904L28.266 2.415L41.769 10.689L25.095 17.346Z" fill="black"/>
<path d="M18.7844 28.0241C18.8527 28.0346 18.9157 28.0399 18.9839 28.0346C19.4144 28.0294 19.7504 27.8614 19.9972 27.5254C20.2544 27.1894 20.3857 26.7221 20.3909 26.1079C20.3962 25.4726 20.2702 24.8374 20.0234 24.1864C19.7872 23.5354 19.4564 22.9211 19.0259 22.3541C18.6007 21.7714 18.1229 21.3094 17.5979 20.9576L13.8284 18.4376L13.7444 28.6699L15.5032 29.8459L15.5347 26.1709L16.8787 27.0739L18.5692 31.8934L20.6849 33.3161L18.7844 28.0241ZM18.4379 25.6354C18.3487 25.7876 18.2174 25.8769 18.0442 25.8926C17.8814 25.8979 17.6872 25.8191 17.4719 25.6721L15.5504 24.3911L15.5714 21.5141L17.2672 22.6481C17.5349 22.8266 17.7659 23.0419 17.9707 23.3044C18.1702 23.5564 18.3224 23.8241 18.4274 24.1076C18.5324 24.4016 18.5797 24.6904 18.5744 24.9791C18.5744 25.2521 18.5324 25.4674 18.4379 25.6354Z" fill="black"/>
</svg>
