<svg width="138" height="38" viewBox="0 0 138 38" fill="none" xmlns="http://www.w3.org/2000/svg">
<g clip-path="url(#clip0_8814_12128)">
<path d="M119.188 21.5592C119.188 21.0177 119.659 20.5703 120.202 20.5703C120.744 20.5703 121.192 21.0177 121.192 21.5592C121.192 22.1007 120.72 22.548 120.202 22.548C119.682 22.548 119.188 22.1007 119.188 21.5592Z" fill="black"/>
<path d="M122.583 19.0398H123.927V19.5342C123.927 20.523 124.469 21.2529 125.601 21.2529C126.733 21.2529 127.252 20.5466 127.252 19.4871V12.1885H128.619V19.5342C128.619 21.3706 127.393 22.5007 125.577 22.5007C123.644 22.5007 122.56 21.2765 122.56 19.5107V19.0162L122.583 19.0398Z" fill="black"/>
<path d="M133.83 12.0474C135.764 12.0474 137.013 13.1304 137.131 14.8962H135.74C135.669 13.8838 134.962 13.2952 133.807 13.2952C132.533 13.2952 131.708 13.9308 131.708 14.9432C131.708 15.7673 132.179 16.2382 133.123 16.4736L134.796 16.8738C136.447 17.2506 137.296 18.1452 137.296 19.5814C137.296 21.4179 135.881 22.5716 133.712 22.5716C131.542 22.5716 130.269 21.4885 130.175 19.7463H131.59C131.614 20.7116 132.439 21.3237 133.712 21.3237C135.056 21.3237 135.928 20.688 135.928 19.6756C135.928 18.8751 135.504 18.3807 134.514 18.1452L132.839 17.7685C131.189 17.3919 130.317 16.4266 130.317 14.9668C130.317 13.2246 131.732 12.0474 133.83 12.0474Z" fill="black"/>
<path d="M65.1721 1.8999V16.5207L55.4814 1.8999H51.8975V22.548H55.4578V7.90362L65.1721 22.548H68.7325V1.8999H65.1721Z" fill="black"/>
<path d="M84.2467 1.8999V5.2196H75.0276V10.5405H83.28V13.719H75.0276V19.2047H84.2467V22.548H71.3965V1.8999H84.2467Z" fill="black"/>
<path d="M107.401 1.8999L105.138 5.2196H111.692V22.548H115.323V5.2196H119.945L122.185 1.8999H107.401Z" fill="black"/>
<path d="M92.0043 14.4019L94.2207 17.651L90.8726 22.5481H86.4634L92.0043 14.4019Z" fill="black"/>
<path d="M104.996 22.548H100.563L95.7291 15.4377L93.513 12.1886L86.5103 1.8999H90.9194L95.7291 8.93955L100.516 1.8999H104.925L100.257 8.7512L97.9221 12.1886L104.996 22.548Z" fill="black"/>
<path d="M51.8975 25.29H58.075V26.0905H55.4107V33.8836H54.5383V26.0905H51.8975V25.29Z" fill="black"/>
<path d="M57.792 30.964C57.792 29.1511 58.9238 27.9033 60.5978 27.9033C62.2719 27.9033 63.2386 29.0099 63.2386 30.658V31.0583H58.5936C58.6644 32.4709 59.3954 33.295 60.645 33.295C61.5881 33.295 62.2012 32.8947 62.437 32.1177H63.2386C62.9321 33.342 62.0125 34.0013 60.645 34.0013C58.9238 34.0013 57.792 32.777 57.792 30.964ZM58.6172 30.4696H62.4134C62.4134 29.3631 61.6824 28.6096 60.5978 28.6096C59.5132 28.6096 58.7823 29.3395 58.6408 30.4696H58.6172Z" fill="black"/>
<path d="M64.5591 33.8836V28.0681H65.29L65.3843 28.8922C65.6673 28.2801 66.3274 27.9033 67.1527 27.9033C68.0723 27.9033 68.756 28.3742 69.039 29.1511C69.2983 28.3978 70.0057 27.9033 70.9488 27.9033C72.222 27.9033 73.0473 28.7274 73.0473 30.0694V33.8836H72.2456V30.2578C72.2456 29.2689 71.6798 28.6803 70.8073 28.6803C69.8406 28.6803 69.2511 29.4102 69.2511 30.3048V33.8836H68.4259V30.2342C68.4259 29.2454 67.86 28.6803 66.9876 28.6803C66.0209 28.6803 65.4315 29.4102 65.4315 30.2813V33.8836H64.5591Z" fill="black"/>
<path d="M74.6978 28.0681H75.4287L75.523 29.2454C75.9238 28.3507 76.7491 27.9033 77.7393 27.9033C79.437 27.9033 80.4273 29.1983 80.4273 30.9406C80.4273 32.6828 79.4606 34.0013 77.7393 34.0013C76.7491 34.0013 75.971 33.5775 75.5702 32.7299V36.3792H74.7449V28.0446L74.6978 28.0681ZM77.5744 33.2714C78.8476 33.2714 79.5785 32.3061 79.5785 30.964C79.5785 29.6221 78.8476 28.6568 77.5744 28.6568C76.3011 28.6568 75.5466 29.6221 75.5466 30.964C75.5466 32.3061 76.3011 33.2714 77.5744 33.2714Z" fill="black"/>
<path d="M81.771 33.8834V25.7136L82.5962 25.125V33.8599H81.771V33.8834Z" fill="black"/>
<path d="M84.0581 32.306C84.0581 31.2464 84.8834 30.5637 86.251 30.4695L88.1844 30.3047V30.1164C88.1844 28.9863 87.5006 28.6095 86.6518 28.6095C85.6379 28.6095 85.0484 29.0569 85.0484 29.8573H84.294C84.294 28.6802 85.2607 27.9268 86.699 27.9268C88.0429 27.9268 89.0332 28.6095 89.0332 30.1399V33.8834H88.3258L88.208 32.871C87.8542 33.6009 87.0526 34.0482 86.0623 34.0482C84.8126 34.0482 84.0817 33.3419 84.0817 32.3295L84.0581 32.306ZM88.1608 31.2464V30.9404L86.4395 31.0817C85.3314 31.1759 84.9069 31.6468 84.9069 32.306C84.9069 33.0123 85.4257 33.3654 86.2274 33.3654C87.4534 33.3654 88.1608 32.5178 88.1608 31.2464Z" fill="black"/>
<path d="M91.0612 33.8838V28.7747H89.8823V28.0684H91.0612V26.797L91.8864 26.2319V28.0684H93.0654V28.7747H91.8864V33.8838H91.0612Z" fill="black"/>
<path d="M93.6548 30.964C93.6548 29.1511 94.7866 27.9033 96.461 27.9033C98.1345 27.9033 99.1011 29.0099 99.1011 30.658V31.0583H94.4564C94.5272 32.4709 95.2581 33.295 96.5076 33.295C97.4504 33.295 98.0641 32.8947 98.3 32.1177H99.1011C98.7948 33.342 97.8757 34.0013 96.5076 34.0013C94.7866 34.0013 93.6548 32.777 93.6548 30.964ZM94.48 30.4696H98.2763C98.2763 29.3631 97.5456 28.6096 96.461 28.6096C95.3759 28.6096 94.6451 29.3395 94.5036 30.4696H94.48Z" fill="black"/>
<path d="M100.728 32.2354C100.728 32.9183 101.223 33.3185 102.048 33.3185C102.945 33.3185 103.487 32.9418 103.487 32.3061C103.487 31.8352 103.251 31.5527 102.567 31.3879L101.577 31.1289C100.563 30.8699 100.068 30.352 100.068 29.5515C100.068 28.5391 100.917 27.8799 102.166 27.8799C103.416 27.8799 104.194 28.5626 104.218 29.6221H103.416C103.416 28.9393 102.921 28.5626 102.143 28.5626C101.364 28.5626 100.87 28.9158 100.87 29.5279C100.87 29.9753 101.176 30.2813 101.812 30.4461L102.803 30.7051C103.817 30.9642 104.265 31.435 104.265 32.259C104.265 33.295 103.369 33.9777 102.048 33.9777C100.728 33.9777 99.9268 33.2714 99.9268 32.212H100.728V32.2354Z" fill="black"/>
<path d="M136.287 31.0994H108.418L109.479 29.875H137.325L136.287 31.0994Z" fill="black"/>
<path d="M38.5792 18.9764C38.5792 21.5898 38.0604 24.0855 37.1172 26.3222C34.2407 33.197 27.4737 38 19.5514 38C9.03539 38 0.5 29.5006 0.5 19C0.5 8.49938 9.03539 0 19.5514 0C25.6581 0 31.1048 2.87236 34.5944 7.34572H19.1976L21.8856 11.3718H25.328V23.85L21.4848 18.0347L14.3877 7.34572H10.3322V30.4H14.3641V14.1264L25.328 30.6543H29.3364V11.3718H36.9994C38.0133 13.7026 38.5792 16.2689 38.5792 18.9764Z" fill="black"/>
</g>
<defs>
<clipPath id="clip0_8814_12128">
<rect width="137" height="38" fill="white" transform="translate(0.5)"/>
</clipPath>
</defs>
</svg>
